<svg width="31" height="42" viewBox="0 0 31 42" fill="none" xmlns="http://www.w3.org/2000/svg">
<path d="M13.0674 1.70312C14.3955 0.84375 16.1924 0.84375 17.5205 1.70312L18.7705 2.40625C18.8486 2.48438 19.0049 2.48438 19.083 2.48438H20.4893C22.1299 2.40625 23.6924 3.26562 24.3955 4.75L25.0986 6C25.1768 6.07812 25.2549 6.15625 25.333 6.23438L26.583 6.85938C28.0674 7.64062 28.9268 9.20312 28.8486 10.7656V12.25C28.8486 12.3281 28.8486 12.4844 28.9268 12.5625L29.6299 13.7344C30.4893 15.1406 30.4893 16.8594 29.6299 18.2656L28.9268 19.5156C28.8486 19.5938 28.8486 19.75 28.8486 19.8281V21.2344C28.9268 22.875 28.0674 24.3594 26.583 25.1406L25.333 25.8438C25.2549 25.9219 25.1768 26 25.0986 26.0781L24.4736 27.3281C23.6924 28.7344 22.1299 29.6719 20.5674 29.5938H19.083C19.0049 29.5938 18.8486 29.5938 18.7705 29.6719L17.5986 30.375C16.1924 31.2344 14.4736 31.2344 13.0674 30.375L11.8174 29.6719C11.7393 29.5938 11.583 29.5938 11.5049 29.5938H10.0986C8.45801 29.6719 6.97363 28.7344 6.19238 27.3281L5.48926 26.0781C5.41113 26 5.33301 25.9219 5.25488 25.8438L4.00488 25.1406C2.59863 24.3594 1.66113 22.875 1.73926 21.2344V19.8281C1.73926 19.75 1.73926 19.5938 1.66113 19.5156L0.958008 18.2656C0.0986328 16.9375 0.0986328 15.1406 0.958008 13.8125L1.66113 12.5625C1.73926 12.4844 1.73926 12.3281 1.73926 12.25V10.8438C1.66113 9.20312 2.59863 7.64062 4.00488 6.85938L5.25488 6.23438C5.33301 6.15625 5.41113 6.07812 5.48926 6L6.19238 4.75C6.97363 3.26562 8.45801 2.40625 10.0986 2.48438H11.5049C11.583 2.48438 11.7393 2.48438 11.8174 2.40625L13.0674 1.70312ZM15.5674 4.90625C15.4111 4.75 15.1768 4.75 15.0205 4.90625L13.7705 5.60938C13.0674 6.07812 12.208 6.23438 11.4268 6.23438H10.0205C9.78613 6.23438 9.55176 6.3125 9.47363 6.54688L8.77051 7.79688C8.37988 8.5 7.75488 9.125 7.05176 9.51562L5.80176 10.2188C5.56738 10.2969 5.48926 10.5312 5.48926 10.6875V12.1719C5.56738 12.9531 5.33301 13.8125 4.86426 14.5156L4.16113 15.7656L2.52051 14.75L4.16113 15.7656C4.00488 15.9219 4.00488 16.1562 4.16113 16.3125L4.86426 17.5625C5.33301 18.2656 5.48926 19.125 5.48926 19.9062V21.3125C5.48926 21.5469 5.56738 21.7812 5.80176 21.8594L7.05176 22.5625C7.75488 22.9531 8.37988 23.5781 8.77051 24.2812L9.47363 25.5312C9.55176 25.7656 9.78613 25.8438 10.0205 25.8438H11.4268C12.208 25.7656 13.0674 26 13.7705 26.4688L15.0205 27.1719C15.1768 27.3281 15.4111 27.3281 15.5674 27.1719L16.8174 26.4688C17.5205 26 18.3799 25.8438 19.1611 25.8438H20.6455C20.8018 25.8438 21.0361 25.7656 21.1143 25.5312L21.8174 24.2812C22.208 23.5781 22.833 22.9531 23.5361 22.5625L24.7861 21.8594C25.0205 21.7812 25.0986 21.5469 25.0986 21.3125V19.9062C25.0986 19.125 25.2549 18.2656 25.7236 17.5625L26.4268 16.3125C26.583 16.1562 26.583 15.9219 26.4268 15.7656L25.7236 14.5156C25.2549 13.8125 25.0986 12.9531 25.0986 12.1719V10.6875C25.0986 10.5312 25.0205 10.2969 24.7861 10.2188L23.5361 9.51562C22.833 9.125 22.208 8.5 21.8174 7.79688L21.1143 6.54688C21.0361 6.3125 20.8018 6.23438 20.6455 6.23438H19.1611C18.3799 6.23438 17.5205 6.07812 16.8174 5.60938L15.5674 4.90625ZM10.333 16C10.333 14.2812 11.2705 12.6406 12.833 11.7031C14.3174 10.8438 16.2705 10.8438 17.833 11.7031C19.3174 12.6406 20.333 14.2812 20.333 16C20.333 17.7969 19.3174 19.4375 17.833 20.375C16.2705 21.2344 14.3174 21.2344 12.833 20.375C11.2705 19.4375 10.333 17.7969 10.333 16ZM0.411133 35.5312L3.61426 27.875L4.00488 28.5781C5.17676 30.7656 7.59863 32.1719 10.0986 32.0938H11.0361L11.7393 32.5625C12.3643 32.875 13.0674 33.1875 13.7705 33.3438L10.8018 40.2969C10.6455 40.6875 10.2549 41 9.78613 41C9.31738 41.0781 8.84863 40.8438 8.61426 40.4531L6.11426 36.625L1.73926 37.25C1.27051 37.3281 0.801758 37.1719 0.567383 36.7812C0.254883 36.4688 0.254883 36 0.411133 35.5312ZM19.7861 40.2969L16.8955 33.3438C17.5205 33.1875 18.2236 32.9531 18.8486 32.5625L19.6299 32.0938H20.4893C22.9893 32.1719 25.4111 30.7656 26.6611 28.5781L26.9736 27.875L30.1768 35.5312C30.333 36 30.333 36.4688 30.0205 36.7812C29.7861 37.1719 29.3174 37.3281 28.8486 37.25L24.4736 36.625L21.9736 40.4531C21.7393 40.8438 21.2705 41.0781 20.8018 41C20.333 41 19.9424 40.6875 19.7861 40.2969Z" fill="#27B8C8"/>
</svg>
