<svg width="18" height="18" viewBox="0 0 18 18" fill="none" xmlns="http://www.w3.org/2000/svg">
<path d="M5.5625 2.625V11.625C5.5625 11.9414 5.80859 12.1875 6.125 12.1875H13.0508C13.1914 12.1875 13.332 12.1523 13.4375 12.0469L15.5117 9.97266C15.6172 9.86719 15.6875 9.72656 15.6875 9.58594V2.625C15.6875 2.34375 15.4062 2.0625 15.125 2.0625H6.125C5.80859 2.0625 5.5625 2.34375 5.5625 2.625ZM3.875 2.625C3.875 1.39453 4.85938 0.375 6.125 0.375H15.125C16.3555 0.375 17.375 1.39453 17.375 2.625V9.58594C17.375 10.1836 17.1289 10.7461 16.707 11.168L14.6328 13.2422C14.2109 13.6641 13.6484 13.875 13.0508 13.875H6.125C4.85938 13.875 3.875 12.8906 3.875 11.625V2.625ZM10.0625 3.75H11.1875C11.4688 3.75 11.75 4.03125 11.75 4.3125V6H13.4375C13.7188 6 14 6.28125 14 6.5625V7.6875C14 8.00391 13.7188 8.25 13.4375 8.25H11.75V9.9375C11.75 10.2539 11.4688 10.5 11.1875 10.5H10.0625C9.74609 10.5 9.5 10.2539 9.5 9.9375V8.25H7.8125C7.49609 8.25 7.25 8.00391 7.25 7.6875V6.5625C7.25 6.28125 7.49609 6 7.8125 6H9.5V4.3125C9.5 4.03125 9.74609 3.75 10.0625 3.75ZM10.9062 15.5625C11.3633 15.5625 11.75 15.9492 11.75 16.4062C11.75 16.8984 11.3633 17.25 10.9062 17.25H5.28125C2.60938 17.25 0.5 15.1406 0.5 12.4688V4.59375C0.5 4.13672 0.851562 3.75 1.34375 3.75C1.80078 3.75 2.1875 4.13672 2.1875 4.59375V12.4688C2.1875 14.1914 3.55859 15.5625 5.28125 15.5625H10.9062Z" fill="#011445"/>
</svg>
