<svg width="16" height="14" viewBox="0 0 16 14" fill="none" xmlns="http://www.w3.org/2000/svg">
<path d="M2 0H6.125C6.71875 0 7.28125 0.25 7.71875 0.6875L9.03125 2H14C15.0938 2 16 2.90625 16 4V12C16 13.125 15.0938 14 14 14H2C0.875 14 0 13.125 0 12V2C0 0.90625 0.875 0 2 0ZM1.5 2V12C1.5 12.2812 1.71875 12.5 2 12.5H14C14.25 12.5 14.5 12.2812 14.5 12V4C14.5 3.75 14.25 3.5 14 3.5H8.9375C8.625 3.5 8.28125 3.375 8.0625 3.15625L6.65625 1.71875C6.5 1.59375 6.3125 1.5 6.125 1.5H2C1.71875 1.5 1.5 1.75 1.5 2ZM7 5.5C7 5.25 7.21875 5 7.5 5H8.5C8.75 5 9 5.25 9 5.5V7H10.5C10.75 7 11 7.25 11 7.5V8.5C11 8.78125 10.75 9 10.5 9H9V10.5C9 10.7812 8.75 11 8.5 11H7.5C7.21875 11 7 10.7812 7 10.5V9H5.5C5.21875 9 5 8.78125 5 8.5V7.5C5 7.25 5.21875 7 5.5 7H7V5.5Z" fill="#FDFDFE"/>
</svg>
