<svg width="19" height="24" viewBox="0 0 19 24" fill="none" xmlns="http://www.w3.org/2000/svg">
<path d="M15.5 3C17.1406 3 18.5 4.35938 18.5 6V21C18.5 22.6875 17.1406 24 15.5 24H3.5C1.8125 24 0.5 22.6875 0.5 21V6C0.5 4.35938 1.8125 3 3.5 3H5.375H5.79688C6.17188 1.3125 7.67188 0 9.5 0C11.2812 0 12.8281 1.3125 13.1562 3H13.625H15.5ZM4.25 5.25H3.5C3.07812 5.25 2.75 5.625 2.75 6V21C2.75 21.4219 3.07812 21.75 3.5 21.75H15.5C15.875 21.75 16.25 21.4219 16.25 21V6C16.25 5.625 15.875 5.25 15.5 5.25H14.75V6.375C14.75 7.03125 14.2344 7.5 13.625 7.5H9.5H5.375C4.71875 7.5 4.25 7.03125 4.25 6.375V5.25ZM8.375 3.75C8.375 4.40625 8.84375 4.875 9.5 4.875C10.1094 4.875 10.625 4.40625 10.625 3.75C10.625 3.14062 10.1094 2.625 9.5 2.625C8.84375 2.625 8.375 3.14062 8.375 3.75ZM8 11.25C8 10.875 8.32812 10.5 8.75 10.5H10.25C10.625 10.5 11 10.875 11 11.25V13.5H13.25C13.625 13.5 14 13.875 14 14.25V15.75C14 16.1719 13.625 16.5 13.25 16.5H11V18.75C11 19.1719 10.625 19.5 10.25 19.5H8.75C8.32812 19.5 8 19.1719 8 18.75V16.5H5.75C5.32812 16.5 5 16.1719 5 15.75V14.25C5 13.875 5.32812 13.5 5.75 13.5H8V11.25Z" fill="#1F7D71"/>
</svg>
