<svg width="30" height="31" viewBox="0 0 30 31" fill="none" xmlns="http://www.w3.org/2000/svg">
<path d="M9 4.5V20.5C9 21.0625 9.4375 21.5 10 21.5H22.3125C22.5625 21.5 22.8125 21.4375 23 21.25L26.6875 17.5625C26.875 17.375 27 17.125 27 16.875V4.5C27 4 26.5 3.5 26 3.5H10C9.4375 3.5 9 4 9 4.5ZM6 4.5C6 2.3125 7.75 0.5 10 0.5H26C28.1875 0.5 30 2.3125 30 4.5V16.875C30 17.9375 29.5625 18.9375 28.8125 19.6875L25.125 23.375C24.375 24.125 23.375 24.5 22.3125 24.5H10C7.75 24.5 6 22.75 6 20.5V4.5ZM17 6.5H19C19.5 6.5 20 7 20 7.5V10.5H23C23.5 10.5 24 11 24 11.5V13.5C24 14.0625 23.5 14.5 23 14.5H20V17.5C20 18.0625 19.5 18.5 19 18.5H17C16.4375 18.5 16 18.0625 16 17.5V14.5H13C12.4375 14.5 12 14.0625 12 13.5V11.5C12 11 12.4375 10.5 13 10.5H16V7.5C16 7 16.4375 6.5 17 6.5ZM18.5 27.5C19.3125 27.5 20 28.1875 20 29C20 29.875 19.3125 30.5 18.5 30.5H8.5C3.75 30.5 0 26.75 0 22V8C0 7.1875 0.625 6.5 1.5 6.5C2.3125 6.5 3 7.1875 3 8V22C3 25.0625 5.4375 27.5 8.5 27.5H18.5Z" fill="#193CE5"/>
</svg>
