<svg width="15" height="21" viewBox="0 0 15 21" fill="none" xmlns="http://www.w3.org/2000/svg">
<path d="M12.5 2.65967C13.8672 2.65967 15 3.79248 15 5.15967V17.6597C15 19.0659 13.8672 20.1597 12.5 20.1597H2.5C1.09375 20.1597 0 19.0659 0 17.6597V5.15967C0 3.79248 1.09375 2.65967 2.5 2.65967H4.0625H4.41406C4.72656 1.25342 5.97656 0.159668 7.5 0.159668C8.98438 0.159668 10.2734 1.25342 10.5469 2.65967H10.9375H12.5ZM3.125 4.53467H2.5C2.14844 4.53467 1.875 4.84717 1.875 5.15967V17.6597C1.875 18.0112 2.14844 18.2847 2.5 18.2847H12.5C12.8125 18.2847 13.125 18.0112 13.125 17.6597V5.15967C13.125 4.84717 12.8125 4.53467 12.5 4.53467H11.875V5.47217C11.875 6.01904 11.4453 6.40967 10.9375 6.40967H7.5H4.0625C3.51562 6.40967 3.125 6.01904 3.125 5.47217V4.53467ZM6.5625 3.28467C6.5625 3.83154 6.95312 4.22217 7.5 4.22217C8.00781 4.22217 8.4375 3.83154 8.4375 3.28467C8.4375 2.77686 8.00781 2.34717 7.5 2.34717C6.95312 2.34717 6.5625 2.77686 6.5625 3.28467ZM6.25 9.53467C6.25 9.22217 6.52344 8.90967 6.875 8.90967H8.125C8.4375 8.90967 8.75 9.22217 8.75 9.53467V11.4097H10.625C10.9375 11.4097 11.25 11.7222 11.25 12.0347V13.2847C11.25 13.6362 10.9375 13.9097 10.625 13.9097H8.75V15.7847C8.75 16.1362 8.4375 16.4097 8.125 16.4097H6.875C6.52344 16.4097 6.25 16.1362 6.25 15.7847V13.9097H4.375C4.02344 13.9097 3.75 13.6362 3.75 13.2847V12.0347C3.75 11.7222 4.02344 11.4097 4.375 11.4097H6.25V9.53467Z" fill="#011445"/>
</svg>
