<svg width="24" height="23" viewBox="0 0 24 23" fill="none" xmlns="http://www.w3.org/2000/svg">
<path d="M7.58496 3.5V15.5C7.58496 15.9219 7.91309 16.25 8.33496 16.25H17.5693C17.7568 16.25 17.9443 16.2031 18.085 16.0625L20.8506 13.2969C20.9912 13.1562 21.085 12.9688 21.085 12.7812V3.5C21.085 3.125 20.71 2.75 20.335 2.75H8.33496C7.91309 2.75 7.58496 3.125 7.58496 3.5ZM5.33496 3.5C5.33496 1.85938 6.64746 0.5 8.33496 0.5H20.335C21.9756 0.5 23.335 1.85938 23.335 3.5V12.7812C23.335 13.5781 23.0068 14.3281 22.4443 14.8906L19.6787 17.6562C19.1162 18.2188 18.3662 18.5 17.5693 18.5H8.33496C6.64746 18.5 5.33496 17.1875 5.33496 15.5V3.5ZM13.585 5H15.085C15.46 5 15.835 5.375 15.835 5.75V8H18.085C18.46 8 18.835 8.375 18.835 8.75V10.25C18.835 10.6719 18.46 11 18.085 11H15.835V13.25C15.835 13.6719 15.46 14 15.085 14H13.585C13.1631 14 12.835 13.6719 12.835 13.25V11H10.585C10.1631 11 9.83496 10.6719 9.83496 10.25V8.75C9.83496 8.375 10.1631 8 10.585 8H12.835V5.75C12.835 5.375 13.1631 5 13.585 5ZM14.71 20.75C15.3193 20.75 15.835 21.2656 15.835 21.875C15.835 22.5312 15.3193 23 14.71 23H7.20996C3.64746 23 0.834961 20.1875 0.834961 16.625V6.125C0.834961 5.51562 1.30371 5 1.95996 5C2.56934 5 3.08496 5.51562 3.08496 6.125V16.625C3.08496 18.9219 4.91309 20.75 7.20996 20.75H14.71Z" fill="#186491"/>
</svg>
