<svg width="20" height="20" viewBox="0 0 20 20" fill="none" xmlns="http://www.w3.org/2000/svg">
<path d="M4.5 12.9872V2.9872C4.5 1.62001 5.59375 0.487198 7 0.487198H17C18.3672 0.487198 19.5 1.62001 19.5 2.9872V10.7216C19.5 11.3856 19.2266 12.0106 18.7578 12.4794L16.4531 14.7841C15.9844 15.2528 15.3594 15.4872 14.6953 15.4872H7C5.59375 15.4872 4.5 14.3934 4.5 12.9872ZM11.375 4.2372C11.0234 4.2372 10.75 4.5497 10.75 4.8622V6.7372H8.875C8.52344 6.7372 8.25 7.0497 8.25 7.3622V8.6122C8.25 8.96376 8.52344 9.2372 8.875 9.2372H10.75V11.1122C10.75 11.4638 11.0234 11.7372 11.375 11.7372H12.625C12.9375 11.7372 13.25 11.4638 13.25 11.1122V9.2372H15.125C15.4375 9.2372 15.75 8.96376 15.75 8.6122V7.3622C15.75 7.0497 15.4375 6.7372 15.125 6.7372H13.25V4.8622C13.25 4.5497 12.9375 4.2372 12.625 4.2372H11.375ZM12.3125 17.3622C12.8203 17.3622 13.25 17.7919 13.25 18.2997C13.25 18.8466 12.8203 19.2372 12.3125 19.2372H6.0625C3.09375 19.2372 0.75 16.8934 0.75 13.9247V5.1747C0.75 4.66689 1.14062 4.2372 1.6875 4.2372C2.19531 4.2372 2.625 4.66689 2.625 5.1747V13.9247C2.625 15.8388 4.14844 17.3622 6.0625 17.3622H12.3125Z" fill="#AA25ED"/>
</svg>
