<svg xmlns="http://www.w3.org/2000/svg" width="269" height="218" fill="none"><g filter="url(#a)"><g filter="url(#b)"><path fill="url(#c)" fill-opacity=".6" d="M63.987 73.888c-.184-5.07-.277-7.605.692-10.305.832-2.315 2.36-4.556 4.214-6.175 2.16-1.887 5.298-2.986 11.573-5.183 13.352-4.676 26.233-10.946 38.377-18.232 5.52-3.312 8.28-4.967 10.656-5.489 2.358-.518 4.02-.518 6.379 0 2.375.522 5.135 2.177 10.655 5.49 12.145 7.285 25.026 13.555 38.378 18.23 6.275 2.198 9.412 3.297 11.573 5.184 1.853 1.619 3.382 3.86 4.213 6.175.97 2.7.877 5.235.692 10.305-.525 14.428-3.13 35.871-12.648 55.225-12.552 25.522-33.515 42.263-45.938 50.509-2.727 1.811-4.091 2.716-6.66 3.329-1.782.426-5.128.426-6.909 0-2.57-.613-3.933-1.518-6.66-3.329-12.423-8.246-33.387-24.987-45.939-50.509-9.518-19.354-12.122-40.797-12.648-55.225Z"/><path fill="url(#d)" fill-opacity=".6" d="M63.987 73.888c-.184-5.07-.277-7.605.692-10.305.832-2.315 2.36-4.556 4.214-6.175 2.16-1.887 5.298-2.986 11.573-5.183 13.352-4.676 26.233-10.946 38.377-18.232 5.52-3.312 8.28-4.967 10.656-5.489 2.358-.518 4.02-.518 6.379 0 2.375.522 5.135 2.177 10.655 5.49 12.145 7.285 25.026 13.555 38.378 18.23 6.275 2.198 9.412 3.297 11.573 5.184 1.853 1.619 3.382 3.86 4.213 6.175.97 2.7.877 5.235.692 10.305-.525 14.428-3.13 35.871-12.648 55.225-12.552 25.522-33.515 42.263-45.938 50.509-2.727 1.811-4.091 2.716-6.66 3.329-1.782.426-5.128.426-6.909 0-2.57-.613-3.933-1.518-6.66-3.329-12.423-8.246-33.387-24.987-45.939-50.509-9.518-19.354-12.122-40.797-12.648-55.225Z" style="mix-blend-mode:overlay"/><path stroke="url(#e)" stroke-linecap="round" stroke-width="5.949" d="M130.137 31.409c1.938-.426 3.165-.426 5.103 0 .792.174 1.795.57 3.388 1.419 1.595.849 3.589 2.044 6.375 3.716 12.292 7.374 25.356 13.736 38.924 18.488 3.175 1.112 5.419 1.9 7.145 2.637 1.7.726 2.707 1.326 3.455 1.98 1.471 1.284 2.711 3.1 3.371 4.94.736 2.049.711 3.946.519 9.19-.518 14.239-3.091 35.205-12.345 54.021-12.22 24.848-32.694 41.232-44.914 49.344-2.742 1.82-3.709 2.437-5.706 2.914-.57.136-1.592.238-2.764.238-1.172 0-2.193-.102-2.763-.238-1.997-.477-2.965-1.093-5.707-2.914-12.22-8.112-32.694-24.496-44.914-49.344-9.254-18.816-11.826-39.782-12.344-54.02-.192-5.245-.217-7.142.519-9.192.66-1.838 1.9-3.655 3.371-4.94.748-.653 1.755-1.253 3.455-1.98 1.726-.736 3.969-1.524 7.144-2.636 13.569-4.752 26.633-11.114 38.925-18.488 2.786-1.672 4.78-2.867 6.375-3.716 1.593-.849 2.596-1.245 3.388-1.42Z"/></g><mask id="i" width="139" height="156" x="63" y="28" maskUnits="userSpaceOnUse" style="mask-type:alpha"><path fill="url(#f)" fill-opacity=".6" d="M130.137 31.409c1.938-.426 3.165-.426 5.103 0 .792.174 1.795.57 3.388 1.419 1.595.849 3.589 2.044 6.375 3.716 12.292 7.374 25.356 13.736 38.924 18.488 3.175 1.112 5.419 1.9 7.145 2.637 1.7.726 2.707 1.326 3.455 1.98 1.471 1.284 2.711 3.1 3.371 4.94.736 2.049.711 3.946.519 9.19-.518 14.239-3.091 35.205-12.345 54.021-12.22 24.848-32.694 41.232-44.914 49.344-2.742 1.82-3.709 2.437-5.706 2.914-.57.136-1.592.238-2.764.238-1.172 0-2.193-.102-2.763-.238-1.997-.477-2.965-1.093-5.707-2.914-12.22-8.112-32.694-24.496-44.914-49.344-9.254-18.816-11.826-39.782-12.344-54.02-.192-5.245-.217-7.142.519-9.192.66-1.838 1.9-3.655 3.371-4.94.748-.653 1.755-1.253 3.455-1.98 1.726-.736 3.969-1.524 7.144-2.636 13.569-4.752 26.633-11.114 38.925-18.488 2.786-1.672 4.78-2.867 6.375-3.716 1.593-.849 2.596-1.245 3.388-1.42Z"/><path fill="url(#g)" fill-opacity=".6" d="M130.137 31.409c1.938-.426 3.165-.426 5.103 0 .792.174 1.795.57 3.388 1.419 1.595.849 3.589 2.044 6.375 3.716 12.292 7.374 25.356 13.736 38.924 18.488 3.175 1.112 5.419 1.9 7.145 2.637 1.7.726 2.707 1.326 3.455 1.98 1.471 1.284 2.711 3.1 3.371 4.94.736 2.049.711 3.946.519 9.19-.518 14.239-3.091 35.205-12.345 54.021-12.22 24.848-32.694 41.232-44.914 49.344-2.742 1.82-3.709 2.437-5.706 2.914-.57.136-1.592.238-2.764.238-1.172 0-2.193-.102-2.763-.238-1.997-.477-2.965-1.093-5.707-2.914-12.22-8.112-32.694-24.496-44.914-49.344-9.254-18.816-11.826-39.782-12.344-54.02-.192-5.245-.217-7.142.519-9.192.66-1.838 1.9-3.655 3.371-4.94.748-.653 1.755-1.253 3.455-1.98 1.726-.736 3.969-1.524 7.144-2.636 13.569-4.752 26.633-11.114 38.925-18.488 2.786-1.672 4.78-2.867 6.375-3.716 1.593-.849 2.596-1.245 3.388-1.42Z"/><path stroke="url(#h)" stroke-linecap="round" stroke-width="5.949" d="M130.137 31.409c1.938-.426 3.165-.426 5.103 0 .792.174 1.795.57 3.388 1.419 1.595.849 3.589 2.044 6.375 3.716 12.292 7.374 25.356 13.736 38.924 18.488 3.175 1.112 5.419 1.9 7.145 2.637 1.7.726 2.707 1.326 3.455 1.98 1.471 1.284 2.711 3.1 3.371 4.94.736 2.049.711 3.946.519 9.19-.518 14.239-3.091 35.205-12.345 54.021-12.22 24.848-32.694 41.232-44.914 49.344-2.742 1.82-3.709 2.437-5.706 2.914-.57.136-1.592.238-2.764.238-1.172 0-2.193-.102-2.763-.238-1.997-.477-2.965-1.093-5.707-2.914-12.22-8.112-32.694-24.496-44.914-49.344-9.254-18.816-11.826-39.782-12.344-54.02-.192-5.245-.217-7.142.519-9.192.66-1.838 1.9-3.655 3.371-4.94.748-.653 1.755-1.253 3.455-1.98 1.726-.736 3.969-1.524 7.144-2.636 13.569-4.752 26.633-11.114 38.925-18.488 2.786-1.672 4.78-2.867 6.375-3.716 1.593-.849 2.596-1.245 3.388-1.42Z"/></mask><g mask="url(#i)"><mask id="m" width="139" height="156" x="63" y="28" maskUnits="userSpaceOnUse" style="mask-type:alpha"><path fill="url(#j)" fill-opacity=".6" d="M130.137 31.409c1.938-.426 3.164-.426 5.103 0 .792.174 1.795.57 3.388 1.419 1.594.849 3.588 2.044 6.375 3.716 12.292 7.374 25.355 13.736 38.924 18.488 3.175 1.112 5.418 1.9 7.145 2.637 1.7.726 2.707 1.326 3.455 1.98 1.471 1.284 2.71 3.1 3.371 4.94.735 2.049.71 3.946.519 9.19-.519 14.239-3.091 35.205-12.345 54.021-12.221 24.848-32.694 41.232-44.915 49.344-2.742 1.82-3.708 2.437-5.706 2.914-.569.136-1.591.239-2.763.239-1.172-.001-2.193-.103-2.763-.239-1.997-.477-2.965-1.093-5.707-2.914-12.22-8.112-32.694-24.496-44.914-49.344-9.254-18.816-11.826-39.782-12.345-54.02-.19-5.245-.216-7.142.52-9.192.66-1.838 1.9-3.655 3.37-4.94.749-.653 1.755-1.253 3.456-1.98 1.726-.736 3.969-1.524 7.143-2.636 13.57-4.752 26.633-11.114 38.925-18.488 2.787-1.672 4.781-2.867 6.375-3.716 1.594-.849 2.596-1.245 3.389-1.42Z"/><path fill="url(#k)" fill-opacity=".6" d="M130.137 31.409c1.938-.426 3.164-.426 5.103 0 .792.174 1.795.57 3.388 1.419 1.594.849 3.588 2.044 6.375 3.716 12.292 7.374 25.355 13.736 38.924 18.488 3.175 1.112 5.418 1.9 7.145 2.637 1.7.726 2.707 1.326 3.455 1.98 1.471 1.284 2.71 3.1 3.371 4.94.735 2.049.71 3.946.519 9.19-.519 14.239-3.091 35.205-12.345 54.021-12.221 24.848-32.694 41.232-44.915 49.344-2.742 1.82-3.708 2.437-5.706 2.914-.569.136-1.591.239-2.763.239-1.172-.001-2.193-.103-2.763-.239-1.997-.477-2.965-1.093-5.707-2.914-12.22-8.112-32.694-24.496-44.914-49.344-9.254-18.816-11.826-39.782-12.345-54.02-.19-5.245-.216-7.142.52-9.192.66-1.838 1.9-3.655 3.37-4.94.749-.653 1.755-1.253 3.456-1.98 1.726-.736 3.969-1.524 7.143-2.636 13.57-4.752 26.633-11.114 38.925-18.488 2.787-1.672 4.781-2.867 6.375-3.716 1.594-.849 2.596-1.245 3.389-1.42Z"/><path stroke="url(#l)" stroke-linecap="round" stroke-width="5.949" d="M130.137 31.409c1.938-.426 3.164-.426 5.103 0 .792.174 1.795.57 3.388 1.419 1.594.849 3.588 2.044 6.375 3.716 12.292 7.374 25.355 13.736 38.924 18.488 3.175 1.112 5.418 1.9 7.145 2.637 1.7.726 2.707 1.326 3.455 1.98 1.471 1.284 2.71 3.1 3.371 4.94.735 2.049.71 3.946.519 9.19-.519 14.239-3.091 35.205-12.345 54.021-12.221 24.848-32.694 41.232-44.915 49.344-2.742 1.82-3.708 2.437-5.706 2.914-.569.136-1.591.239-2.763.239-1.172-.001-2.193-.103-2.763-.239-1.997-.477-2.965-1.093-5.707-2.914-12.22-8.112-32.694-24.496-44.914-49.344-9.254-18.816-11.826-39.782-12.345-54.02-.19-5.245-.216-7.142.52-9.192.66-1.838 1.9-3.655 3.37-4.94.749-.653 1.755-1.253 3.456-1.98 1.726-.736 3.969-1.524 7.143-2.636 13.57-4.752 26.633-11.114 38.925-18.488 2.787-1.672 4.781-2.867 6.375-3.716 1.594-.849 2.596-1.245 3.389-1.42Z"/></mask><g mask="url(#m)"><path fill="url(#n)" fill-opacity=".6" d="M28.5.756h208.2v208.2H28.5z"/><path fill="url(#o)" fill-opacity=".6" d="M28.5.756h208.2v208.2H28.5z" style="mix-blend-mode:overlay"/><path stroke="url(#p)" stroke-linecap="round" stroke-width="5.949" d="M28.5.756h208.2v208.2H28.5z"/><path fill="url(#q)" fill-opacity=".6" d="M28.685.942h207.828V208.77H28.685z"/><path fill="url(#r)" fill-opacity=".6" d="M28.685.942h207.828V208.77H28.685z" style="mix-blend-mode:overlay"/><path stroke="url(#s)" stroke-linecap="round" stroke-width=".372" d="M28.685.942h207.828V208.77H28.685z"/><path fill="url(#t)" fill-opacity=".6" d="M31.474 3.731h202.252v202.252H31.474z"/><path fill="url(#u)" fill-opacity=".6" d="M31.474 3.731h202.252v202.252H31.474z" style="mix-blend-mode:overlay"/><path stroke="url(#v)" stroke-linecap="round" stroke-width="5.949" d="M31.474 3.731h202.252v202.252H31.474z"/></g><g filter="url(#w)"><path fill="url(#x)" fill-opacity=".6" d="M28.5.756h208.2v208.2H28.5z"/><path fill="url(#y)" fill-opacity=".6" d="M28.5.756h208.2v208.2H28.5z" style="mix-blend-mode:overlay"/><path stroke="url(#z)" stroke-linecap="round" stroke-width="5.949" d="M28.5.756h208.2v208.2H28.5z"/></g></g><path fill="#EFF0FA" d="m118.917 137.004 2.574-7.92h1.656l2.574 7.92h-1.194l-2.37-7.227h.297l-2.343 7.227h-1.194Zm1.337-1.787v-1.078h4.136v1.078h-4.136Zm6.564 1.787v-7.92h1.149v7.92h-1.149Zm5.547 0v-6.149c0-.15.006-.31.017-.478a2.17 2.17 0 0 1 .093-.506c.055-.169.145-.323.27-.462.15-.165.315-.283.495-.352.18-.07.357-.11.533-.121.18-.011.345-.017.495-.017h.748v.946h-.693c-.271 0-.474.068-.61.204-.132.132-.198.32-.198.566v6.369h-1.15Zm-.984-5.016v-.924h3.635v.924h-3.635Zm6.876 5.181c-.594 0-1.109-.134-1.546-.401a2.718 2.718 0 0 1-1.012-1.106c-.234-.473-.352-1.017-.352-1.633 0-.62.121-1.165.363-1.634.242-.473.582-.84 1.018-1.1.436-.264.946-.396 1.529-.396.594 0 1.109.134 1.545.402.437.267.774.636 1.012 1.105.239.469.358 1.01.358 1.623 0 .619-.121 1.166-.363 1.639a2.709 2.709 0 0 1-1.012 1.105c-.436.264-.95.396-1.54.396Zm0-1.083c.568 0 .992-.191 1.27-.572.283-.385.424-.88.424-1.485 0-.62-.143-1.115-.429-1.485-.282-.374-.704-.561-1.265-.561-.385 0-.702.088-.952.264a1.528 1.528 0 0 0-.555.72 2.86 2.86 0 0 0-.182 1.062c0 .623.143 1.122.429 1.496.286.374.706.561 1.26.561Zm4.124.918v-5.94h1.023v1.441l-.143-.187c.073-.191.168-.365.286-.522.117-.162.253-.294.407-.396.15-.11.317-.195.5-.253.187-.063.378-.099.572-.11.194-.015.381-.006.561.027v1.078a1.871 1.871 0 0 0-.649-.044 1.412 1.412 0 0 0-.649.226 1.45 1.45 0 0 0-.445.44 1.828 1.828 0 0 0-.231.577 2.969 2.969 0 0 0-.072.666v2.997h-1.16Zm-38.334 14v-7.92h1.15v3.416h3.96v-3.416h1.155v7.92h-1.155v-3.421h-3.96v3.421h-1.15Zm10.444.165c-.59 0-1.109-.128-1.556-.385a2.731 2.731 0 0 1-1.04-1.083c-.246-.466-.368-1.005-.368-1.617 0-.649.121-1.212.363-1.689a2.675 2.675 0 0 1 1.023-1.105c.436-.261.944-.391 1.523-.391.605 0 1.12.141 1.546.424.425.278.742.676.951 1.193.213.517.297 1.131.253 1.843h-1.149v-.418c-.008-.69-.14-1.199-.396-1.529-.253-.33-.64-.495-1.161-.495-.576 0-1.008.181-1.298.544-.29.363-.434.887-.434 1.573 0 .653.144 1.159.434 1.518.29.356.708.534 1.254.534.359 0 .669-.081.93-.242.264-.165.469-.4.616-.704l1.127.357a2.681 2.681 0 0 1-1.05 1.238c-.47.289-.992.434-1.568.434Zm-2.117-2.81v-.897h4.24v.897h-4.24Zm7.616 2.81c-.44 0-.808-.081-1.105-.242a1.723 1.723 0 0 1-.677-.649 1.81 1.81 0 0 1-.225-.891c0-.301.053-.565.159-.792.107-.227.264-.42.473-.577a2.52 2.52 0 0 1 .77-.391 8.28 8.28 0 0 1 .897-.203c.333-.059.684-.114 1.05-.165l1.1-.154-.418.231c.008-.466-.091-.811-.297-1.034-.201-.228-.55-.341-1.045-.341-.311 0-.597.073-.858.22-.26.143-.442.381-.544.715l-1.073-.33c.147-.51.426-.915.836-1.216.415-.301.965-.451 1.65-.451.532 0 .994.092 1.386.275.396.18.686.466.869.858.096.194.154.4.176.616.022.216.033.449.033.699v3.657h-1.017v-1.358l.198.176c-.246.454-.559.793-.941 1.017-.377.22-.843.33-1.397.33Zm.204-.94c.326 0 .607-.057.841-.171.235-.117.424-.266.567-.445.143-.18.236-.367.28-.561a1.97 1.97 0 0 0 .105-.594c.011-.22.016-.396.016-.528l.374.137-.99.149c-.297.044-.566.088-.808.132-.239.04-.451.089-.638.148a2.157 2.157 0 0 0-.424.198.966.966 0 0 0-.291.281.73.73 0 0 0-.105.401c0 .154.039.297.116.429a.81.81 0 0 0 .352.308c.157.077.359.116.605.116Zm4.491.775v-8.085h1.15v8.085h-1.15Zm6.201 0a4.944 4.944 0 0 1-1.1.094 2.494 2.494 0 0 1-.963-.209 1.316 1.316 0 0 1-.638-.605 1.775 1.775 0 0 1-.209-.748 32.086 32.086 0 0 1-.011-.869v-5.253h1.155v5.198c0 .238.002.445.006.621a.957.957 0 0 0 .115.446c.132.227.341.357.627.39.29.029.629.017 1.018-.038v.973Zm-4.059-5.016v-.924h4.059v.924h-4.059Zm9.48 5.016v-2.92c0-.231-.02-.468-.061-.71a2.108 2.108 0 0 0-.22-.682 1.285 1.285 0 0 0-.456-.506c-.194-.128-.449-.192-.765-.192-.205 0-.399.034-.583.104a1.216 1.216 0 0 0-.484.325c-.135.15-.243.348-.324.594a3.018 3.018 0 0 0-.116.896l-.715-.269c0-.539.101-1.014.303-1.425.202-.414.491-.737.869-.968.378-.231.834-.346 1.369-.346.411 0 .756.066 1.034.198.279.132.505.306.677.522.176.213.31.446.401.699.092.253.154.5.187.742s.05.455.05.638v3.3h-1.166Zm-4.175 0v-7.92h1.029v4.274h.137v3.646h-1.166Zm9.314.165c-.608 0-1.125-.136-1.551-.407a2.664 2.664 0 0 1-.979-1.116c-.223-.473-.337-1.011-.341-1.612.004-.612.121-1.153.352-1.622.231-.473.561-.844.99-1.111.429-.268.945-.402 1.546-.402.649 0 1.203.161 1.661.484.462.323.766.765.913 1.326l-1.144.33a1.516 1.516 0 0 0-.561-.776 1.466 1.466 0 0 0-.886-.28c-.377 0-.687.089-.929.269a1.555 1.555 0 0 0-.539.726c-.117.308-.178.66-.182 1.056.004.612.143 1.107.418 1.485.279.378.69.567 1.232.567.371 0 .67-.085.897-.253a1.6 1.6 0 0 0 .528-.737l1.166.275c-.194.579-.515 1.024-.963 1.336-.447.308-.99.462-1.628.462Zm5.314 0c-.44 0-.809-.081-1.106-.242a1.72 1.72 0 0 1-.676-.649 1.8 1.8 0 0 1-.226-.891c0-.301.053-.565.16-.792a1.52 1.52 0 0 1 .473-.577c.209-.162.465-.292.77-.391.264-.077.563-.145.896-.203.334-.059.684-.114 1.051-.165l1.1-.154-.418.231c.007-.466-.092-.811-.297-1.034-.202-.228-.55-.341-1.045-.341-.312 0-.598.073-.858.22-.261.143-.442.381-.545.715l-1.072-.33c.146-.51.425-.915.836-1.216.414-.301.964-.451 1.65-.451.531 0 .993.092 1.386.275.396.18.685.466.869.858.095.194.154.4.176.616.022.216.033.449.033.699v3.657h-1.018v-1.358l.198.176c-.245.454-.559.793-.94 1.017-.378.22-.844.33-1.397.33Zm.203-.94c.327 0 .607-.057.842-.171.234-.117.423-.266.566-.445a1.4 1.4 0 0 0 .281-.561 1.97 1.97 0 0 0 .104-.594c.011-.22.017-.396.017-.528l.374.137-.99.149c-.297.044-.567.088-.809.132-.238.04-.451.089-.638.148a2.148 2.148 0 0 0-.423.198.981.981 0 0 0-.292.281.738.738 0 0 0-.104.401c0 .154.038.297.115.429a.816.816 0 0 0 .352.308c.158.077.36.116.605.116Zm4.382.775v-5.94h1.023v1.441l-.143-.187a2.16 2.16 0 0 1 .286-.522c.117-.162.253-.294.407-.396.15-.11.317-.195.5-.253.187-.063.378-.099.572-.11.195-.015.382-.006.561.027v1.078a1.87 1.87 0 0 0-.649-.044 1.416 1.416 0 0 0-.649.226 1.45 1.45 0 0 0-.445.44 1.876 1.876 0 0 0-.231.577 2.969 2.969 0 0 0-.072.666v2.997h-1.16Zm6.781.165c-.59 0-1.109-.128-1.557-.385a2.735 2.735 0 0 1-1.039-1.083c-.246-.466-.369-1.005-.369-1.617 0-.649.121-1.212.363-1.689a2.688 2.688 0 0 1 1.023-1.105c.437-.261.945-.391 1.524-.391.605 0 1.12.141 1.545.424.426.278.743.676.952 1.193.213.517.297 1.131.253 1.843h-1.15v-.418c-.007-.69-.139-1.199-.396-1.529-.253-.33-.639-.495-1.16-.495-.576 0-1.008.181-1.298.544-.29.363-.435.887-.435 1.573 0 .653.145 1.159.435 1.518.29.356.708.534 1.254.534.359 0 .669-.081.929-.242.264-.165.47-.4.616-.704l1.128.357a2.677 2.677 0 0 1-1.051 1.238 2.927 2.927 0 0 1-1.567.434Zm-2.118-2.81v-.897h4.241v.897h-4.241Zm-36.368 16.64.005-1.023 3.449-3.091c.278-.246.467-.481.566-.704a1.595 1.595 0 0 0-.033-1.43 1.402 1.402 0 0 0-1.276-.737 1.486 1.486 0 0 0-1.32.753 1.432 1.432 0 0 0-.187.737h-1.177c0-.513.116-.962.347-1.347.234-.389.555-.692.962-.908.407-.22.873-.33 1.397-.33.499 0 .946.114 1.342.341.396.224.708.532.935.924.231.392.347.84.347 1.342 0 .363-.048.671-.143.924a2.294 2.294 0 0 1-.429.704 8.297 8.297 0 0 1-.715.704l-2.662 2.376-.127-.33h4.076v1.095h-5.357Zm9.437.17c-.539 0-1.016-.117-1.43-.352a2.607 2.607 0 0 1-.979-.979c-.235-.414-.352-.891-.352-1.43v-2.728c0-.539.117-1.016.352-1.43.238-.414.564-.739.979-.973.414-.239.891-.358 1.43-.358.539 0 1.015.119 1.43.358.414.234.738.559.973.973.238.414.358.891.358 1.43v2.728c0 .539-.12 1.016-.358 1.43a2.577 2.577 0 0 1-.973.979c-.415.235-.891.352-1.43.352Zm0-1.1c.293 0 .559-.07.797-.209.242-.143.435-.334.578-.572.143-.242.214-.511.214-.808v-2.882a1.57 1.57 0 0 0-.792-1.37 1.518 1.518 0 0 0-.797-.214 1.576 1.576 0 0 0-1.375.786 1.52 1.52 0 0 0-.215.798v2.882c0 .297.072.566.215.808.143.238.333.429.572.572.242.139.509.209.803.209Zm4.076.93.006-1.023 3.448-3.091c.279-.246.468-.481.567-.704a1.61 1.61 0 0 0 .154-.671c0-.283-.063-.536-.187-.759a1.402 1.402 0 0 0-1.276-.737 1.487 1.487 0 0 0-1.32.753 1.422 1.422 0 0 0-.187.737h-1.177c0-.513.115-.962.346-1.347a2.44 2.44 0 0 1 .963-.908c.407-.22.872-.33 1.397-.33.498 0 .946.114 1.342.341.396.224.707.532.935.924.231.392.346.84.346 1.342 0 .363-.047.671-.143.924a2.256 2.256 0 0 1-.429.704c-.19.216-.429.451-.715.704l-2.662 2.376-.126-.33h4.075v1.095h-5.357Zm9.025.17a2.65 2.65 0 0 1-1.139-.247 2.682 2.682 0 0 1-1.43-1.716l1.106-.297c.062.234.168.438.319.61a1.558 1.558 0 0 0 1.177.539c.289 0 .552-.07.786-.209a1.51 1.51 0 0 0 .561-.561c.14-.235.209-.493.209-.775 0-.29-.071-.552-.214-.787a1.518 1.518 0 0 0-.567-.555 1.482 1.482 0 0 0-.775-.209c-.323 0-.596.064-.82.192a1.66 1.66 0 0 0-.522.446l-1.001-.352.242-4.164h4.273v1.084h-3.685l.468-.435-.193 3.119-.225-.292c.209-.209.458-.368.748-.478.289-.11.577-.165.863-.165.492 0 .93.113 1.315.341.388.227.695.537.918.929.224.389.336.831.336 1.326 0 .491-.127.938-.38 1.342a2.841 2.841 0 0 1-1.006.957 2.71 2.71 0 0 1-1.364.357ZM109.338 70.404l-2.736-9.36h1.644l1.866 6.76 1.859-6.747 1.644-.013 1.866 6.76 1.859-6.76h1.644l-2.73 9.36h-1.547l-1.917-6.656-1.905 6.656h-1.547Zm11.357 0v-9.36h1.567v9.36h-1.567Zm4.034 0v-9.36h1.586l4.342 6.598v-6.598h1.586v9.36h-1.586l-4.342-6.597v6.597h-1.586Zm9.851 0v-9.36h1.586l4.342 6.598v-6.598h1.586v9.36h-1.586l-4.342-6.597v6.597h-1.586Zm9.851 0v-9.36h6.045v1.47h-4.479v2.307h3.699v1.469h-3.699v2.645h4.479v1.47h-6.045Zm8.124 0v-9.36h3.868a6 6 0 0 1 .351.013c.143.004.275.017.396.04.542.081.988.261 1.339.539.356.277.618.628.787 1.053.173.42.26.888.26 1.404 0 .762-.193 1.419-.579 1.97-.385.545-.977.883-1.774 1.013l-.67.059h-2.411v3.27h-1.567Zm5.376 0-1.846-3.809 1.592-.35 2.028 4.16h-1.774Zm-3.809-4.732h2.236c.086 0 .184-.004.292-.013.109-.009.208-.026.299-.052.26-.065.464-.18.611-.344.152-.165.258-.351.319-.56.065-.207.097-.411.097-.61 0-.2-.032-.403-.097-.611a1.387 1.387 0 0 0-.319-.566 1.176 1.176 0 0 0-.611-.344 1.265 1.265 0 0 0-.299-.046 3.682 3.682 0 0 0-.292-.013h-2.236v3.16Z"/><mask id="B" fill="#fff"><path d="M75.13 89.364c3.331 0 4.998 0 6.27.648a5.95 5.95 0 0 1 2.6 2.6c.648 1.272.647 2.938.647 6.27v15.168c0 3.331 0 4.997-.647 6.27a5.948 5.948 0 0 1-2.6 2.599c-1.272.649-2.939.649-6.27.649H62.695c-2.428 0-3.642-.001-4.397-.512a2.975 2.975 0 0 1-1.258-1.924c-.165-.897.322-2.009 1.297-4.233l4.573-10.433-4.573-10.433c-.975-2.225-1.462-3.337-1.297-4.234a2.974 2.974 0 0 1 1.258-1.924c.755-.511 1.969-.511 4.397-.511H75.13Zm130.639 0c2.429 0 3.643 0 4.399.511a2.977 2.977 0 0 1 1.258 1.924c.165.897-.323 2.01-1.298 4.233l-4.573 10.434 4.573 10.433c.975 2.224 1.463 3.336 1.298 4.233a2.977 2.977 0 0 1-1.258 1.924c-.756.511-1.97.512-4.399.512h-12.434c-3.332 0-4.997 0-6.27-.649a5.946 5.946 0 0 1-2.599-2.599c-.649-1.273-.649-2.939-.649-6.27V98.881c0-3.331 0-4.997.649-6.27a5.947 5.947 0 0 1 2.599-2.599c1.273-.648 2.938-.648 6.27-.648h12.434Z"/></mask><path fill="#BCCAD4" d="M75.13 89.364c3.331 0 4.998 0 6.27.648a5.95 5.95 0 0 1 2.6 2.6c.648 1.272.647 2.938.647 6.27v15.168c0 3.331 0 4.997-.647 6.27a5.948 5.948 0 0 1-2.6 2.599c-1.272.649-2.939.649-6.27.649H62.695c-2.428 0-3.642-.001-4.397-.512a2.975 2.975 0 0 1-1.258-1.924c-.165-.897.322-2.009 1.297-4.233l4.573-10.433-4.573-10.433c-.975-2.225-1.462-3.337-1.297-4.234a2.974 2.974 0 0 1 1.258-1.924c.755-.511 1.969-.511 4.397-.511H75.13Zm130.639 0c2.429 0 3.643 0 4.399.511a2.977 2.977 0 0 1 1.258 1.924c.165.897-.323 2.01-1.298 4.233l-4.573 10.434 4.573 10.433c.975 2.224 1.463 3.336 1.298 4.233a2.977 2.977 0 0 1-1.258 1.924c-.756.511-1.97.512-4.399.512h-12.434c-3.332 0-4.997 0-6.27-.649a5.946 5.946 0 0 1-2.599-2.599c-.649-1.273-.649-2.939-.649-6.27V98.881c0-3.331 0-4.997.649-6.27a5.947 5.947 0 0 1 2.599-2.599c1.273-.648 2.938-.648 6.27-.648h12.434Z"/><path fill="url(#A)" d="m81.4 90.012.169-.331-.169.331Zm2.6 2.6.331-.17-.331.17Zm.647 6.27h.372-.372Zm0 15.168h.372-.372ZM84 120.32l.331.168-.331-.168Zm-2.6 2.599.169.331-.169-.331Zm-18.705.649v.371-.371Zm-4.397-.512-.209.308.209-.308Zm-1.258-1.924-.366.067.366-.067Zm1.297-4.233-.34-.15.34.15Zm4.573-10.433.34.149.066-.149-.066-.149-.34.149Zm-4.573-10.433-.34.149.34-.15Zm-1.297-4.234-.366-.067.366.067Zm1.258-1.924-.209-.308.209.308Zm4.397-.511v-.372.371Zm147.473.511.208-.308-.208.308Zm1.258 1.924.365-.067-.365.067Zm-1.298 4.233-.341-.149.341.15Zm-4.573 10.434-.34-.149-.065.149.065.149.34-.149Zm4.573 10.433-.341.149.341-.149Zm1.298 4.233.365.067-.365-.067Zm-1.258 1.924.208.308-.208-.308Zm-16.833.512v.371-.371Zm-6.27-.649-.169.331.169-.331Zm-2.599-2.599-.332.168.332-.168Zm-.649-6.27h-.372.372Zm0-15.169h-.372.372Zm.649-6.27-.332-.168.332.169Zm2.599-2.599-.169-.331.169.331Zm6.27-.648v-.372.371Zm-118.205 0v.371c1.672 0 2.903 0 3.877.08.969.08 1.65.235 2.224.528l.17-.331.168-.331c-.698-.356-1.487-.524-2.502-.607-1.01-.082-2.278-.082-3.937-.082v.371Zm6.27.648-.169.331a5.578 5.578 0 0 1 2.438 2.437l.33-.168.332-.17a6.322 6.322 0 0 0-2.762-2.761l-.169.331Zm2.6 2.6-.332.168c.293.575.449 1.255.528 2.224.08.974.08 2.205.08 3.877h.743c0-1.66 0-2.926-.082-3.937-.083-1.015-.25-1.804-.606-2.501l-.331.169Zm.647 6.27h-.372v15.168h.744V98.881h-.372Zm0 15.168h-.372c0 1.672 0 2.903-.079 3.877-.079.969-.235 1.649-.528 2.224l.332.169.331.168c.355-.697.523-1.486.606-2.501.082-1.01.082-2.278.082-3.937h-.372ZM84 120.32l-.332-.169a5.58 5.58 0 0 1-2.437 2.437l.17.331.168.331a6.312 6.312 0 0 0 2.762-2.762L84 120.32Zm-2.6 2.599-.169-.331c-.575.293-1.255.449-2.224.528-.974.08-2.206.08-3.877.08v.743c1.66 0 2.927.001 3.937-.082 1.015-.083 1.805-.251 2.502-.607l-.169-.331Zm-6.27.649v-.372H62.695v.743H75.13v-.371Zm-12.435 0v-.372c-1.221 0-2.112-.001-2.792-.063-.68-.062-1.097-.182-1.397-.385l-.208.308-.209.308c.456.308 1.023.444 1.746.51.722.066 1.653.065 2.86.065v-.371Zm-4.397-.512.208-.308a2.6 2.6 0 0 1-1.1-1.683l-.366.067-.366.067a3.345 3.345 0 0 0 1.415 2.165l.209-.308Zm-1.258-1.924.365-.067c-.065-.356-.008-.786.208-1.434.217-.649.574-1.464 1.064-2.583l-.34-.149-.34-.15c-.485 1.106-.86 1.958-1.089 2.646-.23.689-.334 1.263-.234 1.804l.366-.067Zm1.297-4.233.34.149 4.573-10.433-.34-.149-.34-.149-4.574 10.432.34.15Zm4.573-10.433.34-.149-4.573-10.434-.34.15-.34.149 4.572 10.433.34-.149Zm-4.573-10.433.34-.15c-.49-1.118-.847-1.934-1.064-2.583-.216-.647-.273-1.078-.208-1.434l-.365-.067-.366-.067c-.1.54.004 1.115.234 1.804.23.688.604 1.54 1.088 2.646l.34-.15Zm-1.297-4.234.365.067a2.602 2.602 0 0 1 1.101-1.683l-.208-.308-.209-.308a3.345 3.345 0 0 0-1.415 2.165l.366.067Zm1.258-1.924.208.308c.3-.203.717-.323 1.397-.385s1.57-.063 2.792-.063v-.743c-1.207 0-2.138 0-2.86.065-.723.066-1.29.202-1.746.51l.209.308Zm4.397-.511v.371H75.13v-.743H62.695v.371Zm143.074 0v.371c1.222 0 2.112 0 2.793.063.68.062 1.098.182 1.397.385l.209-.308.208-.308c-.455-.308-1.023-.444-1.746-.51-.723-.066-1.654-.065-2.861-.065v.371Zm4.399.511-.209.308a2.6 2.6 0 0 1 1.101 1.683l.366-.067.365-.067a3.346 3.346 0 0 0-1.415-2.165l-.208.308Zm1.258 1.924-.366.067c.065.356.008.786-.208 1.434-.217.649-.574 1.465-1.065 2.583l.341.15.34.149c.485-1.106.859-1.958 1.089-2.646.23-.689.334-1.263.234-1.804l-.365.067Zm-1.298 4.233-.341-.149-4.572 10.434.34.149.341.149 4.572-10.433-.34-.15Zm-4.573 10.434-.34.149 4.572 10.433.341-.149.34-.15-4.572-10.432-.341.149Zm4.573 10.433-.341.149c.491 1.119.848 1.935 1.065 2.583.216.648.273 1.078.208 1.434l.366.067.365.067c.1-.541-.004-1.115-.234-1.804-.23-.688-.604-1.54-1.089-2.646l-.34.15Zm1.298 4.233-.366-.067a2.602 2.602 0 0 1-1.101 1.683l.209.308.208.308a3.346 3.346 0 0 0 1.415-2.165l-.365-.067Zm-1.258 1.924-.209-.308c-.299.203-.717.323-1.397.385-.681.062-1.571.063-2.793.063v.743c1.207 0 2.138.001 2.861-.065.723-.066 1.291-.202 1.746-.51l-.208-.308Zm-4.399.512v-.372h-12.434v.743h12.434v-.371Zm-12.434 0v-.372c-1.672 0-2.904 0-3.877-.08-.969-.079-1.649-.235-2.224-.528l-.169.331-.169.331c.698.356 1.487.524 2.502.607 1.01.083 2.277.082 3.937.082v-.371Zm-6.27-.649.169-.331a5.583 5.583 0 0 1-2.437-2.437l-.331.169-.332.168a6.313 6.313 0 0 0 2.762 2.762l.169-.331Zm-2.599-2.599.331-.169c-.293-.575-.449-1.255-.528-2.224-.08-.974-.08-2.205-.08-3.877h-.744c0 1.66 0 2.927.083 3.937.083 1.015.251 1.804.606 2.501l.332-.168Zm-.649-6.27h.372V98.881h-.744v15.169h.372Zm0-15.169h.372c0-1.672 0-2.903.08-3.877.079-.968.235-1.648.528-2.224l-.331-.168-.332-.17c-.355.698-.523 1.487-.606 2.502-.083 1.01-.083 2.278-.083 3.937h.372Zm.649-6.27.331.17a5.58 5.58 0 0 1 2.437-2.438l-.169-.331-.169-.331a6.322 6.322 0 0 0-2.762 2.762l.332.169Zm2.599-2.599.169.331c.575-.293 1.255-.449 2.224-.528.973-.08 2.205-.08 3.877-.08v-.743c-1.66 0-2.927 0-3.937.082-1.015.083-1.804.251-2.502.607l.169.331Zm6.27-.648v.371h12.434v-.743h-12.434v.371Z" mask="url(#B)" style="mix-blend-mode:darken"/><path fill="url(#C)" fill-opacity=".3" d="M75.13 89.364c3.331 0 4.998 0 6.27.648a5.95 5.95 0 0 1 2.6 2.6c.648 1.272.647 2.938.647 6.27v15.168c0 3.331 0 4.997-.647 6.27a5.948 5.948 0 0 1-2.6 2.599c-1.272.649-2.939.649-6.27.649H62.695c-2.428 0-3.642-.001-4.397-.512a2.975 2.975 0 0 1-1.258-1.924c-.165-.897.322-2.009 1.297-4.233l4.573-10.433-4.573-10.433c-.975-2.225-1.462-3.337-1.297-4.234a2.974 2.974 0 0 1 1.258-1.924c.755-.511 1.969-.511 4.397-.511H75.13Zm130.639 0c2.429 0 3.643 0 4.399.511a2.977 2.977 0 0 1 1.258 1.924c.165.897-.323 2.01-1.298 4.233l-4.573 10.434 4.573 10.433c.975 2.224 1.463 3.336 1.298 4.233a2.977 2.977 0 0 1-1.258 1.924c-.756.511-1.97.512-4.399.512h-12.434c-3.332 0-4.997 0-6.27-.649a5.946 5.946 0 0 1-2.599-2.599c-.649-1.273-.649-2.939-.649-6.27V98.881c0-3.331 0-4.997.649-6.27a5.947 5.947 0 0 1 2.599-2.599c1.273-.648 2.938-.648 6.27-.648h12.434Z" style="mix-blend-mode:overlay"/><path fill="url(#D)" fill-opacity=".6" d="M75.13 89.364c3.331 0 4.998 0 6.27.648a5.95 5.95 0 0 1 2.6 2.6c.648 1.272.647 2.938.647 6.27v15.168c0 3.331 0 4.997-.647 6.27a5.948 5.948 0 0 1-2.6 2.599c-1.272.649-2.939.649-6.27.649H62.695c-2.428 0-3.642-.001-4.397-.512a2.975 2.975 0 0 1-1.258-1.924c-.165-.897.322-2.009 1.297-4.233l4.573-10.433-4.573-10.433c-.975-2.225-1.462-3.337-1.297-4.234a2.974 2.974 0 0 1 1.258-1.924c.755-.511 1.969-.511 4.397-.511H75.13Zm130.639 0c2.429 0 3.643 0 4.399.511a2.977 2.977 0 0 1 1.258 1.924c.165.897-.323 2.01-1.298 4.233l-4.573 10.434 4.573 10.433c.975 2.224 1.463 3.336 1.298 4.233a2.977 2.977 0 0 1-1.258 1.924c-.756.511-1.97.512-4.399.512h-12.434c-3.332 0-4.997 0-6.27-.649a5.946 5.946 0 0 1-2.599-2.599c-.649-1.273-.649-2.939-.649-6.27V98.881c0-3.331 0-4.997.649-6.27a5.947 5.947 0 0 1 2.599-2.599c1.273-.648 2.938-.648 6.27-.648h12.434Z" style="mix-blend-mode:overlay"/><path fill="#011445" fill-opacity=".31" d="M75.13 89.364c3.331 0 4.998 0 6.27.648a5.95 5.95 0 0 1 2.6 2.6c.648 1.272.647 2.938.647 6.27v15.168c0 3.331 0 4.997-.647 6.27a5.948 5.948 0 0 1-2.6 2.599c-1.272.649-2.939.649-6.27.649H62.695c-2.428 0-3.642-.001-4.397-.512a2.975 2.975 0 0 1-1.258-1.924c-.165-.897.322-2.009 1.297-4.233l4.573-10.433-4.573-10.433c-.975-2.225-1.462-3.337-1.297-4.234a2.974 2.974 0 0 1 1.258-1.924c.755-.511 1.969-.511 4.397-.511H75.13Zm130.639 0c2.429 0 3.643 0 4.399.511a2.977 2.977 0 0 1 1.258 1.924c.165.897-.323 2.01-1.298 4.233l-4.573 10.434 4.573 10.433c.975 2.224 1.463 3.336 1.298 4.233a2.977 2.977 0 0 1-1.258 1.924c-.756.511-1.97.512-4.399.512h-12.434c-3.332 0-4.997 0-6.27-.649a5.946 5.946 0 0 1-2.599-2.599c-.649-1.273-.649-2.939-.649-6.27V98.881c0-3.331 0-4.997.649-6.27a5.947 5.947 0 0 1 2.599-2.599c1.273-.648 2.938-.648 6.27-.648h12.434Z" style="mix-blend-mode:darken"/><g filter="url(#E)"><rect width="130.869" height="34.204" x="68.799" y="80.441" fill="#D8E2F0" rx="2"/><rect width="130.497" height="33.833" x="68.984" y="80.626" stroke="url(#F)" stroke-linecap="round" stroke-width=".372" rx="1.814" style="mix-blend-mode:darken"/></g><rect width="130.869" height="34.204" x="68.799" y="80.441" fill="url(#G)" fill-opacity=".2" rx="2" style="mix-blend-mode:overlay"/><circle cx="76.978" cy="97.543" r="2.231" fill="#EAFFF8" style="mix-blend-mode:darken"/><circle cx="191.488" cy="97.543" r="2.231" fill="#EAFFF8" style="mix-blend-mode:darken"/><path fill="#031031" d="M111.852 90.313h-.14a95.15 95.15 0 0 1-.894 2.544c-.336.95-.681 1.947-1.035 2.991l-1.006 2.908-.252 1.118c-.112.335-.242.736-.391 1.202-.149.466-.308.951-.475 1.454-.15.484-.299.941-.448 1.37-.149.428-.261.792-.335 1.09a4.38 4.38 0 0 1-.531.14 2.067 2.067 0 0 1-.643.084c-.448 0-.821-.103-1.119-.308-.298-.205-.447-.512-.447-.922 0-.187.028-.373.084-.56.074-.205.149-.428.224-.671.205-.633.465-1.407.782-2.32.317-.932.671-1.938 1.063-3.02.391-1.08.792-2.17 1.202-3.27.41-1.118.801-2.19 1.174-3.215.391-1.025.736-1.92 1.034-2.684.187-.093.476-.187.867-.28a4.252 4.252 0 0 1 1.174-.168c.522 0 .997.075 1.426.224.447.15.727.4.839.755a65.696 65.696 0 0 1 1.342 3.606c.484 1.342.969 2.74 1.453 4.194.504 1.454.979 2.87 1.426 4.249.448 1.38.848 2.628 1.202 3.747-.149.186-.363.335-.643.447a2.456 2.456 0 0 1-.922.168c-.503 0-.867-.093-1.09-.28-.224-.205-.411-.522-.56-.95l-1.314-4.082-.307-1.314c-.336-1.044-.68-2.078-1.035-3.103a175.802 175.802 0 0 0-.95-2.88l-.755-2.264Zm-4.669 10.372 1.035-2.349h7.38l.476 2.349h-8.891Zm15.03-6.43h2.907v10.651a5.999 5.999 0 0 1-.559.14 3.469 3.469 0 0 1-.783.084c-.54 0-.941-.103-1.202-.308-.242-.223-.363-.577-.363-1.062v-9.505Zm2.907 3.019h-2.907v-9.282c.13-.037.316-.074.559-.112.261-.055.531-.084.81-.084.541 0 .932.103 1.175.308.242.186.363.531.363 1.034v8.136ZM134.109 97.303v-8.05h-3.102v-1.276h7.558v1.276h-3.102v8.05h-1.354Zm6.529 0v-9.326h5.958v1.276h-4.605v2.617h3.827v1.275h-3.827v2.882h4.605v1.276h-5.958Zm12.112.194c-.932 0-1.727-.203-2.383-.608a4.015 4.015 0 0 1-1.509-1.71c-.345-.73-.518-1.576-.518-2.539 0-.963.173-1.809.518-2.538.35-.73.853-1.298 1.509-1.704.656-.41 1.451-.615 2.383-.615 1.075 0 1.965.272 2.669.816.708.544 1.2 1.276 1.476 2.195l-1.373.37c-.181-.652-.505-1.164-.971-1.535-.462-.372-1.062-.557-1.801-.557-.66 0-1.211.149-1.651.447-.44.298-.773.714-.997 1.25-.221.535-.331 1.159-.331 1.871-.004.713.104 1.337.324 1.872.225.535.557.952.998 1.25.444.298.997.447 1.657.447.739 0 1.339-.186 1.801-.557.466-.376.79-.888.971-1.535l1.373.369c-.276.92-.768 1.651-1.476 2.195-.704.544-1.594.816-2.669.816Zm6.606-.194v-9.326h1.353V92h4.663v-4.022h1.36v9.326h-1.36v-4.028h-4.663v4.028h-1.353ZM131.102 106.221l1.895-5.833h1.22l1.895 5.833h-.879l-1.746-5.323h.219l-1.725 5.323h-.879Zm.984-1.317v-.794h3.046v.794h-3.046Zm6.067 1.317-1.693-5.833h.887l1.227 4.411 1.228-4.407.891-.004 1.227 4.411 1.228-4.411h.891l-1.697 5.833h-.843l-1.252-4.363-1.251 4.363h-.843Zm6.239 0 1.896-5.833h1.219l1.896 5.833h-.879l-1.746-5.323h.218l-1.725 5.323h-.879Zm.984-1.317v-.794h3.046v.794h-3.046Zm5.401 1.317v-5.833h2.358c.057 0 .127.002.211.008.083.003.163.011.239.024.324.051.594.162.81.332.218.17.382.385.49.644.108.26.162.546.162.859 0 .465-.119.866-.357 1.203-.237.335-.594.544-1.069.628l-.344.041h-1.653v2.094h-.847Zm3.411 0-1.15-2.374.854-.219 1.264 2.593h-.968Zm-2.564-2.896h1.479a1.944 1.944 0 0 0 .368-.037.826.826 0 0 0 .417-.223.967.967 0 0 0 .227-.38 1.355 1.355 0 0 0 0-.855.942.942 0 0 0-.227-.377.816.816 0 0 0-.417-.227 1.018 1.018 0 0 0-.19-.032 1.92 1.92 0 0 0-.178-.008h-1.479v2.139Zm5.071 2.896v-5.833h1.827c.054 0 .153.001.299.004.149.003.291.013.426.032.456.057.839.22 1.15.49.313.27.55.613.709 1.029.159.413.239.867.239 1.361a3.8 3.8 0 0 1-.239 1.369 2.52 2.52 0 0 1-.709 1.025c-.311.268-.694.43-1.15.486-.135.019-.277.03-.426.033l-.299.004h-1.827Zm.866-.806h.961c.091 0 .201-.003.328-.008a2.94 2.94 0 0 0 .336-.033c.297-.057.537-.185.721-.385.186-.202.323-.451.409-.745.086-.294.13-.608.13-.94 0-.343-.045-.66-.134-.952a1.825 1.825 0 0 0-.413-.737 1.249 1.249 0 0 0-.713-.381 2.048 2.048 0 0 0-.34-.032 8.557 8.557 0 0 0-.324-.008h-.961v4.221Zm7.49.927c-.419 0-.797-.071-1.134-.214a2.185 2.185 0 0 1-.831-.62 2.085 2.085 0 0 1-.421-.96l.883-.134c.089.357.275.635.559.835.283.197.614.295.992.295.235 0 .451-.036.648-.109a1.15 1.15 0 0 0 .474-.32.74.74 0 0 0 .183-.502.651.651 0 0 0-.207-.49.786.786 0 0 0-.231-.158 1.66 1.66 0 0 0-.296-.118l-1.494-.441a3.65 3.65 0 0 1-.446-.167c-.151-.07-.29-.16-.417-.271a1.321 1.321 0 0 1-.304-.417 1.434 1.434 0 0 1-.117-.608c0-.359.092-.663.275-.911.186-.251.438-.44.754-.567.316-.13.669-.195 1.061-.195.394.006.747.076 1.057.211.313.135.573.329.778.583.208.251.351.557.429.916l-.907.154a1.194 1.194 0 0 0-.259-.563 1.306 1.306 0 0 0-.486-.365 1.561 1.561 0 0 0-.624-.134 1.521 1.521 0 0 0-.596.098c-.178.07-.321.168-.429.295a.668.668 0 0 0-.158.438c0 .162.047.293.142.393.094.1.21.179.348.239.14.056.28.104.417.141l1.078.304c.135.038.287.089.457.154.173.062.339.15.499.263.162.114.295.265.401.454.105.186.158.421.158.705 0 .294-.06.554-.179.778a1.649 1.649 0 0 1-.49.559c-.205.148-.443.26-.713.336a3.14 3.14 0 0 1-.854.113Z"/></g><defs><linearGradient id="c" x1="132.688" x2="132.688" y1="43.248" y2="166.628" gradientUnits="userSpaceOnUse"><stop stop-color="#34436A"/><stop offset="1" stop-color="#4D5B7D" stop-opacity=".8"/></linearGradient><linearGradient id="e" x1="132.688" x2="132.688" y1="25.048" y2="185.66" gradientUnits="userSpaceOnUse"><stop stop-color="#fff"/><stop offset="1" stop-color="#999"/></linearGradient><linearGradient id="f" x1="132.688" x2="132.688" y1="43.248" y2="166.628" gradientUnits="userSpaceOnUse"><stop stop-color="#34436A"/><stop offset="1" stop-color="#4D5B7D" stop-opacity=".8"/></linearGradient><linearGradient id="h" x1="132.688" x2="132.688" y1="25.048" y2="185.66" gradientUnits="userSpaceOnUse"><stop stop-color="#fff"/><stop offset="1" stop-color="#999"/></linearGradient><linearGradient id="j" x1="132.688" x2="132.688" y1="43.248" y2="166.628" gradientUnits="userSpaceOnUse"><stop stop-color="#34436A"/><stop offset="1" stop-color="#4D5B7D" stop-opacity=".8"/></linearGradient><linearGradient id="l" x1="132.688" x2="132.688" y1="25.049" y2="185.66" gradientUnits="userSpaceOnUse"><stop stop-color="#fff"/><stop offset="1" stop-color="#999"/></linearGradient><linearGradient id="n" x1="132.6" x2="132.6" y1="24.349" y2="184.285" gradientUnits="userSpaceOnUse"><stop stop-color="#34436A"/><stop offset="1" stop-color="#4D5B7D" stop-opacity=".8"/></linearGradient><linearGradient id="p" x1="132.6" x2="132.6" y1=".756" y2="208.957" gradientUnits="userSpaceOnUse"><stop stop-color="#fff"/><stop offset="1" stop-color="#999"/></linearGradient><linearGradient id="q" x1="132.6" x2="132.6" y1="24.349" y2="184.285" gradientUnits="userSpaceOnUse"><stop stop-color="#34436A"/><stop offset="1" stop-color="#4D5B7D" stop-opacity=".8"/></linearGradient><linearGradient id="s" x1="132.6" x2="132.6" y1=".756" y2="208.957" gradientUnits="userSpaceOnUse"><stop stop-color="#fff"/><stop offset="1" stop-color="#999"/></linearGradient><linearGradient id="t" x1="132.6" x2="132.6" y1="24.349" y2="184.285" gradientUnits="userSpaceOnUse"><stop stop-color="#34436A"/><stop offset="1" stop-color="#4D5B7D" stop-opacity=".8"/></linearGradient><linearGradient id="v" x1="132.6" x2="132.6" y1=".756" y2="208.957" gradientUnits="userSpaceOnUse"><stop stop-color="#fff"/><stop offset="1" stop-color="#999"/></linearGradient><linearGradient id="x" x1="132.6" x2="132.6" y1="24.349" y2="184.285" gradientUnits="userSpaceOnUse"><stop stop-color="#34436A"/><stop offset="1" stop-color="#4D5B7D" stop-opacity=".8"/></linearGradient><linearGradient id="z" x1="132.6" x2="132.6" y1=".756" y2="208.957" gradientUnits="userSpaceOnUse"><stop stop-color="#fff"/><stop offset="1" stop-color="#999"/></linearGradient><linearGradient id="A" x1="134.232" x2="134.232" y1="89.364" y2="123.568" gradientUnits="userSpaceOnUse"><stop stop-opacity="0"/><stop offset="1" stop-opacity=".16"/></linearGradient><linearGradient id="C" x1="134.232" x2="134.232" y1="72.261" y2="123.568" gradientUnits="userSpaceOnUse"><stop stop-color="#fff"/><stop offset="1" stop-color="#fff" stop-opacity="0"/></linearGradient><linearGradient id="F" x1="134.233" x2="134.233" y1="80.441" y2="114.645" gradientUnits="userSpaceOnUse"><stop stop-opacity="0"/><stop offset="1" stop-opacity=".16"/></linearGradient><linearGradient id="G" x1="134.233" x2="134.233" y1="80.441" y2="114.645" gradientUnits="userSpaceOnUse"><stop stop-color="#fff"/><stop offset="1" stop-color="#fff" stop-opacity="0"/></linearGradient><radialGradient id="d" cx="0" cy="0" r="1" gradientTransform="matrix(0 81.3778 -52.9074 0 132.688 78.687)" gradientUnits="userSpaceOnUse"><stop stop-color="#011445"/><stop offset="1" stop-color="#1A2C58"/></radialGradient><radialGradient id="g" cx="0" cy="0" r="1" gradientTransform="matrix(0 81.3778 -52.9074 0 132.688 78.687)" gradientUnits="userSpaceOnUse"><stop stop-color="#011445"/><stop offset="1" stop-color="#1A2C58"/></radialGradient><radialGradient id="k" cx="0" cy="0" r="1" gradientTransform="matrix(0 81.3778 -52.9074 0 132.688 78.687)" gradientUnits="userSpaceOnUse"><stop stop-color="#011445"/><stop offset="1" stop-color="#1A2C58"/></radialGradient><radialGradient id="o" cx="0" cy="0" r="1" gradientTransform="matrix(0 105.49 -80.0372 0 132.6 70.288)" gradientUnits="userSpaceOnUse"><stop stop-color="#011445"/><stop offset="1" stop-color="#1A2C58"/></radialGradient><radialGradient id="r" cx="0" cy="0" r="1" gradientTransform="matrix(0 105.49 -80.0372 0 132.6 70.288)" gradientUnits="userSpaceOnUse"><stop stop-color="#011445"/><stop offset="1" stop-color="#1A2C58"/></radialGradient><radialGradient id="u" cx="0" cy="0" r="1" gradientTransform="matrix(0 105.49 -80.0372 0 132.6 70.288)" gradientUnits="userSpaceOnUse"><stop stop-color="#011445"/><stop offset="1" stop-color="#1A2C58"/></radialGradient><radialGradient id="y" cx="0" cy="0" r="1" gradientTransform="matrix(0 105.49 -80.0372 0 132.6 70.288)" gradientUnits="userSpaceOnUse"><stop stop-color="#011445"/><stop offset="1" stop-color="#1A2C58"/></radialGradient><radialGradient id="D" cx="0" cy="0" r="1" gradientTransform="matrix(0 34.2041 -143.674 0 134.232 89.364)" gradientUnits="userSpaceOnUse"><stop stop-color="#fff"/><stop offset="1" stop-color="#fff" stop-opacity="0"/></radialGradient><filter id="a" width="268.2" height="268" x=".34" y="-25.244" color-interpolation-filters="sRGB" filterUnits="userSpaceOnUse"><feFlood flood-opacity="0" result="BackgroundImageFix"/><feColorMatrix in="SourceAlpha" result="hardAlpha" values="0 0 0 0 0 0 0 0 0 0 0 0 0 0 0 0 0 0 127 0"/><feOffset dy="4"/><feGaussianBlur stdDeviation="15"/><feComposite in2="hardAlpha" operator="out"/><feColorMatrix values="0 0 0 0 0.190698 0 0 0 0 0.334496 0 0 0 0 0.565824 0 0 0 0.08 0"/><feBlend in2="BackgroundImageFix" result="effect1_dropShadow_26092_9324"/><feBlend in="SourceGraphic" in2="effect1_dropShadow_26092_9324" result="shape"/></filter><filter id="b" width="153.998" height="171.513" x="55.689" y="23.654" color-interpolation-filters="sRGB" filterUnits="userSpaceOnUse"><feFlood flood-opacity="0" result="BackgroundImageFix"/><feColorMatrix in="SourceAlpha" result="hardAlpha" values="0 0 0 0 0 0 0 0 0 0 0 0 0 0 0 0 0 0 127 0"/><feOffset dy="3.718"/><feGaussianBlur stdDeviation="4.09"/><feColorMatrix values="0 0 0 0 0.0117647 0 0 0 0 0.0627451 0 0 0 0 0.192157 0 0 0 0.3 0"/><feBlend in2="BackgroundImageFix" result="effect1_dropShadow_26092_9324"/><feBlend in="SourceGraphic" in2="effect1_dropShadow_26092_9324" result="shape"/></filter><filter id="w" width="226.046" height="226.046" x="19.577" y="-6.679" color-interpolation-filters="sRGB" filterUnits="userSpaceOnUse"><feFlood flood-opacity="0" result="BackgroundImageFix"/><feColorMatrix in="SourceAlpha" result="hardAlpha" values="0 0 0 0 0 0 0 0 0 0 0 0 0 0 0 0 0 0 127 0"/><feOffset dy="1.487"/><feGaussianBlur stdDeviation="2.974"/><feColorMatrix values="0 0 0 0 0 0 0 0 0 0 0 0 0 0 0 0 0 0 0.16 0"/><feBlend in2="BackgroundImageFix" mode="color-burn" result="effect1_dropShadow_26092_9324"/><feBlend in="SourceGraphic" in2="effect1_dropShadow_26092_9324" result="shape"/></filter><filter id="E" width="148.714" height="52.05" x="59.876" y="74.492" color-interpolation-filters="sRGB" filterUnits="userSpaceOnUse"><feFlood flood-opacity="0" result="BackgroundImageFix"/><feColorMatrix in="SourceAlpha" result="hardAlpha" values="0 0 0 0 0 0 0 0 0 0 0 0 0 0 0 0 0 0 127 0"/><feOffset dy="2.974"/><feGaussianBlur stdDeviation="4.461"/><feColorMatrix values="0 0 0 0 0 0 0 0 0 0 0 0 0 0 0 0 0 0 0.16 0"/><feBlend in2="BackgroundImageFix" result="effect1_dropShadow_26092_9324"/><feBlend in="SourceGraphic" in2="effect1_dropShadow_26092_9324" result="shape"/></filter></defs></svg>