<svg width="12" height="15" viewBox="0 0 12 15" fill="none" xmlns="http://www.w3.org/2000/svg">
<path d="M9.9375 7.49374C9.9375 7.55624 9.84375 9.39999 11.875 10.3687C11.5 11.525 10.1875 14.0875 8.65625 14.0875C7.78125 14.0875 7.28125 13.525 6.28125 13.525C5.25 13.525 4.6875 14.0875 3.90625 14.0875C2.40625 14.15 0.96875 11.3375 0.5625 10.1812C0.25 9.30624 0.125 8.46249 0.125 7.64999C0.125 4.86874 1.96875 3.52499 3.71875 3.49374C4.5625 3.49374 5.625 4.08749 6.09375 4.08749C6.53125 4.08749 7.75 3.36874 8.875 3.46249C10.0312 3.55624 10.9062 3.99374 11.5 4.83749C10.4688 5.49374 9.9375 6.33749 9.9375 7.49374ZM8.1875 2.36874C7.5625 3.08749 6.8125 3.49374 6 3.43124C5.9375 2.58749 6.25 1.80624 6.8125 1.18124C7.3125 0.618744 8.1875 0.149994 8.9375 0.0874939C8.9375 0.431244 9.03125 1.36874 8.1875 2.36874Z" fill="white"/>
</svg>
