<svg width="19" height="22" viewBox="0 0 19 22" fill="none" xmlns="http://www.w3.org/2000/svg">
<path d="M9.95632 1.7149L17.0425 9.13857C17.4222 9.56037 17.4222 10.1931 17.0004 10.5727C16.5786 10.9523 15.9459 10.9523 15.5662 10.5305L10.2516 4.92058L10.2516 19.2618C10.2516 19.8523 9.7876 20.2741 9.23926 20.2741C8.64874 20.2741 8.22694 19.8523 8.22694 19.2618L8.22694 4.92058L2.87009 10.5305C2.49047 10.9523 1.85777 10.9523 1.43597 10.5727C1.01417 10.1931 1.01417 9.51819 1.39379 9.13857L8.48002 1.7149C8.69092 1.504 8.944 1.37746 9.23926 1.37746C9.49234 1.37746 9.74542 1.504 9.95632 1.7149Z" fill="white"/>
</svg>
