<svg width="14" height="16" viewBox="0 0 14 16" fill="none" xmlns="http://www.w3.org/2000/svg">
<path d="M6.4375 14.7812L1.1875 9.28125C0.90625 8.96875 0.90625 8.5 1.21875 8.21875C1.53125 7.9375 2 7.9375 2.28125 8.25L6.25 12.4062V1.75C6.25 1.34375 6.5625 1 7 1C7.40625 1 7.75 1.34375 7.75 1.75V12.4062L11.6875 8.25C11.9688 7.9375 12.4688 7.9375 12.75 8.21875C13.0625 8.5 13.0625 8.96875 12.7812 9.28125L7.53125 14.7812C7.375 14.9375 7.1875 15 7 15C6.78125 15 6.59375 14.9375 6.4375 14.7812Z" fill="white"/>
</svg>
