<svg width="14" height="13" viewBox="0 0 14 13" fill="none" xmlns="http://www.w3.org/2000/svg">
<path d="M13.75 7.26917L8.25 12.5192C7.9375 12.8004 7.46875 12.8004 7.1875 12.4879C6.90625 12.1754 6.90625 11.7067 7.21875 11.4254L11.375 7.45667H0.75C0.3125 7.45667 0 7.14417 0 6.70667C0 6.30042 0.3125 5.95667 0.75 5.95667H11.375L7.21875 2.01917C6.90625 1.73792 6.90625 1.23792 7.1875 0.956665C7.46875 0.644165 7.96875 0.644165 8.25 0.925415L13.75 6.17542C13.9062 6.33167 14 6.51917 14 6.70667C14 6.92542 13.9062 7.11292 13.75 7.26917Z" fill="#011445"/>
</svg>
