<svg width="15" height="19" viewBox="0 0 15 19" fill="none" xmlns="http://www.w3.org/2000/svg">
<path d="M6.86719 17.3789L0.960938 11.1914C0.644531 10.8398 0.644531 10.3125 0.996094 9.99609C1.34766 9.67969 1.875 9.67969 2.19141 10.0312L6.65625 14.707V2.71875C6.65625 2.26172 7.00781 1.875 7.5 1.875C7.95703 1.875 8.34375 2.26172 8.34375 2.71875V14.707L12.7734 10.0312C13.0898 9.67969 13.6523 9.67969 13.9688 9.99609C14.3203 10.3125 14.3203 10.8398 14.0039 11.1914L8.09766 17.3789C7.92188 17.5547 7.71094 17.625 7.5 17.625C7.25391 17.625 7.04297 17.5547 6.86719 17.3789Z" fill="#011445"/>
</svg>
