<svg width="16" height="17" viewBox="0 0 16 17" fill="none" xmlns="http://www.w3.org/2000/svg">
<path d="M8 2C4.40625 2 1.5 4.9375 1.5 8.5C1.5 12.0938 4.40625 15 8 15C8.40625 15 8.75 15.3438 8.75 15.75C8.75 16.1875 8.40625 16.5 8 16.5C3.5625 16.5 0 12.9375 0 8.5C0 4.09375 3.5625 0.5 8 0.5C12.4062 0.5 16 4.09375 16 8.5V9.375C16 10.9688 14.6875 12.25 13.125 12.25C12.125 12.25 11.2812 11.7812 10.75 11.0312C10.0625 11.7812 9.09375 12.25 8 12.25C5.90625 12.25 4.25 10.5938 4.25 8.5C4.25 6.4375 5.90625 4.75 8 4.75C8.875 4.75 9.71875 5.09375 10.3438 5.59375C10.5 5.40625 10.7188 5.25 11 5.25C11.4062 5.25 11.75 5.59375 11.75 6V8.5V9.375C11.75 10.1562 12.3438 10.75 13.125 10.75C13.875 10.75 14.5 10.1562 14.5 9.375V8.5C14.5 4.9375 11.5625 2 8 2ZM10.25 8.5C10.25 7.71875 9.8125 6.96875 9.125 6.5625C8.40625 6.15625 7.5625 6.15625 6.875 6.5625C6.15625 6.96875 5.75 7.71875 5.75 8.5C5.75 9.3125 6.15625 10.0625 6.875 10.4688C7.5625 10.875 8.40625 10.875 9.125 10.4688C9.8125 10.0625 10.25 9.3125 10.25 8.5Z" fill="#193CE5"/>
</svg>
