<svg width="506" height="142" viewBox="0 0 506 142" fill="none" xmlns="http://www.w3.org/2000/svg">
<g filter="url(#filter0_dd_22423_19369)">
<rect x="27" y="26.9443" width="452" height="87.959" rx="5.17406" fill="#FAFBFD"/>
<rect x="42.5225" y="42.4663" width="53.0341" height="56.9147" rx="5.17406" fill="#D2E4EF"/>
<path d="M63.6434 77.6955C62.7198 77.6955 61.9049 77.4993 61.1986 77.1069C60.4924 76.7085 59.94 76.1562 59.5416 75.4499C59.1493 74.7437 58.9531 73.9288 58.9531 73.0052V68.8038C58.9531 67.8803 59.1493 67.0654 59.5416 66.3591C59.94 65.6528 60.4924 65.1035 61.1986 64.7112C61.9049 64.3128 62.7198 64.1136 63.6434 64.1136C64.5669 64.1136 65.3788 64.3128 66.0791 64.7112C66.7853 65.1035 67.3376 65.6528 67.736 66.3591C68.1344 67.0654 68.3336 67.8803 68.3336 68.8038V73.0052C68.3336 73.9288 68.1344 74.7437 67.736 75.4499C67.3376 76.1562 66.7853 76.7085 66.0791 77.1069C65.3788 77.4993 64.5669 77.6955 63.6434 77.6955ZM63.6434 75.622C64.1021 75.622 64.5186 75.5133 64.8929 75.296C65.2672 75.0726 65.5629 74.7769 65.7802 74.4086C65.9976 74.0344 66.1062 73.6179 66.1062 73.1591V68.6409C66.1062 68.1761 65.9976 67.7595 65.7802 67.3913C65.5629 67.0171 65.2672 66.7213 64.8929 66.504C64.5186 66.2806 64.1021 66.169 63.6434 66.169C63.1846 66.169 62.7681 66.2806 62.3938 66.504C62.0196 66.7213 61.7238 67.0171 61.5065 67.3913C61.2892 67.7595 61.1805 68.1761 61.1805 68.6409V73.1591C61.1805 73.6179 61.2892 74.0344 61.5065 74.4086C61.7238 74.7769 62.0196 75.0726 62.3938 75.296C62.7681 75.5133 63.1846 75.622 63.6434 75.622ZM70.5104 77.4057V75.5043L76.0881 70.5333C76.5227 70.1469 76.8245 69.7817 76.9935 69.4377C77.1625 69.0936 77.2471 68.7616 77.2471 68.4417C77.2471 68.007 77.1535 67.6207 76.9664 67.2827C76.7792 66.9386 76.5197 66.667 76.1877 66.4678C75.8617 66.2686 75.4844 66.169 75.0558 66.169C74.6031 66.169 74.2017 66.2746 73.8516 66.4859C73.5075 66.6911 73.2389 66.9658 73.0457 67.3098C72.8526 67.6539 72.762 68.0251 72.7741 68.4236H70.5285C70.5285 67.5543 70.7217 66.7967 71.108 66.1508C71.5004 65.5049 72.0376 65.0039 72.7198 64.6478C73.4079 64.2916 74.2017 64.1136 75.1011 64.1136C75.9341 64.1136 76.6827 64.3007 77.3467 64.6749C78.0107 65.0432 78.5328 65.5563 78.9131 66.2142C79.2934 66.8662 79.4835 67.6177 79.4835 68.4688C79.4835 69.0906 79.399 69.6127 79.23 70.0353C79.061 70.4578 78.8075 70.8472 78.4694 71.2033C78.1374 71.5595 77.7239 71.9548 77.2289 72.3895L73.2721 75.8936L73.0729 75.3503H79.4835V77.4057H70.5104Z" fill="#186491"/>
<rect x="100.73" y="42.4663" width="362.747" height="56.9147" rx="5.17406" fill="#D2E4EF"/>
<path d="M114.595 75.9238V68.0286H111.553V66.7773H118.965V68.0286H115.923V75.9238H114.595ZM122.007 76.1144C121.325 76.1144 120.726 75.9662 120.21 75.6698C119.697 75.3691 119.297 74.952 119.009 74.4185C118.725 73.8807 118.584 73.2582 118.584 72.551C118.584 71.8015 118.723 71.1515 119.003 70.6011C119.286 70.0506 119.68 69.625 120.184 69.3244C120.688 69.0237 121.275 68.8734 121.944 68.8734C122.642 68.8734 123.237 69.0364 123.728 69.3625C124.22 69.6843 124.586 70.1437 124.827 70.7408C125.073 71.3379 125.17 72.0471 125.119 72.8686H123.792V72.3859C123.783 71.5898 123.631 71.0012 123.335 70.6201C123.042 70.239 122.596 70.0485 121.994 70.0485C121.33 70.0485 120.83 70.2581 120.495 70.6773C120.161 71.0965 119.994 71.702 119.994 72.4939C119.994 73.2476 120.161 73.832 120.495 74.247C120.83 74.6577 121.313 74.8631 121.944 74.8631C122.359 74.8631 122.716 74.7699 123.017 74.5836C123.322 74.3931 123.559 74.122 123.728 73.7706L125.031 74.1834C124.764 74.7975 124.359 75.2738 123.817 75.6126C123.275 75.9471 122.672 76.1144 122.007 76.1144ZM119.562 72.8686V71.8333H124.459V72.8686H119.562ZM125.534 75.9238L128.1 72.4558L125.591 69.0639H127.167L128.875 71.4204L130.565 69.0639H132.14L129.631 72.4558L132.204 75.9238H130.622L128.875 73.4911L127.116 75.9238H125.534ZM137.144 75.9238C136.712 76.0085 136.289 76.0445 135.874 76.0318C135.459 76.0191 135.088 75.9386 134.762 75.7904C134.436 75.6422 134.191 75.4093 134.026 75.0917C133.877 74.808 133.797 74.5201 133.784 74.2279C133.776 73.9315 133.771 73.597 133.771 73.2243V67.1584H135.105V73.1608C135.105 73.4361 135.107 73.6753 135.112 73.8786C135.12 74.0818 135.165 74.2533 135.245 74.3931C135.398 74.6556 135.639 74.8059 135.969 74.844C136.304 74.8779 136.695 74.8631 137.144 74.7996V75.9238ZM132.457 70.131V69.0639H137.144V70.131H132.457ZM145.059 75.9238C144.627 76.0085 144.204 76.0445 143.789 76.0318C143.374 76.0191 143.003 75.9386 142.677 75.7904C142.351 75.6422 142.106 75.4093 141.94 75.0917C141.792 74.808 141.712 74.5201 141.699 74.2279C141.691 73.9315 141.686 73.597 141.686 73.2243V67.1584H143.02V73.1608C143.02 73.4361 143.022 73.6753 143.027 73.8786C143.035 74.0818 143.079 74.2533 143.16 74.3931C143.312 74.6556 143.554 74.8059 143.884 74.844C144.219 74.8779 144.61 74.8631 145.059 74.7996V75.9238ZM140.372 70.131V69.0639H145.059V70.131H140.372ZM149.174 76.1144C148.488 76.1144 147.893 75.9598 147.389 75.6507C146.886 75.3416 146.496 74.916 146.221 74.374C145.95 73.8277 145.814 73.1989 145.814 72.4875C145.814 71.7719 145.954 71.1431 146.233 70.6011C146.513 70.0548 146.905 69.6314 147.408 69.3307C147.912 69.0258 148.501 68.8734 149.174 68.8734C149.86 68.8734 150.455 69.0279 150.959 69.3371C151.463 69.6462 151.853 70.0717 152.128 70.6138C152.403 71.1558 152.541 71.7804 152.541 72.4875C152.541 73.2032 152.401 73.8341 152.121 74.3804C151.846 74.9224 151.457 75.3479 150.953 75.6571C150.449 75.9619 149.856 76.1144 149.174 76.1144ZM149.174 74.8631C149.831 74.8631 150.32 74.6429 150.642 74.2025C150.968 73.7579 151.131 73.1862 151.131 72.4875C151.131 71.7719 150.965 71.2002 150.635 70.7726C150.309 70.3406 149.822 70.1247 149.174 70.1247C148.73 70.1247 148.363 70.2263 148.075 70.4296C147.787 70.6286 147.574 70.9059 147.434 71.2616C147.294 71.6131 147.224 72.0217 147.224 72.4875C147.224 73.2074 147.389 73.7833 147.72 74.2152C148.05 74.6471 148.535 74.8631 149.174 74.8631ZM156.48 75.9238V66.7773H160.176C160.265 66.7773 160.375 66.7815 160.507 66.79C160.638 66.7942 160.763 66.8069 160.881 66.8281C161.39 66.9086 161.813 67.0822 162.152 67.349C162.495 67.6157 162.751 67.9524 162.92 68.3589C163.09 68.7654 163.174 69.2143 163.174 69.7055C163.174 70.2009 163.09 70.6519 162.92 71.0584C162.751 71.4649 162.495 71.8015 162.152 72.0683C161.813 72.3351 161.39 72.5087 160.881 72.5892C160.763 72.6061 160.636 72.6188 160.5 72.6273C160.369 72.6357 160.261 72.64 160.176 72.64H157.807V75.9238H156.48ZM157.807 71.3823H160.126C160.21 71.3823 160.303 71.3781 160.405 71.3696C160.511 71.3612 160.61 71.3463 160.704 71.3252C160.975 71.2616 161.193 71.1452 161.358 70.9758C161.523 70.8022 161.642 70.6032 161.714 70.3787C161.786 70.1543 161.821 69.9299 161.821 69.7055C161.821 69.481 161.786 69.2587 161.714 69.0385C161.642 68.8141 161.523 68.6172 161.358 68.4478C161.193 68.2742 160.975 68.1556 160.704 68.0921C160.61 68.0667 160.511 68.0498 160.405 68.0413C160.303 68.0328 160.21 68.0286 160.126 68.0286H157.807V71.3823ZM166.171 76.1144C165.662 76.1144 165.237 76.0212 164.894 75.8349C164.551 75.6444 164.29 75.3945 164.113 75.0854C163.939 74.772 163.852 74.429 163.852 74.0564C163.852 73.7092 163.914 73.4043 164.036 73.1418C164.159 72.8792 164.341 72.6569 164.583 72.4748C164.824 72.2885 165.12 72.1382 165.472 72.0239C165.777 71.9349 166.122 71.8566 166.507 71.7888C166.893 71.7211 167.297 71.6576 167.72 71.5983C168.148 71.539 168.572 71.4797 168.991 71.4204L168.508 71.6872C168.516 71.1494 168.402 70.7514 168.165 70.4931C167.932 70.2305 167.53 70.0993 166.958 70.0993C166.598 70.0993 166.268 70.184 165.967 70.3533C165.667 70.5185 165.457 70.7937 165.338 71.1791L164.1 70.798C164.269 70.2094 164.591 69.7415 165.065 69.3942C165.544 69.047 166.179 68.8734 166.971 68.8734C167.585 68.8734 168.118 68.9792 168.572 69.191C169.029 69.3985 169.363 69.7288 169.575 70.1818C169.685 70.4063 169.753 70.6434 169.778 70.8932C169.804 71.1431 169.816 71.412 169.816 71.6999V75.9238H168.641V74.3549L168.87 74.5582C168.586 75.0833 168.224 75.475 167.784 75.7333C167.348 75.9873 166.81 76.1144 166.171 76.1144ZM166.406 75.0282C166.782 75.0282 167.106 74.9626 167.377 74.8313C167.648 74.6958 167.866 74.5243 168.032 74.3168C168.197 74.1093 168.305 73.8934 168.356 73.669C168.428 73.4657 168.468 73.237 168.476 72.983C168.489 72.7289 168.495 72.5256 168.495 72.3732L168.927 72.532C168.508 72.5955 168.127 72.6527 167.784 72.7035C167.441 72.7543 167.13 72.8051 166.85 72.8559C166.575 72.9025 166.329 72.9597 166.113 73.0274C165.931 73.0909 165.768 73.1672 165.624 73.2561C165.485 73.345 165.372 73.453 165.288 73.58C165.207 73.7071 165.167 73.8616 165.167 74.0437C165.167 74.2216 165.211 74.3867 165.3 74.5391C165.389 74.6874 165.525 74.8059 165.707 74.8948C165.889 74.9838 166.122 75.0282 166.406 75.0282ZM175.391 75.9238C174.959 76.0085 174.536 76.0445 174.121 76.0318C173.706 76.0191 173.335 75.9386 173.009 75.7904C172.683 75.6422 172.438 75.4093 172.273 75.0917C172.124 74.808 172.044 74.5201 172.031 74.2279C172.023 73.9315 172.018 73.597 172.018 73.2243V67.1584H173.352V73.1608C173.352 73.4361 173.354 73.6753 173.359 73.8786C173.367 74.0818 173.412 74.2533 173.492 74.3931C173.644 74.6556 173.886 74.8059 174.216 74.844C174.551 74.8779 174.942 74.8631 175.391 74.7996V75.9238ZM170.704 70.131V69.0639H175.391V70.131H170.704ZM176.965 67.9397V66.6503H178.292V67.9397H176.965ZM176.965 75.9238V69.0639H178.292V75.9238H176.965ZM183.242 76.1144C182.56 76.1144 181.961 75.9662 181.444 75.6698C180.932 75.3691 180.532 74.952 180.244 74.4185C179.96 73.8807 179.818 73.2582 179.818 72.551C179.818 71.8015 179.958 71.1515 180.238 70.6011C180.521 70.0506 180.915 69.625 181.419 69.3244C181.923 69.0237 182.509 68.8734 183.178 68.8734C183.877 68.8734 184.472 69.0364 184.963 69.3625C185.455 69.6843 185.821 70.1437 186.062 70.7408C186.308 71.3379 186.405 72.0471 186.354 72.8686H185.027V72.3859C185.018 71.5898 184.866 71.0012 184.57 70.6201C184.277 70.239 183.831 70.0485 183.229 70.0485C182.564 70.0485 182.065 70.2581 181.73 70.6773C181.396 71.0965 181.228 71.702 181.228 72.4939C181.228 73.2476 181.396 73.832 181.73 74.247C182.065 74.6577 182.548 74.8631 183.178 74.8631C183.593 74.8631 183.951 74.7699 184.252 74.5836C184.557 74.3931 184.794 74.122 184.963 73.7706L186.265 74.1834C185.999 74.7975 185.594 75.2738 185.052 75.6126C184.51 75.9471 183.907 76.1144 183.242 76.1144ZM180.797 72.8686V71.8333H185.694V72.8686H180.797ZM192.408 75.9238V72.551C192.408 72.2843 192.385 72.0111 192.338 71.7317C192.296 71.448 192.211 71.1854 192.084 70.9441C191.961 70.7027 191.785 70.5079 191.557 70.3597C191.332 70.2115 191.038 70.1374 190.674 70.1374C190.437 70.1374 190.212 70.1776 190.001 70.2581C189.789 70.3343 189.603 70.4592 189.442 70.6328C189.285 70.8064 189.16 71.0351 189.067 71.3188C188.978 71.6025 188.934 71.9476 188.934 72.3541L188.108 72.0429C188.108 71.4204 188.224 70.8721 188.457 70.3978C188.69 69.9193 189.025 69.5467 189.461 69.2799C189.897 69.0131 190.424 68.8797 191.042 68.8797C191.517 68.8797 191.915 68.956 192.236 69.1084C192.558 69.2608 192.819 69.462 193.018 69.7118C193.221 69.9574 193.376 70.2263 193.481 70.5185C193.587 70.8107 193.659 71.0965 193.697 71.376C193.735 71.6555 193.755 71.9011 193.755 72.1128V75.9238H192.408ZM187.587 75.9238V69.0639H188.775V71.0457H188.934V75.9238H187.587ZM199.334 75.9238C198.902 76.0085 198.479 76.0445 198.064 76.0318C197.649 76.0191 197.279 75.9386 196.952 75.7904C196.626 75.6422 196.381 75.4093 196.216 75.0917C196.067 74.808 195.987 74.5201 195.974 74.2279C195.966 73.9315 195.962 73.597 195.962 73.2243V67.1584H197.295V73.1608C197.295 73.4361 197.298 73.6753 197.302 73.8786C197.31 74.0818 197.355 74.2533 197.435 74.3931C197.588 74.6556 197.829 74.8059 198.159 74.844C198.494 74.8779 198.885 74.8631 199.334 74.7996V75.9238ZM194.647 70.131V69.0639H199.334V70.131H194.647ZM200.654 77.4419L200.736 76.8512C200.918 76.8639 201.06 76.83 201.162 76.7496C201.263 76.6691 201.331 76.5569 201.365 76.4129C201.399 76.2689 201.405 76.1059 201.384 75.9238H200.654V74.3931H202.057V76.0509C202.057 76.5505 201.937 76.9274 201.695 77.1815C201.458 77.4355 201.111 77.5224 200.654 77.4419ZM209.289 75.9238V68.0286H206.246V66.7773H213.659V68.0286H210.616V75.9238H209.289ZM216.7 76.1144C216.019 76.1144 215.419 75.9662 214.903 75.6698C214.39 75.3691 213.99 74.952 213.702 74.4185C213.419 73.8807 213.277 73.2582 213.277 72.551C213.277 71.8015 213.416 71.1515 213.696 70.6011C213.98 70.0506 214.373 69.625 214.877 69.3244C215.381 69.0237 215.968 68.8734 216.637 68.8734C217.336 68.8734 217.93 69.0364 218.422 69.3625C218.913 69.6843 219.279 70.1437 219.521 70.7408C219.766 71.3379 219.864 72.0471 219.813 72.8686H218.485V72.3859C218.477 71.5898 218.324 71.0012 218.028 70.6201C217.736 70.239 217.289 70.0485 216.688 70.0485C216.023 70.0485 215.523 70.2581 215.189 70.6773C214.854 71.0965 214.687 71.702 214.687 72.4939C214.687 73.2476 214.854 73.832 215.189 74.247C215.523 74.6577 216.006 74.8631 216.637 74.8631C217.052 74.8631 217.41 74.7699 217.71 74.5836C218.015 74.3931 218.252 74.122 218.422 73.7706L219.724 74.1834C219.457 74.7975 219.053 75.2738 218.511 75.6126C217.969 75.9471 217.365 76.1144 216.7 76.1144ZM214.255 72.8686V71.8333H219.152V72.8686H214.255ZM221.365 75.9238V66.5868H222.692V75.9238H221.365ZM227.642 76.1144C226.96 76.1144 226.361 75.9662 225.845 75.6698C225.332 75.3691 224.932 74.952 224.644 74.4185C224.36 73.8807 224.219 73.2582 224.219 72.551C224.219 71.8015 224.358 71.1515 224.638 70.6011C224.922 70.0506 225.315 69.625 225.819 69.3244C226.323 69.0237 226.91 68.8734 227.579 68.8734C228.277 68.8734 228.872 69.0364 229.364 69.3625C229.855 69.6843 230.221 70.1437 230.462 70.7408C230.708 71.3379 230.805 72.0471 230.755 72.8686H229.427V72.3859C229.419 71.5898 229.266 71.0012 228.97 70.6201C228.678 70.239 228.231 70.0485 227.63 70.0485C226.965 70.0485 226.465 70.2581 226.131 70.6773C225.796 71.0965 225.629 71.702 225.629 72.4939C225.629 73.2476 225.796 73.832 226.131 74.247C226.465 74.6577 226.948 74.8631 227.579 74.8631C227.994 74.8631 228.352 74.7699 228.652 74.5836C228.957 74.3931 229.194 74.122 229.364 73.7706L230.666 74.1834C230.399 74.7975 229.994 75.2738 229.452 75.6126C228.91 75.9471 228.307 76.1144 227.642 76.1144ZM225.197 72.8686V71.8333H230.094V72.8686H225.197ZM236.994 75.9238V72.551C236.994 72.2843 236.971 72.0111 236.924 71.7317C236.882 71.448 236.797 71.1854 236.67 70.9441C236.548 70.7027 236.372 70.5079 236.143 70.3597C235.919 70.2115 235.624 70.1374 235.26 70.1374C235.023 70.1374 234.799 70.1776 234.587 70.2581C234.375 70.3343 234.189 70.4592 234.028 70.6328C233.871 70.8064 233.746 71.0351 233.653 71.3188C233.564 71.6025 233.52 71.9476 233.52 72.3541L232.694 72.0429C232.694 71.4204 232.811 70.8721 233.044 70.3978C233.276 69.9193 233.611 69.5467 234.047 69.2799C234.483 69.0131 235.01 68.8797 235.629 68.8797C236.103 68.8797 236.501 68.956 236.823 69.1084C237.145 69.2608 237.405 69.462 237.604 69.7118C237.807 69.9574 237.962 70.2263 238.068 70.5185C238.174 70.8107 238.246 71.0965 238.284 71.376C238.322 71.6555 238.341 71.9011 238.341 72.1128V75.9238H236.994ZM232.173 75.9238V66.7773H233.361V71.7126H233.52V75.9238H232.173ZM243.038 76.1144C242.356 76.1144 241.757 75.9662 241.24 75.6698C240.728 75.3691 240.328 74.952 240.04 74.4185C239.756 73.8807 239.614 73.2582 239.614 72.551C239.614 71.8015 239.754 71.1515 240.033 70.6011C240.317 70.0506 240.711 69.625 241.215 69.3244C241.719 69.0237 242.305 68.8734 242.974 68.8734C243.673 68.8734 244.268 69.0364 244.759 69.3625C245.25 69.6843 245.617 70.1437 245.858 70.7408C246.104 71.3379 246.201 72.0471 246.15 72.8686H244.823V72.3859C244.814 71.5898 244.662 71.0012 244.365 70.6201C244.073 70.239 243.626 70.0485 243.025 70.0485C242.36 70.0485 241.861 70.2581 241.526 70.6773C241.192 71.0965 241.024 71.702 241.024 72.4939C241.024 73.2476 241.192 73.832 241.526 74.247C241.861 74.6577 242.343 74.8631 242.974 74.8631C243.389 74.8631 243.747 74.7699 244.048 74.5836C244.353 74.3931 244.59 74.122 244.759 73.7706L246.061 74.1834C245.794 74.7975 245.39 75.2738 244.848 75.6126C244.306 75.9471 243.703 76.1144 243.038 76.1144ZM240.592 72.8686V71.8333H245.49V72.8686H240.592ZM249.388 76.1144C248.88 76.1144 248.455 76.0212 248.112 75.8349C247.769 75.6444 247.508 75.3945 247.33 75.0854C247.157 74.772 247.07 74.429 247.07 74.0564C247.07 73.7092 247.131 73.4043 247.254 73.1418C247.377 72.8792 247.559 72.6569 247.801 72.4748C248.042 72.2885 248.338 72.1382 248.69 72.0239C248.995 71.9349 249.34 71.8566 249.725 71.7888C250.11 71.7211 250.515 71.6576 250.938 71.5983C251.366 71.539 251.789 71.4797 252.209 71.4204L251.726 71.6872C251.734 71.1494 251.62 70.7514 251.383 70.4931C251.15 70.2305 250.748 70.0993 250.176 70.0993C249.816 70.0993 249.486 70.184 249.185 70.3533C248.885 70.5185 248.675 70.7937 248.556 71.1791L247.318 70.798C247.487 70.2094 247.809 69.7415 248.283 69.3942C248.762 69.047 249.397 68.8734 250.189 68.8734C250.803 68.8734 251.336 68.9792 251.789 69.191C252.247 69.3985 252.581 69.7288 252.793 70.1818C252.903 70.4063 252.971 70.6434 252.996 70.8932C253.022 71.1431 253.034 71.412 253.034 71.6999V75.9238H251.859V74.3549L252.088 74.5582C251.804 75.0833 251.442 75.475 251.002 75.7333C250.566 75.9873 250.028 76.1144 249.388 76.1144ZM249.623 75.0282C250 75.0282 250.324 74.9626 250.595 74.8313C250.866 74.6958 251.084 74.5243 251.25 74.3168C251.415 74.1093 251.523 73.8934 251.573 73.669C251.645 73.4657 251.686 73.237 251.694 72.983C251.707 72.7289 251.713 72.5256 251.713 72.3732L252.145 72.532C251.726 72.5955 251.345 72.6527 251.002 72.7035C250.659 72.7543 250.348 72.8051 250.068 72.8559C249.793 72.9025 249.547 72.9597 249.331 73.0274C249.149 73.0909 248.986 73.1672 248.842 73.2561C248.702 73.345 248.59 73.453 248.506 73.58C248.425 73.7071 248.385 73.8616 248.385 74.0437C248.385 74.2216 248.429 74.3867 248.518 74.5391C248.607 74.6874 248.743 74.8059 248.925 74.8948C249.107 74.9838 249.34 75.0282 249.623 75.0282ZM254.811 75.9238V66.5868H256.138V75.9238H254.811ZM261.971 75.9238C261.539 76.0085 261.116 76.0445 260.701 76.0318C260.286 76.0191 259.915 75.9386 259.589 75.7904C259.263 75.6422 259.017 75.4093 258.852 75.0917C258.704 74.808 258.624 74.5201 258.611 74.2279C258.603 73.9315 258.598 73.597 258.598 73.2243V67.1584H259.932V73.1608C259.932 73.4361 259.934 73.6753 259.939 73.8786C259.947 74.0818 259.991 74.2533 260.072 74.3931C260.224 74.6556 260.466 74.8059 260.796 74.844C261.131 74.8779 261.522 74.8631 261.971 74.7996V75.9238ZM257.283 70.131V69.0639H261.971V70.131H257.283ZM268.232 75.9238V72.551C268.232 72.2843 268.209 72.0111 268.162 71.7317C268.12 71.448 268.035 71.1854 267.908 70.9441C267.785 70.7027 267.61 70.5079 267.381 70.3597C267.156 70.2115 266.862 70.1374 266.498 70.1374C266.261 70.1374 266.036 70.1776 265.825 70.2581C265.613 70.3343 265.427 70.4592 265.266 70.6328C265.109 70.8064 264.984 71.0351 264.891 71.3188C264.802 71.6025 264.758 71.9476 264.758 72.3541L263.932 72.0429C263.932 71.4204 264.048 70.8721 264.281 70.3978C264.514 69.9193 264.849 69.5467 265.285 69.2799C265.721 69.0131 266.248 68.8797 266.866 68.8797C267.341 68.8797 267.739 68.956 268.061 69.1084C268.382 69.2608 268.643 69.462 268.842 69.7118C269.045 69.9574 269.2 70.2263 269.305 70.5185C269.411 70.8107 269.483 71.0965 269.521 71.376C269.56 71.6555 269.579 71.9011 269.579 72.1128V75.9238H268.232ZM263.411 75.9238V66.7773H264.599V71.7126H264.758V75.9238H263.411ZM276.755 76.1144C276.069 76.1144 275.474 75.9598 274.97 75.6507C274.466 75.3416 274.077 74.916 273.802 74.374C273.531 73.8277 273.395 73.1989 273.395 72.4875C273.395 71.7719 273.535 71.1431 273.814 70.6011C274.094 70.0548 274.485 69.6314 274.989 69.3307C275.493 69.0258 276.082 68.8734 276.755 68.8734C277.441 68.8734 278.036 69.0279 278.54 69.3371C279.044 69.6462 279.434 70.0717 279.709 70.6138C279.984 71.1558 280.122 71.7804 280.122 72.4875C280.122 73.2032 279.982 73.8341 279.702 74.3804C279.427 74.9224 279.038 75.3479 278.534 75.6571C278.03 75.9619 277.437 76.1144 276.755 76.1144ZM276.755 74.8631C277.412 74.8631 277.901 74.6429 278.222 74.2025C278.548 73.7579 278.712 73.1862 278.712 72.4875C278.712 71.7719 278.546 71.2002 278.216 70.7726C277.89 70.3406 277.403 70.1247 276.755 70.1247C276.311 70.1247 275.944 70.2263 275.656 70.4296C275.368 70.6286 275.155 70.9059 275.015 71.2616C274.875 71.6131 274.805 72.0217 274.805 72.4875C274.805 73.2074 274.97 73.7833 275.301 74.2152C275.631 74.6471 276.116 74.8631 276.755 74.8631ZM282.146 75.9238V68.8226C282.146 68.649 282.153 68.4648 282.165 68.27C282.178 68.0709 282.214 67.8762 282.273 67.6856C282.337 67.4908 282.441 67.313 282.584 67.1521C282.758 66.9615 282.949 66.826 283.156 66.7455C283.364 66.6651 283.569 66.6185 283.772 66.6058C283.98 66.5931 284.17 66.5868 284.344 66.5868H285.208V67.6793H284.407C284.094 67.6793 283.859 67.7576 283.702 67.9143C283.55 68.0667 283.474 68.2848 283.474 68.5685V75.9238H282.146ZM281.009 70.131V69.0639H285.208V70.131H281.009ZM286.3 75.9238V68.8226C286.3 68.649 286.307 68.4648 286.319 68.27C286.332 68.0709 286.368 67.8762 286.427 67.6856C286.491 67.4908 286.595 67.313 286.739 67.1521C286.912 66.9615 287.103 66.826 287.31 66.7455C287.518 66.6651 287.723 66.6185 287.926 66.6058C288.134 66.5931 288.324 66.5868 288.498 66.5868H289.362V67.6793H288.561C288.248 67.6793 288.013 67.7576 287.856 67.9143C287.704 68.0667 287.628 68.2848 287.628 68.5685V75.9238H286.3ZM285.163 70.131V69.0639H289.362V70.131H285.163ZM293.169 76.1144C292.488 76.1144 291.889 75.9662 291.372 75.6698C290.86 75.3691 290.459 74.952 290.171 74.4185C289.888 73.8807 289.746 73.2582 289.746 72.551C289.746 71.8015 289.886 71.1515 290.165 70.6011C290.449 70.0506 290.843 69.625 291.347 69.3244C291.85 69.0237 292.437 68.8734 293.106 68.8734C293.805 68.8734 294.4 69.0364 294.891 69.3625C295.382 69.6843 295.748 70.1437 295.99 70.7408C296.235 71.3379 296.333 72.0471 296.282 72.8686H294.954V72.3859C294.946 71.5898 294.793 71.0012 294.497 70.6201C294.205 70.239 293.758 70.0485 293.157 70.0485C292.492 70.0485 291.992 70.2581 291.658 70.6773C291.323 71.0965 291.156 71.702 291.156 72.4939C291.156 73.2476 291.323 73.832 291.658 74.247C291.992 74.6577 292.475 74.8631 293.106 74.8631C293.521 74.8631 293.879 74.7699 294.179 74.5836C294.484 74.3931 294.721 74.122 294.891 73.7706L296.193 74.1834C295.926 74.7975 295.522 75.2738 294.98 75.6126C294.438 75.9471 293.834 76.1144 293.169 76.1144ZM290.724 72.8686V71.8333H295.621V72.8686H290.724ZM297.707 75.9238V69.0639H298.888V70.7281L298.723 70.5121C298.808 70.2919 298.918 70.0908 299.054 69.9087C299.189 69.7224 299.346 69.57 299.524 69.4514C299.697 69.3244 299.89 69.227 300.102 69.1592C300.318 69.0872 300.538 69.0449 300.762 69.0322C300.987 69.0152 301.203 69.0258 301.41 69.0639V70.3089C301.186 70.2496 300.936 70.2327 300.66 70.2581C300.389 70.2835 300.14 70.3703 299.911 70.5185C299.695 70.6582 299.524 70.8276 299.396 71.0266C299.274 71.2256 299.185 71.448 299.13 71.6936C299.075 71.9349 299.047 72.1911 299.047 72.4621V75.9238H297.707Z" fill="#1C79AE"/>
<rect x="417.558" y="53.4612" width="34.9249" height="34.9249" rx="17.4625" fill="#186491"/>
<rect x="417.558" y="53.4612" width="34.9249" height="34.9249" rx="17.4625" stroke="#E8F2F7" stroke-width="1.29352"/>
<path d="M429.199 62.2272H440.841C441.902 62.2272 442.781 63.1064 442.781 64.1674V72.8987C442.781 73.9901 441.902 74.8389 440.841 74.8389H436.627L432.867 77.6584C432.716 77.7797 432.534 77.7797 432.352 77.719C432.2 77.6281 432.109 77.4765 432.109 77.2643V74.8389H429.199C428.108 74.8389 427.259 73.9901 427.259 72.8987V64.1674C427.259 63.1064 428.108 62.2272 429.199 62.2272Z" fill="#E8F2F7"/>
</g>
<defs>
<filter id="filter0_dd_22423_19369" x="0.415296" y="0.359632" width="505.169" height="141.128" filterUnits="userSpaceOnUse" color-interpolation-filters="sRGB">
<feFlood flood-opacity="0" result="BackgroundImageFix"/>
<feColorMatrix in="SourceAlpha" type="matrix" values="0 0 0 0 0 0 0 0 0 0 0 0 0 0 0 0 0 0 127 0" result="hardAlpha"/>
<feMorphology radius="2.58703" operator="erode" in="SourceAlpha" result="effect1_dropShadow_22423_19369"/>
<feOffset dy="5.17406"/>
<feGaussianBlur stdDeviation="3.88055"/>
<feColorMatrix type="matrix" values="0 0 0 0 0.278431 0 0 0 0 0.776471 0 0 0 0 1 0 0 0 0.06 0"/>
<feBlend mode="normal" in2="BackgroundImageFix" result="effect1_dropShadow_22423_19369"/>
<feColorMatrix in="SourceAlpha" type="matrix" values="0 0 0 0 0 0 0 0 0 0 0 0 0 0 0 0 0 0 127 0" result="hardAlpha"/>
<feMorphology radius="5.17406" operator="erode" in="SourceAlpha" result="effect2_dropShadow_22423_19369"/>
<feOffset/>
<feGaussianBlur stdDeviation="15.8794"/>
<feColorMatrix type="matrix" values="0 0 0 0 0.0941176 0 0 0 0 0.392157 0 0 0 0 0.568627 0 0 0 0.16 0"/>
<feBlend mode="normal" in2="effect1_dropShadow_22423_19369" result="effect2_dropShadow_22423_19369"/>
<feBlend mode="normal" in="SourceGraphic" in2="effect2_dropShadow_22423_19369" result="shape"/>
</filter>
</defs>
</svg>
