<svg width="507" height="142" viewBox="0 0 507 142" fill="none" xmlns="http://www.w3.org/2000/svg">
<g filter="url(#filter0_dd_22423_19367)">
<rect x="27" y="26.9443" width="453" height="87.959" rx="5.17406" fill="#FAFBFD"/>
<rect x="42.5225" y="42.4663" width="53.0341" height="56.9147" rx="5.17406" fill="#77AFCF"/>
<path d="M63.5284 77.6955C62.6048 77.6955 61.7899 77.4993 61.0837 77.1069C60.3774 76.7085 59.8251 76.1562 59.4267 75.4499C59.0343 74.7437 58.8381 73.9288 58.8381 73.0052V68.8038C58.8381 67.8803 59.0343 67.0654 59.4267 66.3591C59.8251 65.6528 60.3774 65.1035 61.0837 64.7112C61.7899 64.3128 62.6048 64.1136 63.5284 64.1136C64.452 64.1136 65.2639 64.3128 65.9641 64.7112C66.6704 65.1035 67.2227 65.6528 67.6211 66.3591C68.0195 67.0654 68.2187 67.8803 68.2187 68.8038V73.0052C68.2187 73.9288 68.0195 74.7437 67.6211 75.4499C67.2227 76.1562 66.6704 76.7085 65.9641 77.1069C65.2639 77.4993 64.452 77.6955 63.5284 77.6955ZM63.5284 75.622C63.9872 75.622 64.4037 75.5133 64.7779 75.296C65.1522 75.0726 65.448 74.7769 65.6653 74.4086C65.8826 74.0344 65.9913 73.6179 65.9913 73.1591V68.6409C65.9913 68.1761 65.8826 67.7595 65.6653 67.3913C65.448 67.0171 65.1522 66.7213 64.7779 66.504C64.4037 66.2806 63.9872 66.169 63.5284 66.169C63.0696 66.169 62.6531 66.2806 62.2789 66.504C61.9046 66.7213 61.6088 67.0171 61.3915 67.3913C61.1742 67.7595 61.0656 68.1761 61.0656 68.6409V73.1591C61.0656 73.6179 61.1742 74.0344 61.3915 74.4086C61.6088 74.7769 61.9046 75.0726 62.2789 75.296C62.6531 75.5133 63.0696 75.622 63.5284 75.622ZM76.1723 77.4238V75.2688H70.3955V73.2315L74.5697 64.3852H77.0597L72.8855 73.2315H76.1723V69.8361H78.3816V73.2315H79.604V75.2688H78.3816V77.4238H76.1723Z" fill="#186491"/>
<rect x="100.73" y="42.4663" width="363.747" height="56.9147" rx="5.17406" fill="#D2E4EF"/>
<path d="M116.144 76.1144C115.23 76.1144 114.45 75.9154 113.807 75.5173C113.163 75.115 112.67 74.5561 112.327 73.8405C111.988 73.1248 111.819 72.2949 111.819 71.3506C111.819 70.4063 111.988 69.5763 112.327 68.8607C112.67 68.145 113.163 67.5882 113.807 67.1902C114.45 66.7879 115.23 66.5868 116.144 66.5868C117.199 66.5868 118.071 66.8535 118.761 67.3871C119.456 67.9206 119.938 68.6384 120.209 69.5403L118.863 69.9024C118.685 69.263 118.367 68.7612 117.91 68.397C117.457 68.0328 116.868 67.8508 116.144 67.8508C115.496 67.8508 114.956 67.9968 114.525 68.289C114.093 68.5812 113.767 68.9898 113.546 69.5149C113.33 70.04 113.222 70.6519 113.222 71.3506C113.218 72.0493 113.324 72.6611 113.54 73.1862C113.76 73.7113 114.086 74.1199 114.518 74.4121C114.954 74.7043 115.496 74.8504 116.144 74.8504C116.868 74.8504 117.457 74.6683 117.91 74.3041C118.367 73.9357 118.685 73.4339 118.863 72.7988L120.209 73.1608C119.938 74.0628 119.456 74.7805 118.761 75.3141C118.071 75.8476 117.199 76.1144 116.144 76.1144ZM121.733 75.9238V66.5868H123.061V75.9238H121.733ZM125.095 67.9397V66.6503H126.423V67.9397H125.095ZM125.095 75.9238V69.0639H126.423V75.9238H125.095ZM133.145 75.9238V72.551C133.145 72.2843 133.122 72.0111 133.075 71.7317C133.033 71.448 132.948 71.1854 132.821 70.9441C132.698 70.7027 132.522 70.5079 132.294 70.3597C132.069 70.2115 131.775 70.1374 131.411 70.1374C131.174 70.1374 130.949 70.1776 130.738 70.2581C130.526 70.3343 130.34 70.4592 130.179 70.6328C130.022 70.8064 129.897 71.0351 129.804 71.3188C129.715 71.6025 129.67 71.9476 129.67 72.3541L128.845 72.0429C128.845 71.4204 128.961 70.8721 129.194 70.3978C129.427 69.9193 129.762 69.5467 130.198 69.2799C130.634 69.0131 131.161 68.8797 131.779 68.8797C132.254 68.8797 132.652 68.956 132.973 69.1084C133.295 69.2608 133.556 69.462 133.755 69.7118C133.958 69.9574 134.112 70.2263 134.218 70.5185C134.324 70.8107 134.396 71.0965 134.434 71.376C134.472 71.6555 134.491 71.9011 134.491 72.1128V75.9238H133.145ZM128.324 75.9238V69.0639H129.512V71.0457H129.67V75.9238H128.324ZM136.273 67.9397V66.6503H137.6V67.9397H136.273ZM136.273 75.9238V69.0639H137.6V75.9238H136.273ZM142.442 76.1144C141.739 76.1144 141.142 75.9577 140.651 75.6444C140.16 75.331 139.783 74.9012 139.521 74.3549C139.262 73.8087 139.131 73.1883 139.127 72.4939C139.131 71.7867 139.266 71.1621 139.533 70.6201C139.8 70.0739 140.181 69.6462 140.677 69.3371C141.172 69.0279 141.767 68.8734 142.461 68.8734C143.211 68.8734 143.85 69.0597 144.38 69.4323C144.913 69.805 145.265 70.3152 145.434 70.9631L144.113 71.3442C143.982 70.9589 143.766 70.6603 143.465 70.4486C143.169 70.2327 142.828 70.1247 142.442 70.1247C142.006 70.1247 141.648 70.2284 141.369 70.4359C141.089 70.6392 140.882 70.9186 140.746 71.2743C140.611 71.63 140.541 72.0366 140.537 72.4939C140.541 73.201 140.702 73.7727 141.02 74.2089C141.341 74.645 141.816 74.8631 142.442 74.8631C142.87 74.8631 143.215 74.7657 143.478 74.5709C143.744 74.3719 143.948 74.0882 144.087 73.7198L145.434 74.0374C145.21 74.7064 144.839 75.2209 144.322 75.5808C143.806 75.9365 143.179 76.1144 142.442 76.1144ZM148.578 76.1144C148.07 76.1144 147.645 76.0212 147.302 75.8349C146.959 75.6444 146.698 75.3945 146.52 75.0854C146.347 74.772 146.26 74.429 146.26 74.0564C146.26 73.7092 146.321 73.4043 146.444 73.1418C146.567 72.8792 146.749 72.6569 146.991 72.4748C147.232 72.2885 147.528 72.1382 147.88 72.0239C148.185 71.9349 148.53 71.8566 148.915 71.7888C149.3 71.7211 149.705 71.6576 150.128 71.5983C150.556 71.539 150.979 71.4797 151.399 71.4204L150.916 71.6872C150.924 71.1494 150.81 70.7514 150.573 70.4931C150.34 70.2305 149.938 70.0993 149.366 70.0993C149.006 70.0993 148.676 70.184 148.375 70.3533C148.075 70.5185 147.865 70.7937 147.746 71.1791L146.508 70.798C146.677 70.2094 146.999 69.7415 147.473 69.3942C147.952 69.047 148.587 68.8734 149.379 68.8734C149.993 68.8734 150.526 68.9792 150.979 69.191C151.437 69.3985 151.771 69.7288 151.983 70.1818C152.093 70.4063 152.161 70.6434 152.186 70.8932C152.212 71.1431 152.224 71.412 152.224 71.6999V75.9238H151.049V74.3549L151.278 74.5582C150.994 75.0833 150.632 75.475 150.192 75.7333C149.756 75.9873 149.218 76.1144 148.578 76.1144ZM148.813 75.0282C149.19 75.0282 149.514 74.9626 149.785 74.8313C150.056 74.6958 150.274 74.5243 150.44 74.3168C150.605 74.1093 150.713 73.8934 150.763 73.669C150.835 73.4657 150.876 73.237 150.884 72.983C150.897 72.7289 150.903 72.5256 150.903 72.3732L151.335 72.532C150.916 72.5955 150.535 72.6527 150.192 72.7035C149.849 72.7543 149.538 72.8051 149.258 72.8559C148.983 72.9025 148.737 72.9597 148.521 73.0274C148.339 73.0909 148.176 73.1672 148.032 73.2561C147.892 73.345 147.78 73.453 147.696 73.58C147.615 73.7071 147.575 73.8616 147.575 74.0437C147.575 74.2216 147.619 74.3867 147.708 74.5391C147.797 74.6874 147.933 74.8059 148.115 74.8948C148.297 74.9838 148.53 75.0282 148.813 75.0282ZM154.001 75.9238V66.5868H155.328V75.9238H154.001ZM159.779 75.9238V66.7773H165.622V68.0286H161.106V70.5947H164.86V71.846H161.106V74.6725H165.622V75.9238H159.779ZM166.386 75.9238L168.952 72.4558L166.443 69.0639H168.018L169.727 71.4204L171.416 69.0639H172.992L170.483 72.4558L173.055 75.9238H171.473L169.727 73.4911L167.967 75.9238H166.386ZM177.291 76.1144C176.634 76.1144 176.084 75.9556 175.639 75.638C175.195 75.3162 174.858 74.8821 174.629 74.3359C174.401 73.7896 174.286 73.1735 174.286 72.4875C174.286 71.8015 174.399 71.1854 174.623 70.6392C174.852 70.0929 175.186 69.6631 175.627 69.3498C176.071 69.0322 176.617 68.8734 177.265 68.8734C177.909 68.8734 178.464 69.0322 178.929 69.3498C179.399 69.6631 179.762 70.0929 180.016 70.6392C180.27 71.1812 180.397 71.7973 180.397 72.4875C180.397 73.1735 180.27 73.7918 180.016 74.3422C179.766 74.8885 179.408 75.3204 178.942 75.638C178.481 75.9556 177.93 76.1144 177.291 76.1144ZM174.064 78.9727V69.0639H175.245V73.9992H175.398V78.9727H174.064ZM177.106 74.9139C177.53 74.9139 177.879 74.8059 178.155 74.59C178.434 74.374 178.641 74.0839 178.777 73.7198C178.917 73.3514 178.987 72.9406 178.987 72.4875C178.987 72.0387 178.917 71.6322 178.777 71.268C178.641 70.9038 178.432 70.6138 178.148 70.3978C177.864 70.1818 177.502 70.0739 177.062 70.0739C176.647 70.0739 176.304 70.1755 176.033 70.3787C175.766 70.582 175.567 70.8657 175.436 71.2299C175.309 71.594 175.245 72.0133 175.245 72.4875C175.245 72.9618 175.309 73.381 175.436 73.7452C175.563 74.1093 175.764 74.3952 176.039 74.6027C176.315 74.8102 176.67 74.9139 177.106 74.9139ZM184.842 76.1144C184.16 76.1144 183.561 75.9662 183.044 75.6698C182.532 75.3691 182.132 74.952 181.844 74.4185C181.56 73.8807 181.418 73.2582 181.418 72.551C181.418 71.8015 181.558 71.1515 181.837 70.6011C182.121 70.0506 182.515 69.625 183.019 69.3244C183.523 69.0237 184.109 68.8734 184.778 68.8734C185.477 68.8734 186.072 69.0364 186.563 69.3625C187.054 69.6843 187.42 70.1437 187.662 70.7408C187.907 71.3379 188.005 72.0471 187.954 72.8686H186.626V72.3859C186.618 71.5898 186.466 71.0012 186.169 70.6201C185.877 70.239 185.43 70.0485 184.829 70.0485C184.164 70.0485 183.664 70.2581 183.33 70.6773C182.995 71.0965 182.828 71.702 182.828 72.4939C182.828 73.2476 182.995 73.832 183.33 74.247C183.664 74.6577 184.147 74.8631 184.778 74.8631C185.193 74.8631 185.551 74.7699 185.852 74.5836C186.156 74.3931 186.394 74.122 186.563 73.7706L187.865 74.1834C187.598 74.7975 187.194 75.2738 186.652 75.6126C186.11 75.9471 185.506 76.1144 184.842 76.1144ZM182.396 72.8686V71.8333H187.293V72.8686H182.396ZM189.379 75.9238V69.0639H190.56V70.7281L190.395 70.5121C190.48 70.2919 190.59 70.0908 190.726 69.9087C190.861 69.7224 191.018 69.57 191.196 69.4514C191.369 69.3244 191.562 69.227 191.774 69.1592C191.99 69.0872 192.21 69.0449 192.434 69.0322C192.659 69.0152 192.875 69.0258 193.082 69.0639V70.3089C192.858 70.2496 192.608 70.2327 192.333 70.2581C192.062 70.2835 191.812 70.3703 191.583 70.5185C191.367 70.6582 191.196 70.8276 191.069 71.0266C190.946 71.2256 190.857 71.448 190.802 71.6936C190.747 71.9349 190.719 72.1911 190.719 72.4621V75.9238H189.379ZM198.217 75.9238C197.785 76.0085 197.362 76.0445 196.947 76.0318C196.532 76.0191 196.161 75.9386 195.835 75.7904C195.509 75.6422 195.264 75.4093 195.098 75.0917C194.95 74.808 194.87 74.5201 194.857 74.2279C194.849 73.9315 194.844 73.597 194.844 73.2243V67.1584H196.178V73.1608C196.178 73.4361 196.18 73.6753 196.185 73.8786C196.193 74.0818 196.237 74.2533 196.318 74.3931C196.47 74.6556 196.712 74.8059 197.042 74.844C197.377 74.8779 197.768 74.8631 198.217 74.7996V75.9238ZM193.53 70.131V69.0639H198.217V70.131H193.53ZM206.024 76.1144C205.109 76.1144 204.33 75.9154 203.687 75.5173C203.043 75.115 202.55 74.5561 202.207 73.8405C201.868 73.1248 201.698 72.2949 201.698 71.3506C201.698 70.4063 201.868 69.5763 202.207 68.8607C202.55 68.145 203.043 67.5882 203.687 67.1902C204.33 66.7879 205.109 66.5868 206.024 66.5868C207.078 66.5868 207.951 66.8535 208.641 67.3871C209.335 67.9206 209.818 68.6384 210.089 69.5403L208.743 69.9024C208.565 69.263 208.247 68.7612 207.79 68.397C207.337 68.0328 206.748 67.8508 206.024 67.8508C205.376 67.8508 204.836 67.9968 204.404 68.289C203.972 68.5812 203.646 68.9898 203.426 69.5149C203.21 70.04 203.102 70.6519 203.102 71.3506C203.098 72.0493 203.204 72.6611 203.42 73.1862C203.64 73.7113 203.966 74.1199 204.398 74.4121C204.834 74.7043 205.376 74.8504 206.024 74.8504C206.748 74.8504 207.337 74.6683 207.79 74.3041C208.247 73.9357 208.565 73.4339 208.743 72.7988L210.089 73.1608C209.818 74.0628 209.335 74.7805 208.641 75.3141C207.951 75.8476 207.078 76.1144 206.024 76.1144ZM213.423 76.1144C212.915 76.1144 212.49 76.0212 212.147 75.8349C211.804 75.6444 211.543 75.3945 211.365 75.0854C211.192 74.772 211.105 74.429 211.105 74.0564C211.105 73.7092 211.166 73.4043 211.289 73.1418C211.412 72.8792 211.594 72.6569 211.835 72.4748C212.077 72.2885 212.373 72.1382 212.725 72.0239C213.03 71.9349 213.375 71.8566 213.76 71.7888C214.145 71.7211 214.55 71.6576 214.973 71.5983C215.401 71.539 215.824 71.4797 216.244 71.4204L215.761 71.6872C215.769 71.1494 215.655 70.7514 215.418 70.4931C215.185 70.2305 214.783 70.0993 214.211 70.0993C213.851 70.0993 213.521 70.184 213.22 70.3533C212.92 70.5185 212.71 70.7937 212.591 71.1791L211.353 70.798C211.522 70.2094 211.844 69.7415 212.318 69.3942C212.797 69.047 213.432 68.8734 214.224 68.8734C214.838 68.8734 215.371 68.9792 215.824 69.191C216.282 69.3985 216.616 69.7288 216.828 70.1818C216.938 70.4063 217.006 70.6434 217.031 70.8932C217.057 71.1431 217.069 71.412 217.069 71.6999V75.9238H215.894V74.3549L216.123 74.5582C215.839 75.0833 215.477 75.475 215.037 75.7333C214.601 75.9873 214.063 76.1144 213.423 76.1144ZM213.658 75.0282C214.035 75.0282 214.359 74.9626 214.63 74.8313C214.901 74.6958 215.119 74.5243 215.284 74.3168C215.45 74.1093 215.558 73.8934 215.608 73.669C215.68 73.4657 215.721 73.237 215.729 72.983C215.742 72.7289 215.748 72.5256 215.748 72.3732L216.18 72.532C215.761 72.5955 215.38 72.6527 215.037 72.7035C214.694 72.7543 214.383 72.8051 214.103 72.8559C213.828 72.9025 213.582 72.9597 213.366 73.0274C213.184 73.0909 213.021 73.1672 212.877 73.2561C212.737 73.345 212.625 73.453 212.541 73.58C212.46 73.7071 212.42 73.8616 212.42 74.0437C212.42 74.2216 212.464 74.3867 212.553 74.5391C212.642 74.6874 212.778 74.8059 212.96 74.8948C213.142 74.9838 213.375 75.0282 213.658 75.0282ZM218.846 75.9238V66.5868H220.173V75.9238H218.846ZM222.208 75.9238V66.5868H223.535V75.9238H222.208ZM231.911 75.9238C231.479 76.0085 231.056 76.0445 230.641 76.0318C230.226 76.0191 229.855 75.9386 229.529 75.7904C229.203 75.6422 228.958 75.4093 228.792 75.0917C228.644 74.808 228.564 74.5201 228.551 74.2279C228.543 73.9315 228.538 73.597 228.538 73.2243V67.1584H229.872V73.1608C229.872 73.4361 229.874 73.6753 229.879 73.8786C229.887 74.0818 229.932 74.2533 230.012 74.3931C230.164 74.6556 230.406 74.8059 230.736 74.844C231.071 74.8779 231.462 74.8631 231.911 74.7996V75.9238ZM227.224 70.131V69.0639H231.911V70.131H227.224ZM236.026 76.1144C235.34 76.1144 234.745 75.9598 234.241 75.6507C233.738 75.3416 233.348 74.916 233.073 74.374C232.802 73.8277 232.666 73.1989 232.666 72.4875C232.666 71.7719 232.806 71.1431 233.085 70.6011C233.365 70.0548 233.757 69.6314 234.261 69.3307C234.764 69.0258 235.353 68.8734 236.026 68.8734C236.712 68.8734 237.307 69.0279 237.811 69.3371C238.315 69.6462 238.705 70.0717 238.98 70.6138C239.255 71.1558 239.393 71.7804 239.393 72.4875C239.393 73.2032 239.253 73.8341 238.974 74.3804C238.698 74.9224 238.309 75.3479 237.805 75.6571C237.301 75.9619 236.708 76.1144 236.026 76.1144ZM236.026 74.8631C236.683 74.8631 237.172 74.6429 237.494 74.2025C237.82 73.7579 237.983 73.1862 237.983 72.4875C237.983 71.7719 237.818 71.2002 237.487 70.7726C237.161 70.3406 236.674 70.1247 236.026 70.1247C235.582 70.1247 235.215 70.2263 234.927 70.4296C234.64 70.6286 234.426 70.9059 234.286 71.2616C234.146 71.6131 234.076 72.0217 234.076 72.4875C234.076 73.2074 234.241 73.7833 234.572 74.2152C234.902 74.6471 235.387 74.8631 236.026 74.8631ZM246.552 76.1144C245.896 76.1144 245.345 75.9556 244.901 75.638C244.456 75.3162 244.119 74.8821 243.891 74.3359C243.662 73.7896 243.548 73.1735 243.548 72.4875C243.548 71.8015 243.66 71.1854 243.884 70.6392C244.113 70.0929 244.448 69.6631 244.888 69.3498C245.333 69.0322 245.879 68.8734 246.527 68.8734C247.17 68.8734 247.725 69.0322 248.191 69.3498C248.661 69.6631 249.023 70.0929 249.277 70.6392C249.531 71.1812 249.658 71.7973 249.658 72.4875C249.658 73.1735 249.531 73.7918 249.277 74.3422C249.027 74.8885 248.669 75.3204 248.204 75.638C247.742 75.9556 247.191 76.1144 246.552 76.1144ZM243.325 78.9727V69.0639H244.507V73.9992H244.659V78.9727H243.325ZM246.368 74.9139C246.791 74.9139 247.141 74.8059 247.416 74.59C247.695 74.374 247.903 74.0839 248.038 73.7198C248.178 73.3514 248.248 72.9406 248.248 72.4875C248.248 72.0387 248.178 71.6322 248.038 71.268C247.903 70.9038 247.693 70.6138 247.41 70.3978C247.126 70.1818 246.764 70.0739 246.323 70.0739C245.908 70.0739 245.565 70.1755 245.294 70.3787C245.028 70.582 244.829 70.8657 244.697 71.2299C244.57 71.594 244.507 72.0133 244.507 72.4875C244.507 72.9618 244.57 73.381 244.697 73.7452C244.824 74.1093 245.026 74.3952 245.301 74.6027C245.576 74.8102 245.932 74.9139 246.368 74.9139ZM252.998 76.1144C252.49 76.1144 252.064 76.0212 251.721 75.8349C251.378 75.6444 251.118 75.3945 250.94 75.0854C250.766 74.772 250.679 74.429 250.679 74.0564C250.679 73.7092 250.741 73.4043 250.864 73.1418C250.986 72.8792 251.168 72.6569 251.41 72.4748C251.651 72.2885 251.948 72.1382 252.299 72.0239C252.604 71.9349 252.949 71.8566 253.334 71.7888C253.72 71.7211 254.124 71.6576 254.548 71.5983C254.975 71.539 255.399 71.4797 255.818 71.4204L255.335 71.6872C255.344 71.1494 255.229 70.7514 254.992 70.4931C254.759 70.2305 254.357 70.0993 253.785 70.0993C253.425 70.0993 253.095 70.184 252.795 70.3533C252.494 70.5185 252.284 70.7937 252.166 71.1791L250.927 70.798C251.097 70.2094 251.418 69.7415 251.893 69.3942C252.371 69.047 253.006 68.8734 253.798 68.8734C254.412 68.8734 254.946 68.9792 255.399 69.191C255.856 69.3985 256.191 69.7288 256.402 70.1818C256.512 70.4063 256.58 70.6434 256.606 70.8932C256.631 71.1431 256.644 71.412 256.644 71.6999V75.9238H255.469V74.3549L255.697 74.5582C255.414 75.0833 255.052 75.475 254.611 75.7333C254.175 75.9873 253.637 76.1144 252.998 76.1144ZM253.233 75.0282C253.61 75.0282 253.934 74.9626 254.205 74.8313C254.476 74.6958 254.694 74.5243 254.859 74.3168C255.024 74.1093 255.132 73.8934 255.183 73.669C255.255 73.4657 255.295 73.237 255.303 72.983C255.316 72.7289 255.323 72.5256 255.323 72.3732L255.754 72.532C255.335 72.5955 254.954 72.6527 254.611 72.7035C254.268 72.7543 253.957 72.8051 253.677 72.8559C253.402 72.9025 253.157 72.9597 252.941 73.0274C252.759 73.0909 252.596 73.1672 252.452 73.2561C252.312 73.345 252.2 73.453 252.115 73.58C252.034 73.7071 251.994 73.8616 251.994 74.0437C251.994 74.2216 252.039 74.3867 252.128 74.5391C252.217 74.6874 252.352 74.8059 252.534 74.8948C252.716 74.9838 252.949 75.0282 253.233 75.0282ZM262.218 75.9238C261.787 76.0085 261.363 76.0445 260.948 76.0318C260.533 76.0191 260.163 75.9386 259.837 75.7904C259.511 75.6422 259.265 75.4093 259.1 75.0917C258.952 74.808 258.871 74.5201 258.858 74.2279C258.85 73.9315 258.846 73.597 258.846 73.2243V67.1584H260.18V73.1608C260.18 73.4361 260.182 73.6753 260.186 73.8786C260.194 74.0818 260.239 74.2533 260.319 74.3931C260.472 74.6556 260.713 74.8059 261.043 74.844C261.378 74.8779 261.77 74.8631 262.218 74.7996V75.9238ZM257.531 70.131V69.0639H262.218V70.131H257.531ZM263.792 67.9397V66.6503H265.119V67.9397H263.792ZM263.792 75.9238V69.0639H265.119V75.9238H263.792ZM270.069 76.1144C269.387 76.1144 268.788 75.9662 268.272 75.6698C267.759 75.3691 267.359 74.952 267.071 74.4185C266.788 73.8807 266.646 73.2582 266.646 72.551C266.646 71.8015 266.785 71.1515 267.065 70.6011C267.349 70.0506 267.742 69.625 268.246 69.3244C268.75 69.0237 269.337 68.8734 270.006 68.8734C270.704 68.8734 271.299 69.0364 271.791 69.3625C272.282 69.6843 272.648 70.1437 272.889 70.7408C273.135 71.3379 273.232 72.0471 273.182 72.8686H271.854V72.3859C271.846 71.5898 271.693 71.0012 271.397 70.6201C271.105 70.239 270.658 70.0485 270.057 70.0485C269.392 70.0485 268.892 70.2581 268.558 70.6773C268.223 71.0965 268.056 71.702 268.056 72.4939C268.056 73.2476 268.223 73.832 268.558 74.247C268.892 74.6577 269.375 74.8631 270.006 74.8631C270.421 74.8631 270.779 74.7699 271.079 74.5836C271.384 74.3931 271.621 74.122 271.791 73.7706L273.093 74.1834C272.826 74.7975 272.422 75.2738 271.879 75.6126C271.337 75.9471 270.734 76.1144 270.069 76.1144ZM267.624 72.8686V71.8333H272.521V72.8686H267.624ZM279.235 75.9238V72.551C279.235 72.2843 279.212 72.0111 279.165 71.7317C279.123 71.448 279.038 71.1854 278.911 70.9441C278.788 70.7027 278.613 70.5079 278.384 70.3597C278.16 70.2115 277.865 70.1374 277.501 70.1374C277.264 70.1374 277.04 70.1776 276.828 70.2581C276.616 70.3343 276.43 70.4592 276.269 70.6328C276.112 70.8064 275.987 71.0351 275.894 71.3188C275.805 71.6025 275.761 71.9476 275.761 72.3541L274.935 72.0429C274.935 71.4204 275.052 70.8721 275.284 70.3978C275.517 69.9193 275.852 69.5467 276.288 69.2799C276.724 69.0131 277.251 68.8797 277.87 68.8797C278.344 68.8797 278.742 68.956 279.064 69.1084C279.386 69.2608 279.646 69.462 279.845 69.7118C280.048 69.9574 280.203 70.2263 280.309 70.5185C280.415 70.8107 280.487 71.0965 280.525 71.376C280.563 71.6555 280.582 71.9011 280.582 72.1128V75.9238H279.235ZM274.414 75.9238V69.0639H275.602V71.0457H275.761V75.9238H274.414ZM286.162 75.9238C285.73 76.0085 285.306 76.0445 284.891 76.0318C284.476 76.0191 284.106 75.9386 283.78 75.7904C283.454 75.6422 283.208 75.4093 283.043 75.0917C282.895 74.808 282.814 74.5201 282.802 74.2279C282.793 73.9315 282.789 73.597 282.789 73.2243V67.1584H284.123V73.1608C284.123 73.4361 284.125 73.6753 284.129 73.8786C284.137 74.0818 284.182 74.2533 284.262 74.3931C284.415 74.6556 284.656 74.8059 284.987 74.844C285.321 74.8779 285.713 74.8631 286.162 74.7996V75.9238ZM281.474 70.131V69.0639H286.162V70.131H281.474Z" fill="#1C79AE"/>
<rect x="418.558" y="53.4612" width="34.9249" height="34.9249" rx="17.4625" fill="#186491"/>
<rect x="418.558" y="53.4612" width="34.9249" height="34.9249" rx="17.4625" stroke="#E8F2F7" stroke-width="1.29352"/>
<path d="M436.02 63.6824C432.533 63.6824 429.714 66.5322 429.714 69.9883V71.2009C429.714 71.6254 429.381 71.9285 428.986 71.9285C428.562 71.9285 428.259 71.6254 428.259 71.2009V69.9883C428.259 65.7136 431.715 62.2272 436.02 62.2272C440.295 62.2272 443.781 65.7136 443.781 69.9883V74.3842C443.781 75.8394 442.568 77.0521 441.083 77.0521L437.748 77.0218C437.505 77.4765 437.02 77.7494 436.505 77.7494H435.535C434.716 77.7494 434.08 77.1127 434.08 76.2942C434.08 75.5059 434.716 74.8389 435.535 74.8389H436.505C437.02 74.8389 437.505 75.1421 437.748 75.5665L441.113 75.5969C441.78 75.5969 442.326 75.0512 442.326 74.3842V69.9883C442.326 66.5322 439.476 63.6824 436.02 63.6824ZM432.624 68.5331H433.109C433.625 68.5331 434.08 68.9878 434.08 69.5032V72.8987C434.08 73.4444 433.625 73.8688 433.109 73.8688H432.624C431.533 73.8688 430.684 73.0199 430.684 71.9285V70.4733C430.684 69.4122 431.533 68.5331 432.624 68.5331ZM439.415 68.5331C440.476 68.5331 441.356 69.4122 441.356 70.4733V71.9285C441.356 73.0199 440.476 73.8688 439.415 73.8688H438.93C438.385 73.8688 437.96 73.4444 437.96 72.8987V69.5032C437.96 68.9878 438.385 68.5331 438.93 68.5331H439.415Z" fill="#E8F2F7"/>
</g>
<defs>
<filter id="filter0_dd_22423_19367" x="0.415296" y="0.359632" width="506.169" height="141.128" filterUnits="userSpaceOnUse" color-interpolation-filters="sRGB">
<feFlood flood-opacity="0" result="BackgroundImageFix"/>
<feColorMatrix in="SourceAlpha" type="matrix" values="0 0 0 0 0 0 0 0 0 0 0 0 0 0 0 0 0 0 127 0" result="hardAlpha"/>
<feMorphology radius="2.58703" operator="erode" in="SourceAlpha" result="effect1_dropShadow_22423_19367"/>
<feOffset dy="5.17406"/>
<feGaussianBlur stdDeviation="3.88055"/>
<feColorMatrix type="matrix" values="0 0 0 0 0.278431 0 0 0 0 0.776471 0 0 0 0 1 0 0 0 0.06 0"/>
<feBlend mode="normal" in2="BackgroundImageFix" result="effect1_dropShadow_22423_19367"/>
<feColorMatrix in="SourceAlpha" type="matrix" values="0 0 0 0 0 0 0 0 0 0 0 0 0 0 0 0 0 0 127 0" result="hardAlpha"/>
<feMorphology radius="5.17406" operator="erode" in="SourceAlpha" result="effect2_dropShadow_22423_19367"/>
<feOffset/>
<feGaussianBlur stdDeviation="15.8794"/>
<feColorMatrix type="matrix" values="0 0 0 0 0.0941176 0 0 0 0 0.392157 0 0 0 0 0.568627 0 0 0 0.16 0"/>
<feBlend mode="normal" in2="effect1_dropShadow_22423_19367" result="effect2_dropShadow_22423_19367"/>
<feBlend mode="normal" in="SourceGraphic" in2="effect2_dropShadow_22423_19367" result="shape"/>
</filter>
</defs>
</svg>
