<svg width="518" height="224" viewBox="0 0 518 224" fill="none" xmlns="http://www.w3.org/2000/svg">
<g filter="url(#filter0_d_22341_37223)">
<rect x="52.3779" y="151.437" width="414.243" height="59.8184" rx="29.9092" fill="#BBD7E7"/>
</g>
<path d="M109.415 188.156C108.547 188.156 107.749 188.006 107.019 187.707C106.289 187.402 105.655 186.96 105.117 186.379C104.578 185.799 104.16 185.093 103.861 184.262C103.561 183.43 103.412 182.485 103.412 181.426C103.412 180.033 103.666 178.836 104.175 177.837C104.683 176.832 105.389 176.061 106.292 175.522C107.195 174.978 108.236 174.706 109.415 174.706C110.934 174.706 112.145 175.059 113.049 175.765C113.958 176.47 114.577 177.445 114.906 178.69L113.004 179.031C112.741 178.259 112.316 177.643 111.73 177.182C111.143 176.722 110.408 176.488 109.522 176.482C108.607 176.476 107.844 176.68 107.234 177.092C106.63 177.505 106.176 178.085 105.87 178.833C105.565 179.575 105.41 180.439 105.404 181.426C105.398 182.413 105.547 183.278 105.853 184.019C106.158 184.755 106.615 185.329 107.225 185.742C107.841 186.155 108.607 186.364 109.522 186.37C110.258 186.382 110.889 186.248 111.416 185.967C111.948 185.679 112.37 185.261 112.681 184.71C112.992 184.16 113.192 183.484 113.282 182.683H110.77V181.175H115.274C115.286 181.283 115.295 181.426 115.301 181.606C115.307 181.779 115.31 181.89 115.31 181.938C115.31 183.134 115.079 184.202 114.619 185.141C114.158 186.08 113.488 186.819 112.609 187.357C111.73 187.89 110.665 188.156 109.415 188.156ZM117.278 187.887V178.196H118.947V180.547L118.713 180.242C118.833 179.931 118.988 179.647 119.18 179.39C119.371 179.126 119.593 178.911 119.844 178.743C120.089 178.564 120.361 178.426 120.66 178.331C120.965 178.229 121.277 178.169 121.594 178.151C121.911 178.127 122.216 178.142 122.509 178.196V179.955C122.192 179.871 121.839 179.847 121.45 179.883C121.067 179.919 120.714 180.042 120.391 180.251C120.086 180.448 119.844 180.688 119.664 180.969C119.491 181.25 119.365 181.564 119.288 181.911C119.21 182.252 119.171 182.614 119.171 182.997V187.887H117.278ZM128.52 188.156C127.557 188.156 126.71 187.947 125.98 187.528C125.257 187.103 124.691 186.514 124.285 185.76C123.884 185 123.683 184.121 123.683 183.122C123.683 182.063 123.881 181.145 124.276 180.368C124.676 179.59 125.233 178.989 125.944 178.564C126.656 178.139 127.485 177.927 128.43 177.927C129.417 177.927 130.257 178.157 130.951 178.618C131.645 179.072 132.163 179.722 132.504 180.565C132.851 181.408 132.988 182.41 132.916 183.571H131.041V182.889C131.029 181.764 130.814 180.933 130.395 180.394C129.982 179.856 129.351 179.587 128.502 179.587C127.563 179.587 126.857 179.883 126.384 180.475C125.912 181.067 125.675 181.923 125.675 183.041C125.675 184.106 125.912 184.932 126.384 185.518C126.857 186.098 127.539 186.388 128.43 186.388C129.016 186.388 129.522 186.257 129.946 185.993C130.377 185.724 130.712 185.341 130.951 184.845L132.791 185.428C132.414 186.296 131.843 186.969 131.077 187.447C130.311 187.92 129.459 188.156 128.52 188.156ZM125.065 183.571V182.108H131.983V183.571H125.065ZM137.67 188.156C136.953 188.156 136.351 188.024 135.867 187.761C135.382 187.492 135.014 187.139 134.763 186.702C134.518 186.26 134.395 185.775 134.395 185.249C134.395 184.758 134.482 184.328 134.655 183.957C134.829 183.586 135.086 183.272 135.427 183.015C135.768 182.751 136.187 182.539 136.683 182.377C137.114 182.252 137.602 182.141 138.146 182.045C138.69 181.95 139.262 181.86 139.86 181.776C140.464 181.693 141.062 181.609 141.654 181.525L140.972 181.902C140.984 181.142 140.823 180.58 140.488 180.215C140.159 179.844 139.591 179.659 138.783 179.659C138.275 179.659 137.808 179.778 137.383 180.018C136.959 180.251 136.662 180.64 136.495 181.184L134.745 180.646C134.984 179.814 135.439 179.153 136.109 178.663C136.785 178.172 137.682 177.927 138.801 177.927C139.668 177.927 140.422 178.076 141.062 178.376C141.708 178.669 142.181 179.135 142.48 179.775C142.635 180.092 142.731 180.427 142.767 180.78C142.803 181.133 142.821 181.513 142.821 181.92V187.887H141.161V185.67L141.484 185.958C141.083 186.699 140.572 187.253 139.949 187.618C139.333 187.976 138.574 188.156 137.67 188.156ZM138.002 186.622C138.535 186.622 138.992 186.529 139.375 186.343C139.758 186.152 140.066 185.91 140.299 185.617C140.533 185.323 140.685 185.018 140.757 184.701C140.859 184.414 140.915 184.091 140.927 183.732C140.945 183.373 140.954 183.086 140.954 182.871L141.565 183.095C140.972 183.185 140.434 183.266 139.949 183.338C139.465 183.409 139.025 183.481 138.63 183.553C138.242 183.619 137.895 183.699 137.59 183.795C137.332 183.885 137.102 183.993 136.899 184.118C136.701 184.244 136.543 184.396 136.423 184.576C136.309 184.755 136.253 184.974 136.253 185.231C136.253 185.482 136.315 185.715 136.441 185.931C136.567 186.14 136.758 186.308 137.015 186.433C137.273 186.559 137.602 186.622 138.002 186.622ZM150.875 187.887C150.265 188.006 149.667 188.057 149.081 188.039C148.495 188.021 147.971 187.908 147.511 187.698C147.05 187.489 146.703 187.16 146.47 186.711C146.26 186.311 146.147 185.904 146.129 185.491C146.117 185.072 146.111 184.6 146.111 184.073V175.504H147.995V183.984C147.995 184.372 147.998 184.71 148.004 184.997C148.016 185.285 148.079 185.527 148.192 185.724C148.408 186.095 148.749 186.308 149.215 186.361C149.688 186.409 150.241 186.388 150.875 186.299V187.887ZM144.253 179.704V178.196H150.875V179.704H144.253ZM156.958 188.156C155.995 188.156 155.148 187.947 154.418 187.528C153.695 187.103 153.129 186.514 152.723 185.76C152.322 185 152.121 184.121 152.121 183.122C152.121 182.063 152.319 181.145 152.714 180.368C153.114 179.59 153.671 178.989 154.383 178.564C155.094 178.139 155.923 177.927 156.868 177.927C157.855 177.927 158.695 178.157 159.389 178.618C160.083 179.072 160.601 179.722 160.942 180.565C161.289 181.408 161.426 182.41 161.354 183.571H159.479V182.889C159.467 181.764 159.252 180.933 158.833 180.394C158.42 179.856 157.789 179.587 156.94 179.587C156.001 179.587 155.295 179.883 154.822 180.475C154.35 181.067 154.113 181.923 154.113 183.041C154.113 184.106 154.35 184.932 154.822 185.518C155.295 186.098 155.977 186.388 156.868 186.388C157.454 186.388 157.96 186.257 158.384 185.993C158.815 185.724 159.15 185.341 159.389 184.845L161.229 185.428C160.852 186.296 160.281 186.969 159.515 187.447C158.749 187.92 157.897 188.156 156.958 188.156ZM153.503 183.571V182.108H160.421V183.571H153.503ZM163.547 187.887V178.196H165.216V180.547L164.983 180.242C165.102 179.931 165.258 179.647 165.449 179.39C165.641 179.126 165.862 178.911 166.113 178.743C166.358 178.564 166.631 178.426 166.93 178.331C167.235 178.229 167.546 178.169 167.863 178.151C168.18 178.127 168.485 178.142 168.778 178.196V179.955C168.461 179.871 168.108 179.847 167.719 179.883C167.336 179.919 166.984 180.042 166.661 180.251C166.355 180.448 166.113 180.688 165.934 180.969C165.76 181.25 165.635 181.564 165.557 181.911C165.479 182.252 165.44 182.614 165.44 182.997V187.887H163.547ZM178.736 188.156C177.773 188.156 176.927 187.947 176.197 187.528C175.473 187.103 174.908 186.514 174.501 185.76C174.1 185 173.9 184.121 173.9 183.122C173.9 182.063 174.097 181.145 174.492 180.368C174.893 179.59 175.449 178.989 176.161 178.564C176.873 178.139 177.701 177.927 178.647 177.927C179.634 177.927 180.474 178.157 181.168 178.618C181.862 179.072 182.379 179.722 182.72 180.565C183.067 181.408 183.205 182.41 183.133 183.571H181.258V182.889C181.246 181.764 181.03 180.933 180.612 180.394C180.199 179.856 179.568 179.587 178.718 179.587C177.779 179.587 177.073 179.883 176.601 180.475C176.128 181.067 175.892 181.923 175.892 183.041C175.892 184.106 176.128 184.932 176.601 185.518C177.073 186.098 177.755 186.388 178.647 186.388C179.233 186.388 179.738 186.257 180.163 185.993C180.594 185.724 180.929 185.341 181.168 184.845L183.007 185.428C182.63 186.296 182.059 186.969 181.294 187.447C180.528 187.92 179.675 188.156 178.736 188.156ZM175.282 183.571V182.108H182.2V183.571H175.282ZM186.214 187.887V177.855C186.214 177.61 186.223 177.35 186.241 177.075C186.259 176.793 186.31 176.518 186.393 176.249C186.483 175.974 186.63 175.723 186.833 175.495C187.078 175.226 187.347 175.035 187.641 174.921C187.934 174.807 188.224 174.742 188.511 174.724C188.804 174.706 189.073 174.697 189.318 174.697H190.539V176.24H189.408C188.965 176.24 188.633 176.351 188.412 176.572C188.197 176.787 188.089 177.095 188.089 177.496V187.887H186.214ZM184.608 179.704V178.196H190.539V179.704H184.608ZM192.082 187.887V177.855C192.082 177.61 192.091 177.35 192.109 177.075C192.127 176.793 192.178 176.518 192.261 176.249C192.351 175.974 192.498 175.723 192.701 175.495C192.946 175.226 193.216 175.035 193.509 174.921C193.802 174.807 194.092 174.742 194.379 174.724C194.672 174.706 194.941 174.697 195.187 174.697H196.407V176.24H195.276C194.834 176.24 194.502 176.351 194.28 176.572C194.065 176.787 193.957 177.095 193.957 177.496V187.887H192.082ZM190.476 179.704V178.196H196.407V179.704H190.476ZM198.46 176.608V174.786H200.335V176.608H198.46ZM198.46 187.887V178.196H200.335V187.887H198.46ZM207.355 188.156C206.362 188.156 205.518 187.935 204.824 187.492C204.131 187.049 203.598 186.442 203.227 185.67C202.862 184.899 202.677 184.022 202.671 183.041C202.677 182.042 202.868 181.16 203.245 180.394C203.622 179.623 204.16 179.019 204.86 178.582C205.56 178.145 206.401 177.927 207.382 177.927C208.44 177.927 209.344 178.19 210.091 178.717C210.845 179.243 211.342 179.964 211.581 180.879L209.715 181.417C209.529 180.873 209.224 180.451 208.799 180.152C208.381 179.847 207.899 179.695 207.355 179.695C206.739 179.695 206.233 179.841 205.838 180.134C205.444 180.421 205.15 180.816 204.959 181.319C204.768 181.821 204.669 182.395 204.663 183.041C204.669 184.04 204.896 184.848 205.345 185.464C205.8 186.08 206.469 186.388 207.355 186.388C207.959 186.388 208.446 186.251 208.817 185.976C209.194 185.694 209.481 185.294 209.679 184.773L211.581 185.222C211.264 186.167 210.741 186.894 210.011 187.402C209.281 187.905 208.396 188.156 207.355 188.156ZM213.505 176.608V174.786H215.38V176.608H213.505ZM213.505 187.887V178.196H215.38V187.887H213.505ZM222.552 188.156C221.589 188.156 220.743 187.947 220.013 187.528C219.289 187.103 218.724 186.514 218.317 185.76C217.916 185 217.716 184.121 217.716 183.122C217.716 182.063 217.913 181.145 218.308 180.368C218.709 179.59 219.265 178.989 219.977 178.564C220.689 178.139 221.517 177.927 222.462 177.927C223.449 177.927 224.29 178.157 224.984 178.618C225.678 179.072 226.195 179.722 226.536 180.565C226.883 181.408 227.021 182.41 226.949 183.571H225.073V182.889C225.062 181.764 224.846 180.933 224.427 180.394C224.015 179.856 223.384 179.587 222.534 179.587C221.595 179.587 220.889 179.883 220.417 180.475C219.944 181.067 219.708 181.923 219.708 183.041C219.708 184.106 219.944 184.932 220.417 185.518C220.889 186.098 221.571 186.388 222.462 186.388C223.049 186.388 223.554 186.257 223.979 185.993C224.409 185.724 224.744 185.341 224.984 184.845L226.823 185.428C226.446 186.296 225.875 186.969 225.109 187.447C224.344 187.92 223.491 188.156 222.552 188.156ZM219.098 183.571V182.108H226.016V183.571H219.098ZM235.68 187.887V183.122C235.68 182.745 235.647 182.359 235.581 181.965C235.521 181.564 235.402 181.193 235.222 180.852C235.049 180.511 234.801 180.236 234.477 180.027C234.16 179.817 233.745 179.713 233.23 179.713C232.895 179.713 232.578 179.769 232.279 179.883C231.98 179.991 231.717 180.167 231.49 180.412C231.268 180.658 231.092 180.981 230.96 181.381C230.835 181.782 230.772 182.27 230.772 182.844L229.605 182.404C229.605 181.525 229.77 180.75 230.099 180.08C230.428 179.404 230.9 178.878 231.516 178.501C232.133 178.124 232.877 177.936 233.751 177.936C234.421 177.936 234.983 178.044 235.438 178.259C235.892 178.474 236.26 178.758 236.541 179.111C236.828 179.458 237.047 179.838 237.196 180.251C237.346 180.664 237.447 181.067 237.501 181.462C237.555 181.857 237.582 182.204 237.582 182.503V187.887H235.68ZM228.87 187.887V178.196H230.547V180.996H230.772V187.887H228.87ZM244.121 188.156C243.128 188.156 242.285 187.935 241.591 187.492C240.897 187.049 240.365 186.442 239.994 185.67C239.629 184.899 239.444 184.022 239.438 183.041C239.444 182.042 239.635 181.16 240.012 180.394C240.389 179.623 240.927 179.019 241.627 178.582C242.327 178.145 243.167 177.927 244.148 177.927C245.207 177.927 246.11 178.19 246.858 178.717C247.612 179.243 248.108 179.964 248.348 180.879L246.481 181.417C246.296 180.873 245.991 180.451 245.566 180.152C245.147 179.847 244.666 179.695 244.121 179.695C243.505 179.695 243 179.841 242.605 180.134C242.21 180.421 241.917 180.816 241.726 181.319C241.534 181.821 241.436 182.395 241.43 183.041C241.436 184.04 241.663 184.848 242.111 185.464C242.566 186.08 243.236 186.388 244.121 186.388C244.726 186.388 245.213 186.251 245.584 185.976C245.961 185.694 246.248 185.294 246.445 184.773L248.348 185.222C248.031 186.167 247.507 186.894 246.777 187.402C246.048 187.905 245.162 188.156 244.121 188.156ZM251.314 192.194L253.19 187.088L253.217 188.596L248.991 178.196H250.947L254.105 186.227H253.531L256.546 178.196H258.448L253.1 192.194H251.314ZM266.542 188.156C265.824 188.156 265.223 188.024 264.738 187.761C264.254 187.492 263.886 187.139 263.634 186.702C263.389 186.26 263.267 185.775 263.267 185.249C263.267 184.758 263.353 184.328 263.527 183.957C263.7 183.586 263.958 183.272 264.298 183.015C264.639 182.751 265.058 182.539 265.555 182.377C265.985 182.252 266.473 182.141 267.017 182.045C267.562 181.95 268.133 181.86 268.731 181.776C269.335 181.693 269.933 181.609 270.526 181.525L269.844 181.902C269.856 181.142 269.694 180.58 269.359 180.215C269.03 179.844 268.462 179.659 267.654 179.659C267.146 179.659 266.679 179.778 266.255 180.018C265.83 180.251 265.534 180.64 265.366 181.184L263.617 180.646C263.856 179.814 264.31 179.153 264.98 178.663C265.656 178.172 266.554 177.927 267.672 177.927C268.54 177.927 269.293 178.076 269.933 178.376C270.579 178.669 271.052 179.135 271.351 179.775C271.507 180.092 271.602 180.427 271.638 180.78C271.674 181.133 271.692 181.513 271.692 181.92V187.887H270.032V185.67L270.355 185.958C269.954 186.699 269.443 187.253 268.821 187.618C268.205 187.976 267.445 188.156 266.542 188.156ZM266.874 186.622C267.406 186.622 267.864 186.529 268.246 186.343C268.629 186.152 268.937 185.91 269.171 185.617C269.404 185.323 269.557 185.018 269.628 184.701C269.73 184.414 269.787 184.091 269.799 183.732C269.817 183.373 269.826 183.086 269.826 182.871L270.436 183.095C269.844 183.185 269.305 183.266 268.821 183.338C268.336 183.409 267.897 183.481 267.502 183.553C267.113 183.619 266.766 183.699 266.461 183.795C266.204 183.885 265.973 183.993 265.77 184.118C265.573 184.244 265.414 184.396 265.294 184.576C265.181 184.755 265.124 184.974 265.124 185.231C265.124 185.482 265.187 185.715 265.312 185.931C265.438 186.14 265.629 186.308 265.887 186.433C266.144 186.559 266.473 186.622 266.874 186.622ZM281.003 187.887V183.122C281.003 182.745 280.97 182.359 280.904 181.965C280.844 181.564 280.725 181.193 280.545 180.852C280.372 180.511 280.123 180.236 279.8 180.027C279.483 179.817 279.068 179.713 278.553 179.713C278.218 179.713 277.901 179.769 277.602 179.883C277.303 179.991 277.04 180.167 276.813 180.412C276.591 180.658 276.415 180.981 276.283 181.381C276.158 181.782 276.095 182.27 276.095 182.844L274.928 182.404C274.928 181.525 275.093 180.75 275.422 180.08C275.751 179.404 276.223 178.878 276.839 178.501C277.456 178.124 278.2 177.936 279.074 177.936C279.744 177.936 280.306 178.044 280.761 178.259C281.215 178.474 281.583 178.758 281.864 179.111C282.151 179.458 282.37 179.838 282.519 180.251C282.669 180.664 282.77 181.067 282.824 181.462C282.878 181.857 282.905 182.204 282.905 182.503V187.887H281.003ZM274.192 187.887V178.196H275.87V180.996H276.095V187.887H274.192ZM289.148 188.156C288.245 188.156 287.464 187.932 286.806 187.483C286.154 187.034 285.649 186.424 285.29 185.653C284.937 184.875 284.761 184.002 284.761 183.032C284.761 182.057 284.94 181.187 285.299 180.421C285.658 179.65 286.166 179.043 286.824 178.6C287.488 178.151 288.275 177.927 289.184 177.927C290.099 177.927 290.868 178.151 291.49 178.6C292.118 179.043 292.591 179.65 292.908 180.421C293.231 181.193 293.392 182.063 293.392 183.032C293.392 184.002 293.231 184.872 292.908 185.644C292.585 186.415 292.109 187.028 291.481 187.483C290.853 187.932 290.075 188.156 289.148 188.156ZM289.408 186.46C290.025 186.46 290.527 186.313 290.916 186.02C291.305 185.727 291.589 185.323 291.768 184.809C291.948 184.295 292.037 183.702 292.037 183.032C292.037 182.362 291.945 181.77 291.759 181.256C291.58 180.741 291.299 180.341 290.916 180.053C290.539 179.766 290.057 179.623 289.471 179.623C288.849 179.623 288.338 179.775 287.937 180.08C287.536 180.385 287.237 180.795 287.04 181.31C286.848 181.824 286.753 182.398 286.753 183.032C286.753 183.673 286.848 184.253 287.04 184.773C287.237 185.288 287.53 185.697 287.919 186.002C288.314 186.308 288.81 186.46 289.408 186.46ZM292.037 187.887V180.915H291.822V174.966H293.706V187.887H292.037ZM304.466 188.156C303.503 188.156 302.657 187.947 301.927 187.528C301.203 187.103 300.638 186.514 300.231 185.76C299.831 185 299.63 184.121 299.63 183.122C299.63 182.063 299.828 181.145 300.222 180.368C300.623 179.59 301.179 178.989 301.891 178.564C302.603 178.139 303.432 177.927 304.377 177.927C305.364 177.927 306.204 178.157 306.898 178.618C307.592 179.072 308.109 179.722 308.45 180.565C308.797 181.408 308.935 182.41 308.863 183.571H306.988V182.889C306.976 181.764 306.76 180.933 306.342 180.394C305.929 179.856 305.298 179.587 304.448 179.587C303.509 179.587 302.803 179.883 302.331 180.475C301.858 181.067 301.622 181.923 301.622 183.041C301.622 184.106 301.858 184.932 302.331 185.518C302.803 186.098 303.485 186.388 304.377 186.388C304.963 186.388 305.468 186.257 305.893 185.993C306.324 185.724 306.659 185.341 306.898 184.845L308.737 185.428C308.361 186.296 307.789 186.969 307.024 187.447C306.258 187.92 305.406 188.156 304.466 188.156ZM301.012 183.571V182.108H307.93V183.571H301.012ZM311.944 187.887V177.855C311.944 177.61 311.953 177.35 311.971 177.075C311.989 176.793 312.04 176.518 312.123 176.249C312.213 175.974 312.36 175.723 312.563 175.495C312.808 175.226 313.078 175.035 313.371 174.921C313.664 174.807 313.954 174.742 314.241 174.724C314.534 174.706 314.803 174.697 315.049 174.697H316.269V176.24H315.138C314.696 176.24 314.364 176.351 314.142 176.572C313.927 176.787 313.819 177.095 313.819 177.496V187.887H311.944ZM310.338 179.704V178.196H316.269V179.704H310.338ZM317.812 187.887V177.855C317.812 177.61 317.821 177.35 317.839 177.075C317.857 176.793 317.908 176.518 317.992 176.249C318.081 175.974 318.228 175.723 318.431 175.495C318.677 175.226 318.946 175.035 319.239 174.921C319.532 174.807 319.822 174.742 320.109 174.724C320.402 174.706 320.671 174.697 320.917 174.697H322.137V176.24H321.006C320.564 176.24 320.232 176.351 320.01 176.572C319.795 176.787 319.687 177.095 319.687 177.496V187.887H317.812ZM316.206 179.704V178.196H322.137V179.704H316.206ZM327.695 188.156C326.732 188.156 325.886 187.947 325.156 187.528C324.432 187.103 323.867 186.514 323.46 185.76C323.059 185 322.859 184.121 322.859 183.122C322.859 182.063 323.056 181.145 323.451 180.368C323.852 179.59 324.408 178.989 325.12 178.564C325.832 178.139 326.661 177.927 327.606 177.927C328.593 177.927 329.433 178.157 330.127 178.618C330.821 179.072 331.338 179.722 331.679 180.565C332.026 181.408 332.164 182.41 332.092 183.571H330.217V182.889C330.205 181.764 329.989 180.933 329.571 180.394C329.158 179.856 328.527 179.587 327.677 179.587C326.738 179.587 326.032 179.883 325.56 180.475C325.087 181.067 324.851 181.923 324.851 183.041C324.851 184.106 325.087 184.932 325.56 185.518C326.032 186.098 326.714 186.388 327.606 186.388C328.192 186.388 328.697 186.257 329.122 185.993C329.553 185.724 329.888 185.341 330.127 184.845L331.966 185.428C331.59 186.296 331.018 186.969 330.253 187.447C329.487 187.92 328.635 188.156 327.695 188.156ZM324.241 183.571V182.108H331.159V183.571H324.241ZM338.43 188.156C337.437 188.156 336.594 187.935 335.9 187.492C335.206 187.049 334.673 186.442 334.303 185.67C333.938 184.899 333.752 184.022 333.746 183.041C333.752 182.042 333.944 181.16 334.321 180.394C334.697 179.623 335.236 179.019 335.936 178.582C336.635 178.145 337.476 177.927 338.457 177.927C339.516 177.927 340.419 178.19 341.167 178.717C341.92 179.243 342.417 179.964 342.656 180.879L340.79 181.417C340.604 180.873 340.299 180.451 339.875 180.152C339.456 179.847 338.974 179.695 338.43 179.695C337.814 179.695 337.308 179.841 336.914 180.134C336.519 180.421 336.226 180.816 336.034 181.319C335.843 181.821 335.744 182.395 335.738 183.041C335.744 184.04 335.971 184.848 336.42 185.464C336.875 186.08 337.545 186.388 338.43 186.388C339.034 186.388 339.522 186.251 339.893 185.976C340.269 185.694 340.557 185.294 340.754 184.773L342.656 185.222C342.339 186.167 341.816 186.894 341.086 187.402C340.356 187.905 339.471 188.156 338.43 188.156ZM350.209 187.887C349.599 188.006 349 188.057 348.414 188.039C347.828 188.021 347.305 187.908 346.844 187.698C346.383 187.489 346.036 187.16 345.803 186.711C345.594 186.311 345.48 185.904 345.462 185.491C345.45 185.072 345.444 184.6 345.444 184.073V175.504H347.328V183.984C347.328 184.372 347.331 184.71 347.337 184.997C347.349 185.285 347.412 185.527 347.526 185.724C347.741 186.095 348.082 186.308 348.549 186.361C349.021 186.409 349.575 186.388 350.209 186.299V187.887ZM343.587 179.704V178.196H350.209V179.704H343.587ZM352.611 176.608V174.786H354.486V176.608H352.611ZM352.611 187.887V178.196H354.486V187.887H352.611ZM359.98 187.887L356.463 178.196H358.356L360.931 185.536L363.506 178.196H365.4L361.882 187.887H359.98ZM371.143 188.156C370.18 188.156 369.334 187.947 368.604 187.528C367.88 187.103 367.315 186.514 366.908 185.76C366.507 185 366.307 184.121 366.307 183.122C366.307 182.063 366.504 181.145 366.899 180.368C367.3 179.59 367.856 178.989 368.568 178.564C369.28 178.139 370.108 177.927 371.053 177.927C372.04 177.927 372.881 178.157 373.575 178.618C374.269 179.072 374.786 179.722 375.127 180.565C375.474 181.408 375.612 182.41 375.54 183.571H373.665V182.889C373.653 181.764 373.437 180.933 373.018 180.394C372.606 179.856 371.975 179.587 371.125 179.587C370.186 179.587 369.48 179.883 369.008 180.475C368.535 181.067 368.299 181.923 368.299 183.041C368.299 184.106 368.535 184.932 369.008 185.518C369.48 186.098 370.162 186.388 371.053 186.388C371.64 186.388 372.145 186.257 372.57 185.993C373.001 185.724 373.336 185.341 373.575 184.845L375.414 185.428C375.037 186.296 374.466 186.969 373.7 187.447C372.935 187.92 372.082 188.156 371.143 188.156ZM367.689 183.571V182.108H374.607V183.571H367.689ZM384.271 187.887V183.122C384.271 182.745 384.238 182.359 384.172 181.965C384.112 181.564 383.993 181.193 383.813 180.852C383.64 180.511 383.392 180.236 383.069 180.027C382.752 179.817 382.336 179.713 381.821 179.713C381.486 179.713 381.169 179.769 380.87 179.883C380.571 179.991 380.308 180.167 380.081 180.412C379.859 180.658 379.683 180.981 379.551 181.381C379.426 181.782 379.363 182.27 379.363 182.844L378.196 182.404C378.196 181.525 378.361 180.75 378.69 180.08C379.019 179.404 379.491 178.878 380.108 178.501C380.724 178.124 381.468 177.936 382.342 177.936C383.012 177.936 383.574 178.044 384.029 178.259C384.483 178.474 384.851 178.758 385.132 179.111C385.419 179.458 385.638 179.838 385.787 180.251C385.937 180.664 386.039 181.067 386.092 181.462C386.146 181.857 386.173 182.204 386.173 182.503V187.887H384.271ZM377.461 187.887V178.196H379.138V180.996H379.363V187.887H377.461ZM392.865 188.156C391.902 188.156 391.055 187.947 390.326 187.528C389.602 187.103 389.037 186.514 388.63 185.76C388.229 185 388.029 184.121 388.029 183.122C388.029 182.063 388.226 181.145 388.621 180.368C389.022 179.59 389.578 178.989 390.29 178.564C391.002 178.139 391.83 177.927 392.775 177.927C393.762 177.927 394.603 178.157 395.297 178.618C395.991 179.072 396.508 179.722 396.849 180.565C397.196 181.408 397.333 182.41 397.262 183.571H395.386V182.889C395.374 181.764 395.159 180.933 394.74 180.394C394.328 179.856 393.696 179.587 392.847 179.587C391.908 179.587 391.202 179.883 390.729 180.475C390.257 181.067 390.021 181.923 390.021 183.041C390.021 184.106 390.257 184.932 390.729 185.518C391.202 186.098 391.884 186.388 392.775 186.388C393.361 186.388 393.867 186.257 394.292 185.993C394.722 185.724 395.057 185.341 395.297 184.845L397.136 185.428C396.759 186.296 396.188 186.969 395.422 187.447C394.657 187.92 393.804 188.156 392.865 188.156ZM389.41 183.571V182.108H396.328V183.571H389.41ZM403.16 188.147C401.982 188.147 401.021 187.887 400.28 187.366C399.538 186.846 399.083 186.113 398.916 185.168L400.836 184.872C400.956 185.374 401.231 185.772 401.661 186.065C402.098 186.352 402.64 186.496 403.286 186.496C403.872 186.496 404.329 186.376 404.658 186.137C404.993 185.898 405.161 185.569 405.161 185.15C405.161 184.905 405.101 184.707 404.981 184.558C404.868 184.402 404.625 184.256 404.255 184.118C403.884 183.981 403.318 183.81 402.559 183.607C401.727 183.391 401.066 183.161 400.576 182.916C400.091 182.665 399.744 182.374 399.535 182.045C399.332 181.71 399.23 181.307 399.23 180.834C399.23 180.248 399.385 179.736 399.696 179.3C400.008 178.863 400.444 178.525 401.006 178.286C401.575 178.047 402.239 177.927 402.998 177.927C403.74 177.927 404.401 178.044 404.981 178.277C405.562 178.51 406.031 178.842 406.39 179.273C406.749 179.698 406.964 180.197 407.036 180.771L405.116 181.121C405.05 180.655 404.832 180.287 404.461 180.018C404.09 179.748 403.609 179.602 403.016 179.578C402.448 179.554 401.987 179.65 401.635 179.865C401.282 180.074 401.105 180.365 401.105 180.735C401.105 180.951 401.171 181.133 401.303 181.283C401.44 181.432 401.703 181.576 402.092 181.713C402.481 181.851 403.055 182.016 403.815 182.207C404.628 182.416 405.275 182.65 405.753 182.907C406.232 183.158 406.573 183.46 406.776 183.813C406.985 184.16 407.09 184.582 407.09 185.078C407.09 186.035 406.74 186.786 406.04 187.33C405.346 187.875 404.386 188.147 403.16 188.147ZM412.961 188.147C411.782 188.147 410.822 187.887 410.08 187.366C409.339 186.846 408.884 186.113 408.716 185.168L410.637 184.872C410.756 185.374 411.031 185.772 411.462 186.065C411.899 186.352 412.44 186.496 413.086 186.496C413.672 186.496 414.13 186.376 414.459 186.137C414.794 185.898 414.962 185.569 414.962 185.15C414.962 184.905 414.902 184.707 414.782 184.558C414.668 184.402 414.426 184.256 414.055 184.118C413.684 183.981 413.119 183.81 412.359 183.607C411.528 183.391 410.867 183.161 410.376 182.916C409.892 182.665 409.545 182.374 409.336 182.045C409.132 181.71 409.031 181.307 409.031 180.834C409.031 180.248 409.186 179.736 409.497 179.3C409.808 178.863 410.245 178.525 410.807 178.286C411.375 178.047 412.039 177.927 412.799 177.927C413.541 177.927 414.202 178.044 414.782 178.277C415.362 178.51 415.832 178.842 416.191 179.273C416.55 179.698 416.765 180.197 416.837 180.771L414.917 181.121C414.851 180.655 414.633 180.287 414.262 180.018C413.891 179.748 413.409 179.602 412.817 179.578C412.249 179.554 411.788 179.65 411.435 179.865C411.082 180.074 410.906 180.365 410.906 180.735C410.906 180.951 410.972 181.133 411.103 181.283C411.241 181.432 411.504 181.576 411.893 181.713C412.282 181.851 412.856 182.016 413.616 182.207C414.429 182.416 415.075 182.65 415.554 182.907C416.032 183.158 416.373 183.46 416.577 183.813C416.786 184.16 416.891 184.582 416.891 185.078C416.891 186.035 416.541 186.786 415.841 187.33C415.147 187.875 414.187 188.147 412.961 188.147Z" fill="#186491"/>
<g filter="url(#filter1_d_22341_37223)">
<rect x="25.459" y="81.1504" width="465.088" height="59.8184" rx="29.9092" fill="#4994BE"/>
<path d="M258.004 154.428L248.24 140.969L267.769 140.969L258.004 154.428Z" fill="#4994BE"/>
</g>
<g filter="url(#filter2_d_22341_37223)">
<rect x="12" y="12.3589" width="156.759" height="59.8184" rx="29.9092" fill="#186491"/>
<path d="M89.7639 85.6367L79.403 72.1776L100.125 72.1776L89.7639 85.6367Z" fill="#186491"/>
</g>
<g filter="url(#filter3_d_22341_37223)">
<rect x="180.37" y="12.3589" width="156.759" height="59.8184" rx="29.9092" fill="#186491"/>
<path d="M258.75 85.6362L248.389 72.1771L269.111 72.1771L258.75 85.6362Z" fill="#186491"/>
</g>
<g filter="url(#filter4_d_22341_37223)">
<rect x="348.742" y="12.3589" width="156.759" height="59.8184" rx="29.9092" fill="#186491"/>
<path d="M427.738 85.6362L417.378 72.1771L438.099 72.1771L427.738 85.6362Z" fill="#186491"/>
</g>
<path d="M64.7938 117.6L68.9931 104.679H71.6939L75.8931 117.6H73.946L70.0788 105.81H70.5633L66.7409 117.6H64.7938ZM66.9742 114.684V112.925H73.7217V114.684H66.9742ZM81.1548 117.86C80.4848 117.86 79.9225 117.753 79.4679 117.537C79.0133 117.322 78.6424 117.041 78.3553 116.694C78.0741 116.341 77.8588 115.958 77.7093 115.545C77.5597 115.133 77.458 114.729 77.4042 114.334C77.3503 113.939 77.3234 113.592 77.3234 113.293V107.91H79.2257V112.674C79.2257 113.051 79.2556 113.44 79.3154 113.841C79.3812 114.235 79.5008 114.603 79.6743 114.944C79.8537 115.285 80.102 115.56 80.419 115.77C80.742 115.979 81.1608 116.084 81.6752 116.084C82.0102 116.084 82.3272 116.03 82.6263 115.922C82.9254 115.809 83.1856 115.629 83.407 115.384C83.6343 115.139 83.8107 114.816 83.9364 114.415C84.068 114.014 84.1338 113.526 84.1338 112.952L85.3002 113.392C85.3002 114.271 85.1357 115.049 84.8067 115.725C84.4777 116.395 84.0051 116.918 83.389 117.295C82.7729 117.672 82.0281 117.86 81.1548 117.86ZM84.3581 117.6V114.801H84.1338V107.91H86.027V117.6H84.3581ZM94.0888 117.6C93.4786 117.72 92.8804 117.771 92.2942 117.753C91.708 117.735 91.1846 117.621 90.724 117.412C90.2634 117.202 89.9164 116.873 89.6831 116.425C89.4738 116.024 89.3601 115.617 89.3422 115.204C89.3302 114.786 89.3242 114.313 89.3242 113.787V105.218H91.2085V113.697C91.2085 114.086 91.2115 114.424 91.2175 114.711C91.2294 114.998 91.2922 115.24 91.4059 115.438C91.6212 115.809 91.9622 116.021 92.4288 116.075C92.9014 116.123 93.4547 116.102 94.0888 116.012V117.6ZM87.4669 109.417V107.91H94.0888V109.417H87.4669ZM99.902 117.869C98.9329 117.869 98.0925 117.651 97.3806 117.214C96.6688 116.778 96.1185 116.176 95.7296 115.411C95.3468 114.639 95.1554 113.751 95.1554 112.746C95.1554 111.735 95.3528 110.847 95.7476 110.081C96.1424 109.309 96.6957 108.711 97.4076 108.286C98.1194 107.856 98.9509 107.64 99.902 107.64C100.871 107.64 101.711 107.859 102.423 108.295C103.135 108.732 103.685 109.333 104.074 110.099C104.463 110.865 104.658 111.747 104.658 112.746C104.658 113.757 104.46 114.648 104.065 115.42C103.677 116.185 103.126 116.787 102.414 117.223C101.703 117.654 100.865 117.869 99.902 117.869ZM99.902 116.102C100.829 116.102 101.52 115.791 101.975 115.168C102.435 114.54 102.666 113.733 102.666 112.746C102.666 111.735 102.432 110.927 101.966 110.323C101.505 109.713 100.817 109.408 99.902 109.408C99.2739 109.408 98.7565 109.552 98.3497 109.839C97.9429 110.12 97.6408 110.512 97.4434 111.014C97.246 111.511 97.1473 112.088 97.1473 112.746C97.1473 113.763 97.3806 114.576 97.8472 115.186C98.3138 115.797 98.9987 116.102 99.902 116.102ZM118.24 117.6L118.249 111.561C118.249 110.862 118.07 110.317 117.711 109.928C117.352 109.534 116.879 109.336 116.293 109.336C115.934 109.336 115.605 109.42 115.306 109.587C115.013 109.749 114.774 109.994 114.588 110.323C114.409 110.646 114.319 111.053 114.319 111.543L113.413 111.086C113.401 110.404 113.544 109.806 113.843 109.291C114.148 108.777 114.561 108.379 115.082 108.098C115.602 107.811 116.185 107.667 116.831 107.667C117.878 107.667 118.689 107.981 119.263 108.609C119.837 109.237 120.124 110.072 120.124 111.113L120.115 117.6H118.24ZM106.62 117.6V107.91H108.289V110.709H108.505V117.6H106.62ZM112.435 117.6L112.444 111.597C112.444 110.891 112.264 110.338 111.905 109.937C111.552 109.537 111.077 109.336 110.479 109.336C109.886 109.336 109.408 109.54 109.043 109.946C108.684 110.353 108.505 110.885 108.505 111.543L107.607 110.969C107.607 110.335 107.76 109.77 108.065 109.273C108.37 108.777 108.783 108.385 109.303 108.098C109.824 107.811 110.413 107.667 111.071 107.667C111.759 107.667 112.345 107.814 112.829 108.107C113.314 108.394 113.682 108.798 113.933 109.318C114.19 109.839 114.319 110.443 114.319 111.131L114.31 117.6H112.435ZM125.191 117.869C124.473 117.869 123.872 117.738 123.387 117.474C122.903 117.205 122.535 116.852 122.284 116.416C122.039 115.973 121.916 115.489 121.916 114.962C121.916 114.472 122.003 114.041 122.176 113.67C122.35 113.299 122.607 112.985 122.948 112.728C123.289 112.465 123.708 112.252 124.204 112.091C124.635 111.965 125.122 111.855 125.667 111.759C126.211 111.663 126.782 111.573 127.38 111.49C127.985 111.406 128.583 111.322 129.175 111.238L128.493 111.615C128.505 110.856 128.343 110.293 128.008 109.928C127.679 109.558 127.111 109.372 126.304 109.372C125.795 109.372 125.329 109.492 124.904 109.731C124.479 109.964 124.183 110.353 124.016 110.897L122.266 110.359C122.505 109.528 122.96 108.867 123.63 108.376C124.306 107.886 125.203 107.64 126.322 107.64C127.189 107.64 127.943 107.79 128.583 108.089C129.229 108.382 129.701 108.849 130 109.489C130.156 109.806 130.252 110.141 130.288 110.494C130.323 110.847 130.341 111.226 130.341 111.633V117.6H128.681V115.384L129.004 115.671C128.604 116.413 128.092 116.966 127.47 117.331C126.854 117.69 126.094 117.869 125.191 117.869ZM125.523 116.335C126.055 116.335 126.513 116.242 126.896 116.057C127.279 115.865 127.587 115.623 127.82 115.33C128.053 115.037 128.206 114.732 128.278 114.415C128.379 114.128 128.436 113.805 128.448 113.446C128.466 113.087 128.475 112.8 128.475 112.584L129.085 112.809C128.493 112.898 127.955 112.979 127.47 113.051C126.986 113.123 126.546 113.194 126.151 113.266C125.762 113.332 125.415 113.413 125.11 113.509C124.853 113.598 124.623 113.706 124.419 113.832C124.222 113.957 124.063 114.11 123.944 114.289C123.83 114.469 123.773 114.687 123.773 114.944C123.773 115.195 123.836 115.429 123.962 115.644C124.087 115.853 124.279 116.021 124.536 116.147C124.793 116.272 125.122 116.335 125.523 116.335ZM138.217 117.6C137.606 117.72 137.008 117.771 136.422 117.753C135.836 117.735 135.312 117.621 134.852 117.412C134.391 117.202 134.044 116.873 133.811 116.425C133.602 116.024 133.488 115.617 133.47 115.204C133.458 114.786 133.452 114.313 133.452 113.787V105.218H135.336V113.697C135.336 114.086 135.339 114.424 135.345 114.711C135.357 114.998 135.42 115.24 135.534 115.438C135.749 115.809 136.09 116.021 136.557 116.075C137.029 116.123 137.582 116.102 138.217 116.012V117.6ZM131.595 109.417V107.91H138.217V109.417H131.595ZM140.439 106.321V104.5H142.314V106.321H140.439ZM140.439 117.6V107.91H142.314V117.6H140.439ZM149.217 117.869C148.248 117.869 147.408 117.651 146.696 117.214C145.984 116.778 145.434 116.176 145.045 115.411C144.662 114.639 144.471 113.751 144.471 112.746C144.471 111.735 144.668 110.847 145.063 110.081C145.458 109.309 146.011 108.711 146.723 108.286C147.435 107.856 148.266 107.64 149.217 107.64C150.186 107.64 151.027 107.859 151.738 108.295C152.45 108.732 153.001 109.333 153.389 110.099C153.778 110.865 153.973 111.747 153.973 112.746C153.973 113.757 153.775 114.648 153.38 115.42C152.992 116.185 152.441 116.787 151.73 117.223C151.018 117.654 150.18 117.869 149.217 117.869ZM149.217 116.102C150.144 116.102 150.835 115.791 151.29 115.168C151.75 114.54 151.981 113.733 151.981 112.746C151.981 111.735 151.747 110.927 151.281 110.323C150.82 109.713 150.132 109.408 149.217 109.408C148.589 109.408 148.072 109.552 147.665 109.839C147.258 110.12 146.956 110.512 146.759 111.014C146.561 111.511 146.462 112.088 146.462 112.746C146.462 113.763 146.696 114.576 147.162 115.186C147.629 115.797 148.314 116.102 149.217 116.102ZM162.746 117.6V112.836C162.746 112.459 162.713 112.073 162.647 111.678C162.587 111.277 162.468 110.906 162.288 110.565C162.115 110.224 161.866 109.949 161.543 109.74C161.226 109.531 160.811 109.426 160.296 109.426C159.961 109.426 159.644 109.483 159.345 109.596C159.046 109.704 158.783 109.881 158.556 110.126C158.334 110.371 158.158 110.694 158.026 111.095C157.901 111.496 157.838 111.983 157.838 112.557L156.671 112.118C156.671 111.238 156.836 110.464 157.165 109.794C157.494 109.118 157.966 108.591 158.582 108.215C159.199 107.838 159.943 107.649 160.817 107.649C161.487 107.649 162.049 107.757 162.504 107.972C162.958 108.188 163.326 108.472 163.607 108.825C163.894 109.172 164.113 109.552 164.262 109.964C164.412 110.377 164.513 110.781 164.567 111.176C164.621 111.57 164.648 111.917 164.648 112.216V117.6H162.746ZM155.935 117.6V107.91H157.613V110.709H157.838V117.6H155.935ZM170.691 117.86C169.512 117.86 168.552 117.6 167.811 117.08C167.069 116.559 166.614 115.826 166.447 114.881L168.367 114.585C168.487 115.088 168.762 115.486 169.192 115.779C169.629 116.066 170.17 116.209 170.817 116.209C171.403 116.209 171.86 116.09 172.189 115.85C172.524 115.611 172.692 115.282 172.692 114.863C172.692 114.618 172.632 114.421 172.512 114.271C172.399 114.116 172.156 113.969 171.786 113.832C171.415 113.694 170.849 113.523 170.09 113.32C169.258 113.105 168.597 112.874 168.107 112.629C167.622 112.378 167.275 112.088 167.066 111.759C166.863 111.424 166.761 111.02 166.761 110.548C166.761 109.961 166.916 109.45 167.227 109.013C167.538 108.576 167.975 108.239 168.537 107.999C169.106 107.76 169.77 107.64 170.529 107.64C171.271 107.64 171.932 107.757 172.512 107.99C173.093 108.224 173.562 108.556 173.921 108.986C174.28 109.411 174.495 109.91 174.567 110.485L172.647 110.835C172.581 110.368 172.363 110 171.992 109.731C171.621 109.462 171.14 109.315 170.547 109.291C169.979 109.267 169.518 109.363 169.166 109.578C168.813 109.788 168.636 110.078 168.636 110.449C168.636 110.664 168.702 110.847 168.834 110.996C168.971 111.146 169.234 111.289 169.623 111.427C170.012 111.564 170.586 111.729 171.346 111.92C172.159 112.13 172.805 112.363 173.284 112.62C173.763 112.871 174.104 113.174 174.307 113.526C174.516 113.873 174.621 114.295 174.621 114.792C174.621 115.749 174.271 116.499 173.571 117.044C172.877 117.588 171.917 117.86 170.691 117.86ZM182.936 117.869C182.218 117.869 181.617 117.738 181.132 117.474C180.648 117.205 180.28 116.852 180.028 116.416C179.783 115.973 179.661 115.489 179.661 114.962C179.661 114.472 179.747 114.041 179.921 113.67C180.094 113.299 180.352 112.985 180.692 112.728C181.033 112.465 181.452 112.252 181.949 112.091C182.379 111.965 182.867 111.855 183.411 111.759C183.956 111.663 184.527 111.573 185.125 111.49C185.729 111.406 186.327 111.322 186.92 111.238L186.238 111.615C186.25 110.856 186.088 110.293 185.753 109.928C185.424 109.558 184.856 109.372 184.048 109.372C183.54 109.372 183.073 109.492 182.649 109.731C182.224 109.964 181.928 110.353 181.76 110.897L180.011 110.359C180.25 109.528 180.704 108.867 181.374 108.376C182.05 107.886 182.948 107.64 184.066 107.64C184.934 107.64 185.687 107.79 186.327 108.089C186.973 108.382 187.446 108.849 187.745 109.489C187.901 109.806 187.996 110.141 188.032 110.494C188.068 110.847 188.086 111.226 188.086 111.633V117.6H186.426V115.384L186.749 115.671C186.348 116.413 185.837 116.966 185.215 117.331C184.599 117.69 183.839 117.869 182.936 117.869ZM183.268 116.335C183.8 116.335 184.258 116.242 184.64 116.057C185.023 115.865 185.331 115.623 185.565 115.33C185.798 115.037 185.951 114.732 186.022 114.415C186.124 114.128 186.181 113.805 186.193 113.446C186.211 113.087 186.22 112.8 186.22 112.584L186.83 112.809C186.238 112.898 185.699 112.979 185.215 113.051C184.73 113.123 184.291 113.194 183.896 113.266C183.507 113.332 183.16 113.413 182.855 113.509C182.598 113.598 182.367 113.706 182.164 113.832C181.967 113.957 181.808 114.11 181.688 114.289C181.575 114.469 181.518 114.687 181.518 114.944C181.518 115.195 181.581 115.429 181.706 115.644C181.832 115.853 182.023 116.021 182.281 116.147C182.538 116.272 182.867 116.335 183.268 116.335ZM190.416 117.6V107.91H192.085V110.26L191.852 109.955C191.971 109.644 192.127 109.36 192.318 109.103C192.51 108.84 192.731 108.624 192.982 108.457C193.227 108.277 193.5 108.14 193.799 108.044C194.104 107.942 194.415 107.883 194.732 107.865C195.049 107.841 195.354 107.856 195.647 107.91V109.668C195.33 109.584 194.977 109.561 194.588 109.596C194.205 109.632 193.853 109.755 193.53 109.964C193.224 110.162 192.982 110.401 192.803 110.682C192.629 110.963 192.504 111.277 192.426 111.624C192.348 111.965 192.309 112.327 192.309 112.71V117.6H190.416ZM201.389 117.869C200.42 117.869 199.579 117.651 198.867 117.214C198.156 116.778 197.605 116.176 197.217 115.411C196.834 114.639 196.642 113.751 196.642 112.746C196.642 111.735 196.84 110.847 197.234 110.081C197.629 109.309 198.183 108.711 198.894 108.286C199.606 107.856 200.438 107.64 201.389 107.64C202.358 107.64 203.198 107.859 203.91 108.295C204.622 108.732 205.172 109.333 205.561 110.099C205.95 110.865 206.144 111.747 206.144 112.746C206.144 113.757 205.947 114.648 205.552 115.42C205.163 116.185 204.613 116.787 203.901 117.223C203.189 117.654 202.352 117.869 201.389 117.869ZM201.389 116.102C202.316 116.102 203.007 115.791 203.462 115.168C203.922 114.54 204.152 113.733 204.152 112.746C204.152 111.735 203.919 110.927 203.453 110.323C202.992 109.713 202.304 109.408 201.389 109.408C200.761 109.408 200.243 109.552 199.837 109.839C199.43 110.12 199.128 110.512 198.93 111.014C198.733 111.511 198.634 112.088 198.634 112.746C198.634 113.763 198.867 114.576 199.334 115.186C199.801 115.797 200.486 116.102 201.389 116.102ZM211.768 117.86C211.098 117.86 210.536 117.753 210.081 117.537C209.627 117.322 209.256 117.041 208.969 116.694C208.687 116.341 208.472 115.958 208.323 115.545C208.173 115.133 208.071 114.729 208.017 114.334C207.964 113.939 207.937 113.592 207.937 113.293V107.91H209.839V112.674C209.839 113.051 209.869 113.44 209.929 113.841C209.994 114.235 210.114 114.603 210.288 114.944C210.467 115.285 210.715 115.56 211.032 115.77C211.355 115.979 211.774 116.084 212.289 116.084C212.623 116.084 212.941 116.03 213.24 115.922C213.539 115.809 213.799 115.629 214.02 115.384C214.248 115.139 214.424 114.816 214.55 114.415C214.681 114.014 214.747 113.526 214.747 112.952L215.914 113.392C215.914 114.271 215.749 115.049 215.42 115.725C215.091 116.395 214.618 116.918 214.002 117.295C213.386 117.672 212.641 117.86 211.768 117.86ZM214.971 117.6V114.801H214.747V107.91H216.64V117.6H214.971ZM225.958 117.6V112.836C225.958 112.459 225.925 112.073 225.86 111.678C225.8 111.277 225.68 110.906 225.501 110.565C225.327 110.224 225.079 109.949 224.756 109.74C224.439 109.531 224.023 109.426 223.509 109.426C223.174 109.426 222.857 109.483 222.558 109.596C222.258 109.704 221.995 109.881 221.768 110.126C221.547 110.371 221.37 110.694 221.239 111.095C221.113 111.496 221.05 111.983 221.05 112.557L219.884 112.118C219.884 111.238 220.048 110.464 220.377 109.794C220.706 109.118 221.179 108.591 221.795 108.215C222.411 107.838 223.156 107.649 224.029 107.649C224.699 107.649 225.261 107.757 225.716 107.972C226.171 108.188 226.538 108.472 226.82 108.825C227.107 109.172 227.325 109.552 227.475 109.964C227.624 110.377 227.726 110.781 227.78 111.176C227.834 111.57 227.86 111.917 227.86 112.216V117.6H225.958ZM219.148 117.6V107.91H220.826V110.709H221.05V117.6H219.148ZM233.924 117.869C233.021 117.869 232.24 117.645 231.582 117.196C230.93 116.748 230.425 116.138 230.066 115.366C229.713 114.588 229.537 113.715 229.537 112.746C229.537 111.771 229.716 110.9 230.075 110.135C230.434 109.363 230.942 108.756 231.6 108.313C232.264 107.865 233.051 107.64 233.96 107.64C234.875 107.64 235.644 107.865 236.266 108.313C236.894 108.756 237.367 109.363 237.684 110.135C238.007 110.906 238.168 111.777 238.168 112.746C238.168 113.715 238.007 114.585 237.684 115.357C237.361 116.129 236.885 116.742 236.257 117.196C235.629 117.645 234.851 117.869 233.924 117.869ZM234.184 116.173C234.801 116.173 235.303 116.027 235.692 115.734C236.081 115.441 236.365 115.037 236.544 114.522C236.724 114.008 236.813 113.416 236.813 112.746C236.813 112.076 236.721 111.484 236.535 110.969C236.356 110.455 236.075 110.054 235.692 109.767C235.315 109.48 234.833 109.336 234.247 109.336C233.625 109.336 233.114 109.489 232.713 109.794C232.312 110.099 232.013 110.509 231.816 111.023C231.624 111.538 231.528 112.112 231.528 112.746C231.528 113.386 231.624 113.966 231.816 114.487C232.013 115.001 232.306 115.411 232.695 115.716C233.09 116.021 233.586 116.173 234.184 116.173ZM236.813 117.6V110.628H236.598V104.679H238.482V117.6H236.813ZM244.765 106.321V104.5H246.64V106.321H244.765ZM244.765 117.6V107.91H246.64V117.6H244.765ZM253.184 117.869C252.281 117.869 251.5 117.645 250.842 117.196C250.19 116.748 249.685 116.138 249.326 115.366C248.973 114.588 248.796 113.715 248.796 112.746C248.796 111.771 248.976 110.9 249.335 110.135C249.694 109.363 250.202 108.756 250.86 108.313C251.524 107.865 252.311 107.64 253.22 107.64C254.135 107.64 254.904 107.865 255.526 108.313C256.154 108.756 256.627 109.363 256.944 110.135C257.267 110.906 257.428 111.777 257.428 112.746C257.428 113.715 257.267 114.585 256.944 115.357C256.621 116.129 256.145 116.742 255.517 117.196C254.889 117.645 254.111 117.869 253.184 117.869ZM253.444 116.173C254.06 116.173 254.563 116.027 254.952 115.734C255.341 115.441 255.625 115.037 255.804 114.522C255.984 114.008 256.073 113.416 256.073 112.746C256.073 112.076 255.981 111.484 255.795 110.969C255.616 110.455 255.335 110.054 254.952 109.767C254.575 109.48 254.093 109.336 253.507 109.336C252.885 109.336 252.374 109.489 251.973 109.794C251.572 110.099 251.273 110.509 251.076 111.023C250.884 111.538 250.788 112.112 250.788 112.746C250.788 113.386 250.884 113.966 251.076 114.487C251.273 115.001 251.566 115.411 251.955 115.716C252.35 116.021 252.846 116.173 253.444 116.173ZM256.073 117.6V110.628H255.858V104.679H257.742V117.6H256.073ZM264.551 117.869C263.588 117.869 262.741 117.66 262.011 117.241C261.288 116.816 260.722 116.227 260.316 115.474C259.915 114.714 259.714 113.835 259.714 112.836C259.714 111.777 259.912 110.859 260.307 110.081C260.707 109.303 261.264 108.702 261.976 108.277C262.687 107.853 263.516 107.64 264.461 107.64C265.448 107.64 266.289 107.871 266.982 108.331C267.676 108.786 268.194 109.435 268.535 110.278C268.882 111.122 269.019 112.124 268.947 113.284H267.072V112.602C267.06 111.478 266.845 110.646 266.426 110.108C266.013 109.569 265.382 109.3 264.533 109.3C263.594 109.3 262.888 109.596 262.415 110.189C261.943 110.781 261.706 111.636 261.706 112.755C261.706 113.82 261.943 114.645 262.415 115.231C262.888 115.812 263.57 116.102 264.461 116.102C265.047 116.102 265.553 115.97 265.977 115.707C266.408 115.438 266.743 115.055 266.982 114.558L268.822 115.142C268.445 116.009 267.874 116.682 267.108 117.16C266.342 117.633 265.49 117.869 264.551 117.869ZM261.096 113.284V111.822H268.014V113.284H261.096ZM277.499 117.6V112.836C277.499 112.459 277.466 112.073 277.4 111.678C277.341 111.277 277.221 110.906 277.041 110.565C276.868 110.224 276.62 109.949 276.297 109.74C275.98 109.531 275.564 109.426 275.049 109.426C274.714 109.426 274.397 109.483 274.098 109.596C273.799 109.704 273.536 109.881 273.309 110.126C273.087 110.371 272.911 110.694 272.779 111.095C272.654 111.496 272.591 111.983 272.591 112.557L271.424 112.118C271.424 111.238 271.589 110.464 271.918 109.794C272.247 109.118 272.72 108.591 273.336 108.215C273.952 107.838 274.697 107.649 275.57 107.649C276.24 107.649 276.802 107.757 277.257 107.972C277.711 108.188 278.079 108.472 278.36 108.825C278.648 109.172 278.866 109.552 279.015 109.964C279.165 110.377 279.267 110.781 279.321 111.176C279.374 111.57 279.401 111.917 279.401 112.216V117.6H277.499ZM270.689 117.6V107.91H272.367V110.709H272.591V117.6H270.689ZM287.284 117.6C286.673 117.72 286.075 117.771 285.489 117.753C284.903 117.735 284.379 117.621 283.919 117.412C283.458 117.202 283.111 116.873 282.878 116.425C282.669 116.024 282.555 115.617 282.537 115.204C282.525 114.786 282.519 114.313 282.519 113.787V105.218H284.403V113.697C284.403 114.086 284.406 114.424 284.412 114.711C284.424 114.998 284.487 115.24 284.601 115.438C284.816 115.809 285.157 116.021 285.624 116.075C286.096 116.123 286.649 116.102 287.284 116.012V117.6ZM280.662 109.417V107.91H287.284V109.417H280.662ZM289.506 106.321V104.5H291.381V106.321H289.506ZM289.506 117.6V107.91H291.381V117.6H289.506ZM294.964 117.6V107.569C294.964 107.323 294.973 107.063 294.991 106.788C295.009 106.507 295.06 106.232 295.144 105.962C295.233 105.687 295.38 105.436 295.583 105.209C295.829 104.94 296.098 104.748 296.391 104.634C296.684 104.521 296.974 104.455 297.261 104.437C297.554 104.419 297.824 104.41 298.069 104.41H299.289V105.953H298.159C297.716 105.953 297.384 106.064 297.163 106.285C296.947 106.501 296.84 106.809 296.84 107.21V117.6H294.964ZM293.358 109.417V107.91H299.289V109.417H293.358ZM301.173 106.321V104.5H303.049V106.321H301.173ZM301.173 117.6V107.91H303.049V117.6H301.173ZM309.893 117.869C308.9 117.869 308.057 117.648 307.363 117.205C306.669 116.763 306.136 116.155 305.765 115.384C305.401 114.612 305.215 113.736 305.209 112.755C305.215 111.756 305.407 110.874 305.783 110.108C306.16 109.336 306.699 108.732 307.399 108.295C308.098 107.859 308.939 107.64 309.92 107.64C310.979 107.64 311.882 107.904 312.63 108.43C313.383 108.956 313.88 109.677 314.119 110.592L312.253 111.131C312.067 110.586 311.762 110.165 311.338 109.866C310.919 109.561 310.437 109.408 309.893 109.408C309.277 109.408 308.771 109.555 308.377 109.848C307.982 110.135 307.689 110.53 307.497 111.032C307.306 111.535 307.207 112.109 307.201 112.755C307.207 113.754 307.434 114.561 307.883 115.177C308.338 115.794 309.008 116.102 309.893 116.102C310.497 116.102 310.985 115.964 311.355 115.689C311.732 115.408 312.019 115.007 312.217 114.487L314.119 114.935C313.802 115.88 313.279 116.607 312.549 117.116C311.819 117.618 310.934 117.869 309.893 117.869ZM318.561 117.869C317.843 117.869 317.242 117.738 316.758 117.474C316.273 117.205 315.905 116.852 315.654 116.416C315.409 115.973 315.286 115.489 315.286 114.962C315.286 114.472 315.373 114.041 315.546 113.67C315.72 113.299 315.977 112.985 316.318 112.728C316.659 112.465 317.078 112.252 317.574 112.091C318.005 111.965 318.492 111.855 319.037 111.759C319.581 111.663 320.152 111.573 320.75 111.49C321.355 111.406 321.953 111.322 322.545 111.238L321.863 111.615C321.875 110.856 321.713 110.293 321.379 109.928C321.05 109.558 320.481 109.372 319.674 109.372C319.165 109.372 318.699 109.492 318.274 109.731C317.849 109.964 317.553 110.353 317.386 110.897L315.636 110.359C315.875 109.528 316.33 108.867 317 108.376C317.676 107.886 318.573 107.64 319.692 107.64C320.559 107.64 321.313 107.79 321.953 108.089C322.599 108.382 323.071 108.849 323.37 109.489C323.526 109.806 323.622 110.141 323.658 110.494C323.693 110.847 323.711 111.226 323.711 111.633V117.6H322.051V115.384L322.374 115.671C321.974 116.413 321.462 116.966 320.84 117.331C320.224 117.69 319.464 117.869 318.561 117.869ZM318.893 116.335C319.425 116.335 319.883 116.242 320.266 116.057C320.649 115.865 320.957 115.623 321.19 115.33C321.423 115.037 321.576 114.732 321.648 114.415C321.749 114.128 321.806 113.805 321.818 113.446C321.836 113.087 321.845 112.8 321.845 112.584L322.455 112.809C321.863 112.898 321.325 112.979 320.84 113.051C320.356 113.123 319.916 113.194 319.521 113.266C319.132 113.332 318.785 113.413 318.48 113.509C318.223 113.598 317.993 113.706 317.789 113.832C317.592 113.957 317.433 114.11 317.314 114.289C317.2 114.469 317.143 114.687 317.143 114.944C317.143 115.195 317.206 115.429 317.332 115.644C317.457 115.853 317.649 116.021 317.906 116.147C318.163 116.272 318.492 116.335 318.893 116.335ZM331.587 117.6C330.976 117.72 330.378 117.771 329.792 117.753C329.206 117.735 328.682 117.621 328.222 117.412C327.761 117.202 327.414 116.873 327.181 116.425C326.972 116.024 326.858 115.617 326.84 115.204C326.828 114.786 326.822 114.313 326.822 113.787V105.218H328.706V113.697C328.706 114.086 328.709 114.424 328.715 114.711C328.727 114.998 328.79 115.24 328.904 115.438C329.119 115.809 329.46 116.021 329.927 116.075C330.399 116.123 330.952 116.102 331.587 116.012V117.6ZM324.965 109.417V107.91H331.587V109.417H324.965ZM333.809 106.321V104.5H335.684V106.321H333.809ZM333.809 117.6V107.91H335.684V117.6H333.809ZM342.587 117.869C341.618 117.869 340.778 117.651 340.066 117.214C339.354 116.778 338.804 116.176 338.415 115.411C338.032 114.639 337.841 113.751 337.841 112.746C337.841 111.735 338.038 110.847 338.433 110.081C338.828 109.309 339.381 108.711 340.093 108.286C340.805 107.856 341.636 107.64 342.587 107.64C343.556 107.64 344.397 107.859 345.109 108.295C345.82 108.732 346.371 109.333 346.759 110.099C347.148 110.865 347.343 111.747 347.343 112.746C347.343 113.757 347.145 114.648 346.751 115.42C346.362 116.185 345.811 116.787 345.1 117.223C344.388 117.654 343.55 117.869 342.587 117.869ZM342.587 116.102C343.514 116.102 344.205 115.791 344.66 115.168C345.12 114.54 345.351 113.733 345.351 112.746C345.351 111.735 345.117 110.927 344.651 110.323C344.19 109.713 343.502 109.408 342.587 109.408C341.959 109.408 341.442 109.552 341.035 109.839C340.628 110.12 340.326 110.512 340.129 111.014C339.931 111.511 339.833 112.088 339.833 112.746C339.833 113.763 340.066 114.576 340.532 115.186C340.999 115.797 341.684 116.102 342.587 116.102ZM356.116 117.6V112.836C356.116 112.459 356.083 112.073 356.017 111.678C355.957 111.277 355.838 110.906 355.658 110.565C355.485 110.224 355.237 109.949 354.914 109.74C354.597 109.531 354.181 109.426 353.666 109.426C353.331 109.426 353.014 109.483 352.715 109.596C352.416 109.704 352.153 109.881 351.926 110.126C351.704 110.371 351.528 110.694 351.396 111.095C351.271 111.496 351.208 111.983 351.208 112.557L350.041 112.118C350.041 111.238 350.206 110.464 350.535 109.794C350.864 109.118 351.336 108.591 351.953 108.215C352.569 107.838 353.313 107.649 354.187 107.649C354.857 107.649 355.419 107.757 355.874 107.972C356.328 108.188 356.696 108.472 356.977 108.825C357.264 109.172 357.483 109.552 357.632 109.964C357.782 110.377 357.884 110.781 357.937 111.176C357.991 111.57 358.018 111.917 358.018 112.216V117.6H356.116ZM349.306 117.6V107.91H350.983V110.709H351.208V117.6H349.306ZM366.685 117.869C365.967 117.869 365.366 117.738 364.881 117.474C364.396 117.205 364.029 116.852 363.777 116.416C363.532 115.973 363.409 115.489 363.409 114.962C363.409 114.472 363.496 114.041 363.67 113.67C363.843 113.299 364.1 112.985 364.441 112.728C364.782 112.465 365.201 112.252 365.698 112.091C366.128 111.965 366.616 111.855 367.16 111.759C367.704 111.663 368.276 111.573 368.874 111.49C369.478 111.406 370.076 111.322 370.668 111.238L369.987 111.615C369.998 110.856 369.837 110.293 369.502 109.928C369.173 109.558 368.605 109.372 367.797 109.372C367.289 109.372 366.822 109.492 366.397 109.731C365.973 109.964 365.677 110.353 365.509 110.897L363.759 110.359C363.999 109.528 364.453 108.867 365.123 108.376C365.799 107.886 366.696 107.64 367.815 107.64C368.682 107.64 369.436 107.79 370.076 108.089C370.722 108.382 371.195 108.849 371.494 109.489C371.649 109.806 371.745 110.141 371.781 110.494C371.817 110.847 371.835 111.226 371.835 111.633V117.6H370.175V115.384L370.498 115.671C370.097 116.413 369.586 116.966 368.964 117.331C368.347 117.69 367.588 117.869 366.685 117.869ZM367.017 116.335C367.549 116.335 368.007 116.242 368.389 116.057C368.772 115.865 369.08 115.623 369.314 115.33C369.547 115.037 369.699 114.732 369.771 114.415C369.873 114.128 369.93 113.805 369.942 113.446C369.96 113.087 369.969 112.8 369.969 112.584L370.579 112.809C369.987 112.898 369.448 112.979 368.964 113.051C368.479 113.123 368.039 113.194 367.645 113.266C367.256 113.332 366.909 113.413 366.604 113.509C366.347 113.598 366.116 113.706 365.913 113.832C365.715 113.957 365.557 114.11 365.437 114.289C365.324 114.469 365.267 114.687 365.267 114.944C365.267 115.195 365.33 115.429 365.455 115.644C365.581 115.853 365.772 116.021 366.03 116.147C366.287 116.272 366.616 116.335 367.017 116.335ZM380.966 117.6V112.836C380.966 112.459 380.933 112.073 380.868 111.678C380.808 111.277 380.688 110.906 380.509 110.565C380.335 110.224 380.087 109.949 379.764 109.74C379.447 109.531 379.031 109.426 378.517 109.426C378.182 109.426 377.865 109.483 377.566 109.596C377.266 109.704 377.003 109.881 376.776 110.126C376.555 110.371 376.378 110.694 376.247 111.095C376.121 111.496 376.058 111.983 376.058 112.557L374.892 112.118C374.892 111.238 375.056 110.464 375.385 109.794C375.714 109.118 376.187 108.591 376.803 108.215C377.419 107.838 378.164 107.649 379.037 107.649C379.707 107.649 380.269 107.757 380.724 107.972C381.179 108.188 381.546 108.472 381.828 108.825C382.115 109.172 382.333 109.552 382.483 109.964C382.632 110.377 382.734 110.781 382.788 111.176C382.842 111.57 382.868 111.917 382.868 112.216V117.6H380.966ZM374.156 117.6V107.91H375.834V110.709H376.058V117.6H374.156ZM388.932 117.869C388.029 117.869 387.248 117.645 386.59 117.196C385.938 116.748 385.433 116.138 385.074 115.366C384.721 114.588 384.545 113.715 384.545 112.746C384.545 111.771 384.724 110.9 385.083 110.135C385.442 109.363 385.95 108.756 386.608 108.313C387.272 107.865 388.059 107.64 388.968 107.64C389.883 107.64 390.652 107.865 391.274 108.313C391.902 108.756 392.375 109.363 392.692 110.135C393.015 110.906 393.176 111.777 393.176 112.746C393.176 113.715 393.015 114.585 392.692 115.357C392.369 116.129 391.893 116.742 391.265 117.196C390.637 117.645 389.859 117.869 388.932 117.869ZM389.192 116.173C389.809 116.173 390.311 116.027 390.7 115.734C391.089 115.441 391.373 115.037 391.552 114.522C391.732 114.008 391.821 113.416 391.821 112.746C391.821 112.076 391.729 111.484 391.543 110.969C391.364 110.455 391.083 110.054 390.7 109.767C390.323 109.48 389.841 109.336 389.255 109.336C388.633 109.336 388.122 109.489 387.721 109.794C387.32 110.099 387.021 110.509 386.824 111.023C386.632 111.538 386.536 112.112 386.536 112.746C386.536 113.386 386.632 113.966 386.824 114.487C387.021 115.001 387.314 115.411 387.703 115.716C388.098 116.021 388.594 116.173 389.192 116.173ZM391.821 117.6V110.628H391.606V104.679H393.49V117.6H391.821ZM402.33 117.869C401.612 117.869 401.011 117.738 400.527 117.474C400.042 117.205 399.674 116.852 399.423 116.416C399.178 115.973 399.055 115.489 399.055 114.962C399.055 114.472 399.142 114.041 399.315 113.67C399.489 113.299 399.746 112.985 400.087 112.728C400.428 112.465 400.847 112.252 401.343 112.091C401.774 111.965 402.261 111.855 402.806 111.759C403.35 111.663 403.921 111.573 404.52 111.49C405.124 111.406 405.722 111.322 406.314 111.238L405.632 111.615C405.644 110.856 405.483 110.293 405.148 109.928C404.819 109.558 404.25 109.372 403.443 109.372C402.934 109.372 402.468 109.492 402.043 109.731C401.618 109.964 401.322 110.353 401.155 110.897L399.405 110.359C399.644 109.528 400.099 108.867 400.769 108.376C401.445 107.886 402.342 107.64 403.461 107.64C404.328 107.64 405.082 107.79 405.722 108.089C406.368 108.382 406.841 108.849 407.14 109.489C407.295 109.806 407.391 110.141 407.427 110.494C407.463 110.847 407.481 111.226 407.481 111.633V117.6H405.821V115.384L406.144 115.671C405.743 116.413 405.231 116.966 404.609 117.331C403.993 117.69 403.233 117.869 402.33 117.869ZM402.662 116.335C403.195 116.335 403.652 116.242 404.035 116.057C404.418 115.865 404.726 115.623 404.959 115.33C405.193 115.037 405.345 114.732 405.417 114.415C405.519 114.128 405.575 113.805 405.587 113.446C405.605 113.087 405.614 112.8 405.614 112.584L406.224 112.809C405.632 112.898 405.094 112.979 404.609 113.051C404.125 113.123 403.685 113.194 403.29 113.266C402.901 113.332 402.555 113.413 402.249 113.509C401.992 113.598 401.762 113.706 401.559 113.832C401.361 113.957 401.203 114.11 401.083 114.289C400.969 114.469 400.913 114.687 400.913 114.944C400.913 115.195 400.975 115.429 401.101 115.644C401.227 115.853 401.418 116.021 401.675 116.147C401.932 116.272 402.261 116.335 402.662 116.335ZM413.956 117.869C412.963 117.869 412.12 117.648 411.426 117.205C410.732 116.763 410.199 116.155 409.829 115.384C409.464 114.612 409.278 113.736 409.272 112.755C409.278 111.756 409.47 110.874 409.846 110.108C410.223 109.336 410.762 108.732 411.462 108.295C412.161 107.859 413.002 107.64 413.983 107.64C415.042 107.64 415.945 107.904 416.693 108.43C417.446 108.956 417.943 109.677 418.182 110.592L416.316 111.131C416.13 110.586 415.825 110.165 415.401 109.866C414.982 109.561 414.5 109.408 413.956 109.408C413.34 109.408 412.834 109.555 412.44 109.848C412.045 110.135 411.752 110.53 411.56 111.032C411.369 111.535 411.27 112.109 411.264 112.755C411.27 113.754 411.497 114.561 411.946 115.177C412.401 115.794 413.071 116.102 413.956 116.102C414.56 116.102 415.048 115.964 415.419 115.689C415.795 115.408 416.083 115.007 416.28 114.487L418.182 114.935C417.865 115.88 417.342 116.607 416.612 117.116C415.882 117.618 414.997 117.869 413.956 117.869ZM425.555 117.6C424.945 117.72 424.347 117.771 423.761 117.753C423.174 117.735 422.651 117.621 422.19 117.412C421.73 117.202 421.383 116.873 421.15 116.425C420.94 116.024 420.827 115.617 420.809 115.204C420.797 114.786 420.791 114.313 420.791 113.787V105.218H422.675V113.697C422.675 114.086 422.678 114.424 422.684 114.711C422.696 114.998 422.759 115.24 422.872 115.438C423.088 115.809 423.429 116.021 423.895 116.075C424.368 116.123 424.921 116.102 425.555 116.012V117.6ZM418.933 109.417V107.91H425.555V109.417H418.933ZM427.778 106.321V104.5H429.653V106.321H427.778ZM427.778 117.6V107.91H429.653V117.6H427.778ZM436.556 117.869C435.587 117.869 434.746 117.651 434.034 117.214C433.323 116.778 432.772 116.176 432.384 115.411C432.001 114.639 431.809 113.751 431.809 112.746C431.809 111.735 432.007 110.847 432.401 110.081C432.796 109.309 433.35 108.711 434.061 108.286C434.773 107.856 435.605 107.64 436.556 107.64C437.525 107.64 438.365 107.859 439.077 108.295C439.789 108.732 440.339 109.333 440.728 110.099C441.117 110.865 441.311 111.747 441.311 112.746C441.311 113.757 441.114 114.648 440.719 115.42C440.33 116.185 439.78 116.787 439.068 117.223C438.356 117.654 437.519 117.869 436.556 117.869ZM436.556 116.102C437.483 116.102 438.174 115.791 438.629 115.168C439.089 114.54 439.319 113.733 439.319 112.746C439.319 111.735 439.086 110.927 438.62 110.323C438.159 109.713 437.471 109.408 436.556 109.408C435.928 109.408 435.41 109.552 435.004 109.839C434.597 110.12 434.295 110.512 434.097 111.014C433.9 111.511 433.801 112.088 433.801 112.746C433.801 113.763 434.034 114.576 434.501 115.186C434.968 115.797 435.653 116.102 436.556 116.102ZM450.085 117.6V112.836C450.085 112.459 450.052 112.073 449.986 111.678C449.926 111.277 449.806 110.906 449.627 110.565C449.453 110.224 449.205 109.949 448.882 109.74C448.565 109.531 448.149 109.426 447.635 109.426C447.3 109.426 446.983 109.483 446.684 109.596C446.385 109.704 446.122 109.881 445.894 110.126C445.673 110.371 445.496 110.694 445.365 111.095C445.239 111.496 445.176 111.983 445.176 112.557L444.01 112.118C444.01 111.238 444.174 110.464 444.503 109.794C444.832 109.118 445.305 108.591 445.921 108.215C446.537 107.838 447.282 107.649 448.155 107.649C448.825 107.649 449.388 107.757 449.842 107.972C450.297 108.188 450.665 108.472 450.946 108.825C451.233 109.172 451.451 109.552 451.601 109.964C451.75 110.377 451.852 110.781 451.906 111.176C451.96 111.57 451.987 111.917 451.987 112.216V117.6H450.085ZM443.274 117.6V107.91H444.952V110.709H445.176V117.6H443.274Z" fill="white"/>
<path d="M49.4715 48.8091V35.8883H51.6339V48.8091H49.4715ZM55.219 48.8091V35.8883H59.3375C59.4451 35.8883 59.6575 35.8913 59.9745 35.8973C60.2975 35.9033 60.6086 35.9242 60.9077 35.9601C61.9306 36.0917 62.795 36.4566 63.5008 37.0548C64.2127 37.647 64.751 38.4037 65.1159 39.3249C65.4808 40.2461 65.6633 41.254 65.6633 42.3487C65.6633 43.4434 65.4808 44.4513 65.1159 45.3725C64.751 46.2937 64.2127 47.0534 63.5008 47.6516C62.795 48.2438 61.9306 48.6057 60.9077 48.7373C60.6146 48.7732 60.3065 48.7941 59.9835 48.8001C59.6605 48.8061 59.4451 48.8091 59.3375 48.8091H55.219ZM57.4173 46.7723H59.3375C59.5169 46.7723 59.7442 46.7663 60.0194 46.7543C60.3005 46.7424 60.5488 46.7154 60.7641 46.6736C61.3743 46.5599 61.8708 46.2877 62.2536 45.857C62.6364 45.4264 62.9176 44.9029 63.097 44.2868C63.2825 43.6707 63.3752 43.0246 63.3752 42.3487C63.3752 41.6488 63.2825 40.9908 63.097 40.3747C62.9116 39.7586 62.6245 39.2411 62.2357 38.8224C61.8528 38.4037 61.3623 38.1375 60.7641 38.0238C60.5488 37.976 60.3005 37.949 60.0194 37.9431C59.7442 37.9311 59.5169 37.9251 59.3375 37.9251H57.4173V46.7723ZM68.6816 48.8091V35.8883H77.0263V37.9161H70.844V41.1015H75.9495V43.1293H70.844V46.7812H77.0263V48.8091H68.6816ZM80.0763 48.8091V35.8883H82.2657L88.2595 44.9957V35.8883H90.4488V48.8091H88.2595L82.2657 39.7017V48.8091H80.0763ZM96.959 48.8091V37.9161H92.7777V35.8883H103.303V37.9161H99.1214V48.8091H96.959ZM105.814 48.8091V35.8883H107.977V48.8091H105.814ZM111.562 48.8091V35.8883H119.341V38.0507H113.724V41.272H118.264V43.4254H113.724V48.8091H111.562ZM124.993 48.8091V43.5152L120.596 35.8883H123.117L126.087 41.0387L129.048 35.8883H131.57L127.182 43.5152V48.8091H124.993Z" fill="white"/>
<path d="M239.861 48.8091L243.934 35.8883H247.102L251.175 48.8091H248.95L245.253 37.2163H245.738L242.086 48.8091H239.861ZM242.131 46.0096V43.9907H248.914V46.0096H242.131ZM258.809 49.0783C257.517 49.0783 256.41 48.7971 255.489 48.2348C254.568 47.6666 253.859 46.8769 253.362 45.866C252.872 44.8551 252.627 43.6826 252.627 42.3487C252.627 41.0147 252.872 39.8423 253.362 38.8314C253.859 37.8204 254.568 37.0338 255.489 36.4715C256.41 35.9033 257.517 35.6191 258.809 35.6191C260.298 35.6191 261.54 35.993 262.533 36.7407C263.526 37.4825 264.222 38.4844 264.623 39.7466L262.443 40.3478C262.192 39.5043 261.764 38.8463 261.16 38.3738C260.556 37.8952 259.772 37.6559 258.809 37.6559C257.941 37.6559 257.218 37.8503 256.637 38.2392C256.063 38.628 255.629 39.1753 255.336 39.8812C255.049 40.5811 254.903 41.4036 254.897 42.3487C254.897 43.2938 255.04 44.1193 255.327 44.8252C255.62 45.5251 256.057 46.0694 256.637 46.4582C257.218 46.847 257.941 47.0414 258.809 47.0414C259.772 47.0414 260.556 46.8022 261.16 46.3236C261.764 45.8451 262.192 45.1871 262.443 44.3496L264.623 44.9508C264.222 46.213 263.526 47.2179 262.533 47.9656C261.54 48.7074 260.298 49.0783 258.809 49.0783ZM270.595 48.8091V37.9161H266.414V35.8883H276.939V37.9161H272.758V48.8091H270.595Z" fill="white"/>
<path d="M383.006 48.8091V35.8883H384.953L389.421 45.0405L393.89 35.8883H395.837V48.8091H393.818V40.5272L389.852 48.8091H388.99L385.033 40.5272V48.8091H383.006ZM404.719 49.0783C403.427 49.0783 402.32 48.7971 401.399 48.2348C400.478 47.6666 399.769 46.8769 399.273 45.866C398.782 44.8551 398.537 43.6826 398.537 42.3487C398.537 41.0147 398.782 39.8423 399.273 38.8314C399.769 37.8204 400.478 37.0338 401.399 36.4715C402.32 35.9033 403.427 35.6191 404.719 35.6191C406.011 35.6191 407.118 35.9033 408.039 36.4715C408.966 37.0338 409.675 37.8204 410.166 38.8314C410.662 39.8423 410.91 41.0147 410.91 42.3487C410.91 43.6826 410.662 44.8551 410.166 45.866C409.675 46.8769 408.966 47.6666 408.039 48.2348C407.118 48.7971 406.011 49.0783 404.719 49.0783ZM404.719 47.0414C405.586 47.0474 406.307 46.856 406.882 46.4672C407.462 46.0784 407.895 45.531 408.183 44.8252C408.476 44.1193 408.622 43.2938 408.622 42.3487C408.622 41.4036 408.476 40.584 408.183 39.8902C407.895 39.1903 407.462 38.6459 406.882 38.2571C406.307 37.8683 405.586 37.6679 404.719 37.6559C403.852 37.65 403.131 37.8414 402.557 38.2302C401.982 38.619 401.549 39.1664 401.256 39.8722C400.968 40.5781 400.825 41.4036 400.825 42.3487C400.825 43.2938 400.968 44.1163 401.256 44.8162C401.543 45.5101 401.973 46.0515 402.548 46.4403C403.128 46.8291 403.852 47.0295 404.719 47.0414ZM413.594 48.8091V35.8883H415.783L421.777 44.9957V35.8883H423.966V48.8091H421.777L415.783 39.7017V48.8091H413.594ZM427.551 48.8091V35.8883H429.714V48.8091H427.551ZM436.403 48.8091V37.9161H432.222V35.8883H442.747V37.9161H438.566V48.8091H436.403ZM450.543 49.0783C449.251 49.0783 448.145 48.7971 447.223 48.2348C446.302 47.6666 445.593 46.8769 445.097 45.866C444.606 44.8551 444.361 43.6826 444.361 42.3487C444.361 41.0147 444.606 39.8423 445.097 38.8314C445.593 37.8204 446.302 37.0338 447.223 36.4715C448.145 35.9033 449.251 35.6191 450.543 35.6191C451.835 35.6191 452.942 35.9033 453.863 36.4715C454.79 37.0338 455.499 37.8204 455.99 38.8314C456.486 39.8423 456.734 41.0147 456.734 42.3487C456.734 43.6826 456.486 44.8551 455.99 45.866C455.499 46.8769 454.79 47.6666 453.863 48.2348C452.942 48.7971 451.835 49.0783 450.543 49.0783ZM450.543 47.0414C451.411 47.0474 452.131 46.856 452.706 46.4672C453.286 46.0784 453.72 45.531 454.007 44.8252C454.3 44.1193 454.446 43.2938 454.446 42.3487C454.446 41.4036 454.3 40.584 454.007 39.8902C453.72 39.1903 453.286 38.6459 452.706 38.2571C452.131 37.8683 451.411 37.6679 450.543 37.6559C449.676 37.65 448.955 37.8414 448.381 38.2302C447.807 38.619 447.373 39.1664 447.08 39.8722C446.793 40.5781 446.649 41.4036 446.649 42.3487C446.649 43.2938 446.793 44.1163 447.08 44.8162C447.367 45.5101 447.798 46.0515 448.372 46.4403C448.952 46.8291 449.676 47.0295 450.543 47.0414ZM459.418 48.8091V35.8883H464.757C464.882 35.8883 465.044 35.8943 465.241 35.9062C465.438 35.9122 465.621 35.9302 465.788 35.9601C466.536 36.0737 467.152 36.322 467.637 36.7048C468.127 37.0877 468.489 37.5722 468.723 38.1584C468.962 38.7387 469.081 39.3847 469.081 40.0965C469.081 41.1493 468.815 42.0556 468.283 42.8153C467.75 43.569 466.934 44.0356 465.833 44.215L464.909 44.2958H461.58V48.8091H459.418ZM466.838 48.8091L464.29 43.551L466.488 43.0665L469.288 48.8091H466.838ZM461.58 42.2769H464.667C464.786 42.2769 464.921 42.2709 465.071 42.259C465.22 42.247 465.358 42.2231 465.483 42.1872C465.842 42.0975 466.123 41.9389 466.327 41.7116C466.536 41.4843 466.683 41.2271 466.766 40.94C466.856 40.6528 466.901 40.3717 466.901 40.0965C466.901 39.8214 466.856 39.5402 466.766 39.2531C466.683 38.96 466.536 38.6998 466.327 38.4725C466.123 38.2451 465.842 38.0866 465.483 37.9969C465.358 37.961 465.22 37.9401 465.071 37.9341C464.921 37.9221 464.786 37.9161 464.667 37.9161H461.58V42.2769Z" fill="white"/>
<defs>
<filter id="filter0_d_22341_37223" x="40.4142" y="139.473" width="438.17" height="83.7457" filterUnits="userSpaceOnUse" color-interpolation-filters="sRGB">
<feFlood flood-opacity="0" result="BackgroundImageFix"/>
<feColorMatrix in="SourceAlpha" type="matrix" values="0 0 0 0 0 0 0 0 0 0 0 0 0 0 0 0 0 0 127 0" result="hardAlpha"/>
<feOffset/>
<feGaussianBlur stdDeviation="5.98184"/>
<feComposite in2="hardAlpha" operator="out"/>
<feColorMatrix type="matrix" values="0 0 0 0 0.185399 0 0 0 0 0.315128 0 0 0 0 0.387777 0 0 0 0.25 0"/>
<feBlend mode="normal" in2="BackgroundImageFix" result="effect1_dropShadow_22341_37223"/>
<feBlend mode="normal" in="SourceGraphic" in2="effect1_dropShadow_22341_37223" result="shape"/>
</filter>
<filter id="filter1_d_22341_37223" x="13.4953" y="69.1867" width="489.015" height="97.2047" filterUnits="userSpaceOnUse" color-interpolation-filters="sRGB">
<feFlood flood-opacity="0" result="BackgroundImageFix"/>
<feColorMatrix in="SourceAlpha" type="matrix" values="0 0 0 0 0 0 0 0 0 0 0 0 0 0 0 0 0 0 127 0" result="hardAlpha"/>
<feOffset/>
<feGaussianBlur stdDeviation="5.98184"/>
<feComposite in2="hardAlpha" operator="out"/>
<feColorMatrix type="matrix" values="0 0 0 0 0.185399 0 0 0 0 0.315128 0 0 0 0 0.387777 0 0 0 0.25 0"/>
<feBlend mode="normal" in2="BackgroundImageFix" result="effect1_dropShadow_22341_37223"/>
<feBlend mode="normal" in="SourceGraphic" in2="effect1_dropShadow_22341_37223" result="shape"/>
</filter>
<filter id="filter2_d_22341_37223" x="0.0363159" y="0.395203" width="180.687" height="97.2052" filterUnits="userSpaceOnUse" color-interpolation-filters="sRGB">
<feFlood flood-opacity="0" result="BackgroundImageFix"/>
<feColorMatrix in="SourceAlpha" type="matrix" values="0 0 0 0 0 0 0 0 0 0 0 0 0 0 0 0 0 0 127 0" result="hardAlpha"/>
<feOffset/>
<feGaussianBlur stdDeviation="5.98184"/>
<feComposite in2="hardAlpha" operator="out"/>
<feColorMatrix type="matrix" values="0 0 0 0 0.185399 0 0 0 0 0.315128 0 0 0 0 0.387777 0 0 0 0.25 0"/>
<feBlend mode="normal" in2="BackgroundImageFix" result="effect1_dropShadow_22341_37223"/>
<feBlend mode="normal" in="SourceGraphic" in2="effect1_dropShadow_22341_37223" result="shape"/>
</filter>
<filter id="filter3_d_22341_37223" x="168.406" y="0.395203" width="180.687" height="97.2047" filterUnits="userSpaceOnUse" color-interpolation-filters="sRGB">
<feFlood flood-opacity="0" result="BackgroundImageFix"/>
<feColorMatrix in="SourceAlpha" type="matrix" values="0 0 0 0 0 0 0 0 0 0 0 0 0 0 0 0 0 0 127 0" result="hardAlpha"/>
<feOffset/>
<feGaussianBlur stdDeviation="5.98184"/>
<feComposite in2="hardAlpha" operator="out"/>
<feColorMatrix type="matrix" values="0 0 0 0 0.185399 0 0 0 0 0.315128 0 0 0 0 0.387777 0 0 0 0.25 0"/>
<feBlend mode="normal" in2="BackgroundImageFix" result="effect1_dropShadow_22341_37223"/>
<feBlend mode="normal" in="SourceGraphic" in2="effect1_dropShadow_22341_37223" result="shape"/>
</filter>
<filter id="filter4_d_22341_37223" x="336.779" y="0.395203" width="180.687" height="97.2047" filterUnits="userSpaceOnUse" color-interpolation-filters="sRGB">
<feFlood flood-opacity="0" result="BackgroundImageFix"/>
<feColorMatrix in="SourceAlpha" type="matrix" values="0 0 0 0 0 0 0 0 0 0 0 0 0 0 0 0 0 0 127 0" result="hardAlpha"/>
<feOffset/>
<feGaussianBlur stdDeviation="5.98184"/>
<feComposite in2="hardAlpha" operator="out"/>
<feColorMatrix type="matrix" values="0 0 0 0 0.185399 0 0 0 0 0.315128 0 0 0 0 0.387777 0 0 0 0.25 0"/>
<feBlend mode="normal" in2="BackgroundImageFix" result="effect1_dropShadow_22341_37223"/>
<feBlend mode="normal" in="SourceGraphic" in2="effect1_dropShadow_22341_37223" result="shape"/>
</filter>
</defs>
</svg>
