<svg width="505" height="135" viewBox="0 0 505 135" fill="none" xmlns="http://www.w3.org/2000/svg">
<g filter="url(#filter0_dd_22423_15859)">
<rect x="26" y="25.9443" width="453" height="83.088" rx="4.88753" fill="#FAFBFD"/>
<rect x="40.6621" y="40.6069" width="50.0972" height="53.7628" rx="4.88753" fill="#E8F2F7"/>
<path d="M61.9589 74.7449C61.0865 74.7449 60.3167 74.5596 59.6496 74.1889C58.9824 73.8126 58.4607 73.2908 58.0843 72.6237C57.7137 71.9565 57.5284 71.1868 57.5284 70.3143V66.3457C57.5284 65.4732 57.7137 64.7035 58.0843 64.0363C58.4607 63.3692 58.9824 62.8503 59.6496 62.4796C60.3167 62.1033 61.0865 61.9151 61.9589 61.9151C62.8313 61.9151 63.5983 62.1033 64.2597 62.4796C64.9269 62.8503 65.4486 63.3692 65.825 64.0363C66.2013 64.7035 66.3895 65.4732 66.3895 66.3457V70.3143C66.3895 71.1868 66.2013 71.9565 65.825 72.6237C65.4486 73.2908 64.9269 73.8126 64.2597 74.1889C63.5983 74.5596 62.8313 74.7449 61.9589 74.7449ZM61.9589 72.7862C62.3923 72.7862 62.7857 72.6836 63.1393 72.4783C63.4928 72.2673 63.7722 71.9879 63.9775 71.6401C64.1827 71.2865 64.2854 70.8931 64.2854 70.4597V66.1917C64.2854 65.7526 64.1827 65.3592 63.9775 65.0114C63.7722 64.6578 63.4928 64.3784 63.1393 64.1732C62.7857 63.9622 62.3923 63.8567 61.9589 63.8567C61.5256 63.8567 61.1321 63.9622 60.7786 64.1732C60.4251 64.3784 60.1456 64.6578 59.9404 65.0114C59.7351 65.3592 59.6325 65.7526 59.6325 66.1917V70.4597C59.6325 70.8931 59.7351 71.2865 59.9404 71.6401C60.1456 71.9879 60.4251 72.2673 60.7786 72.4783C61.1321 72.6836 61.5256 72.7862 61.9589 72.7862ZM70.9261 74.4883V64.4212L68.6168 65.8325V63.5573L70.9261 62.1717H73.0302V74.4883H70.9261Z" fill="#186491"/>
<rect x="95.6475" y="40.6069" width="368.69" height="53.7628" rx="4.88753" fill="#D2E4EF"/>
<path d="M106.869 72.4883V62.4083H112.84V63.8713H108.332V66.7133H112V68.1833H108.332V72.4883H106.869ZM115.963 72.6983C115.403 72.6983 114.934 72.5956 114.556 72.3903C114.178 72.1803 113.891 71.9049 113.695 71.5643C113.503 71.2189 113.408 70.8409 113.408 70.4303C113.408 70.0476 113.475 69.7116 113.611 69.4223C113.746 69.1329 113.947 68.8879 114.213 68.6873C114.479 68.4819 114.805 68.3163 115.193 68.1903C115.529 68.0923 115.909 68.0059 116.334 67.9313C116.758 67.8566 117.204 67.7866 117.671 67.7213C118.142 67.6559 118.609 67.5906 119.071 67.5253L118.539 67.8193C118.548 67.2266 118.422 66.7879 118.161 66.5033C117.904 66.2139 117.461 66.0693 116.831 66.0693C116.434 66.0693 116.07 66.1626 115.739 66.3493C115.407 66.5313 115.176 66.8346 115.046 67.2593L113.681 66.8393C113.867 66.1906 114.222 65.6749 114.745 65.2923C115.272 64.9096 115.972 64.7183 116.845 64.7183C117.521 64.7183 118.109 64.8349 118.609 65.0683C119.113 65.2969 119.481 65.6609 119.715 66.1603C119.836 66.4076 119.911 66.6689 119.939 66.9443C119.967 67.2196 119.981 67.5159 119.981 67.8333V72.4883H118.686V70.7593L118.938 70.9833C118.625 71.5619 118.226 71.9936 117.741 72.2783C117.26 72.5583 116.667 72.6983 115.963 72.6983ZM116.222 71.5013C116.637 71.5013 116.994 71.4289 117.293 71.2843C117.591 71.1349 117.832 70.9459 118.014 70.7173C118.196 70.4886 118.315 70.2506 118.371 70.0033C118.45 69.7793 118.494 69.5273 118.504 69.2473C118.518 68.9673 118.525 68.7433 118.525 68.5753L119.001 68.7503C118.539 68.8203 118.119 68.8833 117.741 68.9393C117.363 68.9953 117.02 69.0513 116.712 69.1073C116.408 69.1586 116.138 69.2216 115.9 69.2963C115.699 69.3663 115.519 69.4503 115.361 69.5483C115.207 69.6463 115.083 69.7653 114.99 69.9053C114.901 70.0453 114.857 70.2156 114.857 70.4163C114.857 70.6123 114.906 70.7943 115.004 70.9623C115.102 71.1256 115.251 71.2563 115.452 71.3543C115.652 71.4523 115.909 71.5013 116.222 71.5013ZM120.958 72.4883L123.786 68.6663L121.021 64.9283H122.757L124.64 67.5253L126.502 64.9283H128.238L125.473 68.6663L128.308 72.4883H126.565L124.64 69.8073L122.701 72.4883H120.958ZM136.556 72.4883C136.08 72.5816 135.613 72.6213 135.156 72.6073C134.699 72.5933 134.29 72.5046 133.931 72.3413C133.572 72.1779 133.301 71.9213 133.119 71.5713C132.956 71.2586 132.867 70.9413 132.853 70.6193C132.844 70.2926 132.839 69.9239 132.839 69.5133V62.8283H134.309V69.4433C134.309 69.7466 134.311 70.0103 134.316 70.2343C134.325 70.4583 134.374 70.6473 134.463 70.8013C134.631 71.0906 134.897 71.2563 135.261 71.2983C135.63 71.3356 136.061 71.3193 136.556 71.2493V72.4883ZM131.39 66.1043V64.9283H136.556V66.1043H131.39ZM141.091 72.6983C140.335 72.6983 139.679 72.5279 139.124 72.1873C138.569 71.8466 138.139 71.3776 137.836 70.7803C137.537 70.1783 137.388 69.4853 137.388 68.7013C137.388 67.9126 137.542 67.2196 137.85 66.6223C138.158 66.0203 138.59 65.5536 139.145 65.2223C139.7 64.8863 140.349 64.7183 141.091 64.7183C141.847 64.7183 142.503 64.8886 143.058 65.2293C143.613 65.5699 144.043 66.0389 144.346 66.6363C144.649 67.2336 144.801 67.9219 144.801 68.7013C144.801 69.4899 144.647 70.1853 144.339 70.7873C144.036 71.3846 143.606 71.8536 143.051 72.1943C142.496 72.5303 141.842 72.6983 141.091 72.6983ZM141.091 71.3193C141.814 71.3193 142.353 71.0766 142.708 70.5913C143.067 70.1013 143.247 69.4713 143.247 68.7013C143.247 67.9126 143.065 67.2826 142.701 66.8113C142.342 66.3353 141.805 66.0973 141.091 66.0973C140.601 66.0973 140.197 66.2093 139.88 66.4333C139.563 66.6526 139.327 66.9583 139.173 67.3503C139.019 67.7376 138.942 68.1879 138.942 68.7013C138.942 69.4946 139.124 70.1293 139.488 70.6053C139.852 71.0813 140.386 71.3193 141.091 71.3193ZM152.691 72.6983C151.968 72.6983 151.361 72.5233 150.871 72.1733C150.381 71.8186 150.01 71.3403 149.758 70.7383C149.506 70.1363 149.38 69.4573 149.38 68.7013C149.38 67.9453 149.504 67.2663 149.751 66.6643C150.003 66.0623 150.372 65.5886 150.857 65.2433C151.347 64.8933 151.949 64.7183 152.663 64.7183C153.372 64.7183 153.984 64.8933 154.497 65.2433C155.015 65.5886 155.414 66.0623 155.694 66.6643C155.974 67.2616 156.114 67.9406 156.114 68.7013C156.114 69.4573 155.974 70.1386 155.694 70.7453C155.419 71.3473 155.024 71.8233 154.511 72.1733C154.002 72.5233 153.396 72.6983 152.691 72.6983ZM149.135 75.8483V64.9283H150.437V70.3673H150.605V75.8483H149.135ZM152.488 71.3753C152.955 71.3753 153.34 71.2563 153.643 71.0183C153.951 70.7803 154.18 70.4606 154.329 70.0593C154.483 69.6533 154.56 69.2006 154.56 68.7013C154.56 68.2066 154.483 67.7586 154.329 67.3573C154.18 66.9559 153.949 66.6363 153.636 66.3983C153.323 66.1603 152.924 66.0413 152.439 66.0413C151.982 66.0413 151.604 66.1533 151.305 66.3773C151.011 66.6013 150.792 66.9139 150.647 67.3153C150.507 67.7166 150.437 68.1786 150.437 68.7013C150.437 69.2239 150.507 69.6859 150.647 70.0873C150.787 70.4886 151.009 70.8036 151.312 71.0323C151.615 71.2609 152.007 71.3753 152.488 71.3753ZM159.795 72.6983C159.235 72.6983 158.766 72.5956 158.388 72.3903C158.01 72.1803 157.723 71.9049 157.527 71.5643C157.335 71.2189 157.24 70.8409 157.24 70.4303C157.24 70.0476 157.307 69.7116 157.443 69.4223C157.578 69.1329 157.779 68.8879 158.045 68.6873C158.311 68.4819 158.637 68.3163 159.025 68.1903C159.361 68.0923 159.741 68.0059 160.166 67.9313C160.59 67.8566 161.036 67.7866 161.503 67.7213C161.974 67.6559 162.441 67.5906 162.903 67.5253L162.371 67.8193C162.38 67.2266 162.254 66.7879 161.993 66.5033C161.736 66.2139 161.293 66.0693 160.663 66.0693C160.266 66.0693 159.902 66.1626 159.571 66.3493C159.239 66.5313 159.008 66.8346 158.878 67.2593L157.513 66.8393C157.699 66.1906 158.054 65.6749 158.577 65.2923C159.104 64.9096 159.804 64.7183 160.677 64.7183C161.353 64.7183 161.941 64.8349 162.441 65.0683C162.945 65.2969 163.313 65.6609 163.547 66.1603C163.668 66.4076 163.743 66.6689 163.771 66.9443C163.799 67.2196 163.813 67.5159 163.813 67.8333V72.4883H162.518V70.7593L162.77 70.9833C162.457 71.5619 162.058 71.9936 161.573 72.2783C161.092 72.5583 160.499 72.6983 159.795 72.6983ZM160.054 71.5013C160.469 71.5013 160.826 71.4289 161.125 71.2843C161.423 71.1349 161.664 70.9459 161.846 70.7173C162.028 70.4886 162.147 70.2506 162.203 70.0033C162.282 69.7793 162.326 69.5273 162.336 69.2473C162.35 68.9673 162.357 68.7433 162.357 68.5753L162.833 68.7503C162.371 68.8203 161.951 68.8833 161.573 68.9393C161.195 68.9953 160.852 69.0513 160.544 69.1073C160.24 69.1586 159.97 69.2216 159.732 69.2963C159.531 69.3663 159.351 69.4503 159.193 69.5483C159.039 69.6463 158.915 69.7653 158.822 69.9053C158.733 70.0453 158.689 70.2156 158.689 70.4163C158.689 70.6123 158.738 70.7943 158.836 70.9623C158.934 71.1256 159.083 71.2563 159.284 71.3543C159.484 71.4523 159.741 71.5013 160.054 71.5013ZM169.956 72.4883C169.48 72.5816 169.014 72.6213 168.556 72.6073C168.099 72.5933 167.691 72.5046 167.331 72.3413C166.972 72.1779 166.701 71.9213 166.519 71.5713C166.356 71.2586 166.267 70.9413 166.253 70.6193C166.244 70.2926 166.239 69.9239 166.239 69.5133V62.8283H167.709V69.4433C167.709 69.7466 167.712 70.0103 167.716 70.2343C167.726 70.4583 167.775 70.6473 167.863 70.8013C168.031 71.0906 168.297 71.2563 168.661 71.2983C169.03 71.3356 169.462 71.3193 169.956 71.2493V72.4883ZM164.79 66.1043V64.9283H169.956V66.1043H164.79ZM171.69 63.6893V62.2683H173.153V63.6893H171.69ZM171.69 72.4883V64.9283H173.153V72.4883H171.69ZM178.608 72.6983C177.857 72.6983 177.197 72.5349 176.627 72.2083C176.063 71.8769 175.622 71.4173 175.304 70.8293C174.992 70.2366 174.835 69.5506 174.835 68.7713C174.835 67.9453 174.989 67.2289 175.297 66.6223C175.61 66.0156 176.044 65.5466 176.599 65.2153C177.155 64.8839 177.801 64.7183 178.538 64.7183C179.308 64.7183 179.964 64.8979 180.505 65.2573C181.047 65.6119 181.45 66.1183 181.716 66.7763C181.987 67.4343 182.094 68.2159 182.038 69.1213H180.575V68.5893C180.566 67.7119 180.398 67.0633 180.071 66.6433C179.749 66.2233 179.257 66.0133 178.594 66.0133C177.862 66.0133 177.311 66.2443 176.942 66.7063C176.574 67.1683 176.389 67.8356 176.389 68.7083C176.389 69.5389 176.574 70.1829 176.942 70.6403C177.311 71.0929 177.843 71.3193 178.538 71.3193C178.996 71.3193 179.39 71.2166 179.721 71.0113C180.057 70.8013 180.319 70.5026 180.505 70.1153L181.94 70.5703C181.646 71.2469 181.201 71.7719 180.603 72.1453C180.006 72.5139 179.341 72.6983 178.608 72.6983ZM175.913 69.1213V67.9803H181.31V69.1213H175.913ZM188.71 72.4883V68.7713C188.71 68.4773 188.684 68.1763 188.633 67.8683C188.586 67.5556 188.493 67.2663 188.353 67.0003C188.217 66.7343 188.024 66.5196 187.772 66.3563C187.524 66.1929 187.2 66.1113 186.799 66.1113C186.537 66.1113 186.29 66.1556 186.057 66.2443C185.823 66.3283 185.618 66.4659 185.441 66.6573C185.268 66.8486 185.13 67.1006 185.028 67.4133C184.93 67.7259 184.881 68.1063 184.881 68.5543L183.971 68.2113C183.971 67.5253 184.099 66.9209 184.356 66.3983C184.612 65.8709 184.981 65.4603 185.462 65.1663C185.942 64.8723 186.523 64.7253 187.205 64.7253C187.727 64.7253 188.166 64.8093 188.521 64.9773C188.875 65.1453 189.162 65.3669 189.382 65.6423C189.606 65.9129 189.776 66.2093 189.893 66.5313C190.009 66.8533 190.089 67.1683 190.131 67.4763C190.173 67.7843 190.194 68.0549 190.194 68.2883V72.4883H188.71ZM183.397 72.4883V64.9283H184.706V67.1123H184.881V72.4883H183.397ZM196.343 72.4883C195.867 72.5816 195.4 72.6213 194.943 72.6073C194.486 72.5933 194.077 72.5046 193.718 72.3413C193.359 72.1779 193.088 71.9213 192.906 71.5713C192.743 71.2586 192.654 70.9413 192.64 70.6193C192.631 70.2926 192.626 69.9239 192.626 69.5133V62.8283H194.096V69.4433C194.096 69.7466 194.098 70.0103 194.103 70.2343C194.112 70.4583 194.161 70.6473 194.25 70.8013C194.418 71.0906 194.684 71.2563 195.048 71.2983C195.417 71.3356 195.848 71.3193 196.343 71.2493V72.4883ZM191.177 66.1043V64.9283H196.343V66.1043H191.177Z" fill="#1C79AE"/>
<rect x="420.962" y="50.9928" width="32.9908" height="32.9908" rx="16.4954" fill="#186491"/>
<rect x="420.962" y="50.9928" width="32.9908" height="32.9908" rx="16.4954" stroke="#E8F2F7" stroke-width="1.22188"/>
<path d="M433.792 61.7711C433.792 60.7688 434.593 59.9383 435.624 59.9383H441.18C441.667 59.9383 442.154 60.1388 442.498 60.4824L443.328 61.3129C443.672 61.6566 443.872 62.1434 443.872 62.6303V64.5204H442.039V62.6303L441.18 61.7711H435.624V64.5204H433.792V61.7711ZM430.126 64.5204C430.126 64.0335 430.527 63.604 431.042 63.604H431.959C432.446 63.604 432.875 64.0335 432.875 64.5204V73.6845C432.875 74.2 432.446 74.6009 431.959 74.6009H431.042C430.527 74.6009 430.126 74.2 430.126 73.6845V64.5204ZM443.872 65.4368C444.359 65.4368 444.789 65.8663 444.789 66.3532V73.6845C444.789 74.2 444.359 74.6009 443.872 74.6009H434.708C434.193 74.6009 433.792 74.2 433.792 73.6845V65.4368H443.872ZM437.457 67.2696C436.942 67.2696 436.541 67.6992 436.541 68.186C436.541 68.7015 436.942 69.1024 437.457 69.1024C437.944 69.1024 438.374 68.7015 438.374 68.186C438.374 67.6992 437.944 67.2696 437.457 67.2696ZM440.207 68.186C440.207 68.7015 440.607 69.1024 441.123 69.1024C441.61 69.1024 442.039 68.7015 442.039 68.186C442.039 67.6992 441.61 67.2696 441.123 67.2696C440.607 67.2696 440.207 67.6992 440.207 68.186ZM441.123 70.9352C440.607 70.9352 440.207 71.3648 440.207 71.8517C440.207 72.3671 440.607 72.7681 441.123 72.7681C441.61 72.7681 442.039 72.3671 442.039 71.8517C442.039 71.3648 441.61 70.9352 441.123 70.9352ZM436.541 71.8517C436.541 72.3671 436.942 72.7681 437.457 72.7681C437.944 72.7681 438.374 72.3671 438.374 71.8517C438.374 71.3648 437.944 70.9352 437.457 70.9352C436.942 70.9352 436.541 71.3648 436.541 71.8517Z" fill="#E8F2F7"/>
</g>
<defs>
<filter id="filter0_dd_22423_15859" x="0.887527" y="0.831863" width="503.225" height="133.313" filterUnits="userSpaceOnUse" color-interpolation-filters="sRGB">
<feFlood flood-opacity="0" result="BackgroundImageFix"/>
<feColorMatrix in="SourceAlpha" type="matrix" values="0 0 0 0 0 0 0 0 0 0 0 0 0 0 0 0 0 0 127 0" result="hardAlpha"/>
<feMorphology radius="2.44376" operator="erode" in="SourceAlpha" result="effect1_dropShadow_22423_15859"/>
<feOffset dy="4.88753"/>
<feGaussianBlur stdDeviation="3.66565"/>
<feColorMatrix type="matrix" values="0 0 0 0 0.278431 0 0 0 0 0.776471 0 0 0 0 1 0 0 0 0.06 0"/>
<feBlend mode="normal" in2="BackgroundImageFix" result="effect1_dropShadow_22423_15859"/>
<feColorMatrix in="SourceAlpha" type="matrix" values="0 0 0 0 0 0 0 0 0 0 0 0 0 0 0 0 0 0 127 0" result="hardAlpha"/>
<feMorphology radius="4.88753" operator="erode" in="SourceAlpha" result="effect2_dropShadow_22423_15859"/>
<feOffset/>
<feGaussianBlur stdDeviation="15"/>
<feColorMatrix type="matrix" values="0 0 0 0 0.0941176 0 0 0 0 0.392157 0 0 0 0 0.568627 0 0 0 0.16 0"/>
<feBlend mode="normal" in2="effect1_dropShadow_22423_15859" result="effect2_dropShadow_22423_15859"/>
<feBlend mode="normal" in="SourceGraphic" in2="effect2_dropShadow_22423_15859" result="shape"/>
</filter>
</defs>
</svg>
