<svg width="507" height="142" viewBox="0 0 507 142" fill="none" xmlns="http://www.w3.org/2000/svg">
<g filter="url(#filter0_dd_22423_19368)">
<rect x="27" y="26.9443" width="453" height="87.959" rx="5.17406" fill="#FAFBFD"/>
<rect x="42.5225" y="42.4663" width="53.0341" height="56.9147" rx="5.17406" fill="#A4CADF"/>
<path d="M63.776 77.6955C62.8524 77.6955 62.0375 77.4993 61.3313 77.1069C60.625 76.7085 60.0727 76.1562 59.6743 75.4499C59.2819 74.7437 59.0857 73.9288 59.0857 73.0052V68.8038C59.0857 67.8803 59.2819 67.0654 59.6743 66.3591C60.0727 65.6528 60.625 65.1035 61.3313 64.7112C62.0375 64.3128 62.8524 64.1136 63.776 64.1136C64.6996 64.1136 65.5115 64.3128 66.2117 64.7112C66.9179 65.1035 67.4703 65.6528 67.8687 66.3591C68.2671 67.0654 68.4663 67.8803 68.4663 68.8038V73.0052C68.4663 73.9288 68.2671 74.7437 67.8687 75.4499C67.4703 76.1562 66.9179 76.7085 66.2117 77.1069C65.5115 77.4993 64.6996 77.6955 63.776 77.6955ZM63.776 75.622C64.2348 75.622 64.6513 75.5133 65.0255 75.296C65.3998 75.0726 65.6956 74.7769 65.9129 74.4086C66.1302 74.0344 66.2388 73.6179 66.2388 73.1591V68.6409C66.2388 68.1761 66.1302 67.7595 65.9129 67.3913C65.6956 67.0171 65.3998 66.7213 65.0255 66.504C64.6513 66.2806 64.2348 66.169 63.776 66.169C63.3172 66.169 62.9007 66.2806 62.5265 66.504C62.1522 66.7213 61.8564 67.0171 61.6391 67.3913C61.4218 67.7595 61.3131 68.1761 61.3131 68.6409V73.1591C61.3131 73.6179 61.4218 74.0344 61.6391 74.4086C61.8564 74.7769 62.1522 75.0726 62.5265 75.296C62.9007 75.5133 63.3172 75.622 63.776 75.622ZM74.7357 77.6683C74.0838 77.6683 73.4681 77.5415 72.8886 77.288C72.3091 77.0345 71.8051 76.6753 71.3765 76.2105C70.9539 75.7457 70.6491 75.1964 70.462 74.5626L72.5717 73.9921C72.7226 74.5113 72.9973 74.9127 73.3957 75.1964C73.8001 75.4741 74.2438 75.6099 74.7267 75.6039C75.1553 75.6039 75.5386 75.5043 75.8766 75.3051C76.2147 75.1058 76.4803 74.8372 76.6734 74.4992C76.8666 74.1551 76.9632 73.7718 76.9632 73.3493C76.9632 72.7034 76.7549 72.1631 76.3384 71.7285C75.9219 71.2939 75.3847 71.0765 74.7267 71.0765C74.5275 71.0765 74.3313 71.1037 74.1381 71.158C73.951 71.2124 73.7699 71.2878 73.5949 71.3844L72.5989 69.664L76.9813 65.9154L77.1714 66.4406H70.969V64.3852H78.9642V66.4496L75.442 69.8361L75.4239 69.1932C76.2147 69.2475 76.8877 69.4678 77.4431 69.8542C78.0045 70.2405 78.433 70.7385 78.7288 71.3482C79.0307 71.9579 79.1816 72.6249 79.1816 73.3493C79.1816 74.1702 78.9793 74.9066 78.5749 75.5586C78.1765 76.2105 77.6393 76.7266 76.9632 77.1069C76.2931 77.4812 75.5507 77.6683 74.7357 77.6683Z" fill="#186491"/>
<rect x="100.73" y="42.4663" width="363.747" height="56.9147" rx="5.17406" fill="#D2E4EF"/>
<path d="M111.486 75.9238L114.458 66.7773H116.37L119.343 75.9238H117.965L115.227 67.5776H115.57L112.864 75.9238H111.486ZM113.029 73.8595V72.6146H117.806V73.8595H113.029ZM120.61 75.9238V66.7773H121.937V75.9238H120.61ZM130.205 76.1144C129.29 76.1144 128.511 75.9154 127.868 75.5173C127.224 75.115 126.731 74.5561 126.388 73.8405C126.049 73.1248 125.879 72.2949 125.879 71.3506C125.879 70.4063 126.049 69.5763 126.388 68.8607C126.731 68.145 127.224 67.5882 127.868 67.1902C128.511 66.7879 129.29 66.5868 130.205 66.5868C131.259 66.5868 132.132 66.8535 132.822 67.3871C133.516 67.9206 133.999 68.6384 134.27 69.5403L132.924 69.9024C132.746 69.263 132.428 68.7612 131.971 68.397C131.518 68.0328 130.929 67.8508 130.205 67.8508C129.557 67.8508 129.017 67.9968 128.585 68.289C128.153 68.5812 127.827 68.9898 127.607 69.5149C127.391 70.04 127.283 70.6519 127.283 71.3506C127.279 72.0493 127.385 72.6611 127.601 73.1862C127.821 73.7113 128.147 74.1199 128.579 74.4121C129.015 74.7043 129.557 74.8504 130.205 74.8504C130.929 74.8504 131.518 74.6683 131.971 74.3041C132.428 73.9357 132.746 73.4339 132.924 72.7988L134.27 73.1608C133.999 74.0628 133.516 74.7805 132.822 75.3141C132.132 75.8476 131.259 76.1144 130.205 76.1144ZM137.604 76.1144C137.096 76.1144 136.671 76.0212 136.328 75.8349C135.985 75.6444 135.724 75.3945 135.546 75.0854C135.373 74.772 135.286 74.429 135.286 74.0564C135.286 73.7092 135.347 73.4043 135.47 73.1418C135.593 72.8792 135.775 72.6569 136.016 72.4748C136.258 72.2885 136.554 72.1382 136.906 72.0239C137.211 71.9349 137.556 71.8566 137.941 71.7888C138.326 71.7211 138.731 71.6576 139.154 71.5983C139.582 71.539 140.005 71.4797 140.425 71.4204L139.942 71.6872C139.95 71.1494 139.836 70.7514 139.599 70.4931C139.366 70.2305 138.964 70.0993 138.392 70.0993C138.032 70.0993 137.702 70.184 137.401 70.3533C137.101 70.5185 136.891 70.7937 136.772 71.1791L135.534 70.798C135.703 70.2094 136.025 69.7415 136.499 69.3942C136.978 69.047 137.613 68.8734 138.405 68.8734C139.019 68.8734 139.552 68.9792 140.005 69.191C140.463 69.3985 140.797 69.7288 141.009 70.1818C141.119 70.4063 141.187 70.6434 141.212 70.8932C141.238 71.1431 141.25 71.412 141.25 71.6999V75.9238H140.075V74.3549L140.304 74.5582C140.02 75.0833 139.658 75.475 139.218 75.7333C138.782 75.9873 138.244 76.1144 137.604 76.1144ZM137.839 75.0282C138.216 75.0282 138.54 74.9626 138.811 74.8313C139.082 74.6958 139.3 74.5243 139.465 74.3168C139.631 74.1093 139.739 73.8934 139.789 73.669C139.861 73.4657 139.902 73.237 139.91 72.983C139.923 72.7289 139.929 72.5256 139.929 72.3732L140.361 72.532C139.942 72.5955 139.561 72.6527 139.218 72.7035C138.875 72.7543 138.564 72.8051 138.284 72.8559C138.009 72.9025 137.763 72.9597 137.547 73.0274C137.365 73.0909 137.202 73.1672 137.058 73.2561C136.918 73.345 136.806 73.453 136.722 73.58C136.641 73.7071 136.601 73.8616 136.601 74.0437C136.601 74.2216 136.645 74.3867 136.734 74.5391C136.823 74.6874 136.959 74.8059 137.141 74.8948C137.323 74.9838 137.556 75.0282 137.839 75.0282ZM143.027 75.9238V66.5868H144.354V75.9238H143.027ZM146.389 75.9238V66.5868H147.716V75.9238H146.389ZM156.092 75.9238C155.66 76.0085 155.237 76.0445 154.822 76.0318C154.407 76.0191 154.036 75.9386 153.71 75.7904C153.384 75.6422 153.139 75.4093 152.973 75.0917C152.825 74.808 152.745 74.5201 152.732 74.2279C152.724 73.9315 152.719 73.597 152.719 73.2243V67.1584H154.053V73.1608C154.053 73.4361 154.055 73.6753 154.06 73.8786C154.068 74.0818 154.113 74.2533 154.193 74.3931C154.345 74.6556 154.587 74.8059 154.917 74.844C155.252 74.8779 155.643 74.8631 156.092 74.7996V75.9238ZM151.405 70.131V69.0639H156.092V70.131H151.405ZM160.207 76.1144C159.521 76.1144 158.926 75.9598 158.422 75.6507C157.919 75.3416 157.529 74.916 157.254 74.374C156.983 73.8277 156.847 73.1989 156.847 72.4875C156.847 71.7719 156.987 71.1431 157.266 70.6011C157.546 70.0548 157.938 69.6314 158.442 69.3307C158.945 69.0258 159.534 68.8734 160.207 68.8734C160.893 68.8734 161.488 69.0279 161.992 69.3371C162.496 69.6462 162.886 70.0717 163.161 70.6138C163.436 71.1558 163.574 71.7804 163.574 72.4875C163.574 73.2032 163.434 73.8341 163.155 74.3804C162.879 74.9224 162.49 75.3479 161.986 75.6571C161.482 75.9619 160.889 76.1144 160.207 76.1144ZM160.207 74.8631C160.864 74.8631 161.353 74.6429 161.675 74.2025C162.001 73.7579 162.164 73.1862 162.164 72.4875C162.164 71.7719 161.999 71.2002 161.668 70.7726C161.342 70.3406 160.855 70.1247 160.207 70.1247C159.763 70.1247 159.396 70.2263 159.108 70.4296C158.821 70.6286 158.607 70.9059 158.467 71.2616C158.327 71.6131 158.257 72.0217 158.257 72.4875C158.257 73.2074 158.422 73.7833 158.753 74.2152C159.083 74.6471 159.568 74.8631 160.207 74.8631ZM167.513 75.9238V66.7773H171.209C171.298 66.7773 171.408 66.7815 171.54 66.79C171.671 66.7942 171.796 66.8069 171.915 66.8281C172.423 66.9086 172.846 67.0822 173.185 67.349C173.528 67.6157 173.784 67.9524 173.953 68.3589C174.123 68.7654 174.207 69.2143 174.207 69.7055C174.207 70.2009 174.123 70.6519 173.953 71.0584C173.784 71.4649 173.528 71.8015 173.185 72.0683C172.846 72.3351 172.423 72.5087 171.915 72.5892C171.796 72.6061 171.669 72.6188 171.533 72.6273C171.402 72.6357 171.294 72.64 171.209 72.64H168.84V75.9238H167.513ZM168.84 71.3823H171.159C171.243 71.3823 171.337 71.3781 171.438 71.3696C171.544 71.3612 171.644 71.3463 171.737 71.3252C172.008 71.2616 172.226 71.1452 172.391 70.9758C172.556 70.8022 172.675 70.6032 172.747 70.3787C172.819 70.1543 172.855 69.9299 172.855 69.7055C172.855 69.481 172.819 69.2587 172.747 69.0385C172.675 68.8141 172.556 68.6172 172.391 68.4478C172.226 68.2742 172.008 68.1556 171.737 68.0921C171.644 68.0667 171.544 68.0498 171.438 68.0413C171.337 68.0328 171.243 68.0286 171.159 68.0286H168.84V71.3823ZM177.204 76.1144C176.695 76.1144 176.27 76.0212 175.927 75.8349C175.584 75.6444 175.324 75.3945 175.146 75.0854C174.972 74.772 174.885 74.429 174.885 74.0564C174.885 73.7092 174.947 73.4043 175.069 73.1418C175.192 72.8792 175.374 72.6569 175.616 72.4748C175.857 72.2885 176.153 72.1382 176.505 72.0239C176.81 71.9349 177.155 71.8566 177.54 71.7888C177.926 71.7211 178.33 71.6576 178.753 71.5983C179.181 71.539 179.605 71.4797 180.024 71.4204L179.541 71.6872C179.55 71.1494 179.435 70.7514 179.198 70.4931C178.965 70.2305 178.563 70.0993 177.991 70.0993C177.631 70.0993 177.301 70.184 177 70.3533C176.7 70.5185 176.49 70.7937 176.372 71.1791L175.133 70.798C175.302 70.2094 175.624 69.7415 176.098 69.3942C176.577 69.047 177.212 68.8734 178.004 68.8734C178.618 68.8734 179.152 68.9792 179.605 69.191C180.062 69.3985 180.396 69.7288 180.608 70.1818C180.718 70.4063 180.786 70.6434 180.811 70.8932C180.837 71.1431 180.85 71.412 180.85 71.6999V75.9238H179.674V74.3549L179.903 74.5582C179.619 75.0833 179.257 75.475 178.817 75.7333C178.381 75.9873 177.843 76.1144 177.204 76.1144ZM177.439 75.0282C177.816 75.0282 178.139 74.9626 178.41 74.8313C178.681 74.6958 178.9 74.5243 179.065 74.3168C179.23 74.1093 179.338 73.8934 179.389 73.669C179.461 73.4657 179.501 73.237 179.509 72.983C179.522 72.7289 179.528 72.5256 179.528 72.3732L179.96 72.532C179.541 72.5955 179.16 72.6527 178.817 72.7035C178.474 72.7543 178.163 72.8051 177.883 72.8559C177.608 72.9025 177.362 72.9597 177.146 73.0274C176.964 73.0909 176.801 73.1672 176.657 73.2561C176.518 73.345 176.405 73.453 176.321 73.58C176.24 73.7071 176.2 73.8616 176.2 74.0437C176.2 74.2216 176.245 74.3867 176.333 74.5391C176.422 74.6874 176.558 74.8059 176.74 74.8948C176.922 74.9838 177.155 75.0282 177.439 75.0282ZM186.424 75.9238C185.992 76.0085 185.569 76.0445 185.154 76.0318C184.739 76.0191 184.368 75.9386 184.042 75.7904C183.716 75.6422 183.471 75.4093 183.306 75.0917C183.157 74.808 183.077 74.5201 183.064 74.2279C183.056 73.9315 183.052 73.597 183.052 73.2243V67.1584H184.385V73.1608C184.385 73.4361 184.387 73.6753 184.392 73.8786C184.4 74.0818 184.445 74.2533 184.525 74.3931C184.678 74.6556 184.919 74.8059 185.249 74.844C185.584 74.8779 185.975 74.8631 186.424 74.7996V75.9238ZM181.737 70.131V69.0639H186.424V70.131H181.737ZM187.998 67.9397V66.6503H189.325V67.9397H187.998ZM187.998 75.9238V69.0639H189.325V75.9238H187.998ZM194.275 76.1144C193.593 76.1144 192.994 75.9662 192.478 75.6698C191.965 75.3691 191.565 74.952 191.277 74.4185C190.993 73.8807 190.851 73.2582 190.851 72.551C190.851 71.8015 190.991 71.1515 191.271 70.6011C191.554 70.0506 191.948 69.625 192.452 69.3244C192.956 69.0237 193.542 68.8734 194.212 68.8734C194.91 68.8734 195.505 69.0364 195.996 69.3625C196.488 69.6843 196.854 70.1437 197.095 70.7408C197.341 71.3379 197.438 72.0471 197.387 72.8686H196.06V72.3859C196.051 71.5898 195.899 71.0012 195.603 70.6201C195.31 70.239 194.864 70.0485 194.262 70.0485C193.598 70.0485 193.098 70.2581 192.763 70.6773C192.429 71.0965 192.262 71.702 192.262 72.4939C192.262 73.2476 192.429 73.832 192.763 74.247C193.098 74.6577 193.581 74.8631 194.212 74.8631C194.627 74.8631 194.984 74.7699 195.285 74.5836C195.59 74.3931 195.827 74.122 195.996 73.7706L197.298 74.1834C197.032 74.7975 196.627 75.2738 196.085 75.6126C195.543 75.9471 194.94 76.1144 194.275 76.1144ZM191.83 72.8686V71.8333H196.727V72.8686H191.83ZM203.441 75.9238V72.551C203.441 72.2843 203.418 72.0111 203.371 71.7317C203.329 71.448 203.244 71.1854 203.117 70.9441C202.994 70.7027 202.819 70.5079 202.59 70.3597C202.365 70.2115 202.071 70.1374 201.707 70.1374C201.47 70.1374 201.245 70.1776 201.034 70.2581C200.822 70.3343 200.636 70.4592 200.475 70.6328C200.318 70.8064 200.193 71.0351 200.1 71.3188C200.011 71.6025 199.967 71.9476 199.967 72.3541L199.141 72.0429C199.141 71.4204 199.257 70.8721 199.49 70.3978C199.723 69.9193 200.058 69.5467 200.494 69.2799C200.93 69.0131 201.457 68.8797 202.075 68.8797C202.55 68.8797 202.948 68.956 203.27 69.1084C203.591 69.2608 203.852 69.462 204.051 69.7118C204.254 69.9574 204.409 70.2263 204.514 70.5185C204.62 70.8107 204.692 71.0965 204.73 71.376C204.769 71.6555 204.788 71.9011 204.788 72.1128V75.9238H203.441ZM198.62 75.9238V69.0639H199.808V71.0457H199.967V75.9238H198.62ZM210.367 75.9238C209.936 76.0085 209.512 76.0445 209.097 76.0318C208.682 76.0191 208.312 75.9386 207.986 75.7904C207.659 75.6422 207.414 75.4093 207.249 75.0917C207.101 74.808 207.02 74.5201 207.007 74.2279C206.999 73.9315 206.995 73.597 206.995 73.2243V67.1584H208.329V73.1608C208.329 73.4361 208.331 73.6753 208.335 73.8786C208.343 74.0818 208.388 74.2533 208.468 74.3931C208.621 74.6556 208.862 74.8059 209.192 74.844C209.527 74.8779 209.919 74.8631 210.367 74.7996V75.9238ZM205.68 70.131V69.0639H210.367V70.131H205.68Z" fill="#1C79AE"/>
<rect x="418.558" y="53.4612" width="34.9249" height="34.9249" rx="17.4625" fill="#186491"/>
<rect x="418.558" y="53.4612" width="34.9249" height="34.9249" rx="17.4625" stroke="#E8F2F7" stroke-width="1.29352"/>
<path d="M436.372 64.7101L437.786 64.1643L438.307 62.7748C438.332 62.6508 438.456 62.5763 438.58 62.5763C438.68 62.5763 438.804 62.6508 438.829 62.7748L439.374 64.1643L440.764 64.7101C440.888 64.7349 440.962 64.859 440.962 64.9582C440.962 65.0823 440.888 65.2063 440.764 65.2312L439.374 65.7522L438.829 67.1665C438.804 67.2657 438.68 67.3401 438.58 67.3401C438.456 67.3401 438.332 67.2657 438.307 67.1665L437.786 65.7522L436.372 65.2312C436.273 65.2063 436.198 65.0823 436.198 64.9582C436.198 64.859 436.273 64.7349 436.372 64.7101ZM433.345 64.4124L434.635 67.2409L437.464 68.5311C437.613 68.6055 437.712 68.7544 437.712 68.9033C437.712 69.0521 437.613 69.201 437.464 69.2506L434.635 70.5656L433.345 73.3942C433.271 73.543 433.122 73.6423 432.973 73.6423C432.824 73.6423 432.675 73.543 432.626 73.3942L431.311 70.5656L428.482 69.2754C428.333 69.201 428.259 69.0521 428.259 68.9033C428.259 68.7544 428.333 68.6055 428.482 68.5311L431.311 67.2409L432.626 64.4124C432.675 64.2635 432.824 64.1643 432.973 64.1643C433.122 64.1643 433.271 64.2635 433.345 64.4124ZM437.786 72.104L438.307 70.7145C438.332 70.5905 438.456 70.516 438.58 70.516C438.68 70.516 438.804 70.5905 438.829 70.7145L439.374 72.104L440.764 72.6498C440.888 72.6746 440.962 72.7987 440.962 72.8979C440.962 73.022 440.888 73.146 440.764 73.1709L439.374 73.6919L438.829 75.1062C438.804 75.2054 438.68 75.2798 438.58 75.2798C438.456 75.2798 438.332 75.2054 438.307 75.1062L437.786 73.6919L436.372 73.1709C436.273 73.146 436.198 73.022 436.198 72.8979C436.198 72.7987 436.273 72.6746 436.372 72.6498L437.786 72.104Z" fill="#E8F2F7"/>
</g>
<defs>
<filter id="filter0_dd_22423_19368" x="0.415296" y="0.359632" width="506.169" height="141.128" filterUnits="userSpaceOnUse" color-interpolation-filters="sRGB">
<feFlood flood-opacity="0" result="BackgroundImageFix"/>
<feColorMatrix in="SourceAlpha" type="matrix" values="0 0 0 0 0 0 0 0 0 0 0 0 0 0 0 0 0 0 127 0" result="hardAlpha"/>
<feMorphology radius="2.58703" operator="erode" in="SourceAlpha" result="effect1_dropShadow_22423_19368"/>
<feOffset dy="5.17406"/>
<feGaussianBlur stdDeviation="3.88055"/>
<feColorMatrix type="matrix" values="0 0 0 0 0.278431 0 0 0 0 0.776471 0 0 0 0 1 0 0 0 0.06 0"/>
<feBlend mode="normal" in2="BackgroundImageFix" result="effect1_dropShadow_22423_19368"/>
<feColorMatrix in="SourceAlpha" type="matrix" values="0 0 0 0 0 0 0 0 0 0 0 0 0 0 0 0 0 0 127 0" result="hardAlpha"/>
<feMorphology radius="5.17406" operator="erode" in="SourceAlpha" result="effect2_dropShadow_22423_19368"/>
<feOffset/>
<feGaussianBlur stdDeviation="15.8794"/>
<feColorMatrix type="matrix" values="0 0 0 0 0.0941176 0 0 0 0 0.392157 0 0 0 0 0.568627 0 0 0 0.16 0"/>
<feBlend mode="normal" in2="effect1_dropShadow_22423_19368" result="effect2_dropShadow_22423_19368"/>
<feBlend mode="normal" in="SourceGraphic" in2="effect2_dropShadow_22423_19368" result="shape"/>
</filter>
</defs>
</svg>
