<svg width="17" height="22" viewBox="0 0 17 22" fill="none" xmlns="http://www.w3.org/2000/svg">
<path d="M7.75781 1.60938C8.1875 1.33594 8.77344 1.33594 9.20312 1.60938L9.90625 2.03906C10.1406 2.15625 10.4141 2.23438 10.6875 2.23438L11.5078 2.19531C12.0156 2.19531 12.5234 2.46875 12.7578 2.9375L13.1484 3.64062C13.3047 3.91406 13.5 4.07031 13.7344 4.22656L14.4375 4.61719C14.9062 4.85156 15.1797 5.35938 15.1797 5.86719L15.1406 6.6875C15.1406 6.96094 15.2188 7.23438 15.3359 7.46875L15.7656 8.17188C16.0391 8.60156 16.0391 9.1875 15.7656 9.61719L15.3359 10.3203C15.2188 10.5547 15.1406 10.8281 15.1406 11.1016L15.1797 11.9219C15.1797 12.4297 14.9062 12.9375 14.4375 13.1719L13.7344 13.5625C13.4609 13.6797 13.3047 13.875 13.1484 14.1094L12.7578 14.8516C12.5234 15.3203 12.0156 15.5938 11.5078 15.5547H10.6875C10.4141 15.5547 10.1406 15.6328 9.90625 15.75L9.20312 16.1797C8.77344 16.4531 8.1875 16.4531 7.75781 16.1797L7.05469 15.75C6.82031 15.6328 6.54688 15.5547 6.27344 15.5547H5.45312C4.94531 15.5938 4.4375 15.3203 4.20312 14.8516L3.8125 14.1094C3.69531 13.875 3.5 13.6797 3.26562 13.5625L2.52344 13.1719C2.05469 12.9375 1.78125 12.4297 1.82031 11.9219V11.1016C1.82031 10.8281 1.74219 10.5547 1.625 10.3203L1.19531 9.61719C0.921875 9.1875 0.921875 8.60156 1.19531 8.17188L1.625 7.46875C1.74219 7.23438 1.82031 6.96094 1.82031 6.6875L1.78125 5.86719C1.78125 5.35938 2.05469 4.85156 2.52344 4.61719L3.26562 4.22656C3.5 4.10938 3.69531 3.91406 3.8125 3.67969L4.20312 2.9375C4.4375 2.46875 4.94531 2.19531 5.45312 2.19531L6.27344 2.23438C6.54688 2.23438 6.82031 2.15625 7.05469 2.03906L7.75781 1.60938ZM11.625 8.875C11.625 7.78125 11 6.76562 10.0625 6.17969C9.08594 5.63281 7.875 5.63281 6.9375 6.17969C5.96094 6.76562 5.375 7.78125 5.375 8.875C5.375 10.0078 5.96094 11.0234 6.9375 11.6094C7.875 12.1562 9.08594 12.1562 10.0625 11.6094C11 11.0234 11.625 10.0078 11.625 8.875ZM3.5 20.6328L4.4375 16.6094C4.75 16.7656 5.14062 16.8438 5.53125 16.8438L6.35156 16.8047C6.35156 16.8047 6.35156 16.8047 6.35156 16.8438L7.05469 17.2344C7.91406 17.7812 9.04688 17.7812 9.90625 17.2344L10.6094 16.8047L11.4297 16.8438C11.8203 16.8438 12.2109 16.7656 12.5625 16.6094L13.4609 20.6328C13.5 20.8281 13.4609 21.0625 13.3047 21.2188C13.1094 21.375 12.9141 21.4141 12.6797 21.375L8.5 20.1641L4.28125 21.375C4.08594 21.4141 3.85156 21.375 3.69531 21.2188C3.5 21.0625 3.46094 20.8281 3.5 20.6328Z" fill="#1A2C58"/>
</svg>
