<svg width="21" height="21" viewBox="0 0 21 21" fill="none" xmlns="http://www.w3.org/2000/svg">
<path d="M8.3125 4.07471C8.07812 4.46533 7.64844 4.66064 7.21875 4.54346C6.35938 4.27002 5.42188 4.46533 4.71875 5.12939C4.05469 5.79346 3.85938 6.77002 4.13281 7.59033C4.25 8.02002 4.05469 8.48877 3.66406 8.72314C2.88281 9.11377 2.375 9.93408 2.375 10.8716C2.375 11.8481 2.88281 12.6685 3.66406 13.0591C4.05469 13.2935 4.25 13.7231 4.13281 14.1528C3.85938 15.0122 4.09375 15.9497 4.75781 16.6138C5.42188 17.2778 6.35938 17.5122 7.21875 17.2388C7.64844 17.1216 8.11719 17.3169 8.3125 17.7075C8.74219 18.4888 9.5625 18.9966 10.5 18.9966C11.4375 18.9966 12.2578 18.4888 12.6484 17.7075C12.8828 17.3169 13.3516 17.1216 13.7812 17.2388C14.6016 17.5122 15.5781 17.2778 16.2422 16.6138C16.9062 15.9497 17.1016 15.0122 16.8281 14.1528C16.7109 13.7231 16.9062 13.2544 17.2969 13.0591C18.0781 12.6294 18.625 11.8091 18.625 10.8716C18.625 9.93408 18.0781 9.11377 17.2969 8.72314C16.9062 8.48877 16.7109 8.02002 16.8281 7.59033C17.1016 6.77002 16.9062 5.79346 16.2422 5.12939C15.5781 4.46533 14.6016 4.27002 13.7812 4.54346C13.3516 4.66064 12.8828 4.46533 12.6484 4.07471C12.2578 3.29346 11.4375 2.74658 10.5 2.74658C9.52344 2.74658 8.70312 3.29346 8.3125 4.07471ZM10.5 0.871582C11.8672 0.871582 13.1172 1.53564 13.9375 2.59033C15.2266 2.39502 16.5547 2.82471 17.5703 3.80127C18.5469 4.81689 18.9375 6.14502 18.7812 7.43408C19.8359 8.25439 20.5 9.50439 20.5 10.8716C20.5 12.2778 19.8359 13.5278 18.7812 14.3091C18.9766 15.5981 18.5469 16.9653 17.5703 17.9419C16.5547 18.9575 15.2266 19.3481 13.9375 19.1919C13.1172 20.2075 11.8672 20.8716 10.5 20.8716C9.09375 20.8716 7.84375 20.2075 7.0625 19.1919C5.77344 19.3481 4.40625 18.9575 3.42969 17.981C2.41406 16.9653 2.02344 15.6372 2.17969 14.3481C1.16406 13.5278 0.5 12.2778 0.5 10.8716C0.5 9.50439 1.16406 8.25439 2.17969 7.43408C2.02344 6.14502 2.41406 4.81689 3.39062 3.80127C4.40625 2.82471 5.73438 2.43408 7.02344 2.59033C7.84375 1.53564 9.09375 0.871582 10.5 0.871582ZM14.9141 9.03564L9.91406 14.0356C9.52344 14.4263 8.9375 14.4263 8.58594 14.0356L6.08594 11.5356C5.69531 11.1841 5.69531 10.5981 6.08594 10.2466C6.4375 9.85596 7.02344 9.85596 7.41406 10.2466L9.25 12.0825L13.5859 7.74658C13.9375 7.35596 14.5234 7.35596 14.9141 7.74658C15.2656 8.09814 15.2656 8.68408 14.9141 9.03564Z" fill="#4D5B7D"/>
</svg>
