<svg width="20" height="16" viewBox="0 0 20 16" fill="none" xmlns="http://www.w3.org/2000/svg">
<path d="M8.4375 0.5H10H11.5625C12.0703 0.5 12.5 0.929688 12.5 1.4375C12.5 1.98438 12.0703 2.375 11.5625 2.375H10.9375V3.70312C15.3125 4.17188 18.75 7.88281 18.75 12.375H1.25C1.25 7.88281 4.64844 4.17188 9.0625 3.70312V2.375H8.4375C7.89062 2.375 7.5 1.98438 7.5 1.4375C7.5 0.929688 7.89062 0.5 8.4375 0.5ZM0.9375 13.625H19.0625C19.5703 13.625 20 14.0547 20 14.5625C20 15.1094 19.5703 15.5 19.0625 15.5H0.9375C0.390625 15.5 0 15.1094 0 14.5625C0 14.0547 0.390625 13.625 0.9375 13.625Z" fill="#011445"/>
</svg>
