<svg width="19" height="22" viewBox="0 0 19 22" fill="none" xmlns="http://www.w3.org/2000/svg">
<path d="M9.5 1.19995C10.1641 1.19995 10.75 1.78589 10.75 2.44995V3.2312C13.6016 3.77808 15.75 6.31714 15.75 9.32495V10.0671C15.75 11.9031 16.4141 13.7 17.625 15.0671L17.8984 15.3796C18.25 15.7703 18.3281 16.2781 18.1328 16.7468C17.9375 17.1765 17.4688 17.45 17 17.45H2C1.49219 17.45 1.02344 17.1765 0.828125 16.7468C0.632812 16.2781 0.710938 15.7703 1.0625 15.3796L1.33594 15.0671C2.54688 13.7 3.25 11.9031 3.25 10.0671V9.32495C3.25 6.31714 5.39844 3.77808 8.25 3.2312V2.44995C8.25 1.78589 8.79688 1.19995 9.5 1.19995ZM11.2578 20.4968C10.7891 20.9656 10.1641 21.2 9.5 21.2C8.83594 21.2 8.17188 20.9656 7.70312 20.4968C7.23438 20.0281 7 19.364 7 18.7H9.5H12C12 19.364 11.7266 20.0281 11.2578 20.4968Z" fill="#AA25ED"/>
</svg>
