<svg width="26" height="26" viewBox="0 0 26 26" fill="none" xmlns="http://www.w3.org/2000/svg">
<path d="M2.67004 2.5C2.67004 1.70312 3.32629 1 4.17004 1C4.96692 1 5.67004 1.70312 5.67004 2.5C5.67004 3.34375 4.96692 4 4.17004 4C3.32629 4 2.67004 3.34375 2.67004 2.5ZM22.17 8.5C22.17 7.70312 22.8263 7 23.67 7C24.4669 7 25.17 7.70312 25.17 8.5C25.17 9.34375 24.4669 10 23.67 10C22.8263 10 22.17 9.34375 22.17 8.5ZM23.67 20.5C24.4669 20.5 25.17 21.2031 25.17 22C25.17 22.8438 24.4669 23.5 23.67 23.5C22.8263 23.5 22.17 22.8438 22.17 22C22.17 21.2031 22.8263 20.5 23.67 20.5ZM8.99817 8.17188C8.52942 7.75 8.52942 7.04688 8.99817 6.625L9.37317 6.20312C10.17 5.45312 10.6388 4.42188 10.7794 3.29688L10.92 2.03125C10.9669 1.42188 11.5294 0.953125 12.1388 1.04688C12.7482 1.09375 13.2169 1.65625 13.1232 2.26562L12.9825 3.53125C12.8419 5.17188 12.0919 6.67188 10.9669 7.79688L10.5919 8.17188C10.1232 8.64062 9.42004 8.64062 8.99817 8.17188ZM17.9982 15.5781L18.3732 15.2031C19.4982 14.0781 20.9982 13.3281 22.5919 13.1875L23.9044 13.0469C24.5138 12.9531 25.0763 13.4219 25.1232 14.0312C25.2169 14.6406 24.7482 15.2031 24.1388 15.25L22.8732 15.3906C21.7482 15.5312 20.7169 16 19.9669 16.7969L19.5919 17.1719C19.1232 17.6406 18.42 17.6406 17.9982 17.1719C17.5294 16.75 17.5294 16.0469 17.9982 15.625V15.5781ZM24.8888 1.42188C25.2638 1.89062 25.2169 2.59375 24.7482 3.01562L24.2794 3.39062C23.5763 4 22.6857 4.28125 21.795 4.28125C20.9982 4.23438 20.3419 4.84375 20.295 5.64062L20.2482 7.04688C20.1075 9.01562 18.42 10.5625 16.4513 10.5156C16.0763 10.5156 15.7482 10.6094 15.4669 10.8438L14.9982 11.2656C14.5294 11.6406 13.8263 11.5938 13.4044 11.125C13.0294 10.6562 13.0763 9.95312 13.545 9.53125L14.0138 9.15625C14.7169 8.54688 15.6075 8.26562 16.4982 8.26562C17.295 8.3125 17.9513 7.70312 17.9982 6.90625L18.0919 5.5C18.1857 3.53125 19.8732 1.98438 21.8419 2.03125C22.2169 2.03125 22.545 1.9375 22.8263 1.70312L23.295 1.28125C23.7638 0.90625 24.4669 0.953125 24.8888 1.42188ZM3.93567 22.2344L8.01379 20.7344L5.43567 18.1562L3.93567 22.2344ZM13.3107 18.7188L7.45129 12.8594L6.32629 15.8594L10.3107 19.8438L13.3107 18.7188ZM5.76379 10.9844C6.13879 10 7.45129 9.67188 8.20129 10.4688L15.7013 17.9688C16.4982 18.7188 16.17 20.0312 15.1857 20.4062L3.18567 24.9062C2.01379 25.375 0.795044 24.1562 1.26379 22.9844L5.76379 10.9844Z" fill="#186491"/>
</svg>
