<svg width="40" height="32" viewBox="0 0 40 32" fill="none" xmlns="http://www.w3.org/2000/svg">
<path d="M4 3C3.4375 3 3 3.5 3 4V28C3 28.5625 3.4375 29 4 29H9V25C9 23.375 10.3125 22 12 22C13.625 22 15 23.375 15 25V29H20C20.5 29 21 28.5625 21 28V4C21 3.5 20.5 3 20 3H4ZM0 4C0 1.8125 1.75 0 4 0H20C22.1875 0 24 1.8125 24 4V28C24 30.25 22.1875 32 20 32H4C1.75 32 0 30.25 0 28V4ZM5.5 6.5C5.5 6 5.9375 5.5 6.5 5.5H9.5C10 5.5 10.5 6 10.5 6.5V9.5C10.5 10.0625 10 10.5 9.5 10.5H6.5C5.9375 10.5 5.5 10.0625 5.5 9.5V6.5ZM14.5 5.5H17.5C18 5.5 18.5 6 18.5 6.5V9.5C18.5 10.0625 18 10.5 17.5 10.5H14.5C13.9375 10.5 13.5 10.0625 13.5 9.5V6.5C13.5 6 13.9375 5.5 14.5 5.5ZM5.5 14.5C5.5 14 5.9375 13.5 6.5 13.5H9.5C10 13.5 10.5 14 10.5 14.5V17.5C10.5 18.0625 10 18.5 9.5 18.5H6.5C5.9375 18.5 5.5 18.0625 5.5 17.5V14.5ZM14.5 13.5H17.5C18 13.5 18.5 14 18.5 14.5V17.5C18.5 18.0625 18 18.5 17.5 18.5H14.5C13.9375 18.5 13.5 18.0625 13.5 17.5V14.5C13.5 14 13.9375 13.5 14.5 13.5ZM28 0C29.0625 0 30 0.9375 30 2H39C39.5 2 40 2.5 40 3V11C40 11.5625 39.5 12 39 12H30V32H26V2C26 0.9375 26.875 0 28 0Z" fill="#734BE4"/>
</svg>
