<svg width="12" height="17" viewBox="0 0 12 17" fill="none" xmlns="http://www.w3.org/2000/svg">
<path d="M2 1.95789C1.71875 1.95789 1.5 2.20789 1.5 2.45789V14.4579C1.5 14.7391 1.71875 14.9579 2 14.9579H4.5V12.9579C4.5 12.1454 5.15625 11.4579 6 11.4579C6.8125 11.4579 7.5 12.1454 7.5 12.9579V14.9579H10C10.25 14.9579 10.5 14.7391 10.5 14.4579V2.45789C10.5 2.20789 10.25 1.95789 10 1.95789H2ZM0 2.45789C0 1.36414 0.875 0.457886 2 0.457886H10C11.0938 0.457886 12 1.36414 12 2.45789V14.4579C12 15.5829 11.0938 16.4579 10 16.4579H2C0.875 16.4579 0 15.5829 0 14.4579V2.45789ZM2.75 3.70789C2.75 3.45789 2.96875 3.20789 3.25 3.20789H4.75C5 3.20789 5.25 3.45789 5.25 3.70789V5.20789C5.25 5.48914 5 5.70789 4.75 5.70789H3.25C2.96875 5.70789 2.75 5.48914 2.75 5.20789V3.70789ZM7.25 3.20789H8.75C9 3.20789 9.25 3.45789 9.25 3.70789V5.20789C9.25 5.48914 9 5.70789 8.75 5.70789H7.25C6.96875 5.70789 6.75 5.48914 6.75 5.20789V3.70789C6.75 3.45789 6.96875 3.20789 7.25 3.20789ZM2.75 7.70789C2.75 7.45789 2.96875 7.20789 3.25 7.20789H4.75C5 7.20789 5.25 7.45789 5.25 7.70789V9.20789C5.25 9.48914 5 9.70789 4.75 9.70789H3.25C2.96875 9.70789 2.75 9.48914 2.75 9.20789V7.70789ZM7.25 7.20789H8.75C9 7.20789 9.25 7.45789 9.25 7.70789V9.20789C9.25 9.48914 9 9.70789 8.75 9.70789H7.25C6.96875 9.70789 6.75 9.48914 6.75 9.20789V7.70789C6.75 7.45789 6.96875 7.20789 7.25 7.20789Z" fill="#011445"/>
</svg>
