<svg width="14" height="17" viewBox="0 0 14 17" fill="none" xmlns="http://www.w3.org/2000/svg">
<path d="M4.75 1.20789V2.45789H9.25V1.20789C9.25 0.801636 9.5625 0.457886 10 0.457886C10.4062 0.457886 10.75 0.801636 10.75 1.20789V2.45789H12C13.0938 2.45789 14 3.36414 14 4.45789V4.95789V6.45789V14.4579C14 15.5829 13.0938 16.4579 12 16.4579H2C0.875 16.4579 0 15.5829 0 14.4579V6.45789V4.95789V4.45789C0 3.36414 0.875 2.45789 2 2.45789H3.25V1.20789C3.25 0.801636 3.5625 0.457886 4 0.457886C4.40625 0.457886 4.75 0.801636 4.75 1.20789ZM1.5 6.45789V8.20789H4V6.45789H1.5ZM1.5 9.70789V11.7079H4V9.70789H1.5ZM5.5 9.70789V11.7079H8.5V9.70789H5.5ZM10 9.70789V11.7079H12.5V9.70789H10ZM12.5 8.20789V6.45789H10V8.20789H12.5ZM12.5 13.2079H10V14.9579H12C12.25 14.9579 12.5 14.7391 12.5 14.4579V13.2079ZM8.5 13.2079H5.5V14.9579H8.5V13.2079ZM4 13.2079H1.5V14.4579C1.5 14.7391 1.71875 14.9579 2 14.9579H4V13.2079ZM8.5 8.20789V6.45789H5.5V8.20789H8.5Z" fill="#011445"/>
</svg>
