<svg width="22" height="24" viewBox="0 0 22 24" fill="none" xmlns="http://www.w3.org/2000/svg">
<path d="M7.625 1.125V3H14.375V1.125C14.375 0.515625 14.8438 0 15.5 0C16.1094 0 16.625 0.515625 16.625 1.125V3H18.5C20.1406 3 21.5 4.35938 21.5 6V6.75V9V21C21.5 22.6875 20.1406 24 18.5 24H3.5C1.8125 24 0.5 22.6875 0.5 21V9V6.75V6C0.5 4.35938 1.8125 3 3.5 3H5.375V1.125C5.375 0.515625 5.84375 0 6.5 0C7.10938 0 7.625 0.515625 7.625 1.125ZM2.75 9V21C2.75 21.4219 3.07812 21.75 3.5 21.75H18.5C18.875 21.75 19.25 21.4219 19.25 21V9H2.75Z" fill="#A287ED"/>
</svg>
