<svg width="14" height="17" viewBox="0 0 14 17" fill="none" xmlns="http://www.w3.org/2000/svg">
<path d="M4 0.206665C4.53125 0.206665 5 0.675415 5 1.20667V2.20667H9V1.20667C9 0.675415 9.4375 0.206665 10 0.206665C10.5312 0.206665 11 0.675415 11 1.20667V2.20667H12.5C13.3125 2.20667 14 2.89417 14 3.70667V5.20667H0V3.70667C0 2.89417 0.65625 2.20667 1.5 2.20667H3V1.20667C3 0.675415 3.4375 0.206665 4 0.206665ZM0 6.20667H14V14.7067C14 15.5504 13.3125 16.2067 12.5 16.2067H1.5C0.65625 16.2067 0 15.5504 0 14.7067V6.20667ZM7.28125 8.05042C7.15625 7.83167 6.8125 7.83167 6.6875 8.05042L5.96875 9.55042L4.3125 9.80042C4.03125 9.83167 3.9375 10.1754 4.125 10.3629L5.3125 11.5192L5.03125 13.1442C5 13.4254 5.28125 13.6129 5.5 13.4879L7 12.7067L8.46875 13.4879C8.6875 13.6129 8.96875 13.4254 8.9375 13.1442L8.65625 11.5192L9.84375 10.3629C10.0312 10.1754 9.9375 9.83167 9.65625 9.80042L8.03125 9.55042L7.28125 8.05042Z" fill="#011445"/>
</svg>
