<svg width="18" height="21" viewBox="0 0 18 21" fill="none" xmlns="http://www.w3.org/2000/svg">
<path d="M5.25 0.5C5.91406 0.5 6.5 1.08594 6.5 1.75V3H11.5V1.75C11.5 1.08594 12.0469 0.5 12.75 0.5C13.4141 0.5 14 1.08594 14 1.75V3H15.875C16.8906 3 17.75 3.85938 17.75 4.875V6.75H0.25V4.875C0.25 3.85938 1.07031 3 2.125 3H4V1.75C4 1.08594 4.54688 0.5 5.25 0.5ZM0.25 8H17.75V18.625C17.75 19.6797 16.8906 20.5 15.875 20.5H2.125C1.07031 20.5 0.25 19.6797 0.25 18.625V8ZM13.1016 12.4141C13.4531 12.0625 13.4531 11.4766 13.1016 11.125C12.7109 10.7344 12.125 10.7344 11.7734 11.125L8.0625 14.8359L6.22656 13C5.83594 12.6094 5.25 12.6094 4.89844 13C4.50781 13.3516 4.50781 13.9375 4.89844 14.2891L7.39844 16.7891C7.75 17.1797 8.33594 17.1797 8.72656 16.7891L13.1016 12.4141Z" fill="white"/>
</svg>
