<svg width="21" height="25" viewBox="0 0 21 25" fill="none" xmlns="http://www.w3.org/2000/svg">
<path d="M7.125 1.625V3.5H13.875V1.625C13.875 1.01562 14.3438 0.5 15 0.5C15.6094 0.5 16.125 1.01562 16.125 1.625V3.5H18C19.6406 3.5 21 4.85938 21 6.5V7.25V9.5V21.5C21 23.1875 19.6406 24.5 18 24.5H3C1.3125 24.5 0 23.1875 0 21.5V9.5V7.25V6.5C0 4.85938 1.3125 3.5 3 3.5H4.875V1.625C4.875 1.01562 5.34375 0.5 6 0.5C6.60938 0.5 7.125 1.01562 7.125 1.625ZM2.25 9.5V21.5C2.25 21.9219 2.57812 22.25 3 22.25H18C18.375 22.25 18.75 21.9219 18.75 21.5V9.5H2.25Z" fill="#00AEFF"/>
</svg>
