<svg width="16" height="17" viewBox="0 0 16 17" fill="none" xmlns="http://www.w3.org/2000/svg">
<path d="M4 2.5C4 1.40625 4.875 0.5 6 0.5H12.0625C12.5938 0.5 13.125 0.71875 13.5 1.09375L14.4062 2C14.7812 2.375 15 2.90625 15 3.4375V5.5H13V3.4375L12.0625 2.5H6V5.5H4V2.5ZM0 5.5C0 4.96875 0.4375 4.5 1 4.5H2C2.53125 4.5 3 4.96875 3 5.5V15.5C3 16.0625 2.53125 16.5 2 16.5H1C0.4375 16.5 0 16.0625 0 15.5V5.5ZM15 6.5C15.5312 6.5 16 6.96875 16 7.5V15.5C16 16.0625 15.5312 16.5 15 16.5H5C4.4375 16.5 4 16.0625 4 15.5V6.5H15ZM8 8.5C7.4375 8.5 7 8.96875 7 9.5C7 10.0625 7.4375 10.5 8 10.5C8.53125 10.5 9 10.0625 9 9.5C9 8.96875 8.53125 8.5 8 8.5ZM11 9.5C11 10.0625 11.4375 10.5 12 10.5C12.5312 10.5 13 10.0625 13 9.5C13 8.96875 12.5312 8.5 12 8.5C11.4375 8.5 11 8.96875 11 9.5ZM12 12.5C11.4375 12.5 11 12.9688 11 13.5C11 14.0625 11.4375 14.5 12 14.5C12.5312 14.5 13 14.0625 13 13.5C13 12.9688 12.5312 12.5 12 12.5ZM7 13.5C7 14.0625 7.4375 14.5 8 14.5C8.53125 14.5 9 14.0625 9 13.5C9 12.9688 8.53125 12.5 8 12.5C7.4375 12.5 7 12.9688 7 13.5Z" fill="#193CE5"/>
</svg>
