<svg width="1666" height="225" viewBox="0 0 1666 225" fill="none" xmlns="http://www.w3.org/2000/svg">
<path d="M342.3 172.51C330.21 172.51 319.16 170.44 309.14 166.31C299.12 162.18 290.45 156.29 283.14 148.66C275.82 140.87 270.1 131.72 265.96 121.23C261.98 110.57 260 98.96 260 86.4C260 73.84 262.15 63.1 266.44 52.76C270.73 42.42 276.7 33.36 284.33 25.57C291.96 17.78 300.87 11.73 311.05 7.44C321.23 3.15 332.28 1 344.21 1C352.32 1 360.19 2.18999 367.83 4.57999C375.46 6.96999 382.46 10.31 388.82 14.6C393.14 17.41 396.98 20.55 400.35 24.01C403.09 26.83 402.87 31.27 400.22 34.17L390.83 44.46C387.67 47.92 382.28 47.95 378.69 44.95C376.54 43.16 374.35 41.55 372.12 40.11C367.83 37.09 363.29 34.86 358.52 33.43C353.91 31.84 349.14 31.04 344.21 31.04C336.89 31.04 329.98 32.39 323.46 35.1C317.1 37.8 311.53 41.62 306.76 46.55C302.15 51.48 298.49 57.36 295.79 64.2C293.09 70.88 291.73 78.35 291.73 86.62C291.73 94.89 293 102.68 295.55 109.52C298.25 116.36 301.99 122.24 306.76 127.17C311.69 132.1 317.49 135.92 324.17 138.62C331.01 141.16 338.48 142.44 346.59 142.44C351.84 142.44 356.93 141.72 361.86 140.29C366.79 138.86 371.32 136.87 375.46 134.33C376.81 133.48 378.12 132.59 379.39 131.66C383.61 128.58 389.78 129.27 392.53 133.7L399.21 144.46C401.1 147.51 400.8 151.49 398.08 153.83C394.99 156.49 391.34 158.98 387.13 161.29C380.77 164.79 373.61 167.57 365.66 169.64C357.87 171.55 350.07 172.5 342.28 172.5L342.3 172.51Z" fill="url(#paint0_linear_875_1821)"/>
<path d="M466.61 172.51C456.27 172.51 446.89 169.65 438.46 163.92C430.03 158.2 423.27 150.4 418.18 140.54C413.09 130.68 410.55 119.47 410.55 106.9C410.55 94.3295 413.09 83.1195 418.18 73.2595C423.27 63.3995 430.19 55.6895 438.93 50.1195C447.68 44.5495 457.54 41.7695 468.51 41.7695C474.87 41.7695 480.68 42.7195 485.92 44.6295C491.17 46.3795 495.78 48.9195 499.76 52.2595C503.74 55.5995 507 59.4195 509.54 63.7095C511.44 66.7195 512.9 69.8895 513.94 73.2095C514.56 75.1895 512.71 76.9395 510.7 76.4195C509.46 76.0995 508.59 74.9695 508.59 73.6895V52.4895C508.59 48.0095 512.22 44.3895 516.69 44.3895H530.06C534.54 44.3895 538.16 48.0195 538.16 52.4895V162C538.16 166.48 534.53 170.1 530.06 170.1H516.45C511.97 170.1 508.35 166.47 508.35 162V142.52C508.35 141.09 509.38 139.87 510.79 139.63C512.89 139.27 514.64 141.19 513.82 143.16C512.66 145.97 511.07 148.75 509.07 151.5C506.21 155.48 502.55 159.05 498.1 162.23C493.81 165.25 488.96 167.72 483.55 169.63C478.3 171.54 472.66 172.49 466.61 172.49V172.51ZM474.73 146.51C481.57 146.51 487.61 144.84 492.86 141.5C498.11 138.16 502.16 133.55 505.03 127.66C508.05 121.62 509.56 114.7 509.56 106.91C509.56 99.1195 508.05 92.5195 505.03 86.6295C502.17 80.7495 498.11 76.1295 492.86 72.7895C487.61 69.4495 481.57 67.7795 474.73 67.7795C467.89 67.7795 461.85 69.4495 456.6 72.7895C451.51 76.1295 447.54 80.7395 444.67 86.6295C441.81 92.5095 440.38 99.2695 440.38 106.91C440.38 114.55 441.81 121.62 444.67 127.66C447.53 133.54 451.51 138.16 456.6 141.5C461.85 144.84 467.89 146.51 474.73 146.51Z" fill="url(#paint1_linear_875_1821)"/>
<path d="M569.161 170.119C564.681 170.119 561.061 166.489 561.061 162.019V52.5091C561.061 48.0291 564.691 44.4091 569.161 44.4091H583.111C586.891 44.4091 589.961 47.4491 590.001 51.2191L590.291 75.2391C590.311 77.3191 587.471 77.9391 586.621 76.0491C586.441 75.6391 586.401 75.1891 586.531 74.7591C588.301 68.6591 591.261 63.1591 595.411 58.2491C599.701 53.1591 604.631 49.1891 610.201 46.3191C615.931 43.2991 621.891 41.7891 628.091 41.7891C630.791 41.7891 633.341 42.0291 635.721 42.5091C639.351 43.1891 641.271 46.8391 640.401 50.4291L635.691 69.6991C634.861 73.0791 630.991 74.8491 627.611 73.9991C625.071 73.3591 622.521 73.0491 619.981 73.0491C616.001 73.0491 612.191 73.8391 608.531 75.4291C605.031 76.8591 601.931 78.9291 599.231 81.6291C596.531 84.3291 594.381 87.5091 592.791 91.1691C591.361 94.6691 590.641 98.6491 590.641 103.099V162.029C590.641 166.509 587.011 170.129 582.541 170.129H569.171L569.161 170.119Z" fill="url(#paint2_linear_875_1821)"/>
<path d="M695 224.99C689.17 224.99 685.25 219.02 687.56 213.67L705.55 172.06C706.43 170.02 709.47 170.63 709.5 172.85C709.53 175.08 706.48 175.75 705.56 173.72L652.71 55.8301C650.31 50.4701 654.23 44.4102 660.11 44.4102H676.09C679.35 44.4102 682.29 46.3601 683.56 49.3701L716.06 126.47C717.17 128.54 718.29 131.32 719.4 134.82C720.3 137.53 721.1 140.24 721.79 142.95C722.06 144.02 721.45 145.1 720.4 145.44C718.73 145.97 717.18 144.35 717.79 142.71C718.46 140.93 719.15 139.09 719.87 137.21C721.14 133.71 722.34 130.13 723.45 126.48L751.1 49.7701C752.26 46.5601 755.31 44.4102 758.72 44.4102H774.97C780.75 44.4102 784.68 50.3001 782.45 55.6401L734.66 170.13L715.21 219.85C713.99 222.96 711 225 707.66 225H694.99L695 224.99Z" fill="url(#paint3_linear_875_1821)"/>
<path d="M881.37 172.509C869.12 172.509 857.83 170.439 847.5 166.309C837.32 162.019 828.42 156.049 820.78 148.419C813.3 140.629 807.5 131.479 803.37 120.989C799.23 110.489 797.17 99.039 797.17 86.639C797.17 74.239 799.16 62.939 803.13 52.769C807.11 42.429 812.75 33.449 820.07 25.809C827.55 18.179 836.21 12.289 846.07 8.159C856.09 4.019 867.06 1.95898 878.99 1.95898C886.46 1.95898 894.02 3.22899 901.65 5.77899C909.28 8.16899 916.36 11.499 922.88 15.799C927.79 19.029 932.07 22.629 935.71 26.579C937.76 28.799 937.56 32.209 935.48 34.399C932.8 37.229 928.19 36.849 925.5 34.019C922.92 31.299 919.98 28.809 916.67 26.539C911.1 22.559 905.06 19.459 898.54 17.239C892.02 15.009 885.5 13.899 878.98 13.899C868.96 13.899 859.66 15.729 851.07 19.389C842.64 22.889 835.33 27.899 829.12 34.419C823.08 40.939 818.3 48.649 814.81 57.559C811.47 66.469 809.8 76.169 809.8 86.659C809.8 97.149 811.55 107.179 815.05 116.239C818.55 125.309 823.48 133.179 829.84 139.859C836.36 146.379 843.91 151.469 852.5 155.129C861.25 158.789 870.87 160.619 881.37 160.619C887.73 160.619 894.01 159.739 900.22 157.999C906.58 156.089 912.31 153.549 917.4 150.369C919.85 148.759 922.05 147.069 924.02 145.279C926.94 142.629 931.83 142.849 933.89 146.209C935.15 148.259 934.96 150.919 933.24 152.599C929.9 155.879 925.89 158.869 921.21 161.579C915.33 164.919 908.88 167.619 901.89 169.689C895.05 171.599 888.21 172.549 881.37 172.549V172.509Z" fill="url(#paint4_linear_875_1821)"/>
<path d="M1009.44 172.509C997.03 172.509 985.98 169.729 976.28 164.159C966.74 158.589 959.18 150.879 953.61 141.019C948.21 131.159 945.51 119.949 945.51 107.379C945.51 94.8092 948.21 83.9992 953.61 74.4592C959.18 64.7592 966.74 57.2092 976.28 51.7992C985.97 46.2292 997.03 43.4492 1009.44 43.4492C1021.85 43.4492 1032.82 46.2292 1042.36 51.7992C1052.05 57.2092 1059.61 64.7592 1065.02 74.4592C1070.42 83.9992 1073.12 94.9792 1073.12 107.379C1073.12 119.779 1070.42 131.159 1065.02 141.019C1059.61 150.879 1052.05 158.589 1042.36 164.159C1032.82 169.729 1021.84 172.509 1009.44 172.509ZM1009.44 160.579C1019.3 160.579 1028.05 158.269 1035.68 153.659C1043.47 149.049 1049.52 142.769 1053.81 134.809C1058.26 126.859 1060.49 117.709 1060.49 107.379C1060.49 97.0492 1058.26 88.4592 1053.81 80.6592C1049.51 72.7092 1043.47 66.5092 1035.68 62.0492C1028.05 57.5992 1019.3 55.3692 1009.44 55.3692C999.58 55.3692 990.52 57.5992 982.72 62.0492C975.09 66.4992 969.04 72.7092 964.6 80.6592C960.3 88.4492 958.16 97.3592 958.16 107.379C958.16 117.399 960.31 126.859 964.6 134.809C969.05 142.759 975.09 149.039 982.72 153.659C990.52 158.269 999.42 160.579 1009.44 160.579Z" fill="url(#paint5_linear_875_1821)"/>
<path d="M1098.33 170.119C1095.96 170.119 1094.03 168.199 1094.03 165.829V51.9294C1094.03 48.6994 1096.65 46.0694 1099.89 46.0694C1103.02 46.0694 1105.6 48.5295 1105.75 51.6595L1106.66 71.6994C1106.67 72.0394 1106.41 72.3094 1106.07 72.3094C1105.66 72.3094 1105.38 71.9194 1105.52 71.5394C1107.31 66.5894 1110.4 62.0795 1114.79 57.9995C1119.4 53.5494 1124.89 50.0494 1131.25 47.4995C1137.76 44.7994 1144.61 43.4395 1151.76 43.4395C1160.5 43.4395 1167.9 45.2694 1173.95 48.9294C1180.15 52.5894 1184.77 58.2294 1187.79 65.8694C1190.97 73.4994 1192.56 83.1994 1192.56 94.9695V164.149C1192.56 167.439 1189.89 170.109 1186.59 170.109C1183.3 170.109 1180.62 167.439 1180.62 164.149V95.4494C1180.62 86.2294 1179.35 78.6694 1176.81 72.7894C1174.42 66.7494 1170.84 62.2894 1166.07 59.4294C1161.3 56.4094 1155.33 54.8994 1148.18 54.8994C1141.98 54.8994 1136.33 56.0094 1131.24 58.2394C1126.14 60.3094 1121.7 63.1694 1117.88 66.8294C1114.06 70.4894 1111.12 74.6995 1109.06 79.4695C1106.99 84.0795 1105.96 89.0094 1105.96 94.2594V164.159C1105.96 167.449 1103.29 170.119 1099.99 170.119H1098.32H1098.33Z" fill="url(#paint6_linear_875_1821)"/>
<path d="M1224.26 170.119C1221.89 170.119 1219.96 168.199 1219.96 165.829V51.9294C1219.96 48.6994 1222.58 46.0694 1225.82 46.0694C1228.95 46.0694 1231.53 48.5295 1231.68 51.6595L1232.59 71.6994C1232.6 72.0394 1232.34 72.3094 1232 72.3094C1231.59 72.3094 1231.31 71.9194 1231.45 71.5394C1233.24 66.5894 1236.33 62.0795 1240.72 57.9995C1245.33 53.5494 1250.82 50.0494 1257.18 47.4995C1263.7 44.7994 1270.54 43.4395 1277.69 43.4395C1286.43 43.4395 1293.84 45.2694 1299.88 48.9294C1306.08 52.5894 1310.7 58.2294 1313.72 65.8694C1316.9 73.4994 1318.49 83.1994 1318.49 94.9695V164.149C1318.49 167.439 1315.82 170.109 1312.52 170.109C1309.23 170.109 1306.55 167.439 1306.55 164.149V95.4494C1306.55 86.2294 1305.28 78.6694 1302.74 72.7894C1300.35 66.7494 1296.77 62.2894 1292 59.4294C1287.23 56.4094 1281.26 54.8994 1274.11 54.8994C1267.91 54.8994 1262.26 56.0094 1257.17 58.2394C1252.08 60.3094 1247.63 63.1694 1243.81 66.8294C1239.99 70.4894 1237.05 74.6995 1234.99 79.4695C1232.92 84.0795 1231.89 89.0094 1231.89 94.2594V164.159C1231.89 167.449 1229.22 170.119 1225.92 170.119H1224.25H1224.26Z" fill="url(#paint7_linear_875_1821)"/>
<path d="M1400.7 172.509C1388.78 172.509 1378.12 169.809 1368.74 164.399C1359.51 158.989 1352.28 151.439 1347.03 141.739C1341.78 132.039 1339.16 120.749 1339.16 107.869C1339.16 98.489 1340.59 89.899 1343.46 82.109C1346.48 74.319 1350.61 67.559 1355.86 61.829C1361.11 55.949 1367.39 51.409 1374.71 48.229C1382.18 45.049 1390.29 43.459 1399.04 43.459C1407.79 43.459 1415.34 44.889 1422.18 47.749C1429.18 50.609 1435.06 54.749 1439.83 60.149C1444.6 65.399 1448.19 71.679 1450.57 78.999C1452.96 86.159 1453.99 94.109 1453.67 102.849C1453.54 106.449 1450.59 109.289 1446.98 109.289H1353.48C1350.45 109.289 1347.99 106.829 1347.99 103.799C1347.99 100.769 1350.45 98.309 1353.48 98.309H1443.12C1444.42 98.309 1444.99 99.939 1443.99 100.759C1443.09 101.499 1441.74 100.859 1441.74 99.689V96.879C1441.74 90.519 1440.15 84.159 1436.97 77.799C1433.94 71.439 1429.25 66.109 1422.89 61.819C1416.53 57.529 1408.51 55.379 1398.8 55.379C1389.73 55.379 1381.63 57.369 1374.47 61.339C1367.47 65.319 1361.91 71.119 1357.78 78.749C1353.8 86.379 1351.81 95.849 1351.81 107.139C1351.81 118.429 1353.8 127.419 1357.78 135.529C1361.75 143.479 1367.47 149.679 1374.95 154.139C1382.59 158.429 1391.89 160.579 1402.86 160.579C1408.75 160.579 1414.79 159.629 1420.99 157.719C1425.9 156.209 1431.32 153.289 1437.24 148.979C1439.86 147.069 1443.57 147.569 1445.43 150.219C1447.02 152.479 1446.73 155.569 1444.59 157.309C1441.95 159.459 1439.02 161.509 1435.79 163.439C1431.02 166.139 1425.69 168.369 1419.8 170.119C1413.91 171.709 1407.55 172.509 1400.71 172.509H1400.7Z" fill="url(#paint8_linear_875_1821)"/>
<path d="M1529.77 172.509C1517.85 172.509 1507.19 169.729 1497.81 164.159C1488.58 158.589 1481.27 150.959 1475.86 141.259C1470.61 131.559 1467.99 120.429 1467.99 107.859C1467.99 95.2892 1470.61 84.1592 1475.86 74.4592C1481.27 64.7592 1488.66 57.2092 1498.05 51.7992C1507.43 46.2292 1518.25 43.4492 1530.5 43.4492C1540.67 43.4492 1549.9 45.4392 1558.17 49.4092C1565.12 52.6892 1571.1 57.0392 1576.09 62.4792C1577.97 64.5292 1577.91 67.6392 1576.15 69.7792C1573.76 72.6892 1569.32 72.6592 1566.57 70.0892C1564.39 68.0592 1562.07 66.2592 1559.61 64.6692C1555.15 61.6492 1550.38 59.3392 1545.3 57.7492C1540.2 56.1592 1534.96 55.3692 1529.56 55.3692C1520.17 55.3692 1511.82 57.6792 1504.51 62.2892C1497.2 66.7392 1491.39 72.9392 1487.1 80.8992C1482.8 88.6892 1480.66 97.6792 1480.66 107.859C1480.66 118.039 1482.73 127.099 1486.86 135.059C1491.16 143.009 1496.96 149.289 1504.27 153.909C1511.59 158.359 1519.78 160.589 1528.85 160.589C1534.1 160.589 1539.26 159.789 1544.36 158.199C1549.45 156.609 1554.22 154.379 1558.66 151.519C1561.2 149.799 1563.6 147.869 1565.88 145.739C1568.62 143.179 1573.01 143.199 1575.38 146.089C1577.17 148.279 1577.21 151.449 1575.27 153.509C1570.11 158.929 1563.94 163.279 1556.75 166.549C1548.16 170.529 1539.17 172.509 1529.79 172.509H1529.77Z" fill="url(#paint9_linear_875_1821)"/>
<path d="M1626.05 170.12C1622.76 170.12 1620.08 167.45 1620.08 164.16V18.8799C1620.08 15.5899 1622.75 12.9199 1626.05 12.9199C1629.34 12.9199 1632.01 15.5899 1632.01 18.8799V164.16C1632.01 167.45 1629.35 170.12 1626.05 170.12ZM1595.75 57.0499C1592.72 57.0499 1590.26 54.5899 1590.26 51.5599C1590.26 48.5299 1592.72 46.0699 1595.75 46.0699H1659.92C1662.95 46.0699 1665.4 48.5299 1665.4 51.5599C1665.4 54.5899 1662.95 57.0499 1659.92 57.0499H1595.75Z" fill="url(#paint10_linear_875_1821)"/>
<path d="M228.665 0C231.755 0 234.295 2.73999 233.975 6.07999C231.345 33.02 211.255 50 186.895 50H95.6053C91.6453 50 88.9353 45.65 90.4053 41.65L97.9353 21.13C103.765 5.28 117.215 0 132.075 0H228.675H228.665Z" fill="url(#paint11_linear_875_1821)"/>
<path d="M120.855 110C134.665 110 145.855 98.81 145.855 85C145.855 71.19 134.665 60 120.855 60C107.045 60 95.8555 71.19 95.8555 85C95.8555 98.81 107.045 110 120.855 110Z" fill="url(#paint12_linear_875_1821)"/>
<path d="M138.665 120C141.755 120 144.295 122.74 143.965 126.08C141.335 153.02 121.245 170 96.8853 170H5.60534C1.64534 170 -1.06466 165.65 0.405336 161.65L7.93534 141.13C13.7653 125.28 27.2153 120 42.0753 120H138.675H138.665Z" fill="url(#paint13_linear_875_1821)"/>
<defs>
<linearGradient id="paint0_linear_875_1821" x1="466.262" y1="113" x2="1678.19" y2="113" gradientUnits="userSpaceOnUse">
<stop stop-color="#135A62"/>
<stop offset="1" stop-color="#2E8B95"/>
</linearGradient>
<linearGradient id="paint1_linear_875_1821" x1="466.262" y1="113" x2="1678.19" y2="113" gradientUnits="userSpaceOnUse">
<stop stop-color="#135A62"/>
<stop offset="1" stop-color="#2E8B95"/>
</linearGradient>
<linearGradient id="paint2_linear_875_1821" x1="466.262" y1="113" x2="1678.19" y2="113" gradientUnits="userSpaceOnUse">
<stop stop-color="#135A62"/>
<stop offset="1" stop-color="#2E8B95"/>
</linearGradient>
<linearGradient id="paint3_linear_875_1821" x1="466.262" y1="113" x2="1678.19" y2="113" gradientUnits="userSpaceOnUse">
<stop stop-color="#135A62"/>
<stop offset="1" stop-color="#2E8B95"/>
</linearGradient>
<linearGradient id="paint4_linear_875_1821" x1="466.262" y1="113" x2="1678.19" y2="113" gradientUnits="userSpaceOnUse">
<stop stop-color="#135A62"/>
<stop offset="1" stop-color="#2E8B95"/>
</linearGradient>
<linearGradient id="paint5_linear_875_1821" x1="466.262" y1="113" x2="1678.19" y2="113" gradientUnits="userSpaceOnUse">
<stop stop-color="#135A62"/>
<stop offset="1" stop-color="#2E8B95"/>
</linearGradient>
<linearGradient id="paint6_linear_875_1821" x1="466.262" y1="113" x2="1678.19" y2="113" gradientUnits="userSpaceOnUse">
<stop stop-color="#135A62"/>
<stop offset="1" stop-color="#2E8B95"/>
</linearGradient>
<linearGradient id="paint7_linear_875_1821" x1="466.262" y1="113" x2="1678.19" y2="113" gradientUnits="userSpaceOnUse">
<stop stop-color="#135A62"/>
<stop offset="1" stop-color="#2E8B95"/>
</linearGradient>
<linearGradient id="paint8_linear_875_1821" x1="466.262" y1="113" x2="1678.19" y2="113" gradientUnits="userSpaceOnUse">
<stop stop-color="#135A62"/>
<stop offset="1" stop-color="#2E8B95"/>
</linearGradient>
<linearGradient id="paint9_linear_875_1821" x1="466.262" y1="113" x2="1678.19" y2="113" gradientUnits="userSpaceOnUse">
<stop stop-color="#135A62"/>
<stop offset="1" stop-color="#2E8B95"/>
</linearGradient>
<linearGradient id="paint10_linear_875_1821" x1="466.262" y1="113" x2="1678.19" y2="113" gradientUnits="userSpaceOnUse">
<stop stop-color="#135A62"/>
<stop offset="1" stop-color="#2E8B95"/>
</linearGradient>
<linearGradient id="paint11_linear_875_1821" x1="34.3431" y1="85" x2="236.132" y2="85" gradientUnits="userSpaceOnUse">
<stop stop-color="#135A62"/>
<stop offset="1" stop-color="#2E8B95"/>
</linearGradient>
<linearGradient id="paint12_linear_875_1821" x1="34.3431" y1="85" x2="236.132" y2="85" gradientUnits="userSpaceOnUse">
<stop stop-color="#135A62"/>
<stop offset="1" stop-color="#2E8B95"/>
</linearGradient>
<linearGradient id="paint13_linear_875_1821" x1="34.3431" y1="85" x2="236.132" y2="85" gradientUnits="userSpaceOnUse">
<stop stop-color="#135A62"/>
<stop offset="1" stop-color="#2E8B95"/>
</linearGradient>
</defs>
</svg>
