<svg width="158" height="35" viewBox="0 0 158 35" fill="none" xmlns="http://www.w3.org/2000/svg">
<path d="M51.7292 26.3931C49.8832 26.3931 48.1932 26.0765 46.6622 25.4449C45.1313 24.8132 43.8068 23.9139 42.6888 22.747C41.5708 21.5571 40.696 20.1592 40.0644 18.5549C39.4572 16.9261 39.1528 15.1535 39.1528 13.2341C39.1528 11.3146 39.4801 9.67359 40.1362 8.09523C40.7924 6.51535 41.7039 5.13123 42.8693 3.93982C44.0362 2.74994 45.3959 1.82618 46.9513 1.17006C48.5067 0.51394 50.1952 0.186646 52.0182 0.186646C53.2571 0.186646 54.4607 0.368646 55.6261 0.732646C56.7931 1.09665 57.8621 1.60747 58.8333 2.26359C59.4971 2.69488 59.8718 3.17818 60.2511 3.71194C60.5768 4.17076 60.5707 4.79629 60.2266 5.24288L59.127 6.66829C58.6651 7.26629 57.7826 7.30759 57.1968 6.83041C56.8971 6.5857 56.5912 6.36394 56.2807 6.16359C55.6246 5.7017 54.9318 5.36218 54.2038 5.14347C53.4987 4.90029 52.7707 4.77947 52.0167 4.77947C50.8987 4.77947 49.8419 4.98594 48.8462 5.39888C47.8735 5.81182 47.0232 6.39453 46.2952 7.14853C45.5901 7.90253 45.0319 8.80029 44.619 9.84641C44.206 10.8665 43.9995 12.009 43.9995 13.2723C43.9995 14.5356 44.1938 15.727 44.5822 16.7716C44.9952 17.8162 45.5657 18.7155 46.2952 19.4695C47.0492 20.2219 47.9347 20.8062 48.9564 21.2191C50.001 21.6076 51.1434 21.8018 52.3822 21.8018C53.1837 21.8018 53.9621 21.6917 54.7146 21.473C55.4686 21.2543 56.1599 20.9499 56.7915 20.5615C56.998 20.4315 57.1984 20.2954 57.3926 20.1531C58.0365 19.6821 58.9801 19.7876 59.4007 20.4651L60.4224 22.1077C60.7114 22.5742 60.6655 23.1814 60.2495 23.5392C59.777 23.9461 59.2202 24.3254 58.5764 24.6786C57.6037 25.2139 56.5101 25.6391 55.2958 25.9542C54.1044 26.2463 52.9145 26.3916 51.7231 26.3916L51.7292 26.3931Z" fill="white"/>
<path d="M70.258 26.3931C68.6781 26.3931 67.2451 25.9557 65.9573 25.0808C64.6696 24.206 63.6372 23.0161 62.8587 21.5097C62.0818 20.0032 61.6918 18.2903 61.6918 16.3708C61.6918 14.4514 62.0803 12.7385 62.8587 11.232C63.6357 9.72555 64.694 8.54638 66.0292 7.69602C67.3659 6.84567 68.8724 6.42049 70.5486 6.42049C71.5213 6.42049 72.4069 6.56579 73.2098 6.8579C74.0112 7.12555 74.7163 7.51402 75.3234 8.02485C75.9306 8.53567 76.4292 9.11838 76.8177 9.77449C77.1067 10.2348 77.3316 10.7181 77.4891 11.2259C77.5839 11.5287 77.301 11.7964 76.9951 11.7168C76.8054 11.6679 76.6724 11.4966 76.6724 11.2993V8.06002C76.6724 7.37638 77.2276 6.8212 77.9112 6.8212H79.9545C80.6381 6.8212 81.1933 7.37485 81.1933 8.06002V24.7918C81.1933 25.4754 80.6381 26.0306 79.9545 26.0306H77.8745C77.1909 26.0306 76.6357 25.4754 76.6357 24.7918V21.8156C76.6357 21.5968 76.7932 21.4103 77.0073 21.3736C77.3285 21.3185 77.5946 21.6121 77.4707 21.9134C77.2933 22.3432 77.0501 22.7684 76.7443 23.1874C76.3068 23.7946 75.7486 24.3421 75.068 24.827C74.4119 25.2888 73.6717 25.6651 72.8443 25.9572C72.0428 26.2493 71.1803 26.3946 70.2565 26.3946L70.258 26.3931ZM71.4984 22.4197C72.543 22.4197 73.4667 22.1643 74.2681 21.655C75.0696 21.1441 75.689 20.4406 76.1264 19.5413C76.5883 18.6176 76.8192 17.5607 76.8192 16.3708C76.8192 15.181 76.5883 14.1716 76.1264 13.2723C75.689 12.373 75.0696 11.6679 74.2681 11.1586C73.4667 10.6478 72.543 10.3939 71.4984 10.3939C70.4538 10.3939 69.53 10.6493 68.7286 11.1586C67.9517 11.6694 67.343 12.373 66.9056 13.2723C66.4681 14.1716 66.2494 15.2039 66.2494 16.3708C66.2494 17.5378 66.4681 18.6191 66.9056 19.5413C67.343 20.4406 67.9501 21.1457 68.7286 21.655C69.53 22.1658 70.4538 22.4197 71.4984 22.4197Z" fill="white"/>
<path d="M85.462 26.0292C84.7783 26.0292 84.2231 25.474 84.2231 24.7903V8.05856C84.2231 7.37492 84.7768 6.81974 85.462 6.81974H87.5924C88.169 6.81974 88.6385 7.28315 88.6462 7.86127L88.6905 11.5319C88.6936 11.85 88.2608 11.9448 88.1308 11.6542C88.1033 11.5915 88.0971 11.5227 88.117 11.4569C88.3877 10.5255 88.8404 9.68433 89.4736 8.93339C90.1297 8.15645 90.8837 7.54774 91.7341 7.11033C92.6089 6.64845 93.5204 6.41751 94.4671 6.41751C94.8801 6.41751 95.2685 6.45421 95.6341 6.52609C96.1877 6.63009 96.4829 7.18833 96.3483 7.73586L95.6295 10.68C95.5041 11.1954 94.9107 11.4661 94.3952 11.3376C94.0068 11.2397 93.6183 11.1923 93.2283 11.1923C92.6211 11.1923 92.0384 11.3132 91.4787 11.5563C90.9434 11.775 90.4708 12.0916 90.0578 12.5046C89.6449 12.9175 89.3161 13.4039 89.0744 13.9621C88.8557 14.4974 88.7471 15.1046 88.7471 15.7852V24.7888C88.7471 25.4724 88.192 26.0276 87.5083 26.0276H85.465L85.462 26.0292Z" fill="white"/>
<path d="M105.448 34.4117C104.558 34.4117 103.959 33.5001 104.312 32.6819L107.062 26.3241C107.196 26.0121 107.66 26.1054 107.664 26.445C107.669 26.786 107.203 26.8885 107.063 26.578L98.9896 8.56613C98.6225 7.74636 99.2221 6.82107 100.12 6.82107H102.562C103.061 6.82107 103.511 7.1193 103.703 7.57813L108.669 19.3592C108.839 19.6758 109.009 20.101 109.18 20.6347C109.318 21.0492 109.44 21.4621 109.546 21.8766C109.587 22.0387 109.494 22.2054 109.333 22.2559C109.078 22.337 108.841 22.0907 108.935 21.8399C109.038 21.5677 109.143 21.2878 109.252 20.9987C109.446 20.4634 109.628 19.9174 109.799 19.3592L114.024 7.6393C114.201 7.14836 114.666 6.82107 115.189 6.82107H117.673C118.557 6.82107 119.156 7.72036 118.815 8.53707L111.512 26.0305L108.541 33.6271C108.356 34.1012 107.897 34.4147 107.388 34.4147H105.451L105.448 34.4117Z" fill="white"/>
<path d="M122.382 26.0289C121.879 26.0289 121.47 25.6206 121.47 25.1174V1.75256C121.47 1.06891 122.024 0.513737 122.709 0.513737H130.656C132.163 0.513737 133.499 0.853266 134.665 1.53385C135.856 2.21444 136.791 3.13821 137.471 4.30362C138.152 5.44609 138.491 6.74609 138.491 8.20362C138.491 9.66115 138.164 10.9367 137.508 12.0302C136.876 13.1237 135.989 13.9863 134.847 14.618C133.729 15.2252 132.453 15.5295 131.02 15.5295H124.531C123.847 15.5295 123.292 16.0832 123.292 16.7683V25.1159C123.292 25.619 122.884 26.0274 122.38 26.0274L122.382 26.0289ZM137.889 26.0289C137.563 26.0289 137.262 25.8546 137.098 25.5732L131.457 15.8155C131.214 15.3934 131.349 14.855 131.763 14.5981C132.195 14.3304 132.762 14.4727 133.016 14.9116L138.678 24.657C139.031 25.2657 138.592 26.0289 137.889 26.0289ZM123.292 12.4707C123.292 13.1543 123.847 13.7095 124.531 13.7095H131.239C132.283 13.7095 133.207 13.4786 134.009 13.0167C134.81 12.5548 135.429 11.9109 135.867 11.085C136.329 10.2592 136.56 9.32315 136.56 8.27856C136.56 7.13609 136.304 6.11597 135.793 5.21668C135.283 4.31738 134.567 3.61233 133.643 3.10303C132.744 2.59221 131.711 2.33833 130.544 2.33833H124.529C123.846 2.33833 123.29 2.89197 123.29 3.57715V12.4722L123.292 12.4707Z" fill="white"/>
<path d="M156.677 26.029C156.401 26.029 156.141 25.902 155.968 25.6849L149.241 17.1354L149.131 16.9902L142.48 8.53556C142.015 7.94368 142.436 7.0765 143.188 7.0765C143.465 7.0765 143.726 7.20344 143.898 7.42215L150.479 15.8247L150.589 15.97L157.383 24.5714C157.851 25.1618 157.428 26.0305 156.677 26.0305V26.029ZM142.836 26.029C142.108 26.029 141.7 25.1893 142.15 24.6173L148.383 16.6751C148.714 16.256 149.344 16.2469 149.687 16.6567C149.937 16.958 149.945 17.3939 149.705 17.7059L143.526 25.6925C143.361 25.9066 143.105 26.032 142.836 26.032V26.029ZM151.375 15.8446C151.046 16.2652 150.415 16.2744 150.072 15.8645C149.821 15.5632 149.813 15.1273 150.054 14.8169L155.758 7.4145C155.923 7.20039 156.179 7.07497 156.45 7.07497C157.179 7.07497 157.587 7.91309 157.138 8.48662L151.373 15.8446H151.375Z" fill="white"/>
<path d="M34.9908 22.1963C34.9908 22.1963 34.9862 22.1887 34.9862 22.1841C34.9832 20.075 33.388 18.3789 31.4242 18.3789H29.6287C28.9711 18.3789 28.5214 19.0427 28.7646 19.6529L31.2484 25.8868C31.2789 25.9618 31.3508 26.0122 31.4334 26.0122C33.4048 26.0122 34.9924 24.3069 34.9954 22.207C34.9954 22.2025 34.9939 22.1994 34.9908 22.1963Z" fill="white"/>
<path d="M22.3212 22.2085C22.3212 22.2085 22.3257 22.2101 22.3257 22.2131C22.3273 24.3268 23.927 26.0275 25.8939 26.0275H28.4052C29.0628 26.0275 29.5125 25.3637 29.2693 24.7535L26.9629 18.9662C26.8222 18.6129 26.4796 18.3804 26.0988 18.3804H25.8847C23.9072 18.3804 22.3166 20.0918 22.3166 22.1994V22.204C22.3166 22.204 22.3181 22.2085 22.3212 22.2085Z" fill="white"/>
<path d="M0.872732 0C0.352732 0 -0.052562 0.454235 0.00555569 0.972706C0.46132 5.06847 3.78932 7.64706 7.81932 7.64706H21.1007C21.7523 7.64706 22.1973 6.98788 21.9572 6.38224L20.7031 3.23165C19.7334 0.807529 17.499 0 15.032 0H0.872732Z" fill="white"/>
<path d="M8.4418 9.17946C7.91568 9.17946 7.50733 9.63675 7.56698 10.1598C8.0258 14.251 11.3584 16.8265 15.396 16.8265H24.7973C25.458 16.8265 25.9092 16.1566 25.6599 15.5449L23.3077 9.76063C23.1654 9.4104 22.8244 9.17946 22.4451 9.17946H8.4418Z" fill="white"/>
</svg>
