<svg width="1182" height="234" viewBox="0 0 1182 234" fill="none" xmlns="http://www.w3.org/2000/svg">
<path d="M82.7019 180.397C70.5563 180.397 59.4495 178.319 49.3814 174.164C39.3133 170.009 30.6037 164.096 23.2524 156.425C15.9011 148.595 10.148 139.406 5.99289 128.858C1.99763 118.151 0 106.485 0 93.8596C0 81.714 2.15744 70.4473 6.47232 60.0597C10.7872 49.672 16.7801 40.5628 24.451 32.7321C32.1219 24.9014 41.0713 18.8286 51.2991 14.5137C61.527 10.1988 72.6338 8.0414 84.6196 8.0414C92.7699 8.0414 100.681 9.23998 108.351 11.6371C116.022 14.0343 123.054 17.3903 129.446 21.7052C133.415 24.2848 136.983 27.1415 141.369 30.2754C145.797 33.4399 146.382 40.0079 142.282 43.5876L131.35 53.1313C128.136 55.9373 123.318 55.6844 120.081 52.905C117.66 50.8264 115.189 48.9763 112.666 47.3548C108.351 44.3184 103.797 42.081 99.0025 40.6427C94.368 39.0446 89.5737 38.2456 84.6196 38.2456C77.2683 38.2456 70.3166 39.6039 63.7643 42.3207C57.3719 45.0375 51.7786 48.873 46.9842 53.8271C42.3497 58.7812 38.6741 64.6942 35.9573 71.566C33.2406 78.2781 31.8822 85.7891 31.8822 94.0993C31.8822 102.569 33.1607 110.24 35.7176 117.112C38.4344 123.984 42.1899 129.897 46.9842 134.851C51.9384 139.805 57.7715 143.64 64.4835 146.357C71.3553 148.914 78.8664 150.193 87.0167 150.193C92.2905 150.193 97.4044 149.474 102.359 148.035C107.313 146.597 111.867 144.599 116.022 142.042C117.432 141.155 118.798 140.225 120.122 139.252C124.276 136.202 130.37 136.881 133.09 141.258L139.958 152.311C141.828 155.32 141.532 159.248 138.851 161.564C135.725 164.264 132.031 166.786 127.768 169.13C121.376 172.646 114.185 175.443 106.194 177.52C98.3633 179.438 90.5326 180.397 82.7019 180.397Z" fill="#011445"/>
<path d="M204.239 180.397C193.851 180.397 184.422 177.52 175.952 171.767C167.482 166.014 160.69 158.183 155.576 148.275C150.462 138.367 147.905 127.1 147.905 114.475C147.905 101.85 150.462 90.5834 155.576 80.6752C160.69 70.767 167.642 63.0162 176.432 57.4228C185.221 51.8294 195.129 49.0328 206.156 49.0328C212.549 49.0328 218.382 49.9916 223.656 51.9093C228.929 53.6673 233.564 56.2242 237.559 59.5802C241.554 62.9363 244.83 66.7717 247.387 71.0866C249.292 74.1124 250.765 77.2953 251.806 80.6354C252.426 82.6254 250.57 84.3858 248.552 83.8627C247.302 83.5385 246.429 82.41 246.429 81.1182V59.6696C246.429 55.2514 250.01 51.6696 254.429 51.6696H268.153C272.572 51.6696 276.153 55.2514 276.153 59.6696V170C276.153 174.418 272.572 178 268.153 178H254.189C249.771 178 246.189 174.418 246.189 170V150.28C246.189 148.844 247.223 147.617 248.637 147.373C250.749 147.009 252.505 148.945 251.686 150.925C250.515 153.752 248.923 156.545 246.908 159.302C244.031 163.297 240.356 166.893 235.881 170.089C231.566 173.125 226.692 175.603 221.258 177.52C215.985 179.438 210.311 180.397 204.239 180.397ZM212.389 154.268C219.261 154.268 225.334 152.59 230.607 149.234C235.881 145.878 239.956 141.243 242.833 135.33C245.869 129.258 247.387 122.306 247.387 114.475C247.387 106.804 245.869 100.012 242.833 94.0993C239.956 88.1863 235.881 83.5518 230.607 80.1958C225.334 76.8398 219.261 75.1618 212.389 75.1618C205.517 75.1618 199.444 76.8398 194.171 80.1958C189.057 83.5518 185.061 88.1863 182.185 94.0993C179.308 100.012 177.87 106.804 177.87 114.475C177.87 122.306 179.308 129.258 182.185 135.33C185.061 141.243 189.057 145.878 194.171 149.234C199.444 152.59 205.517 154.268 212.389 154.268Z" fill="#011445"/>
<path d="M306.124 178C301.706 178 298.124 174.418 298.124 170V59.6696C298.124 55.2514 301.706 51.6696 306.124 51.6696H320.283C324.078 51.6696 327.166 54.7217 327.211 58.516L327.499 82.6541C327.524 84.7434 324.67 85.3706 323.816 83.4632C323.634 83.0556 323.597 82.5967 323.722 82.1678C325.505 76.0407 328.479 70.5092 332.643 65.5731C336.958 60.4592 341.912 56.4639 347.506 53.5873C353.259 50.551 359.252 49.0328 365.484 49.0328C368.201 49.0328 370.758 49.2725 373.155 49.7519C376.8 50.4353 378.733 54.1072 377.853 57.7093L373.12 77.0692C372.291 80.4639 368.395 82.2419 365.005 81.3944C362.448 80.7551 359.891 80.4355 357.334 80.4355C353.339 80.4355 349.503 81.2345 345.828 82.8326C342.312 84.2709 339.196 86.3485 336.479 89.0653C333.762 91.782 331.605 94.9782 330.006 98.6539C328.568 102.17 327.849 106.165 327.849 110.64V170C327.849 174.418 324.267 178 319.849 178H306.124Z" fill="#011445"/>
<path d="M436.145 233.134C430.391 233.134 426.518 227.241 428.802 221.959L446.97 179.945C447.856 177.897 450.909 178.51 450.936 180.741C450.963 182.984 447.899 183.659 446.982 181.612L393.785 62.9421C391.412 57.6492 395.285 51.6696 401.085 51.6696H417.462C420.679 51.6696 423.584 53.5973 424.833 56.5623L457.53 134.132C458.649 136.209 459.767 139.006 460.886 142.522C461.793 145.244 462.595 147.966 463.292 150.687C463.567 151.758 462.949 152.85 461.896 153.187C460.219 153.724 458.661 152.096 459.278 150.446C459.948 148.655 460.644 146.812 461.365 144.919C462.644 141.403 463.842 137.807 464.961 134.132L492.78 56.9568C493.924 53.7843 496.934 51.6696 500.306 51.6696H516.956C522.667 51.6696 526.539 57.4814 524.339 62.7515L476.228 178L456.643 228.049C455.443 231.116 452.486 233.134 449.193 233.134H436.145Z" fill="#011445"/>
<path d="M662.539 178C659.229 178 656.546 175.317 656.546 172.007V16.1917C656.546 12.882 659.229 10.1988 662.539 10.1988C665.849 10.1988 668.532 12.8819 668.532 16.1917V172.007C668.532 175.317 665.849 178 662.539 178ZM547.955 178C544.645 178 541.962 175.317 541.962 172.007V16.1917C541.962 12.8819 544.645 10.1988 547.955 10.1988C551.265 10.1988 553.948 12.8819 553.948 16.1917V172.007C553.948 175.317 551.265 178 547.955 178ZM554.907 100.332C551.597 100.332 548.914 97.6488 548.914 94.339C548.914 91.0292 551.597 88.3461 554.907 88.3461H654.868C658.178 88.3461 660.861 91.0292 660.861 94.339C660.861 97.6488 658.178 100.332 654.868 100.332H554.907Z" fill="#011445"/>
<path d="M746.263 180.397C734.278 180.397 723.57 177.68 714.141 172.247C704.872 166.813 697.601 159.222 692.327 149.474C687.054 139.725 684.417 128.379 684.417 115.434C684.417 106.005 685.855 97.3754 688.732 89.5447C691.768 81.714 695.923 74.922 701.197 69.1689C706.471 63.2559 712.783 58.7013 720.134 55.5051C727.646 52.3089 735.796 50.7108 744.585 50.7108C753.215 50.7108 760.966 52.1491 767.838 55.0257C774.87 57.9022 780.782 62.0573 785.577 67.4909C790.371 72.7646 793.967 79.0771 796.364 86.4284C798.761 93.6198 799.8 101.61 799.48 110.4C799.346 114.013 796.379 116.872 792.764 116.872H698.8C695.755 116.872 693.286 114.404 693.286 111.359C693.286 108.314 695.755 105.845 698.8 105.845H788.882C790.186 105.845 790.769 107.481 789.76 108.306C788.854 109.047 787.494 108.403 787.494 107.233V104.407C787.494 98.0146 785.896 91.6222 782.7 85.2298C779.664 78.8374 774.949 73.4837 768.557 69.1689C762.164 64.854 754.094 62.6965 744.346 62.6965C735.236 62.6965 727.086 64.6942 719.895 68.6894C712.863 72.6847 707.27 78.5178 703.115 86.1887C699.119 93.8596 697.122 103.368 697.122 114.715C697.122 125.582 699.119 135.091 703.115 143.241C707.11 151.231 712.863 157.464 720.374 161.939C728.045 166.254 737.394 168.411 748.421 168.411C754.334 168.411 760.407 167.452 766.639 165.535C771.581 164.014 777.025 161.087 782.972 156.753C785.6 154.837 789.326 155.334 791.195 157.995C792.789 160.262 792.499 163.373 790.35 165.123C787.693 167.288 784.743 169.343 781.502 171.288C776.707 174.004 771.354 176.242 765.441 178C759.528 179.598 753.135 180.397 746.263 180.397Z" fill="#011445"/>
<path d="M873.174 180.397C861.827 180.397 851.68 177.6 842.73 172.007C833.781 166.413 826.669 158.743 821.395 148.994C816.281 139.246 813.725 128.139 813.725 115.674C813.725 103.049 816.361 91.8619 821.635 82.1135C827.069 72.3651 834.26 64.6942 843.21 59.1008C852.159 53.5075 862.147 50.7108 873.174 50.7108C879.566 50.7108 885.639 51.6696 891.392 53.5873C897.146 55.5051 902.339 58.2219 906.974 61.7377C911.608 65.0937 915.604 69.089 918.96 73.7235C921.377 77.0613 923.297 80.6064 924.719 84.3587C925.305 85.9062 923.604 87.1699 922.216 86.268C921.683 85.9214 921.371 85.3202 921.395 84.6847L922.346 58.9904C922.463 55.8408 925.05 53.3476 928.202 53.3476C931.438 53.3476 934.062 55.9711 934.062 59.2073V172.007C934.062 175.317 931.379 178 928.069 178C924.759 178 922.076 175.317 922.076 172.007V147.342C922.076 147.017 922.196 146.703 922.413 146.46C923.344 145.419 924.873 146.293 924.338 147.583C922.96 150.908 921.168 154.096 918.96 157.144C915.604 161.779 911.608 165.854 906.974 169.37C902.339 172.886 897.146 175.603 891.392 177.52C885.639 179.438 879.566 180.397 873.174 180.397ZM874.852 168.411C883.961 168.411 892.112 166.174 899.303 161.699C906.654 157.065 912.407 150.832 916.563 143.001C920.877 135.011 923.035 125.822 923.035 115.434C923.035 105.206 920.957 96.1768 916.802 88.3461C912.647 80.3556 906.894 74.123 899.543 69.6483C892.351 65.0138 884.121 62.6965 874.852 62.6965C865.423 62.6965 857.033 65.0138 849.682 69.6483C842.49 74.123 836.817 80.3556 832.662 88.3461C828.507 96.1768 826.429 105.206 826.429 115.434C826.429 125.502 828.427 134.531 832.422 142.522C836.577 150.512 842.251 156.825 849.442 161.459C856.793 166.094 865.263 168.411 874.852 168.411Z" fill="#011445"/>
<path d="M968.713 178C965.403 178 962.72 175.317 962.72 172.007V6.60309C962.72 3.29332 965.403 0.610229 968.713 0.610229C972.022 0.610229 974.706 3.29332 974.706 6.60309V172.007C974.706 175.317 972.022 178 968.713 178Z" fill="#011445"/>
<path d="M1027.4 178C1024.09 178 1021.41 175.317 1021.41 172.007V26.0201C1021.41 22.7103 1024.09 20.0272 1027.4 20.0272C1030.71 20.0272 1033.4 22.7103 1033.4 26.0201V172.007C1033.4 175.317 1030.71 178 1027.4 178ZM996.961 64.3745C993.916 64.3745 991.447 61.9061 991.447 58.8611C991.447 55.8161 993.916 53.3476 996.961 53.3476H1061.44C1064.49 53.3476 1066.96 55.8161 1066.96 58.8611C1066.96 61.9061 1064.49 64.3745 1061.44 64.3745H996.961Z" fill="#011445"/>
<path d="M1086.94 178C1084.55 178 1082.62 176.068 1082.62 173.685V6.60309C1082.62 3.29332 1085.3 0.610229 1088.61 0.610229C1091.92 0.610229 1094.61 3.29332 1094.61 6.60309V81.8634C1094.61 82.0268 1094.56 82.1868 1094.47 82.325C1093.95 83.1491 1092.84 82.6583 1093.17 81.7394C1095.09 76.3204 1097.97 71.5708 1101.8 67.4909C1106.75 62.0573 1112.51 57.9022 1119.06 55.0257C1125.77 52.1491 1132.48 50.7108 1139.19 50.7108C1148.78 50.7108 1156.69 52.5486 1162.93 56.2242C1169.32 59.8999 1174.03 65.5731 1177.07 73.244C1180.11 80.9149 1181.62 90.6634 1181.62 102.489V172.007C1181.62 175.317 1178.94 178 1175.63 178C1172.32 178 1169.64 175.317 1169.64 172.007V102.969C1169.64 93.6998 1168.44 86.1087 1166.04 80.1958C1163.65 74.123 1159.97 69.6483 1155.02 66.7717C1150.22 63.7353 1144.07 62.2171 1136.56 62.2171C1130.64 62.2171 1125.13 63.3358 1120.02 65.5731C1114.9 67.6507 1110.43 70.5272 1106.59 74.2029C1102.92 77.8785 1099.96 82.1135 1097.72 86.9078C1095.65 91.5423 1094.61 96.4964 1094.61 101.77V172.007C1094.61 175.317 1091.92 178 1088.61 178C1088.45 178 1087.9 178 1086.94 178Z" fill="#011445"/>
</svg>
