<svg xmlns="http://www.w3.org/2000/svg" width="173" height="24" fill="none"><path fill="url(#a)" d="M9.443 11.246a1.974 1.974 0 1 0 0-3.948 1.974 1.974 0 0 0 0 3.948Z"/><path fill="url(#b)" d="M18.408 1.75c.276 0 .504.225.475.5-.236 2.215-2.033 3.611-4.213 3.611H7.522a.5.5 0 0 1-.465-.686l.673-1.687c.522-1.304 1.726-1.738 3.055-1.738h7.623Z"/><path fill="url(#c)" d="M11.387 12.526c.277 0 .504.225.475.5-.236 2.215-2.033 3.612-4.213 3.612H.501a.5.5 0 0 1-.465-.687l.674-1.687c.521-1.303 1.725-1.738 3.054-1.738h7.623Z"/><path fill="url(#d)" d="M33.06 18.11c-1.226 0-2.351-.218-3.376-.655a7.824 7.824 0 0 1-2.67-1.864 8.884 8.884 0 0 1-1.763-2.896c-.403-1.109-.604-2.326-.604-3.653 0-1.26.218-2.426.655-3.5a9.208 9.208 0 0 1 1.864-2.872A8.437 8.437 0 0 1 29.91.755c1.041-.453 2.166-.68 3.375-.68.857 0 1.688.135 2.494.403a7.567 7.567 0 0 1 2.217 1.083c.454.307.851.645 1.19 1.013.278.302.24.764-.044 1.06l-.72.75c-.33.345-.878.346-1.244.04a7.914 7.914 0 0 0-.845-.62 5.79 5.79 0 0 0-1.511-.757 4.83 4.83 0 0 0-1.537-.251 5.67 5.67 0 0 0-2.317.478 5.699 5.699 0 0 0-1.864 1.285 6.134 6.134 0 0 0-1.234 1.99c-.302.755-.454 1.587-.454 2.493 0 .957.143 1.83.429 2.62a5.917 5.917 0 0 0 1.26 1.99 5.569 5.569 0 0 0 1.913 1.284c.756.286 1.587.429 2.494.429.554 0 1.1-.076 1.637-.227a6.06 6.06 0 0 0 1.512-.655c.158-.096.312-.199.462-.306.447-.324 1.1-.25 1.388.22l.47.767c.194.315.166.724-.11.969-.321.283-.705.547-1.153.793a9.392 9.392 0 0 1-2.216.882c-.806.201-1.62.302-2.443.302Z"/><path fill="url(#e)" d="M46.368 18.11a5.29 5.29 0 0 1-2.997-.907c-.89-.604-1.604-1.427-2.141-2.468-.538-1.041-.806-2.217-.806-3.526 0-1.327.268-2.503.806-3.527.554-1.041 1.293-1.855 2.216-2.443.94-.588 1.99-.882 3.149-.882.688 0 1.318.101 1.889.303a4.477 4.477 0 0 1 1.486.856c.437.353.79.764 1.058 1.234.21.346.361.71.453 1.093.046.19-.14.343-.326.279a.264.264 0 0 1-.177-.25V5.488c0-.472.382-.854.853-.854h.913c.471 0 .853.382.853.854v11.517a.854.854 0 0 1-.853.853h-.913a.853.853 0 0 1-.853-.853v-2.102c0-.114.075-.215.185-.247.189-.055.364.111.295.295-.117.31-.285.616-.506.917-.302.42-.697.798-1.183 1.134-.47.336-1 .604-1.587.806a5.41 5.41 0 0 1-1.814.302Zm.68-2.393c.79 0 1.486-.193 2.09-.579a3.921 3.921 0 0 0 1.411-1.587c.353-.688.53-1.47.53-2.342 0-.857-.177-1.62-.53-2.293a3.92 3.92 0 0 0-1.41-1.587c-.605-.386-1.302-.579-2.09-.579-.773 0-1.462.193-2.066.58a4.18 4.18 0 0 0-1.41 1.586c-.337.672-.505 1.436-.505 2.293 0 .873.168 1.654.504 2.342a4.18 4.18 0 0 0 1.41 1.587c.605.386 1.294.58 2.066.58Z"/><path fill="url(#f)" d="M57.113 17.858a.853.853 0 0 1-.854-.853V5.488c0-.472.383-.854.854-.854h1.31c.252 0 .456.204.456.456v2.695c0 .146-.208.172-.244.03a.122.122 0 0 1 .002-.064 4.724 4.724 0 0 1 .922-1.706c.454-.52.966-.932 1.537-1.234a3.92 3.92 0 0 1 1.813-.454c.286 0 .554.025.806.076.373.07.565.444.476.813l-.36 1.494c-.087.362-.48.562-.846.489-.235-.067-.47-.101-.706-.101-.453 0-.89.092-1.31.277a3.336 3.336 0 0 0-1.083.73 3.517 3.517 0 0 0-.73 1.084 3.165 3.165 0 0 0-.277 1.335v6.45a.854.854 0 0 1-.854.854h-.912Z"/><path fill="url(#g)" d="M70.254 23.652a.854.854 0 0 1-.783-1.193l1.752-4.05c.093-.213.412-.15.414.084.003.235-.318.304-.413.09l-5.642-12.75a.854.854 0 0 1 .78-1.199h1.147c.342 0 .651.205.785.52l3.91 9.203c.084.168.185.428.303.781.09.26.171.52.242.779a.228.228 0 0 1-.17.282.235.235 0 0 1-.273-.31c.078-.217.154-.434.226-.65.134-.353.26-.706.378-1.058l3.247-8.983a.854.854 0 0 1 .803-.564h1.2c.607 0 1.02.617.789 1.179l-4.956 12.045-2.03 5.248a.854.854 0 0 1-.797.546h-.912Z"/><path fill="url(#h)" d="M89.712 18.11c-1.293 0-2.485-.218-3.577-.655a8.766 8.766 0 0 1-2.821-1.889 8.79 8.79 0 0 1-1.839-2.897c-.436-1.108-.655-2.317-.655-3.627 0-1.31.21-2.502.63-3.576a8.444 8.444 0 0 1 1.788-2.847A8.293 8.293 0 0 1 85.984.755C87.042.32 88.2.1 89.46.1c.79 0 1.587.135 2.393.403a8.858 8.858 0 0 1 2.242 1.058c.518.342.97.721 1.355 1.139a.603.603 0 0 1-.024.825c-.284.299-.77.259-1.054-.04a5.795 5.795 0 0 0-.932-.79 7.378 7.378 0 0 0-1.915-.983 6.358 6.358 0 0 0-2.065-.352c-1.058 0-2.04.193-2.947.58-.89.369-1.663.898-2.317 1.586a7.686 7.686 0 0 0-1.512 2.443c-.352.94-.529 1.965-.529 3.073 0 1.125.185 2.167.554 3.124.37.957.89 1.788 1.562 2.493a7.515 7.515 0 0 0 2.393 1.612c.924.387 1.94.58 3.048.58.671 0 1.335-.093 1.99-.277a7.433 7.433 0 0 0 1.813-.806c.259-.17.492-.349.7-.538.308-.28.824-.257 1.042.098a.544.544 0 0 1-.069.675 6.334 6.334 0 0 1-1.27.948 9.662 9.662 0 0 1-2.04.857 8.028 8.028 0 0 1-2.166.302Z"/><path fill="url(#i)" d="M103.237 18.11c-1.31 0-2.477-.294-3.502-.881a6.432 6.432 0 0 1-2.392-2.444c-.571-1.04-.857-2.225-.857-3.551 0-1.31.286-2.469.856-3.476a6.298 6.298 0 0 1 2.393-2.393c1.025-.588 2.192-.882 3.502-.882 1.309 0 2.468.294 3.476.882a6.076 6.076 0 0 1 2.393 2.393c.57 1.007.856 2.166.856 3.476 0 1.326-.286 2.51-.856 3.551a6.204 6.204 0 0 1-2.393 2.444c-1.008.587-2.167.881-3.476.881Zm0-1.26c1.041 0 1.964-.243 2.77-.73a5.077 5.077 0 0 0 1.915-1.99c.47-.84.705-1.805.705-2.896 0-1.058-.235-1.999-.705-2.821a4.904 4.904 0 0 0-1.915-1.965c-.806-.47-1.729-.705-2.77-.705-1.058 0-1.999.235-2.821.705a5.124 5.124 0 0 0-1.915 1.965c-.453.822-.68 1.763-.68 2.82 0 1.092.227 2.058.68 2.897a5.313 5.313 0 0 0 1.915 1.99c.822.487 1.763.73 2.821.73Z"/><path fill="url(#j)" d="M112.304 17.858a.453.453 0 0 1-.453-.453V5.379a.618.618 0 0 1 1.236-.029l.096 2.116a.063.063 0 0 1-.062.065.06.06 0 0 1-.058-.081c.19-.523.516-1 .979-1.43a5.307 5.307 0 0 1 1.738-1.109 5.604 5.604 0 0 1 2.166-.428c.924 0 1.705.193 2.343.58.655.386 1.142.982 1.461 1.788.336.806.504 1.83.504 3.073v7.305a.63.63 0 0 1-1.26 0V9.974c0-.974-.134-1.771-.403-2.393-.252-.638-.63-1.108-1.133-1.41-.504-.32-1.134-.479-1.89-.479-.654 0-1.251.118-1.788.353a4.423 4.423 0 0 0-1.41.907 4.061 4.061 0 0 0-.932 1.335 3.763 3.763 0 0 0-.328 1.561v7.38a.63.63 0 0 1-.63.63h-.176Z"/><path fill="url(#k)" d="M125.176 17.858a.453.453 0 0 1-.453-.453V5.379a.618.618 0 0 1 1.235-.029l.097 2.116a.063.063 0 0 1-.062.065.06.06 0 0 1-.058-.081c.19-.523.516-1 .979-1.43a5.307 5.307 0 0 1 1.738-1.109 5.6 5.6 0 0 1 2.166-.428c.924 0 1.705.193 2.343.58.655.386 1.142.982 1.461 1.788.336.806.503 1.83.503 3.073v7.305a.629.629 0 1 1-1.259 0V9.974c0-.974-.134-1.771-.403-2.393-.252-.638-.63-1.108-1.133-1.41-.504-.32-1.134-.479-1.89-.479-.655 0-1.251.118-1.788.353a4.428 4.428 0 0 0-1.411.907 4.091 4.091 0 0 0-.932 1.335 3.778 3.778 0 0 0-.327 1.561v7.38a.63.63 0 0 1-.63.63h-.176Z"/><path fill="url(#l)" d="M144.021 18.11c-1.26 0-2.385-.285-3.376-.856a6.047 6.047 0 0 1-2.292-2.393c-.554-1.025-.831-2.217-.831-3.577 0-.99.151-1.897.453-2.72a6.736 6.736 0 0 1 1.31-2.141 5.657 5.657 0 0 1 1.99-1.436 6.493 6.493 0 0 1 2.569-.504c.907 0 1.722.151 2.444.454.738.302 1.36.738 1.864 1.31a5.418 5.418 0 0 1 1.133 1.99c.252.755.361 1.595.328 2.518a.707.707 0 0 1-.706.68h-9.874a.579.579 0 1 1 0-1.158h9.466a.146.146 0 1 1-.146.145v-.297c0-.671-.168-1.343-.504-2.015-.319-.671-.814-1.234-1.486-1.687-.671-.454-1.52-.68-2.544-.68-.957 0-1.813.21-2.569.63-.739.42-1.327 1.032-1.763 1.838-.42.806-.63 1.805-.63 2.998 0 1.141.21 2.14.63 2.997a4.664 4.664 0 0 0 1.813 1.965c.806.453 1.789.68 2.947.68.622 0 1.26-.101 1.915-.302.519-.16 1.091-.468 1.716-.923a.614.614 0 0 1 .864.13.552.552 0 0 1-.089.75 7.889 7.889 0 0 1-.93.647 8.065 8.065 0 0 1-1.687.705 7.706 7.706 0 0 1-2.015.252Z"/><path fill="url(#m)" d="M157.649 18.11c-1.26 0-2.385-.294-3.376-.881a6.415 6.415 0 0 1-2.317-2.418c-.554-1.025-.831-2.2-.831-3.527 0-1.326.277-2.502.831-3.526a6.172 6.172 0 0 1 2.343-2.393c.99-.588 2.132-.882 3.425-.882 1.075 0 2.049.21 2.922.63a6.037 6.037 0 0 1 1.892 1.38.587.587 0 0 1 .006.771c-.252.307-.721.304-1.012.033a5.15 5.15 0 0 0-.735-.572 5.713 5.713 0 0 0-1.511-.73 5.543 5.543 0 0 0-1.663-.252c-.99 0-1.872.243-2.644.73-.773.47-1.386 1.125-1.839 1.965-.453.823-.68 1.771-.68 2.846 0 1.075.218 2.032.655 2.872a5.253 5.253 0 0 0 1.838 1.99c.773.47 1.638.705 2.595.705.554 0 1.1-.084 1.637-.252a6.185 6.185 0 0 0 1.511-.705 6.26 6.26 0 0 0 .763-.61c.288-.27.752-.269 1.003.037a.592.592 0 0 1-.012.783 6.203 6.203 0 0 1-1.955 1.377 6.7 6.7 0 0 1-2.846.63Z"/><path fill="url(#n)" d="M167.814 17.858a.63.63 0 0 1-.63-.63V1.889a.63.63 0 0 1 1.26 0v15.34a.63.63 0 0 1-.63.63Zm-3.199-11.94a.579.579 0 0 1 0-1.158h6.776a.579.579 0 0 1 0 1.159h-6.776Z"/><defs><linearGradient id="a" x1="25.011" x2="171.97" y1="11.863" y2="11.863" gradientUnits="userSpaceOnUse"><stop stop-color="#135A62"/><stop offset="1" stop-color="#2E8B95"/></linearGradient><linearGradient id="b" x1="25.011" x2="171.97" y1="11.863" y2="11.863" gradientUnits="userSpaceOnUse"><stop stop-color="#135A62"/><stop offset="1" stop-color="#2E8B95"/></linearGradient><linearGradient id="c" x1="25.011" x2="171.97" y1="11.863" y2="11.863" gradientUnits="userSpaceOnUse"><stop stop-color="#135A62"/><stop offset="1" stop-color="#2E8B95"/></linearGradient><linearGradient id="d" x1="25.011" x2="171.97" y1="11.863" y2="11.863" gradientUnits="userSpaceOnUse"><stop stop-color="#135A62"/><stop offset="1" stop-color="#2E8B95"/></linearGradient><linearGradient id="e" x1="25.011" x2="171.97" y1="11.863" y2="11.863" gradientUnits="userSpaceOnUse"><stop stop-color="#135A62"/><stop offset="1" stop-color="#2E8B95"/></linearGradient><linearGradient id="f" x1="25.011" x2="171.97" y1="11.863" y2="11.863" gradientUnits="userSpaceOnUse"><stop stop-color="#135A62"/><stop offset="1" stop-color="#2E8B95"/></linearGradient><linearGradient id="g" x1="25.011" x2="171.97" y1="11.863" y2="11.863" gradientUnits="userSpaceOnUse"><stop stop-color="#135A62"/><stop offset="1" stop-color="#2E8B95"/></linearGradient><linearGradient id="h" x1="25.011" x2="171.97" y1="11.863" y2="11.863" gradientUnits="userSpaceOnUse"><stop stop-color="#135A62"/><stop offset="1" stop-color="#2E8B95"/></linearGradient><linearGradient id="i" x1="25.011" x2="171.97" y1="11.863" y2="11.863" gradientUnits="userSpaceOnUse"><stop stop-color="#135A62"/><stop offset="1" stop-color="#2E8B95"/></linearGradient><linearGradient id="j" x1="25.011" x2="171.97" y1="11.863" y2="11.863" gradientUnits="userSpaceOnUse"><stop stop-color="#135A62"/><stop offset="1" stop-color="#2E8B95"/></linearGradient><linearGradient id="k" x1="25.011" x2="171.97" y1="11.863" y2="11.863" gradientUnits="userSpaceOnUse"><stop stop-color="#135A62"/><stop offset="1" stop-color="#2E8B95"/></linearGradient><linearGradient id="l" x1="25.011" x2="171.97" y1="11.863" y2="11.863" gradientUnits="userSpaceOnUse"><stop stop-color="#135A62"/><stop offset="1" stop-color="#2E8B95"/></linearGradient><linearGradient id="m" x1="25.011" x2="171.97" y1="11.863" y2="11.863" gradientUnits="userSpaceOnUse"><stop stop-color="#135A62"/><stop offset="1" stop-color="#2E8B95"/></linearGradient><linearGradient id="n" x1="25.011" x2="171.97" y1="11.863" y2="11.863" gradientUnits="userSpaceOnUse"><stop stop-color="#135A62"/><stop offset="1" stop-color="#2E8B95"/></linearGradient></defs></svg>