<svg width="224" height="35" viewBox="0 0 224 35" fill="none" xmlns="http://www.w3.org/2000/svg">
<path d="M10.1782 26.1708C8.23523 26.1708 6.49241 25.7116 4.9537 24.7891C3.41892 23.8667 2.20208 22.6145 1.30319 21.0248C0.43178 19.4115 0 17.6216 0 15.6472C0 13.6727 0.435706 11.82 1.30319 10.2303C2.19816 8.61699 3.41499 7.34912 4.9537 6.4306C6.48848 5.50816 8.23131 5.04891 10.1782 5.04891C11.9956 5.04891 13.6482 5.39434 15.1319 6.08519C16.6432 6.74856 17.8208 7.671 18.6647 8.8525L15.705 12.4638C15.3478 11.977 14.8964 11.5295 14.3626 11.1213C13.8248 10.7131 13.236 10.3912 12.5962 10.1596C11.9799 9.92803 11.3401 9.8142 10.6768 9.8142C9.62871 9.8142 8.69449 10.0693 7.87411 10.5836C7.05372 11.0703 6.4139 11.7611 5.95465 12.66C5.49539 13.5314 5.2638 14.5167 5.2638 15.6197C5.2638 16.7227 5.50716 17.6687 5.9939 18.5362C6.48063 19.4076 7.13615 20.0984 7.95261 20.6126C8.77299 21.1268 9.68366 21.382 10.6807 21.382C11.3441 21.382 11.9721 21.2917 12.5609 21.1111C13.1772 20.9031 13.7385 20.6087 14.2488 20.228C14.763 19.8472 15.2458 19.3958 15.709 18.8855L18.6686 22.4968C17.8208 23.5998 16.6196 24.4947 15.0574 25.1856C13.5226 25.849 11.8975 26.1826 10.1782 26.1826V26.1708Z" fill="white"/>
<path d="M37.561 8.11847C36.8976 7.09398 35.9477 6.32462 34.7191 5.81433C33.514 5.30012 32.0931 5.04498 30.4562 5.04498C28.6624 5.04498 27.002 5.3904 25.4633 6.08125C23.952 6.7721 22.586 7.75735 21.3535 9.04092L24.6939 12.2675C25.4083 11.3961 26.1816 10.7563 26.9981 10.348C27.8184 9.9398 28.7527 9.73176 29.8007 9.73176C30.8488 9.73176 31.7712 10.0262 32.411 10.6149C33.0744 11.1802 33.408 11.9966 33.408 13.0722V13.6492H30.103C28.5917 13.6492 27.2611 13.7905 26.107 14.0692C24.9805 14.3518 24.0305 14.76 23.2651 15.2978C22.5232 15.812 21.9619 16.4754 21.5772 17.2958C21.1926 18.0887 21.0002 19.0111 21.0002 20.0631C21.0002 21.2917 21.2946 22.3672 21.8834 23.2897C22.4997 24.1846 23.3201 24.8912 24.3406 25.4015C25.3887 25.9157 26.5545 26.1708 27.8341 26.1708C28.8312 26.1708 29.7772 25.9785 30.676 25.5938C31.5749 25.2091 32.4071 24.6831 33.1725 24.0198C33.251 23.9491 33.3256 23.8745 33.4041 23.8039V25.7861H38.5501V11.9966C38.5501 10.4344 38.2165 9.14297 37.5531 8.11847L37.561 8.12632V8.11847ZM32.8389 20.5616C32.3011 21.0209 31.6848 21.382 30.994 21.6371C30.3306 21.8923 29.6241 22.0218 28.8822 22.0218C28.368 22.0218 27.9087 21.9315 27.5005 21.751C27.1158 21.5704 26.8096 21.3153 26.5781 20.9816C26.3465 20.648 26.2326 20.2672 26.2326 19.8276C26.2326 19.4193 26.3072 19.0582 26.4642 18.752C26.6448 18.4459 26.8842 18.175 27.1943 17.9434C27.528 17.7119 27.9244 17.547 28.3837 17.441C28.8704 17.3389 29.42 17.2879 30.0323 17.2879H33.412V19.9767C33.2353 20.1769 33.0469 20.3693 32.8349 20.5537L32.8389 20.5616Z" fill="white"/>
<path d="M43.2685 5.36687H48.0063L48.3714 7.97717C48.9405 7.27062 49.5804 6.69754 50.2908 6.26183C51.0249 5.79865 51.8295 5.48463 52.701 5.31977C53.5724 5.12743 54.483 5.14313 55.4369 5.35902V10.2578C54.7028 10.0105 53.9256 9.94374 53.1092 10.0536C52.3202 10.1636 51.5705 10.4462 50.8639 10.9133C50.1849 11.3765 49.6118 12.0438 49.1486 12.9152C48.7168 13.7591 48.497 14.8346 48.497 16.1418V25.7783H43.2685V5.36294V5.36687Z" fill="white"/>
<path d="M73.1518 5.46894L68.8889 17.5274C68.7044 18.1083 68.5199 18.65 68.3355 19.1642C68.2923 19.0268 68.2491 18.8895 68.1981 18.756C67.99 18.1672 67.8016 17.6687 67.6211 17.2565L62.6281 5.46501H56.4458L65.6506 25.7587L61.8627 34.6141H67.3934L70.8869 25.7783L79.4126 5.46108H73.1518V5.46894Z" fill="white"/>
<path d="M91.0979 26.1708C89.1785 26.1708 87.4592 25.7116 85.9519 24.7891C84.4642 23.8667 83.2866 22.6263 82.4191 21.064C81.5713 19.4782 81.1513 17.6844 81.1513 15.6864C81.1513 13.6884 81.5713 11.9495 82.4191 10.3873C83.2906 8.80147 84.4681 7.55716 85.9519 6.66219C87.4631 5.73975 89.1745 5.28049 91.0979 5.28049C92.8408 5.28049 94.4148 5.62592 95.82 6.31677C97.2292 6.98014 98.3401 7.91435 99.1644 9.11941L97.4726 11.1174C97.0094 10.5011 96.4481 9.96335 95.7847 9.50409C95.1174 9.01736 94.403 8.64446 93.6337 8.38931C92.8643 8.10669 92.0989 7.96931 91.3295 7.96931C89.9203 7.96931 88.6525 8.30296 87.5299 8.96633C86.4268 9.6297 85.5594 10.5521 84.9195 11.7336C84.2797 12.8877 83.9578 14.2027 83.9578 15.6903C83.9578 17.178 84.2758 18.5048 84.9195 19.6863C85.5829 20.8638 86.4818 21.7981 87.6084 22.4889C88.7349 23.1798 89.991 23.5252 91.3727 23.5252C92.1421 23.5252 92.8839 23.4113 93.5983 23.1798C94.3402 22.9246 95.035 22.5635 95.6748 22.1042C96.3146 21.645 96.9152 21.0797 97.4804 20.4164L99.133 22.4536C98.2851 23.5566 97.135 24.4515 95.6787 25.1424C94.2421 25.8332 92.7191 26.1787 91.1058 26.1787L91.0979 26.1708Z" fill="white"/>
<path d="M111.886 26.1708C109.916 26.1708 108.149 25.7233 106.587 24.8284C105.052 23.9059 103.835 22.6655 102.937 21.1033C102.042 19.5175 101.594 17.7118 101.594 15.6864C101.594 13.661 102.042 11.871 102.937 10.3127C103.832 8.75044 105.048 7.52182 106.587 6.62685C108.149 5.73189 109.916 5.28442 111.886 5.28442C113.857 5.28442 115.611 5.73189 117.146 6.62685C118.708 7.52182 119.925 8.75436 120.797 10.3127C121.692 11.875 122.139 13.6688 122.139 15.6864C122.139 17.704 121.692 19.5135 120.797 21.1033C119.925 22.6655 118.708 23.9059 117.146 24.8284C115.611 25.7233 113.853 26.1708 111.886 26.1708ZM111.886 23.482C113.295 23.482 114.551 23.1484 115.651 22.485C116.777 21.7941 117.645 20.8599 118.261 19.6823C118.901 18.5047 119.207 17.1741 119.183 15.6864C119.207 14.1752 118.901 12.8445 118.261 11.6905C117.649 10.5364 116.777 9.6297 115.651 8.9624C114.548 8.29903 113.291 7.96538 111.886 7.96538C110.481 7.96538 109.209 8.29903 108.087 8.9624C106.984 9.62577 106.116 10.5482 105.476 11.7297C104.836 12.8837 104.53 14.1987 104.554 15.6864C104.53 17.1741 104.836 18.5008 105.476 19.6823C106.116 20.8599 106.987 21.7941 108.087 22.485C109.213 23.1484 110.481 23.482 111.886 23.482Z" fill="white"/>
<path d="M142.429 8.80936C141.891 7.6043 141.098 6.72111 140.046 6.1598C139.022 5.57101 137.754 5.27661 136.247 5.27661C135.12 5.27661 134.033 5.51997 132.981 6.00671C131.933 6.46597 131.038 7.06654 130.292 7.81234C129.911 8.19309 129.589 8.59347 129.334 9.0174V5.62203H126.418V25.7823H129.334V12.8014C129.334 12.2361 129.487 11.6748 129.793 11.1135C130.1 10.5247 130.524 9.99872 131.061 9.53946C131.599 9.05272 132.227 8.66805 132.941 8.38543C133.683 8.10281 134.492 7.96542 135.363 7.96542C136.466 7.94187 137.373 8.11851 138.091 8.50319C138.833 8.88787 139.383 9.5002 139.744 10.3481C140.129 11.1959 140.321 12.2675 140.321 13.5746V25.7901H143.238V13.3862C143.238 11.5413 142.967 10.0183 142.429 8.81328V8.80936Z" fill="white"/>
<path d="M164.595 8.80936C164.057 7.6043 163.264 6.72111 162.212 6.1598C161.187 5.57101 159.92 5.27661 158.412 5.27661C157.286 5.27661 156.198 5.51997 155.146 6.00671C154.098 6.46597 153.203 7.06654 152.458 7.81234C152.077 8.19309 151.759 8.59347 151.496 9.0174V5.62203H148.579V25.7823H151.496V12.8014C151.496 12.2361 151.649 11.6748 151.955 11.1135C152.261 10.5247 152.685 9.99872 153.223 9.53946C153.761 9.05272 154.389 8.66805 155.103 8.38543C155.845 8.10281 156.654 7.96542 157.525 7.96542C158.624 7.94187 159.535 8.11851 160.253 8.50319C160.995 8.88787 161.545 9.5002 161.902 10.3481C162.286 11.1959 162.479 12.2675 162.479 13.5746V25.7901H165.395V13.3862C165.395 11.5413 165.124 10.0183 164.587 8.81328L164.595 8.80936Z" fill="white"/>
<path d="M187.954 10.9997C187.519 9.82208 186.891 8.80935 186.074 7.96542C185.254 7.09401 184.28 6.43064 183.158 5.96745C182.055 5.5082 180.865 5.27661 179.586 5.27661C178.125 5.27661 176.783 5.53175 175.554 6.04596C174.326 6.56017 173.262 7.28635 172.367 8.23626C171.496 9.1587 170.805 10.2735 170.291 11.5767C169.804 12.8563 169.56 14.2773 169.56 15.8395C169.56 17.8375 169.996 19.6156 170.864 21.1779C171.759 22.7402 172.991 23.9688 174.549 24.8637C176.112 25.7352 177.906 26.1669 179.927 26.1669C180.873 26.1669 181.819 26.0413 182.769 25.7823C183.715 25.5271 184.602 25.1817 185.423 24.746C186.27 24.2867 186.997 23.749 187.613 23.1327L186.153 21.0562C185.179 21.9276 184.221 22.5557 183.275 22.9364C182.329 23.2936 181.305 23.4742 180.202 23.4742C178.667 23.4742 177.309 23.1562 176.131 22.5164C174.977 21.8531 174.082 20.9424 173.443 19.7884C172.893 18.7756 172.567 17.6098 172.473 16.2949H188.496L188.535 14.8347C188.586 13.4255 188.394 12.1458 187.958 10.9957V11.0036L187.954 10.9997ZM173.286 11.5767C173.851 10.4226 174.667 9.53946 175.743 8.92712C176.818 8.2873 178.102 7.96935 179.582 7.96935C180.63 7.96935 181.591 8.21272 182.459 8.69946C183.354 9.18619 184.084 9.85349 184.649 10.6974C185.214 11.5453 185.521 12.5148 185.572 13.6139L185.56 13.9201H172.583C172.72 13.0526 172.952 12.2715 173.286 11.5767Z" fill="white"/>
<path d="M201.48 26.1708C199.561 26.1708 197.842 25.7116 196.33 24.7891C194.843 23.8667 193.665 22.6263 192.798 21.064C191.95 19.4782 191.53 17.6844 191.53 15.6864C191.53 13.6884 191.95 11.9495 192.798 10.3873C193.669 8.80147 194.847 7.55716 196.33 6.66219C197.842 5.73975 199.557 5.28049 201.48 5.28049C203.223 5.28049 204.797 5.62592 206.202 6.31677C207.612 6.98014 208.722 7.91435 209.543 9.11941L207.855 11.1174C207.396 10.5011 206.83 9.96335 206.167 9.50409C205.504 9.01736 204.785 8.64446 204.016 8.38931C203.247 8.10669 202.481 7.96931 201.712 7.96931C200.303 7.96931 199.035 8.30296 197.912 8.96633C196.809 9.6297 195.942 10.5521 195.302 11.7336C194.662 12.8877 194.34 14.2027 194.34 15.6903C194.34 17.178 194.658 18.5048 195.302 19.6863C195.965 20.8638 196.864 21.7981 197.991 22.4889C199.117 23.1798 200.373 23.5252 201.755 23.5252C202.524 23.5252 203.266 23.4113 203.981 23.1798C204.723 22.9246 205.417 22.5635 206.057 22.1042C206.697 21.645 207.298 21.0797 207.863 20.4164L209.515 22.4536C208.668 23.5566 207.517 24.4515 206.061 25.1424C204.624 25.8332 203.101 26.1787 201.488 26.1787L201.48 26.1708Z" fill="white"/>
<path d="M224 5.62199H218.968V0.475952H216.051V5.62199H211.404V8.46389H216.051V25.7861H218.968V8.46389H224V5.62199Z" fill="white"/>
</svg>
