<svg width="159" height="35" viewBox="0 0 159 35" fill="none" xmlns="http://www.w3.org/2000/svg">
<path d="M51.8839 26.3931C50.0324 26.3931 48.3374 26.0765 46.8019 25.4449C45.2664 24.8132 43.9379 23.9139 42.8166 22.747C41.6952 21.5571 40.8178 20.1592 40.1843 18.5549C39.5753 16.9261 39.27 15.1535 39.27 13.2341C39.27 11.3146 39.5983 9.67359 40.2564 8.09523C40.9145 6.51535 41.8287 5.13123 42.9976 3.93982C44.168 2.74994 45.5317 1.82617 47.0918 1.17006C48.6518 0.51394 50.3454 0.186646 52.1739 0.186646C53.4164 0.186646 54.6236 0.368645 55.7925 0.732645C56.963 1.09665 58.0352 1.60747 59.0093 2.26359C59.675 2.69488 60.0509 3.17817 60.4313 3.71194C60.758 4.17076 60.7519 4.79629 60.4067 5.24288L59.3038 6.66829C58.8405 7.26629 57.9554 7.30759 57.3679 6.83041C57.0673 6.5857 56.7605 6.36394 56.4491 6.16359C55.791 5.7017 55.0961 5.36217 54.3659 5.14347C53.6588 4.90029 52.9286 4.77947 52.1723 4.77947C51.051 4.77947 49.991 4.98594 48.9924 5.39888C48.0168 5.81182 47.1639 6.39453 46.4337 7.14853C45.7265 7.90253 45.1666 8.80029 44.7525 9.84641C44.3383 10.8665 44.1312 12.009 44.1312 13.2723C44.1312 14.5356 44.326 15.727 44.7157 16.7716C45.1298 17.8162 45.702 18.7155 46.4337 19.4695C47.19 20.2219 48.0781 20.8062 49.1028 21.2191C50.1505 21.6076 51.2964 21.8018 52.539 21.8018C53.3428 21.8018 54.1236 21.6917 54.8783 21.473C55.6345 21.2543 56.3279 20.9499 56.9614 20.5615C57.1685 20.4315 57.3695 20.2954 57.5643 20.1531C58.2101 19.6821 59.1565 19.7876 59.5784 20.4651L60.6031 22.1077C60.893 22.5742 60.847 23.1814 60.4297 23.5392C59.9557 23.9461 59.3974 24.3253 58.7516 24.6786C57.776 25.2139 56.6792 25.6391 55.4612 25.9542C54.2662 26.2463 53.0728 26.3916 51.8778 26.3916L51.8839 26.3931Z" fill="url(#paint0_linear_23174_14513)"/>
<path d="M70.4681 26.3931C68.8835 26.3931 67.4462 25.9557 66.1546 25.0808C64.863 24.206 63.8275 23.0161 63.0467 21.5097C62.2675 20.0032 61.8763 18.2903 61.8763 16.3708C61.8763 14.4514 62.2659 12.7385 63.0467 11.232C63.826 9.72555 64.8875 8.54637 66.2267 7.69602C67.5674 6.84567 69.0783 6.42049 70.7596 6.42049C71.7352 6.42049 72.6234 6.56579 73.4287 6.8579C74.2325 7.12555 74.9397 7.51402 75.5487 8.02484C76.1577 8.53567 76.6577 9.11837 77.0474 9.77449C77.3373 10.2348 77.5628 10.7181 77.7208 11.2259C77.8159 11.5287 77.5321 11.7964 77.2253 11.7168C77.0351 11.6679 76.9016 11.4966 76.9016 11.2993V8.06002C76.9016 7.37637 77.4585 6.8212 78.1442 6.8212H80.1936C80.8793 6.8212 81.4361 7.37484 81.4361 8.06002V24.7918C81.4361 25.4754 80.8793 26.0306 80.1936 26.0306H78.1074C77.4217 26.0306 76.8648 25.4754 76.8648 24.7918V21.8156C76.8648 21.5968 77.0228 21.4103 77.2376 21.3736C77.5597 21.3185 77.8266 21.6121 77.7024 21.9134C77.5244 22.3432 77.2805 22.7684 76.9737 23.1874C76.535 23.7946 75.9751 24.3421 75.2925 24.827C74.6344 25.2888 73.892 25.6651 73.0621 25.9572C72.2583 26.2493 71.3931 26.3946 70.4666 26.3946L70.4681 26.3931ZM71.7122 22.4197C72.7599 22.4197 73.6864 22.1643 74.4902 21.655C75.294 21.1441 75.9153 20.4406 76.354 19.5413C76.8173 18.6175 77.0489 17.5607 77.0489 16.3708C77.0489 15.181 76.8173 14.1716 76.354 13.2723C75.9153 12.373 75.294 11.6679 74.4902 11.1586C73.6864 10.6478 72.7599 10.3939 71.7122 10.3939C70.6645 10.3939 69.738 10.6493 68.9342 11.1586C68.1549 11.6694 67.5444 12.373 67.1057 13.2723C66.6669 14.1716 66.4476 15.2039 66.4476 16.3708C66.4476 17.5378 66.6669 18.6191 67.1057 19.5413C67.5444 20.4406 68.1534 21.1457 68.9342 21.655C69.738 22.1658 70.6645 22.4197 71.7122 22.4197Z" fill="url(#paint1_linear_23174_14513)"/>
<path d="M85.7175 26.0292C85.0318 26.0292 84.475 25.474 84.475 24.7903V8.05856C84.475 7.37492 85.0303 6.81974 85.7175 6.81974H87.8543C88.4326 6.81974 88.9036 7.28315 88.9112 7.86127L88.9557 11.5319C88.9588 11.85 88.5247 11.9448 88.3943 11.6542C88.3667 11.5915 88.3605 11.5227 88.3805 11.4569C88.652 10.5255 89.106 9.68433 89.7411 8.93339C90.3992 8.15645 91.1554 7.54774 92.0083 7.11033C92.8858 6.64845 93.8 6.4175 94.7496 6.4175C95.1637 6.4175 95.5534 6.45421 95.92 6.52609C96.4753 6.63009 96.7713 7.18833 96.6364 7.73586L95.9154 10.68C95.7896 11.1954 95.1944 11.4661 94.6775 11.3376C94.2878 11.2397 93.8982 11.1923 93.507 11.1923C92.8981 11.1923 92.3136 11.3132 91.7522 11.5563C91.2153 11.775 90.7413 12.0916 90.3271 12.5046C89.9129 12.9175 89.5831 13.4039 89.3407 13.9621C89.1214 14.4974 89.0125 15.1046 89.0125 15.7852V24.7888C89.0125 25.4724 88.4556 26.0276 87.7699 26.0276H85.7206L85.7175 26.0292Z" fill="url(#paint2_linear_23174_14513)"/>
<path d="M105.764 34.4117C104.871 34.4117 104.269 33.5001 104.624 32.6819L107.382 26.3241C107.517 26.0121 107.982 26.1054 107.986 26.4449C107.991 26.786 107.523 26.8885 107.383 26.578L99.2855 8.56612C98.9174 7.74636 99.5187 6.82107 100.419 6.82107H102.869C103.369 6.82107 103.82 7.1193 104.013 7.57812L108.994 19.3592C109.164 19.6758 109.335 20.1009 109.506 20.6347C109.644 21.0492 109.767 21.4621 109.873 21.8766C109.914 22.0387 109.821 22.2054 109.66 22.2559C109.404 22.3369 109.166 22.0907 109.261 21.8399C109.364 21.5677 109.47 21.2878 109.579 20.9987C109.773 20.4634 109.956 19.9174 110.128 19.3592L114.365 7.6393C114.542 7.14836 115.009 6.82107 115.533 6.82107H118.025C118.911 6.82107 119.513 7.72036 119.171 8.53707L111.846 26.0305L108.865 33.6271C108.68 34.1012 108.219 34.4147 107.709 34.4147H105.767L105.764 34.4117Z" fill="url(#paint3_linear_23174_14513)"/>
<path d="M122.748 26.0289C122.243 26.0289 121.834 25.6206 121.834 25.1174V1.75256C121.834 1.06891 122.389 0.513736 123.076 0.513736H131.047C132.558 0.513736 133.898 0.853266 135.067 1.53385C136.262 2.21444 137.199 3.13821 137.882 4.30362C138.565 5.44609 138.905 6.74609 138.905 8.20362C138.905 9.66115 138.577 10.9367 137.919 12.0302C137.285 13.1237 136.396 13.9863 135.25 14.618C134.128 15.2251 132.849 15.5295 131.412 15.5295H124.903C124.217 15.5295 123.66 16.0831 123.66 16.7683V25.1159C123.66 25.619 123.251 26.0274 122.746 26.0274L122.748 26.0289ZM138.301 26.0289C137.974 26.0289 137.672 25.8546 137.508 25.5731L131.85 15.8155C131.607 15.3934 131.742 14.855 132.157 14.5981C132.59 14.3304 133.159 14.4727 133.414 14.9116L139.092 24.657C139.447 25.2657 139.006 26.0289 138.301 26.0289ZM123.66 12.4707C123.66 13.1543 124.217 13.7095 124.903 13.7095H131.631C132.679 13.7095 133.605 13.4786 134.409 13.0167C135.213 12.5548 135.834 11.9109 136.273 11.085C136.736 10.2591 136.968 9.32315 136.968 8.27856C136.968 7.13609 136.712 6.11597 136.199 5.21668C135.687 4.31738 134.969 3.61232 134.042 3.10303C133.141 2.59221 132.105 2.33832 130.935 2.33832H124.901C124.216 2.33832 123.659 2.89197 123.659 3.57715V12.4722L123.66 12.4707Z" fill="url(#paint4_linear_23174_14513)"/>
<path d="M157.146 26.029C156.868 26.029 156.607 25.902 156.434 25.6849L149.688 17.1354L149.577 16.9901L142.906 8.53556C142.439 7.94368 142.861 7.0765 143.616 7.0765C143.894 7.0765 144.156 7.20344 144.328 7.42215L150.928 15.8247L151.039 15.97L157.853 24.5714C158.322 25.1618 157.899 26.0305 157.146 26.0305V26.029ZM143.263 26.029C142.533 26.029 142.123 25.1893 142.574 24.6173L148.827 16.6751C149.158 16.256 149.79 16.2469 150.134 16.6567C150.385 16.958 150.393 17.3939 150.152 17.7059L143.955 25.6925C143.789 25.9066 143.533 26.032 143.263 26.032V26.029ZM151.827 15.8446C151.498 16.2652 150.864 16.2744 150.52 15.8645C150.269 15.5632 150.261 15.1273 150.502 14.8169L156.224 7.4145C156.389 7.20038 156.646 7.07497 156.917 7.07497C157.649 7.07497 158.058 7.91309 157.607 8.48662L151.826 15.8446H151.827Z" fill="url(#paint5_linear_23174_14513)"/>
<path d="M35.0954 22.1963C35.0954 22.1963 35.0908 22.1887 35.0908 22.1841C35.0877 20.075 33.4877 18.3789 31.5181 18.3789H29.7172C29.0576 18.3789 28.6066 19.0427 28.8505 19.6529L31.3417 25.8868C31.3724 25.9618 31.4445 26.0122 31.5273 26.0122C33.5046 26.0122 35.0969 24.3069 35.1 22.207C35.1 22.2025 35.0984 22.1994 35.0954 22.1963Z" fill="#F3B02B"/>
<path d="M22.3878 22.2085C22.3878 22.2085 22.3924 22.2101 22.3924 22.2131C22.394 24.3268 23.9985 26.0275 25.9712 26.0275H28.49C29.1496 26.0275 29.6006 25.3637 29.3567 24.7535L27.0435 18.9662C26.9023 18.6129 26.5587 18.3804 26.1768 18.3804H25.962C23.9786 18.3804 22.3832 20.0918 22.3832 22.1994V22.204C22.3832 22.204 22.3848 22.2085 22.3878 22.2085Z" fill="#F3B02B"/>
<path d="M0.875339 0C0.353786 0 -0.052719 0.454235 0.00557228 0.972706C0.462698 5.06847 3.80064 7.64706 7.84268 7.64706H21.1638C21.8172 7.64706 22.2636 6.98788 22.0228 6.38223L20.7649 3.23165C19.7924 0.807529 17.5512 0 15.0769 0H0.875339Z" fill="#F3B02B"/>
<path d="M8.46702 9.17946C7.93933 9.17946 7.52975 9.63675 7.58958 10.1598C8.04977 14.251 11.3923 16.8265 15.442 16.8265H24.8714C25.5341 16.8265 25.9866 16.1566 25.7366 15.5449L23.3773 9.76063C23.2346 9.4104 22.8926 9.17946 22.5121 9.17946H8.46702Z" fill="#F3B02B"/>
<defs>
<linearGradient id="paint0_linear_23174_14513" x1="39.27" y1="17.3007" x2="158.05" y2="17.3007" gradientUnits="userSpaceOnUse">
<stop stop-color="#0A1C73"/>
<stop offset="1" stop-color="#4564FD"/>
</linearGradient>
<linearGradient id="paint1_linear_23174_14513" x1="39.27" y1="17.3007" x2="158.05" y2="17.3007" gradientUnits="userSpaceOnUse">
<stop stop-color="#0A1C73"/>
<stop offset="1" stop-color="#4564FD"/>
</linearGradient>
<linearGradient id="paint2_linear_23174_14513" x1="39.27" y1="17.3007" x2="158.05" y2="17.3007" gradientUnits="userSpaceOnUse">
<stop stop-color="#0A1C73"/>
<stop offset="1" stop-color="#4564FD"/>
</linearGradient>
<linearGradient id="paint3_linear_23174_14513" x1="39.27" y1="17.3007" x2="158.05" y2="17.3007" gradientUnits="userSpaceOnUse">
<stop stop-color="#0A1C73"/>
<stop offset="1" stop-color="#4564FD"/>
</linearGradient>
<linearGradient id="paint4_linear_23174_14513" x1="39.27" y1="17.3007" x2="158.05" y2="17.3007" gradientUnits="userSpaceOnUse">
<stop stop-color="#0A1C73"/>
<stop offset="1" stop-color="#4564FD"/>
</linearGradient>
<linearGradient id="paint5_linear_23174_14513" x1="39.27" y1="17.3007" x2="158.05" y2="17.3007" gradientUnits="userSpaceOnUse">
<stop stop-color="#0A1C73"/>
<stop offset="1" stop-color="#4564FD"/>
</linearGradient>
</defs>
</svg>
