<svg width="21" height="16" viewBox="0 0 21 16" fill="none" xmlns="http://www.w3.org/2000/svg">
<path d="M19.7625 12.9294C19.761 12.9277 19.7601 12.9255 19.7601 12.9233C19.7583 11.793 18.9032 10.8842 17.8514 10.8842H16.8889C16.5368 10.8842 16.2958 11.2396 16.4262 11.5667L17.7574 14.9076C17.7735 14.948 17.8126 14.9746 17.8562 14.9746C18.9128 14.9746 19.7632 14.0606 19.7649 12.9355C19.7649 12.9332 19.7641 12.931 19.7625 12.9294Z" fill="#011445"/>
<path d="M13.0027 12.9319C13.004 12.9319 13.0051 12.933 13.0051 12.9344C13.0063 14.0652 13.8616 14.9746 14.9138 14.9746H16.2561C16.6083 14.9746 16.8492 14.6191 16.7189 14.292L15.486 11.1979C15.4105 11.0085 15.2272 10.8842 15.0232 10.8842H14.909C13.8513 10.8842 13.0003 11.8 13.0003 12.9268V12.9295C13.0003 12.9309 13.0013 12.9319 13.0027 12.9319Z" fill="#011445"/>
<path d="M1.4161 1.02612C1.14098 1.02612 0.914856 1.25016 0.94393 1.52374C1.17812 3.7275 2.96641 5.1165 5.1345 5.1165H12.2459C12.5982 5.1165 12.8391 4.76088 12.7086 4.43371L12.0387 2.75489C11.5194 1.45831 10.3223 1.02612 9.00007 1.02612H1.4161Z" fill="#011445"/>
<path d="M5.49799 5.95515C5.22287 5.95515 4.99675 6.17919 5.02582 6.45277C5.26001 8.65653 7.0483 10.0455 9.21639 10.0455H14.2455C14.5992 10.0455 14.8402 9.6873 14.707 9.3597L13.4486 6.26564C13.3723 6.07792 13.1898 5.95515 12.9872 5.95515H5.49799Z" fill="#011445"/>
</svg>
