<svg width="149" height="34" viewBox="0 0 149 34" fill="none" xmlns="http://www.w3.org/2000/svg">
<path d="M34.2506 21.9218C34.2479 21.9189 34.2464 21.915 34.2464 21.911C34.2432 19.9094 32.7289 18.3001 30.8662 18.3001H29.1619C28.5382 18.3001 28.1115 18.9295 28.3423 19.5088L30.6997 25.425C30.7283 25.4966 30.7976 25.5436 30.8747 25.5436C32.7459 25.5436 34.2517 23.9252 34.2549 21.9327C34.2549 21.9287 34.2533 21.9248 34.2506 21.9218Z" fill="#F3B02B"/>
<path d="M22.2798 21.9264C22.2822 21.9264 22.2841 21.9283 22.2841 21.9307C22.2862 23.9332 23.8009 25.5436 25.6642 25.5436H28.0412C28.6648 25.5436 29.0915 24.9142 28.8607 24.3349L26.6774 18.8557C26.5437 18.5202 26.2191 18.3001 25.8579 18.3001H25.6557C23.7826 18.3001 22.2755 19.9219 22.2755 21.9173V21.9221C22.2755 21.9245 22.2775 21.9264 22.2798 21.9264Z" fill="#F3B02B"/>
<path d="M1.76152 0.842773C1.27431 0.842773 0.873882 1.23951 0.925368 1.72399C1.34009 5.62655 4.50692 8.08628 8.34631 8.08628H20.9397C21.5635 8.08628 21.9902 7.45653 21.759 6.87717L20.5727 3.90418C19.6532 1.60812 17.5331 0.842773 15.1917 0.842773H1.76152Z" fill="#F3B02B"/>
<path d="M8.99001 9.57143C8.5028 9.57143 8.10237 9.96817 8.15385 10.4527C8.56857 14.3552 11.7354 16.8149 15.5748 16.8149H24.4807C25.107 16.8149 25.5338 16.1806 25.2979 15.6004L23.0695 10.1213C22.9343 9.78883 22.6112 9.57143 22.2524 9.57143H8.99001Z" fill="#F3B02B"/>
<path d="M49.5393 25.7429C47.8543 25.7429 46.3078 25.4428 44.8998 24.8427C43.4918 24.2426 42.2684 23.3885 41.2297 22.2806C40.1911 21.1496 39.3832 19.8223 38.8061 18.2989C38.2522 16.7755 37.9752 15.1021 37.9752 13.2786C37.9752 11.5474 38.2752 9.94322 38.8754 8.46597C39.4986 6.96563 40.3526 5.64996 41.4375 4.51894C42.5223 3.38792 43.7803 2.5108 45.2114 1.88758C46.6425 1.26437 48.189 0.952758 49.8509 0.952758C51.0281 0.952758 52.1706 1.13741 53.2786 1.50673C54.4096 1.85296 55.4252 2.34922 56.3254 2.99552C57.0235 3.46676 57.6227 3.99078 58.1229 4.56759C58.4009 4.88826 58.3629 5.36401 58.069 5.6702L56.7066 7.08938C56.3643 7.44593 55.7981 7.44886 55.4267 7.12275C54.9698 6.72158 54.5077 6.37299 54.0403 6.07698C53.3709 5.61533 52.6784 5.2691 51.9629 5.03828C51.2704 4.80746 50.5664 4.69205 49.8509 4.69205C48.7199 4.69205 47.6581 4.91133 46.6656 5.34989C45.6961 5.76537 44.8421 6.35396 44.1035 7.11567C43.3879 7.87738 42.8224 8.78912 42.4069 9.85089C41.9915 10.8896 41.7837 12.0321 41.7837 13.2786C41.7837 14.5943 41.9799 15.7945 42.3723 16.8794C42.7878 17.9412 43.3648 18.8529 44.1035 19.6146C44.8421 20.3763 45.7192 20.9649 46.7348 21.3804C47.7735 21.7728 48.9161 21.969 50.1625 21.969C50.9242 21.969 51.6744 21.8651 52.413 21.6574C53.1516 21.4496 53.8441 21.1496 54.4904 20.7572C54.8148 20.5602 55.1247 20.3458 55.42 20.1139C55.8686 19.7617 56.5428 19.8393 56.8411 20.3254L57.7908 21.8732C57.9906 22.1987 57.9619 22.6203 57.6839 22.8822C57.2134 23.3255 56.6336 23.7366 55.9446 24.1156C55.0444 24.6234 54.0288 25.0274 52.8977 25.3274C51.7898 25.6044 50.6703 25.7429 49.5393 25.7429Z" fill="url(#paint0_linear_21838_26255)"/>
<path d="M67.0118 25.7429C65.5114 25.7429 64.138 25.3274 62.8916 24.4965C61.6683 23.6655 60.6873 22.5345 59.9486 21.1034C59.21 19.6723 58.8407 18.0566 58.8407 16.2562C58.8407 14.4327 59.21 12.8169 59.9486 11.4089C60.7104 9.97784 61.726 8.85836 62.9955 8.05049C64.2881 7.24262 65.7307 6.83868 67.3234 6.83868C68.2697 6.83868 69.1353 6.97718 69.9201 7.25416C70.7049 7.53115 71.3858 7.92354 71.9629 8.43135C72.563 8.91607 73.0477 9.48158 73.417 10.1279C73.7059 10.6036 73.9134 11.1044 74.0397 11.6301C74.1026 11.892 73.8461 12.1016 73.5917 12.0131C73.4457 11.9623 73.3478 11.8246 73.3478 11.67V8.10171C73.3478 7.6145 73.7427 7.21954 74.23 7.21954H76.0664C76.5536 7.21954 76.9486 7.6145 76.9486 8.10171V24.5145C76.9486 25.0017 76.5536 25.3967 76.0664 25.3967H74.23C73.7427 25.3967 73.3478 25.0017 73.3478 24.5145V21.3348C73.3478 21.1771 73.4518 21.0384 73.6031 20.9943C73.8621 20.9188 74.1022 21.148 74.0075 21.4005C73.8477 21.8263 73.6163 22.2466 73.3132 22.6614C72.8977 23.2385 72.3553 23.7578 71.6859 24.2195C71.0396 24.6811 70.3125 25.0504 69.5046 25.3274C68.7198 25.6044 67.8889 25.7429 67.0118 25.7429ZM67.9466 22.4537C69.0314 22.4537 69.9893 22.1883 70.8203 21.6574C71.6512 21.1265 72.2975 20.3994 72.7592 19.4761C73.2439 18.5297 73.4863 17.4564 73.4863 16.2562C73.4863 15.079 73.2439 14.0287 72.7592 13.1055C72.2975 12.1822 71.6512 11.4551 70.8203 10.9242C69.9893 10.3933 69.0314 10.1279 67.9466 10.1279C66.8848 10.1279 65.9384 10.3933 65.1075 10.9242C64.2996 11.4551 63.6533 12.1822 63.1686 13.1055C62.7069 14.0287 62.4761 15.079 62.4761 16.2562C62.4761 17.4564 62.7069 18.5297 63.1686 19.4761C63.6533 20.3994 64.2996 21.1265 65.1075 21.6574C65.9384 22.1883 66.8848 22.4537 67.9466 22.4537Z" fill="url(#paint1_linear_21838_26255)"/>
<path d="M80.6046 25.3967C80.1173 25.3967 79.7224 25.0017 79.7224 24.5145V8.10171C79.7224 7.6145 80.1173 7.21954 80.6046 7.21954H82.697C83.0428 7.21954 83.3232 7.49989 83.3232 7.84573V11.5507C83.3232 11.7513 83.0367 11.7865 82.9881 11.5919C82.9808 11.5628 82.9813 11.5322 82.9899 11.5034C83.2452 10.6436 83.6679 9.86198 84.258 9.15843C84.8812 8.44289 85.5852 7.87738 86.37 7.4619C87.1779 7.04642 88.0089 6.83868 88.8629 6.83868C89.2553 6.83868 89.6246 6.87331 89.9708 6.94255C90.0269 6.95307 90.0811 6.96385 90.1335 6.9749C90.5501 7.06281 90.7639 7.48545 90.6642 7.89933L90.1304 10.1133C90.0103 10.6115 89.4693 10.8862 88.9668 10.7857C88.6436 10.6934 88.3205 10.6472 87.9973 10.6472C87.3741 10.6472 86.774 10.7742 86.1969 11.0281C85.6429 11.2589 85.1467 11.5936 84.7081 12.0321C84.2926 12.4476 83.9579 12.9439 83.704 13.5209C83.4501 14.0749 83.3232 14.6866 83.3232 15.356V24.5145C83.3232 25.0017 82.9282 25.3967 82.441 25.3967H80.6046Z" fill="url(#paint2_linear_21838_26255)"/>
<path d="M98.6644 33.36C98.0298 33.36 97.6028 32.71 97.8548 32.1275L100.439 26.1541C100.566 25.8602 101.005 25.9481 101.009 26.2684C101.012 26.5913 100.571 26.6875 100.44 26.3922L92.5034 8.45873C92.2453 7.8755 92.6723 7.21954 93.3101 7.21954H95.526C95.8799 7.21954 96.1996 7.43103 96.338 7.75675L101.788 20.5841C101.903 20.8149 102.042 21.1726 102.203 21.6574C102.328 22.0141 102.439 22.3709 102.537 22.7277C102.584 22.9 102.476 23.0752 102.302 23.1154C102.053 23.1729 101.84 22.929 101.927 22.6889C102.035 22.3912 102.139 22.0935 102.238 21.7959C102.423 21.3111 102.596 20.8264 102.757 20.3417L107.29 7.80182C107.417 7.45237 107.748 7.21954 108.12 7.21954H110.408C111.036 7.21954 111.463 7.85677 111.224 8.43736L104.246 25.3967L101.383 32.7962C101.251 33.136 100.925 33.36 100.56 33.36H98.6644Z" fill="url(#paint3_linear_21838_26255)"/>
<path d="M114.005 25.3967C113.527 25.3967 113.14 25.0091 113.14 24.5311V2.04267C113.14 1.55546 113.535 1.1605 114.022 1.1605H121.865C123.296 1.1605 124.565 1.48364 125.673 2.12994C126.804 2.77624 127.693 3.65336 128.339 4.7613C128.985 5.84616 129.309 7.08105 129.309 8.46597C129.309 9.85089 128.997 11.0627 128.374 12.1014C127.774 13.1401 126.931 13.9595 125.846 14.5596C124.784 15.1367 123.573 15.4252 122.211 15.4252H115.753C115.266 15.4252 114.871 15.8202 114.871 16.3074V24.5311C114.871 25.0091 114.483 25.3967 114.005 25.3967ZM128.736 25.3967C128.426 25.3967 128.14 25.2315 127.985 24.9633L122.626 15.6939C122.395 15.2935 122.523 14.7816 122.917 14.5381C123.327 14.2844 123.865 14.419 124.107 14.8358L129.486 24.0932C129.822 24.6716 129.405 25.3967 128.736 25.3967ZM114.871 12.8119C114.871 13.2991 115.266 13.6941 115.753 13.6941H122.419C123.411 13.6941 124.288 13.4748 125.05 13.0362C125.812 12.5977 126.4 11.986 126.816 11.2012C127.254 10.4164 127.474 9.52774 127.474 8.53522C127.474 7.45036 127.231 6.48091 126.746 5.62688C126.262 4.77284 125.581 4.10346 124.704 3.61874C123.85 3.13401 122.869 2.89165 121.761 2.89165H115.753C115.266 2.89165 114.871 3.28661 114.871 3.77382V12.8119Z" fill="url(#paint4_linear_21838_26255)"/>
<path d="M147.172 25.3967C146.91 25.3967 146.662 25.2763 146.5 25.0702L140.109 16.9486L140.005 16.8101L133.686 8.77908C133.244 8.21706 133.645 7.39265 134.36 7.39265C134.623 7.39265 134.872 7.51376 135.034 7.72106L141.286 15.7022L141.39 15.8407L147.843 24.0109C148.286 24.5719 147.887 25.3967 147.172 25.3967ZM134.024 25.3967C133.332 25.3967 132.944 24.5995 133.371 24.0554L139.294 16.5105C139.606 16.1122 140.207 16.1035 140.531 16.4924C140.77 16.7791 140.777 17.1934 140.549 17.4886L134.68 25.0748C134.523 25.2778 134.28 25.3967 134.024 25.3967ZM142.136 15.7233C141.823 16.1222 141.222 16.1313 140.898 15.7421C140.659 15.4557 140.652 15.0421 140.879 14.747L146.3 7.71581C146.457 7.51202 146.699 7.39265 146.957 7.39265C147.649 7.39265 148.037 8.18948 147.61 8.73411L142.136 15.7233Z" fill="url(#paint5_linear_21838_26255)"/>
<defs>
<linearGradient id="paint0_linear_21838_26255" x1="0.920898" y1="17.1014" x2="148.029" y2="17.1014" gradientUnits="userSpaceOnUse">
<stop stop-color="#0A1C73"/>
<stop offset="1" stop-color="#4564FD"/>
</linearGradient>
<linearGradient id="paint1_linear_21838_26255" x1="0.920898" y1="17.1014" x2="148.029" y2="17.1014" gradientUnits="userSpaceOnUse">
<stop stop-color="#0A1C73"/>
<stop offset="1" stop-color="#4564FD"/>
</linearGradient>
<linearGradient id="paint2_linear_21838_26255" x1="0.920898" y1="17.1014" x2="148.029" y2="17.1014" gradientUnits="userSpaceOnUse">
<stop stop-color="#0A1C73"/>
<stop offset="1" stop-color="#4564FD"/>
</linearGradient>
<linearGradient id="paint3_linear_21838_26255" x1="0.920898" y1="17.1014" x2="148.029" y2="17.1014" gradientUnits="userSpaceOnUse">
<stop stop-color="#0A1C73"/>
<stop offset="1" stop-color="#4564FD"/>
</linearGradient>
<linearGradient id="paint4_linear_21838_26255" x1="0.920898" y1="17.1014" x2="148.029" y2="17.1014" gradientUnits="userSpaceOnUse">
<stop stop-color="#0A1C73"/>
<stop offset="1" stop-color="#4564FD"/>
</linearGradient>
<linearGradient id="paint5_linear_21838_26255" x1="0.920898" y1="17.1014" x2="148.029" y2="17.1014" gradientUnits="userSpaceOnUse">
<stop stop-color="#0A1C73"/>
<stop offset="1" stop-color="#4564FD"/>
</linearGradient>
</defs>
</svg>
