<svg width="162" height="35" viewBox="0 0 162 35" fill="none" xmlns="http://www.w3.org/2000/svg">
<path d="M134.995 19.7656C134.302 19.8756 133.619 19.9156 132.85 19.9156H125.413V28.6871H123.883V2.37304H132.85C139.132 2.37304 142.682 5.53725 142.682 11.0341C142.682 15.5099 140.469 18.4437 136.438 19.5052L142.788 28.6871H140.969L134.995 19.7656ZM132.888 18.3737C138.189 18.3737 141.2 15.7802 141.2 11.074C141.2 6.36791 138.189 3.92482 132.888 3.92482H125.413V18.3737H132.888Z" fill="white"/>
<path d="M159.826 9.08177H161.528L154.919 18.5641L162 28.6871H160.259L153.938 19.7656L147.589 28.6871H145.847L152.996 18.5641L146.386 9.08177H148.128L153.977 17.4025L159.826 9.08177Z" fill="white"/>
<path d="M62.668 21.0574C62.2637 20.577 61.5618 20.5469 61.0903 20.9573C59.1183 22.6694 56.6165 23.5908 54.3559 23.5908C48.9589 23.5908 44.5719 19.1949 44.5719 13.7879C44.5719 8.38086 48.8722 3.985 54.3559 3.985C56.6359 3.985 59.07 4.86596 61.0519 6.69839C61.5424 7.14921 62.2931 7.10878 62.7068 6.56817L63.7361 5.21618C64.1115 4.7254 64.0442 4.01461 63.5821 3.60422C60.8884 1.20156 57.5402 0 54.3175 0C46.5728 0 40.5024 6.05765 40.5024 13.7978C40.5024 21.5379 46.5249 27.746 54.2019 27.746C57.3573 27.746 60.8785 26.3742 63.5916 23.941C64.0632 23.5203 64.111 22.7597 63.6878 22.2788L62.668 21.057V21.0574Z" fill="white"/>
<path d="M92.2702 9.45219V7.72976C92.2702 7.08902 91.7697 6.55828 91.1446 6.55828H89.4418C88.8163 6.55828 88.3163 7.07915 88.3163 7.72976V26.3939C88.3163 27.0347 88.8167 27.5654 89.4418 27.5654H91.1351C91.7607 27.5654 92.2607 27.0446 92.2607 26.3939V16.4909C92.2991 14.1879 93.8867 10.5433 98.5718 10.5734C98.8799 10.5734 99.1296 10.3129 99.1296 9.9928V7.03872C99.1296 6.71811 98.8794 6.44781 98.5619 6.45815C94.3094 6.55828 92.7991 8.81098 92.2702 9.45219Z" fill="white"/>
<path d="M116.447 7.31938L111.04 21.9285L105.364 7.29964C105.191 6.85916 104.777 6.56864 104.315 6.56864H102.564C101.756 6.56864 101.217 7.41998 101.525 8.1806L109.019 26.825L108.317 28.4473C107.788 29.6188 107.115 30.6201 105.777 30.8505C105.22 30.9407 104.786 31.4212 104.786 32.0121V33.8346C104.796 34.5257 105.364 35.0564 106.028 34.9962C108.818 34.7358 110.626 32.8935 111.761 30.0297L120.237 8.1712C120.535 7.40024 119.987 6.56911 119.188 6.56911H117.505C117.033 6.56911 116.62 6.8695 116.447 7.31985V7.31938Z" fill="white"/>
<path d="M81.4952 9.51237C79.8692 7.49989 77.474 6.4182 74.5779 6.4182C68.8345 6.4182 64.8323 10.7938 64.8323 17.0522C64.8323 23.3106 68.8535 27.7262 74.6163 27.7262C77.483 27.7262 79.8692 26.645 81.4952 24.6523V26.4048C81.4952 27.0455 81.9956 27.5762 82.6208 27.5762H84.3235C84.9491 27.5762 85.4491 27.0554 85.4491 26.4048V7.74011C85.4491 7.09937 84.9486 6.56863 84.3235 6.56863H82.6208C81.9956 6.56863 81.4952 7.0895 81.4952 7.74011V9.51237ZM75.1551 23.9213C71.4031 23.9213 68.7862 21.1275 68.7862 17.1326C68.7862 13.1377 71.4031 10.2636 75.1551 10.2636C78.9071 10.2636 81.4853 13.0874 81.4853 17.1326C81.4853 21.1778 78.8877 23.9213 75.1551 23.9213Z" fill="white"/>
<path d="M37.7124 23.871C37.7124 21.6681 36.0002 19.8958 33.8931 19.8958H30.497L33.7585 27.856H33.9031C36.0196 27.856 37.7224 26.0738 37.7224 23.8808L37.7129 23.871H37.7124Z" fill="white"/>
<path d="M24.1955 23.871C24.1955 26.0738 25.9077 27.8461 28.0148 27.8461H32.171L28.9095 19.886H28.0148C25.8982 19.886 24.1955 21.6681 24.1955 23.871Z" fill="white"/>
<path d="M0 0.710784C0 5.55699 3.78091 8.67138 8.43715 8.67138H24.138L22.2523 4.07525C21.2135 1.54191 18.8178 0.700912 16.172 0.700912H0V0.710784Z" fill="white"/>
<path d="M8.16795 10.3035C8.16795 15.1498 11.9489 18.2637 16.6051 18.2637H28.1497L24.8209 10.3035H8.16795Z" fill="white"/>
</svg>
