<svg width="1032" height="226" viewBox="0 0 1032 226" fill="none" xmlns="http://www.w3.org/2000/svg">
<path d="M338.988 172.885C326.918 172.885 315.868 170.816 305.858 166.689C295.848 162.562 287.188 156.686 279.878 149.061C272.568 141.287 266.848 132.153 262.718 121.671C258.748 111.028 256.758 99.4464 256.758 86.9053C256.758 74.3641 258.898 63.6417 263.188 53.329C267.478 43.0062 273.438 33.9626 281.058 26.1781C288.688 18.4036 297.578 12.3678 307.748 8.08087C317.918 3.79389 328.958 1.6554 340.878 1.6554C348.978 1.6554 356.848 2.84456 364.468 5.22288C372.098 7.6012 379.088 10.9389 385.438 15.2258C389.778 18.0438 392.228 21.2016 394.708 24.6892C396.838 27.687 396.798 31.7742 394.548 34.6921L387.358 44.0055C384.338 47.9128 378.568 48.1826 374.738 45.0648C372.778 43.4659 370.778 42.0169 368.748 40.7079C364.458 37.69 359.928 35.4716 355.168 34.0426C350.558 32.4537 345.798 31.6642 340.868 31.6642C333.558 31.6642 326.648 33.0133 320.138 35.7114C313.778 38.4095 308.218 42.2168 303.458 47.1433C298.848 52.0699 295.198 57.9357 292.498 64.7709C289.798 71.4362 288.448 78.9009 288.448 87.1551C288.448 95.4093 289.718 103.194 292.258 110.019C294.958 116.844 298.688 122.72 303.458 127.647C308.388 132.563 314.178 136.38 320.858 139.079C327.688 141.617 335.158 142.886 343.258 142.886C348.498 142.886 353.588 142.166 358.508 140.737C363.438 139.308 367.958 137.32 372.088 134.782C373.438 133.932 374.748 133.043 376.018 132.113C380.228 129.036 386.398 129.725 389.148 134.152L395.828 144.884C397.718 147.932 397.418 151.899 394.698 154.238C391.608 156.896 387.968 159.374 383.758 161.683C377.398 165.18 370.248 167.958 362.308 170.017C354.518 171.925 346.738 172.875 338.948 172.875L338.988 172.885Z" fill="url(#paint0_linear_875_1407)"/>
<path d="M460.138 172.884C449.808 172.884 440.438 170.026 432.018 164.311C423.598 158.595 416.848 150.82 411.758 140.977C406.678 131.134 404.128 119.942 404.128 107.401C404.128 94.8594 406.668 83.6674 411.758 73.8243C416.838 63.9812 423.758 56.2767 432.488 50.7206C441.228 45.1645 451.078 42.3864 462.038 42.3864C468.398 42.3864 474.188 43.3358 479.438 45.2444C484.678 46.9932 489.288 49.5314 493.258 52.8691C497.228 56.2067 500.488 60.014 503.028 64.301C504.918 67.3089 506.388 70.4666 507.418 73.7843C508.038 75.7629 506.188 77.5117 504.188 76.9921C502.948 76.6723 502.078 75.5531 502.078 74.264V53.0989C502.078 48.632 505.708 45.0046 510.178 45.0046H523.538C528.008 45.0046 531.638 48.6221 531.638 53.0989V162.422C531.638 166.889 528.008 170.516 523.538 170.516H509.938C505.468 170.516 501.838 166.889 501.838 162.422V142.976C501.838 141.547 502.868 140.327 504.268 140.088C506.368 139.728 508.108 141.646 507.298 143.615C506.138 146.423 504.548 149.201 502.548 151.939C499.688 155.906 496.038 159.484 491.588 162.652C487.298 165.67 482.458 168.128 477.048 170.036C471.808 171.945 466.168 172.894 460.128 172.894L460.138 172.884ZM468.248 146.923C475.078 146.923 481.118 145.254 486.358 141.926C491.598 138.589 495.648 133.992 498.508 128.116C501.528 122.08 503.038 115.175 503.038 107.401C503.038 99.6261 501.528 93.0307 498.508 87.1549C495.648 81.279 491.598 76.6723 486.358 73.3446C481.118 70.007 475.078 68.3481 468.248 68.3481C461.418 68.3481 455.378 70.017 450.138 73.3446C445.058 76.6823 441.078 81.279 438.218 87.1549C435.358 93.0307 433.928 99.776 433.928 107.401C433.928 115.025 435.358 122.09 438.218 128.116C441.078 133.992 445.048 138.599 450.138 141.926C455.378 145.264 461.418 146.923 468.248 146.923Z" fill="url(#paint1_linear_875_1407)"/>
<path d="M559.548 170.507C555.078 170.507 551.448 166.879 551.448 162.412V53.0894C551.448 48.6225 555.068 44.9951 559.548 44.9951H573.478C577.248 44.9951 580.318 48.0229 580.368 51.8003L580.658 75.7834C580.678 77.8619 577.848 78.4815 576.998 76.5828C576.818 76.1731 576.778 75.7234 576.908 75.2937C578.678 69.208 581.638 63.7119 585.778 58.8053C590.068 53.7289 594.998 49.7517 600.558 46.8937C606.278 43.8759 612.238 42.3669 618.428 42.3669C621.128 42.3669 623.668 42.6068 626.058 43.0764C629.678 43.7559 631.608 47.4034 630.728 50.9809L626.028 70.2173C625.208 73.5849 621.328 75.3537 617.958 74.5143C615.418 73.8747 612.878 73.5649 610.328 73.5649C606.358 73.5649 602.548 74.3544 598.888 75.9433C595.388 77.3722 592.298 79.4408 589.598 82.1389C586.898 84.837 584.748 88.0147 583.168 91.6622C581.738 95.1597 581.028 99.1269 581.028 103.574V162.402C581.028 166.869 577.398 170.497 572.928 170.497H559.568L559.548 170.507Z" fill="url(#paint2_linear_875_1407)"/>
<path d="M690.228 225.277C684.408 225.277 680.488 219.321 682.798 213.975L700.778 172.434C701.658 170.395 704.688 171.005 704.718 173.223C704.748 175.452 701.698 176.121 700.788 174.093L647.998 56.4057C645.598 51.0495 649.518 45.0037 655.388 45.0037H671.358C674.618 45.0037 677.558 46.9524 678.818 49.9503L711.288 126.926C712.398 128.995 713.508 131.773 714.628 135.26C715.528 137.968 716.328 140.666 717.018 143.374C717.288 144.434 716.678 145.523 715.628 145.853C713.958 146.382 712.408 144.773 713.028 143.135C713.698 141.356 714.388 139.527 715.098 137.638C716.368 134.141 717.558 130.573 718.678 126.926L746.298 50.35C747.458 47.1422 750.498 45.0037 753.918 45.0037H770.158C775.938 45.0037 779.858 50.8796 777.628 56.2158L729.878 170.515L710.448 220.15C709.238 223.248 706.238 225.297 702.908 225.297H690.248L690.228 225.277Z" fill="url(#paint3_linear_875_1407)"/>
<path d="M800.948 170.505C797.658 170.505 794.988 167.837 794.988 164.549V11.8869C794.988 7.42 798.608 3.79256 803.088 3.79256H855.048C864.898 3.79256 873.638 6.011 881.258 10.4579C889.048 14.9047 895.158 20.9405 899.608 28.5551C904.058 36.0198 906.278 44.5139 906.278 54.0371C906.278 63.5604 904.138 71.8945 899.848 79.0395C895.718 86.1845 889.918 91.8205 882.448 95.9476C875.138 99.9148 866.798 101.903 857.428 101.903H814.998C810.528 101.903 806.898 105.521 806.898 109.998V164.539C806.898 167.827 804.228 170.495 800.938 170.495L800.948 170.505ZM902.338 170.505C900.208 170.505 898.238 169.366 897.168 167.527L860.288 103.772C858.698 101.014 859.578 97.4965 862.288 95.8177C865.108 94.0689 868.818 94.9983 870.478 97.8662L907.498 161.541C909.808 165.519 906.938 170.505 902.338 170.505ZM806.898 81.9175C806.898 86.3843 810.528 90.0118 814.998 90.0118H858.858C865.688 90.0118 871.728 88.5028 876.968 85.485C882.208 82.4671 886.258 78.2601 889.118 72.8639C892.138 67.4677 893.648 61.352 893.648 54.5268C893.648 47.0621 891.978 40.3968 888.638 34.5209C885.298 28.645 880.618 24.0383 874.578 20.7106C868.698 17.373 861.948 15.7142 854.318 15.7142H814.988C810.518 15.7142 806.888 19.3316 806.888 23.8084V81.9275L806.898 81.9175Z" fill="url(#paint4_linear_875_1407)"/>
<path d="M1025.19 170.505C1023.38 170.505 1021.68 169.676 1020.55 168.257L976.568 112.396L975.848 111.447L932.358 56.206C929.318 52.3387 932.068 46.6727 936.988 46.6727C938.798 46.6727 940.508 47.5021 941.628 48.9311L984.658 103.832L985.378 104.782L1029.8 160.982C1032.86 164.839 1030.1 170.515 1025.19 170.515V170.505ZM934.688 170.505C929.928 170.505 927.258 165.019 930.198 161.282L970.958 109.389C973.118 106.65 977.238 106.59 979.478 109.269C981.118 111.237 981.168 114.085 979.598 116.124L939.198 168.307C938.118 169.706 936.448 170.525 934.688 170.525V170.505ZM990.518 103.962C988.368 106.71 984.238 106.77 981.998 104.092C980.358 102.124 980.308 99.2756 981.878 97.2471L1019.18 48.8812C1020.26 47.4822 1021.93 46.6627 1023.7 46.6627C1028.47 46.6627 1031.14 52.1389 1028.2 55.8862L990.508 103.962H990.518Z" fill="url(#paint5_linear_875_1407)"/>
<path d="M229.544 145.463C229.544 145.463 229.514 145.413 229.514 145.383C229.494 131.603 219.064 120.521 206.224 120.521H194.484C190.184 120.521 187.244 124.858 188.834 128.845L205.074 169.576C205.274 170.066 205.744 170.396 206.284 170.396C219.174 170.396 229.554 159.254 229.574 145.533C229.574 145.503 229.564 145.483 229.544 145.463Z" fill="#F3B02B"/>
<path d="M146.704 145.543C146.704 145.543 146.734 145.553 146.734 145.573C146.744 159.383 157.204 170.495 170.064 170.495H186.484C190.784 170.495 193.724 166.158 192.134 162.171L177.054 124.358C176.134 122.049 173.894 120.531 171.404 120.531H170.004C157.074 120.531 146.674 131.713 146.674 145.483V145.513C146.674 145.513 146.684 145.543 146.704 145.543Z" fill="#F3B02B"/>
<path d="M6.46414 0.435547C3.06414 0.435547 0.414138 3.40345 0.794138 6.79107C3.77414 33.5522 25.5341 50.4003 51.8841 50.4003H138.724C142.984 50.4003 145.894 46.0934 144.324 42.1362L136.124 21.5507C129.784 5.71183 115.174 0.435547 99.0441 0.435547H6.46414Z" fill="#F3B02B"/>
<path d="M55.9542 60.4128C52.5142 60.4128 49.8442 63.4007 50.2342 66.8183C53.2342 93.5494 75.0242 110.378 101.424 110.378H162.894C167.214 110.378 170.164 106.001 168.534 102.003L153.154 64.2101C152.224 61.9217 149.994 60.4128 147.514 60.4128H55.9542Z" fill="#F3B02B"/>
<defs>
<linearGradient id="paint0_linear_875_1407" x1="256.758" y1="113.476" x2="1031.08" y2="113.476" gradientUnits="userSpaceOnUse">
<stop stop-color="#0A1C73"/>
<stop offset="1" stop-color="#4564FD"/>
</linearGradient>
<linearGradient id="paint1_linear_875_1407" x1="256.758" y1="113.476" x2="1031.08" y2="113.476" gradientUnits="userSpaceOnUse">
<stop stop-color="#0A1C73"/>
<stop offset="1" stop-color="#4564FD"/>
</linearGradient>
<linearGradient id="paint2_linear_875_1407" x1="256.758" y1="113.476" x2="1031.08" y2="113.476" gradientUnits="userSpaceOnUse">
<stop stop-color="#0A1C73"/>
<stop offset="1" stop-color="#4564FD"/>
</linearGradient>
<linearGradient id="paint3_linear_875_1407" x1="256.758" y1="113.476" x2="1031.08" y2="113.476" gradientUnits="userSpaceOnUse">
<stop stop-color="#0A1C73"/>
<stop offset="1" stop-color="#4564FD"/>
</linearGradient>
<linearGradient id="paint4_linear_875_1407" x1="256.758" y1="113.476" x2="1031.08" y2="113.476" gradientUnits="userSpaceOnUse">
<stop stop-color="#0A1C73"/>
<stop offset="1" stop-color="#4564FD"/>
</linearGradient>
<linearGradient id="paint5_linear_875_1407" x1="256.758" y1="113.476" x2="1031.08" y2="113.476" gradientUnits="userSpaceOnUse">
<stop stop-color="#0A1C73"/>
<stop offset="1" stop-color="#4564FD"/>
</linearGradient>
</defs>
</svg>
