<svg width="20" height="16" viewBox="0 0 20 16" fill="none" xmlns="http://www.w3.org/2000/svg">
<path d="M10.3532 10.0455C11.4398 10.0455 12.3206 9.16464 12.3206 8.07806C12.3206 6.99148 11.4398 6.11063 10.3532 6.11063C9.26661 6.11063 8.38576 6.99148 8.38576 8.07806C8.38576 9.16464 9.26661 10.0455 10.3532 10.0455Z" fill="#011445"/>
<path d="M19.2893 0.580566C19.565 0.580566 19.7915 0.805027 19.7624 1.07913C19.5278 3.28708 17.7361 4.67871 15.5639 4.67871H8.43895C8.08603 4.67871 7.84459 4.32242 7.97539 3.99463L8.64657 2.31261C9.16681 1.01358 10.3663 0.580566 11.691 0.580566H19.2893Z" fill="#011445"/>
<path d="M12.2914 11.3217C12.567 11.3217 12.7936 11.5461 12.7645 11.8202C12.5298 14.0282 10.7381 15.4198 8.56592 15.4198H1.441C1.08808 15.4198 0.846642 15.0635 0.97744 14.7357L1.64862 13.0537C2.16886 11.7547 3.36831 11.3217 4.693 11.3217H12.2914Z" fill="#011445"/>
</svg>
