<svg width="33" height="26" viewBox="0 0 33 26" fill="none" xmlns="http://www.w3.org/2000/svg">
<path d="M29.2107 13.6804L23.6577 19.2335C20.8811 22.0596 16.3196 22.0596 13.5431 19.2335C11.064 16.7544 10.717 12.8871 12.7498 10.0114L12.7994 9.96178C13.3448 9.21806 14.3364 9.06932 15.0305 9.56513C15.7247 10.0609 15.923 11.0526 15.3776 11.7963L15.328 11.8459C14.1876 13.4325 14.386 15.614 15.7742 17.0023C17.3113 18.5889 19.8399 18.5889 21.4265 17.0023L26.9796 11.4492C28.5662 9.86262 28.5662 7.33398 26.9796 5.79696C25.5913 4.40869 23.4097 4.21037 21.8231 5.35073L21.7736 5.40031C21.0299 5.94571 20.0382 5.74738 19.5424 5.05325C19.0466 4.35911 19.1953 3.36749 19.8895 2.82209L19.9886 2.77251C22.8644 0.739684 26.7317 1.08675 29.2107 3.56581C32.0369 6.34236 32.0369 10.9038 29.2107 13.6804ZM3.47812 12.54L9.03121 6.93733C11.8573 4.16079 16.3692 4.16079 19.1953 6.93733C21.6744 9.41639 21.9719 13.3333 19.9391 16.209L19.8895 16.2586C19.3937 17.0023 18.3525 17.1511 17.6583 16.6552C16.9642 16.1594 16.7659 15.1678 17.3113 14.4241L17.3608 14.3745C18.5012 12.7383 18.3029 10.6063 16.9146 9.21806C15.3776 7.63147 12.849 7.63147 11.2624 9.21806L5.70927 14.7712C4.17225 16.3082 4.17225 18.8368 5.70927 20.4234C7.09754 21.8117 9.27911 22.01 10.8657 20.8696L10.9153 20.8201C11.659 20.2747 12.6506 20.473 13.1464 21.1671C13.6423 21.8613 13.4935 22.8529 12.7994 23.3983L12.7002 23.4479C9.87409 25.4807 5.95718 25.1336 3.47812 22.6546C0.65199 19.878 0.65199 15.3165 3.47812 12.54Z" fill="#011445"/>
</svg>
