<svg width="25" height="22" viewBox="0 0 25 22" fill="none" xmlns="http://www.w3.org/2000/svg">
<path d="M2.5 1.19995H13.75C15.1172 1.19995 16.25 2.33276 16.25 3.69995V11.2C16.25 12.6062 15.1172 13.7 13.75 13.7H7.89062L4.72656 16.0828C4.53125 16.239 4.29688 16.239 4.0625 16.1609C3.86719 16.0437 3.75 15.8484 3.75 15.575V13.7H2.5C1.09375 13.7 0 12.6062 0 11.2V3.69995C0 2.33276 1.09375 1.19995 2.5 1.19995ZM13.75 14.95C15.8203 14.95 17.5 13.2703 17.5 11.2V6.19995H22.5C23.8672 6.19995 25 7.33276 25 8.69995V16.2C25 17.6062 23.8672 18.7 22.5 18.7H21.25V20.575C21.25 20.8484 21.0938 21.0437 20.8984 21.1609C20.6641 21.239 20.4297 21.239 20.2344 21.0828L17.0703 18.7H12.5C11.0938 18.7 10 17.6062 10 16.2V14.95H13.75Z" fill="#AA25ED"/>
</svg>
