<svg width="27" height="21" viewBox="0 0 27 21" fill="none" xmlns="http://www.w3.org/2000/svg">
<path d="M9.125 14.7153C7.60156 14.7153 6.23438 14.4028 5.02344 13.8169C4.71094 13.9731 4.39844 14.0903 4.04688 14.2466C3.30469 14.52 2.44531 14.7153 1.625 14.7153C1.35156 14.7153 1.11719 14.5591 1 14.2856C0.921875 14.0513 1.03906 13.7778 1.23438 13.6216V13.5825H1.27344C1.3125 13.5435 1.39062 13.4653 1.46875 13.4263C1.58594 13.3091 1.78125 13.1138 1.97656 12.8794C2.17188 12.606 2.40625 12.2544 2.52344 11.9028C1.54688 10.77 1 9.36377 1 7.84033C1 4.05127 4.63281 0.965332 9.125 0.965332C13.5781 0.965332 17.25 4.05127 17.25 7.84033C17.25 11.6685 13.5781 14.7153 9.125 14.7153ZM18.5 7.84033H18.4609C18.4609 7.64502 18.4609 7.44971 18.4609 7.25439C22.6797 7.48877 25.9609 10.4966 25.9609 14.0903C25.9609 15.6138 25.4141 17.02 24.4375 18.1528C24.5547 18.5044 24.7891 18.8169 24.9844 19.0903C25.1797 19.3638 25.375 19.52 25.4922 19.6763C25.5703 19.7153 25.6484 19.7935 25.6875 19.7935C25.6875 19.8325 25.7266 19.8325 25.7266 19.8325C25.9609 20.0278 26.0391 20.3013 25.9609 20.5356C25.8828 20.8091 25.6094 20.9653 25.375 20.9653C24.5156 20.9653 23.6562 20.77 22.9141 20.4966C22.5625 20.3403 22.25 20.2231 21.9375 20.0669C20.7266 20.6528 19.3594 20.9653 17.875 20.9653C14.125 20.9653 10.9609 18.856 10.0234 15.9263C14.5938 15.5356 18.5 12.2544 18.5 7.84033Z" fill="#4D5B7D"/>
</svg>
