<svg width="17" height="15" viewBox="0 0 17 15" fill="none" xmlns="http://www.w3.org/2000/svg">
<path d="M4.84375 11.75C5.25 11.4375 5.78125 11.375 6.25 11.5312C7.0625 11.8438 8 12 9 12C12.875 12 15.5 9.5 15.5 7C15.5 4.53125 12.875 2 9 2C5.09375 2 2.5 4.53125 2.5 7C2.5 8 2.875 8.96875 3.59375 9.8125C3.875 10.0938 4 10.5 3.96875 10.9062C3.9375 11.4688 3.78125 12 3.625 12.4688C4.15625 12.2188 4.59375 11.9375 4.84375 11.75ZM1.65625 13C1.71875 12.9375 1.75 12.8438 1.8125 12.75C2.125 12.25 2.40625 11.5625 2.46875 10.7812C1.53125 9.71875 1 8.4375 1 7C1 3.4375 4.5625 0.5 9 0.5C13.4062 0.5 17 3.4375 17 7C17 10.5938 13.4062 13.5 9 13.5C7.8125 13.5 6.71875 13.3125 5.71875 12.9688C5.375 13.2188 4.75 13.5938 4.03125 13.9062C3.5625 14.125 3.03125 14.3125 2.46875 14.4062C2.4375 14.4062 2.40625 14.4375 2.40625 14.4375C2.25 14.4688 2.125 14.4688 1.96875 14.5C1.8125 14.5 1.65625 14.5312 1.46875 14.5312C1.28125 14.5312 1.09375 14.4062 1.03125 14.2188C0.9375 14.0312 1 13.8125 1.125 13.6562C1.25 13.5312 1.375 13.4062 1.46875 13.25C1.53125 13.1562 1.59375 13.0938 1.625 13.0312C1.625 13.0312 1.625 13.0312 1.625 13H1.65625Z" fill="white"/>
</svg>
