<svg width="33" height="29" viewBox="0 0 33 29" fill="none" xmlns="http://www.w3.org/2000/svg">
<path d="M8.1875 22.8867C9 22.2617 10.0625 22.1367 11 22.4492C12.625 23.0742 14.5 23.3867 16.5 23.3867C24.25 23.3867 29.5 18.3867 29.5 13.3867C29.5 8.44922 24.25 3.38672 16.5 3.38672C8.6875 3.38672 3.5 8.44922 3.5 13.3867C3.5 15.3867 4.25 17.3242 5.6875 19.0117C6.25 19.5742 6.5 20.3867 6.4375 21.1992C6.375 22.3242 6.0625 23.3867 5.75 24.3242C6.8125 23.8242 7.6875 23.2617 8.1875 22.8867ZM1.8125 25.3867C1.9375 25.2617 2 25.0742 2.125 24.8867C2.75 23.8867 3.3125 22.5117 3.4375 20.9492C1.5625 18.8242 0.5 16.2617 0.5 13.3867C0.5 6.26172 7.625 0.386719 16.5 0.386719C25.3125 0.386719 32.5 6.26172 32.5 13.3867C32.5 20.5742 25.3125 26.3867 16.5 26.3867C14.125 26.3867 11.9375 26.0117 9.9375 25.3242C9.25 25.8242 8 26.5742 6.5625 27.1992C5.625 27.6367 4.5625 28.0117 3.4375 28.1992C3.375 28.1992 3.3125 28.2617 3.3125 28.2617C3 28.3242 2.75 28.3242 2.4375 28.3867C2.125 28.3867 1.8125 28.4492 1.4375 28.4492C1.0625 28.4492 0.6875 28.1992 0.5625 27.8242C0.375 27.4492 0.5 27.0117 0.75 26.6992C1 26.4492 1.25 26.1992 1.4375 25.8867C1.5625 25.6992 1.6875 25.5742 1.75 25.4492C1.75 25.4492 1.75 25.4492 1.75 25.3867H1.8125Z" fill="#481DBF"/>
</svg>
