<svg width="21" height="18" viewBox="0 0 21 18" fill="none" xmlns="http://www.w3.org/2000/svg">
<path d="M6.47656 2.49219V2.45312L3.66406 5.57812C3.50781 5.77344 3.27344 5.89062 3 5.89062C2.76562 5.92969 2.49219 5.8125 2.33594 5.61719L0.773438 4.05469C0.382812 3.70312 0.382812 3.11719 0.773438 2.72656C1.125 2.375 1.71094 2.375 2.10156 2.72656L2.96094 3.625L5.10938 1.20312C5.46094 0.851562 6.04688 0.8125 6.4375 1.16406C6.78906 1.51562 6.82812 2.10156 6.47656 2.49219ZM6.47656 8.74219V8.70312L3.66406 11.8281C3.50781 12.0234 3.27344 12.1406 3 12.1406C2.76562 12.1797 2.49219 12.0625 2.33594 11.8672L0.773438 10.3047C0.382812 9.95312 0.382812 9.36719 0.773438 8.97656C1.125 8.625 1.71094 8.625 2.10156 8.97656L2.96094 9.875L5.10938 7.45312C5.46094 7.10156 6.04688 7.0625 6.4375 7.41406C6.78906 7.76562 6.82812 8.35156 6.47656 8.74219ZM8.9375 4.32812C8.39062 4.32812 8 3.9375 8 3.39062C8 2.88281 8.39062 2.45312 8.9375 2.45312H19.5625C20.0703 2.45312 20.5 2.88281 20.5 3.39062C20.5 3.9375 20.0703 4.32812 19.5625 4.32812H8.9375ZM8 9.64062C8 9.13281 8.39062 8.70312 8.9375 8.70312H19.5625C20.0703 8.70312 20.5 9.13281 20.5 9.64062C20.5 10.1875 20.0703 10.5781 19.5625 10.5781H8.9375C8.39062 10.5781 8 10.1875 8 9.64062ZM6.75 15.8906C6.75 15.3828 7.14062 14.9531 7.6875 14.9531H19.5625C20.0703 14.9531 20.5 15.3828 20.5 15.8906C20.5 16.4375 20.0703 16.8281 19.5625 16.8281H7.6875C7.14062 16.8281 6.75 16.4375 6.75 15.8906ZM4.25 15.8906C4.25 16.5938 3.66406 17.1406 3 17.1406C2.29688 17.1406 1.75 16.5938 1.75 15.8906C1.75 15.2266 2.29688 14.6406 3 14.6406C3.66406 14.6406 4.25 15.2266 4.25 15.8906Z" fill="#186491"/>
</svg>
