<svg width="23" height="16" viewBox="0 0 23 16" fill="none" xmlns="http://www.w3.org/2000/svg">
<path d="M2.75 2.375C2.39844 2.375 2.125 2.6875 2.125 3V13C2.125 13.3516 2.39844 13.625 2.75 13.625H20.25C20.5625 13.625 20.875 13.3516 20.875 13V3C20.875 2.6875 20.5625 2.375 20.25 2.375H2.75ZM0.25 3C0.25 1.63281 1.34375 0.5 2.75 0.5H20.25C21.6172 0.5 22.75 1.63281 22.75 3V13C22.75 14.4062 21.6172 15.5 20.25 15.5H2.75C1.34375 15.5 0.25 14.4062 0.25 13V3ZM11.1875 8.625H18.0625C18.5703 8.625 19 9.05469 19 9.5625C19 10.1094 18.5703 10.5 18.0625 10.5H11.1875C10.6406 10.5 10.25 10.1094 10.25 9.5625C10.25 9.05469 10.6406 8.625 11.1875 8.625ZM10.25 5.8125C10.25 5.30469 10.6406 4.875 11.1875 4.875H18.0625C18.5703 4.875 19 5.30469 19 5.8125C19 6.35938 18.5703 6.75 18.0625 6.75H11.1875C10.6406 6.75 10.25 6.35938 10.25 5.8125ZM7.28125 3.9375V4.48438C7.55469 4.5625 7.82812 4.60156 8.10156 4.67969C8.49219 4.79688 8.76562 5.22656 8.64844 5.65625C8.53125 6.04688 8.10156 6.32031 7.67188 6.20312C7.24219 6.08594 6.85156 6.00781 6.46094 6.00781C6.14844 5.96875 5.83594 6.04688 5.64062 6.20312C5.44531 6.28125 5.36719 6.39844 5.36719 6.55469C5.36719 6.63281 5.40625 6.67188 5.60156 6.82812C5.83594 6.94531 6.1875 7.0625 6.69531 7.21875H6.73438C7.16406 7.375 7.71094 7.53125 8.17969 7.80469C8.6875 8.11719 9.11719 8.66406 9.11719 9.44531C9.15625 10.2656 8.72656 10.8516 8.17969 11.2031C7.86719 11.3594 7.55469 11.4766 7.24219 11.5547V12.0625C7.24219 12.4922 6.89062 12.8438 6.46094 12.8438C6.03125 12.8438 5.67969 12.4922 5.67969 12.0625V11.5156C5.28906 11.4375 4.89844 11.2812 4.58594 11.1641C4.50781 11.1641 4.42969 11.125 4.35156 11.0859C3.96094 10.9688 3.72656 10.5391 3.88281 10.1094C4 9.71875 4.42969 9.48438 4.85938 9.60156C4.9375 9.64062 5.05469 9.67969 5.13281 9.71875C5.67969 9.875 6.07031 10.0312 6.5 10.0312C6.85156 10.0703 7.16406 9.99219 7.35938 9.875C7.51562 9.75781 7.59375 9.64062 7.55469 9.44531C7.55469 9.32812 7.55469 9.25 7.35938 9.13281C7.08594 8.97656 6.73438 8.85938 6.26562 8.70312H6.1875C5.75781 8.54688 5.21094 8.39062 4.78125 8.15625C4.3125 7.84375 3.84375 7.33594 3.84375 6.55469C3.80469 5.73438 4.27344 5.14844 4.82031 4.83594C5.09375 4.67969 5.40625 4.5625 5.71875 4.52344V3.9375C5.71875 3.50781 6.07031 3.15625 6.5 3.15625C6.92969 3.15625 7.28125 3.50781 7.28125 3.9375Z" fill="#B5430A"/>
</svg>
