<svg width="41" height="41" viewBox="0 0 41 41" fill="none" xmlns="http://www.w3.org/2000/svg">
<path d="M37.541 6C37.541 4.98438 36.6816 4.125 35.666 4.125C34.5723 4.125 33.791 4.98438 33.791 6C33.791 7.09375 34.5723 7.875 35.666 7.875C36.6816 7.875 37.541 7.09375 37.541 6ZM30.666 6C30.666 4.28125 31.6035 2.64062 33.166 1.70312C34.6504 0.84375 36.6035 0.84375 38.166 1.70312C39.6504 2.64062 40.666 4.28125 40.666 6C40.666 7.79688 39.6504 9.4375 38.166 10.375C36.6035 11.2344 34.6504 11.2344 33.166 10.375C31.6035 9.4375 30.666 7.79688 30.666 6ZM0.666016 13.5C0.666016 8.34375 4.80664 4.125 10.041 4.125H20.666V2.40625C20.666 1.625 21.291 1 21.9941 1C22.3066 1 22.6191 1.15625 22.8535 1.3125L27.6191 5.0625C27.9316 5.29688 28.166 5.60938 28.166 6C28.166 6.39062 27.9316 6.78125 27.6191 7.01562L22.8535 10.7656C22.6191 10.9219 22.3066 11 21.9941 11C21.291 11 20.666 10.375 20.666 9.67188V7.875H10.041C6.91602 7.875 4.41602 10.4531 4.41602 13.5C4.41602 16.625 6.91602 19.125 10.041 19.125H31.291C36.4473 19.125 40.666 23.3438 40.666 28.5C40.666 33.1875 37.2285 37.0156 32.8535 37.7969C32.0723 39.6719 30.2754 41 28.166 41C25.3535 41 23.166 38.8125 23.166 36C23.166 33.2656 25.3535 31 28.166 31C30.1191 31 31.916 32.25 32.6973 33.9688C35.1191 33.3438 36.916 31.1562 36.916 28.5C36.916 25.4531 34.3379 22.875 31.291 22.875H10.041C4.80664 22.875 0.666016 18.7344 0.666016 13.5ZM10.2754 34.125H13.166V32.4062C13.166 31.625 13.791 31 14.4941 31C14.8066 31 15.1191 31.1562 15.3535 31.3125L20.1191 35.0625C20.4316 35.2969 20.666 35.6094 20.666 36C20.666 36.3906 20.4316 36.7812 20.1191 37.0156L15.3535 40.7656C15.1191 40.9219 14.8066 41 14.4941 41C13.791 41 13.166 40.375 13.166 39.6719V37.875H10.2754C9.49414 39.75 7.69727 41 5.66602 41C2.85352 41 0.666016 38.8125 0.666016 36C0.666016 33.2656 2.85352 31 5.66602 31C7.69727 31 9.49414 32.3281 10.2754 34.125ZM7.54102 36C7.54102 34.9844 6.68164 34.125 5.66602 34.125C4.57227 34.125 3.79102 34.9844 3.79102 36C3.79102 37.0938 4.57227 37.875 5.66602 37.875C6.68164 37.875 7.54102 37.0938 7.54102 36ZM28.166 37.875C29.1816 37.875 30.041 37.0938 30.041 36C30.041 34.9844 29.1816 34.125 28.166 34.125C27.0723 34.125 26.291 34.9844 26.291 36C26.291 37.0938 27.0723 37.875 28.166 37.875Z" fill="#27B8C8"/>
</svg>
