<svg width="33" height="33" viewBox="0 0 33 33" fill="none" xmlns="http://www.w3.org/2000/svg">
<path d="M30 4.38672C30 3.57422 29.3125 2.88672 28.5 2.88672C27.625 2.88672 27 3.57422 27 4.38672C27 5.26172 27.625 5.88672 28.5 5.88672C29.3125 5.88672 30 5.26172 30 4.38672ZM24.5 4.38672C24.5 3.01172 25.25 1.69922 26.5 0.949219C27.6875 0.261719 29.25 0.261719 30.5 0.949219C31.6875 1.69922 32.5 3.01172 32.5 4.38672C32.5 5.82422 31.6875 7.13672 30.5 7.88672C29.25 8.57422 27.6875 8.57422 26.5 7.88672C25.25 7.13672 24.5 5.82422 24.5 4.38672ZM0.5 10.3867C0.5 6.26172 3.8125 2.88672 8 2.88672H16.5V1.51172C16.5 0.886719 17 0.386719 17.5625 0.386719C17.8125 0.386719 18.0625 0.511719 18.25 0.636719L22.0625 3.63672C22.3125 3.82422 22.5 4.07422 22.5 4.38672C22.5 4.69922 22.3125 5.01172 22.0625 5.19922L18.25 8.19922C18.0625 8.32422 17.8125 8.38672 17.5625 8.38672C17 8.38672 16.5 7.88672 16.5 7.32422V5.88672H8C5.5 5.88672 3.5 7.94922 3.5 10.3867C3.5 12.8867 5.5 14.8867 8 14.8867H25C29.125 14.8867 32.5 18.2617 32.5 22.3867C32.5 26.1367 29.75 29.1992 26.25 29.8242C25.625 31.3242 24.1875 32.3867 22.5 32.3867C20.25 32.3867 18.5 30.6367 18.5 28.3867C18.5 26.1992 20.25 24.3867 22.5 24.3867C24.0625 24.3867 25.5 25.3867 26.125 26.7617C28.0625 26.2617 29.5 24.5117 29.5 22.3867C29.5 19.9492 27.4375 17.8867 25 17.8867H8C3.8125 17.8867 0.5 14.5742 0.5 10.3867ZM8.1875 26.8867H10.5V25.5117C10.5 24.8867 11 24.3867 11.5625 24.3867C11.8125 24.3867 12.0625 24.5117 12.25 24.6367L16.0625 27.6367C16.3125 27.8242 16.5 28.0742 16.5 28.3867C16.5 28.6992 16.3125 29.0117 16.0625 29.1992L12.25 32.1992C12.0625 32.3242 11.8125 32.3867 11.5625 32.3867C11 32.3867 10.5 31.8867 10.5 31.3242V29.8867H8.1875C7.5625 31.3867 6.125 32.3867 4.5 32.3867C2.25 32.3867 0.5 30.6367 0.5 28.3867C0.5 26.1992 2.25 24.3867 4.5 24.3867C6.125 24.3867 7.5625 25.4492 8.1875 26.8867ZM6 28.3867C6 27.5742 5.3125 26.8867 4.5 26.8867C3.625 26.8867 3 27.5742 3 28.3867C3 29.2617 3.625 29.8867 4.5 29.8867C5.3125 29.8867 6 29.2617 6 28.3867ZM22.5 29.8867C23.3125 29.8867 24 29.2617 24 28.3867C24 27.5742 23.3125 26.8867 22.5 26.8867C21.625 26.8867 21 27.5742 21 28.3867C21 29.2617 21.625 29.8867 22.5 29.8867Z" fill="#481DBF"/>
</svg>
