<svg width="20" height="16" viewBox="0 0 20 16" fill="none" xmlns="http://www.w3.org/2000/svg">
<path d="M7.40246 11.3061L7.42697 11.283C8.27639 10.4587 8.27683 9.14149 7.42872 8.31588L7.40246 8.29114C6.17932 7.1385 6.17932 5.26294 7.40246 4.10989L7.42697 4.08721C8.28515 3.25418 8.27683 1.91886 7.40246 1.09531C6.97535 0.692814 6.40732 0.470947 5.80296 0.470947C5.19861 0.470947 4.63058 0.692814 4.20302 1.09572C3.77591 1.49822 3.54047 2.0335 3.54047 2.60301C3.54047 3.17253 3.76584 3.68513 4.17633 4.08474L4.20346 4.11031C5.42661 5.26336 5.42661 7.13891 4.20346 8.29155L4.17983 8.31382C3.32997 9.1386 3.3291 10.4558 4.17677 11.281L4.2039 11.3065C4.63102 11.7095 5.19905 11.9309 5.8034 11.9309C6.40775 11.9309 6.97578 11.709 7.4029 11.3065L7.40246 11.3061Z" fill="#011445"/>
<path d="M16.4935 11.283L16.469 11.3061L16.4694 11.3065C16.0423 11.709 15.4742 11.9309 14.8699 11.9309C14.2655 11.9309 13.6975 11.7095 13.2704 11.3065L13.2433 11.281C12.3956 10.4558 12.3965 9.1386 13.2463 8.31382L13.27 8.29155C14.4931 7.13891 14.4931 5.26336 13.27 4.11031L13.2428 4.08474C12.8323 3.68513 12.607 3.17253 12.607 2.60301C12.607 2.0335 12.8424 1.49822 13.2695 1.09572C13.6971 0.692814 14.2651 0.470947 14.8695 0.470947C15.4738 0.470947 16.0418 0.692814 16.469 1.09531C17.3433 1.91886 17.3516 3.25418 16.4935 4.08721L16.469 4.10989C15.2458 5.26294 15.2458 7.1385 16.469 8.29114L16.4952 8.31588C17.3433 9.14149 17.3429 10.4587 16.4935 11.283Z" fill="#011445"/>
<path d="M11.9842 14.8819L11.9597 14.905L11.9602 14.9054C11.5331 15.3079 10.965 15.5298 10.3607 15.5298C9.75632 15.5298 9.18828 15.3083 8.76117 14.9054L8.73403 14.8798C7.88636 14.0546 7.88724 12.7375 8.7371 11.9127L8.76073 11.8904C9.98388 10.7378 9.98388 8.86222 8.76073 7.70917L8.7336 7.6836C8.32311 7.28399 8.09774 6.77139 8.09774 6.20187C8.09774 5.63236 8.33317 5.09708 8.76029 4.69458C9.18785 4.29168 9.75588 4.06981 10.3602 4.06981C10.9646 4.06981 11.5326 4.29168 11.9597 4.69417C12.8341 5.51772 12.8424 6.85304 11.9842 7.68607L11.9597 7.70876C10.7366 8.8618 10.7366 10.7374 11.9597 11.89L11.986 11.9147C12.8341 12.7404 12.8337 14.0575 11.9842 14.8819Z" fill="#011445"/>
<path d="M1.32651 7.08255C1.57421 7.31597 1.90373 7.44463 2.2547 7.44463L2.25427 7.44504C2.6048 7.44504 2.93433 7.31638 3.18246 7.08255C3.69404 6.60005 3.69404 5.81527 3.18246 5.33318L3.16714 5.31875C2.92076 5.09441 2.59649 4.97069 2.25383 4.97069C1.91117 4.97069 1.58821 5.094 1.34227 5.31793L1.32607 5.33318C1.07794 5.56701 0.941406 5.87795 0.941406 6.20787C0.941406 6.53778 1.07838 6.84873 1.32651 7.08255Z" fill="#011445"/>
<path d="M18.4535 7.44463C18.1025 7.44463 17.773 7.31597 17.5253 7.08255C17.2772 6.84873 17.1402 6.53778 17.1402 6.20787C17.1402 5.87795 17.2767 5.56701 17.5249 5.33318L17.5411 5.31793C17.787 5.094 18.11 4.97069 18.4526 4.97069C18.7953 4.97069 19.1196 5.09441 19.3659 5.31875L19.3813 5.33318C19.8928 5.81527 19.8928 6.60005 19.3813 7.08255C19.1331 7.31638 18.8036 7.44504 18.4531 7.44504L18.4535 7.44463Z" fill="#011445"/>
</svg>
