<svg width="759" height="178" viewBox="0 0 759 178" fill="none" xmlns="http://www.w3.org/2000/svg">
<path d="M76.2065 127.798L76.4955 127.526C86.5142 117.803 86.5193 102.267 76.5161 92.5289L76.2065 92.2371C61.7797 78.642 61.7797 56.5203 76.2065 42.9204L76.4955 42.6529C86.6174 32.8275 86.5194 17.0777 76.2065 7.36418C71.1687 2.61686 64.4689 0 57.3408 0C50.2126 0 43.5128 2.61686 38.4699 7.36904C33.4322 12.1164 30.6552 18.4299 30.6552 25.1472C30.6552 31.8644 33.3134 37.9104 38.155 42.6237L38.4751 42.9253C52.9018 56.5252 52.9018 78.6469 38.4751 92.2419L38.1963 92.5046C28.1725 102.233 28.1622 117.768 38.1602 127.501L38.4802 127.803C43.518 132.555 50.2177 135.167 57.3459 135.167C64.4741 135.167 71.1739 132.55 76.2116 127.803L76.2065 127.798Z" fill="white"/>
<path d="M183.432 127.526L183.143 127.798L183.148 127.803C178.111 132.55 171.411 135.167 164.283 135.167C157.155 135.167 150.455 132.555 145.417 127.803L145.097 127.501C135.099 117.768 135.109 102.233 145.133 92.5046L145.412 92.2419C159.839 78.6469 159.839 56.5252 145.412 42.9253L145.092 42.6237C140.25 37.9104 137.592 31.8644 137.592 25.1472C137.592 18.4299 140.369 12.1164 145.407 7.36904C150.45 2.61686 157.149 0 164.278 0C171.406 0 178.106 2.61686 183.143 7.36418C193.456 17.0777 193.554 32.8275 183.432 42.6529L183.143 42.9204C168.717 56.5203 168.717 78.642 183.143 92.2371L183.453 92.5289C193.456 102.267 193.451 117.803 183.432 127.526Z" fill="white"/>
<path d="M130.247 169.973L129.958 170.246L129.963 170.251C124.926 174.998 118.226 177.615 111.098 177.615C103.969 177.615 97.2697 175.003 92.232 170.251L91.912 169.949C81.9139 160.216 81.9242 144.68 91.9481 134.952L92.2268 134.69C106.654 121.094 106.654 98.9728 92.2268 85.3729L91.9068 85.0713C87.0652 80.358 84.407 74.312 84.407 67.5948C84.407 60.8775 87.1839 54.564 92.2217 49.8166C97.2646 45.0645 103.964 42.4476 111.093 42.4476C118.221 42.4476 124.92 45.0645 129.958 49.8118C140.271 59.5253 140.369 75.2751 130.247 85.1005L129.958 85.368C115.532 98.9679 115.532 121.09 129.958 134.685L130.268 134.977C140.271 144.714 140.266 160.25 130.247 169.973Z" fill="white"/>
<path d="M4.54222 77.9821C7.46369 80.7352 11.3504 82.2527 15.49 82.2527L15.4848 82.2576C19.6193 82.2576 23.506 80.74 26.4326 77.9821C32.4665 72.2912 32.4665 63.0349 26.4326 57.3488L26.252 57.1785C23.346 54.5325 19.5212 53.0733 15.4797 53.0733C11.4381 53.0733 7.62886 54.5276 4.72804 57.1688L4.53706 57.3488C1.61042 60.1067 0 63.7742 0 67.6654C0 71.5567 1.61558 75.2242 4.54222 77.9821Z" fill="white"/>
<path d="M206.55 82.2527C202.411 82.2527 198.524 80.7352 195.603 77.9821C192.676 75.2242 191.06 71.5567 191.06 67.6654C191.06 63.7742 192.671 60.1067 195.597 57.3488L195.788 57.1688C198.689 54.5276 202.499 53.0733 206.54 53.0733C210.582 53.0733 214.406 54.5325 217.312 57.1785L217.493 57.3488C223.527 63.0349 223.527 72.2912 217.493 77.9821C214.566 80.74 210.68 82.2576 206.545 82.2576L206.55 82.2527Z" fill="white"/>
<path d="M658.352 4.66012C664.55 10.863 664.55 20.952 658.352 27.1496C655.351 30.1556 651.359 31.8044 647.107 31.8044C642.855 31.8044 638.863 30.1503 635.862 27.1496C632.85 24.1436 631.196 20.1515 631.196 15.9049C631.196 11.6583 632.85 7.66614 635.856 4.66012L636.053 4.46397C639.032 1.58519 642.94 2.20556e-07 647.102 2.20556e-07C651.264 2.20556e-07 655.181 1.58519 658.166 4.47457L658.352 4.66012Z" fill="white"/>
<path fill-rule="evenodd" clip-rule="evenodd" d="M514.68 167.749C523.061 173.336 532.295 176.13 542.384 176.13C548.282 176.13 553.869 175.199 559.146 173.336C564.578 171.474 569.467 168.991 573.813 165.887C578.314 162.782 581.961 159.29 584.755 155.41C584.794 155.356 584.834 155.302 584.873 155.248L584.755 166.043C584.755 171.108 592.472 173.652 597.111 173.652C602.567 173.652 609.2 171.108 609.2 165.887V59.4396C609.2 54.7036 603.16 52.1592 597.747 52.1592C593.082 52.1592 585.453 54.7036 585.453 59.4396C585.453 61.4723 585.368 66.1443 585.27 70.8155C582.81 66.602 579.612 62.9055 575.675 59.7259C571.795 56.3114 567.217 53.6729 561.94 51.8104C556.663 49.948 550.843 49.0167 544.479 49.0167C533.77 49.0167 524.07 51.7328 515.378 57.165C506.842 62.5972 500.013 70.1247 494.891 79.7474C489.924 89.215 487.441 100.079 487.441 112.341C487.441 124.447 489.924 135.311 494.891 144.934C499.858 154.556 506.454 162.162 514.68 167.749ZM547.077 151.489C566.492 151.489 582.231 134.064 582.231 112.568C582.231 91.0732 566.492 73.6479 547.077 73.6479C527.662 73.6479 511.923 91.0732 511.923 112.568C511.923 134.064 527.662 151.489 547.077 151.489Z" fill="white"/>
<path d="M643.914 176.599C638.872 176.599 634.785 172.052 634.785 166.442V62.0821C634.785 56.4729 638.872 51.9256 643.914 51.9256H652.371C657.413 51.9256 661.5 56.4729 661.5 62.0821V166.442C661.5 172.052 657.413 176.599 652.371 176.599H643.914Z" fill="white"/>
<path d="M696.123 177.024C691.06 177.024 686.955 172.458 686.955 166.826V62.0367C686.955 56.4044 691.06 51.8385 696.123 51.8385H701.985C706.348 51.8385 710.106 55.2577 710.972 60.0138V68.423C718.345 55.2855 731.024 51.269 745.019 51.269C745.872 51.269 746.612 51.214 747.298 51.1631C748.976 51.0387 750.327 50.9384 752.188 51.7246C760.376 55.1852 760.154 73.8158 751.778 76.6705C749.932 77.2999 748.486 76.9233 746.948 76.5227C745.835 76.2329 744.674 75.9305 743.278 75.9871C734.076 76.3601 725.972 82.5417 721.056 88.389C716.209 94.2363 713.785 102.362 713.785 112.765V166.826C713.785 172.458 709.68 177.024 704.617 177.024H696.123Z" fill="white"/>
<path d="M340.345 177.366C328.932 177.366 318.457 175.219 308.921 170.925C299.384 166.631 291.098 160.521 284.063 152.594C277.028 144.502 271.556 135.006 267.648 124.106C263.896 113.207 262.02 101.234 262.02 88.1874C262.02 75.8015 264.052 64.3239 268.117 53.7547C272.338 43.0202 278.122 33.607 285.47 25.5149C292.818 17.4228 301.338 11.1473 311.031 6.68837C320.724 2.22946 331.199 0 342.455 0C350.428 0 358.167 1.32116 365.671 3.96347C373.332 6.44065 380.211 9.99127 386.308 14.6153C389.445 16.8523 392.287 19.2556 394.834 21.8251C399.13 26.1587 398.57 33.2532 394.457 37.7795L393.394 38.9485C388.603 44.2205 380.719 44.1815 375.169 39.8178C373.73 38.6866 372.284 37.6347 370.83 36.6622C366.296 33.3593 361.606 30.8821 356.76 29.2306C352.07 27.5792 347.302 26.7535 342.455 26.7535C334.795 26.7535 327.603 28.3223 320.881 31.4601C314.314 34.4327 308.53 38.6439 303.527 44.0937C298.681 49.5435 294.85 56.0667 292.036 63.6634C289.222 71.0949 287.815 79.2695 287.815 88.1874C287.815 97.6006 289.144 106.188 291.802 113.95C294.616 121.547 298.524 128.07 303.527 133.52C308.53 138.969 314.471 143.181 321.35 146.153C328.385 148.961 336.123 150.364 344.566 150.364C349.725 150.364 354.806 149.621 359.808 148.135C364.811 146.649 369.501 144.502 373.879 141.694C380.52 137.435 389.797 138.6 393.86 145.595C396.61 150.328 396.256 156.56 392.105 159.969C389.644 161.99 386.852 163.908 383.728 165.723C377.631 169.356 370.752 172.246 363.092 174.393C355.587 176.375 348.005 177.366 340.345 177.366Z" fill="white"/>
<path d="M435.31 174.579C440.253 176.603 446.448 177.615 453.895 177.615C455.74 177.615 457.75 177.459 459.925 177.148C462.1 176.914 463.879 176.642 465.263 176.33C466.713 176.097 468.196 175.785 469.712 175.396C470.791 175.131 471.033 175.011 471.374 174.843C471.533 174.765 471.713 174.676 472.008 174.557C478.847 171.806 477.629 157.281 471.491 152.978C468.708 151.027 465.581 152.197 462.829 153.227C461.396 153.764 460.065 154.262 458.936 154.262C452.28 154.262 447.799 152.238 445.492 148.19C443.186 144.065 442.033 136.242 442.033 124.721V10.7031C442.033 4.92921 438.07 0.248718 433.181 0.2492L424.982 0.250008C420.095 0.250489 416.133 4.93069 416.133 10.7039V125.305C416.133 134.568 416.693 142.313 417.813 148.541C418.934 154.768 420.911 160.139 423.745 164.654C426.578 169.169 430.434 172.477 435.31 174.579Z" fill="white"/>
</svg>
