<svg width="759" height="190" viewBox="0 0 759 190" fill="none" xmlns="http://www.w3.org/2000/svg">
<path d="M335.34 189.52C323.25 189.52 312.19 187.45 302.17 183.32C292.15 179.18 283.47 173.3 276.15 165.65C268.83 157.86 263.1 148.7 258.97 138.2C254.99 127.55 253 115.92 253 103.35C253 90.7801 255.15 80.0402 259.44 69.7002C263.74 59.3502 269.7 50.2901 277.34 42.4901C284.98 34.7001 293.89 28.6601 304.07 24.3601C314.25 20.0601 325.31 17.9102 337.24 17.9102C345.36 17.9102 353.23 19.1101 360.87 21.4901C368.51 23.8801 375.51 27.2201 381.87 31.5101C386.19 34.3201 390.04 37.4602 393.41 40.9402C396.15 43.7602 395.93 48.2001 393.28 51.1101L383.89 61.4102C380.73 64.8702 375.34 64.9001 371.74 61.9001C369.59 60.1101 367.4 58.4902 365.17 57.0702C360.87 54.0502 356.34 51.8201 351.57 50.3901C346.96 48.8001 342.18 48.0001 337.25 48.0001C329.93 48.0001 323.01 49.3502 316.49 52.0502C310.13 54.7602 304.56 58.5801 299.78 63.5101C295.17 68.4401 291.51 74.3202 288.8 81.1702C286.09 87.8602 284.74 95.3301 284.74 103.61C284.74 111.89 286.01 119.67 288.56 126.52C291.27 133.37 295 139.25 299.78 144.19C304.71 149.13 310.52 152.95 317.2 155.64C324.04 158.19 331.52 159.46 339.63 159.46C344.88 159.46 349.97 158.75 354.9 157.31C359.83 155.88 364.37 153.89 368.5 151.35C369.85 150.5 371.16 149.61 372.44 148.67C376.66 145.59 382.84 146.28 385.59 150.72L392.28 161.47C394.18 164.52 393.88 168.5 391.15 170.85C388.06 173.52 384.4 176 380.2 178.32C373.84 181.82 366.67 184.6 358.72 186.67C350.92 188.58 343.13 189.53 335.33 189.53L335.34 189.52Z" fill="#011445"/>
<path d="M335.34 189.52C323.25 189.52 312.19 187.45 302.17 183.32C292.15 179.18 283.47 173.3 276.15 165.65C268.83 157.86 263.1 148.7 258.97 138.2C254.99 127.55 253 115.92 253 103.35C253 90.7801 255.15 80.0402 259.44 69.7002C263.74 59.3502 269.7 50.2901 277.34 42.4901C284.98 34.7001 293.89 28.6601 304.07 24.3601C314.25 20.0601 325.31 17.9102 337.24 17.9102C345.36 17.9102 353.23 19.1101 360.87 21.4901C368.51 23.8801 375.51 27.2201 381.87 31.5101C386.19 34.3201 390.04 37.4602 393.41 40.9402C396.15 43.7602 395.93 48.2001 393.28 51.1101L383.89 61.4102C380.73 64.8702 375.34 64.9001 371.74 61.9001C369.59 60.1101 367.4 58.4902 365.17 57.0702C360.87 54.0502 356.34 51.8201 351.57 50.3901C346.96 48.8001 342.18 48.0001 337.25 48.0001C329.93 48.0001 323.01 49.3502 316.49 52.0502C310.13 54.7602 304.56 58.5801 299.78 63.5101C295.17 68.4401 291.51 74.3202 288.8 81.1702C286.09 87.8602 284.74 95.3301 284.74 103.61C284.74 111.89 286.01 119.67 288.56 126.52C291.27 133.37 295 139.25 299.78 144.19C304.71 149.13 310.52 152.95 317.2 155.64C324.04 158.19 331.52 159.46 339.63 159.46C344.88 159.46 349.97 158.75 354.9 157.31C359.83 155.88 364.37 153.89 368.5 151.35C369.85 150.5 371.16 149.61 372.44 148.67C376.66 145.59 382.84 146.28 385.59 150.72L392.28 161.47C394.18 164.52 393.88 168.5 391.15 170.85C388.06 173.52 384.4 176 380.2 178.32C373.84 181.82 366.67 184.6 358.72 186.67C350.92 188.58 343.13 189.53 335.33 189.53L335.34 189.52Z" fill="url(#paint0_linear_874_873)"/>
<path d="M335.34 189.52C323.25 189.52 312.19 187.45 302.17 183.32C292.15 179.18 283.47 173.3 276.15 165.65C268.83 157.86 263.1 148.7 258.97 138.2C254.99 127.55 253 115.92 253 103.35C253 90.7801 255.15 80.0402 259.44 69.7002C263.74 59.3502 269.7 50.2901 277.34 42.4901C284.98 34.7001 293.89 28.6601 304.07 24.3601C314.25 20.0601 325.31 17.9102 337.24 17.9102C345.36 17.9102 353.23 19.1101 360.87 21.4901C368.51 23.8801 375.51 27.2201 381.87 31.5101C386.19 34.3201 390.04 37.4602 393.41 40.9402C396.15 43.7602 395.93 48.2001 393.28 51.1101L383.89 61.4102C380.73 64.8702 375.34 64.9001 371.74 61.9001C369.59 60.1101 367.4 58.4902 365.17 57.0702C360.87 54.0502 356.34 51.8201 351.57 50.3901C346.96 48.8001 342.18 48.0001 337.25 48.0001C329.93 48.0001 323.01 49.3502 316.49 52.0502C310.13 54.7602 304.56 58.5801 299.78 63.5101C295.17 68.4401 291.51 74.3202 288.8 81.1702C286.09 87.8602 284.74 95.3301 284.74 103.61C284.74 111.89 286.01 119.67 288.56 126.52C291.27 133.37 295 139.25 299.78 144.19C304.71 149.13 310.52 152.95 317.2 155.64C324.04 158.19 331.52 159.46 339.63 159.46C344.88 159.46 349.97 158.75 354.9 157.31C359.83 155.88 364.37 153.89 368.5 151.35C369.85 150.5 371.16 149.61 372.44 148.67C376.66 145.59 382.84 146.28 385.59 150.72L392.28 161.47C394.18 164.52 393.88 168.5 391.15 170.85C388.06 173.52 384.4 176 380.2 178.32C373.84 181.82 366.67 184.6 358.72 186.67C350.92 188.58 343.13 189.53 335.33 189.53L335.34 189.52Z" fill="url(#paint1_radial_874_873)" fill-opacity="0.2"/>
<path d="M335.34 189.52C323.25 189.52 312.19 187.45 302.17 183.32C292.15 179.18 283.47 173.3 276.15 165.65C268.83 157.86 263.1 148.7 258.97 138.2C254.99 127.55 253 115.92 253 103.35C253 90.7801 255.15 80.0402 259.44 69.7002C263.74 59.3502 269.7 50.2901 277.34 42.4901C284.98 34.7001 293.89 28.6601 304.07 24.3601C314.25 20.0601 325.31 17.9102 337.24 17.9102C345.36 17.9102 353.23 19.1101 360.87 21.4901C368.51 23.8801 375.51 27.2201 381.87 31.5101C386.19 34.3201 390.04 37.4602 393.41 40.9402C396.15 43.7602 395.93 48.2001 393.28 51.1101L383.89 61.4102C380.73 64.8702 375.34 64.9001 371.74 61.9001C369.59 60.1101 367.4 58.4902 365.17 57.0702C360.87 54.0502 356.34 51.8201 351.57 50.3901C346.96 48.8001 342.18 48.0001 337.25 48.0001C329.93 48.0001 323.01 49.3502 316.49 52.0502C310.13 54.7602 304.56 58.5801 299.78 63.5101C295.17 68.4401 291.51 74.3202 288.8 81.1702C286.09 87.8602 284.74 95.3301 284.74 103.61C284.74 111.89 286.01 119.67 288.56 126.52C291.27 133.37 295 139.25 299.78 144.19C304.71 149.13 310.52 152.95 317.2 155.64C324.04 158.19 331.52 159.46 339.63 159.46C344.88 159.46 349.97 158.75 354.9 157.31C359.83 155.88 364.37 153.89 368.5 151.35C369.85 150.5 371.16 149.61 372.44 148.67C376.66 145.59 382.84 146.28 385.59 150.72L392.28 161.47C394.18 164.52 393.88 168.5 391.15 170.85C388.06 173.52 384.4 176 380.2 178.32C373.84 181.82 366.67 184.6 358.72 186.67C350.92 188.58 343.13 189.53 335.33 189.53L335.34 189.52Z" fill="url(#paint2_radial_874_873)" fill-opacity="0.2"/>
<path d="M425.64 187.14C421.16 187.14 417.53 183.51 417.53 179.03V18.6295C417.53 14.1495 421.16 10.5195 425.64 10.5195H439.02C443.5 10.5195 447.13 14.1495 447.13 18.6295V179.03C447.13 183.51 443.5 187.14 439.02 187.14H425.64Z" fill="#011445"/>
<path d="M425.64 187.14C421.16 187.14 417.53 183.51 417.53 179.03V18.6295C417.53 14.1495 421.16 10.5195 425.64 10.5195H439.02C443.5 10.5195 447.13 14.1495 447.13 18.6295V179.03C447.13 183.51 443.5 187.14 439.02 187.14H425.64Z" fill="url(#paint3_linear_874_873)"/>
<path d="M425.64 187.14C421.16 187.14 417.53 183.51 417.53 179.03V18.6295C417.53 14.1495 421.16 10.5195 425.64 10.5195H439.02C443.5 10.5195 447.13 14.1495 447.13 18.6295V179.03C447.13 183.51 443.5 187.14 439.02 187.14H425.64Z" fill="url(#paint4_radial_874_873)" fill-opacity="0.2"/>
<path d="M425.64 187.14C421.16 187.14 417.53 183.51 417.53 179.03V18.6295C417.53 14.1495 421.16 10.5195 425.64 10.5195H439.02C443.5 10.5195 447.13 14.1495 447.13 18.6295V179.03C447.13 183.51 443.5 187.14 439.02 187.14H425.64Z" fill="url(#paint5_radial_874_873)" fill-opacity="0.2"/>
<path d="M522.731 189.52C512.391 189.52 503.001 186.66 494.571 180.94C486.141 175.2 479.381 167.41 474.281 157.55C469.191 147.68 466.641 136.47 466.641 123.89C466.641 111.31 469.191 100.1 474.281 90.2402C479.371 80.3802 486.291 72.6603 495.041 67.0903C503.791 61.5203 513.661 58.7402 524.641 58.7402C531.001 58.7402 536.811 59.6902 542.061 61.6002C547.311 63.3502 551.921 65.9002 555.901 69.2402C559.881 72.5802 563.141 76.4003 565.691 80.6903C567.591 83.7003 569.051 86.8703 570.091 90.2003C570.711 92.1903 568.861 93.9403 566.851 93.4103C565.611 93.0903 564.741 91.9703 564.741 90.6803V69.4702C564.741 64.9902 568.371 61.3602 572.851 61.3602H586.231C590.711 61.3602 594.341 64.9902 594.341 69.4702V179.03C594.341 183.51 590.711 187.14 586.231 187.14H572.611C568.131 187.14 564.501 183.51 564.501 179.03V159.54C564.501 158.11 565.531 156.88 566.941 156.64C569.041 156.28 570.791 158.21 569.971 160.18C568.811 163 567.221 165.77 565.211 168.52C562.351 172.49 558.691 176.08 554.231 179.26C549.931 182.28 545.081 184.74 539.671 186.66C534.421 188.57 528.771 189.52 522.721 189.52H522.731ZM530.841 163.52C537.681 163.52 543.731 161.85 548.981 158.5C554.231 155.16 558.291 150.54 561.151 144.66C564.171 138.62 565.691 131.7 565.691 123.89C565.691 116.08 564.181 109.5 561.151 103.61C558.291 97.7202 554.231 93.1103 548.981 89.7703C543.731 86.4303 537.681 84.7502 530.841 84.7502C524.001 84.7502 517.951 86.4203 512.701 89.7703C507.611 93.1103 503.631 97.7302 500.771 103.61C497.911 109.5 496.471 116.26 496.471 123.89C496.471 131.52 497.901 138.62 500.771 144.66C503.631 150.55 507.611 155.16 512.701 158.5C517.951 161.84 524.001 163.52 530.841 163.52Z" fill="#011445"/>
<path d="M522.731 189.52C512.391 189.52 503.001 186.66 494.571 180.94C486.141 175.2 479.381 167.41 474.281 157.55C469.191 147.68 466.641 136.47 466.641 123.89C466.641 111.31 469.191 100.1 474.281 90.2402C479.371 80.3802 486.291 72.6603 495.041 67.0903C503.791 61.5203 513.661 58.7402 524.641 58.7402C531.001 58.7402 536.811 59.6902 542.061 61.6002C547.311 63.3502 551.921 65.9002 555.901 69.2402C559.881 72.5802 563.141 76.4003 565.691 80.6903C567.591 83.7003 569.051 86.8703 570.091 90.2003C570.711 92.1903 568.861 93.9403 566.851 93.4103C565.611 93.0903 564.741 91.9703 564.741 90.6803V69.4702C564.741 64.9902 568.371 61.3602 572.851 61.3602H586.231C590.711 61.3602 594.341 64.9902 594.341 69.4702V179.03C594.341 183.51 590.711 187.14 586.231 187.14H572.611C568.131 187.14 564.501 183.51 564.501 179.03V159.54C564.501 158.11 565.531 156.88 566.941 156.64C569.041 156.28 570.791 158.21 569.971 160.18C568.811 163 567.221 165.77 565.211 168.52C562.351 172.49 558.691 176.08 554.231 179.26C549.931 182.28 545.081 184.74 539.671 186.66C534.421 188.57 528.771 189.52 522.721 189.52H522.731ZM530.841 163.52C537.681 163.52 543.731 161.85 548.981 158.5C554.231 155.16 558.291 150.54 561.151 144.66C564.171 138.62 565.691 131.7 565.691 123.89C565.691 116.08 564.181 109.5 561.151 103.61C558.291 97.7202 554.231 93.1103 548.981 89.7703C543.731 86.4303 537.681 84.7502 530.841 84.7502C524.001 84.7502 517.951 86.4203 512.701 89.7703C507.611 93.1103 503.631 97.7302 500.771 103.61C497.911 109.5 496.471 116.26 496.471 123.89C496.471 131.52 497.901 138.62 500.771 144.66C503.631 150.55 507.611 155.16 512.701 158.5C517.951 161.84 524.001 163.52 530.841 163.52Z" fill="url(#paint6_linear_874_873)"/>
<path d="M522.731 189.52C512.391 189.52 503.001 186.66 494.571 180.94C486.141 175.2 479.381 167.41 474.281 157.55C469.191 147.68 466.641 136.47 466.641 123.89C466.641 111.31 469.191 100.1 474.281 90.2402C479.371 80.3802 486.291 72.6603 495.041 67.0903C503.791 61.5203 513.661 58.7402 524.641 58.7402C531.001 58.7402 536.811 59.6902 542.061 61.6002C547.311 63.3502 551.921 65.9002 555.901 69.2402C559.881 72.5802 563.141 76.4003 565.691 80.6903C567.591 83.7003 569.051 86.8703 570.091 90.2003C570.711 92.1903 568.861 93.9403 566.851 93.4103C565.611 93.0903 564.741 91.9703 564.741 90.6803V69.4702C564.741 64.9902 568.371 61.3602 572.851 61.3602H586.231C590.711 61.3602 594.341 64.9902 594.341 69.4702V179.03C594.341 183.51 590.711 187.14 586.231 187.14H572.611C568.131 187.14 564.501 183.51 564.501 179.03V159.54C564.501 158.11 565.531 156.88 566.941 156.64C569.041 156.28 570.791 158.21 569.971 160.18C568.811 163 567.221 165.77 565.211 168.52C562.351 172.49 558.691 176.08 554.231 179.26C549.931 182.28 545.081 184.74 539.671 186.66C534.421 188.57 528.771 189.52 522.721 189.52H522.731ZM530.841 163.52C537.681 163.52 543.731 161.85 548.981 158.5C554.231 155.16 558.291 150.54 561.151 144.66C564.171 138.62 565.691 131.7 565.691 123.89C565.691 116.08 564.181 109.5 561.151 103.61C558.291 97.7202 554.231 93.1103 548.981 89.7703C543.731 86.4303 537.681 84.7502 530.841 84.7502C524.001 84.7502 517.951 86.4203 512.701 89.7703C507.611 93.1103 503.631 97.7302 500.771 103.61C497.911 109.5 496.471 116.26 496.471 123.89C496.471 131.52 497.901 138.62 500.771 144.66C503.631 150.55 507.611 155.16 512.701 158.5C517.951 161.84 524.001 163.52 530.841 163.52Z" fill="url(#paint7_radial_874_873)" fill-opacity="0.2"/>
<path d="M522.731 189.52C512.391 189.52 503.001 186.66 494.571 180.94C486.141 175.2 479.381 167.41 474.281 157.55C469.191 147.68 466.641 136.47 466.641 123.89C466.641 111.31 469.191 100.1 474.281 90.2402C479.371 80.3802 486.291 72.6603 495.041 67.0903C503.791 61.5203 513.661 58.7402 524.641 58.7402C531.001 58.7402 536.811 59.6902 542.061 61.6002C547.311 63.3502 551.921 65.9002 555.901 69.2402C559.881 72.5802 563.141 76.4003 565.691 80.6903C567.591 83.7003 569.051 86.8703 570.091 90.2003C570.711 92.1903 568.861 93.9403 566.851 93.4103C565.611 93.0903 564.741 91.9703 564.741 90.6803V69.4702C564.741 64.9902 568.371 61.3602 572.851 61.3602H586.231C590.711 61.3602 594.341 64.9902 594.341 69.4702V179.03C594.341 183.51 590.711 187.14 586.231 187.14H572.611C568.131 187.14 564.501 183.51 564.501 179.03V159.54C564.501 158.11 565.531 156.88 566.941 156.64C569.041 156.28 570.791 158.21 569.971 160.18C568.811 163 567.221 165.77 565.211 168.52C562.351 172.49 558.691 176.08 554.231 179.26C549.931 182.28 545.081 184.74 539.671 186.66C534.421 188.57 528.771 189.52 522.721 189.52H522.731ZM530.841 163.52C537.681 163.52 543.731 161.85 548.981 158.5C554.231 155.16 558.291 150.54 561.151 144.66C564.171 138.62 565.691 131.7 565.691 123.89C565.691 116.08 564.181 109.5 561.151 103.61C558.291 97.7202 554.231 93.1103 548.981 89.7703C543.731 86.4303 537.681 84.7502 530.841 84.7502C524.001 84.7502 517.951 86.4203 512.701 89.7703C507.611 93.1103 503.631 97.7302 500.771 103.61C497.911 109.5 496.471 116.26 496.471 123.89C496.471 131.52 497.901 138.62 500.771 144.66C503.631 150.55 507.611 155.16 512.701 158.5C517.951 161.84 524.001 163.52 530.841 163.52Z" fill="url(#paint8_radial_874_873)" fill-opacity="0.2"/>
<path d="M630.69 187.14C626.21 187.14 622.58 183.51 622.58 179.03V69.47C622.58 64.99 626.21 61.36 630.69 61.36H643.83C648.31 61.36 651.94 64.99 651.94 69.47V179.03C651.94 183.51 648.31 187.14 643.83 187.14H630.69ZM636.91 34.63C631.02 34.63 626.41 33.2001 623.07 30.3301C619.89 27.3101 618.3 23.0901 618.3 17.6801C618.3 12.5901 619.97 8.46002 623.31 5.27002C626.65 2.09002 631.19 0.5 636.91 0.5C642.96 0.5 647.57 2.01003 650.75 5.03003C654.09 7.90003 655.76 12.1101 655.76 17.6801C655.76 22.6201 654.09 26.67 650.75 29.85C647.41 33.03 642.79 34.62 636.91 34.62V34.63Z" fill="#011445"/>
<path d="M630.69 187.14C626.21 187.14 622.58 183.51 622.58 179.03V69.47C622.58 64.99 626.21 61.36 630.69 61.36H643.83C648.31 61.36 651.94 64.99 651.94 69.47V179.03C651.94 183.51 648.31 187.14 643.83 187.14H630.69ZM636.91 34.63C631.02 34.63 626.41 33.2001 623.07 30.3301C619.89 27.3101 618.3 23.0901 618.3 17.6801C618.3 12.5901 619.97 8.46002 623.31 5.27002C626.65 2.09002 631.19 0.5 636.91 0.5C642.96 0.5 647.57 2.01003 650.75 5.03003C654.09 7.90003 655.76 12.1101 655.76 17.6801C655.76 22.6201 654.09 26.67 650.75 29.85C647.41 33.03 642.79 34.62 636.91 34.62V34.63Z" fill="url(#paint9_linear_874_873)"/>
<path d="M630.69 187.14C626.21 187.14 622.58 183.51 622.58 179.03V69.47C622.58 64.99 626.21 61.36 630.69 61.36H643.83C648.31 61.36 651.94 64.99 651.94 69.47V179.03C651.94 183.51 648.31 187.14 643.83 187.14H630.69ZM636.91 34.63C631.02 34.63 626.41 33.2001 623.07 30.3301C619.89 27.3101 618.3 23.0901 618.3 17.6801C618.3 12.5901 619.97 8.46002 623.31 5.27002C626.65 2.09002 631.19 0.5 636.91 0.5C642.96 0.5 647.57 2.01003 650.75 5.03003C654.09 7.90003 655.76 12.1101 655.76 17.6801C655.76 22.6201 654.09 26.67 650.75 29.85C647.41 33.03 642.79 34.62 636.91 34.62V34.63Z" fill="url(#paint10_radial_874_873)" fill-opacity="0.2"/>
<path d="M630.69 187.14C626.21 187.14 622.58 183.51 622.58 179.03V69.47C622.58 64.99 626.21 61.36 630.69 61.36H643.83C648.31 61.36 651.94 64.99 651.94 69.47V179.03C651.94 183.51 648.31 187.14 643.83 187.14H630.69ZM636.91 34.63C631.02 34.63 626.41 33.2001 623.07 30.3301C619.89 27.3101 618.3 23.0901 618.3 17.6801C618.3 12.5901 619.97 8.46002 623.31 5.27002C626.65 2.09002 631.19 0.5 636.91 0.5C642.96 0.5 647.57 2.01003 650.75 5.03003C654.09 7.90003 655.76 12.1101 655.76 17.6801C655.76 22.6201 654.09 26.67 650.75 29.85C647.41 33.03 642.79 34.62 636.91 34.62V34.63Z" fill="url(#paint11_radial_874_873)" fill-opacity="0.2"/>
<path d="M687.14 187.139C682.66 187.139 679.03 183.509 679.03 179.029V69.4685C679.03 64.9885 682.66 61.3585 687.14 61.3585H701.09C704.87 61.3585 707.94 64.3986 707.99 68.1686L708.28 92.2086C708.31 94.2886 705.46 94.9085 704.61 93.0085C704.43 92.5985 704.39 92.1485 704.52 91.7185C706.29 85.6185 709.26 80.1086 713.4 75.1986C717.7 70.0986 722.63 66.1285 728.2 63.2585C733.93 60.2385 739.9 58.7285 746.1 58.7285C748.81 58.7285 751.35 58.9586 753.74 59.4386C757.37 60.1186 759.29 63.7785 758.42 67.3685L753.71 86.6486C752.88 90.0286 749.01 91.7986 745.63 90.9586C743.08 90.3186 740.54 90.0085 737.99 90.0085C734.01 90.0085 730.19 90.7986 726.53 92.3885C723.03 93.8186 719.93 95.8886 717.22 98.5886C714.51 101.299 712.37 104.479 710.78 108.139C709.35 111.649 708.63 115.619 708.63 120.079V179.039C708.63 183.519 705 187.149 700.52 187.149H687.14V187.139Z" fill="#011445"/>
<path d="M687.14 187.139C682.66 187.139 679.03 183.509 679.03 179.029V69.4685C679.03 64.9885 682.66 61.3585 687.14 61.3585H701.09C704.87 61.3585 707.94 64.3986 707.99 68.1686L708.28 92.2086C708.31 94.2886 705.46 94.9085 704.61 93.0085C704.43 92.5985 704.39 92.1485 704.52 91.7185C706.29 85.6185 709.26 80.1086 713.4 75.1986C717.7 70.0986 722.63 66.1285 728.2 63.2585C733.93 60.2385 739.9 58.7285 746.1 58.7285C748.81 58.7285 751.35 58.9586 753.74 59.4386C757.37 60.1186 759.29 63.7785 758.42 67.3685L753.71 86.6486C752.88 90.0286 749.01 91.7986 745.63 90.9586C743.08 90.3186 740.54 90.0085 737.99 90.0085C734.01 90.0085 730.19 90.7986 726.53 92.3885C723.03 93.8186 719.93 95.8886 717.22 98.5886C714.51 101.299 712.37 104.479 710.78 108.139C709.35 111.649 708.63 115.619 708.63 120.079V179.039C708.63 183.519 705 187.149 700.52 187.149H687.14V187.139Z" fill="url(#paint12_linear_874_873)"/>
<path d="M687.14 187.139C682.66 187.139 679.03 183.509 679.03 179.029V69.4685C679.03 64.9885 682.66 61.3585 687.14 61.3585H701.09C704.87 61.3585 707.94 64.3986 707.99 68.1686L708.28 92.2086C708.31 94.2886 705.46 94.9085 704.61 93.0085C704.43 92.5985 704.39 92.1485 704.52 91.7185C706.29 85.6185 709.26 80.1086 713.4 75.1986C717.7 70.0986 722.63 66.1285 728.2 63.2585C733.93 60.2385 739.9 58.7285 746.1 58.7285C748.81 58.7285 751.35 58.9586 753.74 59.4386C757.37 60.1186 759.29 63.7785 758.42 67.3685L753.71 86.6486C752.88 90.0286 749.01 91.7986 745.63 90.9586C743.08 90.3186 740.54 90.0085 737.99 90.0085C734.01 90.0085 730.19 90.7986 726.53 92.3885C723.03 93.8186 719.93 95.8886 717.22 98.5886C714.51 101.299 712.37 104.479 710.78 108.139C709.35 111.649 708.63 115.619 708.63 120.079V179.039C708.63 183.519 705 187.149 700.52 187.149H687.14V187.139Z" fill="url(#paint13_radial_874_873)" fill-opacity="0.2"/>
<path d="M687.14 187.139C682.66 187.139 679.03 183.509 679.03 179.029V69.4685C679.03 64.9885 682.66 61.3585 687.14 61.3585H701.09C704.87 61.3585 707.94 64.3986 707.99 68.1686L708.28 92.2086C708.31 94.2886 705.46 94.9085 704.61 93.0085C704.43 92.5985 704.39 92.1485 704.52 91.7185C706.29 85.6185 709.26 80.1086 713.4 75.1986C717.7 70.0986 722.63 66.1285 728.2 63.2585C733.93 60.2385 739.9 58.7285 746.1 58.7285C748.81 58.7285 751.35 58.9586 753.74 59.4386C757.37 60.1186 759.29 63.7785 758.42 67.3685L753.71 86.6486C752.88 90.0286 749.01 91.7986 745.63 90.9586C743.08 90.3186 740.54 90.0085 737.99 90.0085C734.01 90.0085 730.19 90.7986 726.53 92.3885C723.03 93.8186 719.93 95.8886 717.22 98.5886C714.51 101.299 712.37 104.479 710.78 108.139C709.35 111.649 708.63 115.619 708.63 120.079V179.039C708.63 183.519 705 187.149 700.52 187.149H687.14V187.139Z" fill="url(#paint14_radial_874_873)" fill-opacity="0.2"/>
<path d="M74.7195 144.329L74.9995 144.069C84.8494 134.509 84.8495 119.229 75.0195 109.659L74.7195 109.369C60.5395 96.0094 60.5395 74.2594 74.7195 60.8894L74.9995 60.6194C84.9494 50.9594 84.8494 35.4794 74.7195 25.9294C69.7695 21.2594 63.1795 18.6895 56.1695 18.6895C49.1595 18.6895 42.5795 21.2594 37.6195 25.9294C32.6695 30.5994 29.9395 36.8094 29.9395 43.4094C29.9395 50.0094 32.5495 55.9594 37.3095 60.5994L37.6195 60.8894C51.7995 74.2594 51.7995 96.0094 37.6195 109.379L37.3495 109.639C27.4995 119.199 27.4795 134.469 37.3095 144.039L37.6195 144.339C42.5695 149.009 49.1595 151.579 56.1695 151.579C63.1795 151.579 69.7595 149.009 74.7195 144.339V144.329Z" fill="#011445"/>
<path d="M74.7195 144.329L74.9995 144.069C84.8494 134.509 84.8495 119.229 75.0195 109.659L74.7195 109.369C60.5395 96.0094 60.5395 74.2594 74.7195 60.8894L74.9995 60.6194C84.9494 50.9594 84.8494 35.4794 74.7195 25.9294C69.7695 21.2594 63.1795 18.6895 56.1695 18.6895C49.1595 18.6895 42.5795 21.2594 37.6195 25.9294C32.6695 30.5994 29.9395 36.8094 29.9395 43.4094C29.9395 50.0094 32.5495 55.9594 37.3095 60.5994L37.6195 60.8894C51.7995 74.2594 51.7995 96.0094 37.6195 109.379L37.3495 109.639C27.4995 119.199 27.4795 134.469 37.3095 144.039L37.6195 144.339C42.5695 149.009 49.1595 151.579 56.1695 151.579C63.1795 151.579 69.7595 149.009 74.7195 144.339V144.329Z" fill="url(#paint15_linear_874_873)"/>
<path d="M74.7195 144.329L74.9995 144.069C84.8494 134.509 84.8495 119.229 75.0195 109.659L74.7195 109.369C60.5395 96.0094 60.5395 74.2594 74.7195 60.8894L74.9995 60.6194C84.9494 50.9594 84.8494 35.4794 74.7195 25.9294C69.7695 21.2594 63.1795 18.6895 56.1695 18.6895C49.1595 18.6895 42.5795 21.2594 37.6195 25.9294C32.6695 30.5994 29.9395 36.8094 29.9395 43.4094C29.9395 50.0094 32.5495 55.9594 37.3095 60.5994L37.6195 60.8894C51.7995 74.2594 51.7995 96.0094 37.6195 109.379L37.3495 109.639C27.4995 119.199 27.4795 134.469 37.3095 144.039L37.6195 144.339C42.5695 149.009 49.1595 151.579 56.1695 151.579C63.1795 151.579 69.7595 149.009 74.7195 144.339V144.329Z" fill="url(#paint16_radial_874_873)" fill-opacity="0.2"/>
<path d="M74.7195 144.329L74.9995 144.069C84.8494 134.509 84.8495 119.229 75.0195 109.659L74.7195 109.369C60.5395 96.0094 60.5395 74.2594 74.7195 60.8894L74.9995 60.6194C84.9494 50.9594 84.8494 35.4794 74.7195 25.9294C69.7695 21.2594 63.1795 18.6895 56.1695 18.6895C49.1595 18.6895 42.5795 21.2594 37.6195 25.9294C32.6695 30.5994 29.9395 36.8094 29.9395 43.4094C29.9395 50.0094 32.5495 55.9594 37.3095 60.5994L37.6195 60.8894C51.7995 74.2594 51.7995 96.0094 37.6195 109.379L37.3495 109.639C27.4995 119.199 27.4795 134.469 37.3095 144.039L37.6195 144.339C42.5695 149.009 49.1595 151.579 56.1695 151.579C63.1795 151.579 69.7595 149.009 74.7195 144.339V144.329Z" fill="url(#paint17_radial_874_873)" fill-opacity="0.2"/>
<path d="M180.14 144.069L179.86 144.329C174.91 149.009 168.32 151.579 161.31 151.579C154.3 151.579 147.71 149.009 142.76 144.339L142.45 144.039C132.62 134.469 132.63 119.199 142.49 109.639L142.76 109.379C156.94 96.0094 156.94 74.2594 142.76 60.8894L142.44 60.5994C137.68 55.9594 135.07 50.0194 135.07 43.4094C135.07 36.7994 137.8 30.5994 142.75 25.9294C147.71 21.2594 154.3 18.6895 161.3 18.6895C168.3 18.6895 174.9 21.2594 179.85 25.9294C189.99 35.4794 190.09 50.9594 180.13 60.6194L179.85 60.8894C165.67 74.2594 165.67 96.0094 179.85 109.369L180.15 109.659C189.99 119.229 189.98 134.509 180.13 144.069H180.14Z" fill="#011445"/>
<path d="M180.14 144.069L179.86 144.329C174.91 149.009 168.32 151.579 161.31 151.579C154.3 151.579 147.71 149.009 142.76 144.339L142.45 144.039C132.62 134.469 132.63 119.199 142.49 109.639L142.76 109.379C156.94 96.0094 156.94 74.2594 142.76 60.8894L142.44 60.5994C137.68 55.9594 135.07 50.0194 135.07 43.4094C135.07 36.7994 137.8 30.5994 142.75 25.9294C147.71 21.2594 154.3 18.6895 161.3 18.6895C168.3 18.6895 174.9 21.2594 179.85 25.9294C189.99 35.4794 190.09 50.9594 180.13 60.6194L179.85 60.8894C165.67 74.2594 165.67 96.0094 179.85 109.369L180.15 109.659C189.99 119.229 189.98 134.509 180.13 144.069H180.14Z" fill="url(#paint18_linear_874_873)"/>
<path d="M180.14 144.069L179.86 144.329C174.91 149.009 168.32 151.579 161.31 151.579C154.3 151.579 147.71 149.009 142.76 144.339L142.45 144.039C132.62 134.469 132.63 119.199 142.49 109.639L142.76 109.379C156.94 96.0094 156.94 74.2594 142.76 60.8894L142.44 60.5994C137.68 55.9594 135.07 50.0194 135.07 43.4094C135.07 36.7994 137.8 30.5994 142.75 25.9294C147.71 21.2594 154.3 18.6895 161.3 18.6895C168.3 18.6895 174.9 21.2594 179.85 25.9294C189.99 35.4794 190.09 50.9594 180.13 60.6194L179.85 60.8894C165.67 74.2594 165.67 96.0094 179.85 109.369L180.15 109.659C189.99 119.229 189.98 134.509 180.13 144.069H180.14Z" fill="url(#paint19_radial_874_873)" fill-opacity="0.2"/>
<path d="M180.14 144.069L179.86 144.329C174.91 149.009 168.32 151.579 161.31 151.579C154.3 151.579 147.71 149.009 142.76 144.339L142.45 144.039C132.62 134.469 132.63 119.199 142.49 109.639L142.76 109.379C156.94 96.0094 156.94 74.2594 142.76 60.8894L142.44 60.5994C137.68 55.9594 135.07 50.0194 135.07 43.4094C135.07 36.7994 137.8 30.5994 142.75 25.9294C147.71 21.2594 154.3 18.6895 161.3 18.6895C168.3 18.6895 174.9 21.2594 179.85 25.9294C189.99 35.4794 190.09 50.9594 180.13 60.6194L179.85 60.8894C165.67 74.2594 165.67 96.0094 179.85 109.369L180.15 109.659C189.99 119.229 189.98 134.509 180.13 144.069H180.14Z" fill="url(#paint20_radial_874_873)" fill-opacity="0.2"/>
<path d="M127.57 178.8L127.29 179.07C122.34 183.74 115.75 186.31 108.74 186.31C101.73 186.31 95.14 183.74 90.19 179.07L89.87 178.77C80.04 169.21 80.05 153.93 89.91 144.37L90.18 144.11C104.36 130.74 104.36 108.99 90.18 95.6199L89.87 95.33C85.11 90.69 82.5 84.7499 82.5 78.1499C82.5 71.5499 85.23 65.3299 90.18 60.6699C95.14 55.9899 101.72 53.4199 108.73 53.4199C115.74 53.4199 122.33 55.9899 127.28 60.6599C137.42 70.2099 137.52 85.6999 127.56 95.3599L127.28 95.6199C113.1 108.99 113.1 130.74 127.28 144.1L127.58 144.39C137.41 153.97 137.41 169.24 127.56 178.8H127.57Z" fill="#011445"/>
<path d="M127.57 178.8L127.29 179.07C122.34 183.74 115.75 186.31 108.74 186.31C101.73 186.31 95.14 183.74 90.19 179.07L89.87 178.77C80.04 169.21 80.05 153.93 89.91 144.37L90.18 144.11C104.36 130.74 104.36 108.99 90.18 95.6199L89.87 95.33C85.11 90.69 82.5 84.7499 82.5 78.1499C82.5 71.5499 85.23 65.3299 90.18 60.6699C95.14 55.9899 101.72 53.4199 108.73 53.4199C115.74 53.4199 122.33 55.9899 127.28 60.6599C137.42 70.2099 137.52 85.6999 127.56 95.3599L127.28 95.6199C113.1 108.99 113.1 130.74 127.28 144.1L127.58 144.39C137.41 153.97 137.41 169.24 127.56 178.8H127.57Z" fill="url(#paint21_linear_874_873)"/>
<path d="M127.57 178.8L127.29 179.07C122.34 183.74 115.75 186.31 108.74 186.31C101.73 186.31 95.14 183.74 90.19 179.07L89.87 178.77C80.04 169.21 80.05 153.93 89.91 144.37L90.18 144.11C104.36 130.74 104.36 108.99 90.18 95.6199L89.87 95.33C85.11 90.69 82.5 84.7499 82.5 78.1499C82.5 71.5499 85.23 65.3299 90.18 60.6699C95.14 55.9899 101.72 53.4199 108.73 53.4199C115.74 53.4199 122.33 55.9899 127.28 60.6599C137.42 70.2099 137.52 85.6999 127.56 95.3599L127.28 95.6199C113.1 108.99 113.1 130.74 127.28 144.1L127.58 144.39C137.41 153.97 137.41 169.24 127.56 178.8H127.57Z" fill="url(#paint22_radial_874_873)" fill-opacity="0.2"/>
<path d="M127.57 178.8L127.29 179.07C122.34 183.74 115.75 186.31 108.74 186.31C101.73 186.31 95.14 183.74 90.19 179.07L89.87 178.77C80.04 169.21 80.05 153.93 89.91 144.37L90.18 144.11C104.36 130.74 104.36 108.99 90.18 95.6199L89.87 95.33C85.11 90.69 82.5 84.7499 82.5 78.1499C82.5 71.5499 85.23 65.3299 90.18 60.6699C95.14 55.9899 101.72 53.4199 108.73 53.4199C115.74 53.4199 122.33 55.9899 127.28 60.6599C137.42 70.2099 137.52 85.6999 127.56 95.3599L127.28 95.6199C113.1 108.99 113.1 130.74 127.28 144.1L127.58 144.39C137.41 153.97 137.41 169.24 127.56 178.8H127.57Z" fill="url(#paint23_radial_874_873)" fill-opacity="0.2"/>
<path d="M4.41 95.819C7.24 98.639 11.01 100.209 15.02 100.209C19.03 100.209 22.79 98.649 25.63 95.819C31.48 89.959 31.48 80.4489 25.63 74.5989L25.45 74.4189C22.63 71.6989 18.93 70.209 15.01 70.209C11.09 70.209 7.4 71.7089 4.59 74.4189L4.4 74.5989C1.56 77.4289 0 81.209 0 85.209C0 89.209 1.57 92.979 4.4 95.809L4.41 95.819Z" fill="#011445"/>
<path d="M4.41 95.819C7.24 98.639 11.01 100.209 15.02 100.209C19.03 100.209 22.79 98.649 25.63 95.819C31.48 89.959 31.48 80.4489 25.63 74.5989L25.45 74.4189C22.63 71.6989 18.93 70.209 15.01 70.209C11.09 70.209 7.4 71.7089 4.59 74.4189L4.4 74.5989C1.56 77.4289 0 81.209 0 85.209C0 89.209 1.57 92.979 4.4 95.809L4.41 95.819Z" fill="url(#paint24_linear_874_873)"/>
<path d="M4.41 95.819C7.24 98.639 11.01 100.209 15.02 100.209C19.03 100.209 22.79 98.649 25.63 95.819C31.48 89.959 31.48 80.4489 25.63 74.5989L25.45 74.4189C22.63 71.6989 18.93 70.209 15.01 70.209C11.09 70.209 7.4 71.7089 4.59 74.4189L4.4 74.5989C1.56 77.4289 0 81.209 0 85.209C0 89.209 1.57 92.979 4.4 95.809L4.41 95.819Z" fill="url(#paint25_radial_874_873)" fill-opacity="0.2"/>
<path d="M4.41 95.819C7.24 98.639 11.01 100.209 15.02 100.209C19.03 100.209 22.79 98.649 25.63 95.819C31.48 89.959 31.48 80.4489 25.63 74.5989L25.45 74.4189C22.63 71.6989 18.93 70.209 15.01 70.209C11.09 70.209 7.4 71.7089 4.59 74.4189L4.4 74.5989C1.56 77.4289 0 81.209 0 85.209C0 89.209 1.57 92.979 4.4 95.809L4.41 95.819Z" fill="url(#paint26_radial_874_873)" fill-opacity="0.2"/>
<path d="M202.86 100.219C198.85 100.219 195.08 98.6486 192.25 95.8286C189.41 92.9986 187.85 89.2185 187.85 85.2285C187.85 81.2385 189.41 77.4485 192.25 74.6185L192.44 74.4386C195.25 71.7186 198.94 70.2285 202.86 70.2285C206.78 70.2285 210.48 71.7286 213.3 74.4386L213.47 74.6185C219.32 80.4685 219.32 89.9786 213.47 95.8386C210.63 98.6686 206.87 100.229 202.86 100.229V100.219Z" fill="#011445"/>
<path d="M202.86 100.219C198.85 100.219 195.08 98.6486 192.25 95.8286C189.41 92.9986 187.85 89.2185 187.85 85.2285C187.85 81.2385 189.41 77.4485 192.25 74.6185L192.44 74.4386C195.25 71.7186 198.94 70.2285 202.86 70.2285C206.78 70.2285 210.48 71.7286 213.3 74.4386L213.47 74.6185C219.32 80.4685 219.32 89.9786 213.47 95.8386C210.63 98.6686 206.87 100.229 202.86 100.229V100.219Z" fill="url(#paint27_linear_874_873)"/>
<path d="M202.86 100.219C198.85 100.219 195.08 98.6486 192.25 95.8286C189.41 92.9986 187.85 89.2185 187.85 85.2285C187.85 81.2385 189.41 77.4485 192.25 74.6185L192.44 74.4386C195.25 71.7186 198.94 70.2285 202.86 70.2285C206.78 70.2285 210.48 71.7286 213.3 74.4386L213.47 74.6185C219.32 80.4685 219.32 89.9786 213.47 95.8386C210.63 98.6686 206.87 100.229 202.86 100.229V100.219Z" fill="url(#paint28_radial_874_873)" fill-opacity="0.2"/>
<path d="M202.86 100.219C198.85 100.219 195.08 98.6486 192.25 95.8286C189.41 92.9986 187.85 89.2185 187.85 85.2285C187.85 81.2385 189.41 77.4485 192.25 74.6185L192.44 74.4386C195.25 71.7186 198.94 70.2285 202.86 70.2285C206.78 70.2285 210.48 71.7286 213.3 74.4386L213.47 74.6185C219.32 80.4685 219.32 89.9786 213.47 95.8386C210.63 98.6686 206.87 100.229 202.86 100.229V100.219Z" fill="url(#paint29_radial_874_873)" fill-opacity="0.2"/>
<defs>
<linearGradient id="paint0_linear_874_873" x1="253" y1="0.5" x2="377.007" y2="332.2" gradientUnits="userSpaceOnUse">
<stop offset="0.215" stop-color="#011445"/>
<stop offset="0.9" stop-color="#BE5AF2"/>
</linearGradient>
<radialGradient id="paint1_radial_874_873" cx="0" cy="0" r="1" gradientUnits="userSpaceOnUse" gradientTransform="translate(104.568 -127.668) rotate(-15.5026) scale(154.037 391.448)">
<stop offset="0.85" stop-color="#BE5AF2"/>
<stop offset="0.99" stop-color="#BE5AF2"/>
<stop offset="1" stop-color="#BE5AF2" stop-opacity="0"/>
</radialGradient>
<radialGradient id="paint2_radial_874_873" cx="0" cy="0" r="1" gradientUnits="userSpaceOnUse" gradientTransform="translate(162.504 151.044) rotate(6.06095) scale(364.5 633.721)">
<stop stop-color="#011445"/>
<stop offset="0.99" stop-color="#011445"/>
<stop offset="1" stop-color="white" stop-opacity="0"/>
</radialGradient>
<linearGradient id="paint3_linear_874_873" x1="253" y1="0.5" x2="377.007" y2="332.2" gradientUnits="userSpaceOnUse">
<stop offset="0.215" stop-color="#011445"/>
<stop offset="0.9" stop-color="#BE5AF2"/>
</linearGradient>
<radialGradient id="paint4_radial_874_873" cx="0" cy="0" r="1" gradientUnits="userSpaceOnUse" gradientTransform="translate(104.568 -127.668) rotate(-15.5026) scale(154.037 391.448)">
<stop offset="0.85" stop-color="#BE5AF2"/>
<stop offset="0.99" stop-color="#BE5AF2"/>
<stop offset="1" stop-color="#BE5AF2" stop-opacity="0"/>
</radialGradient>
<radialGradient id="paint5_radial_874_873" cx="0" cy="0" r="1" gradientUnits="userSpaceOnUse" gradientTransform="translate(162.504 151.044) rotate(6.06095) scale(364.5 633.721)">
<stop stop-color="#011445"/>
<stop offset="0.99" stop-color="#011445"/>
<stop offset="1" stop-color="white" stop-opacity="0"/>
</radialGradient>
<linearGradient id="paint6_linear_874_873" x1="253" y1="0.5" x2="377.007" y2="332.2" gradientUnits="userSpaceOnUse">
<stop offset="0.215" stop-color="#011445"/>
<stop offset="0.9" stop-color="#BE5AF2"/>
</linearGradient>
<radialGradient id="paint7_radial_874_873" cx="0" cy="0" r="1" gradientUnits="userSpaceOnUse" gradientTransform="translate(104.568 -127.668) rotate(-15.5026) scale(154.037 391.448)">
<stop offset="0.85" stop-color="#BE5AF2"/>
<stop offset="0.99" stop-color="#BE5AF2"/>
<stop offset="1" stop-color="#BE5AF2" stop-opacity="0"/>
</radialGradient>
<radialGradient id="paint8_radial_874_873" cx="0" cy="0" r="1" gradientUnits="userSpaceOnUse" gradientTransform="translate(162.504 151.044) rotate(6.06095) scale(364.5 633.721)">
<stop stop-color="#011445"/>
<stop offset="0.99" stop-color="#011445"/>
<stop offset="1" stop-color="white" stop-opacity="0"/>
</radialGradient>
<linearGradient id="paint9_linear_874_873" x1="253" y1="0.5" x2="377.007" y2="332.2" gradientUnits="userSpaceOnUse">
<stop offset="0.215" stop-color="#011445"/>
<stop offset="0.9" stop-color="#BE5AF2"/>
</linearGradient>
<radialGradient id="paint10_radial_874_873" cx="0" cy="0" r="1" gradientUnits="userSpaceOnUse" gradientTransform="translate(104.568 -127.668) rotate(-15.5026) scale(154.037 391.448)">
<stop offset="0.85" stop-color="#BE5AF2"/>
<stop offset="0.99" stop-color="#BE5AF2"/>
<stop offset="1" stop-color="#BE5AF2" stop-opacity="0"/>
</radialGradient>
<radialGradient id="paint11_radial_874_873" cx="0" cy="0" r="1" gradientUnits="userSpaceOnUse" gradientTransform="translate(162.504 151.044) rotate(6.06095) scale(364.5 633.721)">
<stop stop-color="#011445"/>
<stop offset="0.99" stop-color="#011445"/>
<stop offset="1" stop-color="white" stop-opacity="0"/>
</radialGradient>
<linearGradient id="paint12_linear_874_873" x1="253" y1="0.5" x2="377.007" y2="332.2" gradientUnits="userSpaceOnUse">
<stop offset="0.215" stop-color="#011445"/>
<stop offset="0.9" stop-color="#BE5AF2"/>
</linearGradient>
<radialGradient id="paint13_radial_874_873" cx="0" cy="0" r="1" gradientUnits="userSpaceOnUse" gradientTransform="translate(104.568 -127.668) rotate(-15.5026) scale(154.037 391.448)">
<stop offset="0.85" stop-color="#BE5AF2"/>
<stop offset="0.99" stop-color="#BE5AF2"/>
<stop offset="1" stop-color="#BE5AF2" stop-opacity="0"/>
</radialGradient>
<radialGradient id="paint14_radial_874_873" cx="0" cy="0" r="1" gradientUnits="userSpaceOnUse" gradientTransform="translate(162.504 151.044) rotate(6.06095) scale(364.5 633.721)">
<stop stop-color="#011445"/>
<stop offset="0.99" stop-color="#011445"/>
<stop offset="1" stop-color="white" stop-opacity="0"/>
</radialGradient>
<linearGradient id="paint15_linear_874_873" x1="0" y1="18.6895" x2="162.022" y2="229.27" gradientUnits="userSpaceOnUse">
<stop offset="0.215" stop-color="#011445"/>
<stop offset="0.9" stop-color="#BE5AF2"/>
</linearGradient>
<radialGradient id="paint16_radial_874_873" cx="0" cy="0" r="1" gradientUnits="userSpaceOnUse" gradientTransform="translate(-63.9543 -94.9623) rotate(-29.7199) scale(73.641 312.834)">
<stop offset="0.85" stop-color="#BE5AF2"/>
<stop offset="0.99" stop-color="#BE5AF2"/>
<stop offset="1" stop-color="#BE5AF2" stop-opacity="0"/>
</radialGradient>
<radialGradient id="paint17_radial_874_873" cx="0" cy="0" r="1" gradientUnits="userSpaceOnUse" gradientTransform="translate(-38.9915 152.183) rotate(12.3267) scale(159.858 552.077)">
<stop stop-color="#011445"/>
<stop offset="0.99" stop-color="#011445"/>
<stop offset="1" stop-color="white" stop-opacity="0"/>
</radialGradient>
<linearGradient id="paint18_linear_874_873" x1="0" y1="18.6895" x2="162.022" y2="229.27" gradientUnits="userSpaceOnUse">
<stop offset="0.215" stop-color="#011445"/>
<stop offset="0.9" stop-color="#BE5AF2"/>
</linearGradient>
<radialGradient id="paint19_radial_874_873" cx="0" cy="0" r="1" gradientUnits="userSpaceOnUse" gradientTransform="translate(-63.9543 -94.9623) rotate(-29.7199) scale(73.641 312.834)">
<stop offset="0.85" stop-color="#BE5AF2"/>
<stop offset="0.99" stop-color="#BE5AF2"/>
<stop offset="1" stop-color="#BE5AF2" stop-opacity="0"/>
</radialGradient>
<radialGradient id="paint20_radial_874_873" cx="0" cy="0" r="1" gradientUnits="userSpaceOnUse" gradientTransform="translate(-38.9915 152.183) rotate(12.3267) scale(159.858 552.077)">
<stop stop-color="#011445"/>
<stop offset="0.99" stop-color="#011445"/>
<stop offset="1" stop-color="white" stop-opacity="0"/>
</radialGradient>
<linearGradient id="paint21_linear_874_873" x1="0" y1="18.6895" x2="162.022" y2="229.27" gradientUnits="userSpaceOnUse">
<stop offset="0.215" stop-color="#011445"/>
<stop offset="0.9" stop-color="#BE5AF2"/>
</linearGradient>
<radialGradient id="paint22_radial_874_873" cx="0" cy="0" r="1" gradientUnits="userSpaceOnUse" gradientTransform="translate(-63.9543 -94.9623) rotate(-29.7199) scale(73.641 312.834)">
<stop offset="0.85" stop-color="#BE5AF2"/>
<stop offset="0.99" stop-color="#BE5AF2"/>
<stop offset="1" stop-color="#BE5AF2" stop-opacity="0"/>
</radialGradient>
<radialGradient id="paint23_radial_874_873" cx="0" cy="0" r="1" gradientUnits="userSpaceOnUse" gradientTransform="translate(-38.9915 152.183) rotate(12.3267) scale(159.858 552.077)">
<stop stop-color="#011445"/>
<stop offset="0.99" stop-color="#011445"/>
<stop offset="1" stop-color="white" stop-opacity="0"/>
</radialGradient>
<linearGradient id="paint24_linear_874_873" x1="0" y1="18.6895" x2="162.022" y2="229.27" gradientUnits="userSpaceOnUse">
<stop offset="0.215" stop-color="#011445"/>
<stop offset="0.9" stop-color="#BE5AF2"/>
</linearGradient>
<radialGradient id="paint25_radial_874_873" cx="0" cy="0" r="1" gradientUnits="userSpaceOnUse" gradientTransform="translate(-63.9543 -94.9623) rotate(-29.7199) scale(73.641 312.834)">
<stop offset="0.85" stop-color="#BE5AF2"/>
<stop offset="0.99" stop-color="#BE5AF2"/>
<stop offset="1" stop-color="#BE5AF2" stop-opacity="0"/>
</radialGradient>
<radialGradient id="paint26_radial_874_873" cx="0" cy="0" r="1" gradientUnits="userSpaceOnUse" gradientTransform="translate(-38.9915 152.183) rotate(12.3267) scale(159.858 552.077)">
<stop stop-color="#011445"/>
<stop offset="0.99" stop-color="#011445"/>
<stop offset="1" stop-color="white" stop-opacity="0"/>
</radialGradient>
<linearGradient id="paint27_linear_874_873" x1="0" y1="18.6895" x2="162.022" y2="229.27" gradientUnits="userSpaceOnUse">
<stop offset="0.215" stop-color="#011445"/>
<stop offset="0.9" stop-color="#BE5AF2"/>
</linearGradient>
<radialGradient id="paint28_radial_874_873" cx="0" cy="0" r="1" gradientUnits="userSpaceOnUse" gradientTransform="translate(-63.9543 -94.9623) rotate(-29.7199) scale(73.641 312.834)">
<stop offset="0.85" stop-color="#BE5AF2"/>
<stop offset="0.99" stop-color="#BE5AF2"/>
<stop offset="1" stop-color="#BE5AF2" stop-opacity="0"/>
</radialGradient>
<radialGradient id="paint29_radial_874_873" cx="0" cy="0" r="1" gradientUnits="userSpaceOnUse" gradientTransform="translate(-38.9915 152.183) rotate(12.3267) scale(159.858 552.077)">
<stop stop-color="#011445"/>
<stop offset="0.99" stop-color="#011445"/>
<stop offset="1" stop-color="white" stop-opacity="0"/>
</radialGradient>
</defs>
</svg>
