<svg xmlns="http://www.w3.org/2000/svg" width="759" height="190" fill="none"><path fill="#011445" d="M335.34 189.52c-12.09 0-23.15-2.07-33.17-6.2-10.02-4.14-18.7-10.02-26.02-17.67-7.32-7.79-13.05-16.95-17.18-27.45-3.98-10.65-5.97-22.28-5.97-34.85s2.15-23.31 6.44-33.65c4.3-10.35 10.26-19.41 17.9-27.21 7.64-7.79 16.55-13.83 26.73-18.13 10.18-4.3 21.24-6.45 33.17-6.45 8.12 0 15.99 1.2 23.63 3.58 7.64 2.39 14.64 5.73 21 10.02 4.32 2.81 8.17 5.95 11.54 9.43 2.74 2.82 2.52 7.26-.13 10.17l-9.39 10.3c-3.16 3.46-8.55 3.49-12.15.49-2.15-1.79-4.34-3.41-6.57-4.83-4.3-3.02-8.83-5.25-13.6-6.68A43.646 43.646 0 0 0 337.25 48c-7.32 0-14.24 1.35-20.76 4.05-6.36 2.71-11.93 6.53-16.71 11.46-4.61 4.93-8.27 10.81-10.98 17.66-2.71 6.69-4.06 14.16-4.06 22.44 0 8.28 1.27 16.06 3.82 22.91 2.71 6.85 6.44 12.73 11.22 17.67 4.93 4.94 10.74 8.76 17.42 11.45 6.84 2.55 14.32 3.82 22.43 3.82 5.25 0 10.34-.71 15.27-2.15 4.93-1.43 9.47-3.42 13.6-5.96 1.35-.85 2.66-1.74 3.94-2.68 4.22-3.08 10.4-2.39 13.15 2.05l6.69 10.75c1.9 3.05 1.6 7.03-1.13 9.38-3.09 2.67-6.75 5.15-10.95 7.47-6.36 3.5-13.53 6.28-21.48 8.35-7.8 1.91-15.59 2.86-23.39 2.86l.01-.01Z"/><path fill="url(#a)" d="M335.34 189.52c-12.09 0-23.15-2.07-33.17-6.2-10.02-4.14-18.7-10.02-26.02-17.67-7.32-7.79-13.05-16.95-17.18-27.45-3.98-10.65-5.97-22.28-5.97-34.85s2.15-23.31 6.44-33.65c4.3-10.35 10.26-19.41 17.9-27.21 7.64-7.79 16.55-13.83 26.73-18.13 10.18-4.3 21.24-6.45 33.17-6.45 8.12 0 15.99 1.2 23.63 3.58 7.64 2.39 14.64 5.73 21 10.02 4.32 2.81 8.17 5.95 11.54 9.43 2.74 2.82 2.52 7.26-.13 10.17l-9.39 10.3c-3.16 3.46-8.55 3.49-12.15.49-2.15-1.79-4.34-3.41-6.57-4.83-4.3-3.02-8.83-5.25-13.6-6.68A43.646 43.646 0 0 0 337.25 48c-7.32 0-14.24 1.35-20.76 4.05-6.36 2.71-11.93 6.53-16.71 11.46-4.61 4.93-8.27 10.81-10.98 17.66-2.71 6.69-4.06 14.16-4.06 22.44 0 8.28 1.27 16.06 3.82 22.91 2.71 6.85 6.44 12.73 11.22 17.67 4.93 4.94 10.74 8.76 17.42 11.45 6.84 2.55 14.32 3.82 22.43 3.82 5.25 0 10.34-.71 15.27-2.15 4.93-1.43 9.47-3.42 13.6-5.96 1.35-.85 2.66-1.74 3.94-2.68 4.22-3.08 10.4-2.39 13.15 2.05l6.69 10.75c1.9 3.05 1.6 7.03-1.13 9.38-3.09 2.67-6.75 5.15-10.95 7.47-6.36 3.5-13.53 6.28-21.48 8.35-7.8 1.91-15.59 2.86-23.39 2.86l.01-.01Z"/><path fill="url(#b)" fill-opacity=".2" d="M335.34 189.52c-12.09 0-23.15-2.07-33.17-6.2-10.02-4.14-18.7-10.02-26.02-17.67-7.32-7.79-13.05-16.95-17.18-27.45-3.98-10.65-5.97-22.28-5.97-34.85s2.15-23.31 6.44-33.65c4.3-10.35 10.26-19.41 17.9-27.21 7.64-7.79 16.55-13.83 26.73-18.13 10.18-4.3 21.24-6.45 33.17-6.45 8.12 0 15.99 1.2 23.63 3.58 7.64 2.39 14.64 5.73 21 10.02 4.32 2.81 8.17 5.95 11.54 9.43 2.74 2.82 2.52 7.26-.13 10.17l-9.39 10.3c-3.16 3.46-8.55 3.49-12.15.49-2.15-1.79-4.34-3.41-6.57-4.83-4.3-3.02-8.83-5.25-13.6-6.68A43.646 43.646 0 0 0 337.25 48c-7.32 0-14.24 1.35-20.76 4.05-6.36 2.71-11.93 6.53-16.71 11.46-4.61 4.93-8.27 10.81-10.98 17.66-2.71 6.69-4.06 14.16-4.06 22.44 0 8.28 1.27 16.06 3.82 22.91 2.71 6.85 6.44 12.73 11.22 17.67 4.93 4.94 10.74 8.76 17.42 11.45 6.84 2.55 14.32 3.82 22.43 3.82 5.25 0 10.34-.71 15.27-2.15 4.93-1.43 9.47-3.42 13.6-5.96 1.35-.85 2.66-1.74 3.94-2.68 4.22-3.08 10.4-2.39 13.15 2.05l6.69 10.75c1.9 3.05 1.6 7.03-1.13 9.38-3.09 2.67-6.75 5.15-10.95 7.47-6.36 3.5-13.53 6.28-21.48 8.35-7.8 1.91-15.59 2.86-23.39 2.86l.01-.01Z"/><path fill="url(#c)" fill-opacity=".2" d="M335.34 189.52c-12.09 0-23.15-2.07-33.17-6.2-10.02-4.14-18.7-10.02-26.02-17.67-7.32-7.79-13.05-16.95-17.18-27.45-3.98-10.65-5.97-22.28-5.97-34.85s2.15-23.31 6.44-33.65c4.3-10.35 10.26-19.41 17.9-27.21 7.64-7.79 16.55-13.83 26.73-18.13 10.18-4.3 21.24-6.45 33.17-6.45 8.12 0 15.99 1.2 23.63 3.58 7.64 2.39 14.64 5.73 21 10.02 4.32 2.81 8.17 5.95 11.54 9.43 2.74 2.82 2.52 7.26-.13 10.17l-9.39 10.3c-3.16 3.46-8.55 3.49-12.15.49-2.15-1.79-4.34-3.41-6.57-4.83-4.3-3.02-8.83-5.25-13.6-6.68A43.646 43.646 0 0 0 337.25 48c-7.32 0-14.24 1.35-20.76 4.05-6.36 2.71-11.93 6.53-16.71 11.46-4.61 4.93-8.27 10.81-10.98 17.66-2.71 6.69-4.06 14.16-4.06 22.44 0 8.28 1.27 16.06 3.82 22.91 2.71 6.85 6.44 12.73 11.22 17.67 4.93 4.94 10.74 8.76 17.42 11.45 6.84 2.55 14.32 3.82 22.43 3.82 5.25 0 10.34-.71 15.27-2.15 4.93-1.43 9.47-3.42 13.6-5.96 1.35-.85 2.66-1.74 3.94-2.68 4.22-3.08 10.4-2.39 13.15 2.05l6.69 10.75c1.9 3.05 1.6 7.03-1.13 9.38-3.09 2.67-6.75 5.15-10.95 7.47-6.36 3.5-13.53 6.28-21.48 8.35-7.8 1.91-15.59 2.86-23.39 2.86l.01-.01Z"/><path fill="#011445" d="M425.64 187.14c-4.48 0-8.11-3.63-8.11-8.11V18.63c0-4.48 3.63-8.11 8.11-8.11h13.38c4.48 0 8.11 3.63 8.11 8.11v160.4c0 4.48-3.63 8.11-8.11 8.11h-13.38Z"/><path fill="url(#d)" d="M425.64 187.14c-4.48 0-8.11-3.63-8.11-8.11V18.63c0-4.48 3.63-8.11 8.11-8.11h13.38c4.48 0 8.11 3.63 8.11 8.11v160.4c0 4.48-3.63 8.11-8.11 8.11h-13.38Z"/><path fill="url(#e)" fill-opacity=".2" d="M425.64 187.14c-4.48 0-8.11-3.63-8.11-8.11V18.63c0-4.48 3.63-8.11 8.11-8.11h13.38c4.48 0 8.11 3.63 8.11 8.11v160.4c0 4.48-3.63 8.11-8.11 8.11h-13.38Z"/><path fill="url(#f)" fill-opacity=".2" d="M425.64 187.14c-4.48 0-8.11-3.63-8.11-8.11V18.63c0-4.48 3.63-8.11 8.11-8.11h13.38c4.48 0 8.11 3.63 8.11 8.11v160.4c0 4.48-3.63 8.11-8.11 8.11h-13.38Z"/><path fill="#011445" d="M522.731 189.52c-10.34 0-19.73-2.86-28.16-8.58-8.43-5.74-15.19-13.53-20.29-23.39-5.09-9.87-7.64-21.08-7.64-33.66 0-12.58 2.55-23.79 7.64-33.65s12.01-17.58 20.76-23.15c8.75-5.57 18.62-8.35 29.6-8.35 6.36 0 12.17.95 17.42 2.86 5.25 1.75 9.86 4.3 13.84 7.64 3.98 3.34 7.24 7.16 9.79 11.45 1.9 3.01 3.36 6.18 4.4 9.51.62 1.99-1.23 3.74-3.24 3.21a2.816 2.816 0 0 1-2.11-2.73V69.47c0-4.48 3.63-8.11 8.11-8.11h13.38c4.48 0 8.11 3.63 8.11 8.11v109.56c0 4.48-3.63 8.11-8.11 8.11h-13.62c-4.48 0-8.11-3.63-8.11-8.11v-19.49a2.94 2.94 0 0 1 2.44-2.9c2.1-.36 3.85 1.57 3.03 3.54-1.16 2.82-2.75 5.59-4.76 8.34-2.86 3.97-6.52 7.56-10.98 10.74-4.3 3.02-9.15 5.48-14.56 7.4-5.25 1.91-10.9 2.86-16.95 2.86h.01Zm8.11-26c6.84 0 12.89-1.67 18.14-5.02 5.25-3.34 9.31-7.96 12.17-13.84 3.02-6.04 4.54-12.96 4.54-20.77 0-7.81-1.51-14.39-4.54-20.28-2.86-5.89-6.92-10.5-12.17-13.84s-11.3-5.02-18.14-5.02-12.89 1.67-18.14 5.02c-5.09 3.34-9.07 7.96-11.93 13.84-2.86 5.89-4.3 12.65-4.3 20.28 0 7.63 1.43 14.73 4.3 20.77 2.86 5.89 6.84 10.5 11.93 13.84 5.25 3.34 11.3 5.02 18.14 5.02Z"/><path fill="url(#g)" d="M522.731 189.52c-10.34 0-19.73-2.86-28.16-8.58-8.43-5.74-15.19-13.53-20.29-23.39-5.09-9.87-7.64-21.08-7.64-33.66 0-12.58 2.55-23.79 7.64-33.65s12.01-17.58 20.76-23.15c8.75-5.57 18.62-8.35 29.6-8.35 6.36 0 12.17.95 17.42 2.86 5.25 1.75 9.86 4.3 13.84 7.64 3.98 3.34 7.24 7.16 9.79 11.45 1.9 3.01 3.36 6.18 4.4 9.51.62 1.99-1.23 3.74-3.24 3.21a2.816 2.816 0 0 1-2.11-2.73V69.47c0-4.48 3.63-8.11 8.11-8.11h13.38c4.48 0 8.11 3.63 8.11 8.11v109.56c0 4.48-3.63 8.11-8.11 8.11h-13.62c-4.48 0-8.11-3.63-8.11-8.11v-19.49a2.94 2.94 0 0 1 2.44-2.9c2.1-.36 3.85 1.57 3.03 3.54-1.16 2.82-2.75 5.59-4.76 8.34-2.86 3.97-6.52 7.56-10.98 10.74-4.3 3.02-9.15 5.48-14.56 7.4-5.25 1.91-10.9 2.86-16.95 2.86h.01Zm8.11-26c6.84 0 12.89-1.67 18.14-5.02 5.25-3.34 9.31-7.96 12.17-13.84 3.02-6.04 4.54-12.96 4.54-20.77 0-7.81-1.51-14.39-4.54-20.28-2.86-5.89-6.92-10.5-12.17-13.84s-11.3-5.02-18.14-5.02-12.89 1.67-18.14 5.02c-5.09 3.34-9.07 7.96-11.93 13.84-2.86 5.89-4.3 12.65-4.3 20.28 0 7.63 1.43 14.73 4.3 20.77 2.86 5.89 6.84 10.5 11.93 13.84 5.25 3.34 11.3 5.02 18.14 5.02Z"/><path fill="url(#h)" fill-opacity=".2" d="M522.731 189.52c-10.34 0-19.73-2.86-28.16-8.58-8.43-5.74-15.19-13.53-20.29-23.39-5.09-9.87-7.64-21.08-7.64-33.66 0-12.58 2.55-23.79 7.64-33.65s12.01-17.58 20.76-23.15c8.75-5.57 18.62-8.35 29.6-8.35 6.36 0 12.17.95 17.42 2.86 5.25 1.75 9.86 4.3 13.84 7.64 3.98 3.34 7.24 7.16 9.79 11.45 1.9 3.01 3.36 6.18 4.4 9.51.62 1.99-1.23 3.74-3.24 3.21a2.816 2.816 0 0 1-2.11-2.73V69.47c0-4.48 3.63-8.11 8.11-8.11h13.38c4.48 0 8.11 3.63 8.11 8.11v109.56c0 4.48-3.63 8.11-8.11 8.11h-13.62c-4.48 0-8.11-3.63-8.11-8.11v-19.49a2.94 2.94 0 0 1 2.44-2.9c2.1-.36 3.85 1.57 3.03 3.54-1.16 2.82-2.75 5.59-4.76 8.34-2.86 3.97-6.52 7.56-10.98 10.74-4.3 3.02-9.15 5.48-14.56 7.4-5.25 1.91-10.9 2.86-16.95 2.86h.01Zm8.11-26c6.84 0 12.89-1.67 18.14-5.02 5.25-3.34 9.31-7.96 12.17-13.84 3.02-6.04 4.54-12.96 4.54-20.77 0-7.81-1.51-14.39-4.54-20.28-2.86-5.89-6.92-10.5-12.17-13.84s-11.3-5.02-18.14-5.02-12.89 1.67-18.14 5.02c-5.09 3.34-9.07 7.96-11.93 13.84-2.86 5.89-4.3 12.65-4.3 20.28 0 7.63 1.43 14.73 4.3 20.77 2.86 5.89 6.84 10.5 11.93 13.84 5.25 3.34 11.3 5.02 18.14 5.02Z"/><path fill="url(#i)" fill-opacity=".2" d="M522.731 189.52c-10.34 0-19.73-2.86-28.16-8.58-8.43-5.74-15.19-13.53-20.29-23.39-5.09-9.87-7.64-21.08-7.64-33.66 0-12.58 2.55-23.79 7.64-33.65s12.01-17.58 20.76-23.15c8.75-5.57 18.62-8.35 29.6-8.35 6.36 0 12.17.95 17.42 2.86 5.25 1.75 9.86 4.3 13.84 7.64 3.98 3.34 7.24 7.16 9.79 11.45 1.9 3.01 3.36 6.18 4.4 9.51.62 1.99-1.23 3.74-3.24 3.21a2.816 2.816 0 0 1-2.11-2.73V69.47c0-4.48 3.63-8.11 8.11-8.11h13.38c4.48 0 8.11 3.63 8.11 8.11v109.56c0 4.48-3.63 8.11-8.11 8.11h-13.62c-4.48 0-8.11-3.63-8.11-8.11v-19.49a2.94 2.94 0 0 1 2.44-2.9c2.1-.36 3.85 1.57 3.03 3.54-1.16 2.82-2.75 5.59-4.76 8.34-2.86 3.97-6.52 7.56-10.98 10.74-4.3 3.02-9.15 5.48-14.56 7.4-5.25 1.91-10.9 2.86-16.95 2.86h.01Zm8.11-26c6.84 0 12.89-1.67 18.14-5.02 5.25-3.34 9.31-7.96 12.17-13.84 3.02-6.04 4.54-12.96 4.54-20.77 0-7.81-1.51-14.39-4.54-20.28-2.86-5.89-6.92-10.5-12.17-13.84s-11.3-5.02-18.14-5.02-12.89 1.67-18.14 5.02c-5.09 3.34-9.07 7.96-11.93 13.84-2.86 5.89-4.3 12.65-4.3 20.28 0 7.63 1.43 14.73 4.3 20.77 2.86 5.89 6.84 10.5 11.93 13.84 5.25 3.34 11.3 5.02 18.14 5.02Z"/><path fill="#011445" d="M630.69 187.14c-4.48 0-8.11-3.63-8.11-8.11V69.47c0-4.48 3.63-8.11 8.11-8.11h13.14c4.48 0 8.11 3.63 8.11 8.11v109.56c0 4.48-3.63 8.11-8.11 8.11h-13.14Zm6.22-152.51c-5.89 0-10.5-1.43-13.84-4.3-3.18-3.02-4.77-7.24-4.77-12.65 0-5.09 1.67-9.22 5.01-12.41 3.34-3.18 7.88-4.77 13.6-4.77 6.05 0 10.66 1.51 13.84 4.53 3.34 2.87 5.01 7.08 5.01 12.65 0 4.94-1.67 8.99-5.01 12.17-3.34 3.18-7.96 4.77-13.84 4.77v.01Z"/><path fill="url(#j)" d="M630.69 187.14c-4.48 0-8.11-3.63-8.11-8.11V69.47c0-4.48 3.63-8.11 8.11-8.11h13.14c4.48 0 8.11 3.63 8.11 8.11v109.56c0 4.48-3.63 8.11-8.11 8.11h-13.14Zm6.22-152.51c-5.89 0-10.5-1.43-13.84-4.3-3.18-3.02-4.77-7.24-4.77-12.65 0-5.09 1.67-9.22 5.01-12.41 3.34-3.18 7.88-4.77 13.6-4.77 6.05 0 10.66 1.51 13.84 4.53 3.34 2.87 5.01 7.08 5.01 12.65 0 4.94-1.67 8.99-5.01 12.17-3.34 3.18-7.96 4.77-13.84 4.77v.01Z"/><path fill="url(#k)" fill-opacity=".2" d="M630.69 187.14c-4.48 0-8.11-3.63-8.11-8.11V69.47c0-4.48 3.63-8.11 8.11-8.11h13.14c4.48 0 8.11 3.63 8.11 8.11v109.56c0 4.48-3.63 8.11-8.11 8.11h-13.14Zm6.22-152.51c-5.89 0-10.5-1.43-13.84-4.3-3.18-3.02-4.77-7.24-4.77-12.65 0-5.09 1.67-9.22 5.01-12.41 3.34-3.18 7.88-4.77 13.6-4.77 6.05 0 10.66 1.51 13.84 4.53 3.34 2.87 5.01 7.08 5.01 12.65 0 4.94-1.67 8.99-5.01 12.17-3.34 3.18-7.96 4.77-13.84 4.77v.01Z"/><path fill="url(#l)" fill-opacity=".2" d="M630.69 187.14c-4.48 0-8.11-3.63-8.11-8.11V69.47c0-4.48 3.63-8.11 8.11-8.11h13.14c4.48 0 8.11 3.63 8.11 8.11v109.56c0 4.48-3.63 8.11-8.11 8.11h-13.14Zm6.22-152.51c-5.89 0-10.5-1.43-13.84-4.3-3.18-3.02-4.77-7.24-4.77-12.65 0-5.09 1.67-9.22 5.01-12.41 3.34-3.18 7.88-4.77 13.6-4.77 6.05 0 10.66 1.51 13.84 4.53 3.34 2.87 5.01 7.08 5.01 12.65 0 4.94-1.67 8.99-5.01 12.17-3.34 3.18-7.96 4.77-13.84 4.77v.01Z"/><path fill="#011445" d="M687.14 187.139c-4.48 0-8.11-3.63-8.11-8.11V69.469c0-4.48 3.63-8.11 8.11-8.11h13.95c3.78 0 6.85 3.04 6.9 6.81l.29 24.04c.03 2.08-2.82 2.7-3.67.8-.18-.41-.22-.86-.09-1.29 1.77-6.1 4.74-11.61 8.88-16.52 4.3-5.1 9.23-9.07 14.8-11.94 5.73-3.02 11.7-4.53 17.9-4.53 2.71 0 5.25.23 7.64.71 3.63.68 5.55 4.34 4.68 7.93l-4.71 19.28c-.83 3.38-4.7 5.15-8.08 4.31-2.55-.64-5.09-.95-7.64-.95-3.98 0-7.8.79-11.46 2.38-3.5 1.43-6.6 3.5-9.31 6.2-2.71 2.71-4.85 5.89-6.44 9.55-1.43 3.51-2.15 7.48-2.15 11.94v58.96c0 4.48-3.63 8.11-8.11 8.11h-13.38v-.01Z"/><path fill="url(#m)" d="M687.14 187.139c-4.48 0-8.11-3.63-8.11-8.11V69.469c0-4.48 3.63-8.11 8.11-8.11h13.95c3.78 0 6.85 3.04 6.9 6.81l.29 24.04c.03 2.08-2.82 2.7-3.67.8-.18-.41-.22-.86-.09-1.29 1.77-6.1 4.74-11.61 8.88-16.52 4.3-5.1 9.23-9.07 14.8-11.94 5.73-3.02 11.7-4.53 17.9-4.53 2.71 0 5.25.23 7.64.71 3.63.68 5.55 4.34 4.68 7.93l-4.71 19.28c-.83 3.38-4.7 5.15-8.08 4.31-2.55-.64-5.09-.95-7.64-.95-3.98 0-7.8.79-11.46 2.38-3.5 1.43-6.6 3.5-9.31 6.2-2.71 2.71-4.85 5.89-6.44 9.55-1.43 3.51-2.15 7.48-2.15 11.94v58.96c0 4.48-3.63 8.11-8.11 8.11h-13.38v-.01Z"/><path fill="url(#n)" fill-opacity=".2" d="M687.14 187.139c-4.48 0-8.11-3.63-8.11-8.11V69.469c0-4.48 3.63-8.11 8.11-8.11h13.95c3.78 0 6.85 3.04 6.9 6.81l.29 24.04c.03 2.08-2.82 2.7-3.67.8-.18-.41-.22-.86-.09-1.29 1.77-6.1 4.74-11.61 8.88-16.52 4.3-5.1 9.23-9.07 14.8-11.94 5.73-3.02 11.7-4.53 17.9-4.53 2.71 0 5.25.23 7.64.71 3.63.68 5.55 4.34 4.68 7.93l-4.71 19.28c-.83 3.38-4.7 5.15-8.08 4.31-2.55-.64-5.09-.95-7.64-.95-3.98 0-7.8.79-11.46 2.38-3.5 1.43-6.6 3.5-9.31 6.2-2.71 2.71-4.85 5.89-6.44 9.55-1.43 3.51-2.15 7.48-2.15 11.94v58.96c0 4.48-3.63 8.11-8.11 8.11h-13.38v-.01Z"/><path fill="url(#o)" fill-opacity=".2" d="M687.14 187.139c-4.48 0-8.11-3.63-8.11-8.11V69.469c0-4.48 3.63-8.11 8.11-8.11h13.95c3.78 0 6.85 3.04 6.9 6.81l.29 24.04c.03 2.08-2.82 2.7-3.67.8-.18-.41-.22-.86-.09-1.29 1.77-6.1 4.74-11.61 8.88-16.52 4.3-5.1 9.23-9.07 14.8-11.94 5.73-3.02 11.7-4.53 17.9-4.53 2.71 0 5.25.23 7.64.71 3.63.68 5.55 4.34 4.68 7.93l-4.71 19.28c-.83 3.38-4.7 5.15-8.08 4.31-2.55-.64-5.09-.95-7.64-.95-3.98 0-7.8.79-11.46 2.38-3.5 1.43-6.6 3.5-9.31 6.2-2.71 2.71-4.85 5.89-6.44 9.55-1.43 3.51-2.15 7.48-2.15 11.94v58.96c0 4.48-3.63 8.11-8.11 8.11h-13.38v-.01Z"/><path fill="#011445" d="m74.72 144.329.28-.26c9.85-9.56 9.85-24.84.02-34.41l-.3-.29c-14.18-13.36-14.18-35.11 0-48.48l.28-.27c9.95-9.66 9.85-25.14-.28-34.69-4.95-4.67-11.54-7.24-18.55-7.24-7.01 0-13.59 2.57-18.55 7.24-4.95 4.67-7.68 10.88-7.68 17.48s2.61 12.55 7.37 17.19l.31.29c14.18 13.37 14.18 35.12 0 48.49l-.27.26c-9.85 9.56-9.87 24.83-.04 34.4l.31.3c4.95 4.67 11.54 7.24 18.55 7.24 7.01 0 13.59-2.57 18.55-7.24v-.01Z"/><path fill="url(#p)" d="m74.72 144.329.28-.26c9.85-9.56 9.85-24.84.02-34.41l-.3-.29c-14.18-13.36-14.18-35.11 0-48.48l.28-.27c9.95-9.66 9.85-25.14-.28-34.69-4.95-4.67-11.54-7.24-18.55-7.24-7.01 0-13.59 2.57-18.55 7.24-4.95 4.67-7.68 10.88-7.68 17.48s2.61 12.55 7.37 17.19l.31.29c14.18 13.37 14.18 35.12 0 48.49l-.27.26c-9.85 9.56-9.87 24.83-.04 34.4l.31.3c4.95 4.67 11.54 7.24 18.55 7.24 7.01 0 13.59-2.57 18.55-7.24v-.01Z"/><path fill="url(#q)" fill-opacity=".2" d="m74.72 144.329.28-.26c9.85-9.56 9.85-24.84.02-34.41l-.3-.29c-14.18-13.36-14.18-35.11 0-48.48l.28-.27c9.95-9.66 9.85-25.14-.28-34.69-4.95-4.67-11.54-7.24-18.55-7.24-7.01 0-13.59 2.57-18.55 7.24-4.95 4.67-7.68 10.88-7.68 17.48s2.61 12.55 7.37 17.19l.31.29c14.18 13.37 14.18 35.12 0 48.49l-.27.26c-9.85 9.56-9.87 24.83-.04 34.4l.31.3c4.95 4.67 11.54 7.24 18.55 7.24 7.01 0 13.59-2.57 18.55-7.24v-.01Z"/><path fill="url(#r)" fill-opacity=".2" d="m74.72 144.329.28-.26c9.85-9.56 9.85-24.84.02-34.41l-.3-.29c-14.18-13.36-14.18-35.11 0-48.48l.28-.27c9.95-9.66 9.85-25.14-.28-34.69-4.95-4.67-11.54-7.24-18.55-7.24-7.01 0-13.59 2.57-18.55 7.24-4.95 4.67-7.68 10.88-7.68 17.48s2.61 12.55 7.37 17.19l.31.29c14.18 13.37 14.18 35.12 0 48.49l-.27.26c-9.85 9.56-9.87 24.83-.04 34.4l.31.3c4.95 4.67 11.54 7.24 18.55 7.24 7.01 0 13.59-2.57 18.55-7.24v-.01Z"/><path fill="#011445" d="m180.14 144.069-.28.26c-4.95 4.68-11.54 7.25-18.55 7.25-7.01 0-13.6-2.57-18.55-7.24l-.31-.3c-9.83-9.57-9.82-24.84.04-34.4l.27-.26c14.18-13.37 14.18-35.12 0-48.49l-.32-.29c-4.76-4.64-7.37-10.58-7.37-17.19 0-6.61 2.73-12.81 7.68-17.48 4.96-4.67 11.55-7.24 18.55-7.24s13.6 2.57 18.55 7.24c10.14 9.55 10.24 25.03.28 34.69l-.28.27c-14.18 13.37-14.18 35.12 0 48.48l.3.29c9.84 9.57 9.83 24.85-.02 34.41h.01Z"/><path fill="url(#s)" d="m180.14 144.069-.28.26c-4.95 4.68-11.54 7.25-18.55 7.25-7.01 0-13.6-2.57-18.55-7.24l-.31-.3c-9.83-9.57-9.82-24.84.04-34.4l.27-.26c14.18-13.37 14.18-35.12 0-48.49l-.32-.29c-4.76-4.64-7.37-10.58-7.37-17.19 0-6.61 2.73-12.81 7.68-17.48 4.96-4.67 11.55-7.24 18.55-7.24s13.6 2.57 18.55 7.24c10.14 9.55 10.24 25.03.28 34.69l-.28.27c-14.18 13.37-14.18 35.12 0 48.48l.3.29c9.84 9.57 9.83 24.85-.02 34.41h.01Z"/><path fill="url(#t)" fill-opacity=".2" d="m180.14 144.069-.28.26c-4.95 4.68-11.54 7.25-18.55 7.25-7.01 0-13.6-2.57-18.55-7.24l-.31-.3c-9.83-9.57-9.82-24.84.04-34.4l.27-.26c14.18-13.37 14.18-35.12 0-48.49l-.32-.29c-4.76-4.64-7.37-10.58-7.37-17.19 0-6.61 2.73-12.81 7.68-17.48 4.96-4.67 11.55-7.24 18.55-7.24s13.6 2.57 18.55 7.24c10.14 9.55 10.24 25.03.28 34.69l-.28.27c-14.18 13.37-14.18 35.12 0 48.48l.3.29c9.84 9.57 9.83 24.85-.02 34.41h.01Z"/><path fill="url(#u)" fill-opacity=".2" d="m180.14 144.069-.28.26c-4.95 4.68-11.54 7.25-18.55 7.25-7.01 0-13.6-2.57-18.55-7.24l-.31-.3c-9.83-9.57-9.82-24.84.04-34.4l.27-.26c14.18-13.37 14.18-35.12 0-48.49l-.32-.29c-4.76-4.64-7.37-10.58-7.37-17.19 0-6.61 2.73-12.81 7.68-17.48 4.96-4.67 11.55-7.24 18.55-7.24s13.6 2.57 18.55 7.24c10.14 9.55 10.24 25.03.28 34.69l-.28.27c-14.18 13.37-14.18 35.12 0 48.48l.3.29c9.84 9.57 9.83 24.85-.02 34.41h.01Z"/><path fill="#011445" d="m127.57 178.8-.28.27c-4.95 4.67-11.54 7.24-18.55 7.24-7.01 0-13.6-2.57-18.55-7.24l-.32-.3c-9.83-9.56-9.82-24.84.04-34.4l.27-.26c14.18-13.37 14.18-35.12 0-48.49l-.31-.29c-4.76-4.64-7.37-10.58-7.37-17.18s2.73-12.82 7.68-17.48c4.96-4.68 11.54-7.25 18.55-7.25 7.01 0 13.6 2.57 18.55 7.24 10.14 9.55 10.24 25.04.28 34.7l-.28.26c-14.18 13.37-14.18 35.12 0 48.48l.3.29c9.83 9.58 9.83 24.85-.02 34.41h.01Z"/><path fill="url(#v)" d="m127.57 178.8-.28.27c-4.95 4.67-11.54 7.24-18.55 7.24-7.01 0-13.6-2.57-18.55-7.24l-.32-.3c-9.83-9.56-9.82-24.84.04-34.4l.27-.26c14.18-13.37 14.18-35.12 0-48.49l-.31-.29c-4.76-4.64-7.37-10.58-7.37-17.18s2.73-12.82 7.68-17.48c4.96-4.68 11.54-7.25 18.55-7.25 7.01 0 13.6 2.57 18.55 7.24 10.14 9.55 10.24 25.04.28 34.7l-.28.26c-14.18 13.37-14.18 35.12 0 48.48l.3.29c9.83 9.58 9.83 24.85-.02 34.41h.01Z"/><path fill="url(#w)" fill-opacity=".2" d="m127.57 178.8-.28.27c-4.95 4.67-11.54 7.24-18.55 7.24-7.01 0-13.6-2.57-18.55-7.24l-.32-.3c-9.83-9.56-9.82-24.84.04-34.4l.27-.26c14.18-13.37 14.18-35.12 0-48.49l-.31-.29c-4.76-4.64-7.37-10.58-7.37-17.18s2.73-12.82 7.68-17.48c4.96-4.68 11.54-7.25 18.55-7.25 7.01 0 13.6 2.57 18.55 7.24 10.14 9.55 10.24 25.04.28 34.7l-.28.26c-14.18 13.37-14.18 35.12 0 48.48l.3.29c9.83 9.58 9.83 24.85-.02 34.41h.01Z"/><path fill="url(#x)" fill-opacity=".2" d="m127.57 178.8-.28.27c-4.95 4.67-11.54 7.24-18.55 7.24-7.01 0-13.6-2.57-18.55-7.24l-.32-.3c-9.83-9.56-9.82-24.84.04-34.4l.27-.26c14.18-13.37 14.18-35.12 0-48.49l-.31-.29c-4.76-4.64-7.37-10.58-7.37-17.18s2.73-12.82 7.68-17.48c4.96-4.68 11.54-7.25 18.55-7.25 7.01 0 13.6 2.57 18.55 7.24 10.14 9.55 10.24 25.04.28 34.7l-.28.26c-14.18 13.37-14.18 35.12 0 48.48l.3.29c9.83 9.58 9.83 24.85-.02 34.41h.01Z"/><path fill="#011445" d="M4.41 95.819a14.95 14.95 0 0 0 10.61 4.39c4.01 0 7.77-1.56 10.61-4.39 5.85-5.86 5.85-15.37 0-21.22l-.18-.18a14.946 14.946 0 0 0-10.44-4.21c-3.92 0-7.61 1.5-10.42 4.21l-.19.18c-2.84 2.83-4.4 6.61-4.4 10.61 0 4 1.57 7.77 4.4 10.6l.01.01Z"/><path fill="url(#y)" d="M4.41 95.819a14.95 14.95 0 0 0 10.61 4.39c4.01 0 7.77-1.56 10.61-4.39 5.85-5.86 5.85-15.37 0-21.22l-.18-.18a14.946 14.946 0 0 0-10.44-4.21c-3.92 0-7.61 1.5-10.42 4.21l-.19.18c-2.84 2.83-4.4 6.61-4.4 10.61 0 4 1.57 7.77 4.4 10.6l.01.01Z"/><path fill="url(#z)" fill-opacity=".2" d="M4.41 95.819a14.95 14.95 0 0 0 10.61 4.39c4.01 0 7.77-1.56 10.61-4.39 5.85-5.86 5.85-15.37 0-21.22l-.18-.18a14.946 14.946 0 0 0-10.44-4.21c-3.92 0-7.61 1.5-10.42 4.21l-.19.18c-2.84 2.83-4.4 6.61-4.4 10.61 0 4 1.57 7.77 4.4 10.6l.01.01Z"/><path fill="url(#A)" fill-opacity=".2" d="M4.41 95.819a14.95 14.95 0 0 0 10.61 4.39c4.01 0 7.77-1.56 10.61-4.39 5.85-5.86 5.85-15.37 0-21.22l-.18-.18a14.946 14.946 0 0 0-10.44-4.21c-3.92 0-7.61 1.5-10.42 4.21l-.19.18c-2.84 2.83-4.4 6.61-4.4 10.61 0 4 1.57 7.77 4.4 10.6l.01.01Z"/><path fill="#011445" d="M202.86 100.219c-4.01 0-7.78-1.57-10.61-4.39-2.84-2.83-4.4-6.61-4.4-10.6 0-3.99 1.56-7.78 4.4-10.61l.19-.18c2.81-2.72 6.5-4.21 10.42-4.21s7.62 1.5 10.44 4.21l.17.18c5.85 5.85 5.85 15.36 0 21.22-2.84 2.83-6.6 4.39-10.61 4.39v-.01Z"/><path fill="url(#B)" d="M202.86 100.219c-4.01 0-7.78-1.57-10.61-4.39-2.84-2.83-4.4-6.61-4.4-10.6 0-3.99 1.56-7.78 4.4-10.61l.19-.18c2.81-2.72 6.5-4.21 10.42-4.21s7.62 1.5 10.44 4.21l.17.18c5.85 5.85 5.85 15.36 0 21.22-2.84 2.83-6.6 4.39-10.61 4.39v-.01Z"/><path fill="url(#C)" fill-opacity=".2" d="M202.86 100.219c-4.01 0-7.78-1.57-10.61-4.39-2.84-2.83-4.4-6.61-4.4-10.6 0-3.99 1.56-7.78 4.4-10.61l.19-.18c2.81-2.72 6.5-4.21 10.42-4.21s7.62 1.5 10.44 4.21l.17.18c5.85 5.85 5.85 15.36 0 21.22-2.84 2.83-6.6 4.39-10.61 4.39v-.01Z"/><path fill="url(#D)" fill-opacity=".2" d="M202.86 100.219c-4.01 0-7.78-1.57-10.61-4.39-2.84-2.83-4.4-6.61-4.4-10.6 0-3.99 1.56-7.78 4.4-10.61l.19-.18c2.81-2.72 6.5-4.21 10.42-4.21s7.62 1.5 10.44 4.21l.17.18c5.85 5.85 5.85 15.36 0 21.22-2.84 2.83-6.6 4.39-10.61 4.39v-.01Z"/><defs><radialGradient id="b" cx="0" cy="0" r="1" gradientTransform="rotate(-15.503 -416.68 -447.944) scale(154.037 391.448)" gradientUnits="userSpaceOnUse"><stop offset=".85" stop-color="#BE5AF2"/><stop offset=".99" stop-color="#BE5AF2"/><stop offset="1" stop-color="#BE5AF2" stop-opacity="0"/></radialGradient><radialGradient id="c" cx="0" cy="0" r="1" gradientTransform="rotate(6.061 -1345.276 1610.283) scale(364.5 633.721)" gradientUnits="userSpaceOnUse"><stop stop-color="#011445"/><stop offset=".99" stop-color="#011445"/><stop offset="1" stop-color="#fff" stop-opacity="0"/></radialGradient><radialGradient id="e" cx="0" cy="0" r="1" gradientTransform="rotate(-15.503 -416.68 -447.944) scale(154.037 391.448)" gradientUnits="userSpaceOnUse"><stop offset=".85" stop-color="#BE5AF2"/><stop offset=".99" stop-color="#BE5AF2"/><stop offset="1" stop-color="#BE5AF2" stop-opacity="0"/></radialGradient><radialGradient id="f" cx="0" cy="0" r="1" gradientTransform="rotate(6.061 -1345.276 1610.283) scale(364.5 633.721)" gradientUnits="userSpaceOnUse"><stop stop-color="#011445"/><stop offset=".99" stop-color="#011445"/><stop offset="1" stop-color="#fff" stop-opacity="0"/></radialGradient><radialGradient id="h" cx="0" cy="0" r="1" gradientTransform="rotate(-15.503 -416.68 -447.944) scale(154.037 391.448)" gradientUnits="userSpaceOnUse"><stop offset=".85" stop-color="#BE5AF2"/><stop offset=".99" stop-color="#BE5AF2"/><stop offset="1" stop-color="#BE5AF2" stop-opacity="0"/></radialGradient><radialGradient id="i" cx="0" cy="0" r="1" gradientTransform="rotate(6.061 -1345.276 1610.283) scale(364.5 633.721)" gradientUnits="userSpaceOnUse"><stop stop-color="#011445"/><stop offset=".99" stop-color="#011445"/><stop offset="1" stop-color="#fff" stop-opacity="0"/></radialGradient><radialGradient id="k" cx="0" cy="0" r="1" gradientTransform="rotate(-15.503 -416.68 -447.944) scale(154.037 391.448)" gradientUnits="userSpaceOnUse"><stop offset=".85" stop-color="#BE5AF2"/><stop offset=".99" stop-color="#BE5AF2"/><stop offset="1" stop-color="#BE5AF2" stop-opacity="0"/></radialGradient><radialGradient id="l" cx="0" cy="0" r="1" gradientTransform="rotate(6.061 -1345.276 1610.283) scale(364.5 633.721)" gradientUnits="userSpaceOnUse"><stop stop-color="#011445"/><stop offset=".99" stop-color="#011445"/><stop offset="1" stop-color="#fff" stop-opacity="0"/></radialGradient><radialGradient id="n" cx="0" cy="0" r="1" gradientTransform="rotate(-15.503 -416.68 -447.944) scale(154.037 391.448)" gradientUnits="userSpaceOnUse"><stop offset=".85" stop-color="#BE5AF2"/><stop offset=".99" stop-color="#BE5AF2"/><stop offset="1" stop-color="#BE5AF2" stop-opacity="0"/></radialGradient><radialGradient id="o" cx="0" cy="0" r="1" gradientTransform="rotate(6.061 -1345.276 1610.283) scale(364.5 633.721)" gradientUnits="userSpaceOnUse"><stop stop-color="#011445"/><stop offset=".99" stop-color="#011445"/><stop offset="1" stop-color="#fff" stop-opacity="0"/></radialGradient><radialGradient id="q" cx="0" cy="0" r="1" gradientTransform="rotate(-29.72 -210.928 73.037) scale(73.641 312.834)" gradientUnits="userSpaceOnUse"><stop offset=".85" stop-color="#BE5AF2"/><stop offset=".99" stop-color="#BE5AF2"/><stop offset="1" stop-color="#BE5AF2" stop-opacity="0"/></radialGradient><radialGradient id="r" cx="0" cy="0" r="1" gradientTransform="matrix(156.17266 34.1274 -117.86053 539.34952 -38.992 152.183)" gradientUnits="userSpaceOnUse"><stop stop-color="#011445"/><stop offset=".99" stop-color="#011445"/><stop offset="1" stop-color="#fff" stop-opacity="0"/></radialGradient><radialGradient id="t" cx="0" cy="0" r="1" gradientTransform="rotate(-29.72 -210.928 73.037) scale(73.641 312.834)" gradientUnits="userSpaceOnUse"><stop offset=".85" stop-color="#BE5AF2"/><stop offset=".99" stop-color="#BE5AF2"/><stop offset="1" stop-color="#BE5AF2" stop-opacity="0"/></radialGradient><radialGradient id="u" cx="0" cy="0" r="1" gradientTransform="matrix(156.17266 34.1274 -117.86053 539.34952 -38.992 152.183)" gradientUnits="userSpaceOnUse"><stop stop-color="#011445"/><stop offset=".99" stop-color="#011445"/><stop offset="1" stop-color="#fff" stop-opacity="0"/></radialGradient><radialGradient id="w" cx="0" cy="0" r="1" gradientTransform="rotate(-29.72 -210.928 73.037) scale(73.641 312.834)" gradientUnits="userSpaceOnUse"><stop offset=".85" stop-color="#BE5AF2"/><stop offset=".99" stop-color="#BE5AF2"/><stop offset="1" stop-color="#BE5AF2" stop-opacity="0"/></radialGradient><radialGradient id="x" cx="0" cy="0" r="1" gradientTransform="matrix(156.17266 34.1274 -117.86053 539.34952 -38.992 152.183)" gradientUnits="userSpaceOnUse"><stop stop-color="#011445"/><stop offset=".99" stop-color="#011445"/><stop offset="1" stop-color="#fff" stop-opacity="0"/></radialGradient><radialGradient id="z" cx="0" cy="0" r="1" gradientTransform="rotate(-29.72 -210.928 73.037) scale(73.641 312.834)" gradientUnits="userSpaceOnUse"><stop offset=".85" stop-color="#BE5AF2"/><stop offset=".99" stop-color="#BE5AF2"/><stop offset="1" stop-color="#BE5AF2" stop-opacity="0"/></radialGradient><radialGradient id="A" cx="0" cy="0" r="1" gradientTransform="matrix(156.17266 34.1274 -117.86053 539.34952 -38.992 152.183)" gradientUnits="userSpaceOnUse"><stop stop-color="#011445"/><stop offset=".99" stop-color="#011445"/><stop offset="1" stop-color="#fff" stop-opacity="0"/></radialGradient><radialGradient id="C" cx="0" cy="0" r="1" gradientTransform="rotate(-29.72 -210.928 73.037) scale(73.641 312.834)" gradientUnits="userSpaceOnUse"><stop offset=".85" stop-color="#BE5AF2"/><stop offset=".99" stop-color="#BE5AF2"/><stop offset="1" stop-color="#BE5AF2" stop-opacity="0"/></radialGradient><radialGradient id="D" cx="0" cy="0" r="1" gradientTransform="matrix(156.17266 34.1274 -117.86053 539.34952 -38.992 152.183)" gradientUnits="userSpaceOnUse"><stop stop-color="#011445"/><stop offset=".99" stop-color="#011445"/><stop offset="1" stop-color="#fff" stop-opacity="0"/></radialGradient><linearGradient id="a" x1="253" x2="377.007" y1=".5" y2="332.2" gradientUnits="userSpaceOnUse"><stop offset=".215" stop-color="#011445"/><stop offset=".9" stop-color="#BE5AF2"/></linearGradient><linearGradient id="d" x1="253" x2="377.007" y1=".5" y2="332.2" gradientUnits="userSpaceOnUse"><stop offset=".215" stop-color="#011445"/><stop offset=".9" stop-color="#BE5AF2"/></linearGradient><linearGradient id="g" x1="253" x2="377.007" y1=".5" y2="332.2" gradientUnits="userSpaceOnUse"><stop offset=".215" stop-color="#011445"/><stop offset=".9" stop-color="#BE5AF2"/></linearGradient><linearGradient id="j" x1="253" x2="377.007" y1=".5" y2="332.2" gradientUnits="userSpaceOnUse"><stop offset=".215" stop-color="#011445"/><stop offset=".9" stop-color="#BE5AF2"/></linearGradient><linearGradient id="m" x1="253" x2="377.007" y1=".5" y2="332.2" gradientUnits="userSpaceOnUse"><stop offset=".215" stop-color="#011445"/><stop offset=".9" stop-color="#BE5AF2"/></linearGradient><linearGradient id="p" x1="0" x2="162.022" y1="18.689" y2="229.27" gradientUnits="userSpaceOnUse"><stop offset=".215" stop-color="#011445"/><stop offset=".9" stop-color="#BE5AF2"/></linearGradient><linearGradient id="s" x1="0" x2="162.022" y1="18.689" y2="229.27" gradientUnits="userSpaceOnUse"><stop offset=".215" stop-color="#011445"/><stop offset=".9" stop-color="#BE5AF2"/></linearGradient><linearGradient id="v" x1="0" x2="162.022" y1="18.689" y2="229.27" gradientUnits="userSpaceOnUse"><stop offset=".215" stop-color="#011445"/><stop offset=".9" stop-color="#BE5AF2"/></linearGradient><linearGradient id="y" x1="0" x2="162.022" y1="18.689" y2="229.27" gradientUnits="userSpaceOnUse"><stop offset=".215" stop-color="#011445"/><stop offset=".9" stop-color="#BE5AF2"/></linearGradient><linearGradient id="B" x1="0" x2="162.022" y1="18.689" y2="229.27" gradientUnits="userSpaceOnUse"><stop offset=".215" stop-color="#011445"/><stop offset=".9" stop-color="#BE5AF2"/></linearGradient></defs></svg>