<svg width="25" height="26" viewBox="0 0 25 26" fill="none" xmlns="http://www.w3.org/2000/svg">
<path d="M22.25 13C22.25 9.53125 20.375 6.34375 17.375 4.5625C14.3281 2.82812 10.625 2.82812 7.625 4.5625C4.57812 6.34375 2.75 9.53125 2.75 13C2.75 16.5156 4.57812 19.7031 7.625 21.4844C10.625 23.2188 14.3281 23.2188 17.375 21.4844C20.375 19.7031 22.25 16.5156 22.25 13ZM0.5 13C0.5 8.73438 2.75 4.79688 6.5 2.64062C10.2031 0.484375 14.75 0.484375 18.5 2.64062C22.2031 4.79688 24.5 8.73438 24.5 13C24.5 17.3125 22.2031 21.25 18.5 23.4062C14.75 25.5625 10.2031 25.5625 6.5 23.4062C2.75 21.25 0.5 17.3125 0.5 13ZM11.375 6.625C11.375 6.01562 11.8438 5.5 12.5 5.5C13.1094 5.5 13.625 6.01562 13.625 6.625V12.4375L17.6094 15.0625C18.125 15.4375 18.2656 16.1406 17.9375 16.6562C17.5625 17.1719 16.8594 17.3125 16.3438 16.9375L11.8438 13.9375C11.5625 13.75 11.375 13.375 11.375 13V6.625Z" fill="#32C28F"/>
</svg>
