<svg width="16" height="17" viewBox="0 0 16 17" fill="none" xmlns="http://www.w3.org/2000/svg">
<path d="M7.25 1.12158C7.25 0.715332 7.5625 0.371582 8 0.371582C12.4062 0.371582 16 3.96533 16 8.37158C16 12.8091 12.4062 16.3716 8 16.3716C3.5625 16.3716 0 12.8091 0 8.37158C0 7.21533 0.25 6.09033 0.71875 5.05908C0.90625 4.65283 1.125 4.27783 1.375 3.90283C1.65625 3.46533 1.96875 3.09033 2.34375 2.71533C2.625 2.43408 3.09375 2.43408 3.375 2.71533C3.6875 3.02783 3.6875 3.49658 3.375 3.77783C3.09375 4.09033 2.84375 4.40283 2.59375 4.71533C2.59375 4.74658 2.59375 4.74658 2.59375 4.74658C1.9375 5.71533 1.53125 6.87158 1.5 8.12158C1.5 8.21533 1.46875 8.30908 1.46875 8.37158C1.46875 11.9653 4.40625 14.8716 7.96875 14.8716C11.5625 14.8716 14.4688 11.9653 14.4688 8.37158C14.4688 5.05908 11.9688 2.30908 8.71875 1.93408V3.62158C8.71875 4.05908 8.40625 4.37158 7.96875 4.37158C7.5625 4.37158 7.21875 4.05908 7.21875 3.62158V1.12158H7.25ZM4.96875 5.34033C5.25 5.05908 5.71875 5.05908 6 5.34033L8.5 7.84033C8.8125 8.15283 8.8125 8.62158 8.5 8.90283C8.21875 9.21533 7.75 9.21533 7.46875 8.90283L4.96875 6.40283C4.65625 6.12158 4.65625 5.65283 4.96875 5.34033Z" fill="#011445"/>
</svg>
