<svg width="21" height="21" viewBox="0 0 21 21" fill="none" xmlns="http://www.w3.org/2000/svg">
<path d="M10.5 0.871582C14.0547 0.871582 17.3359 2.78564 19.1328 5.87158C20.9297 8.99658 20.9297 12.7856 19.1328 15.8716C17.3359 18.9966 14.0547 20.8716 10.5 20.8716C6.90625 20.8716 3.625 18.9966 1.82812 15.8716C0.03125 12.7856 0.03125 8.99658 1.82812 5.87158C3.625 2.78564 6.90625 0.871582 10.5 0.871582ZM9.5625 5.55908V10.8716C9.5625 11.1841 9.71875 11.4966 9.95312 11.6528L13.7031 14.1528C14.1328 14.4653 14.7188 14.3481 15.0312 13.9185C15.3047 13.4888 15.1875 12.9028 14.7578 12.5903L11.4375 10.4028V5.55908C11.4375 5.05127 11.0078 4.62158 10.5 4.62158C9.95312 4.62158 9.5625 5.05127 9.5625 5.55908Z" fill="#AA25ED"/>
</svg>
