<svg width="22" height="21" viewBox="0 0 22 21" fill="none" xmlns="http://www.w3.org/2000/svg">
<path d="M11 20.5C7.40625 20.5 4.125 18.625 2.32812 15.5C0.53125 12.4141 0.53125 8.625 2.32812 5.5C4.125 2.41406 7.40625 0.5 11 0.5C14.5547 0.5 17.8359 2.41406 19.6328 5.5C21.4297 8.625 21.4297 12.4141 19.6328 15.5C17.8359 18.625 14.5547 20.5 11 20.5ZM8.1875 9.5625C7.64062 9.5625 7.25 9.99219 7.25 10.5C7.25 11.0469 7.64062 11.4375 8.1875 11.4375H13.8125C14.3203 11.4375 14.75 11.0469 14.75 10.5C14.75 9.99219 14.3203 9.5625 13.8125 9.5625H8.1875Z" fill="#27B8C8"/>
</svg>
