<svg width="22" height="21" viewBox="0 0 22 21" fill="none" xmlns="http://www.w3.org/2000/svg">
<path d="M11 20.8855C7.40625 20.8855 4.125 19.0105 2.32812 15.8855C0.53125 12.7996 0.53125 9.0105 2.32812 5.8855C4.125 2.79956 7.40625 0.885498 11 0.885498C14.5547 0.885498 17.8359 2.79956 19.6328 5.8855C21.4297 9.0105 21.4297 12.7996 19.6328 15.8855C17.8359 19.0105 14.5547 20.8855 11 20.8855ZM8.1875 9.948C7.64062 9.948 7.25 10.3777 7.25 10.8855C7.25 11.4324 7.64062 11.823 8.1875 11.823H13.8125C14.3203 11.823 14.75 11.4324 14.75 10.8855C14.75 10.3777 14.3203 9.948 13.8125 9.948H8.1875Z" fill="#481DBF"/>
</svg>
