<svg width="20" height="15" viewBox="0 0 20 15" fill="none" xmlns="http://www.w3.org/2000/svg">
<path d="M16 1.95789H4C3.71875 1.95789 3.5 2.20789 3.5 2.45789V9.45789H2V2.45789C2 1.36414 2.875 0.457886 4 0.457886H16C17.0938 0.457886 18 1.36414 18 2.45789V9.45789H16.5V2.45789C16.5 2.20789 16.25 1.95789 16 1.95789ZM3 12.9579H17C17.625 12.9579 18.1875 12.5516 18.4062 11.9579H1.5625C1.78125 12.5516 2.34375 12.9579 3 12.9579ZM0 11.4579C0 10.9266 0.4375 10.4579 1 10.4579H19C19.5312 10.4579 20 10.9266 20 11.4579C20 13.1141 18.6562 14.4579 17 14.4579H3C1.34375 14.4579 0 13.1141 0 11.4579Z" fill="#011445"/>
</svg>
