<svg width="439" height="437" viewBox="0 0 439 437" fill="none" xmlns="http://www.w3.org/2000/svg">
<circle cx="219.399" cy="218.404" r="138.203" fill="#DBDEF0" fill-opacity="0.8"/>
<circle cx="219.397" cy="218.396" r="164.34" transform="rotate(64.9996 219.397 218.396)" stroke="#B3B9C7" stroke-width="4" stroke-linecap="round" stroke-dasharray="10 15"/>
<rect x="146.397" y="47.3968" width="151.731" height="46.4675" rx="3.60317" fill="#1F7D71"/>
<rect x="146.397" y="47.3968" width="151.731" height="46.4675" rx="3.60317" stroke="#B3B9C7" stroke-width="0.793664"/>
<path d="M177.585 78.1304V64.4159H183.252C183.385 64.4159 183.557 64.4222 183.766 64.4349C183.976 64.4413 184.169 64.4603 184.347 64.492C185.141 64.6127 185.795 64.8762 186.309 65.2825C186.83 65.6889 187.214 66.2032 187.462 66.8254C187.716 67.4413 187.843 68.127 187.843 68.8826C187.843 69.6318 187.716 70.3175 187.462 70.9398C187.208 71.5557 186.82 72.0668 186.3 72.4731C185.785 72.8795 185.135 73.143 184.347 73.2636C184.169 73.289 183.973 73.3081 183.757 73.3208C183.547 73.3335 183.379 73.3398 183.252 73.3398H179.881V78.1304H177.585ZM179.881 71.1969H183.157C183.284 71.1969 183.427 71.1906 183.585 71.1779C183.744 71.1652 183.89 71.1398 184.023 71.1017C184.404 71.0064 184.703 70.8382 184.919 70.5969C185.141 70.3556 185.296 70.0826 185.385 69.7778C185.481 69.4731 185.528 69.1747 185.528 68.8826C185.528 68.5905 185.481 68.2921 185.385 67.9873C185.296 67.6762 185.141 67.4 184.919 67.1588C184.703 66.9175 184.404 66.7492 184.023 66.654C183.89 66.6159 183.744 66.5937 183.585 66.5873C183.427 66.5746 183.284 66.5683 183.157 66.5683H179.881V71.1969ZM196.865 78.1304V73.1779C196.865 72.8541 196.843 72.4954 196.798 72.1017C196.754 71.708 196.649 71.3303 196.484 70.9683C196.325 70.6001 196.084 70.2985 195.76 70.0636C195.443 69.8286 195.011 69.7112 194.465 69.7112C194.173 69.7112 193.884 69.7588 193.598 69.854C193.313 69.9493 193.052 70.1144 192.817 70.3493C192.589 70.5779 192.405 70.8953 192.265 71.3017C192.125 71.7017 192.055 72.216 192.055 72.8446L190.693 72.2636C190.693 71.3874 190.862 70.5937 191.198 69.8826C191.541 69.1715 192.043 68.6064 192.703 68.1873C193.363 67.7619 194.176 67.5492 195.141 67.5492C195.903 67.5492 196.532 67.6762 197.027 67.9302C197.522 68.1842 197.916 68.508 198.208 68.9016C198.5 69.2953 198.716 69.7144 198.856 70.1588C198.995 70.6033 199.084 71.0255 199.122 71.4255C199.167 71.8192 199.189 72.1398 199.189 72.3874V78.1304H196.865ZM189.732 78.1304V64.4159H191.779V71.635H192.055V78.1304H189.732ZM204.55 78.4161C203.808 78.4161 203.179 78.2764 202.665 77.997C202.15 77.7113 201.76 77.3335 201.493 76.8637C201.233 76.3938 201.103 75.8764 201.103 75.3113C201.103 74.816 201.185 74.3716 201.35 73.9779C201.515 73.5779 201.769 73.2351 202.112 72.9493C202.455 72.6573 202.9 72.4192 203.446 72.235C203.858 72.1017 204.341 71.9811 204.893 71.8731C205.452 71.7652 206.055 71.6668 206.703 71.5779C207.357 71.4826 208.039 71.3811 208.75 71.2731L207.931 71.7398C207.938 71.0287 207.779 70.5048 207.455 70.1683C207.131 69.8318 206.585 69.6636 205.817 69.6636C205.354 69.6636 204.906 69.7715 204.474 69.9874C204.042 70.2033 203.741 70.5747 203.569 71.1017L201.474 70.4445C201.728 69.5747 202.211 68.8762 202.922 68.3493C203.639 67.8223 204.604 67.5588 205.817 67.5588C206.731 67.5588 207.535 67.708 208.227 68.0064C208.925 68.3048 209.443 68.7937 209.779 69.4731C209.963 69.835 210.074 70.2064 210.112 70.5874C210.151 70.962 210.17 71.3715 210.17 71.816V78.1304H208.16V75.9018L208.493 76.2637C208.03 77.0065 207.487 77.5526 206.865 77.9018C206.249 78.2447 205.477 78.4161 204.55 78.4161ZM205.008 76.5875C205.528 76.5875 205.973 76.4954 206.341 76.3113C206.709 76.1272 207.001 75.9018 207.217 75.6351C207.439 75.3684 207.589 75.1176 207.665 74.8827C207.785 74.5906 207.852 74.2573 207.865 73.8827C207.884 73.5017 207.893 73.1938 207.893 72.9589L208.598 73.1684C207.906 73.2763 207.312 73.3716 206.817 73.4541C206.322 73.5366 205.896 73.616 205.541 73.6922C205.185 73.762 204.871 73.8414 204.598 73.9303C204.331 74.0255 204.106 74.1367 203.922 74.2636C203.738 74.3906 203.595 74.5367 203.493 74.7017C203.398 74.8668 203.35 75.0605 203.35 75.2827C203.35 75.5367 203.414 75.7621 203.541 75.9589C203.668 76.1494 203.852 76.3018 204.093 76.4161C204.341 76.5303 204.646 76.5875 205.008 76.5875ZM212.649 78.1304V67.8445H214.678V70.3493L214.43 70.0255C214.557 69.6826 214.725 69.3715 214.935 69.0921C215.151 68.8064 215.408 68.5715 215.706 68.3874C215.96 68.2159 216.24 68.0826 216.544 67.9873C216.855 67.8858 217.173 67.8254 217.497 67.8064C217.821 67.781 218.135 67.7937 218.44 67.8445V69.9874C218.135 69.8985 217.782 69.8699 217.382 69.9017C216.989 69.9334 216.633 70.0445 216.316 70.235C215.998 70.4064 215.738 70.6255 215.535 70.8922C215.338 71.1588 215.192 71.4636 215.097 71.8065C215.001 72.143 214.954 72.5081 214.954 72.9017V78.1304H212.649ZM232.61 78.1304V71.8826C232.61 71.1779 232.435 70.6287 232.086 70.235C231.737 69.835 231.264 69.635 230.667 69.635C230.299 69.635 229.968 69.7207 229.676 69.8921C229.384 70.0572 229.152 70.3048 228.981 70.635C228.81 70.9588 228.724 71.3461 228.724 71.7969L227.705 71.1969C227.698 70.4858 227.857 69.8604 228.181 69.3207C228.511 68.7747 228.956 68.3493 229.514 68.0445C230.073 67.7397 230.695 67.5873 231.381 67.5873C232.518 67.5873 233.387 67.9302 233.991 68.6159C234.6 69.2953 234.905 70.1906 234.905 71.3017V78.1304H232.61ZM220.238 78.1304V67.8445H222.267V71.035H222.552V78.1304H220.238ZM226.438 78.1304V71.9112C226.438 71.1937 226.264 70.635 225.914 70.235C225.565 69.835 225.089 69.635 224.486 69.635C223.902 69.635 223.432 69.835 223.076 70.235C222.727 70.635 222.552 71.1557 222.552 71.7969L221.524 71.1112C221.524 70.4445 221.689 69.8445 222.019 69.3112C222.349 68.7778 222.794 68.3588 223.352 68.054C223.917 67.7429 224.549 67.5873 225.248 67.5873C226.016 67.5873 226.657 67.7524 227.171 68.0826C227.692 68.4064 228.079 68.8508 228.333 69.4159C228.594 69.9747 228.724 70.6064 228.724 71.3112V78.1304H226.438ZM240.265 78.4161C239.522 78.4161 238.894 78.2764 238.38 77.997C237.865 77.7113 237.475 77.3335 237.208 76.8637C236.948 76.3938 236.818 75.8764 236.818 75.3113C236.818 74.816 236.9 74.3716 237.065 73.9779C237.23 73.5779 237.484 73.2351 237.827 72.9493C238.17 72.6573 238.614 72.4192 239.161 72.235C239.573 72.1017 240.056 71.9811 240.608 71.8731C241.167 71.7652 241.77 71.6668 242.418 71.5779C243.072 71.4826 243.754 71.3811 244.465 71.2731L243.646 71.7398C243.653 71.0287 243.494 70.5048 243.17 70.1683C242.846 69.8318 242.3 69.6636 241.532 69.6636C241.068 69.6636 240.621 69.7715 240.189 69.9874C239.757 70.2033 239.456 70.5747 239.284 71.1017L237.189 70.4445C237.443 69.5747 237.926 68.8762 238.637 68.3493C239.354 67.8223 240.319 67.5588 241.532 67.5588C242.446 67.5588 243.249 67.708 243.942 68.0064C244.64 68.3048 245.157 68.7937 245.494 69.4731C245.678 69.835 245.789 70.2064 245.827 70.5874C245.865 70.962 245.884 71.3715 245.884 71.816V78.1304H243.875V75.9018L244.208 76.2637C243.745 77.0065 243.202 77.5526 242.58 77.9018C241.964 78.2447 241.192 78.4161 240.265 78.4161ZM240.722 76.5875C241.243 76.5875 241.688 76.4954 242.056 76.3113C242.424 76.1272 242.716 75.9018 242.932 75.6351C243.154 75.3684 243.303 75.1176 243.38 74.8827C243.5 74.5906 243.567 74.2573 243.58 73.8827C243.599 73.5017 243.608 73.1938 243.608 72.9589L244.313 73.1684C243.621 73.2763 243.027 73.3716 242.532 73.4541C242.037 73.5366 241.611 73.616 241.256 73.6922C240.9 73.762 240.586 73.8414 240.313 73.9303C240.046 74.0255 239.821 74.1367 239.637 74.2636C239.453 74.3906 239.31 74.5367 239.208 74.7017C239.113 74.8668 239.065 75.0605 239.065 75.2827C239.065 75.5367 239.129 75.7621 239.256 75.9589C239.383 76.1494 239.567 76.3018 239.808 76.4161C240.056 76.5303 240.361 76.5875 240.722 76.5875ZM252.831 78.4161C251.77 78.4161 250.866 78.1812 250.116 77.7113C249.367 77.2351 248.793 76.5875 248.393 75.7684C247.999 74.9494 247.799 74.0224 247.793 72.9874C247.799 71.9334 248.005 71.0001 248.412 70.1874C248.824 69.3683 249.408 68.727 250.164 68.2635C250.92 67.7937 251.818 67.5588 252.859 67.5588C254.028 67.5588 255.015 67.854 255.821 68.4445C256.634 69.0286 257.164 69.8286 257.412 70.8445L255.126 71.4636C254.948 70.9112 254.653 70.4826 254.24 70.1779C253.828 69.8667 253.358 69.7112 252.831 69.7112C252.234 69.7112 251.742 69.854 251.354 70.1398C250.967 70.4191 250.681 70.8064 250.497 71.3017C250.313 71.7969 250.221 72.3588 250.221 72.9874C250.221 73.9652 250.44 74.7557 250.878 75.3589C251.316 75.9621 251.967 76.2637 252.831 76.2637C253.44 76.2637 253.92 76.124 254.269 75.8446C254.624 75.5652 254.891 75.1621 255.069 74.6351L257.412 75.1589C257.094 76.2065 256.539 77.0129 255.745 77.578C254.951 78.1367 253.98 78.4161 252.831 78.4161ZM260.301 82.7019L262.282 77.2637L262.32 78.8637L257.834 67.8445H260.224L263.405 75.997H262.796L265.891 67.8445H268.186L262.453 82.7019H260.301Z" fill="white"/>
<rect x="286.593" y="297.397" width="151.731" height="46.4675" rx="3.60317" fill="#132FB8"/>
<rect x="286.593" y="297.397" width="151.731" height="46.4675" rx="3.60317" stroke="#B3B9C7" stroke-width="0.793664"/>
<path d="M300.482 328.13V314.416H302.549L307.292 324.13L312.035 314.416H314.101V328.13H311.959V319.34L307.749 328.13H306.835L302.635 319.34V328.13H300.482ZM319.653 328.416C318.91 328.416 318.282 328.276 317.768 327.997C317.253 327.711 316.863 327.334 316.596 326.864C316.336 326.394 316.206 325.876 316.206 325.311C316.206 324.816 316.288 324.372 316.453 323.978C316.618 323.578 316.872 323.235 317.215 322.949C317.558 322.657 318.002 322.419 318.548 322.235C318.961 322.102 319.444 321.981 319.996 321.873C320.555 321.765 321.158 321.667 321.806 321.578C322.46 321.483 323.142 321.381 323.853 321.273L323.034 321.74C323.041 321.029 322.882 320.505 322.558 320.168C322.234 319.832 321.688 319.664 320.92 319.664C320.456 319.664 320.009 319.771 319.577 319.987C319.145 320.203 318.844 320.575 318.672 321.102L316.577 320.445C316.831 319.575 317.314 318.876 318.025 318.349C318.742 317.822 319.707 317.559 320.92 317.559C321.834 317.559 322.637 317.708 323.33 318.006C324.028 318.305 324.545 318.794 324.882 319.473C325.066 319.835 325.177 320.206 325.215 320.587C325.253 320.962 325.272 321.372 325.272 321.816V328.13H323.263V325.902L323.596 326.264C323.133 327.007 322.59 327.553 321.968 327.902C321.352 328.245 320.58 328.416 319.653 328.416ZM320.11 326.587C320.631 326.587 321.076 326.495 321.444 326.311C321.812 326.127 322.104 325.902 322.32 325.635C322.542 325.368 322.691 325.118 322.768 324.883C322.888 324.591 322.955 324.257 322.968 323.883C322.987 323.502 322.996 323.194 322.996 322.959L323.701 323.168C323.009 323.276 322.415 323.372 321.92 323.454C321.425 323.537 320.999 323.616 320.644 323.692C320.288 323.762 319.974 323.841 319.701 323.93C319.434 324.026 319.209 324.137 319.025 324.264C318.841 324.391 318.698 324.537 318.596 324.702C318.501 324.867 318.453 325.06 318.453 325.283C318.453 325.537 318.517 325.762 318.644 325.959C318.771 326.149 318.955 326.302 319.196 326.416C319.444 326.53 319.749 326.587 320.11 326.587ZM334.866 328.13V323.178C334.866 322.854 334.844 322.495 334.8 322.102C334.755 321.708 334.65 321.33 334.485 320.968C334.327 320.6 334.085 320.298 333.762 320.064C333.444 319.829 333.012 319.711 332.466 319.711C332.174 319.711 331.885 319.759 331.6 319.854C331.314 319.949 331.054 320.114 330.819 320.349C330.59 320.578 330.406 320.895 330.266 321.302C330.127 321.702 330.057 322.216 330.057 322.845L328.695 322.264C328.695 321.387 328.863 320.594 329.2 319.883C329.542 319.171 330.044 318.606 330.704 318.187C331.365 317.762 332.177 317.549 333.142 317.549C333.904 317.549 334.533 317.676 335.028 317.93C335.523 318.184 335.917 318.508 336.209 318.902C336.501 319.295 336.717 319.714 336.857 320.159C336.997 320.603 337.085 321.025 337.124 321.425C337.168 321.819 337.19 322.14 337.19 322.387V328.13H334.866ZM327.733 328.13V317.844H329.781V321.035H330.057V328.13H327.733ZM343.533 328.426C342.771 328.426 342.142 328.299 341.647 328.045C341.152 327.791 340.758 327.467 340.466 327.073C340.174 326.68 339.958 326.26 339.818 325.816C339.679 325.372 339.587 324.953 339.542 324.559C339.504 324.159 339.485 323.835 339.485 323.587V317.844H341.809V322.797C341.809 323.114 341.831 323.473 341.876 323.873C341.92 324.267 342.022 324.648 342.18 325.016C342.345 325.378 342.587 325.676 342.904 325.911C343.228 326.146 343.663 326.264 344.209 326.264C344.501 326.264 344.79 326.216 345.076 326.121C345.361 326.026 345.618 325.864 345.847 325.635C346.082 325.4 346.269 325.08 346.409 324.673C346.549 324.267 346.618 323.753 346.618 323.13L347.98 323.711C347.98 324.587 347.809 325.381 347.466 326.092C347.13 326.803 346.631 327.372 345.971 327.797C345.311 328.216 344.498 328.426 343.533 328.426ZM346.895 328.13V324.94H346.618V317.844H348.923V328.13H346.895ZM352.494 328.13V317.683C352.494 317.422 352.504 317.137 352.523 316.825C352.542 316.508 352.596 316.194 352.685 315.883C352.774 315.571 352.936 315.289 353.171 315.035C353.463 314.711 353.777 314.489 354.113 314.368C354.456 314.241 354.793 314.171 355.123 314.159C355.453 314.14 355.742 314.13 355.99 314.13H357.275V315.997H356.085C355.647 315.997 355.32 316.108 355.104 316.33C354.894 316.546 354.79 316.832 354.79 317.187V328.13H352.494ZM350.837 319.645V317.844H357.275V319.645H350.837ZM361.395 328.416C360.652 328.416 360.024 328.276 359.509 327.997C358.995 327.711 358.605 327.334 358.338 326.864C358.078 326.394 357.947 325.876 357.947 325.311C357.947 324.816 358.03 324.372 358.195 323.978C358.36 323.578 358.614 323.235 358.957 322.949C359.3 322.657 359.744 322.419 360.29 322.235C360.703 322.102 361.186 321.981 361.738 321.873C362.297 321.765 362.9 321.667 363.547 321.578C364.201 321.483 364.884 321.381 365.595 321.273L364.776 321.74C364.782 321.029 364.624 320.505 364.3 320.168C363.976 319.832 363.43 319.664 362.662 319.664C362.198 319.664 361.751 319.771 361.319 319.987C360.887 320.203 360.586 320.575 360.414 321.102L358.319 320.445C358.573 319.575 359.055 318.876 359.766 318.349C360.484 317.822 361.449 317.559 362.662 317.559C363.576 317.559 364.379 317.708 365.071 318.006C365.77 318.305 366.287 318.794 366.624 319.473C366.808 319.835 366.919 320.206 366.957 320.587C366.995 320.962 367.014 321.372 367.014 321.816V328.13H365.005V325.902L365.338 326.264C364.874 327.007 364.332 327.553 363.709 327.902C363.093 328.245 362.322 328.416 361.395 328.416ZM361.852 326.587C362.373 326.587 362.817 326.495 363.186 326.311C363.554 326.127 363.846 325.902 364.062 325.635C364.284 325.368 364.433 325.118 364.509 324.883C364.63 324.591 364.697 324.257 364.709 323.883C364.728 323.502 364.738 323.194 364.738 322.959L365.443 323.168C364.751 323.276 364.157 323.372 363.662 323.454C363.167 323.537 362.741 323.616 362.386 323.692C362.03 323.762 361.716 323.841 361.443 323.93C361.176 324.026 360.951 324.137 360.766 324.264C360.582 324.391 360.439 324.537 360.338 324.702C360.243 324.867 360.195 325.06 360.195 325.283C360.195 325.537 360.259 325.762 360.386 325.959C360.512 326.149 360.697 326.302 360.938 326.416C361.186 326.53 361.49 326.587 361.852 326.587ZM373.96 328.416C372.9 328.416 371.995 328.181 371.246 327.711C370.497 327.235 369.922 326.587 369.522 325.768C369.129 324.949 368.929 324.022 368.922 322.987C368.929 321.933 369.135 321 369.541 320.187C369.954 319.368 370.538 318.727 371.294 318.264C372.049 317.794 372.948 317.559 373.989 317.559C375.157 317.559 376.145 317.854 376.951 318.444C377.764 319.029 378.294 319.829 378.541 320.845L376.256 321.464C376.078 320.911 375.783 320.483 375.37 320.178C374.957 319.867 374.487 319.711 373.96 319.711C373.364 319.711 372.872 319.854 372.484 320.14C372.097 320.419 371.811 320.806 371.627 321.302C371.443 321.797 371.351 322.359 371.351 322.987C371.351 323.965 371.57 324.756 372.008 325.359C372.446 325.962 373.097 326.264 373.96 326.264C374.57 326.264 375.049 326.124 375.399 325.845C375.754 325.565 376.021 325.162 376.199 324.635L378.541 325.159C378.224 326.207 377.668 327.013 376.875 327.578C376.081 328.137 375.11 328.416 373.96 328.416ZM386.479 328.13C385.799 328.257 385.133 328.311 384.479 328.292C383.831 328.28 383.25 328.162 382.736 327.94C382.221 327.711 381.831 327.353 381.564 326.864C381.329 326.419 381.206 325.965 381.193 325.502C381.18 325.038 381.174 324.514 381.174 323.93V314.987H383.46V323.797C383.46 324.21 383.463 324.572 383.469 324.883C383.482 325.194 383.548 325.448 383.669 325.645C383.898 326.026 384.263 326.238 384.764 326.283C385.266 326.327 385.837 326.302 386.479 326.207V328.13ZM379.307 319.645V317.844H386.479V319.645H379.307ZM392.548 328.426C391.786 328.426 391.157 328.299 390.662 328.045C390.167 327.791 389.773 327.467 389.481 327.073C389.189 326.68 388.973 326.26 388.833 325.816C388.694 325.372 388.602 324.953 388.557 324.559C388.519 324.159 388.5 323.835 388.5 323.587V317.844H390.824V322.797C390.824 323.114 390.846 323.473 390.89 323.873C390.935 324.267 391.037 324.648 391.195 325.016C391.36 325.378 391.602 325.676 391.919 325.911C392.243 326.146 392.678 326.264 393.224 326.264C393.516 326.264 393.805 326.216 394.091 326.121C394.376 326.026 394.633 325.864 394.862 325.635C395.097 325.4 395.284 325.08 395.424 324.673C395.564 324.267 395.633 323.753 395.633 323.13L396.995 323.711C396.995 324.587 396.824 325.381 396.481 326.092C396.145 326.803 395.646 327.372 394.986 327.797C394.325 328.216 393.513 328.426 392.548 328.426ZM395.91 328.13V324.94H395.633V317.844H397.938V328.13H395.91ZM400.614 328.13V317.844H402.643V320.349L402.395 320.025C402.522 319.683 402.69 319.371 402.9 319.092C403.116 318.806 403.373 318.571 403.671 318.387C403.925 318.216 404.205 318.083 404.509 317.987C404.82 317.886 405.138 317.825 405.462 317.806C405.786 317.781 406.1 317.794 406.405 317.844V319.987C406.1 319.898 405.747 319.87 405.347 319.902C404.954 319.933 404.598 320.045 404.281 320.235C403.963 320.406 403.703 320.625 403.5 320.892C403.303 321.159 403.157 321.464 403.062 321.806C402.966 322.143 402.919 322.508 402.919 322.902V328.13H400.614ZM412.712 328.416C411.671 328.416 410.757 328.191 409.969 327.74C409.182 327.289 408.566 326.664 408.122 325.864C407.684 325.064 407.465 324.143 407.465 323.102C407.465 321.978 407.68 321.003 408.112 320.178C408.544 319.346 409.144 318.702 409.912 318.244C410.681 317.787 411.569 317.559 412.579 317.559C413.646 317.559 414.55 317.81 415.293 318.311C416.043 318.806 416.598 319.508 416.96 320.416C417.322 321.324 417.458 322.394 417.37 323.626H415.093V322.787C415.087 321.67 414.89 320.854 414.503 320.34C414.115 319.825 413.506 319.568 412.674 319.568C411.734 319.568 411.036 319.86 410.579 320.445C410.122 321.022 409.893 321.87 409.893 322.987C409.893 324.029 410.122 324.835 410.579 325.407C411.036 325.978 411.703 326.264 412.579 326.264C413.144 326.264 413.63 326.14 414.036 325.892C414.449 325.638 414.766 325.273 414.989 324.797L417.255 325.483C416.862 326.41 416.252 327.13 415.427 327.645C414.608 328.159 413.703 328.416 412.712 328.416ZM409.169 323.626V321.892H416.246V323.626H409.169ZM419.495 328.13V317.844H421.523V320.349L421.276 320.025C421.403 319.683 421.571 319.371 421.78 319.092C421.996 318.806 422.253 318.571 422.552 318.387C422.806 318.216 423.085 318.083 423.39 317.987C423.701 317.886 424.018 317.825 424.342 317.806C424.666 317.781 424.98 317.794 425.285 317.844V319.987C424.98 319.898 424.628 319.87 424.228 319.902C423.834 319.933 423.479 320.045 423.161 320.235C422.844 320.406 422.583 320.625 422.38 320.892C422.183 321.159 422.037 321.464 421.942 321.806C421.847 322.143 421.799 322.508 421.799 322.902V328.13H419.495Z" fill="white"/>
<rect x="0.676129" y="297.397" width="151.731" height="46.4675" rx="3.60317" fill="#6337E1"/>
<rect x="0.676129" y="297.397" width="151.731" height="46.4675" rx="3.60317" stroke="#B3B9C7" stroke-width="0.793664"/>
<path d="M32.1929 328.13V316.568H27.7547V314.416H38.9263V316.568H34.4882V328.13H32.1929ZM43.6001 328.416C42.5588 328.416 41.6445 328.191 40.8572 327.74C40.0699 327.289 39.454 326.664 39.0095 325.864C38.5714 325.064 38.3524 324.143 38.3524 323.102C38.3524 321.978 38.5682 321.003 39 320.178C39.4317 319.346 40.0318 318.702 40.8 318.244C41.5683 317.787 42.4572 317.559 43.4667 317.559C44.5334 317.559 45.4382 317.81 46.1811 318.311C46.9303 318.806 47.4859 319.508 47.8478 320.416C48.2097 321.324 48.3462 322.394 48.2573 323.626H45.9811V322.787C45.9747 321.67 45.7779 320.854 45.3906 320.34C45.0033 319.825 44.3937 319.568 43.562 319.568C42.6223 319.568 41.9239 319.86 41.4667 320.445C41.0096 321.022 40.781 321.87 40.781 322.987C40.781 324.029 41.0096 324.835 41.4667 325.407C41.9239 325.978 42.5905 326.264 43.4667 326.264C44.0318 326.264 44.5175 326.14 44.9239 325.892C45.3366 325.638 45.6541 325.273 45.8763 324.797L48.143 325.483C47.7493 326.41 47.1398 327.13 46.3144 327.645C45.4953 328.159 44.5906 328.416 43.6001 328.416ZM40.0572 323.626V321.892H47.1335V323.626H40.0572ZM50.5728 328.13V314.13H52.8681V328.13H50.5728ZM60.3972 328.416C59.3559 328.416 58.4416 328.191 57.6543 327.74C56.867 327.289 56.2511 326.664 55.8067 325.864C55.3686 325.064 55.1495 324.143 55.1495 323.102C55.1495 321.978 55.3654 321.003 55.7972 320.178C56.2289 319.346 56.8289 318.702 57.5972 318.244C58.3654 317.787 59.2544 317.559 60.2639 317.559C61.3306 317.559 62.2354 317.81 62.9782 318.311C63.7274 318.806 64.283 319.508 64.6449 320.416C65.0068 321.324 65.1433 322.394 65.0544 323.626H62.7782V322.787C62.7719 321.67 62.575 320.854 62.1877 320.34C61.8004 319.825 61.1909 319.568 60.3591 319.568C59.4194 319.568 58.721 319.86 58.2639 320.445C57.8067 321.022 57.5781 321.87 57.5781 322.987C57.5781 324.029 57.8067 324.835 58.2639 325.407C58.721 325.978 59.3877 326.264 60.2639 326.264C60.829 326.264 61.3147 326.14 61.7211 325.892C62.1338 325.638 62.4512 325.273 62.6735 324.797L64.9402 325.483C64.5465 326.41 63.937 327.13 63.1116 327.645C62.2925 328.159 61.3877 328.416 60.3972 328.416ZM56.8543 323.626V321.892H63.9306V323.626H56.8543ZM74.2939 328.13V323.178C74.2939 322.854 74.2717 322.495 74.2272 322.102C74.1828 321.708 74.078 321.33 73.9129 320.968C73.7542 320.6 73.5129 320.298 73.1891 320.064C72.8716 319.829 72.4399 319.711 71.8938 319.711C71.6018 319.711 71.3129 319.759 71.0272 319.854C70.7414 319.949 70.4811 320.114 70.2462 320.349C70.0176 320.578 69.8335 320.895 69.6938 321.302C69.5541 321.702 69.4843 322.216 69.4843 322.845L68.1224 322.264C68.1224 321.387 68.2906 320.594 68.6271 319.883C68.97 319.171 69.4716 318.606 70.1319 318.187C70.7922 317.762 71.605 317.549 72.57 317.549C73.332 317.549 73.9605 317.676 74.4558 317.93C74.951 318.184 75.3447 318.508 75.6368 318.902C75.9288 319.295 76.1447 319.714 76.2844 320.159C76.4241 320.603 76.513 321.025 76.5511 321.425C76.5955 321.819 76.6177 322.14 76.6177 322.387V328.13H74.2939ZM67.1604 328.13V314.416H69.2081V321.635H69.4843V328.13H67.1604ZM83.7793 328.416C82.738 328.416 81.8237 328.191 81.0364 327.74C80.2491 327.289 79.6332 326.664 79.1888 325.864C78.7507 325.064 78.5316 324.143 78.5316 323.102C78.5316 321.978 78.7475 321.003 79.1792 320.178C79.611 319.346 80.211 318.702 80.9793 318.244C81.7475 317.787 82.6364 317.559 83.646 317.559C84.7127 317.559 85.6174 317.81 86.3603 318.311C87.1095 318.806 87.6651 319.508 88.027 320.416C88.3889 321.324 88.5254 322.394 88.4365 323.626H86.1603V322.787C86.154 321.67 85.9571 320.854 85.5698 320.34C85.1825 319.825 84.573 319.568 83.7412 319.568C82.8015 319.568 82.1031 319.86 81.6459 320.445C81.1888 321.022 80.9602 321.87 80.9602 322.987C80.9602 324.029 81.1888 324.835 81.6459 325.407C82.1031 325.978 82.7698 326.264 83.646 326.264C84.2111 326.264 84.6968 326.14 85.1031 325.892C85.5159 325.638 85.8333 325.273 86.0555 324.797L88.3223 325.483C87.9286 326.41 87.3191 327.13 86.4936 327.645C85.6746 328.159 84.7698 328.416 83.7793 328.416ZM80.2364 323.626V321.892H87.3127V323.626H80.2364ZM93.2518 328.416C92.5089 328.416 91.8803 328.276 91.3661 327.997C90.8518 327.711 90.4613 327.334 90.1946 326.864C89.9343 326.394 89.8041 325.876 89.8041 325.311C89.8041 324.816 89.8867 324.372 90.0517 323.978C90.2168 323.578 90.4708 323.235 90.8137 322.949C91.1565 322.657 91.601 322.419 92.147 322.235C92.5597 322.102 93.0423 321.981 93.5947 321.873C94.1534 321.765 94.7566 321.667 95.4042 321.578C96.0582 321.483 96.7407 321.381 97.4519 321.273L96.6328 321.74C96.6392 321.029 96.4804 320.505 96.1566 320.168C95.8328 319.832 95.2868 319.664 94.5185 319.664C94.055 319.664 93.6074 319.771 93.1756 319.987C92.7439 320.203 92.4423 320.575 92.2708 321.102L90.1756 320.445C90.4295 319.575 90.9121 318.876 91.6232 318.349C92.3407 317.822 93.3058 317.559 94.5185 317.559C95.4328 317.559 96.236 317.708 96.928 318.006C97.6265 318.305 98.1439 318.794 98.4805 319.473C98.6646 319.835 98.7757 320.206 98.8138 320.587C98.8519 320.962 98.8709 321.372 98.8709 321.816V328.13H96.8614V325.902L97.1947 326.264C96.7312 327.007 96.1884 327.553 95.5661 327.902C94.9502 328.245 94.1788 328.416 93.2518 328.416ZM93.7089 326.587C94.2296 326.587 94.674 326.495 95.0423 326.311C95.4106 326.127 95.7026 325.902 95.9185 325.635C96.1407 325.368 96.2899 325.118 96.3661 324.883C96.4868 324.591 96.5534 324.257 96.5661 323.883C96.5852 323.502 96.5947 323.194 96.5947 322.959L97.2995 323.168C96.6074 323.276 96.0137 323.372 95.5185 323.454C95.0233 323.537 94.5979 323.616 94.2423 323.692C93.8867 323.762 93.5724 323.841 93.2994 323.93C93.0327 324.026 92.8073 324.137 92.6232 324.264C92.4391 324.391 92.2962 324.537 92.1946 324.702C92.0994 324.867 92.0518 325.06 92.0518 325.283C92.0518 325.537 92.1153 325.762 92.2423 325.959C92.3692 326.149 92.5534 326.302 92.7946 326.416C93.0423 326.53 93.347 326.587 93.7089 326.587ZM101.541 328.13V314.13H103.836V328.13H101.541ZM112.718 328.13C112.038 328.257 111.372 328.311 110.718 328.292C110.07 328.28 109.489 328.162 108.975 327.94C108.461 327.711 108.07 327.353 107.803 326.864C107.568 326.419 107.445 325.965 107.432 325.502C107.419 325.038 107.413 324.514 107.413 323.93V314.987H109.699V323.797C109.699 324.21 109.702 324.572 109.708 324.883C109.721 325.194 109.788 325.448 109.908 325.645C110.137 326.026 110.502 326.238 111.003 326.283C111.505 326.327 112.076 326.302 112.718 326.207V328.13ZM105.546 319.645V317.844H112.718V319.645H105.546ZM122.044 328.13V323.178C122.044 322.854 122.022 322.495 121.977 322.102C121.933 321.708 121.828 321.33 121.663 320.968C121.504 320.6 121.263 320.298 120.939 320.064C120.622 319.829 120.19 319.711 119.644 319.711C119.352 319.711 119.063 319.759 118.777 319.854C118.492 319.949 118.231 320.114 117.996 320.349C117.768 320.578 117.584 320.895 117.444 321.302C117.304 321.702 117.234 322.216 117.234 322.845L115.872 322.264C115.872 321.387 116.041 320.594 116.377 319.883C116.72 319.171 117.222 318.606 117.882 318.187C118.542 317.762 119.355 317.549 120.32 317.549C121.082 317.549 121.711 317.676 122.206 317.93C122.701 318.184 123.095 318.508 123.387 318.902C123.679 319.295 123.895 319.714 124.034 320.159C124.174 320.603 124.263 321.025 124.301 321.425C124.346 321.819 124.368 322.14 124.368 322.387V328.13H122.044ZM114.91 328.13V314.416H116.958V321.635H117.234V328.13H114.91Z" fill="white"/>
<path d="M225.847 380.496C225.065 381.277 225.065 382.543 225.847 383.324L238.574 396.052C239.355 396.833 240.622 396.833 241.403 396.052C242.184 395.271 242.184 394.005 241.403 393.224L230.089 381.91L241.403 370.596C242.184 369.815 242.184 368.549 241.403 367.768C240.622 366.987 239.355 366.987 238.574 367.768L225.847 380.496ZM228.167 383.91C229.271 383.91 230.167 383.015 230.167 381.91C230.167 380.806 229.271 379.91 228.167 379.91V381.91V383.91ZM229.978 379.91C228.874 379.91 227.978 380.806 227.978 381.91C227.978 383.015 228.874 383.91 229.978 383.91V381.91V379.91ZM227.261 381.91V383.91H228.167V381.91V379.91H227.261V381.91ZM229.978 381.91V383.91H230.884V381.91V379.91H229.978V381.91Z" fill="#B3B9C7"/>
<path d="M379.872 183.658C380.829 184.211 382.052 183.883 382.604 182.926L391.604 167.338C392.156 166.381 391.829 165.158 390.872 164.606C389.915 164.053 388.692 164.381 388.14 165.338L380.14 179.194L366.284 171.194C365.327 170.642 364.104 170.97 363.552 171.926C362.999 172.883 363.327 174.106 364.284 174.658L379.872 183.658ZM382.572 180.544C382.286 179.477 381.19 178.844 380.123 179.13C379.056 179.416 378.423 180.512 378.709 181.579L380.64 181.062L382.572 180.544ZM378.245 179.85C378.531 180.917 379.628 181.55 380.695 181.264C381.762 180.978 382.395 179.882 382.109 178.815L380.177 179.332L378.245 179.85ZM380.872 181.926L382.804 181.409L382.572 180.544L380.64 181.062L378.709 181.579L378.94 182.444L380.872 181.926ZM380.177 179.332L382.109 178.815L381.877 177.95L379.945 178.468L378.014 178.986L378.245 179.85L380.177 179.332Z" fill="#B3B9C7"/>
<path d="M70.6916 153.453C70.4057 152.386 69.3091 151.753 68.2421 152.039L50.8555 156.698C49.7885 156.983 49.1554 158.08 49.4412 159.147C49.7271 160.214 50.8238 160.847 51.8907 160.561L67.3456 156.42L71.4867 171.875C71.7725 172.942 72.8692 173.575 73.9361 173.289C75.0031 173.003 75.6362 171.907 75.3504 170.84L70.6916 153.453ZM66.5748 153.755C66.0225 154.712 66.3503 155.935 67.3069 156.487C68.2634 157.039 69.4866 156.712 70.0389 155.755L68.3069 154.755L66.5748 153.755ZM69.1331 157.324C69.6854 156.367 69.3576 155.144 68.401 154.592C67.4445 154.04 66.2213 154.367 65.669 155.324L67.401 156.324L69.1331 157.324ZM68.7598 153.971L67.0277 152.971L66.5748 153.755L68.3069 154.755L70.0389 155.755L70.4918 154.971L68.7598 153.971ZM67.401 156.324L65.669 155.324L65.2161 156.109L66.9481 157.109L68.6802 158.109L69.1331 157.324L67.401 156.324Z" fill="#B3B9C7"/>
<path d="M191.486 137.661H217.242C220.231 137.661 222.761 140.191 222.761 143.18V168.936V179.974C218.277 182.504 215.402 187.103 215.402 192.507C215.402 194.002 215.747 195.382 216.437 196.532H191.486C188.381 196.532 185.967 194.117 185.967 191.013V181.814H202.524C203.444 181.814 204.364 181.009 204.364 179.974C204.364 179.054 203.444 178.135 202.524 178.135H185.967V170.776H202.524C203.444 170.776 204.364 169.971 204.364 168.936C204.364 168.016 203.444 167.096 202.524 167.096H185.967V143.18C185.967 140.191 188.381 137.661 191.486 137.661ZM203.444 145.02C202.409 145.02 201.604 145.94 201.604 146.86V149.619H198.845C197.81 149.619 197.005 150.539 197.005 151.459V153.299C197.005 154.333 197.81 155.138 198.845 155.138H201.604V157.898C201.604 158.933 202.409 159.738 203.444 159.738H205.284C206.204 159.738 207.123 158.933 207.123 157.898V155.138H209.883C210.803 155.138 211.723 154.333 211.723 153.299V151.459C211.723 150.539 210.803 149.619 209.883 149.619H207.123V146.86C207.123 145.94 206.204 145.02 205.284 145.02H203.444ZM244.837 168.936C244.837 172.271 242.998 175.26 240.238 176.985C237.364 178.595 233.799 178.595 231.04 176.985C228.165 175.26 226.44 172.271 226.44 168.936C226.44 165.717 228.165 162.727 231.04 161.002C233.799 159.393 237.364 159.393 240.238 161.002C242.998 162.727 244.837 165.717 244.837 168.936ZM219.082 192.622C219.082 186.643 223.796 181.814 229.775 181.814H241.388C247.367 181.814 252.196 186.643 252.196 192.622C252.196 194.807 250.357 196.532 248.172 196.532H222.991C220.806 196.532 219.082 194.807 219.082 192.622Z" fill="#1A2C58"/>
<rect x="142.223" y="212.747" width="153.718" height="54.126" rx="4" fill="#1A2C58"/>
<path d="M175.318 249.81V231.38H182.933C183.112 231.38 183.343 231.389 183.624 231.406C183.906 231.415 184.166 231.44 184.405 231.483C185.472 231.645 186.35 231.999 187.041 232.545C187.741 233.091 188.257 233.782 188.59 234.618C188.931 235.446 189.102 236.367 189.102 237.383C189.102 238.39 188.931 239.311 188.59 240.147C188.249 240.975 187.728 241.662 187.029 242.208C186.338 242.754 185.463 243.108 184.405 243.27C184.166 243.304 183.902 243.33 183.612 243.347C183.33 243.364 183.104 243.372 182.933 243.372H178.403V249.81H175.318ZM178.403 240.493H182.805C182.976 240.493 183.168 240.484 183.381 240.467C183.594 240.45 183.791 240.416 183.97 240.365C184.482 240.237 184.883 240.011 185.173 239.686C185.472 239.362 185.681 238.995 185.8 238.586C185.928 238.176 185.992 237.775 185.992 237.383C185.992 236.99 185.928 236.589 185.8 236.18C185.681 235.762 185.472 235.391 185.173 235.066C184.883 234.742 184.482 234.516 183.97 234.388C183.791 234.337 183.594 234.307 183.381 234.298C183.168 234.281 182.976 234.273 182.805 234.273H178.403V240.493ZM195.181 250.194C194.183 250.194 193.338 250.006 192.647 249.63C191.956 249.246 191.431 248.739 191.073 248.107C190.723 247.476 190.548 246.781 190.548 246.021C190.548 245.356 190.659 244.759 190.881 244.23C191.103 243.692 191.444 243.231 191.905 242.847C192.365 242.455 192.963 242.135 193.696 241.888C194.251 241.708 194.899 241.546 195.642 241.401C196.392 241.256 197.203 241.124 198.073 241.005C198.952 240.877 199.869 240.74 200.825 240.595L199.724 241.222C199.733 240.267 199.519 239.563 199.084 239.11C198.649 238.658 197.915 238.432 196.883 238.432C196.26 238.432 195.659 238.577 195.079 238.867C194.498 239.157 194.093 239.657 193.863 240.365L191.047 239.482C191.388 238.313 192.037 237.374 192.992 236.666C193.957 235.958 195.253 235.604 196.883 235.604C198.112 235.604 199.191 235.804 200.121 236.205C201.059 236.606 201.755 237.263 202.207 238.176C202.454 238.663 202.604 239.162 202.655 239.674C202.706 240.177 202.732 240.727 202.732 241.325V249.81H200.031V246.815L200.479 247.301C199.856 248.299 199.127 249.033 198.291 249.502C197.463 249.963 196.427 250.194 195.181 250.194ZM195.795 247.736C196.495 247.736 197.092 247.613 197.587 247.365C198.082 247.118 198.474 246.815 198.764 246.457C199.063 246.098 199.263 245.761 199.366 245.445C199.528 245.053 199.618 244.605 199.635 244.102C199.66 243.59 199.673 243.176 199.673 242.86L200.62 243.142C199.69 243.287 198.892 243.415 198.227 243.526C197.561 243.637 196.99 243.743 196.512 243.846C196.034 243.94 195.612 244.046 195.245 244.166C194.887 244.294 194.584 244.443 194.336 244.614C194.089 244.784 193.897 244.98 193.76 245.202C193.632 245.424 193.568 245.684 193.568 245.983C193.568 246.324 193.654 246.627 193.824 246.892C193.995 247.148 194.242 247.352 194.567 247.506C194.899 247.66 195.309 247.736 195.795 247.736ZM214.165 249.81C213.252 249.98 212.356 250.053 211.477 250.027C210.607 250.01 209.826 249.852 209.135 249.554C208.444 249.246 207.919 248.764 207.561 248.107C207.245 247.51 207.079 246.9 207.062 246.277C207.045 245.654 207.036 244.951 207.036 244.166V232.148H210.108V243.986C210.108 244.541 210.112 245.027 210.121 245.445C210.138 245.864 210.227 246.205 210.389 246.469C210.696 246.981 211.187 247.267 211.861 247.327C212.535 247.386 213.303 247.352 214.165 247.224V249.81ZM204.528 238.407V235.988H214.165V238.407H204.528ZM217.393 233.889V231.061H220.477V233.889H217.393ZM217.393 249.81V235.988H220.477V249.81H217.393ZM230.595 250.194C229.195 250.194 227.967 249.891 226.909 249.285C225.851 248.679 225.023 247.839 224.426 246.764C223.837 245.689 223.543 244.451 223.543 243.052C223.543 241.542 223.833 240.232 224.413 239.123C224.993 238.006 225.8 237.14 226.832 236.525C227.864 235.911 229.059 235.604 230.415 235.604C231.849 235.604 233.065 235.941 234.063 236.615C235.07 237.28 235.816 238.223 236.302 239.443C236.789 240.663 236.972 242.101 236.853 243.756H233.794V242.63C233.785 241.128 233.521 240.032 233.001 239.341C232.48 238.65 231.661 238.304 230.543 238.304C229.281 238.304 228.342 238.697 227.728 239.482C227.113 240.258 226.806 241.397 226.806 242.899C226.806 244.298 227.113 245.381 227.728 246.149C228.342 246.917 229.238 247.301 230.415 247.301C231.175 247.301 231.827 247.135 232.373 246.802C232.928 246.461 233.355 245.97 233.653 245.33L236.699 246.252C236.17 247.497 235.351 248.466 234.242 249.157C233.141 249.848 231.926 250.194 230.595 250.194ZM225.834 243.756V241.427H235.343V243.756H225.834ZM248.893 249.81V243.155C248.893 242.719 248.864 242.237 248.804 241.708C248.744 241.179 248.603 240.672 248.381 240.185C248.168 239.691 247.844 239.285 247.409 238.97C246.982 238.654 246.402 238.496 245.668 238.496C245.276 238.496 244.888 238.56 244.504 238.688C244.12 238.816 243.77 239.038 243.454 239.354C243.147 239.661 242.9 240.087 242.712 240.633C242.524 241.171 242.43 241.862 242.43 242.707L240.6 241.926C240.6 240.749 240.826 239.682 241.279 238.727C241.739 237.771 242.413 237.012 243.301 236.448C244.188 235.877 245.28 235.591 246.577 235.591C247.601 235.591 248.445 235.762 249.111 236.103C249.776 236.444 250.305 236.879 250.698 237.408C251.09 237.937 251.38 238.5 251.568 239.098C251.756 239.695 251.875 240.262 251.927 240.8C251.986 241.329 252.016 241.76 252.016 242.092V249.81H248.893ZM239.308 249.81V235.988H242.059V240.275H242.43V249.81H239.308ZM263.457 249.81C262.544 249.98 261.648 250.053 260.769 250.027C259.899 250.01 259.118 249.852 258.427 249.554C257.736 249.246 257.211 248.764 256.853 248.107C256.537 247.51 256.371 246.9 256.354 246.277C256.337 245.654 256.328 244.951 256.328 244.166V232.148H259.4V243.986C259.4 244.541 259.404 245.027 259.413 245.445C259.43 245.864 259.519 246.205 259.682 246.469C259.989 246.981 260.479 247.267 261.153 247.327C261.827 247.386 262.595 247.352 263.457 247.224V249.81ZM253.82 238.407V235.988H263.457V238.407H253.82Z" fill="white"/>
</svg>
