<svg width="18" height="22" viewBox="0 0 18 22" fill="none" xmlns="http://www.w3.org/2000/svg">
<path d="M9 3.03467C7.86719 3.03467 6.85156 3.65967 6.26562 4.59717C5.71875 5.57373 5.71875 6.78467 6.26562 7.72217C6.85156 8.69873 7.86719 9.28467 9 9.28467C10.0938 9.28467 11.1094 8.69873 11.6953 7.72217C12.2422 6.78467 12.2422 5.57373 11.6953 4.59717C11.1094 3.65967 10.0938 3.03467 9 3.03467ZM4 6.15967C4 4.40186 4.9375 2.76123 6.5 1.86279C8.02344 0.964355 9.9375 0.964355 11.5 1.86279C13.0234 2.76123 14 4.40186 14 6.15967C14 7.95654 13.0234 9.59717 11.5 10.4956C9.9375 11.394 8.02344 11.394 6.5 10.4956C4.9375 9.59717 4 7.95654 4 6.15967ZM6.5 14.9487V16.9019C7.39844 17.1753 8.0625 17.9956 8.0625 18.9722C8.0625 20.1831 7.04688 21.1597 5.875 21.1597C4.66406 21.1597 3.6875 20.1831 3.6875 18.9722C3.6875 17.9956 4.3125 17.1753 5.25 16.9019V15.3003C3.41406 16.0425 2.125 17.8394 2.125 19.9097V20.2222C2.125 20.769 1.69531 21.1597 1.1875 21.1597C0.640625 21.1597 0.25 20.769 0.25 20.2222V19.9097C0.25 16.1206 3.29688 13.0347 7.125 13.0347H10.875C14.6641 13.0347 17.75 16.1206 17.75 19.9097V20.2222C17.75 20.769 17.3203 21.1597 16.8125 21.1597C16.2656 21.1597 15.875 20.769 15.875 20.2222V19.9097C15.875 17.8394 14.5469 16.0425 12.75 15.3003V16.8628C13.8047 17.1753 14.625 18.1519 14.625 19.2847V20.5347C14.625 20.8862 14.3125 21.1597 14 21.1597H13.0625C12.7109 21.1597 12.4375 20.8862 12.4375 20.5347C12.4375 20.2222 12.7109 19.9097 13.0625 19.9097H13.375V19.2847C13.375 18.6206 12.7891 18.0347 12.125 18.0347C11.4219 18.0347 10.875 18.6206 10.875 19.2847V19.9097H11.1875C11.5 19.9097 11.8125 20.2222 11.8125 20.5347C11.8125 20.8862 11.5 21.1597 11.1875 21.1597H10.25C9.89844 21.1597 9.625 20.8862 9.625 20.5347V19.2847C9.625 18.1519 10.4062 17.1753 11.5 16.8628V14.9487C11.2656 14.9487 11.0703 14.9097 10.875 14.9097H7.125C6.89062 14.9097 6.69531 14.9487 6.5 14.9487ZM5.875 18.0347C5.32812 18.0347 4.9375 18.4644 4.9375 18.9722C4.9375 19.519 5.32812 19.9097 5.875 19.9097C6.38281 19.9097 6.8125 19.519 6.8125 18.9722C6.8125 18.4644 6.38281 18.0347 5.875 18.0347Z" fill="#011445"/>
</svg>
