<svg width="21" height="25" viewBox="0 0 21 25" fill="none" xmlns="http://www.w3.org/2000/svg">
<path d="M10.5 3.25C9.14062 3.25 7.92188 4 7.21875 5.125C6.5625 6.29688 6.5625 7.75 7.21875 8.875C7.92188 10.0469 9.14062 10.75 10.5 10.75C11.8125 10.75 13.0312 10.0469 13.7344 8.875C14.3906 7.75 14.3906 6.29688 13.7344 5.125C13.0312 4 11.8125 3.25 10.5 3.25ZM4.5 7C4.5 4.89062 5.625 2.92188 7.5 1.84375C9.32812 0.765625 11.625 0.765625 13.5 1.84375C15.3281 2.92188 16.5 4.89062 16.5 7C16.5 9.15625 15.3281 11.125 13.5 12.2031C11.625 13.2812 9.32812 13.2812 7.5 12.2031C5.625 11.125 4.5 9.15625 4.5 7ZM7.5 17.5469V19.8906C8.57812 20.2188 9.375 21.2031 9.375 22.375C9.375 23.8281 8.15625 25 6.75 25C5.29688 25 4.125 23.8281 4.125 22.375C4.125 21.2031 4.875 20.2188 6 19.8906V17.9688C3.79688 18.8594 2.25 21.0156 2.25 23.5V23.875C2.25 24.5312 1.73438 25 1.125 25C0.46875 25 0 24.5312 0 23.875V23.5C0 18.9531 3.65625 15.25 8.25 15.25H12.75C17.2969 15.25 21 18.9531 21 23.5V23.875C21 24.5312 20.4844 25 19.875 25C19.2188 25 18.75 24.5312 18.75 23.875V23.5C18.75 21.0156 17.1562 18.8594 15 17.9688V19.8438C16.2656 20.2188 17.25 21.3906 17.25 22.75V24.25C17.25 24.6719 16.875 25 16.5 25H15.375C14.9531 25 14.625 24.6719 14.625 24.25C14.625 23.875 14.9531 23.5 15.375 23.5H15.75V22.75C15.75 21.9531 15.0469 21.25 14.25 21.25C13.4062 21.25 12.75 21.9531 12.75 22.75V23.5H13.125C13.5 23.5 13.875 23.875 13.875 24.25C13.875 24.6719 13.5 25 13.125 25H12C11.5781 25 11.25 24.6719 11.25 24.25V22.75C11.25 21.3906 12.1875 20.2188 13.5 19.8438V17.5469C13.2188 17.5469 12.9844 17.5 12.75 17.5H8.25C7.96875 17.5 7.73438 17.5469 7.5 17.5469ZM6.75 21.25C6.09375 21.25 5.625 21.7656 5.625 22.375C5.625 23.0312 6.09375 23.5 6.75 23.5C7.35938 23.5 7.875 23.0312 7.875 22.375C7.875 21.7656 7.35938 21.25 6.75 21.25Z" fill="#AA25ED"/>
</svg>
