<svg width="19" height="20" viewBox="0 0 19 20" fill="none" xmlns="http://www.w3.org/2000/svg">
<path d="M4.5 5V2.77344C4.5 2.22656 4.8125 1.75781 5.28125 1.60156L9.03125 0.195312C9.34375 0.078125 9.65625 0.078125 9.92969 0.195312L13.6797 1.60156C14.1484 1.75781 14.5 2.22656 14.5 2.77344V5H14.4609C14.5 5.11719 14.5 5.23438 14.5 5.3125V6.875C14.5 9.64844 12.2344 11.875 9.5 11.875C6.72656 11.875 4.5 9.64844 4.5 6.875V5.3125C4.5 5.23438 4.5 5.11719 4.5 5ZM6.375 6.875C6.375 8.63281 7.74219 10 9.5 10C11.2188 10 12.625 8.63281 12.625 6.875V6.25H6.375V6.875ZM9.1875 1.5625C8.99219 1.5625 8.875 1.71875 8.875 1.875V2.5H8.25C8.05469 2.5 7.9375 2.65625 7.9375 2.8125V3.4375C7.9375 3.63281 8.05469 3.75 8.25 3.75H8.875V4.375C8.875 4.57031 8.99219 4.6875 9.1875 4.6875H9.8125C9.96875 4.6875 10.125 4.57031 10.125 4.375V3.75H10.75C10.9062 3.75 11.0625 3.63281 11.0625 3.4375V2.8125C11.0625 2.65625 10.9062 2.5 10.75 2.5H10.125V1.875C10.125 1.71875 9.96875 1.5625 9.8125 1.5625H9.1875ZM2.66406 18.0469H16.2969C16.0625 16.5234 15.0469 15.2344 13.6797 14.6484L11.2578 17.0703C10.2812 18.0469 8.67969 18.0469 7.70312 17.0703L5.32031 14.6484C3.91406 15.2344 2.89844 16.5234 2.66406 18.0469ZM5.20312 12.6953C5.59375 12.5781 6.02344 12.7344 6.29688 13.0078L9.03125 15.7422C9.26562 15.9766 9.69531 15.9766 9.92969 15.7422L12.6641 13.0078C12.9375 12.7344 13.3672 12.5781 13.7578 12.6953C16.3359 13.4766 18.25 15.8984 18.25 18.75C18.25 19.4141 17.7031 19.9219 17.0391 19.9219H1.92188C1.25781 19.9219 0.75 19.4141 0.75 18.75C0.75 15.8984 2.625 13.4766 5.20312 12.6953Z" fill="#AA25ED"/>
</svg>
