<svg width="19" height="21" viewBox="0 0 19 21" fill="none" xmlns="http://www.w3.org/2000/svg">
<path d="M9.5 2.875C8.36719 2.875 7.35156 3.5 6.76562 4.4375C6.21875 5.41406 6.21875 6.625 6.76562 7.5625C7.35156 8.53906 8.36719 9.125 9.5 9.125C10.5938 9.125 11.6094 8.53906 12.1953 7.5625C12.7422 6.625 12.7422 5.41406 12.1953 4.4375C11.6094 3.5 10.5938 2.875 9.5 2.875ZM4.5 6C4.5 4.24219 5.4375 2.60156 7 1.70312C8.52344 0.804688 10.4375 0.804688 12 1.70312C13.5234 2.60156 14.5 4.24219 14.5 6C14.5 7.79688 13.5234 9.4375 12 10.3359C10.4375 11.2344 8.52344 11.2344 7 10.3359C5.4375 9.4375 4.5 7.79688 4.5 6ZM7 14.7891V16.7422C7.89844 17.0156 8.5625 17.8359 8.5625 18.8125C8.5625 20.0234 7.54688 21 6.375 21C5.16406 21 4.1875 20.0234 4.1875 18.8125C4.1875 17.8359 4.8125 17.0156 5.75 16.7422V15.1406C3.91406 15.8828 2.625 17.6797 2.625 19.75V20.0625C2.625 20.6094 2.19531 21 1.6875 21C1.14062 21 0.75 20.6094 0.75 20.0625V19.75C0.75 15.9609 3.79688 12.875 7.625 12.875H11.375C15.1641 12.875 18.25 15.9609 18.25 19.75V20.0625C18.25 20.6094 17.8203 21 17.3125 21C16.7656 21 16.375 20.6094 16.375 20.0625V19.75C16.375 17.6797 15.0469 15.8828 13.25 15.1406V16.7031C14.3047 17.0156 15.125 17.9922 15.125 19.125V20.375C15.125 20.7266 14.8125 21 14.5 21H13.5625C13.2109 21 12.9375 20.7266 12.9375 20.375C12.9375 20.0625 13.2109 19.75 13.5625 19.75H13.875V19.125C13.875 18.4609 13.2891 17.875 12.625 17.875C11.9219 17.875 11.375 18.4609 11.375 19.125V19.75H11.6875C12 19.75 12.3125 20.0625 12.3125 20.375C12.3125 20.7266 12 21 11.6875 21H10.75C10.3984 21 10.125 20.7266 10.125 20.375V19.125C10.125 17.9922 10.9062 17.0156 12 16.7031V14.7891C11.7656 14.7891 11.5703 14.75 11.375 14.75H7.625C7.39062 14.75 7.19531 14.7891 7 14.7891ZM6.375 17.875C5.82812 17.875 5.4375 18.3047 5.4375 18.8125C5.4375 19.3594 5.82812 19.75 6.375 19.75C6.88281 19.75 7.3125 19.3594 7.3125 18.8125C7.3125 18.3047 6.88281 17.875 6.375 17.875Z" fill="#0A1C73"/>
</svg>
