<svg width="12" height="17" viewBox="0 0 12 17" fill="none" xmlns="http://www.w3.org/2000/svg">
<path d="M1.5 14.9581C1.5 15.2394 1.71875 15.4581 2 15.4581H10C10.25 15.4581 10.5 15.2394 10.5 14.9581V5.95813H8C7.4375 5.95813 7 5.52063 7 4.95813V2.45813H2C1.71875 2.45813 1.5 2.70813 1.5 2.95813V14.9581ZM2 0.95813H7.15625C7.6875 0.95813 8.1875 1.17688 8.5625 1.55188L11.4062 4.39563C11.7812 4.77063 12 5.27063 12 5.80188V14.9581C12 16.0831 11.0938 16.9581 10 16.9581H2C0.875 16.9581 0 16.0831 0 14.9581V2.95813C0 1.86438 0.875 0.95813 2 0.95813ZM3.25 6.95813H5.5C6.59375 6.95813 7.5 7.86438 7.5 8.95813C7.5 9.70813 7.09375 10.3331 6.5 10.6769L7.46875 11.6769L8.1875 10.9581C8.5 10.6456 8.96875 10.6456 9.25 10.9581C9.5625 11.2394 9.5625 11.7081 9.25 11.9894L8.53125 12.7081L9.25 13.4269C9.5625 13.7394 9.5625 14.2081 9.25 14.4894C8.96875 14.8019 8.5 14.8019 8.1875 14.4894L7.46875 13.7706L6.75 14.4894C6.46875 14.8019 6 14.8019 5.71875 14.4894C5.40625 14.2081 5.40625 13.7394 5.71875 13.4269L6.4375 12.7081L4.71875 10.9894C4.6875 10.9894 4.6875 10.9894 4.6875 10.9581H4V12.2081C4 12.6456 3.65625 12.9581 3.25 12.9581C2.8125 12.9581 2.5 12.6456 2.5 12.2081V10.2081V7.70813C2.5 7.30188 2.8125 6.95813 3.25 6.95813ZM5.5 9.45813C5.75 9.45813 6 9.23938 6 8.95813C6 8.70813 5.75 8.45813 5.5 8.45813H4V9.45813H5.5Z" fill="#031031"/>
</svg>
