<svg width="19" height="21" viewBox="0 0 19 21" fill="none" xmlns="http://www.w3.org/2000/svg">
<path d="M2 0.847168C2.66406 0.847168 3.25 1.43311 3.25 2.09717V2.72217L5.94531 2.05811C7.42969 1.70654 8.99219 1.86279 10.3594 2.56592C12.1562 3.46436 14.3047 3.46436 16.1016 2.56592L16.4922 2.37061C17.2734 1.97998 18.25 2.56592 18.25 3.46436V4.87061L16.4922 5.49561C14.8125 6.08154 12.9766 6.04248 11.3359 5.30029L10.7109 5.02686C9.92969 4.67529 9.07031 4.44092 8.25 4.36279V5.61279C8.91406 5.69092 9.57812 5.88623 10.2031 6.15967L10.8281 6.43311C12.7422 7.29248 14.9297 7.37061 16.9219 6.66748L18.25 6.19873V8.62061L16.4922 9.24561C14.8125 9.87061 12.9766 9.79248 11.3359 9.05029L10.7109 8.77686C9.14844 8.07373 7.39062 7.91748 5.71094 8.26904L3.25 8.81592V10.0659L5.98438 9.47998C7.39062 9.16748 8.875 9.32373 10.2031 9.90967L10.8281 10.2222C12.7422 11.0815 14.9297 11.1206 16.9219 10.4175L18.25 9.94873V12.3706L16.4922 12.9956C14.8125 13.6206 12.9766 13.5425 11.3359 12.8003L10.7109 12.5269C9.14844 11.8237 7.39062 11.6675 5.71094 12.019L3.25 12.5659V13.8159L5.98438 13.23C7.39062 12.9175 8.875 13.0737 10.2031 13.6597L10.8281 13.9722C12.7422 14.8315 14.9297 14.8706 16.9219 14.1675L18.25 13.6987V14.9878C18.25 15.5347 17.8984 16.0034 17.4297 16.1597L16.0625 16.6675C14.2656 17.3706 12.2344 17.2534 10.5156 16.394C9.03125 15.6519 7.35156 15.4565 5.75 15.8472L3.25 16.4722V19.5972C3.25 20.3003 2.66406 20.8472 2 20.8472C1.29688 20.8472 0.75 20.3003 0.75 19.5972V17.0972V14.3628V13.0737V10.6128V9.32373V6.86279V5.57373V3.34717V2.09717C0.75 1.43311 1.29688 0.847168 2 0.847168ZM5.125 4.59717C5.125 4.28467 4.8125 3.97217 4.5 3.97217C4.14844 3.97217 3.875 4.28467 3.875 4.59717C3.875 4.94873 4.14844 5.22217 4.5 5.22217C4.8125 5.22217 5.125 4.94873 5.125 4.59717ZM6.375 4.59717C6.6875 4.59717 7 4.32373 7 3.97217C7 3.65967 6.6875 3.34717 6.375 3.34717C6.02344 3.34717 5.75 3.65967 5.75 3.97217C5.75 4.32373 6.02344 4.59717 6.375 4.59717ZM5.125 6.47217C5.125 6.15967 4.8125 5.84717 4.5 5.84717C4.14844 5.84717 3.875 6.15967 3.875 6.47217C3.875 6.82373 4.14844 7.09717 4.5 7.09717C4.8125 7.09717 5.125 6.82373 5.125 6.47217ZM6.375 6.47217C6.6875 6.47217 7 6.19873 7 5.84717C7 5.53467 6.6875 5.22217 6.375 5.22217C6.02344 5.22217 5.75 5.53467 5.75 5.84717C5.75 6.19873 6.02344 6.47217 6.375 6.47217Z" fill="#1A2C58"/>
</svg>
