<svg width="21" height="21" viewBox="0 0 21 21" fill="none" xmlns="http://www.w3.org/2000/svg">
<path d="M18 19.6807H3C1.59375 19.6807 0.5 18.5869 0.5 17.1807V4.68066C0.5 3.31348 1.59375 2.18066 3 2.18066H8C8.78125 2.18066 9.52344 2.57129 9.99219 3.19629L10.7344 4.21191C10.9688 4.52441 11.3203 4.68066 11.75 4.68066H18C19.3672 4.68066 20.5 5.81348 20.5 7.18066V17.1807C20.5 18.5869 19.3672 19.6807 18 19.6807ZM9.25 9.05566V10.9307H7.375C7.02344 10.9307 6.75 11.2432 6.75 11.5557V12.8057C6.75 13.1572 7.02344 13.4307 7.375 13.4307H9.25V15.3057C9.25 15.6572 9.52344 15.9307 9.875 15.9307H11.125C11.4375 15.9307 11.75 15.6572 11.75 15.3057V13.4307H13.625C13.9375 13.4307 14.25 13.1572 14.25 12.8057V11.5557C14.25 11.2432 13.9375 10.9307 13.625 10.9307H11.75V9.05566C11.75 8.74316 11.4375 8.43066 11.125 8.43066H9.875C9.52344 8.43066 9.25 8.74316 9.25 9.05566Z" fill="#4D5B7D"/>
</svg>
