<svg width="500" height="151" viewBox="0 0 500 151" fill="none" xmlns="http://www.w3.org/2000/svg">
<rect y="25.2881" width="100" height="95" fill="#135A62"/>
<rect x="100" y="27" width="100" height="93" fill="#68CDD9"/>
<rect x="300" y="33.2881" width="100" height="87" fill="#68CDD9"/>
<rect x="200" y="77.2881" width="100" height="43" fill="#135A62"/>
<rect x="200" y="22.2881" width="100" height="98" fill="#135A62"/>
<rect x="400" y="19.2881" width="100" height="101" fill="#135A62"/>
<path d="M22.84 145.288V136.648H23.65L27.046 143.914L30.424 136.648H31.246V145.282H30.406V138.616L27.328 145.288H26.758L23.686 138.616V145.288H22.84ZM34.7838 145.468C34.2958 145.468 33.8858 145.38 33.5538 145.204C33.2258 145.028 32.9798 144.794 32.8158 144.502C32.6518 144.21 32.5698 143.892 32.5698 143.548C32.5698 143.196 32.6398 142.896 32.7798 142.648C32.9238 142.396 33.1178 142.19 33.3618 142.03C33.6098 141.87 33.8958 141.748 34.2198 141.664C34.5478 141.584 34.9098 141.514 35.3058 141.454C35.7058 141.39 36.0958 141.336 36.4758 141.292C36.8598 141.244 37.1958 141.198 37.4838 141.154L37.1718 141.346C37.1838 140.706 37.0598 140.232 36.7998 139.924C36.5398 139.616 36.0878 139.462 35.4438 139.462C34.9998 139.462 34.6238 139.562 34.3158 139.762C34.0118 139.962 33.7978 140.278 33.6738 140.71L32.8158 140.458C32.9638 139.878 33.2618 139.428 33.7098 139.108C34.1578 138.788 34.7398 138.628 35.4558 138.628C36.0478 138.628 36.5498 138.74 36.9618 138.964C37.3778 139.184 37.6718 139.504 37.8438 139.924C37.9238 140.112 37.9758 140.322 37.9998 140.554C38.0238 140.786 38.0358 141.022 38.0358 141.262V145.288H37.2498V143.662L37.4778 143.758C37.2578 144.314 36.9158 144.738 36.4518 145.03C35.9878 145.322 35.4318 145.468 34.7838 145.468ZM34.8858 144.706C35.2978 144.706 35.6578 144.632 35.9658 144.484C36.2738 144.336 36.5218 144.134 36.7098 143.878C36.8978 143.618 37.0198 143.326 37.0758 143.002C37.1238 142.794 37.1498 142.566 37.1538 142.318C37.1578 142.066 37.1598 141.878 37.1598 141.754L37.4958 141.928C37.1958 141.968 36.8698 142.008 36.5178 142.048C36.1698 142.088 35.8258 142.134 35.4858 142.186C35.1498 142.238 34.8458 142.3 34.5738 142.372C34.3898 142.424 34.2118 142.498 34.0398 142.594C33.8678 142.686 33.7258 142.81 33.6138 142.966C33.5058 143.122 33.4518 143.316 33.4518 143.548C33.4518 143.736 33.4978 143.918 33.5898 144.094C33.6858 144.27 33.8378 144.416 34.0458 144.532C34.2578 144.648 34.5378 144.706 34.8858 144.706ZM40.1585 148.168L41.4125 144.766L41.4305 145.774L38.5925 138.808H39.5285L41.8565 144.634H41.4725L43.6205 138.808H44.5205L41.0405 148.168H40.1585ZM47.725 145.282L47.731 144.478L51.637 140.95C51.973 140.646 52.195 140.358 52.303 140.086C52.415 139.81 52.471 139.522 52.471 139.222C52.471 138.866 52.387 138.544 52.219 138.256C52.051 137.968 51.825 137.74 51.541 137.572C51.257 137.4 50.939 137.314 50.587 137.314C50.219 137.314 49.891 137.402 49.603 137.578C49.315 137.754 49.087 137.986 48.919 138.274C48.755 138.562 48.675 138.876 48.679 139.216H47.779C47.779 138.692 47.903 138.222 48.151 137.806C48.399 137.39 48.735 137.064 49.159 136.828C49.583 136.588 50.063 136.468 50.599 136.468C51.123 136.468 51.593 136.592 52.009 136.84C52.429 137.084 52.759 137.416 52.999 137.836C53.243 138.252 53.365 138.716 53.365 139.228C53.365 139.588 53.321 139.906 53.233 140.182C53.149 140.454 53.015 140.708 52.831 140.944C52.651 141.176 52.421 141.416 52.141 141.664L48.673 144.796L48.535 144.436H53.365V145.282H47.725ZM57.6288 145.468C57.0968 145.468 56.6168 145.344 56.1888 145.096C55.7648 144.848 55.4288 144.512 55.1808 144.088C54.9328 143.66 54.8088 143.18 54.8088 142.648V139.288C54.8088 138.756 54.9328 138.278 55.1808 137.854C55.4288 137.426 55.7648 137.088 56.1888 136.84C56.6168 136.592 57.0968 136.468 57.6288 136.468C58.1608 136.468 58.6388 136.592 59.0628 136.84C59.4908 137.088 59.8288 137.426 60.0768 137.854C60.3248 138.278 60.4488 138.756 60.4488 139.288V142.648C60.4488 143.18 60.3248 143.66 60.0768 144.088C59.8288 144.512 59.4908 144.848 59.0628 145.096C58.6388 145.344 58.1608 145.468 57.6288 145.468ZM57.6288 144.616C57.9848 144.616 58.3088 144.53 58.6008 144.358C58.8928 144.182 59.1248 143.948 59.2968 143.656C59.4688 143.364 59.5548 143.042 59.5548 142.69V139.246C59.5548 138.89 59.4688 138.566 59.2968 138.274C59.1248 137.982 58.8928 137.75 58.6008 137.578C58.3088 137.402 57.9848 137.314 57.6288 137.314C57.2728 137.314 56.9488 137.402 56.6568 137.578C56.3648 137.75 56.1328 137.982 55.9608 138.274C55.7888 138.566 55.7028 138.89 55.7028 139.246V142.69C55.7028 143.042 55.7888 143.364 55.9608 143.656C56.1328 143.948 56.3648 144.182 56.6568 144.358C56.9488 144.53 57.2728 144.616 57.6288 144.616ZM61.893 145.282L61.899 144.478L65.805 140.95C66.141 140.646 66.363 140.358 66.471 140.086C66.583 139.81 66.639 139.522 66.639 139.222C66.639 138.866 66.555 138.544 66.387 138.256C66.219 137.968 65.993 137.74 65.709 137.572C65.425 137.4 65.107 137.314 64.755 137.314C64.387 137.314 64.059 137.402 63.771 137.578C63.483 137.754 63.255 137.986 63.087 138.274C62.923 138.562 62.843 138.876 62.847 139.216H61.947C61.947 138.692 62.071 138.222 62.319 137.806C62.567 137.39 62.903 137.064 63.327 136.828C63.751 136.588 64.231 136.468 64.767 136.468C65.291 136.468 65.761 136.592 66.177 136.84C66.597 137.084 66.927 137.416 67.167 137.836C67.411 138.252 67.533 138.716 67.533 139.228C67.533 139.588 67.489 139.906 67.401 140.182C67.317 140.454 67.183 140.708 66.999 140.944C66.819 141.176 66.589 141.416 66.309 141.664L62.841 144.796L62.703 144.436H67.533V145.282H61.893ZM72.5463 145.288V143.614H68.5023V142.774L71.3943 136.648H72.3843L69.4923 142.774H72.5463V140.254H73.4343V142.774H74.3763V143.614H73.4343V145.288H72.5463Z" fill="#135A62"/>
<path d="M126.316 145.462C125.74 145.462 125.246 145.302 124.834 144.982C124.422 144.662 124.144 144.234 124 143.698L124.882 143.488C124.954 143.804 125.12 144.072 125.38 144.292C125.644 144.508 125.954 144.616 126.31 144.616C126.534 144.616 126.76 144.562 126.988 144.454C127.22 144.346 127.402 144.168 127.534 143.92C127.622 143.748 127.672 143.562 127.684 143.362C127.7 143.158 127.708 142.914 127.708 142.63V136.648H128.596V142.63C128.596 142.87 128.594 143.088 128.59 143.284C128.586 143.476 128.564 143.662 128.524 143.842C128.488 144.018 128.418 144.196 128.314 144.376C128.106 144.74 127.826 145.012 127.474 145.192C127.126 145.372 126.74 145.462 126.316 145.462ZM132.884 145.45C132.496 145.45 132.156 145.39 131.864 145.27C131.576 145.15 131.33 144.988 131.126 144.784C130.926 144.58 130.764 144.348 130.64 144.088C130.516 143.824 130.426 143.546 130.37 143.254C130.314 142.958 130.286 142.664 130.286 142.372V138.808H131.174V142.114C131.174 142.47 131.208 142.8 131.276 143.104C131.344 143.408 131.452 143.674 131.6 143.902C131.752 144.126 131.946 144.3 132.182 144.424C132.422 144.548 132.712 144.61 133.052 144.61C133.364 144.61 133.638 144.556 133.874 144.448C134.114 144.34 134.314 144.186 134.474 143.986C134.638 143.782 134.762 143.536 134.846 143.248C134.93 142.956 134.972 142.628 134.972 142.264L135.596 142.402C135.596 143.066 135.48 143.624 135.248 144.076C135.016 144.528 134.696 144.87 134.288 145.102C133.88 145.334 133.412 145.45 132.884 145.45ZM135.062 145.288V143.692H134.972V138.808H135.854V145.288H135.062ZM142.211 145.288V141.982C142.211 141.622 142.177 141.292 142.109 140.992C142.041 140.688 141.931 140.424 141.779 140.2C141.631 139.972 141.437 139.796 141.197 139.672C140.961 139.548 140.673 139.486 140.333 139.486C140.021 139.486 139.745 139.54 139.505 139.648C139.269 139.756 139.069 139.912 138.905 140.116C138.745 140.316 138.623 140.56 138.539 140.848C138.455 141.136 138.413 141.464 138.413 141.832L137.789 141.694C137.789 141.03 137.905 140.472 138.137 140.02C138.369 139.568 138.689 139.226 139.097 138.994C139.505 138.762 139.973 138.646 140.501 138.646C140.889 138.646 141.227 138.706 141.515 138.826C141.807 138.946 142.053 139.108 142.253 139.312C142.457 139.516 142.621 139.75 142.745 140.014C142.869 140.274 142.959 140.552 143.015 140.848C143.071 141.14 143.099 141.432 143.099 141.724V145.288H142.211ZM137.525 145.288V138.808H138.323V140.404H138.413V145.288H137.525ZM146.819 145.282L146.825 144.478L150.731 140.95C151.067 140.646 151.289 140.358 151.397 140.086C151.509 139.81 151.565 139.522 151.565 139.222C151.565 138.866 151.481 138.544 151.313 138.256C151.145 137.968 150.919 137.74 150.635 137.572C150.351 137.4 150.033 137.314 149.681 137.314C149.313 137.314 148.985 137.402 148.697 137.578C148.409 137.754 148.181 137.986 148.013 138.274C147.849 138.562 147.769 138.876 147.773 139.216H146.873C146.873 138.692 146.997 138.222 147.245 137.806C147.493 137.39 147.829 137.064 148.253 136.828C148.677 136.588 149.157 136.468 149.693 136.468C150.217 136.468 150.687 136.592 151.103 136.84C151.523 137.084 151.853 137.416 152.093 137.836C152.337 138.252 152.459 138.716 152.459 139.228C152.459 139.588 152.415 139.906 152.327 140.182C152.243 140.454 152.109 140.708 151.925 140.944C151.745 141.176 151.515 141.416 151.235 141.664L147.767 144.796L147.629 144.436H152.459V145.282H146.819ZM156.723 145.468C156.191 145.468 155.711 145.344 155.283 145.096C154.859 144.848 154.523 144.512 154.275 144.088C154.027 143.66 153.903 143.18 153.903 142.648V139.288C153.903 138.756 154.027 138.278 154.275 137.854C154.523 137.426 154.859 137.088 155.283 136.84C155.711 136.592 156.191 136.468 156.723 136.468C157.255 136.468 157.733 136.592 158.157 136.84C158.585 137.088 158.923 137.426 159.171 137.854C159.419 138.278 159.543 138.756 159.543 139.288V142.648C159.543 143.18 159.419 143.66 159.171 144.088C158.923 144.512 158.585 144.848 158.157 145.096C157.733 145.344 157.255 145.468 156.723 145.468ZM156.723 144.616C157.079 144.616 157.403 144.53 157.695 144.358C157.987 144.182 158.219 143.948 158.391 143.656C158.563 143.364 158.649 143.042 158.649 142.69V139.246C158.649 138.89 158.563 138.566 158.391 138.274C158.219 137.982 157.987 137.75 157.695 137.578C157.403 137.402 157.079 137.314 156.723 137.314C156.367 137.314 156.043 137.402 155.751 137.578C155.459 137.75 155.227 137.982 155.055 138.274C154.883 138.566 154.797 138.89 154.797 139.246V142.69C154.797 143.042 154.883 143.364 155.055 143.656C155.227 143.948 155.459 144.182 155.751 144.358C156.043 144.53 156.367 144.616 156.723 144.616ZM160.987 145.282L160.993 144.478L164.899 140.95C165.235 140.646 165.457 140.358 165.565 140.086C165.677 139.81 165.733 139.522 165.733 139.222C165.733 138.866 165.649 138.544 165.481 138.256C165.313 137.968 165.087 137.74 164.803 137.572C164.519 137.4 164.201 137.314 163.849 137.314C163.481 137.314 163.153 137.402 162.865 137.578C162.577 137.754 162.349 137.986 162.181 138.274C162.017 138.562 161.937 138.876 161.941 139.216H161.041C161.041 138.692 161.165 138.222 161.413 137.806C161.661 137.39 161.997 137.064 162.421 136.828C162.845 136.588 163.325 136.468 163.861 136.468C164.385 136.468 164.855 136.592 165.271 136.84C165.691 137.084 166.021 137.416 166.261 137.836C166.505 138.252 166.627 138.716 166.627 139.228C166.627 139.588 166.583 139.906 166.495 140.182C166.411 140.454 166.277 140.708 166.093 140.944C165.913 141.176 165.683 141.416 165.403 141.664L161.935 144.796L161.797 144.436H166.627V145.282H160.987ZM171.64 145.288V143.614H167.596V142.774L170.488 136.648H171.478L168.586 142.774H171.64V140.254H172.528V142.774H173.47V143.614H172.528V145.288H171.64Z" fill="#135A62"/>
<path d="M229.316 145.462C228.74 145.462 228.246 145.302 227.834 144.982C227.422 144.662 227.144 144.234 227 143.698L227.882 143.488C227.954 143.804 228.12 144.072 228.38 144.292C228.644 144.508 228.954 144.616 229.31 144.616C229.534 144.616 229.76 144.562 229.988 144.454C230.22 144.346 230.402 144.168 230.534 143.92C230.622 143.748 230.672 143.562 230.684 143.362C230.7 143.158 230.708 142.914 230.708 142.63V136.648H231.596V142.63C231.596 142.87 231.594 143.088 231.59 143.284C231.586 143.476 231.564 143.662 231.524 143.842C231.488 144.018 231.418 144.196 231.314 144.376C231.106 144.74 230.826 145.012 230.474 145.192C230.126 145.372 229.74 145.462 229.316 145.462ZM235.884 145.45C235.496 145.45 235.156 145.39 234.864 145.27C234.576 145.15 234.33 144.988 234.126 144.784C233.926 144.58 233.764 144.348 233.64 144.088C233.516 143.824 233.426 143.546 233.37 143.254C233.314 142.958 233.286 142.664 233.286 142.372V138.808H234.174V142.114C234.174 142.47 234.208 142.8 234.276 143.104C234.344 143.408 234.452 143.674 234.6 143.902C234.752 144.126 234.946 144.3 235.182 144.424C235.422 144.548 235.712 144.61 236.052 144.61C236.364 144.61 236.638 144.556 236.874 144.448C237.114 144.34 237.314 144.186 237.474 143.986C237.638 143.782 237.762 143.536 237.846 143.248C237.93 142.956 237.972 142.628 237.972 142.264L238.596 142.402C238.596 143.066 238.48 143.624 238.248 144.076C238.016 144.528 237.696 144.87 237.288 145.102C236.88 145.334 236.412 145.45 235.884 145.45ZM238.062 145.288V143.692H237.972V138.808H238.854V145.288H238.062ZM240.651 145.288V136.468H241.533V145.288H240.651ZM245.495 145.282L245.501 144.478L249.407 140.95C249.743 140.646 249.965 140.358 250.073 140.086C250.185 139.81 250.241 139.522 250.241 139.222C250.241 138.866 250.157 138.544 249.989 138.256C249.821 137.968 249.595 137.74 249.311 137.572C249.027 137.4 248.709 137.314 248.357 137.314C247.989 137.314 247.661 137.402 247.373 137.578C247.085 137.754 246.857 137.986 246.689 138.274C246.525 138.562 246.445 138.876 246.449 139.216H245.549C245.549 138.692 245.673 138.222 245.921 137.806C246.169 137.39 246.505 137.064 246.929 136.828C247.353 136.588 247.833 136.468 248.369 136.468C248.893 136.468 249.363 136.592 249.779 136.84C250.199 137.084 250.529 137.416 250.769 137.836C251.013 138.252 251.135 138.716 251.135 139.228C251.135 139.588 251.091 139.906 251.003 140.182C250.919 140.454 250.785 140.708 250.601 140.944C250.421 141.176 250.191 141.416 249.911 141.664L246.443 144.796L246.305 144.436H251.135V145.282H245.495ZM255.398 145.468C254.866 145.468 254.386 145.344 253.958 145.096C253.534 144.848 253.198 144.512 252.95 144.088C252.702 143.66 252.578 143.18 252.578 142.648V139.288C252.578 138.756 252.702 138.278 252.95 137.854C253.198 137.426 253.534 137.088 253.958 136.84C254.386 136.592 254.866 136.468 255.398 136.468C255.93 136.468 256.408 136.592 256.832 136.84C257.26 137.088 257.598 137.426 257.846 137.854C258.094 138.278 258.218 138.756 258.218 139.288V142.648C258.218 143.18 258.094 143.66 257.846 144.088C257.598 144.512 257.26 144.848 256.832 145.096C256.408 145.344 255.93 145.468 255.398 145.468ZM255.398 144.616C255.754 144.616 256.078 144.53 256.37 144.358C256.662 144.182 256.894 143.948 257.066 143.656C257.238 143.364 257.324 143.042 257.324 142.69V139.246C257.324 138.89 257.238 138.566 257.066 138.274C256.894 137.982 256.662 137.75 256.37 137.578C256.078 137.402 255.754 137.314 255.398 137.314C255.042 137.314 254.718 137.402 254.426 137.578C254.134 137.75 253.902 137.982 253.73 138.274C253.558 138.566 253.472 138.89 253.472 139.246V142.69C253.472 143.042 253.558 143.364 253.73 143.656C253.902 143.948 254.134 144.182 254.426 144.358C254.718 144.53 255.042 144.616 255.398 144.616ZM259.663 145.282L259.669 144.478L263.575 140.95C263.911 140.646 264.133 140.358 264.241 140.086C264.353 139.81 264.409 139.522 264.409 139.222C264.409 138.866 264.325 138.544 264.157 138.256C263.989 137.968 263.763 137.74 263.479 137.572C263.195 137.4 262.877 137.314 262.525 137.314C262.157 137.314 261.829 137.402 261.541 137.578C261.253 137.754 261.025 137.986 260.857 138.274C260.693 138.562 260.613 138.876 260.617 139.216H259.717C259.717 138.692 259.841 138.222 260.089 137.806C260.337 137.39 260.673 137.064 261.097 136.828C261.521 136.588 262.001 136.468 262.537 136.468C263.061 136.468 263.531 136.592 263.947 136.84C264.367 137.084 264.697 137.416 264.937 137.836C265.181 138.252 265.303 138.716 265.303 139.228C265.303 139.588 265.259 139.906 265.171 140.182C265.087 140.454 264.953 140.708 264.769 140.944C264.589 141.176 264.359 141.416 264.079 141.664L260.611 144.796L260.473 144.436H265.303V145.282H259.663ZM270.316 145.288V143.614H266.272V142.774L269.164 136.648H270.154L267.262 142.774H270.316V140.254H271.204V142.774H272.146V143.614H271.204V145.288H270.316Z" fill="#135A62"/>
<path d="M323.24 145.288L326.216 136.648H327.386L330.362 145.288H329.444L326.618 137.14H326.966L324.158 145.288H323.24ZM324.566 143.194V142.366H329.03V143.194H324.566ZM333.923 145.45C333.535 145.45 333.195 145.39 332.903 145.27C332.615 145.15 332.369 144.988 332.165 144.784C331.965 144.58 331.803 144.348 331.679 144.088C331.555 143.824 331.465 143.546 331.409 143.254C331.353 142.958 331.325 142.664 331.325 142.372V138.808H332.213V142.114C332.213 142.47 332.247 142.8 332.315 143.104C332.383 143.408 332.491 143.674 332.639 143.902C332.791 144.126 332.985 144.3 333.221 144.424C333.461 144.548 333.751 144.61 334.091 144.61C334.403 144.61 334.677 144.556 334.913 144.448C335.153 144.34 335.353 144.186 335.513 143.986C335.677 143.782 335.801 143.536 335.885 143.248C335.969 142.956 336.011 142.628 336.011 142.264L336.635 142.402C336.635 143.066 336.519 143.624 336.287 144.076C336.055 144.528 335.735 144.87 335.327 145.102C334.919 145.334 334.451 145.45 333.923 145.45ZM336.101 145.288V143.692H336.011V138.808H336.893V145.288H336.101ZM341.144 148.348C340.812 148.348 340.484 148.298 340.16 148.198C339.84 148.102 339.544 147.948 339.272 147.736C339 147.528 338.772 147.256 338.588 146.92L339.386 146.476C339.566 146.836 339.818 147.094 340.142 147.25C340.47 147.41 340.804 147.49 341.144 147.49C341.612 147.49 341.99 147.402 342.278 147.226C342.57 147.054 342.782 146.798 342.914 146.458C343.046 146.118 343.11 145.694 343.106 145.186V143.458H343.208V138.808H343.994V145.198C343.994 145.382 343.988 145.558 343.976 145.726C343.968 145.898 343.95 146.066 343.922 146.23C343.846 146.714 343.688 147.112 343.448 147.424C343.212 147.736 342.9 147.968 342.512 148.12C342.128 148.272 341.672 148.348 341.144 148.348ZM341.084 145.468C340.48 145.468 339.964 145.318 339.536 145.018C339.108 144.714 338.78 144.304 338.552 143.788C338.324 143.272 338.21 142.69 338.21 142.042C338.21 141.398 338.322 140.818 338.546 140.302C338.774 139.786 339.1 139.378 339.524 139.078C339.948 138.778 340.456 138.628 341.048 138.628C341.656 138.628 342.168 138.776 342.584 139.072C343 139.368 343.314 139.774 343.526 140.29C343.742 140.802 343.85 141.386 343.85 142.042C343.85 142.686 343.744 143.268 343.532 143.788C343.32 144.304 343.008 144.714 342.596 145.018C342.184 145.318 341.68 145.468 341.084 145.468ZM341.174 144.646C341.634 144.646 342.014 144.534 342.314 144.31C342.614 144.086 342.838 143.778 342.986 143.386C343.134 142.99 343.208 142.542 343.208 142.042C343.208 141.534 343.134 141.086 342.986 140.698C342.838 140.306 342.614 140 342.314 139.78C342.018 139.56 341.644 139.45 341.192 139.45C340.728 139.45 340.344 139.564 340.04 139.792C339.736 140.02 339.51 140.33 339.362 140.722C339.218 141.114 339.146 141.554 339.146 142.042C339.146 142.534 339.22 142.978 339.368 143.374C339.52 143.766 339.746 144.076 340.046 144.304C340.346 144.532 340.722 144.646 341.174 144.646ZM347.834 145.282L347.84 144.478L351.746 140.95C352.082 140.646 352.304 140.358 352.412 140.086C352.524 139.81 352.58 139.522 352.58 139.222C352.58 138.866 352.496 138.544 352.328 138.256C352.16 137.968 351.934 137.74 351.65 137.572C351.366 137.4 351.048 137.314 350.696 137.314C350.328 137.314 350 137.402 349.712 137.578C349.424 137.754 349.196 137.986 349.028 138.274C348.864 138.562 348.784 138.876 348.788 139.216H347.888C347.888 138.692 348.012 138.222 348.26 137.806C348.508 137.39 348.844 137.064 349.268 136.828C349.692 136.588 350.172 136.468 350.708 136.468C351.232 136.468 351.702 136.592 352.118 136.84C352.538 137.084 352.868 137.416 353.108 137.836C353.352 138.252 353.474 138.716 353.474 139.228C353.474 139.588 353.43 139.906 353.342 140.182C353.258 140.454 353.124 140.708 352.94 140.944C352.76 141.176 352.53 141.416 352.25 141.664L348.782 144.796L348.644 144.436H353.474V145.282H347.834ZM357.738 145.468C357.206 145.468 356.726 145.344 356.298 145.096C355.874 144.848 355.538 144.512 355.29 144.088C355.042 143.66 354.918 143.18 354.918 142.648V139.288C354.918 138.756 355.042 138.278 355.29 137.854C355.538 137.426 355.874 137.088 356.298 136.84C356.726 136.592 357.206 136.468 357.738 136.468C358.27 136.468 358.748 136.592 359.172 136.84C359.6 137.088 359.938 137.426 360.186 137.854C360.434 138.278 360.558 138.756 360.558 139.288V142.648C360.558 143.18 360.434 143.66 360.186 144.088C359.938 144.512 359.6 144.848 359.172 145.096C358.748 145.344 358.27 145.468 357.738 145.468ZM357.738 144.616C358.094 144.616 358.418 144.53 358.71 144.358C359.002 144.182 359.234 143.948 359.406 143.656C359.578 143.364 359.664 143.042 359.664 142.69V139.246C359.664 138.89 359.578 138.566 359.406 138.274C359.234 137.982 359.002 137.75 358.71 137.578C358.418 137.402 358.094 137.314 357.738 137.314C357.382 137.314 357.058 137.402 356.766 137.578C356.474 137.75 356.242 137.982 356.07 138.274C355.898 138.566 355.812 138.89 355.812 139.246V142.69C355.812 143.042 355.898 143.364 356.07 143.656C356.242 143.948 356.474 144.182 356.766 144.358C357.058 144.53 357.382 144.616 357.738 144.616ZM362.002 145.282L362.008 144.478L365.914 140.95C366.25 140.646 366.472 140.358 366.58 140.086C366.692 139.81 366.748 139.522 366.748 139.222C366.748 138.866 366.664 138.544 366.496 138.256C366.328 137.968 366.102 137.74 365.818 137.572C365.534 137.4 365.216 137.314 364.864 137.314C364.496 137.314 364.168 137.402 363.88 137.578C363.592 137.754 363.364 137.986 363.196 138.274C363.032 138.562 362.952 138.876 362.956 139.216H362.056C362.056 138.692 362.18 138.222 362.428 137.806C362.676 137.39 363.012 137.064 363.436 136.828C363.86 136.588 364.34 136.468 364.876 136.468C365.4 136.468 365.87 136.592 366.286 136.84C366.706 137.084 367.036 137.416 367.276 137.836C367.52 138.252 367.642 138.716 367.642 139.228C367.642 139.588 367.598 139.906 367.51 140.182C367.426 140.454 367.292 140.708 367.108 140.944C366.928 141.176 366.698 141.416 366.418 141.664L362.95 144.796L362.812 144.436H367.642V145.282H362.002ZM372.656 145.288V143.614H368.612V142.774L371.504 136.648H372.494L369.602 142.774H372.656V140.254H373.544V142.774H374.486V143.614H373.544V145.288H372.656Z" fill="#135A62"/>
<path d="M424.84 145.468C424.236 145.468 423.692 145.368 423.208 145.168C422.728 144.964 422.33 144.676 422.014 144.304C421.702 143.932 421.498 143.49 421.402 142.978L422.302 142.828C422.446 143.388 422.75 143.828 423.214 144.148C423.678 144.464 424.232 144.622 424.876 144.622C425.3 144.622 425.68 144.556 426.016 144.424C426.352 144.288 426.616 144.096 426.808 143.848C427 143.6 427.096 143.306 427.096 142.966C427.096 142.742 427.056 142.552 426.976 142.396C426.896 142.236 426.79 142.104 426.658 142C426.526 141.896 426.382 141.81 426.226 141.742C426.07 141.67 425.918 141.612 425.77 141.568L423.58 140.914C423.316 140.838 423.072 140.742 422.848 140.626C422.624 140.506 422.428 140.364 422.26 140.2C422.096 140.032 421.968 139.836 421.876 139.612C421.784 139.388 421.738 139.132 421.738 138.844C421.738 138.356 421.866 137.934 422.122 137.578C422.378 137.222 422.728 136.948 423.172 136.756C423.616 136.564 424.122 136.47 424.69 136.474C425.266 136.474 425.78 136.576 426.232 136.78C426.688 136.984 427.064 137.276 427.36 137.656C427.656 138.032 427.852 138.478 427.948 138.994L427.024 139.162C426.964 138.786 426.826 138.46 426.61 138.184C426.394 137.908 426.118 137.696 425.782 137.548C425.45 137.396 425.084 137.318 424.684 137.314C424.296 137.314 423.95 137.38 423.646 137.512C423.346 137.64 423.108 137.816 422.932 138.04C422.756 138.264 422.668 138.52 422.668 138.808C422.668 139.1 422.748 139.334 422.908 139.51C423.072 139.686 423.272 139.824 423.508 139.924C423.748 140.024 423.98 140.106 424.204 140.17L425.896 140.668C426.072 140.716 426.278 140.786 426.514 140.878C426.754 140.966 426.986 141.094 427.21 141.262C427.438 141.426 427.626 141.642 427.774 141.91C427.922 142.178 427.996 142.518 427.996 142.93C427.996 143.33 427.916 143.688 427.756 144.004C427.6 144.32 427.378 144.586 427.09 144.802C426.806 145.018 426.472 145.182 426.088 145.294C425.708 145.41 425.292 145.468 424.84 145.468ZM431.977 145.468C431.345 145.468 430.797 145.328 430.333 145.048C429.873 144.768 429.515 144.374 429.259 143.866C429.003 143.358 428.875 142.762 428.875 142.078C428.875 141.37 429.001 140.758 429.253 140.242C429.505 139.726 429.859 139.328 430.315 139.048C430.775 138.768 431.317 138.628 431.941 138.628C432.581 138.628 433.127 138.776 433.579 139.072C434.031 139.364 434.373 139.784 434.605 140.332C434.837 140.88 434.943 141.534 434.923 142.294H434.023V141.982C434.007 141.142 433.825 140.508 433.477 140.08C433.133 139.652 432.629 139.438 431.965 139.438C431.269 139.438 430.735 139.664 430.363 140.116C429.995 140.568 429.811 141.212 429.811 142.048C429.811 142.864 429.995 143.498 430.363 143.95C430.735 144.398 431.261 144.622 431.941 144.622C432.405 144.622 432.809 144.516 433.153 144.304C433.501 144.088 433.775 143.778 433.975 143.374L434.797 143.692C434.541 144.256 434.163 144.694 433.663 145.006C433.167 145.314 432.605 145.468 431.977 145.468ZM429.499 142.294V141.556H434.449V142.294H429.499ZM438.988 145.468C438.392 145.468 437.888 145.318 437.476 145.018C437.064 144.714 436.752 144.304 436.54 143.788C436.328 143.268 436.222 142.686 436.222 142.042C436.222 141.386 436.328 140.802 436.54 140.29C436.756 139.774 437.072 139.368 437.488 139.072C437.904 138.776 438.416 138.628 439.024 138.628C439.616 138.628 440.124 138.778 440.548 139.078C440.972 139.378 441.296 139.786 441.52 140.302C441.748 140.818 441.862 141.398 441.862 142.042C441.862 142.69 441.748 143.272 441.52 143.788C441.292 144.304 440.964 144.714 440.536 145.018C440.108 145.318 439.592 145.468 438.988 145.468ZM436.072 148.168V138.808H436.864V143.686H436.96V148.168H436.072ZM438.898 144.646C439.35 144.646 439.726 144.532 440.026 144.304C440.326 144.076 440.55 143.766 440.698 143.374C440.85 142.978 440.926 142.534 440.926 142.042C440.926 141.554 440.852 141.114 440.704 140.722C440.556 140.33 440.33 140.02 440.026 139.792C439.726 139.564 439.344 139.45 438.88 139.45C438.428 139.45 438.052 139.56 437.752 139.78C437.456 140 437.234 140.306 437.086 140.698C436.938 141.086 436.864 141.534 436.864 142.042C436.864 142.542 436.938 142.99 437.086 143.386C437.234 143.778 437.458 144.086 437.758 144.31C438.058 144.534 438.438 144.646 438.898 144.646ZM446.708 145.288C446.344 145.364 445.984 145.394 445.628 145.378C445.276 145.362 444.96 145.286 444.68 145.15C444.404 145.014 444.194 144.802 444.05 144.514C443.934 144.274 443.87 144.032 443.858 143.788C443.85 143.54 443.846 143.258 443.846 142.942V137.008H444.722V142.906C444.722 143.178 444.724 143.406 444.728 143.59C444.736 143.77 444.778 143.93 444.854 144.07C444.998 144.338 445.226 144.498 445.538 144.55C445.854 144.602 446.244 144.59 446.708 144.514V145.288ZM442.46 139.564V138.808H446.708V139.564H442.46ZM450.147 145.282L450.153 144.478L454.059 140.95C454.395 140.646 454.617 140.358 454.725 140.086C454.837 139.81 454.893 139.522 454.893 139.222C454.893 138.866 454.809 138.544 454.641 138.256C454.473 137.968 454.247 137.74 453.963 137.572C453.679 137.4 453.361 137.314 453.009 137.314C452.641 137.314 452.313 137.402 452.025 137.578C451.737 137.754 451.509 137.986 451.341 138.274C451.177 138.562 451.097 138.876 451.101 139.216H450.201C450.201 138.692 450.325 138.222 450.573 137.806C450.821 137.39 451.157 137.064 451.581 136.828C452.005 136.588 452.485 136.468 453.021 136.468C453.545 136.468 454.015 136.592 454.431 136.84C454.851 137.084 455.181 137.416 455.421 137.836C455.665 138.252 455.787 138.716 455.787 139.228C455.787 139.588 455.743 139.906 455.655 140.182C455.571 140.454 455.437 140.708 455.253 140.944C455.073 141.176 454.843 141.416 454.563 141.664L451.095 144.796L450.957 144.436H455.787V145.282H450.147ZM460.051 145.468C459.519 145.468 459.039 145.344 458.611 145.096C458.187 144.848 457.851 144.512 457.603 144.088C457.355 143.66 457.231 143.18 457.231 142.648V139.288C457.231 138.756 457.355 138.278 457.603 137.854C457.851 137.426 458.187 137.088 458.611 136.84C459.039 136.592 459.519 136.468 460.051 136.468C460.583 136.468 461.061 136.592 461.485 136.84C461.913 137.088 462.251 137.426 462.499 137.854C462.747 138.278 462.871 138.756 462.871 139.288V142.648C462.871 143.18 462.747 143.66 462.499 144.088C462.251 144.512 461.913 144.848 461.485 145.096C461.061 145.344 460.583 145.468 460.051 145.468ZM460.051 144.616C460.407 144.616 460.731 144.53 461.023 144.358C461.315 144.182 461.547 143.948 461.719 143.656C461.891 143.364 461.977 143.042 461.977 142.69V139.246C461.977 138.89 461.891 138.566 461.719 138.274C461.547 137.982 461.315 137.75 461.023 137.578C460.731 137.402 460.407 137.314 460.051 137.314C459.695 137.314 459.371 137.402 459.079 137.578C458.787 137.75 458.555 137.982 458.383 138.274C458.211 138.566 458.125 138.89 458.125 139.246V142.69C458.125 143.042 458.211 143.364 458.383 143.656C458.555 143.948 458.787 144.182 459.079 144.358C459.371 144.53 459.695 144.616 460.051 144.616ZM464.315 145.282L464.321 144.478L468.227 140.95C468.563 140.646 468.785 140.358 468.893 140.086C469.005 139.81 469.061 139.522 469.061 139.222C469.061 138.866 468.977 138.544 468.809 138.256C468.641 137.968 468.415 137.74 468.131 137.572C467.847 137.4 467.529 137.314 467.177 137.314C466.809 137.314 466.481 137.402 466.193 137.578C465.905 137.754 465.677 137.986 465.509 138.274C465.345 138.562 465.265 138.876 465.269 139.216H464.369C464.369 138.692 464.493 138.222 464.741 137.806C464.989 137.39 465.325 137.064 465.749 136.828C466.173 136.588 466.653 136.468 467.189 136.468C467.713 136.468 468.183 136.592 468.599 136.84C469.019 137.084 469.349 137.416 469.589 137.836C469.833 138.252 469.955 138.716 469.955 139.228C469.955 139.588 469.911 139.906 469.823 140.182C469.739 140.454 469.605 140.708 469.421 140.944C469.241 141.176 469.011 141.416 468.731 141.664L465.263 144.796L465.125 144.436H469.955V145.282H464.315ZM474.968 145.288V143.614H470.924V142.774L473.816 136.648H474.806L471.914 142.774H474.968V140.254H475.856V142.774H476.798V143.614H475.856V145.288H474.968Z" fill="#135A62"/>
<path d="M135.848 13.4741C136.392 13.4741 136.884 13.6061 137.324 13.8701C137.768 14.1301 138.12 14.4861 138.38 14.9381C138.64 15.3861 138.77 15.8901 138.77 16.4501V19.4501C138.77 20.0261 138.64 20.5421 138.38 20.9981C138.12 21.4541 137.764 21.8141 137.312 22.0781C136.864 22.3381 136.354 22.4681 135.782 22.4681C135.29 22.4681 134.834 22.3601 134.414 22.1441C133.998 21.9241 133.654 21.6221 133.382 21.2381L134.054 20.6801C134.238 20.9641 134.482 21.1921 134.786 21.3641C135.094 21.5361 135.426 21.6221 135.782 21.6221C136.19 21.6221 136.55 21.5261 136.862 21.3341C137.178 21.1381 137.426 20.8821 137.606 20.5661C137.79 20.2461 137.882 19.9001 137.882 19.5281V17.6441L138.098 17.8961C137.85 18.2921 137.52 18.6121 137.108 18.8561C136.7 19.1001 136.252 19.2221 135.764 19.2221C135.232 19.2221 134.75 19.0941 134.318 18.8381C133.89 18.5821 133.55 18.2381 133.298 17.8061C133.05 17.3741 132.926 16.8921 132.926 16.3601C132.926 15.8281 133.058 15.3441 133.322 14.9081C133.586 14.4681 133.94 14.1201 134.384 13.8641C134.828 13.6041 135.316 13.4741 135.848 13.4741ZM135.848 14.3261C135.472 14.3261 135.13 14.4181 134.822 14.6021C134.514 14.7821 134.268 15.0261 134.084 15.3341C133.904 15.6421 133.814 15.9841 133.814 16.3601C133.814 16.7361 133.904 17.0781 134.084 17.3861C134.264 17.6941 134.508 17.9401 134.816 18.1241C135.124 18.3041 135.466 18.3941 135.842 18.3941C136.218 18.3941 136.56 18.3041 136.868 18.1241C137.18 17.9401 137.426 17.6941 137.606 17.3861C137.79 17.0781 137.882 16.7361 137.882 16.3601C137.882 15.9881 137.79 15.6481 137.606 15.3401C137.426 15.0321 137.182 14.7861 136.874 14.6021C136.566 14.4181 136.224 14.3261 135.848 14.3261ZM142.995 22.4681C142.547 22.4681 142.133 22.3761 141.753 22.1921C141.373 22.0081 141.049 21.7541 140.781 21.4301C140.513 21.1061 140.321 20.7341 140.205 20.3141L141.051 20.0861C141.127 20.3981 141.265 20.6681 141.465 20.8961C141.665 21.1201 141.899 21.2941 142.167 21.4181C142.439 21.5421 142.723 21.6041 143.019 21.6041C143.403 21.6041 143.747 21.5121 144.051 21.3281C144.359 21.1401 144.603 20.8921 144.783 20.5841C144.963 20.2761 145.053 19.9381 145.053 19.5701C145.053 19.1901 144.959 18.8481 144.771 18.5441C144.583 18.2361 144.335 17.9921 144.027 17.8121C143.719 17.6321 143.383 17.5421 143.019 17.5421C142.611 17.5421 142.259 17.6321 141.963 17.8121C141.667 17.9881 141.431 18.2101 141.255 18.4781L140.451 18.1421L140.715 13.6481H145.329V14.4941H141.105L141.543 14.0801L141.309 17.9141L141.087 17.6201C141.335 17.3361 141.635 17.1141 141.987 16.9541C142.339 16.7941 142.709 16.7141 143.097 16.7141C143.629 16.7141 144.109 16.8421 144.537 17.0981C144.965 17.3501 145.305 17.6921 145.557 18.1241C145.809 18.5561 145.935 19.0381 145.935 19.5701C145.935 20.0981 145.801 20.5821 145.533 21.0221C145.265 21.4581 144.909 21.8081 144.465 22.0721C144.021 22.3361 143.531 22.4681 142.995 22.4681ZM147.539 22.2881V21.2621H148.565V22.2881H147.539ZM153.262 13.4741C153.806 13.4741 154.298 13.6061 154.738 13.8701C155.182 14.1301 155.534 14.4861 155.794 14.9381C156.054 15.3861 156.184 15.8901 156.184 16.4501V19.4501C156.184 20.0261 156.054 20.5421 155.794 20.9981C155.534 21.4541 155.178 21.8141 154.726 22.0781C154.278 22.3381 153.768 22.4681 153.196 22.4681C152.704 22.4681 152.248 22.3601 151.828 22.1441C151.412 21.9241 151.068 21.6221 150.796 21.2381L151.468 20.6801C151.652 20.9641 151.896 21.1921 152.2 21.3641C152.508 21.5361 152.84 21.6221 153.196 21.6221C153.604 21.6221 153.964 21.5261 154.276 21.3341C154.592 21.1381 154.84 20.8821 155.02 20.5661C155.204 20.2461 155.296 19.9001 155.296 19.5281V17.6441L155.512 17.8961C155.264 18.2921 154.934 18.6121 154.522 18.8561C154.114 19.1001 153.666 19.2221 153.178 19.2221C152.646 19.2221 152.164 19.0941 151.732 18.8381C151.304 18.5821 150.964 18.2381 150.712 17.8061C150.464 17.3741 150.34 16.8921 150.34 16.3601C150.34 15.8281 150.472 15.3441 150.736 14.9081C151 14.4681 151.354 14.1201 151.798 13.8641C152.242 13.6041 152.73 13.4741 153.262 13.4741ZM153.262 14.3261C152.886 14.3261 152.544 14.4181 152.236 14.6021C151.928 14.7821 151.682 15.0261 151.498 15.3341C151.318 15.6421 151.228 15.9841 151.228 16.3601C151.228 16.7361 151.318 17.0781 151.498 17.3861C151.678 17.6941 151.922 17.9401 152.23 18.1241C152.538 18.3041 152.88 18.3941 153.256 18.3941C153.632 18.3941 153.974 18.3041 154.282 18.1241C154.594 17.9401 154.84 17.6941 155.02 17.3861C155.204 17.0781 155.296 16.7361 155.296 16.3601C155.296 15.9881 155.204 15.6481 155.02 15.3401C154.84 15.0321 154.596 14.7861 154.288 14.6021C153.98 14.4181 153.638 14.3261 153.262 14.3261ZM158.7 22.2881L158.1 21.6881L166.158 13.6481L166.758 14.2421L158.7 22.2881ZM164.958 22.4681C164.562 22.4681 164.2 22.3721 163.872 22.1801C163.548 21.9841 163.288 21.7241 163.092 21.4001C162.896 21.0721 162.798 20.7081 162.798 20.3081C162.798 19.9161 162.898 19.5561 163.098 19.2281C163.298 18.9001 163.562 18.6381 163.89 18.4421C164.218 18.2461 164.574 18.1481 164.958 18.1481C165.354 18.1481 165.716 18.2461 166.044 18.4421C166.372 18.6341 166.632 18.8941 166.824 19.2221C167.02 19.5461 167.118 19.9081 167.118 20.3081C167.118 20.7081 167.02 21.0721 166.824 21.4001C166.632 21.7241 166.372 21.9841 166.044 22.1801C165.716 22.3721 165.354 22.4681 164.958 22.4681ZM164.958 21.6701C165.202 21.6701 165.428 21.6081 165.636 21.4841C165.844 21.3601 166.01 21.1961 166.134 20.9921C166.258 20.7841 166.32 20.5561 166.32 20.3081C166.32 20.0601 166.258 19.8341 166.134 19.6301C166.01 19.4221 165.844 19.2561 165.636 19.1321C165.428 19.0081 165.202 18.9461 164.958 18.9461C164.71 18.9461 164.482 19.0081 164.274 19.1321C164.07 19.2561 163.904 19.4221 163.776 19.6301C163.652 19.8341 163.59 20.0601 163.59 20.3081C163.59 20.5561 163.652 20.7841 163.776 20.9921C163.904 21.1961 164.07 21.3601 164.274 21.4841C164.482 21.6081 164.71 21.6701 164.958 21.6701ZM159.9 17.7881C159.504 17.7881 159.142 17.6921 158.814 17.5001C158.486 17.3041 158.224 17.0441 158.028 16.7201C157.836 16.3921 157.74 16.0281 157.74 15.6281C157.74 15.2361 157.84 14.8761 158.04 14.5481C158.24 14.2201 158.504 13.9581 158.832 13.7621C159.16 13.5661 159.516 13.4681 159.9 13.4681C160.296 13.4681 160.656 13.5661 160.98 13.7621C161.308 13.9541 161.57 14.2141 161.766 14.5421C161.962 14.8661 162.06 15.2281 162.06 15.6281C162.06 16.0281 161.962 16.3921 161.766 16.7201C161.57 17.0441 161.308 17.3041 160.98 17.5001C160.656 17.6921 160.296 17.7881 159.9 17.7881ZM159.9 16.9901C160.148 16.9901 160.374 16.9281 160.578 16.8041C160.786 16.6801 160.952 16.5161 161.076 16.3121C161.2 16.1041 161.262 15.8761 161.262 15.6281C161.262 15.3801 161.2 15.1541 161.076 14.9501C160.952 14.7421 160.786 14.5761 160.578 14.4521C160.374 14.3281 160.148 14.2661 159.9 14.2661C159.652 14.2661 159.424 14.3281 159.216 14.4521C159.012 14.5761 158.848 14.7421 158.724 14.9501C158.6 15.1541 158.538 15.3801 158.538 15.6281C158.538 15.8761 158.6 16.1041 158.724 16.3121C158.848 16.5161 159.012 16.6801 159.216 16.8041C159.424 16.9281 159.652 16.9901 159.9 16.9901Z" fill="#135A62"/>
<path d="M36.6938 11.4741C37.2378 11.4741 37.7298 11.6061 38.1698 11.8701C38.6138 12.1301 38.9658 12.4861 39.2258 12.9381C39.4858 13.3861 39.6158 13.8901 39.6158 14.4501V17.4501C39.6158 18.0261 39.4858 18.5421 39.2258 18.9981C38.9658 19.4541 38.6098 19.8141 38.1578 20.0781C37.7098 20.3381 37.1998 20.4681 36.6278 20.4681C36.1358 20.4681 35.6798 20.3601 35.2598 20.1441C34.8438 19.9241 34.4998 19.6221 34.2278 19.2381L34.8998 18.6801C35.0838 18.9641 35.3278 19.1921 35.6318 19.3641C35.9398 19.5361 36.2718 19.6221 36.6278 19.6221C37.0358 19.6221 37.3958 19.5261 37.7078 19.3341C38.0238 19.1381 38.2718 18.8821 38.4518 18.5661C38.6358 18.2461 38.7278 17.9001 38.7278 17.5281V15.6441L38.9438 15.8961C38.6958 16.2921 38.3658 16.6121 37.9538 16.8561C37.5458 17.1001 37.0978 17.2221 36.6098 17.2221C36.0778 17.2221 35.5958 17.0941 35.1638 16.8381C34.7358 16.5821 34.3958 16.2381 34.1438 15.8061C33.8958 15.3741 33.7718 14.8921 33.7718 14.3601C33.7718 13.8281 33.9038 13.3441 34.1678 12.9081C34.4318 12.4681 34.7858 12.1201 35.2298 11.8641C35.6738 11.6041 36.1618 11.4741 36.6938 11.4741ZM36.6938 12.3261C36.3178 12.3261 35.9758 12.4181 35.6678 12.6021C35.3598 12.7821 35.1138 13.0261 34.9298 13.3341C34.7498 13.6421 34.6598 13.9841 34.6598 14.3601C34.6598 14.7361 34.7498 15.0781 34.9298 15.3861C35.1098 15.6941 35.3538 15.9401 35.6618 16.1241C35.9698 16.3041 36.3118 16.3941 36.6878 16.3941C37.0638 16.3941 37.4058 16.3041 37.7138 16.1241C38.0258 15.9401 38.2718 15.6941 38.4518 15.3861C38.6358 15.0781 38.7278 14.7361 38.7278 14.3601C38.7278 13.9881 38.6358 13.6481 38.4518 13.3401C38.2718 13.0321 38.0278 12.7861 37.7198 12.6021C37.4118 12.4181 37.0698 12.3261 36.6938 12.3261ZM44.2132 20.4681C43.6732 20.4681 43.1812 20.3381 42.7372 20.0781C42.2972 19.8141 41.9452 19.4581 41.6812 19.0101C41.4212 18.5581 41.2912 18.0501 41.2912 17.4861V14.4921C41.2912 13.9121 41.4212 13.3961 41.6812 12.9441C41.9412 12.4881 42.2952 12.1301 42.7432 11.8701C43.1952 11.6061 43.7072 11.4741 44.2792 11.4741C44.7712 11.4741 45.2272 11.5821 45.6472 11.7981C46.0712 12.0141 46.4172 12.3161 46.6852 12.7041L46.0072 13.2621C45.8232 12.9741 45.5792 12.7441 45.2752 12.5721C44.9712 12.4001 44.6392 12.3141 44.2792 12.3141C43.8752 12.3141 43.5152 12.4121 43.1992 12.6081C42.8832 12.8041 42.6352 13.0621 42.4552 13.3821C42.2752 13.6981 42.1852 14.0421 42.1852 14.4141V16.2981L41.9632 16.0461C42.2152 15.6501 42.5452 15.3301 42.9532 15.0861C43.3652 14.8421 43.8132 14.7201 44.2972 14.7201C44.8332 14.7201 45.3152 14.8481 45.7432 15.1041C46.1712 15.3561 46.5112 15.6981 46.7632 16.1301C47.0152 16.5621 47.1412 17.0461 47.1412 17.5821C47.1412 18.1141 47.0072 18.5981 46.7392 19.0341C46.4752 19.4701 46.1212 19.8181 45.6772 20.0781C45.2372 20.3381 44.7492 20.4681 44.2132 20.4681ZM44.2132 19.6101C44.5892 19.6101 44.9312 19.5201 45.2392 19.3401C45.5512 19.1601 45.7972 18.9161 45.9772 18.6081C46.1612 18.3001 46.2532 17.9581 46.2532 17.5821C46.2532 17.2061 46.1612 16.8641 45.9772 16.5561C45.7972 16.2441 45.5532 15.9981 45.2452 15.8181C44.9372 15.6341 44.5952 15.5421 44.2192 15.5421C43.8432 15.5421 43.5012 15.6341 43.1932 15.8181C42.8852 15.9981 42.6392 16.2441 42.4552 16.5561C42.2752 16.8641 42.1852 17.2061 42.1852 17.5821C42.1852 17.9541 42.2752 18.2941 42.4552 18.6021C42.6352 18.9101 42.8792 19.1561 43.1872 19.3401C43.4952 19.5201 43.8372 19.6101 44.2132 19.6101ZM48.9006 20.2881V19.2621H49.9266V20.2881H48.9006ZM51.844 20.2881V12.6321L50.218 13.6101V12.6201L51.844 11.6481H52.738V20.2881H51.844ZM55.8538 20.2881L55.2538 19.6881L63.3118 11.6481L63.9118 12.2421L55.8538 20.2881ZM62.1118 20.4681C61.7158 20.4681 61.3538 20.3721 61.0258 20.1801C60.7018 19.9841 60.4418 19.7241 60.2458 19.4001C60.0498 19.0721 59.9518 18.7081 59.9518 18.3081C59.9518 17.9161 60.0518 17.5561 60.2518 17.2281C60.4518 16.9001 60.7158 16.6381 61.0438 16.4421C61.3718 16.2461 61.7278 16.1481 62.1118 16.1481C62.5078 16.1481 62.8698 16.2461 63.1978 16.4421C63.5258 16.6341 63.7858 16.8941 63.9778 17.2221C64.1738 17.5461 64.2718 17.9081 64.2718 18.3081C64.2718 18.7081 64.1738 19.0721 63.9778 19.4001C63.7858 19.7241 63.5258 19.9841 63.1978 20.1801C62.8698 20.3721 62.5078 20.4681 62.1118 20.4681ZM62.1118 19.6701C62.3558 19.6701 62.5818 19.6081 62.7898 19.4841C62.9978 19.3601 63.1638 19.1961 63.2878 18.9921C63.4118 18.7841 63.4738 18.5561 63.4738 18.3081C63.4738 18.0601 63.4118 17.8341 63.2878 17.6301C63.1638 17.4221 62.9978 17.2561 62.7898 17.1321C62.5818 17.0081 62.3558 16.9461 62.1118 16.9461C61.8638 16.9461 61.6358 17.0081 61.4278 17.1321C61.2238 17.2561 61.0578 17.4221 60.9298 17.6301C60.8058 17.8341 60.7438 18.0601 60.7438 18.3081C60.7438 18.5561 60.8058 18.7841 60.9298 18.9921C61.0578 19.1961 61.2238 19.3601 61.4278 19.4841C61.6358 19.6081 61.8638 19.6701 62.1118 19.6701ZM57.0538 15.7881C56.6578 15.7881 56.2958 15.6921 55.9678 15.5001C55.6398 15.3041 55.3778 15.0441 55.1818 14.7201C54.9898 14.3921 54.8938 14.0281 54.8938 13.6281C54.8938 13.2361 54.9938 12.8761 55.1938 12.5481C55.3938 12.2201 55.6578 11.9581 55.9858 11.7621C56.3138 11.5661 56.6698 11.4681 57.0538 11.4681C57.4498 11.4681 57.8098 11.5661 58.1338 11.7621C58.4618 11.9541 58.7238 12.2141 58.9198 12.5421C59.1158 12.8661 59.2138 13.2281 59.2138 13.6281C59.2138 14.0281 59.1158 14.3921 58.9198 14.7201C58.7238 15.0441 58.4618 15.3041 58.1338 15.5001C57.8098 15.6921 57.4498 15.7881 57.0538 15.7881ZM57.0538 14.9901C57.3018 14.9901 57.5278 14.9281 57.7318 14.8041C57.9398 14.6801 58.1058 14.5161 58.2298 14.3121C58.3538 14.1041 58.4158 13.8761 58.4158 13.6281C58.4158 13.3801 58.3538 13.1541 58.2298 12.9501C58.1058 12.7421 57.9398 12.5761 57.7318 12.4521C57.5278 12.3281 57.3018 12.2661 57.0538 12.2661C56.8058 12.2661 56.5778 12.3281 56.3698 12.4521C56.1658 12.5761 56.0018 12.7421 55.8778 12.9501C55.7538 13.1541 55.6918 13.3801 55.6918 13.6281C55.6918 13.8761 55.7538 14.1041 55.8778 14.3121C56.0018 14.5161 56.1658 14.6801 56.3698 14.8041C56.5778 14.9281 56.8058 14.9901 57.0538 14.9901Z" fill="#135A62"/>
<path d="M235.799 8.47409C236.343 8.47409 236.835 8.60609 237.275 8.87009C237.719 9.13009 238.071 9.48609 238.331 9.93809C238.591 10.3861 238.721 10.8901 238.721 11.4501V14.4501C238.721 15.0261 238.591 15.5421 238.331 15.9981C238.071 16.4541 237.715 16.8141 237.263 17.0781C236.815 17.3381 236.305 17.4681 235.733 17.4681C235.241 17.4681 234.785 17.3601 234.365 17.1441C233.949 16.9241 233.605 16.6221 233.333 16.2381L234.005 15.6801C234.189 15.9641 234.433 16.1921 234.737 16.3641C235.045 16.5361 235.377 16.6221 235.733 16.6221C236.141 16.6221 236.501 16.5261 236.813 16.3341C237.129 16.1381 237.377 15.8821 237.557 15.5661C237.741 15.2461 237.833 14.9001 237.833 14.5281V12.6441L238.049 12.8961C237.801 13.2921 237.471 13.6121 237.059 13.8561C236.651 14.1001 236.203 14.2221 235.715 14.2221C235.183 14.2221 234.701 14.0941 234.269 13.8381C233.841 13.5821 233.501 13.2381 233.249 12.8061C233.001 12.3741 232.877 11.8921 232.877 11.3601C232.877 10.8281 233.009 10.3441 233.273 9.90809C233.537 9.46809 233.891 9.12009 234.335 8.86409C234.779 8.60409 235.267 8.47409 235.799 8.47409ZM235.799 9.32609C235.423 9.32609 235.081 9.41809 234.773 9.60209C234.465 9.78209 234.219 10.0261 234.035 10.3341C233.855 10.6421 233.765 10.9841 233.765 11.3601C233.765 11.7361 233.855 12.0781 234.035 12.3861C234.215 12.6941 234.459 12.9401 234.767 13.1241C235.075 13.3041 235.417 13.3941 235.793 13.3941C236.169 13.3941 236.511 13.3041 236.819 13.1241C237.131 12.9401 237.377 12.6941 237.557 12.3861C237.741 12.0781 237.833 11.7361 237.833 11.3601C237.833 10.9881 237.741 10.6481 237.557 10.3401C237.377 10.0321 237.133 9.78609 236.825 9.60209C236.517 9.41809 236.175 9.32609 235.799 9.32609ZM243.319 17.4681C242.779 17.4681 242.287 17.3381 241.843 17.0781C241.403 16.8141 241.051 16.4581 240.787 16.0101C240.527 15.5581 240.397 15.0501 240.397 14.4861V11.4921C240.397 10.9121 240.527 10.3961 240.787 9.94409C241.047 9.48809 241.401 9.13009 241.849 8.87009C242.301 8.60609 242.813 8.47409 243.385 8.47409C243.877 8.47409 244.333 8.58209 244.753 8.79809C245.177 9.01409 245.523 9.31609 245.791 9.70409L245.113 10.2621C244.929 9.97409 244.685 9.74409 244.381 9.57209C244.077 9.40009 243.745 9.31409 243.385 9.31409C242.981 9.31409 242.621 9.41209 242.305 9.60809C241.989 9.80409 241.741 10.0621 241.561 10.3821C241.381 10.6981 241.291 11.0421 241.291 11.4141V13.2981L241.069 13.0461C241.321 12.6501 241.651 12.3301 242.059 12.0861C242.471 11.8421 242.919 11.7201 243.403 11.7201C243.939 11.7201 244.421 11.8481 244.849 12.1041C245.277 12.3561 245.617 12.6981 245.869 13.1301C246.121 13.5621 246.247 14.0461 246.247 14.5821C246.247 15.1141 246.113 15.5981 245.845 16.0341C245.581 16.4701 245.227 16.8181 244.783 17.0781C244.343 17.3381 243.855 17.4681 243.319 17.4681ZM243.319 16.6101C243.695 16.6101 244.037 16.5201 244.345 16.3401C244.657 16.1601 244.903 15.9161 245.083 15.6081C245.267 15.3001 245.359 14.9581 245.359 14.5821C245.359 14.2061 245.267 13.8641 245.083 13.5561C244.903 13.2441 244.659 12.9981 244.351 12.8181C244.043 12.6341 243.701 12.5421 243.325 12.5421C242.949 12.5421 242.607 12.6341 242.299 12.8181C241.991 12.9981 241.745 13.2441 241.561 13.5561C241.381 13.8641 241.291 14.2061 241.291 14.5821C241.291 14.9541 241.381 15.2941 241.561 15.6021C241.741 15.9101 241.985 16.1561 242.293 16.3401C242.601 16.5201 242.943 16.6101 243.319 16.6101ZM248.006 17.2881V16.2621H249.032V17.2881H248.006ZM251.347 17.2881L254.527 9.50609H250.525V8.64809H255.469V9.50609L252.295 17.2881H251.347ZM257.748 17.2881L257.148 16.6881L265.206 8.64809L265.806 9.24209L257.748 17.2881ZM264.006 17.4681C263.61 17.4681 263.248 17.3721 262.92 17.1801C262.596 16.9841 262.336 16.7241 262.14 16.4001C261.944 16.0721 261.846 15.7081 261.846 15.3081C261.846 14.9161 261.946 14.5561 262.146 14.2281C262.346 13.9001 262.61 13.6381 262.938 13.4421C263.266 13.2461 263.622 13.1481 264.006 13.1481C264.402 13.1481 264.764 13.2461 265.092 13.4421C265.42 13.6341 265.68 13.8941 265.872 14.2221C266.068 14.5461 266.166 14.9081 266.166 15.3081C266.166 15.7081 266.068 16.0721 265.872 16.4001C265.68 16.7241 265.42 16.9841 265.092 17.1801C264.764 17.3721 264.402 17.4681 264.006 17.4681ZM264.006 16.6701C264.25 16.6701 264.476 16.6081 264.684 16.4841C264.892 16.3601 265.058 16.1961 265.182 15.9921C265.306 15.7841 265.368 15.5561 265.368 15.3081C265.368 15.0601 265.306 14.8341 265.182 14.6301C265.058 14.4221 264.892 14.2561 264.684 14.1321C264.476 14.0081 264.25 13.9461 264.006 13.9461C263.758 13.9461 263.53 14.0081 263.322 14.1321C263.118 14.2561 262.952 14.4221 262.824 14.6301C262.7 14.8341 262.638 15.0601 262.638 15.3081C262.638 15.5561 262.7 15.7841 262.824 15.9921C262.952 16.1961 263.118 16.3601 263.322 16.4841C263.53 16.6081 263.758 16.6701 264.006 16.6701ZM258.948 12.7881C258.552 12.7881 258.19 12.6921 257.862 12.5001C257.534 12.3041 257.272 12.0441 257.076 11.7201C256.884 11.3921 256.788 11.0281 256.788 10.6281C256.788 10.2361 256.888 9.87609 257.088 9.54809C257.288 9.22009 257.552 8.95809 257.88 8.76209C258.208 8.56609 258.564 8.46809 258.948 8.46809C259.344 8.46809 259.704 8.56609 260.028 8.76209C260.356 8.95409 260.618 9.21409 260.814 9.54209C261.01 9.86609 261.108 10.2281 261.108 10.6281C261.108 11.0281 261.01 11.3921 260.814 11.7201C260.618 12.0441 260.356 12.3041 260.028 12.5001C259.704 12.6921 259.344 12.7881 258.948 12.7881ZM258.948 11.9901C259.196 11.9901 259.422 11.9281 259.626 11.8041C259.834 11.6801 260 11.5161 260.124 11.3121C260.248 11.1041 260.31 10.8761 260.31 10.6281C260.31 10.3801 260.248 10.1541 260.124 9.95009C260 9.74209 259.834 9.57609 259.626 9.45209C259.422 9.32809 259.196 9.26609 258.948 9.26609C258.7 9.26609 258.472 9.32809 258.264 9.45209C258.06 9.57609 257.896 9.74209 257.772 9.95009C257.648 10.1541 257.586 10.3801 257.586 10.6281C257.586 10.8761 257.648 11.1041 257.772 11.3121C257.896 11.5161 258.06 11.6801 258.264 11.8041C258.472 11.9281 258.7 11.9901 258.948 11.9901Z" fill="#135A62"/>
<path d="M436.776 14.2881V6.63209L435.15 7.61009V6.62009L436.776 5.64809H437.67V14.2881H436.776ZM442.765 14.4681C442.233 14.4681 441.753 14.3441 441.325 14.0961C440.901 13.8481 440.565 13.5121 440.317 13.0881C440.069 12.6601 439.945 12.1801 439.945 11.6481V8.28809C439.945 7.75609 440.069 7.27809 440.317 6.85409C440.565 6.42609 440.901 6.08809 441.325 5.84009C441.753 5.59209 442.233 5.46809 442.765 5.46809C443.297 5.46809 443.775 5.59209 444.199 5.84009C444.627 6.08809 444.965 6.42609 445.213 6.85409C445.461 7.27809 445.585 7.75609 445.585 8.28809V11.6481C445.585 12.1801 445.461 12.6601 445.213 13.0881C444.965 13.5121 444.627 13.8481 444.199 14.0961C443.775 14.3441 443.297 14.4681 442.765 14.4681ZM442.765 13.6161C443.121 13.6161 443.445 13.5301 443.737 13.3581C444.029 13.1821 444.261 12.9481 444.433 12.6561C444.605 12.3641 444.691 12.0421 444.691 11.6901V8.24609C444.691 7.89009 444.605 7.56609 444.433 7.27409C444.261 6.98209 444.029 6.75009 443.737 6.57809C443.445 6.40209 443.121 6.31409 442.765 6.31409C442.409 6.31409 442.085 6.40209 441.793 6.57809C441.501 6.75009 441.269 6.98209 441.097 7.27409C440.925 7.56609 440.839 7.89009 440.839 8.24609V11.6901C440.839 12.0421 440.925 12.3641 441.097 12.6561C441.269 12.9481 441.501 13.1821 441.793 13.3581C442.085 13.5301 442.409 13.6161 442.765 13.6161ZM450.09 14.4681C449.558 14.4681 449.078 14.3441 448.65 14.0961C448.226 13.8481 447.89 13.5121 447.642 13.0881C447.394 12.6601 447.27 12.1801 447.27 11.6481V8.28809C447.27 7.75609 447.394 7.27809 447.642 6.85409C447.89 6.42609 448.226 6.08809 448.65 5.84009C449.078 5.59209 449.558 5.46809 450.09 5.46809C450.622 5.46809 451.1 5.59209 451.524 5.84009C451.952 6.08809 452.29 6.42609 452.538 6.85409C452.786 7.27809 452.91 7.75609 452.91 8.28809V11.6481C452.91 12.1801 452.786 12.6601 452.538 13.0881C452.29 13.5121 451.952 13.8481 451.524 14.0961C451.1 14.3441 450.622 14.4681 450.09 14.4681ZM450.09 13.6161C450.446 13.6161 450.77 13.5301 451.062 13.3581C451.354 13.1821 451.586 12.9481 451.758 12.6561C451.93 12.3641 452.016 12.0421 452.016 11.6901V8.24609C452.016 7.89009 451.93 7.56609 451.758 7.27409C451.586 6.98209 451.354 6.75009 451.062 6.57809C450.77 6.40209 450.446 6.31409 450.09 6.31409C449.734 6.31409 449.41 6.40209 449.118 6.57809C448.826 6.75009 448.594 6.98209 448.422 7.27409C448.25 7.56609 448.164 7.89009 448.164 8.24609V11.6901C448.164 12.0421 448.25 12.3641 448.422 12.6561C448.594 12.9481 448.826 13.1821 449.118 13.3581C449.41 13.5301 449.734 13.6161 450.09 13.6161ZM455.434 14.2881L454.834 13.6881L462.892 5.64809L463.492 6.24209L455.434 14.2881ZM461.692 14.4681C461.296 14.4681 460.934 14.3721 460.606 14.1801C460.282 13.9841 460.022 13.7241 459.826 13.4001C459.63 13.0721 459.532 12.7081 459.532 12.3081C459.532 11.9161 459.632 11.5561 459.832 11.2281C460.032 10.9001 460.296 10.6381 460.624 10.4421C460.952 10.2461 461.308 10.1481 461.692 10.1481C462.088 10.1481 462.45 10.2461 462.778 10.4421C463.106 10.6341 463.366 10.8941 463.558 11.2221C463.754 11.5461 463.852 11.9081 463.852 12.3081C463.852 12.7081 463.754 13.0721 463.558 13.4001C463.366 13.7241 463.106 13.9841 462.778 14.1801C462.45 14.3721 462.088 14.4681 461.692 14.4681ZM461.692 13.6701C461.936 13.6701 462.162 13.6081 462.37 13.4841C462.578 13.3601 462.744 13.1961 462.868 12.9921C462.992 12.7841 463.054 12.5561 463.054 12.3081C463.054 12.0601 462.992 11.8341 462.868 11.6301C462.744 11.4221 462.578 11.2561 462.37 11.1321C462.162 11.0081 461.936 10.9461 461.692 10.9461C461.444 10.9461 461.216 11.0081 461.008 11.1321C460.804 11.2561 460.638 11.4221 460.51 11.6301C460.386 11.8341 460.324 12.0601 460.324 12.3081C460.324 12.5561 460.386 12.7841 460.51 12.9921C460.638 13.1961 460.804 13.3601 461.008 13.4841C461.216 13.6081 461.444 13.6701 461.692 13.6701ZM456.634 9.78809C456.238 9.78809 455.876 9.69209 455.548 9.50009C455.22 9.30409 454.958 9.04409 454.762 8.72009C454.57 8.39209 454.474 8.02809 454.474 7.62809C454.474 7.23609 454.574 6.87609 454.774 6.54809C454.974 6.22009 455.238 5.95809 455.566 5.76209C455.894 5.56609 456.25 5.46809 456.634 5.46809C457.03 5.46809 457.39 5.56609 457.714 5.76209C458.042 5.95409 458.304 6.21409 458.5 6.54209C458.696 6.86609 458.794 7.22809 458.794 7.62809C458.794 8.02809 458.696 8.39209 458.5 8.72009C458.304 9.04409 458.042 9.30409 457.714 9.50009C457.39 9.69209 457.03 9.78809 456.634 9.78809ZM456.634 8.99009C456.882 8.99009 457.108 8.92809 457.312 8.80409C457.52 8.68009 457.686 8.51609 457.81 8.31209C457.934 8.10409 457.996 7.87609 457.996 7.62809C457.996 7.38009 457.934 7.15409 457.81 6.95009C457.686 6.74209 457.52 6.57609 457.312 6.45209C457.108 6.32809 456.882 6.26609 456.634 6.26609C456.386 6.26609 456.158 6.32809 455.95 6.45209C455.746 6.57609 455.582 6.74209 455.458 6.95009C455.334 7.15409 455.272 7.38009 455.272 7.62809C455.272 7.87609 455.334 8.10409 455.458 8.31209C455.582 8.51609 455.746 8.68009 455.95 8.80409C456.158 8.92809 456.386 8.99009 456.634 8.99009Z" fill="#135A62"/>
<path d="M336.954 19.4741C337.498 19.4741 337.99 19.6061 338.43 19.8701C338.874 20.1301 339.226 20.4861 339.486 20.9381C339.746 21.3861 339.876 21.8901 339.876 22.4501V25.4501C339.876 26.0261 339.746 26.5421 339.486 26.9981C339.226 27.4541 338.87 27.8141 338.418 28.0781C337.97 28.3381 337.46 28.4681 336.888 28.4681C336.396 28.4681 335.94 28.3601 335.52 28.1441C335.104 27.9241 334.76 27.6221 334.488 27.2381L335.16 26.6801C335.344 26.9641 335.588 27.1921 335.892 27.3641C336.2 27.5361 336.532 27.6221 336.888 27.6221C337.296 27.6221 337.656 27.5261 337.968 27.3341C338.284 27.1381 338.532 26.8821 338.712 26.5661C338.896 26.2461 338.988 25.9001 338.988 25.5281V23.6441L339.204 23.8961C338.956 24.2921 338.626 24.6121 338.214 24.8561C337.806 25.1001 337.358 25.2221 336.87 25.2221C336.338 25.2221 335.856 25.0941 335.424 24.8381C334.996 24.5821 334.656 24.2381 334.404 23.8061C334.156 23.3741 334.032 22.8921 334.032 22.3601C334.032 21.8281 334.164 21.3441 334.428 20.9081C334.692 20.4681 335.046 20.1201 335.49 19.8641C335.934 19.6041 336.422 19.4741 336.954 19.4741ZM336.954 20.3261C336.578 20.3261 336.236 20.4181 335.928 20.6021C335.62 20.7821 335.374 21.0261 335.19 21.3341C335.01 21.6421 334.92 21.9841 334.92 22.3601C334.92 22.7361 335.01 23.0781 335.19 23.3861C335.37 23.6941 335.614 23.9401 335.922 24.1241C336.23 24.3041 336.572 24.3941 336.948 24.3941C337.324 24.3941 337.666 24.3041 337.974 24.1241C338.286 23.9401 338.532 23.6941 338.712 23.3861C338.896 23.0781 338.988 22.7361 338.988 22.3601C338.988 21.9881 338.896 21.6481 338.712 21.3401C338.532 21.0321 338.288 20.7861 337.98 20.6021C337.672 20.4181 337.33 20.3261 336.954 20.3261ZM343.057 28.2881V20.6321L341.431 21.6101V20.6201L343.057 19.6481H343.951V28.2881H343.057ZM345.914 28.2881V27.2621H346.94V28.2881H345.914ZM351.427 28.4681C350.887 28.4681 350.409 28.3601 349.993 28.1441C349.581 27.9281 349.257 27.6261 349.021 27.2381C348.789 26.8461 348.673 26.3881 348.673 25.8641C348.673 25.3281 348.803 24.8521 349.063 24.4361C349.323 24.0161 349.719 23.6981 350.251 23.4821L350.239 23.8301C349.795 23.6661 349.457 23.3981 349.225 23.0261C348.993 22.6541 348.877 22.2421 348.877 21.7901C348.877 21.3101 348.987 20.8981 349.207 20.5541C349.427 20.2061 349.727 19.9381 350.107 19.7501C350.491 19.5621 350.931 19.4681 351.427 19.4681C351.923 19.4681 352.363 19.5621 352.747 19.7501C353.131 19.9381 353.433 20.2061 353.653 20.5541C353.873 20.8981 353.983 21.3101 353.983 21.7901C353.983 22.2421 353.871 22.6521 353.647 23.0201C353.427 23.3881 353.089 23.6581 352.633 23.8301L352.603 23.4821C353.135 23.6941 353.533 24.0101 353.797 24.4301C354.065 24.8501 354.199 25.3281 354.199 25.8641C354.199 26.3881 354.081 26.8461 353.845 27.2381C353.609 27.6261 353.283 27.9281 352.867 28.1441C352.451 28.3601 351.971 28.4681 351.427 28.4681ZM351.427 27.6221C351.971 27.6221 352.413 27.4721 352.753 27.1721C353.093 26.8681 353.263 26.4321 353.263 25.8641C353.263 25.2881 353.095 24.8521 352.759 24.5561C352.423 24.2561 351.979 24.1061 351.427 24.1061C350.875 24.1061 350.433 24.2561 350.101 24.5561C349.769 24.8521 349.603 25.2881 349.603 25.8641C349.603 26.4321 349.771 26.8681 350.107 27.1721C350.443 27.4721 350.883 27.6221 351.427 27.6221ZM351.427 23.2541C351.907 23.2541 352.297 23.1321 352.597 22.8881C352.897 22.6401 353.047 22.2741 353.047 21.7901C353.047 21.3061 352.897 20.9441 352.597 20.7041C352.297 20.4601 351.907 20.3381 351.427 20.3381C350.947 20.3381 350.557 20.4601 350.257 20.7041C349.961 20.9441 349.813 21.3061 349.813 21.7901C349.813 22.2741 349.961 22.6401 350.257 22.8881C350.557 23.1321 350.947 23.2541 351.427 23.2541ZM356.594 28.2881L355.994 27.6881L364.052 19.6481L364.652 20.2421L356.594 28.2881ZM362.852 28.4681C362.456 28.4681 362.094 28.3721 361.766 28.1801C361.442 27.9841 361.182 27.7241 360.986 27.4001C360.79 27.0721 360.692 26.7081 360.692 26.3081C360.692 25.9161 360.792 25.5561 360.992 25.2281C361.192 24.9001 361.456 24.6381 361.784 24.4421C362.112 24.2461 362.468 24.1481 362.852 24.1481C363.248 24.1481 363.61 24.2461 363.938 24.4421C364.266 24.6341 364.526 24.8941 364.718 25.2221C364.914 25.5461 365.012 25.9081 365.012 26.3081C365.012 26.7081 364.914 27.0721 364.718 27.4001C364.526 27.7241 364.266 27.9841 363.938 28.1801C363.61 28.3721 363.248 28.4681 362.852 28.4681ZM362.852 27.6701C363.096 27.6701 363.322 27.6081 363.53 27.4841C363.738 27.3601 363.904 27.1961 364.028 26.9921C364.152 26.7841 364.214 26.5561 364.214 26.3081C364.214 26.0601 364.152 25.8341 364.028 25.6301C363.904 25.4221 363.738 25.2561 363.53 25.1321C363.322 25.0081 363.096 24.9461 362.852 24.9461C362.604 24.9461 362.376 25.0081 362.168 25.1321C361.964 25.2561 361.798 25.4221 361.67 25.6301C361.546 25.8341 361.484 26.0601 361.484 26.3081C361.484 26.5561 361.546 26.7841 361.67 26.9921C361.798 27.1961 361.964 27.3601 362.168 27.4841C362.376 27.6081 362.604 27.6701 362.852 27.6701ZM357.794 23.7881C357.398 23.7881 357.036 23.6921 356.708 23.5001C356.38 23.3041 356.118 23.0441 355.922 22.7201C355.73 22.3921 355.634 22.0281 355.634 21.6281C355.634 21.2361 355.734 20.8761 355.934 20.5481C356.134 20.2201 356.398 19.9581 356.726 19.7621C357.054 19.5661 357.41 19.4681 357.794 19.4681C358.19 19.4681 358.55 19.5661 358.874 19.7621C359.202 19.9541 359.464 20.2141 359.66 20.5421C359.856 20.8661 359.954 21.2281 359.954 21.6281C359.954 22.0281 359.856 22.3921 359.66 22.7201C359.464 23.0441 359.202 23.3041 358.874 23.5001C358.55 23.6921 358.19 23.7881 357.794 23.7881ZM357.794 22.9901C358.042 22.9901 358.268 22.9281 358.472 22.8041C358.68 22.6801 358.846 22.5161 358.97 22.3121C359.094 22.1041 359.156 21.8761 359.156 21.6281C359.156 21.3801 359.094 21.1541 358.97 20.9501C358.846 20.7421 358.68 20.5761 358.472 20.4521C358.268 20.3281 358.042 20.2661 357.794 20.2661C357.546 20.2661 357.318 20.3281 357.11 20.4521C356.906 20.5761 356.742 20.7421 356.618 20.9501C356.494 21.1541 356.432 21.3801 356.432 21.6281C356.432 21.8761 356.494 22.1041 356.618 22.3121C356.742 22.5161 356.906 22.6801 357.11 22.8041C357.318 22.9281 357.546 22.9901 357.794 22.9901Z" fill="#135A62"/>
</svg>
