<svg width="24" height="19" viewBox="0 0 24 19" fill="none" xmlns="http://www.w3.org/2000/svg">
<path d="M5.8125 5.875C4.79297 5.875 3.87891 5.34766 3.35156 4.46875C2.85938 3.625 2.85938 2.53516 3.35156 1.65625C3.87891 0.8125 4.79297 0.25 5.8125 0.25C6.79688 0.25 7.71094 0.8125 8.23828 1.65625C8.73047 2.53516 8.73047 3.625 8.23828 4.46875C7.71094 5.34766 6.79688 5.875 5.8125 5.875ZM18.75 5.875C17.7305 5.875 16.8164 5.34766 16.2891 4.46875C15.7969 3.625 15.7969 2.53516 16.2891 1.65625C16.8164 0.8125 17.7305 0.25 18.75 0.25C19.7344 0.25 20.6484 0.8125 21.1758 1.65625C21.668 2.53516 21.668 3.625 21.1758 4.46875C20.6484 5.34766 19.7344 5.875 18.75 5.875ZM0.75 10.7617C0.75 8.6875 2.40234 7 4.47656 7H5.98828C6.55078 7 7.07812 7.14062 7.57031 7.35156C7.5 7.59766 7.5 7.87891 7.5 8.125C7.5 9.49609 8.0625 10.6914 9.01172 11.5H8.97656H1.48828C1.06641 11.5 0.75 11.1836 0.75 10.7617ZM14.9883 11.5H14.9531C15.9023 10.6914 16.5 9.49609 16.5 8.125C16.5 7.87891 16.4648 7.59766 16.4297 7.35156C16.8867 7.14062 17.4141 7 17.9766 7H19.4883C21.5625 7 23.25 8.6875 23.25 10.7617C23.25 11.1836 22.8984 11.5 22.4766 11.5H14.9883ZM12 6.4375C11.3672 6.4375 10.8398 6.78906 10.5234 7.28125C10.207 7.80859 10.207 8.47656 10.5234 8.96875C10.8398 9.49609 11.3672 9.8125 12 9.8125C12.5977 9.8125 13.125 9.49609 13.4414 8.96875C13.7578 8.47656 13.7578 7.80859 13.4414 7.28125C13.125 6.78906 12.5977 6.4375 12 6.4375ZM12 11.5C10.7695 11.5 9.67969 10.8672 9.04688 9.8125C8.44922 8.79297 8.44922 7.49219 9.04688 6.4375C9.67969 5.41797 10.7695 4.75 12 4.75C13.1953 4.75 14.2852 5.41797 14.918 6.4375C15.5156 7.49219 15.5156 8.79297 14.918 9.8125C14.2852 10.8672 13.1953 11.5 12 11.5ZM9.92578 14.3125C8.51953 14.3125 7.35938 15.2969 7.00781 16.5625H16.957C16.6055 15.2969 15.4453 14.3125 14.0391 14.3125H9.92578ZM9.92578 12.625H14.0391C16.6406 12.625 18.75 14.7344 18.75 17.3359C18.75 17.8633 18.3281 18.25 17.8008 18.25H6.16406C5.63672 18.25 5.25 17.8281 5.25 17.3359C5.25 14.7344 7.32422 12.625 9.92578 12.625Z" fill="#011445"/>
</svg>
