<svg width="25" height="21" viewBox="0 0 25 21" fill="none" xmlns="http://www.w3.org/2000/svg">
<path d="M5.625 0.699951C6.71875 0.699951 7.73438 1.32495 8.32031 2.26245C8.86719 3.23901 8.86719 4.44995 8.32031 5.38745C7.73438 6.36401 6.71875 6.94995 5.625 6.94995C4.49219 6.94995 3.47656 6.36401 2.89062 5.38745C2.34375 4.44995 2.34375 3.23901 2.89062 2.26245C3.47656 1.32495 4.49219 0.699951 5.625 0.699951ZM20 0.699951C21.0938 0.699951 22.1094 1.32495 22.6953 2.26245C23.2422 3.23901 23.2422 4.44995 22.6953 5.38745C22.1094 6.36401 21.0938 6.94995 20 6.94995C18.8672 6.94995 17.8516 6.36401 17.2656 5.38745C16.7188 4.44995 16.7188 3.23901 17.2656 2.26245C17.8516 1.32495 18.8672 0.699951 20 0.699951ZM0 12.3796C0 10.075 1.83594 8.19995 4.14062 8.19995H5.82031C6.44531 8.19995 7.03125 8.3562 7.57812 8.59058C7.5 8.86401 7.5 9.17651 7.5 9.44995C7.5 10.9734 8.125 12.3015 9.17969 13.2C9.17969 13.2 9.17969 13.2 9.14062 13.2H0.820312C0.351562 13.2 0 12.8484 0 12.3796ZM15.8203 13.2H15.7812C16.8359 12.3015 17.4609 10.9734 17.4609 9.44995C17.4609 9.17651 17.4609 8.86401 17.4219 8.59058C17.9297 8.3562 18.5156 8.19995 19.1406 8.19995H20.8203C23.125 8.19995 25 10.075 25 12.3796C25 12.8484 24.6094 13.2 24.1406 13.2H15.8203ZM8.75 9.44995C8.75 8.12183 9.45312 6.91089 10.625 6.20776C11.7578 5.5437 13.2031 5.5437 14.375 6.20776C15.5078 6.91089 16.25 8.12183 16.25 9.44995C16.25 10.8171 15.5078 12.0281 14.375 12.7312C13.2031 13.3953 11.7578 13.3953 10.625 12.7312C9.45312 12.0281 8.75 10.8171 8.75 9.44995ZM5 19.6843C5 16.7937 7.30469 14.45 10.1953 14.45H14.7656C17.6562 14.45 20 16.7937 20 19.6843C20 20.2312 19.5312 20.7 18.9453 20.7H6.01562C5.46875 20.7 5 20.2703 5 19.6843Z" fill="#00AEFF"/>
</svg>
