<svg width="50" height="36" viewBox="0 0 50 36" fill="none" xmlns="http://www.w3.org/2000/svg">
<path d="M5.625 5.375C5.625 3.8125 6.40625 2.40625 7.8125 1.625C9.14062 0.84375 10.7812 0.84375 12.1875 1.625C13.5156 2.40625 14.375 3.8125 14.375 5.375C14.375 7.01562 13.5156 8.42188 12.1875 9.20312C10.7812 9.98438 9.14062 9.98438 7.8125 9.20312C6.40625 8.42188 5.625 7.01562 5.625 5.375ZM5 17.7188C4.21875 18.5781 3.75 19.75 3.75 21C3.75 22.3281 4.21875 23.5 5 24.3594V17.7188ZM16.25 13.8906C13.9062 15.9219 12.5 18.9688 12.5 22.25C12.5 24.9844 13.4375 27.4062 15 29.3594V31C15 32.4062 13.8281 33.5 12.5 33.5H7.5C6.09375 33.5 5 32.4062 5 31V28.9688C2.03125 27.5625 0 24.5156 0 21C0 16.2344 3.90625 12.25 8.75 12.25H11.25C13.125 12.25 14.8438 12.875 16.25 13.8906ZM35 31V29.3594C36.5625 27.4062 37.5 24.9844 37.5 22.25C37.5 18.9688 36.0156 15.9219 33.6719 13.8906C35.0781 12.875 36.875 12.25 38.75 12.25H41.25C46.0156 12.25 50 16.2344 50 21C50 24.5156 47.8906 27.5625 45 28.9688V31C45 32.4062 43.8281 33.5 42.5 33.5H37.5C36.0938 33.5 35 32.4062 35 31ZM35.625 5.375C35.625 3.8125 36.4062 2.40625 37.8125 1.625C39.1406 0.84375 40.7812 0.84375 42.1875 1.625C43.5156 2.40625 44.375 3.8125 44.375 5.375C44.375 7.01562 43.5156 8.42188 42.1875 9.20312C40.7812 9.98438 39.1406 9.98438 37.8125 9.20312C36.4062 8.42188 35.625 7.01562 35.625 5.375ZM45 17.7188V24.3594C45.7812 23.5 46.25 22.3281 46.25 21.0781C46.25 19.75 45.7812 18.5781 45 17.7188ZM25 1C26.7188 1 28.3594 2.01562 29.2969 3.5C30.1562 5.0625 30.1562 7.01562 29.2969 8.5C28.3594 10.0625 26.7188 11 25 11C23.2031 11 21.5625 10.0625 20.625 8.5C19.7656 7.01562 19.7656 5.0625 20.625 3.5C21.5625 2.01562 23.2031 1 25 1ZM18.75 22.25C18.75 23.5781 19.2188 24.6719 20 25.6094V18.9688C19.2188 19.8281 18.75 21 18.75 22.25ZM30 18.9688V25.6094C30.7812 24.75 31.25 23.5781 31.25 22.3281C31.25 21 30.7812 19.8281 30 18.9688ZM35 22.25C35 25.7656 32.8906 28.8125 30 30.2188V33.5C30 34.9062 28.8281 36 27.5 36H22.5C21.0938 36 20 34.9062 20 33.5V30.2188C17.0312 28.8125 15 25.7656 15 22.25C15 17.4844 18.9062 13.5 23.75 13.5H26.25C31.0156 13.5 35 17.4844 35 22.25Z" fill="white"/>
</svg>
