<svg width="33" height="27" viewBox="0 0 33 27" fill="none" xmlns="http://www.w3.org/2000/svg">
<path d="M7.28585 8.72681C5.83804 8.72681 4.54002 7.97794 3.79115 6.72984C3.09221 5.53166 3.09221 3.98401 3.79115 2.7359C4.54002 1.53772 5.83804 0.738931 7.28585 0.738931C8.68373 0.738931 9.98175 1.53772 10.7306 2.7359C11.4296 3.98401 11.4296 5.53166 10.7306 6.72984C9.98175 7.97794 8.68373 8.72681 7.28585 8.72681ZM25.658 8.72681C24.2102 8.72681 22.9121 7.97794 22.1633 6.72984C21.4643 5.53166 21.4643 3.98401 22.1633 2.7359C22.9121 1.53772 24.2102 0.738931 25.658 0.738931C27.0558 0.738931 28.3539 1.53772 29.1027 2.7359C29.8017 3.98401 29.8017 5.53166 29.1027 6.72984C28.3539 7.97794 27.0558 8.72681 25.658 8.72681ZM0.0967598 15.6663C0.0967598 12.7207 2.4432 10.3244 5.38873 10.3244H7.53547C8.33426 10.3244 9.08312 10.5241 9.78206 10.8236C9.68221 11.1731 9.68221 11.5725 9.68221 11.922C9.68221 13.869 10.481 15.5664 11.829 16.7147H11.779H1.14517C0.546078 16.7147 0.0967598 16.2654 0.0967598 15.6663ZM20.3161 16.7147H20.2661C21.6141 15.5664 22.4628 13.869 22.4628 11.922C22.4628 11.5725 22.4129 11.1731 22.363 10.8236C23.012 10.5241 23.7608 10.3244 24.5596 10.3244H26.7064C29.6519 10.3244 32.0483 12.7207 32.0483 15.6663C32.0483 16.2654 31.549 16.7147 30.9499 16.7147H30.3009C29.9514 15.816 29.0528 15.1171 28.0543 15.1171H26.4567C25.4083 15.1171 24.5097 15.816 24.1602 16.7147H20.3161ZM20.8652 20.7086V22.3062C20.8652 23.6541 21.9136 24.7026 23.2616 24.7026H24.0604V25.5013C24.0604 25.8009 24.0604 26.0505 24.1602 26.3001H7.78509C7.03623 26.3001 6.48706 25.701 6.48706 25.0021C6.48706 21.3077 9.43259 18.3123 13.127 18.3123H18.9681C19.9666 18.3123 20.8652 18.5619 21.664 18.9113C21.1648 19.3607 20.8652 20.0097 20.8652 20.7086ZM20.8652 11.922C20.8652 13.6693 19.9167 15.217 18.4689 16.1156C16.9711 16.9643 15.1239 16.9643 13.6761 16.1156C12.1784 15.217 11.2798 13.6693 11.2798 11.922C11.2798 10.2245 12.1784 8.67688 13.6761 7.77825C15.1239 6.92953 16.9711 6.92953 18.4689 7.77825C19.9167 8.67688 20.8652 10.2245 20.8652 11.922ZM25.658 17.5135C25.658 17.1141 26.0074 16.7147 26.4567 16.7147H28.0543C28.4537 16.7147 28.8531 17.1141 28.8531 17.5135V19.9098H31.2495C31.6489 19.9098 32.0483 20.3092 32.0483 20.7086V22.3062C32.0483 22.7555 31.6489 23.105 31.2495 23.105H28.8531V25.5013C28.8531 25.9507 28.4537 26.3001 28.0543 26.3001H26.4567C26.0074 26.3001 25.658 25.9507 25.658 25.5013V23.105H23.2616C22.8123 23.105 22.4628 22.7555 22.4628 22.3062V20.7086C22.4628 20.3092 22.8123 19.9098 23.2616 19.9098H25.658V17.5135Z" fill="#011445"/>
</svg>
