<svg width="25" height="21" viewBox="0 0 25 21" fill="none" xmlns="http://www.w3.org/2000/svg">
<path d="M5.625 0.871582C6.71875 0.871582 7.73438 1.49658 8.32031 2.43408C8.86719 3.41064 8.86719 4.62158 8.32031 5.55908C7.73438 6.53564 6.71875 7.12158 5.625 7.12158C4.49219 7.12158 3.47656 6.53564 2.89062 5.55908C2.34375 4.62158 2.34375 3.41064 2.89062 2.43408C3.47656 1.49658 4.49219 0.871582 5.625 0.871582ZM20 0.871582C21.0938 0.871582 22.1094 1.49658 22.6953 2.43408C23.2422 3.41064 23.2422 4.62158 22.6953 5.55908C22.1094 6.53564 21.0938 7.12158 20 7.12158C18.8672 7.12158 17.8516 6.53564 17.2656 5.55908C16.7188 4.62158 16.7188 3.41064 17.2656 2.43408C17.8516 1.49658 18.8672 0.871582 20 0.871582ZM0 12.5513C0 10.2466 1.83594 8.37158 4.14062 8.37158H5.82031C6.44531 8.37158 7.03125 8.52783 7.57812 8.76221C7.5 9.03564 7.5 9.34814 7.5 9.62158C7.5 11.145 8.125 12.4731 9.17969 13.3716C9.17969 13.3716 9.17969 13.3716 9.14062 13.3716H0.820312C0.351562 13.3716 0 13.02 0 12.5513ZM15.8203 13.3716H15.7812C16.8359 12.4731 17.4609 11.145 17.4609 9.62158C17.4609 9.34814 17.4609 9.03564 17.4219 8.76221C17.9297 8.52783 18.5156 8.37158 19.1406 8.37158H20.8203C23.125 8.37158 25 10.2466 25 12.5513C25 13.02 24.6094 13.3716 24.1406 13.3716H15.8203ZM8.75 9.62158C8.75 8.29346 9.45312 7.08252 10.625 6.37939C11.7578 5.71533 13.2031 5.71533 14.375 6.37939C15.5078 7.08252 16.25 8.29346 16.25 9.62158C16.25 10.9888 15.5078 12.1997 14.375 12.9028C13.2031 13.5669 11.7578 13.5669 10.625 12.9028C9.45312 12.1997 8.75 10.9888 8.75 9.62158ZM5 19.856C5 16.9653 7.30469 14.6216 10.1953 14.6216H14.7656C17.6562 14.6216 20 16.9653 20 19.856C20 20.4028 19.5312 20.8716 18.9453 20.8716H6.01562C5.46875 20.8716 5 20.4419 5 19.856Z" fill="#4D5B7D"/>
</svg>
