<svg width="50" height="36" viewBox="0 0 50 36" fill="none" xmlns="http://www.w3.org/2000/svg">
<path d="M5.625 4.875C5.625 3.3125 6.40625 1.90625 7.8125 1.125C9.14062 0.34375 10.7812 0.34375 12.1875 1.125C13.5156 1.90625 14.375 3.3125 14.375 4.875C14.375 6.51562 13.5156 7.92188 12.1875 8.70312C10.7812 9.48438 9.14062 9.48438 7.8125 8.70312C6.40625 7.92188 5.625 6.51562 5.625 4.875ZM5 17.2188C4.21875 18.0781 3.75 19.25 3.75 20.5C3.75 21.8281 4.21875 23 5 23.8594V17.2188ZM16.25 13.3906C13.9062 15.4219 12.5 18.4688 12.5 21.75C12.5 24.4844 13.4375 26.9062 15 28.8594V30.5C15 31.9062 13.8281 33 12.5 33H7.5C6.09375 33 5 31.9062 5 30.5V28.4688C2.03125 27.0625 0 24.0156 0 20.5C0 15.7344 3.90625 11.75 8.75 11.75H11.25C13.125 11.75 14.8438 12.375 16.25 13.3906ZM35 30.5V28.8594C36.5625 26.9062 37.5 24.4844 37.5 21.75C37.5 18.4688 36.0156 15.4219 33.6719 13.3906C35.0781 12.375 36.875 11.75 38.75 11.75H41.25C46.0156 11.75 50 15.7344 50 20.5C50 24.0156 47.8906 27.0625 45 28.4688V30.5C45 31.9062 43.8281 33 42.5 33H37.5C36.0938 33 35 31.9062 35 30.5ZM35.625 4.875C35.625 3.3125 36.4062 1.90625 37.8125 1.125C39.1406 0.34375 40.7812 0.34375 42.1875 1.125C43.5156 1.90625 44.375 3.3125 44.375 4.875C44.375 6.51562 43.5156 7.92188 42.1875 8.70312C40.7812 9.48438 39.1406 9.48438 37.8125 8.70312C36.4062 7.92188 35.625 6.51562 35.625 4.875ZM45 17.2188V23.8594C45.7812 23 46.25 21.8281 46.25 20.5781C46.25 19.25 45.7812 18.0781 45 17.2188ZM25 0.5C26.7188 0.5 28.3594 1.51562 29.2969 3C30.1562 4.5625 30.1562 6.51562 29.2969 8C28.3594 9.5625 26.7188 10.5 25 10.5C23.2031 10.5 21.5625 9.5625 20.625 8C19.7656 6.51562 19.7656 4.5625 20.625 3C21.5625 1.51562 23.2031 0.5 25 0.5ZM18.75 21.75C18.75 23.0781 19.2188 24.1719 20 25.1094V18.4688C19.2188 19.3281 18.75 20.5 18.75 21.75ZM30 18.4688V25.1094C30.7812 24.25 31.25 23.0781 31.25 21.8281C31.25 20.5 30.7812 19.3281 30 18.4688ZM35 21.75C35 25.2656 32.8906 28.3125 30 29.7188V33C30 34.4062 28.8281 35.5 27.5 35.5H22.5C21.0938 35.5 20 34.4062 20 33V29.7188C17.0312 28.3125 15 25.2656 15 21.75C15 16.9844 18.9062 13 23.75 13H26.25C31.0156 13 35 16.9844 35 21.75Z" fill="#4564FD"/>
</svg>
