<svg width="20" height="17" viewBox="0 0 20 17" fill="none" xmlns="http://www.w3.org/2000/svg">
<path d="M4.5 5.5C3.59375 5.5 2.78125 5.03125 2.3125 4.25C1.875 3.5 1.875 2.53125 2.3125 1.75C2.78125 1 3.59375 0.5 4.5 0.5C5.375 0.5 6.1875 1 6.65625 1.75C7.09375 2.53125 7.09375 3.5 6.65625 4.25C6.1875 5.03125 5.375 5.5 4.5 5.5ZM16 5.5C15.0938 5.5 14.2812 5.03125 13.8125 4.25C13.375 3.5 13.375 2.53125 13.8125 1.75C14.2812 1 15.0938 0.5 16 0.5C16.875 0.5 17.6875 1 18.1562 1.75C18.5938 2.53125 18.5938 3.5 18.1562 4.25C17.6875 5.03125 16.875 5.5 16 5.5ZM0 9.84375C0 8 1.46875 6.5 3.3125 6.5H4.65625C5.15625 6.5 5.625 6.625 6.0625 6.8125C6 7.03125 6 7.28125 6 7.5C6 8.71875 6.5 9.78125 7.34375 10.5H7.3125H0.65625C0.28125 10.5 0 10.2188 0 9.84375ZM12.6562 10.5H12.625C13.4688 9.78125 14 8.71875 14 7.5C14 7.28125 13.9688 7.03125 13.9375 6.8125C14.3438 6.625 14.8125 6.5 15.3125 6.5H16.6562C18.5 6.5 20 8 20 9.84375C20 10.2188 19.6875 10.5 19.3125 10.5H12.6562ZM10 6C9.4375 6 8.96875 6.3125 8.6875 6.75C8.40625 7.21875 8.40625 7.8125 8.6875 8.25C8.96875 8.71875 9.4375 9 10 9C10.5312 9 11 8.71875 11.2812 8.25C11.5625 7.8125 11.5625 7.21875 11.2812 6.75C11 6.3125 10.5312 6 10 6ZM10 10.5C8.90625 10.5 7.9375 9.9375 7.375 9C6.84375 8.09375 6.84375 6.9375 7.375 6C7.9375 5.09375 8.90625 4.5 10 4.5C11.0625 4.5 12.0312 5.09375 12.5938 6C13.125 6.9375 13.125 8.09375 12.5938 9C12.0312 9.9375 11.0625 10.5 10 10.5ZM8.15625 13C6.90625 13 5.875 13.875 5.5625 15H14.4062C14.0938 13.875 13.0625 13 11.8125 13H8.15625ZM8.15625 11.5H11.8125C14.125 11.5 16 13.375 16 15.6875C16 16.1562 15.625 16.5 15.1562 16.5H4.8125C4.34375 16.5 4 16.125 4 15.6875C4 13.375 5.84375 11.5 8.15625 11.5Z" fill="#011445"/>
</svg>
