<svg width="25" height="16" viewBox="0 0 25 16" fill="none" xmlns="http://www.w3.org/2000/svg">
<path d="M12.6172 1.35938C13.2812 0.8125 14.1016 0.5 14.9609 0.5C15.6641 0.5 16.3672 0.734375 16.9531 1.08594L19.8047 2.92188L19.9609 3H20V10.3828L14.5703 5.38281L15.3516 4.75781C15.625 4.5625 15.7031 4.17188 15.4688 3.89844C15.2734 3.625 14.8828 3.54688 14.6094 3.78125L10.7031 6.78906C10.0391 7.29688 9.0625 7.17969 8.55469 6.47656C8.08594 5.8125 8.20312 4.91406 8.82812 4.40625L12.6172 1.35938ZM13.5156 6.20312L18.75 11.0078C19.4922 11.7109 19.5703 12.8828 18.8672 13.6641C18.2422 14.3672 17.1875 14.4453 16.4453 13.9375C16.3672 14.1719 16.2109 14.4062 16.0547 14.6016C15.3516 15.3438 14.1797 15.4219 13.3984 14.7188L12.7344 14.0938C12.6562 14.4062 12.5 14.6797 12.3047 14.9141C11.6016 15.6562 10.4297 15.7344 9.64844 15.0312L6.09375 11.75H5V3L7.8125 1.125C8.39844 0.734375 9.14062 0.5 9.84375 0.539062C10.3516 0.539062 10.8594 0.617188 11.2891 0.8125L8.04688 3.42969C6.91406 4.36719 6.67969 6.04688 7.53906 7.21875C8.47656 8.46875 10.2734 8.74219 11.4844 7.76562L13.5156 6.20312ZM0.625 3H3.75V11.75C3.75 12.4531 3.16406 13 2.5 13H1.25C0.546875 13 0 12.4531 0 11.75V3.625C0 3.3125 0.273438 3 0.625 3ZM1.875 10.5C1.52344 10.5 1.25 10.8125 1.25 11.125C1.25 11.4766 1.52344 11.75 1.875 11.75C2.1875 11.75 2.5 11.4766 2.5 11.125C2.5 10.8125 2.1875 10.5 1.875 10.5ZM21.25 3H24.375C24.6875 3 25 3.3125 25 3.625V11.75C25 12.4531 24.4141 13 23.75 13H22.5C21.7969 13 21.25 12.4531 21.25 11.75V3ZM22.5 11.125C22.5 11.4766 22.7734 11.75 23.125 11.75C23.4375 11.75 23.75 11.4766 23.75 11.125C23.75 10.8125 23.4375 10.5 23.125 10.5C22.7734 10.5 22.5 10.8125 22.5 11.125Z" fill="#011445"/>
</svg>
