<svg width="21" height="22" viewBox="0 0 21 22" fill="none" xmlns="http://www.w3.org/2000/svg">
<path d="M8.48438 0.546875C9.28125 0.6875 9.84375 1.4375 9.70312 2.28125L9.23438 5H13.6875L14.25 1.76562C14.3906 0.96875 15.1406 0.40625 15.9844 0.546875C16.7812 0.6875 17.3438 1.4375 17.2031 2.28125L16.7344 5H19.5C20.2969 5 21 5.70312 21 6.5C21 7.34375 20.2969 8 19.5 8H16.2656L15.2344 14H18C18.7969 14 19.5 14.7031 19.5 15.5C19.5 16.3438 18.7969 17 18 17H14.7656L14.2031 20.2812C14.0625 21.0781 13.3125 21.6406 12.4688 21.5C11.6719 21.3594 11.1094 20.6094 11.25 19.7656L11.7188 17.0469H7.26562L6.70312 20.2812C6.5625 21.0781 5.8125 21.6406 4.96875 21.5C4.17188 21.3594 3.60938 20.6094 3.75 19.7656L4.21875 17H1.5C0.65625 17 0 16.3438 0 15.5C0 14.7031 0.65625 14 1.5 14H4.6875L5.71875 8H3C2.15625 8 1.5 7.34375 1.5 6.5C1.5 5.70312 2.15625 5 3 5H6.1875L6.75 1.76562C6.89062 0.96875 7.64062 0.40625 8.48438 0.546875ZM8.76562 8L7.73438 14H12.1875L13.2188 8H8.76562Z" fill="#A287ED"/>
</svg>
