<svg width="21" height="21" viewBox="0 0 21 21" fill="none" xmlns="http://www.w3.org/2000/svg">
<path d="M9.40625 19.8247L2.33594 13.2231C2.17969 13.0669 2.02344 12.9106 1.86719 12.7153H5.26562C6.16406 12.7153 6.94531 12.2075 7.29688 11.3872L7.6875 10.4106L9.64062 14.6685C9.79688 15.02 10.1094 15.2153 10.4609 15.2153C10.8125 15.2153 11.1641 15.02 11.3203 14.7075L13 11.3872L13.0391 11.5435C13.4297 12.2856 14.1719 12.7544 14.9922 12.7544H19.0938C18.9375 12.9106 18.7812 13.0669 18.625 13.2231L11.5547 19.8247C11.2812 20.0981 10.8906 20.2153 10.5 20.2153C10.0703 20.2153 9.67969 20.0981 9.40625 19.8247ZM20.1484 10.8403H14.9922C14.875 10.8403 14.7578 10.8013 14.7188 10.6841L13.8203 8.88721C13.6641 8.57471 13.3125 8.34033 12.9609 8.34033C12.6094 8.34033 12.2969 8.57471 12.1406 8.88721L10.5 12.1294L8.50781 7.67627C8.39062 7.32471 8.03906 7.09033 7.64844 7.12939C7.29688 7.12939 6.94531 7.32471 6.78906 7.67627L5.57812 10.6841C5.5 10.8013 5.38281 10.8794 5.26562 10.8794H1.125C1.00781 10.8794 0.929688 10.8794 0.8125 10.9185C0.617188 10.2935 0.5 9.62939 0.5 8.92627V8.73096C0.5 5.99658 2.45312 3.65283 5.14844 3.22314C6.94531 2.91064 8.74219 3.49658 10.0312 4.74658L10.5 5.21533L10.9688 4.74658C12.2188 3.49658 14.0547 2.91064 15.8125 3.22314C18.5078 3.65283 20.5 5.99658 20.5 8.73096V8.92627C20.5 9.59033 20.3828 10.2544 20.1484 10.8403Z" fill="#4D5B7D"/>
</svg>
