<svg width="20" height="18" viewBox="0 0 20 18" fill="none" xmlns="http://www.w3.org/2000/svg">
<path d="M8.90625 16.9199L1.83594 10.3184C1.67969 10.1621 1.52344 10.0059 1.36719 9.81055H4.76562C5.66406 9.81055 6.44531 9.30273 6.79688 8.48242L7.1875 7.50586L9.14062 11.7637C9.29688 12.1152 9.60938 12.3105 9.96094 12.3105C10.3125 12.3105 10.6641 12.1152 10.8203 11.8027L12.5 8.48242L12.5391 8.63867C12.9297 9.38086 13.6719 9.84961 14.4922 9.84961H18.5938C18.4375 10.0059 18.2812 10.1621 18.125 10.3184L11.0547 16.9199C10.7812 17.1934 10.3906 17.3105 10 17.3105C9.57031 17.3105 9.17969 17.1934 8.90625 16.9199ZM19.6484 7.93555H14.4922C14.375 7.93555 14.2578 7.89648 14.2188 7.7793L13.3203 5.98242C13.1641 5.66992 12.8125 5.43555 12.4609 5.43555C12.1094 5.43555 11.7969 5.66992 11.6406 5.98242L10 9.22461L8.00781 4.77148C7.89062 4.41992 7.53906 4.18555 7.14844 4.22461C6.79688 4.22461 6.44531 4.41992 6.28906 4.77148L5.07812 7.7793C5 7.89648 4.88281 7.97461 4.76562 7.97461H0.625C0.507812 7.97461 0.429688 7.97461 0.3125 8.01367C0.117188 7.38867 0 6.72461 0 6.02148V5.82617C0 3.0918 1.95312 0.748047 4.64844 0.318359C6.44531 0.00585938 8.24219 0.591797 9.53125 1.8418L10 2.31055L10.4688 1.8418C11.7188 0.591797 13.5547 0.00585938 15.3125 0.318359C18.0078 0.748047 20 3.0918 20 5.82617V6.02148C20 6.68555 19.8828 7.34961 19.6484 7.93555Z" fill="#186491"/>
</svg>
