<svg width="99" height="38" viewBox="0 0 99 38" fill="none" xmlns="http://www.w3.org/2000/svg">
<g filter="url(#filter0_d_19296_10097)">
<path d="M11.3984 14.4403C11.3984 7.8681 16.7263 2.54028 23.2985 2.54028H83.837C90.4092 2.54028 95.737 7.8681 95.737 14.4403C95.737 21.0125 90.4092 26.3403 83.837 26.3403H23.2984C16.7262 26.3403 11.3984 21.0125 11.3984 14.4403Z" fill="white"/>
<path d="M28.7752 17.0583C28.3683 17.0583 28.0007 16.9888 27.6725 16.8496C27.3469 16.7078 27.0778 16.507 26.8651 16.247C26.655 15.9844 26.5185 15.6733 26.4555 15.3136L27.3141 15.1836C27.4007 15.5302 27.5819 15.8007 27.8576 15.995C28.1333 16.1866 28.4549 16.2825 28.8225 16.2825C29.0509 16.2825 29.261 16.247 29.4527 16.1761C29.6443 16.1026 29.7979 15.9989 29.9135 15.865C30.0316 15.7284 30.0907 15.5657 30.0907 15.3766C30.0907 15.2742 30.0723 15.1836 30.0355 15.1049C30.0014 15.0261 29.9528 14.9578 29.8898 14.9001C29.8294 14.8397 29.7546 14.7885 29.6653 14.7465C29.5787 14.7018 29.4828 14.6637 29.3778 14.6322L27.9245 14.2029C27.7827 14.1609 27.6383 14.1071 27.4913 14.0415C27.3443 13.9732 27.209 13.8852 27.0856 13.7776C26.9649 13.6673 26.8664 13.5321 26.7902 13.3719C26.7141 13.2091 26.676 13.0122 26.676 12.7812C26.676 12.4319 26.7653 12.1366 26.9438 11.895C27.125 11.6508 27.3692 11.467 27.6764 11.3436C27.9836 11.2176 28.3276 11.1546 28.7083 11.1546C29.0916 11.1598 29.4343 11.2281 29.7362 11.3594C30.0408 11.4907 30.2929 11.6797 30.4924 11.9265C30.6946 12.1707 30.8337 12.4674 30.9099 12.8166L30.0277 12.9663C29.9883 12.7536 29.9043 12.5711 29.7756 12.4188C29.647 12.2639 29.4894 12.1458 29.303 12.0644C29.1166 11.9803 28.9144 11.937 28.6965 11.9344C28.4864 11.9291 28.2934 11.9606 28.1175 12.0289C27.9442 12.0972 27.8051 12.193 27.7 12.3164C27.5976 12.4398 27.5464 12.5816 27.5464 12.7418C27.5464 12.8993 27.5924 13.0267 27.6843 13.1238C27.7762 13.221 27.8891 13.2984 28.023 13.3562C28.1595 13.4113 28.2947 13.4573 28.4287 13.494L29.4763 13.7894C29.6076 13.8262 29.7559 13.8761 29.9213 13.9391C30.0894 13.9995 30.2509 14.0848 30.4058 14.1951C30.5633 14.3053 30.6933 14.4524 30.7957 14.6362C30.8981 14.8173 30.9493 15.0458 30.9493 15.3215C30.9493 15.6077 30.8915 15.8597 30.776 16.0777C30.6605 16.293 30.5016 16.4741 30.2994 16.6212C30.0999 16.7656 29.8688 16.8745 29.6063 16.9481C29.3437 17.0216 29.0667 17.0583 28.7752 17.0583ZM33.6751 17.0583C33.2524 17.0583 32.8809 16.9664 32.5605 16.7826C32.2428 16.5962 31.9947 16.3376 31.8162 16.0068C31.6402 15.6733 31.5523 15.2873 31.5523 14.8489C31.5523 14.3841 31.6389 13.9811 31.8122 13.6397C31.9881 13.2984 32.2323 13.0345 32.5448 12.8481C32.8572 12.6617 33.2209 12.5685 33.6357 12.5685C34.069 12.5685 34.4379 12.6696 34.7425 12.8717C35.047 13.0713 35.2741 13.3562 35.4238 13.7264C35.5761 14.0966 35.6365 14.5364 35.605 15.0458H34.7818V14.7465C34.7766 14.2528 34.6821 13.8879 34.4983 13.6516C34.3171 13.4153 34.0401 13.2971 33.6672 13.2971C33.255 13.2971 32.9452 13.4271 32.7378 13.687C32.5303 13.9469 32.4266 14.3224 32.4266 14.8134C32.4266 15.2808 32.5303 15.6431 32.7378 15.9004C32.9452 16.1551 33.2445 16.2825 33.6357 16.2825C33.8931 16.2825 34.1149 16.2247 34.3013 16.1092C34.4904 15.991 34.6374 15.823 34.7425 15.605L35.5498 15.861C35.3844 16.2418 35.1337 16.5371 34.7976 16.7472C34.4615 16.9546 34.0874 17.0583 33.6751 17.0583ZM32.1588 15.0458V14.4038H35.1954V15.0458H32.1588ZM38.3751 17.0583C37.9524 17.0583 37.5809 16.9664 37.2605 16.7826C36.9428 16.5962 36.6947 16.3376 36.5162 16.0068C36.3403 15.6733 36.2523 15.2873 36.2523 14.8489C36.2523 14.3841 36.3389 13.9811 36.5122 13.6397C36.6882 13.2984 36.9323 13.0345 37.2448 12.8481C37.5572 12.6617 37.9209 12.5685 38.3358 12.5685C38.769 12.5685 39.1379 12.6696 39.4425 12.8717C39.747 13.0713 39.9742 13.3562 40.1238 13.7264C40.2761 14.0966 40.3365 14.5364 40.305 15.0458H39.4818V14.7465C39.4766 14.2528 39.3821 13.8879 39.1983 13.6516C39.0171 13.4153 38.7401 13.2971 38.3673 13.2971C37.955 13.2971 37.6452 13.4271 37.4378 13.687C37.2304 13.9469 37.1266 14.3224 37.1266 14.8134C37.1266 15.2808 37.2304 15.6431 37.4378 15.9004C37.6452 16.1551 37.9445 16.2825 38.3358 16.2825C38.5931 16.2825 38.8149 16.2247 39.0014 16.1092C39.1904 15.991 39.3374 15.823 39.4425 15.605L40.2498 15.861C40.0844 16.2418 39.8337 16.5371 39.4976 16.7472C39.1615 16.9546 38.7874 17.0583 38.3751 17.0583ZM36.8588 15.0458V14.4038H39.8954V15.0458H36.8588ZM45.1326 17.0583C44.5654 17.0583 44.0823 16.9349 43.6832 16.6881C43.2841 16.4387 42.9782 16.0921 42.7655 15.6484C42.5555 15.2046 42.4505 14.69 42.4505 14.1045C42.4505 13.519 42.5555 13.0043 42.7655 12.5606C42.9782 12.1169 43.2841 11.7716 43.6832 11.5248C44.0823 11.2754 44.5654 11.1506 45.1326 11.1506C45.6971 11.1506 46.1789 11.2754 46.578 11.5248C46.9797 11.7716 47.2856 12.1169 47.4956 12.5606C47.7057 13.0043 47.8107 13.519 47.8107 14.1045C47.8107 14.69 47.7057 15.2046 47.4956 15.6484C47.2856 16.0921 46.9797 16.4387 46.578 16.6881C46.1789 16.9349 45.6971 17.0583 45.1326 17.0583ZM45.1326 16.2746C45.5343 16.2798 45.8677 16.1919 46.1329 16.0107C46.4008 15.8269 46.6016 15.5722 46.7355 15.2466C46.8694 14.9184 46.9364 14.5377 46.9364 14.1045C46.9364 13.6713 46.8694 13.2932 46.7355 12.9702C46.6016 12.6446 46.4008 12.3913 46.1329 12.2101C45.8677 12.0289 45.5343 11.937 45.1326 11.9344C44.7308 11.9291 44.3961 12.0171 44.1283 12.1983C43.8631 12.3794 43.6635 12.6341 43.5296 12.9623C43.3957 13.2905 43.3274 13.6713 43.3248 14.1045C43.3222 14.5377 43.3878 14.9171 43.5217 15.2427C43.6556 15.5657 43.8565 15.8177 44.1243 15.9989C44.3948 16.1801 44.7308 16.272 45.1326 16.2746ZM48.5963 16.9402V12.6866H49.3289V13.7185L49.2265 13.5846C49.279 13.4481 49.3473 13.3234 49.4313 13.2105C49.5153 13.0949 49.6125 13.0004 49.7227 12.9269C49.8304 12.8481 49.9498 12.7877 50.0811 12.7457C50.215 12.7011 50.3516 12.6748 50.4907 12.6669C50.6299 12.6564 50.7638 12.663 50.8925 12.6866V13.4586C50.7533 13.4218 50.5984 13.4113 50.4277 13.4271C50.2597 13.4428 50.1048 13.4966 49.963 13.5885C49.8291 13.6752 49.7227 13.7802 49.644 13.9036C49.5678 14.027 49.5127 14.1649 49.4785 14.3172C49.4444 14.4668 49.4273 14.6257 49.4273 14.7937V16.9402H48.5963ZM53.2552 17.0583C52.8587 17.0583 52.516 16.9599 52.2272 16.763C51.941 16.566 51.7192 16.2982 51.5616 15.9595C51.4067 15.6182 51.3293 15.2348 51.3293 14.8095C51.3293 14.3815 51.408 13.9995 51.5656 13.6634C51.7231 13.3247 51.9463 13.0582 52.2351 12.8639C52.5266 12.6669 52.8718 12.5685 53.2709 12.5685C53.6726 12.5685 54.01 12.6669 54.2831 12.8639C54.5588 13.0582 54.7662 13.3247 54.9054 13.6634C55.0472 14.0021 55.1181 14.3841 55.1181 14.8095C55.1181 15.2348 55.0472 15.6169 54.9054 15.9556C54.7636 16.2943 54.5549 16.5634 54.2792 16.763C54.0035 16.9599 53.6621 17.0583 53.2552 17.0583ZM53.3694 16.314C53.6398 16.314 53.8604 16.2496 54.031 16.121C54.2017 15.9923 54.3264 15.8151 54.4052 15.5893C54.484 15.3635 54.5234 15.1035 54.5234 14.8095C54.5234 14.5154 54.4827 14.2555 54.4013 14.0297C54.3225 13.8038 54.1991 13.6279 54.031 13.5019C53.8656 13.3759 53.6543 13.3129 53.397 13.3129C53.1239 13.3129 52.8994 13.3798 52.7235 13.5137C52.5476 13.6476 52.4163 13.8275 52.3296 14.0533C52.2456 14.2791 52.2036 14.5312 52.2036 14.8095C52.2036 15.0904 52.2456 15.3451 52.3296 15.5735C52.4163 15.7993 52.5449 15.9792 52.7156 16.1131C52.8889 16.247 53.1068 16.314 53.3694 16.314ZM54.5234 16.9402V13.88H54.4288V11.2688H55.2559V16.9402H54.5234ZM58.2444 17.0583C57.8217 17.0583 57.4502 16.9664 57.1298 16.7826C56.8121 16.5962 56.564 16.3376 56.3855 16.0068C56.2095 15.6733 56.1216 15.2873 56.1216 14.8489C56.1216 14.3841 56.2082 13.9811 56.3815 13.6397C56.5574 13.2984 56.8016 13.0345 57.1141 12.8481C57.4265 12.6617 57.7902 12.5685 58.205 12.5685C58.6383 12.5685 59.0072 12.6696 59.3117 12.8717C59.6163 13.0713 59.8434 13.3562 59.9931 13.7264C60.1454 14.0966 60.2058 14.5364 60.1743 15.0458H59.3511V14.7465C59.3459 14.2528 59.2513 13.8879 59.0676 13.6516C58.8864 13.4153 58.6094 13.2971 58.2365 13.2971C57.8243 13.2971 57.5145 13.4271 57.3071 13.687C57.0996 13.9469 56.9959 14.3224 56.9959 14.8134C56.9959 15.2808 57.0996 15.6431 57.3071 15.9004C57.5145 16.1551 57.8138 16.2825 58.205 16.2825C58.4623 16.2825 58.6842 16.2247 58.8706 16.1092C59.0597 15.991 59.2067 15.823 59.3117 15.605L60.1191 15.861C59.9537 16.2418 59.703 16.5371 59.3669 16.7472C59.0308 16.9546 58.6566 17.0583 58.2444 17.0583ZM56.7281 15.0458V14.4038H59.7647V15.0458H56.7281ZM61.0579 16.9402V12.6866H61.7904V13.7185L61.688 13.5846C61.7406 13.4481 61.8088 13.3234 61.8928 13.2105C61.9769 13.0949 62.074 13.0004 62.1843 12.9269C62.2919 12.8481 62.4114 12.7877 62.5427 12.7457C62.6766 12.7011 62.8131 12.6748 62.9523 12.6669C63.0915 12.6564 63.2254 12.663 63.354 12.6866V13.4586C63.2149 13.4218 63.0599 13.4113 62.8893 13.4271C62.7212 13.4428 62.5663 13.4966 62.4245 13.5885C62.2906 13.6752 62.1843 13.7802 62.1055 13.9036C62.0294 14.027 61.9742 14.1649 61.9401 14.3172C61.906 14.4668 61.8889 14.6257 61.8889 14.7937V16.9402H61.0579ZM65.5768 17.0544C65.0595 17.0544 64.6381 16.9402 64.3125 16.7118C63.987 16.4833 63.7874 16.1617 63.7139 15.7468L64.5567 15.6169C64.6092 15.8374 64.73 16.012 64.9191 16.1407C65.1107 16.2667 65.3484 16.3297 65.6319 16.3297C65.8892 16.3297 66.0901 16.2772 66.2345 16.1722C66.3816 16.0672 66.4551 15.9227 66.4551 15.739C66.4551 15.6313 66.4288 15.5447 66.3763 15.479C66.3264 15.4107 66.2201 15.3464 66.0573 15.286C65.8945 15.2256 65.6464 15.1508 65.3129 15.0615C64.948 14.967 64.6578 14.8659 64.4425 14.7583C64.2298 14.648 64.0776 14.5207 63.9857 14.3762C63.8964 14.2292 63.8517 14.052 63.8517 13.8445C63.8517 13.5872 63.92 13.3627 64.0565 13.1711C64.1931 12.9794 64.3848 12.831 64.6316 12.726C64.881 12.621 65.1724 12.5685 65.5059 12.5685C65.8315 12.5685 66.1216 12.6197 66.3763 12.7221C66.631 12.8245 66.8371 12.9702 66.9946 13.1593C67.1522 13.3457 67.2467 13.5649 67.2782 13.817L66.4354 13.9706C66.4065 13.7658 66.3107 13.6043 66.1479 13.4861C65.9851 13.368 65.7737 13.3037 65.5138 13.2932C65.2643 13.2827 65.0622 13.3247 64.9073 13.4192C64.7523 13.5111 64.6749 13.6384 64.6749 13.8012C64.6749 13.8957 64.7038 13.9758 64.7615 14.0415C64.8219 14.1071 64.9375 14.1701 65.1081 14.2305C65.2788 14.2909 65.5308 14.3631 65.8643 14.4471C66.2214 14.539 66.505 14.6414 66.715 14.7543C66.9251 14.8646 67.0747 14.9972 67.164 15.1521C67.2559 15.3044 67.3018 15.4895 67.3018 15.7074C67.3018 16.1275 67.1482 16.4571 66.841 16.696C66.5365 16.9349 66.1151 17.0544 65.5768 17.0544Z" fill="#135A62"/>
<path d="M79.4917 12.0757V16.2014C79.4917 16.533 79.2154 16.7908 78.9023 16.7908C78.5708 16.7908 78.3129 16.533 78.3129 16.2014V13.5124L74.5924 17.2145C74.3714 17.4539 73.9846 17.4539 73.7636 17.2145C73.5241 16.9934 73.5241 16.6066 73.7636 16.3856L77.4657 12.6651H74.7766C74.445 12.6651 74.1872 12.4072 74.1872 12.0757C74.1872 11.7626 74.445 11.4863 74.7766 11.4863H78.9023C79.2154 11.4863 79.4917 11.7626 79.4917 12.0757Z" fill="#135A62"/>
</g>
<defs>
<filter id="filter0_d_19296_10097" x="0.602631" y="0.383415" width="97.9336" height="37.3948" filterUnits="userSpaceOnUse" color-interpolation-filters="sRGB">
<feFlood flood-opacity="0" result="BackgroundImageFix"/>
<feColorMatrix in="SourceAlpha" type="matrix" values="0 0 0 0 0 0 0 0 0 0 0 0 0 0 0 0 0 0 127 0" result="hardAlpha"/>
<feMorphology radius="43.1832" operator="erode" in="SourceAlpha" result="effect1_dropShadow_19296_10097"/>
<feOffset dx="-3.99845" dy="4.64049"/>
<feGaussianBlur stdDeviation="24.9903"/>
<feColorMatrix type="matrix" values="0 0 0 0 0.176444 0 0 0 0 0.401107 0 0 0 0 0.385961 0 0 0 0.3 0"/>
<feBlend mode="normal" in2="BackgroundImageFix" result="effect1_dropShadow_19296_10097"/>
<feBlend mode="normal" in="SourceGraphic" in2="effect1_dropShadow_19296_10097" result="shape"/>
</filter>
</defs>
</svg>
