<svg width="75" height="249" viewBox="0 0 75 249" fill="none" xmlns="http://www.w3.org/2000/svg">
<g clip-path="url(#clip0_19296_10060)">
<path d="M39.5068 11.4786C39.5068 14.2947 40.6255 16.9954 42.6168 18.9867C44.6081 20.978 47.3088 22.0967 50.1249 22.0967C52.941 22.0967 55.6418 20.978 57.6331 18.9867C59.6243 16.9954 60.743 14.2947 60.743 11.4786C60.743 8.66249 59.6243 5.96173 57.6331 3.97045C55.6418 1.97917 52.941 0.860483 50.1249 0.860483C47.3088 0.860483 44.6081 1.97917 42.6168 3.97045C40.6255 5.96173 39.5068 8.66249 39.5068 11.4786ZM54.7704 11.4786C54.7704 11.7565 54.6542 12.0178 54.451 12.2086L49.8056 16.5222C49.5152 16.7918 49.0922 16.8623 48.7313 16.7047C48.3705 16.5471 48.134 16.1862 48.134 15.7922L48.134 7.16498C48.134 6.77095 48.3705 6.4101 48.7313 6.25249C49.0922 6.09487 49.5152 6.16538 49.8056 6.43498L54.451 10.7486C54.6542 10.9352 54.7704 11.2007 54.7704 11.4786Z" fill="white"/>
</g>
<g clip-path="url(#clip1_19296_10060)">
<path d="M44.54 65.5642C43.7157 65.5642 43.0469 66.233 43.0469 67.0574V72.0346C43.0469 72.859 43.7157 73.5278 44.54 73.5278H47.5264C48.3507 73.5278 49.0196 72.859 49.0196 72.0346V67.0574C49.0196 66.233 48.3507 65.5642 47.5264 65.5642H44.54ZM52.5036 71.5369C51.6793 71.5369 51.0104 72.2057 51.0104 73.0301V78.0073C51.0104 78.8316 51.6793 79.5005 52.5036 79.5005H55.49C56.3143 79.5005 56.9831 78.8316 56.9831 78.0073V73.0301C56.9831 72.2057 56.3143 71.5369 55.49 71.5369H52.5036ZM43.0469 77.0118V78.0073C43.0469 78.8316 43.7157 79.5005 44.54 79.5005H47.5264C48.3507 79.5005 49.0196 78.8316 49.0196 78.0073V77.0118C49.0196 76.1875 48.3507 75.5187 47.5264 75.5187H44.54C43.7157 75.5187 43.0469 76.1875 43.0469 77.0118ZM52.5036 65.5642C51.6793 65.5642 51.0104 66.233 51.0104 67.0574V68.0528C51.0104 68.8772 51.6793 69.546 52.5036 69.546H55.49C56.3143 69.546 56.9831 68.8772 56.9831 68.0528V67.0574C56.9831 66.233 56.3143 65.5642 55.49 65.5642H52.5036Z" fill="white"/>
</g>
<g filter="url(#filter0_d_19296_10060)">
<path d="M26.2344 148.629C26.2344 135.435 36.9306 124.739 50.1251 124.739C63.3196 124.739 74.0158 135.435 74.0158 148.629C74.0158 161.824 63.3196 172.52 50.1251 172.52C36.9306 172.52 26.2344 161.824 26.2344 148.629Z" fill="white"/>
<g clip-path="url(#clip2_19296_10060)">
<path d="M43.0469 142.657V143.652H56.9831V142.657C56.9831 141.559 56.0903 140.666 54.9922 140.666H45.0378C43.9397 140.666 43.0469 141.559 43.0469 142.657ZM43.0469 144.648V154.602C43.0469 155.7 43.9397 156.593 45.0378 156.593H54.9922C56.0903 156.593 56.9831 155.7 56.9831 154.602V144.648H43.0469ZM46.0332 147.634C46.0332 147.36 46.2572 147.136 46.5309 147.136H53.4991C53.7728 147.136 53.9968 147.36 53.9968 147.634C53.9968 147.908 53.7728 148.132 53.4991 148.132H46.5309C46.2572 148.132 46.0332 147.908 46.0332 147.634ZM46.0332 150.62C46.0332 150.346 46.2572 150.123 46.5309 150.123H53.4991C53.7728 150.123 53.9968 150.346 53.9968 150.62C53.9968 150.894 53.7728 151.118 53.4991 151.118H46.5309C46.2572 151.118 46.0332 150.894 46.0332 150.62ZM46.0332 153.607C46.0332 153.333 46.2572 153.109 46.5309 153.109H49.5173C49.791 153.109 50.015 153.333 50.015 153.607C50.015 153.88 49.791 154.104 49.5173 154.104H46.5309C46.2572 154.104 46.0332 153.88 46.0332 153.607Z" fill="#177E89"/>
</g>
</g>
<g clip-path="url(#clip3_19296_10060)">
<path d="M43.4894 217.647C42.7566 217.647 42.1621 218.241 42.1621 218.974V224.725H46.1439C46.3872 224.725 46.5863 224.925 46.5863 225.168C46.5863 225.411 46.3872 225.61 46.1439 225.61H42.1621V227.38H46.1439C46.3872 227.38 46.5863 227.579 46.5863 227.822C46.5863 228.066 46.3872 228.265 46.1439 228.265H42.1621V230.477C42.1621 231.21 42.7566 231.804 43.4894 231.804H49.5146C49.3404 231.522 49.2408 231.19 49.2408 230.834C49.2408 229.537 49.9542 228.406 51.0105 227.814V225.162V218.974C51.0105 218.241 50.416 217.647 49.6833 217.647H43.4894ZM46.3651 219.416H46.8075C47.0509 219.416 47.2499 219.616 47.2499 219.859V220.522H47.9136C48.1569 220.522 48.356 220.722 48.356 220.965V221.407C48.356 221.651 48.1569 221.85 47.9136 221.85H47.2499V222.513C47.2499 222.757 47.0509 222.956 46.8075 222.956H46.3651C46.1218 222.956 45.9227 222.757 45.9227 222.513V221.85H45.2591C45.0157 221.85 44.8166 221.651 44.8166 221.407V220.965C44.8166 220.722 45.0157 220.522 45.2591 220.522H45.9227V219.859C45.9227 219.616 46.1218 219.416 46.3651 219.416ZM56.3196 225.168C56.3196 224.581 56.0865 224.019 55.6717 223.604C55.2568 223.189 54.6942 222.956 54.1075 222.956C53.5208 222.956 52.9581 223.189 52.5433 223.604C52.1284 224.019 51.8954 224.581 51.8954 225.168C51.8954 225.755 52.1284 226.317 52.5433 226.732C52.9581 227.147 53.5208 227.38 54.1075 227.38C54.6942 227.38 55.2568 227.147 55.6717 226.732C56.0865 226.317 56.3196 225.755 56.3196 225.168ZM50.1257 230.839C50.1257 231.373 50.557 231.804 51.0907 231.804H57.1242C57.6579 231.804 58.0893 231.373 58.0893 230.839C58.0893 229.418 56.9362 228.265 55.5149 228.265H52.7C51.2787 228.265 50.1257 229.418 50.1257 230.839Z" fill="white"/>
</g>
<defs>
<filter id="filter0_d_19296_10060" x="0.644314" y="117.941" width="73.3713" height="61.3762" filterUnits="userSpaceOnUse" color-interpolation-filters="sRGB">
<feFlood flood-opacity="0" result="BackgroundImageFix"/>
<feColorMatrix in="SourceAlpha" type="matrix" values="0 0 0 0 0 0 0 0 0 0 0 0 0 0 0 0 0 0 127 0" result="hardAlpha"/>
<feMorphology radius="43.1832" operator="erode" in="SourceAlpha" result="effect1_dropShadow_19296_10060"/>
<feOffset dx="-18.7927"/>
<feGaussianBlur stdDeviation="24.9903"/>
<feColorMatrix type="matrix" values="0 0 0 0 0.176444 0 0 0 0 0.401107 0 0 0 0 0.385961 0 0 0 0.3 0"/>
<feBlend mode="multiply" in2="BackgroundImageFix" result="effect1_dropShadow_19296_10060"/>
<feBlend mode="normal" in="SourceGraphic" in2="effect1_dropShadow_19296_10060" result="shape"/>
</filter>
<clipPath id="clip0_19296_10060">
<rect width="21.2362" height="21.2362" fill="white" transform="translate(39.5068 22.0967) rotate(-90)"/>
</clipPath>
<clipPath id="clip1_19296_10060">
<rect width="13.9363" height="15.9271" fill="white" transform="translate(43.0469 64.5693)"/>
</clipPath>
<clipPath id="clip2_19296_10060">
<rect width="13.9363" height="15.9271" fill="white" transform="translate(43.0469 140.666)"/>
</clipPath>
<clipPath id="clip3_19296_10060">
<rect width="15.9271" height="14.1575" fill="white" transform="translate(42.1621 217.647)"/>
</clipPath>
</defs>
</svg>
