<svg width="23" height="21" viewBox="0 0 23 21" fill="none" xmlns="http://www.w3.org/2000/svg">
<path d="M11.5781 2.5542C11.5391 2.51514 11.4609 2.51514 11.3828 2.5542L8.21875 3.68701L11.5 4.93701L14.7422 3.68701L11.5781 2.5542ZM7.125 8.76514L10.5625 9.97607V6.57764L7.125 5.24951V8.76514ZM12.4375 9.97607L15.875 8.76514V5.24951L12.4375 6.57764V9.97607ZM17.75 4.27295V8.76514L21.3047 10.1323C22.1641 10.4448 22.75 11.2651 22.75 12.1636V16.812C22.75 17.7104 22.2031 18.4917 21.4219 18.8433L17.6719 20.4839C17.125 20.7183 16.5 20.7183 15.9531 20.5229L11.5 18.6479L7.00781 20.4839C6.46094 20.7183 5.83594 20.7183 5.28906 20.4839L1.53906 18.8433C0.757812 18.4917 0.25 17.7104 0.25 16.812V12.1636C0.25 11.2651 0.796875 10.4448 1.65625 10.1323L5.25 8.76514V4.27295C5.25 3.37451 5.79688 2.5542 6.69531 2.2417L10.7578 0.796387C11.2266 0.601074 11.7344 0.601074 12.2031 0.796387L16.2656 2.2417C17.1641 2.5542 17.75 3.37451 17.75 4.27295ZM10.5625 13.1792L7.125 14.4683V18.4526L10.5625 17.0073V13.1792ZM2.28125 17.1245L5.25 18.4136V14.4683L2.125 13.2964V16.812C2.125 16.9683 2.16406 17.0464 2.28125 17.1245ZM15.875 18.4526V14.4683L12.4375 13.1792V17.0073L15.875 18.4526ZM17.75 18.4136L20.6797 17.1245C20.7969 17.0464 20.875 16.9292 20.875 16.812V13.2964L17.75 14.4683V18.4136ZM6.30469 10.4448C6.22656 10.4448 6.14844 10.4448 6.07031 10.4448L2.98438 11.6167L6.1875 12.8276L9.42969 11.5776L6.30469 10.4448ZM16.6953 10.4448L13.5312 11.5776L16.8125 12.8276L19.9766 11.6167L16.8906 10.4448C16.8125 10.4448 16.7344 10.4448 16.6953 10.4448Z" fill="#00AEFF"/>
</svg>
