<svg xmlns="http://www.w3.org/2000/svg" width="269" height="218" fill="none"><g filter="url(#a)"><g filter="url(#b)"><path fill="url(#c)" fill-opacity=".6" d="M63.987 73.888c-.184-5.07-.277-7.605.692-10.305.832-2.315 2.36-4.556 4.214-6.175 2.16-1.887 5.298-2.986 11.573-5.183 13.352-4.676 26.233-10.946 38.377-18.232 5.52-3.312 8.28-4.967 10.656-5.489 2.358-.518 4.02-.518 6.379 0 2.375.522 5.135 2.177 10.655 5.49 12.145 7.285 25.026 13.555 38.378 18.23 6.275 2.198 9.412 3.297 11.573 5.184 1.853 1.619 3.382 3.86 4.213 6.175.97 2.7.877 5.235.692 10.305-.525 14.428-3.13 35.871-12.648 55.225-12.552 25.522-33.515 42.263-45.938 50.509-2.727 1.811-4.091 2.716-6.66 3.329-1.782.426-5.128.426-6.909 0-2.57-.613-3.933-1.518-6.66-3.329-12.423-8.246-33.387-24.987-45.939-50.509-9.518-19.354-12.122-40.797-12.648-55.225Z"/><path fill="url(#d)" fill-opacity=".6" d="M63.987 73.888c-.184-5.07-.277-7.605.692-10.305.832-2.315 2.36-4.556 4.214-6.175 2.16-1.887 5.298-2.986 11.573-5.183 13.352-4.676 26.233-10.946 38.377-18.232 5.52-3.312 8.28-4.967 10.656-5.489 2.358-.518 4.02-.518 6.379 0 2.375.522 5.135 2.177 10.655 5.49 12.145 7.285 25.026 13.555 38.378 18.23 6.275 2.198 9.412 3.297 11.573 5.184 1.853 1.619 3.382 3.86 4.213 6.175.97 2.7.877 5.235.692 10.305-.525 14.428-3.13 35.871-12.648 55.225-12.552 25.522-33.515 42.263-45.938 50.509-2.727 1.811-4.091 2.716-6.66 3.329-1.782.426-5.128.426-6.909 0-2.57-.613-3.933-1.518-6.66-3.329-12.423-8.246-33.387-24.987-45.939-50.509-9.518-19.354-12.122-40.797-12.648-55.225Z" style="mix-blend-mode:overlay"/><path stroke="url(#e)" stroke-linecap="round" stroke-width="5.949" d="M130.137 31.409c1.938-.426 3.165-.426 5.103 0 .792.174 1.795.57 3.388 1.419 1.595.849 3.589 2.044 6.375 3.716 12.292 7.374 25.356 13.736 38.924 18.488 3.175 1.112 5.419 1.9 7.145 2.637 1.7.726 2.707 1.326 3.455 1.98 1.471 1.284 2.711 3.1 3.371 4.94.736 2.049.711 3.946.519 9.19-.518 14.239-3.091 35.205-12.345 54.021-12.22 24.848-32.694 41.232-44.914 49.344-2.742 1.82-3.709 2.437-5.706 2.914-.57.136-1.592.238-2.764.238-1.172 0-2.193-.102-2.763-.238-1.997-.477-2.965-1.093-5.707-2.914-12.22-8.112-32.694-24.496-44.914-49.344-9.254-18.816-11.826-39.782-12.344-54.02-.192-5.245-.217-7.142.519-9.192.66-1.838 1.9-3.655 3.371-4.94.748-.653 1.755-1.253 3.455-1.98 1.726-.736 3.969-1.524 7.144-2.636 13.569-4.752 26.633-11.114 38.925-18.488 2.786-1.672 4.78-2.867 6.375-3.716 1.593-.849 2.596-1.245 3.388-1.42Z"/></g><mask id="i" width="139" height="156" x="63" y="28" maskUnits="userSpaceOnUse" style="mask-type:alpha"><path fill="url(#f)" fill-opacity=".6" d="M130.137 31.409c1.938-.426 3.165-.426 5.103 0 .792.174 1.795.57 3.388 1.419 1.595.849 3.589 2.044 6.375 3.716 12.292 7.374 25.356 13.736 38.924 18.488 3.175 1.112 5.419 1.9 7.145 2.637 1.7.726 2.707 1.326 3.455 1.98 1.471 1.284 2.711 3.1 3.371 4.94.736 2.049.711 3.946.519 9.19-.518 14.239-3.091 35.205-12.345 54.021-12.22 24.848-32.694 41.232-44.914 49.344-2.742 1.82-3.709 2.437-5.706 2.914-.57.136-1.592.238-2.764.238-1.172 0-2.193-.102-2.763-.238-1.997-.477-2.965-1.093-5.707-2.914-12.22-8.112-32.694-24.496-44.914-49.344-9.254-18.816-11.826-39.782-12.344-54.02-.192-5.245-.217-7.142.519-9.192.66-1.838 1.9-3.655 3.371-4.94.748-.653 1.755-1.253 3.455-1.98 1.726-.736 3.969-1.524 7.144-2.636 13.569-4.752 26.633-11.114 38.925-18.488 2.786-1.672 4.78-2.867 6.375-3.716 1.593-.849 2.596-1.245 3.388-1.42Z"/><path fill="url(#g)" fill-opacity=".6" d="M130.137 31.409c1.938-.426 3.165-.426 5.103 0 .792.174 1.795.57 3.388 1.419 1.595.849 3.589 2.044 6.375 3.716 12.292 7.374 25.356 13.736 38.924 18.488 3.175 1.112 5.419 1.9 7.145 2.637 1.7.726 2.707 1.326 3.455 1.98 1.471 1.284 2.711 3.1 3.371 4.94.736 2.049.711 3.946.519 9.19-.518 14.239-3.091 35.205-12.345 54.021-12.22 24.848-32.694 41.232-44.914 49.344-2.742 1.82-3.709 2.437-5.706 2.914-.57.136-1.592.238-2.764.238-1.172 0-2.193-.102-2.763-.238-1.997-.477-2.965-1.093-5.707-2.914-12.22-8.112-32.694-24.496-44.914-49.344-9.254-18.816-11.826-39.782-12.344-54.02-.192-5.245-.217-7.142.519-9.192.66-1.838 1.9-3.655 3.371-4.94.748-.653 1.755-1.253 3.455-1.98 1.726-.736 3.969-1.524 7.144-2.636 13.569-4.752 26.633-11.114 38.925-18.488 2.786-1.672 4.78-2.867 6.375-3.716 1.593-.849 2.596-1.245 3.388-1.42Z"/><path stroke="url(#h)" stroke-linecap="round" stroke-width="5.949" d="M130.137 31.409c1.938-.426 3.165-.426 5.103 0 .792.174 1.795.57 3.388 1.419 1.595.849 3.589 2.044 6.375 3.716 12.292 7.374 25.356 13.736 38.924 18.488 3.175 1.112 5.419 1.9 7.145 2.637 1.7.726 2.707 1.326 3.455 1.98 1.471 1.284 2.711 3.1 3.371 4.94.736 2.049.711 3.946.519 9.19-.518 14.239-3.091 35.205-12.345 54.021-12.22 24.848-32.694 41.232-44.914 49.344-2.742 1.82-3.709 2.437-5.706 2.914-.57.136-1.592.238-2.764.238-1.172 0-2.193-.102-2.763-.238-1.997-.477-2.965-1.093-5.707-2.914-12.22-8.112-32.694-24.496-44.914-49.344-9.254-18.816-11.826-39.782-12.344-54.02-.192-5.245-.217-7.142.519-9.192.66-1.838 1.9-3.655 3.371-4.94.748-.653 1.755-1.253 3.455-1.98 1.726-.736 3.969-1.524 7.144-2.636 13.569-4.752 26.633-11.114 38.925-18.488 2.786-1.672 4.78-2.867 6.375-3.716 1.593-.849 2.596-1.245 3.388-1.42Z"/></mask><g mask="url(#i)"><mask id="m" width="139" height="156" x="63" y="28" maskUnits="userSpaceOnUse" style="mask-type:alpha"><path fill="url(#j)" fill-opacity=".6" d="M130.137 31.409c1.938-.426 3.164-.426 5.103 0 .792.174 1.795.57 3.388 1.419 1.594.849 3.588 2.044 6.375 3.716 12.292 7.374 25.355 13.736 38.924 18.488 3.175 1.112 5.418 1.9 7.145 2.637 1.7.726 2.707 1.326 3.455 1.98 1.471 1.284 2.71 3.1 3.371 4.94.735 2.049.71 3.946.519 9.19-.519 14.239-3.091 35.205-12.345 54.021-12.221 24.848-32.694 41.232-44.915 49.344-2.742 1.82-3.708 2.437-5.706 2.914-.569.136-1.591.239-2.763.239-1.172-.001-2.193-.103-2.763-.239-1.997-.477-2.965-1.093-5.707-2.914-12.22-8.112-32.694-24.496-44.914-49.344-9.254-18.816-11.826-39.782-12.345-54.02-.19-5.245-.216-7.142.52-9.192.66-1.838 1.9-3.655 3.37-4.94.749-.653 1.755-1.253 3.456-1.98 1.726-.736 3.969-1.524 7.143-2.636 13.57-4.752 26.633-11.114 38.925-18.488 2.787-1.672 4.781-2.867 6.375-3.716 1.594-.849 2.596-1.245 3.389-1.42Z"/><path fill="url(#k)" fill-opacity=".6" d="M130.137 31.409c1.938-.426 3.164-.426 5.103 0 .792.174 1.795.57 3.388 1.419 1.594.849 3.588 2.044 6.375 3.716 12.292 7.374 25.355 13.736 38.924 18.488 3.175 1.112 5.418 1.9 7.145 2.637 1.7.726 2.707 1.326 3.455 1.98 1.471 1.284 2.71 3.1 3.371 4.94.735 2.049.71 3.946.519 9.19-.519 14.239-3.091 35.205-12.345 54.021-12.221 24.848-32.694 41.232-44.915 49.344-2.742 1.82-3.708 2.437-5.706 2.914-.569.136-1.591.239-2.763.239-1.172-.001-2.193-.103-2.763-.239-1.997-.477-2.965-1.093-5.707-2.914-12.22-8.112-32.694-24.496-44.914-49.344-9.254-18.816-11.826-39.782-12.345-54.02-.19-5.245-.216-7.142.52-9.192.66-1.838 1.9-3.655 3.37-4.94.749-.653 1.755-1.253 3.456-1.98 1.726-.736 3.969-1.524 7.143-2.636 13.57-4.752 26.633-11.114 38.925-18.488 2.787-1.672 4.781-2.867 6.375-3.716 1.594-.849 2.596-1.245 3.389-1.42Z"/><path stroke="url(#l)" stroke-linecap="round" stroke-width="5.949" d="M130.137 31.409c1.938-.426 3.164-.426 5.103 0 .792.174 1.795.57 3.388 1.419 1.594.849 3.588 2.044 6.375 3.716 12.292 7.374 25.355 13.736 38.924 18.488 3.175 1.112 5.418 1.9 7.145 2.637 1.7.726 2.707 1.326 3.455 1.98 1.471 1.284 2.71 3.1 3.371 4.94.735 2.049.71 3.946.519 9.19-.519 14.239-3.091 35.205-12.345 54.021-12.221 24.848-32.694 41.232-44.915 49.344-2.742 1.82-3.708 2.437-5.706 2.914-.569.136-1.591.239-2.763.239-1.172-.001-2.193-.103-2.763-.239-1.997-.477-2.965-1.093-5.707-2.914-12.22-8.112-32.694-24.496-44.914-49.344-9.254-18.816-11.826-39.782-12.345-54.02-.19-5.245-.216-7.142.52-9.192.66-1.838 1.9-3.655 3.37-4.94.749-.653 1.755-1.253 3.456-1.98 1.726-.736 3.969-1.524 7.143-2.636 13.57-4.752 26.633-11.114 38.925-18.488 2.787-1.672 4.781-2.867 6.375-3.716 1.594-.849 2.596-1.245 3.389-1.42Z"/></mask><g mask="url(#m)"><path fill="url(#n)" fill-opacity=".6" d="M28.5.756h208.2v208.2H28.5z"/><path fill="url(#o)" fill-opacity=".6" d="M28.5.756h208.2v208.2H28.5z" style="mix-blend-mode:overlay"/><path stroke="url(#p)" stroke-linecap="round" stroke-width="5.949" d="M28.5.756h208.2v208.2H28.5z"/><path fill="url(#q)" fill-opacity=".6" d="M28.685.942h207.828V208.77H28.685z"/><path fill="url(#r)" fill-opacity=".6" d="M28.685.942h207.828V208.77H28.685z" style="mix-blend-mode:overlay"/><path stroke="url(#s)" stroke-linecap="round" stroke-width=".372" d="M28.685.942h207.828V208.77H28.685z"/><path fill="url(#t)" fill-opacity=".6" d="M31.474 3.731h202.252v202.252H31.474z"/><path fill="url(#u)" fill-opacity=".6" d="M31.474 3.731h202.252v202.252H31.474z" style="mix-blend-mode:overlay"/><path stroke="url(#v)" stroke-linecap="round" stroke-width="5.949" d="M31.474 3.731h202.252v202.252H31.474z"/></g><g filter="url(#w)"><path fill="url(#x)" fill-opacity=".6" d="M28.5.756h208.2v208.2H28.5z"/><path fill="url(#y)" fill-opacity=".6" d="M28.5.756h208.2v208.2H28.5z" style="mix-blend-mode:overlay"/><path stroke="url(#z)" stroke-linecap="round" stroke-width="5.949" d="M28.5.756h208.2v208.2H28.5z"/></g></g><path fill="#EFF0FA" d="M90.566 134.004v-7.92h4.691v1.15h-3.542v2.233h2.882v1.155h-2.882v3.382h-1.15Zm7.145.165c-.44 0-.808-.081-1.105-.242a1.722 1.722 0 0 1-.677-.649 1.805 1.805 0 0 1-.225-.891c0-.301.053-.565.16-.792.105-.227.263-.42.472-.577.21-.162.466-.292.77-.391.264-.077.563-.145.897-.203.333-.059.683-.114 1.05-.165l1.1-.154-.418.231c.008-.466-.091-.811-.297-1.034-.201-.228-.55-.341-1.045-.341-.311 0-.597.073-.858.22-.26.143-.442.381-.544.715l-1.073-.33c.147-.51.425-.915.836-1.216.414-.301.965-.451 1.65-.451.532 0 .994.092 1.386.275.396.18.686.466.869.858.096.194.154.4.176.616.022.216.033.449.033.699v3.657h-1.017v-1.358l.198.176c-.246.454-.56.793-.94 1.017-.378.22-.844.33-1.398.33Zm.204-.94c.326 0 .606-.057.841-.171a1.66 1.66 0 0 0 .567-.445c.143-.18.236-.367.28-.561.063-.176.097-.374.105-.594.01-.22.016-.396.016-.528l.374.137-.99.149c-.297.044-.566.088-.808.132a4.74 4.74 0 0 0-.638.148 2.15 2.15 0 0 0-.424.198.971.971 0 0 0-.291.281.733.733 0 0 0-.105.401c0 .154.039.297.116.429a.812.812 0 0 0 .352.308c.157.077.359.116.605.116Zm6.653.935c-.722 0-1.311-.16-1.766-.479-.454-.319-.733-.768-.836-1.347l1.177-.182c.074.308.242.552.506.732.268.176.6.264.996.264.359 0 .64-.074.841-.22a.703.703 0 0 0 .308-.605.558.558 0 0 0-.11-.363c-.069-.096-.218-.186-.445-.27a12.511 12.511 0 0 0-1.04-.313c-.509-.132-.914-.274-1.215-.424-.297-.154-.51-.332-.638-.533a1.404 1.404 0 0 1-.187-.743c0-.359.095-.673.286-.94.191-.268.458-.475.803-.622.348-.147.755-.22 1.221-.22.455 0 .86.072 1.215.215.356.143.644.346.864.61.22.26.352.567.396.919l-1.177.214a.965.965 0 0 0-.402-.676c-.227-.165-.522-.255-.885-.27-.348-.015-.631.044-.847.176-.216.128-.325.306-.325.534 0 .132.041.243.121.335.085.092.246.18.484.264.239.084.591.185 1.056.303.499.128.895.271 1.188.429.294.154.503.339.627.555.129.213.193.471.193.776 0 .586-.215 1.046-.644 1.38-.425.334-1.013.501-1.765.501Zm7.025-.16a4.944 4.944 0 0 1-1.1.094 2.498 2.498 0 0 1-.963-.209 1.316 1.316 0 0 1-.638-.605 1.775 1.775 0 0 1-.209-.748 32.086 32.086 0 0 1-.011-.869v-5.253h1.155v5.198c0 .238.002.445.006.621a.969.969 0 0 0 .115.446c.132.227.341.357.627.39.29.029.629.017 1.018-.038v.973Zm-4.059-5.016v-.924h4.059v.924h-4.059Zm7.677 5.181c-.59 0-1.109-.128-1.556-.385a2.731 2.731 0 0 1-1.04-1.083c-.246-.466-.368-1.005-.368-1.617 0-.649.121-1.212.363-1.689a2.675 2.675 0 0 1 1.023-1.105c.436-.261.944-.391 1.523-.391.605 0 1.12.141 1.546.424.425.278.742.676.951 1.193.213.517.297 1.131.253 1.843h-1.149v-.418c-.008-.69-.14-1.199-.396-1.529-.253-.33-.64-.495-1.161-.495-.576 0-1.008.181-1.298.544-.29.363-.434.887-.434 1.573 0 .653.144 1.159.434 1.518.29.356.708.534 1.254.534.359 0 .669-.081.93-.242.264-.165.469-.4.616-.704l1.127.357a2.681 2.681 0 0 1-1.05 1.238c-.47.289-.992.434-1.568.434Zm-2.117-2.81v-.897h4.24v.897h-4.24Zm8.318 2.805c-.723 0-1.311-.16-1.766-.479-.455-.319-.733-.768-.836-1.347l1.177-.182c.073.308.242.552.506.732.268.176.6.264.996.264.359 0 .639-.074.841-.22a.705.705 0 0 0 .308-.605.563.563 0 0 0-.11-.363c-.07-.096-.218-.186-.445-.27a12.633 12.633 0 0 0-1.04-.313c-.51-.132-.915-.274-1.215-.424-.297-.154-.51-.332-.638-.533a1.404 1.404 0 0 1-.187-.743c0-.359.095-.673.286-.94.19-.268.458-.475.803-.622.348-.147.755-.22 1.221-.22.454 0 .859.072 1.215.215.356.143.644.346.864.61.22.26.352.567.396.919l-1.177.214a.972.972 0 0 0-.402-.676c-.227-.165-.522-.255-.885-.27-.349-.015-.631.044-.847.176-.217.128-.325.306-.325.534 0 .132.04.243.121.335.084.092.246.18.484.264.238.084.59.185 1.056.303.499.128.895.271 1.188.429.293.154.502.339.627.555.128.213.193.471.193.776 0 .586-.215 1.046-.644 1.38-.425.334-1.014.501-1.765.501Zm7.025-.16a4.944 4.944 0 0 1-1.1.094 2.494 2.494 0 0 1-.963-.209 1.316 1.316 0 0 1-.638-.605 1.775 1.775 0 0 1-.209-.748 32.086 32.086 0 0 1-.011-.869v-5.253h1.155v5.198c0 .238.002.445.006.621a.957.957 0 0 0 .115.446c.132.227.341.357.627.39.29.029.629.017 1.018-.038v.973Zm-4.059-5.016v-.924h4.059v.924h-4.059Zm10.753 5.181a3.842 3.842 0 0 1-1.469-.275 3.318 3.318 0 0 1-1.166-.814 3.74 3.74 0 0 1-.77-1.298c-.183-.51-.275-1.089-.275-1.738 0-.854.156-1.588.468-2.2a3.38 3.38 0 0 1 1.298-1.419c.553-.334 1.191-.5 1.914-.5.931 0 1.673.216 2.227.649.557.432.937 1.03 1.139 1.793l-1.166.209a2.382 2.382 0 0 0-.781-1.133c-.36-.283-.811-.426-1.353-.429-.561-.004-1.029.121-1.403.374-.37.253-.649.608-.836 1.067-.187.454-.282.984-.286 1.589-.004.605.088 1.135.275 1.59.187.451.468.803.842 1.056.377.253.847.381 1.408.385.451.007.837-.076 1.16-.248.326-.176.585-.433.776-.77.19-.337.313-.752.368-1.243h-1.54v-.924h2.761c.007.066.013.154.017.264l.005.204c0 .733-.141 1.387-.423 1.963a3.227 3.227 0 0 1-1.232 1.359c-.539.326-1.192.489-1.958.489Zm4.709-.165v-5.94h1.023v1.441l-.143-.187c.074-.191.169-.365.286-.522a1.59 1.59 0 0 1 .407-.396c.151-.11.317-.195.501-.253.187-.063.377-.099.572-.11.194-.015.381-.006.561.027v1.078a1.873 1.873 0 0 0-.649-.044 1.412 1.412 0 0 0-.649.226 1.453 1.453 0 0 0-.446.44 1.876 1.876 0 0 0-.231.577 3.029 3.029 0 0 0-.071.666v2.997h-1.161Zm6.726.165c-.594 0-1.109-.134-1.545-.401a2.705 2.705 0 0 1-1.012-1.106c-.235-.473-.352-1.017-.352-1.633 0-.62.121-1.165.363-1.634a2.66 2.66 0 0 1 1.017-1.1c.437-.264.946-.396 1.529-.396.594 0 1.109.134 1.546.402a2.71 2.71 0 0 1 1.012 1.105c.238.469.357 1.01.357 1.623 0 .619-.121 1.166-.363 1.639a2.702 2.702 0 0 1-1.012 1.105c-.436.264-.949.396-1.54.396Zm0-1.083c.569 0 .992-.191 1.271-.572.282-.385.423-.88.423-1.485 0-.62-.143-1.115-.429-1.485-.282-.374-.704-.561-1.265-.561-.385 0-.702.088-.951.264-.25.172-.435.412-.556.72a2.86 2.86 0 0 0-.181 1.062c0 .623.143 1.122.429 1.496.286.374.706.561 1.259.561Zm5.174.918-1.815-5.945 1.139.005 1.243 4.076 1.254-4.076h.99l1.254 4.076 1.243-4.076h1.133l-1.815 5.94h-.924l-1.386-4.301-1.392 4.301h-.924Zm7.536-6.913v-1.117h1.149v1.117h-1.149Zm0 6.913v-5.94h1.149v5.94h-1.149Zm6.97 0v-2.92c0-.231-.021-.468-.061-.71a2.132 2.132 0 0 0-.22-.682 1.285 1.285 0 0 0-.456-.506c-.195-.128-.45-.192-.765-.192-.205 0-.4.034-.583.104a1.209 1.209 0 0 0-.484.325c-.136.15-.244.348-.324.594a3.018 3.018 0 0 0-.116.896l-.715-.269c0-.539.101-1.014.303-1.425.201-.414.491-.737.869-.968.377-.231.834-.346 1.369-.346.411 0 .755.066 1.034.198s.504.306.677.522c.176.213.309.446.401.699.092.253.154.5.187.742s.05.455.05.638v3.3h-1.166Zm-4.175 0v-5.94h1.029v1.716h.137v4.224h-1.166Zm9.221 2.805c-.319 0-.629-.049-.93-.148a2.667 2.667 0 0 1-.814-.44 2.397 2.397 0 0 1-.61-.71l1.061-.539c.129.253.312.438.55.556.239.117.49.176.754.176.326 0 .605-.059.836-.176.231-.114.405-.286.522-.517.121-.231.18-.517.176-.858v-1.661h.138v-4.428h1.017v6.1c0 .157-.005.308-.016.451a3.33 3.33 0 0 1-.061.429 2.06 2.06 0 0 1-.484.99c-.234.26-.535.454-.902.583a3.706 3.706 0 0 1-1.237.192Zm-.088-2.64c-.554 0-1.032-.137-1.436-.412a2.726 2.726 0 0 1-.929-1.122 3.834 3.834 0 0 1-.325-1.606c0-.598.11-1.132.33-1.601.22-.473.532-.845.935-1.116.407-.275.889-.413 1.447-.413.561 0 1.032.138 1.413.413.385.271.675.643.869 1.116.198.473.297 1.007.297 1.601 0 .594-.099 1.127-.297 1.6a2.595 2.595 0 0 1-.874 1.128c-.385.275-.862.412-1.43.412Zm.159-1.039c.378 0 .686-.09.924-.27.239-.18.413-.427.523-.742.11-.316.165-.679.165-1.089 0-.411-.057-.774-.171-1.089a1.51 1.51 0 0 0-.517-.737c-.231-.176-.526-.264-.885-.264-.382 0-.695.093-.941.28a1.68 1.68 0 0 0-.55.754 3.014 3.014 0 0 0-.176 1.056c0 .392.059.748.176 1.067.121.315.301.566.539.753.242.187.547.281.913.281Zm-64.773 15.039c-.792 0-1.467-.172-2.024-.517a3.403 3.403 0 0 1-1.281-1.452c-.294-.62-.44-1.338-.44-2.156 0-.818.146-1.536.44-2.156a3.364 3.364 0 0 1 1.281-1.446c.557-.349 1.232-.523 2.024-.523.913 0 1.668.231 2.266.693.601.462 1.019 1.084 1.254 1.865l-1.166.313c-.154-.554-.429-.988-.825-1.303-.392-.316-.902-.473-1.529-.473-.561 0-1.028.126-1.402.379a2.33 2.33 0 0 0-.847 1.062c-.187.454-.281.984-.281 1.589-.004.605.088 1.135.275 1.59.191.454.473.808.847 1.061.378.253.847.38 1.408.38.627 0 1.137-.158 1.529-.473.396-.319.671-.754.825-1.304l1.166.314c-.235.781-.653 1.402-1.254 1.864-.598.462-1.353.693-2.266.693Zm7.309 0c-.594 0-1.109-.134-1.545-.401a2.705 2.705 0 0 1-1.012-1.106c-.235-.473-.352-1.017-.352-1.633 0-.62.121-1.165.363-1.634a2.66 2.66 0 0 1 1.017-1.1c.437-.264.946-.396 1.529-.396.594 0 1.109.134 1.546.402a2.71 2.71 0 0 1 1.012 1.105c.238.469.357 1.01.357 1.623 0 .619-.121 1.166-.363 1.639a2.702 2.702 0 0 1-1.012 1.105c-.436.264-.949.396-1.54.396Zm0-1.083c.569 0 .992-.191 1.271-.572.282-.385.423-.88.423-1.485 0-.62-.143-1.115-.429-1.485-.282-.374-.704-.561-1.265-.561-.385 0-.702.088-.951.264-.25.172-.435.412-.556.72a2.86 2.86 0 0 0-.181 1.062c0 .623.143 1.122.429 1.496.286.374.706.561 1.259.561Zm11.241.918.005-3.701c0-.429-.11-.763-.33-1.001-.22-.242-.509-.363-.869-.363-.22 0-.421.051-.605.154a1.138 1.138 0 0 0-.44.451c-.11.198-.165.447-.165.748l-.555-.281a2.08 2.08 0 0 1 .264-1.1c.187-.315.44-.559.759-.731a2.18 2.18 0 0 1 1.072-.264c.642 0 1.139.192 1.491.577.352.385.528.897.528 1.535l-.006 3.976h-1.149Zm-7.123 0v-5.94h1.023v1.716h.132v4.224h-1.155Zm3.564 0 .006-3.679c0-.433-.11-.772-.33-1.018-.216-.246-.508-.368-.875-.368-.363 0-.656.124-.88.374-.22.249-.33.575-.33.979l-.55-.352c0-.389.094-.736.281-1.04a2.02 2.02 0 0 1 .759-.72c.319-.176.68-.264 1.083-.264.422 0 .781.089 1.078.269.297.176.523.424.677.743.158.319.236.689.236 1.111l-.005 3.965h-1.15Zm8.931.165c-.569 0-1.045-.137-1.43-.412a2.597 2.597 0 0 1-.875-1.128 4.107 4.107 0 0 1-.297-1.6c0-.594.097-1.128.292-1.601.198-.473.487-.845.869-1.116.385-.275.858-.413 1.419-.413.557 0 1.037.138 1.441.413.407.271.72.643.94 1.116.22.469.33 1.003.33 1.601a3.79 3.79 0 0 1-.33 1.606 2.667 2.667 0 0 1-.929 1.122c-.4.275-.877.412-1.43.412Zm-2.794 2.475v-8.58h1.023v4.274h.132v4.306h-1.155Zm2.634-3.514c.367 0 .669-.094.908-.281.242-.187.421-.438.539-.753a2.99 2.99 0 0 0 .181-1.067c0-.389-.06-.741-.181-1.056a1.642 1.642 0 0 0-.545-.754c-.246-.187-.559-.28-.94-.28-.36 0-.657.088-.891.264a1.557 1.557 0 0 0-.517.737c-.11.315-.165.678-.165 1.089 0 .41.055.773.165 1.089.11.315.284.562.522.742.238.18.546.27.924.27Zm5.741 1.039c-.44 0-.808-.081-1.105-.242a1.723 1.723 0 0 1-.677-.649 1.81 1.81 0 0 1-.225-.891c0-.301.053-.565.159-.792a1.52 1.52 0 0 1 .473-.577 2.52 2.52 0 0 1 .77-.391 8.28 8.28 0 0 1 .897-.203c.333-.059.683-.114 1.05-.165l1.1-.154-.418.231c.007-.466-.092-.811-.297-1.034-.202-.228-.55-.341-1.045-.341-.312 0-.598.073-.858.22-.26.143-.442.381-.544.715l-1.073-.33c.147-.51.425-.915.836-1.216.414-.301.964-.451 1.65-.451.532 0 .994.092 1.386.275.396.18.686.466.869.858.095.194.154.4.176.616.022.216.033.449.033.699v3.657h-1.017v-1.358l.198.176c-.246.454-.56.793-.941 1.017-.378.22-.843.33-1.397.33Zm.204-.94c.326 0 .606-.057.841-.171.235-.117.424-.266.567-.445.143-.18.236-.367.28-.561.062-.176.097-.374.105-.594.011-.22.016-.396.016-.528l.374.137-.99.149c-.297.044-.566.088-.808.132-.239.04-.451.089-.638.148a2.157 2.157 0 0 0-.424.198.966.966 0 0 0-.291.281.73.73 0 0 0-.105.401c0 .154.039.297.116.429a.81.81 0 0 0 .352.308c.157.077.359.116.605.116Zm8.55.775v-2.92c0-.231-.02-.468-.06-.71a2.132 2.132 0 0 0-.22-.682 1.295 1.295 0 0 0-.457-.506c-.194-.128-.449-.192-.764-.192-.206 0-.4.034-.583.104a1.202 1.202 0 0 0-.484.325c-.136.15-.244.348-.325.594a3.02 3.02 0 0 0-.115.896l-.715-.269c0-.539.101-1.014.302-1.425.202-.414.492-.737.869-.968.378-.231.834-.346 1.37-.346.41 0 .755.066 1.034.198.278.132.504.306.676.522.176.213.31.446.402.699.091.253.154.5.187.742s.049.455.049.638v3.3h-1.166Zm-4.174 0v-5.94h1.028v1.716h.138v4.224h-1.166Zm6.883-6.913v-1.117h1.149v1.117h-1.149Zm0 6.913v-5.94h1.149v5.94h-1.149Zm5.435.165c-.59 0-1.109-.128-1.556-.385a2.738 2.738 0 0 1-1.04-1.083c-.245-.466-.368-1.005-.368-1.617 0-.649.121-1.212.363-1.689a2.688 2.688 0 0 1 1.023-1.105c.436-.261.944-.391 1.523-.391.605 0 1.121.141 1.546.424.425.278.742.676.951 1.193.213.517.297 1.131.253 1.843h-1.149v-.418c-.007-.69-.139-1.199-.396-1.529-.253-.33-.64-.495-1.161-.495-.575 0-1.008.181-1.298.544-.289.363-.434.887-.434 1.573 0 .653.145 1.159.434 1.518.29.356.708.534 1.254.534.36 0 .67-.081.93-.242.264-.165.469-.4.616-.704l1.127.357a2.681 2.681 0 0 1-1.05 1.238 2.93 2.93 0 0 1-1.568.434Zm-2.117-2.81v-.897h4.24v.897h-4.24Zm8.318 2.805c-.722 0-1.311-.16-1.766-.479-.454-.319-.733-.768-.836-1.347l1.177-.182c.074.308.242.552.506.732.268.176.6.264.996.264.359 0 .64-.074.841-.22a.703.703 0 0 0 .308-.605.558.558 0 0 0-.11-.363c-.069-.096-.218-.186-.445-.27a12.511 12.511 0 0 0-1.04-.313c-.509-.132-.914-.274-1.215-.424-.297-.154-.51-.332-.638-.533a1.404 1.404 0 0 1-.187-.743c0-.359.095-.673.286-.94.191-.268.458-.475.803-.622.348-.147.755-.22 1.221-.22.455 0 .86.072 1.215.215.356.143.644.346.864.61.22.26.352.567.396.919l-1.177.214a.965.965 0 0 0-.402-.676c-.227-.165-.522-.255-.885-.27-.348-.015-.631.044-.847.176-.216.128-.325.306-.325.534 0 .132.041.243.121.335.085.092.246.18.484.264.239.084.591.185 1.056.303.499.128.895.271 1.188.429.294.154.503.339.627.555.129.213.193.471.193.776 0 .586-.215 1.046-.644 1.38-.425.334-1.013.501-1.765.501Zm-39.552 13.835.005-1.023 3.449-3.091c.279-.246.467-.481.566-.704a1.595 1.595 0 0 0-.033-1.43 1.395 1.395 0 0 0-.517-.539 1.446 1.446 0 0 0-.759-.198 1.486 1.486 0 0 0-1.32.753c-.128.227-.19.473-.187.737h-1.177c0-.513.116-.962.347-1.347.235-.389.555-.692.962-.908.407-.22.873-.33 1.397-.33.499 0 .946.114 1.342.341.396.224.708.532.935.924.231.392.347.84.347 1.342 0 .363-.048.671-.143.924a2.256 2.256 0 0 1-.429.704 8.297 8.297 0 0 1-.715.704l-2.662 2.376-.127-.33h4.076v1.095h-5.357Zm9.437.17c-.539 0-1.016-.117-1.43-.352a2.614 2.614 0 0 1-.979-.979c-.235-.414-.352-.891-.352-1.43v-2.728c0-.539.117-1.016.352-1.43a2.57 2.57 0 0 1 .979-.973c.414-.239.891-.358 1.43-.358.539 0 1.016.119 1.43.358.414.234.739.559.973.973.239.414.358.891.358 1.43v2.728c0 .539-.119 1.016-.358 1.43a2.57 2.57 0 0 1-.973.979c-.414.235-.891.352-1.43.352Zm0-1.1c.293 0 .559-.07.797-.209.242-.143.435-.334.578-.572.143-.242.214-.511.214-.808v-2.882a1.57 1.57 0 0 0-.792-1.37 1.518 1.518 0 0 0-.797-.214 1.584 1.584 0 0 0-1.59 1.584v2.882c0 .297.072.566.215.808.143.238.334.429.572.572.242.139.51.209.803.209Zm4.077.93.005-1.023 3.449-3.091c.278-.246.467-.481.566-.704a1.595 1.595 0 0 0-.033-1.43 1.402 1.402 0 0 0-1.276-.737 1.486 1.486 0 0 0-1.32.753 1.432 1.432 0 0 0-.187.737h-1.177c0-.513.116-.962.347-1.347.234-.389.555-.692.962-.908.407-.22.873-.33 1.397-.33.499 0 .946.114 1.342.341.396.224.708.532.935.924.231.392.347.84.347 1.342 0 .363-.048.671-.143.924a2.294 2.294 0 0 1-.429.704 8.297 8.297 0 0 1-.715.704l-2.662 2.376-.127-.33h4.076v1.095h-5.357Zm9.816.005v-1.38h-3.575v-1.089l2.574-5.451h1.314l-2.574 5.451h2.261v-2.145h1.166v2.145h.786v1.089h-.786v1.38h-1.166ZM121.863 70.391l.689-2.535h-2.36l.39-1.475h2.36l.403-1.528h-2.36l.403-1.469h2.353l.631-2.34h1.527l-.637 2.34h1.599l.631-2.34h1.527l-.637 2.34h2.36l-.397 1.47h-2.353l-.416 1.527h2.36l-.397 1.475h-2.353l-.676 2.535h-1.527l.676-2.535h-1.593l-.676 2.535h-1.527Zm2.606-4.01h1.586l.41-1.528h-1.593l-.403 1.528Zm11.546 4.218c-.62 0-1.17-.126-1.651-.377a2.837 2.837 0 0 1-1.131-1.046c-.273-.447-.41-.958-.41-1.534 0-.516.12-.995.358-1.437a2.671 2.671 0 0 1 1.046-1.06l-.032.501a3.077 3.077 0 0 1-.839-.942 2.495 2.495 0 0 1-.292-1.21c0-.537.126-1.003.377-1.397.256-.394.604-.7 1.046-.916.442-.221.952-.332 1.528-.332.576 0 1.085.11 1.527.332.447.216.796.522 1.047.916.256.394.383.86.383 1.398a2.5 2.5 0 0 1-.286 1.202c-.186.355-.47.676-.851.962l-.007-.507c.451.256.796.607 1.034 1.053.243.442.364.92.364 1.437a2.85 2.85 0 0 1-.416 1.534 2.823 2.823 0 0 1-1.138 1.046c-.481.251-1.033.377-1.657.377Zm0-1.475c.459 0 .832-.126 1.118-.377.29-.252.435-.62.435-1.105 0-.486-.143-.854-.429-1.105-.286-.256-.66-.384-1.124-.384-.459 0-.83.128-1.112.384-.281.25-.422.62-.422 1.105s.141.853.422 1.105c.282.25.653.377 1.112.377Zm0-4.46c.386 0 .698-.095.936-.285.243-.195.364-.49.364-.884 0-.395-.121-.687-.364-.878-.238-.195-.55-.292-.936-.292-.381 0-.693.097-.936.292-.238.19-.358.483-.358.878 0 .394.12.689.358.884.243.19.555.286.936.286Zm5.158 5.727v-1.365l4.004-3.568c.312-.278.529-.54.65-.787a1.61 1.61 0 0 0 .182-.715c0-.312-.067-.59-.201-.832a1.512 1.512 0 0 0-1.372-.8c-.325 0-.613.076-.864.228-.247.147-.44.345-.579.592a1.522 1.522 0 0 0-.195.8h-1.612c0-.625.139-1.169.416-1.632a2.899 2.899 0 0 1 1.157-1.08c.494-.255 1.064-.383 1.71-.383.598 0 1.135.134 1.612.403.477.264.851.633 1.124 1.105.273.468.41 1.008.41 1.619 0 .446-.061.82-.182 1.124a2.626 2.626 0 0 1-.546.839c-.238.255-.535.54-.891.851l-2.84 2.516-.143-.39h4.602v1.475h-6.442Z"/><mask id="B" fill="#fff"><path d="M75.13 89.364c3.331 0 4.997 0 6.27.648 1.119.57 2.029 1.48 2.6 2.6.647 1.272.648 2.938.648 6.27v15.168c0 3.331 0 4.997-.649 6.27a5.948 5.948 0 0 1-2.6 2.599c-1.272.649-2.938.649-6.269.649H62.696c-2.429 0-3.643-.001-4.399-.512a2.975 2.975 0 0 1-1.258-1.924c-.165-.897.323-2.009 1.298-4.233l4.572-10.433-4.572-10.433c-.975-2.225-1.463-3.337-1.298-4.234a2.974 2.974 0 0 1 1.258-1.924c.756-.511 1.97-.511 4.399-.511H75.13Zm130.639 0c2.428 0 3.643 0 4.398.511a2.973 2.973 0 0 1 1.258 1.924c.165.897-.322 2.01-1.297 4.233l-4.573 10.434 4.573 10.433c.975 2.224 1.462 3.336 1.297 4.233a2.974 2.974 0 0 1-1.258 1.924c-.755.511-1.97.512-4.398.512h-12.435c-3.331 0-4.997 0-6.269-.649a5.948 5.948 0 0 1-2.6-2.599c-.648-1.273-.648-2.939-.648-6.27V98.881c0-3.331 0-4.997.648-6.27a5.95 5.95 0 0 1 2.6-2.599c1.272-.648 2.938-.648 6.269-.648h12.435Z"/></mask><path fill="#BCCAD4" d="M75.13 89.364c3.331 0 4.997 0 6.27.648 1.119.57 2.029 1.48 2.6 2.6.647 1.272.648 2.938.648 6.27v15.168c0 3.331 0 4.997-.649 6.27a5.948 5.948 0 0 1-2.6 2.599c-1.272.649-2.938.649-6.269.649H62.696c-2.429 0-3.643-.001-4.399-.512a2.975 2.975 0 0 1-1.258-1.924c-.165-.897.323-2.009 1.298-4.233l4.572-10.433-4.572-10.433c-.975-2.225-1.463-3.337-1.298-4.234a2.974 2.974 0 0 1 1.258-1.924c.756-.511 1.97-.511 4.399-.511H75.13Zm130.639 0c2.428 0 3.643 0 4.398.511a2.973 2.973 0 0 1 1.258 1.924c.165.897-.322 2.01-1.297 4.233l-4.573 10.434 4.573 10.433c.975 2.224 1.462 3.336 1.297 4.233a2.974 2.974 0 0 1-1.258 1.924c-.755.511-1.97.512-4.398.512h-12.435c-3.331 0-4.997 0-6.269-.649a5.948 5.948 0 0 1-2.6-2.599c-.648-1.273-.648-2.939-.648-6.27V98.881c0-3.331 0-4.997.648-6.27a5.95 5.95 0 0 1 2.6-2.599c1.272-.648 2.938-.648 6.269-.648h12.435Z"/><path fill="url(#A)" d="M75.13 89.364v-.372.371Zm6.27.648.168-.331-.168.331Zm2.6 2.6.33-.17-.33.17Zm.648 6.27h.371-.371Zm0 15.168h.371-.371Zm-.649 6.27.332.168-.332-.168Zm-2.6 2.599.17.331-.17-.331Zm-6.269.649v.371-.371Zm-16.833-.512-.208.308.208-.308Zm-1.258-1.924-.365.067.365-.067Zm1.298-4.233.34.149-.34-.149Zm4.572-10.433.34.149.066-.149-.065-.149-.34.149Zm-4.572-10.433.34-.15-.34.15Zm-1.298-4.234-.365-.067.365.067Zm1.258-1.924-.208-.308.208.308Zm151.87 0 .209-.308-.209.308Zm1.258 1.924.366-.067-.366.067Zm-1.297 4.233.341.15-.341-.15Zm-4.573 10.434-.341-.149-.065.149.065.149.341-.149Zm4.573 10.433.341-.15-.341.15Zm1.297 4.233.366.067-.366-.067Zm-1.258 1.924.209.308-.209-.308Zm-16.833.512v.371-.371Zm-6.269-.649-.169.331.169-.331Zm-2.6-2.599-.331.168.331-.168Zm-.648-6.27h-.372.372Zm0-15.169h-.372.372Zm.648-6.27-.331-.168.331.169Zm2.6-2.599-.169-.331.169.331Zm6.269-.648v-.372.371Zm-118.204 0v.371c1.672 0 2.903 0 3.877.08.969.08 1.649.235 2.224.528l.169-.331.168-.331c-.697-.356-1.486-.524-2.5-.607-1.011-.082-2.278-.082-3.938-.082v.371Zm6.27.648-.17.331a5.578 5.578 0 0 1 2.438 2.437l.331-.168.332-.17a6.321 6.321 0 0 0-2.763-2.761l-.168.331Zm2.6 2.6-.332.168c.293.575.449 1.256.528 2.225.08.973.08 2.204.08 3.876h.743c0-1.66 0-2.927-.082-3.937-.083-1.015-.251-1.804-.606-2.501l-.332.169Zm.648 6.27h-.372v15.168h.743V98.881h-.371Zm0 15.168h-.372c0 1.672 0 2.903-.08 3.877-.08.969-.235 1.649-.528 2.224l.331.169.332.168c.355-.697.523-1.486.606-2.501.083-1.01.082-2.277.082-3.937h-.371Zm-.649 6.27-.331-.169a5.58 5.58 0 0 1-2.437 2.437l.169.331.168.331a6.312 6.312 0 0 0 2.763-2.762l-.332-.168Zm-2.6 2.599-.168-.331c-.575.293-1.255.449-2.224.528-.974.08-2.205.08-3.877.08v.743c1.66 0 2.927.001 3.937-.082 1.015-.083 1.804-.251 2.501-.607l-.168-.331Zm-6.269.649v-.372H62.696v.743H75.13v-.371Zm-12.434 0v-.372c-1.222 0-2.113-.001-2.793-.063-.68-.062-1.098-.182-1.397-.385l-.209.308-.208.308c.455.308 1.023.444 1.746.51.723.066 1.653.065 2.86.065v-.371Zm-4.399-.512.209-.308a2.6 2.6 0 0 1-1.101-1.683l-.366.067-.365.067a3.346 3.346 0 0 0 1.415 2.165l.208-.308Zm-1.258-1.924.366-.067c-.066-.356-.008-.786.208-1.434.217-.648.574-1.464 1.065-2.583l-.34-.149-.341-.15c-.485 1.106-.86 1.958-1.089 2.646-.23.689-.334 1.263-.234 1.804l.365-.067Zm1.298-4.233.34.149 4.573-10.433-.34-.149-.341-.149-4.572 10.432.34.15Zm4.572-10.433.34-.149-4.571-10.434-.34.15-.341.149 4.572 10.433.34-.149Zm-4.572-10.433.34-.15c-.49-1.118-.847-1.934-1.064-2.583-.216-.648-.274-1.078-.208-1.434l-.366-.067-.365-.067c-.1.541.004 1.115.234 1.804.23.688.604 1.54 1.089 2.646l.34-.15Zm-1.298-4.234.366.067a2.603 2.603 0 0 1 1.1-1.683l-.208-.308-.208-.308a3.346 3.346 0 0 0-1.415 2.165l.365.067Zm1.258-1.924.209.308c.3-.203.716-.323 1.397-.385.68-.062 1.571-.063 2.793-.063v-.743c-1.208 0-2.138 0-2.86.065-.724.066-1.292.202-1.747.51l.208.308Zm4.399-.511v.371H75.13v-.743H62.696v.371Zm143.073 0v.371c1.221 0 2.112 0 2.793.063.68.062 1.097.182 1.397.385l.208-.308.209-.308c-.456-.308-1.024-.444-1.747-.51-.722-.066-1.653-.065-2.86-.065v.371Zm4.398.511-.208.308c.577.391.974.998 1.1 1.683l.366-.067.366-.067a3.35 3.35 0 0 0-1.415-2.165l-.209.308Zm1.258 1.924-.366.067c.066.356.009.787-.208 1.434-.216.649-.573 1.465-1.063 2.583l.34.15.341.149c.484-1.106.858-1.958 1.088-2.646.23-.689.333-1.263.234-1.804l-.366.067Zm-1.297 4.233-.34-.149-4.574 10.434.341.149.34.149 4.574-10.433-.341-.15Zm-4.573 10.434-.341.149 4.574 10.433.34-.149.341-.15-4.574-10.432-.34.149Zm4.573 10.433-.34.149c.49 1.119.847 1.934 1.063 2.583.217.648.274 1.078.208 1.434l.366.067.366.067c.099-.541-.004-1.115-.234-1.804-.23-.688-.604-1.54-1.088-2.646l-.341.15Zm1.297 4.233-.366-.067a2.601 2.601 0 0 1-1.1 1.683l.208.308.209.308a3.35 3.35 0 0 0 1.415-2.165l-.366-.067Zm-1.258 1.924-.208-.308c-.3.203-.717.323-1.397.385-.681.062-1.572.063-2.793.063v.743c1.207 0 2.138.001 2.86-.065.723-.066 1.291-.202 1.747-.51l-.209-.308Zm-4.398.512v-.372h-12.435v.743h12.435v-.371Zm-12.435 0v-.372c-1.672 0-2.903 0-3.876-.08-.969-.079-1.649-.235-2.225-.528l-.168.331-.169.331c.697.356 1.486.524 2.501.607 1.011.083 2.278.082 3.937.082v-.371Zm-6.269-.649.169-.331a5.58 5.58 0 0 1-2.438-2.437l-.331.169-.331.168a6.313 6.313 0 0 0 2.762 2.762l.169-.331Zm-2.6-2.599.331-.169c-.293-.575-.448-1.255-.528-2.224-.079-.974-.08-2.205-.08-3.877h-.743c0 1.66 0 2.927.082 3.937.083 1.015.252 1.804.607 2.501l.331-.168Zm-.648-6.27h.371V98.881h-.743v15.169h.372Zm0-15.169h.371c0-1.672.001-2.903.08-3.876.08-.97.235-1.65.528-2.225l-.331-.168-.331-.17c-.355.698-.524 1.487-.607 2.502-.082 1.01-.082 2.278-.082 3.937h.372Zm.648-6.27.331.17a5.578 5.578 0 0 1 2.438-2.438l-.169-.331-.169-.331a6.322 6.322 0 0 0-2.762 2.762l.331.169Zm2.6-2.599.168.331c.576-.293 1.256-.449 2.225-.528.973-.08 2.204-.08 3.876-.08v-.743c-1.659 0-2.926 0-3.937.082-1.015.083-1.804.251-2.501.607l.169.331Zm6.269-.648v.371h12.435v-.743h-12.435v.371Z" mask="url(#B)" style="mix-blend-mode:darken"/><path fill="url(#C)" fill-opacity=".3" d="M75.13 89.364c3.331 0 4.997 0 6.27.648 1.119.57 2.029 1.48 2.6 2.6.647 1.272.648 2.938.648 6.27v15.168c0 3.331 0 4.997-.649 6.27a5.948 5.948 0 0 1-2.6 2.599c-1.272.649-2.938.649-6.269.649H62.696c-2.429 0-3.643-.001-4.399-.512a2.975 2.975 0 0 1-1.258-1.924c-.165-.897.323-2.009 1.298-4.233l4.572-10.433-4.572-10.433c-.975-2.225-1.463-3.337-1.298-4.234a2.974 2.974 0 0 1 1.258-1.924c.756-.511 1.97-.511 4.399-.511H75.13Zm130.639 0c2.428 0 3.643 0 4.398.511a2.973 2.973 0 0 1 1.258 1.924c.165.897-.322 2.01-1.297 4.233l-4.573 10.434 4.573 10.433c.975 2.224 1.462 3.336 1.297 4.233a2.974 2.974 0 0 1-1.258 1.924c-.755.511-1.97.512-4.398.512h-12.435c-3.331 0-4.997 0-6.269-.649a5.948 5.948 0 0 1-2.6-2.599c-.648-1.273-.648-2.939-.648-6.27V98.881c0-3.331 0-4.997.648-6.27a5.95 5.95 0 0 1 2.6-2.599c1.272-.648 2.938-.648 6.269-.648h12.435Z" style="mix-blend-mode:overlay"/><path fill="url(#D)" fill-opacity=".6" d="M75.13 89.364c3.331 0 4.997 0 6.27.648 1.119.57 2.029 1.48 2.6 2.6.647 1.272.648 2.938.648 6.27v15.168c0 3.331 0 4.997-.649 6.27a5.948 5.948 0 0 1-2.6 2.599c-1.272.649-2.938.649-6.269.649H62.696c-2.429 0-3.643-.001-4.399-.512a2.975 2.975 0 0 1-1.258-1.924c-.165-.897.323-2.009 1.298-4.233l4.572-10.433-4.572-10.433c-.975-2.225-1.463-3.337-1.298-4.234a2.974 2.974 0 0 1 1.258-1.924c.756-.511 1.97-.511 4.399-.511H75.13Zm130.639 0c2.428 0 3.643 0 4.398.511a2.973 2.973 0 0 1 1.258 1.924c.165.897-.322 2.01-1.297 4.233l-4.573 10.434 4.573 10.433c.975 2.224 1.462 3.336 1.297 4.233a2.974 2.974 0 0 1-1.258 1.924c-.755.511-1.97.512-4.398.512h-12.435c-3.331 0-4.997 0-6.269-.649a5.948 5.948 0 0 1-2.6-2.599c-.648-1.273-.648-2.939-.648-6.27V98.881c0-3.331 0-4.997.648-6.27a5.95 5.95 0 0 1 2.6-2.599c1.272-.648 2.938-.648 6.269-.648h12.435Z" style="mix-blend-mode:overlay"/><path fill="#011445" fill-opacity=".31" d="M75.13 89.364c3.331 0 4.997 0 6.27.648 1.119.57 2.029 1.48 2.6 2.6.647 1.272.648 2.938.648 6.27v15.168c0 3.331 0 4.997-.649 6.27a5.948 5.948 0 0 1-2.6 2.599c-1.272.649-2.938.649-6.269.649H62.696c-2.429 0-3.643-.001-4.399-.512a2.975 2.975 0 0 1-1.258-1.924c-.165-.897.323-2.009 1.298-4.233l4.572-10.433-4.572-10.433c-.975-2.225-1.463-3.337-1.298-4.234a2.974 2.974 0 0 1 1.258-1.924c.756-.511 1.97-.511 4.399-.511H75.13Zm130.639 0c2.428 0 3.643 0 4.398.511a2.973 2.973 0 0 1 1.258 1.924c.165.897-.322 2.01-1.297 4.233l-4.573 10.434 4.573 10.433c.975 2.224 1.462 3.336 1.297 4.233a2.974 2.974 0 0 1-1.258 1.924c-.755.511-1.97.512-4.398.512h-12.435c-3.331 0-4.997 0-6.269-.649a5.948 5.948 0 0 1-2.6-2.599c-.648-1.273-.648-2.939-.648-6.27V98.881c0-3.331 0-4.997.648-6.27a5.95 5.95 0 0 1 2.6-2.599c1.272-.648 2.938-.648 6.269-.648h12.435Z" style="mix-blend-mode:darken"/><g filter="url(#E)"><rect width="130.869" height="34.204" x="68.799" y="80.441" fill="#D8E2F0" rx="2"/><rect width="130.497" height="33.833" x="68.984" y="80.626" stroke="url(#F)" stroke-linecap="round" stroke-width=".372" rx="1.814" style="mix-blend-mode:darken"/></g><rect width="130.869" height="34.204" x="68.799" y="80.441" fill="url(#G)" fill-opacity=".2" rx="2" style="mix-blend-mode:overlay"/><circle cx="76.978" cy="97.543" r="2.231" fill="#EAFFF8" style="mix-blend-mode:darken"/><circle cx="191.488" cy="97.543" r="2.231" fill="#EAFFF8" style="mix-blend-mode:darken"/><path fill="#011445" d="M118.679 96.114V93.81h1.49v-5.806h-1.49V85.54h7.521v2.463h-1.491v5.806h1.491v2.304h-7.521ZM133.391 96.114V93.81h.99v-2.386c0-.717-.495-1.034-1.24-1.034-.825 0-1.485.558-1.57 1.352v2.068h1.081v2.304h-5.792V93.81h.99v-3.42h-.99v-2.304h4.631v1.593l.25-.241c.746-.876 1.986-1.352 3.141-1.27 1.82 0 3.305.717 3.305 2.621v3.021h.99v2.304h-5.786Z"/><path fill="#011445" d="m148.764 91.424-3.226.318c0-.876-.25-1.752-1.32-1.752-1.405 0-1.491 1.111-1.491 2.146 0 1.11.086 2.227 1.491 2.227.66.082 1.32-.4 1.405-1.111v-.159h3.226v.241c-.495 2.545-2.89 2.939-4.546 2.939-2.645 0-5.291-1.27-5.291-4.132 0-2.862 2.646-4.132 5.291-4.132-.085.077 4.131-.164 4.461 3.415Z"/><path fill="#011445" d="M151.238 94.844c0 .701-.591 1.27-1.319 1.27-.729 0-1.32-.569-1.32-1.27 0-.7.591-1.27 1.32-1.27.722-.005 1.314.554 1.319 1.249.006 0 .006.01 0 .022ZM128.595 97.148c-3.22 0-5.041 2.07-5.041 6.124 0 4.055 1.821 6.118 5.041 6.118 3.22 0 5.041-2.068 5.041-6.123s-1.895-6.118-5.041-6.118Zm0 9.78c-1.155 0-1.405-1.111-1.405-3.656s.25-3.655 1.405-3.655 1.405 1.11 1.405 3.655-.244 3.656-1.405 3.656ZM139.257 97.148c-3.226 0-5.041 2.07-5.041 6.124 0 4.055 1.821 6.118 5.041 6.118 3.22 0 5.041-2.068 5.041-6.123s-1.901-6.118-5.041-6.118Zm0 9.78c-1.155 0-1.405-1.111-1.405-3.656s.25-3.655 1.405-3.655 1.405 1.11 1.405 3.655-.245 3.656-1.405 3.656ZM149.919 97.148c-3.226 0-5.041 2.07-5.041 6.124 0 4.055 1.821 6.118 5.041 6.118 3.22 0 5.04-2.068 5.04-6.123s-1.9-6.118-5.04-6.118Zm0 9.78c-1.155 0-1.406-1.111-1.406-3.656s.251-3.655 1.406-3.655c1.155 0 1.405 1.11 1.405 3.655s-.25 3.656-1.405 3.656ZM122.07 102.074c-.825-.635-1.821-1.035-2.891-.953-.825 0-1.735.241-2.315.794l.25-1.91h5.206v-2.78h-7.607l-.825 5.566 2.23 1.111c.581-.477 1.241-.794 1.986-.794.415 0 .745.159 1.075.4.416.399.581.952.581 1.51 0 .241 0 .476-.086.635-.079.717-.745 1.193-1.485 1.111-1.405 0-1.32-1.669-.99-2.304l-3.561 1.828c.25 2.145 2.56 3.179 4.46 3.179 1.32 0 2.561-.399 3.471-1.193.33-.317.66-.635.91-1.111.415-.635.58-1.428.58-2.145.165-1.111-.25-2.145-.989-2.944Z"/></g><defs><linearGradient id="c" x1="132.688" x2="132.688" y1="43.248" y2="166.628" gradientUnits="userSpaceOnUse"><stop stop-color="#34436A"/><stop offset="1" stop-color="#4D5B7D" stop-opacity=".8"/></linearGradient><linearGradient id="e" x1="132.688" x2="132.688" y1="25.048" y2="185.66" gradientUnits="userSpaceOnUse"><stop stop-color="#fff"/><stop offset="1" stop-color="#999"/></linearGradient><linearGradient id="f" x1="132.688" x2="132.688" y1="43.248" y2="166.628" gradientUnits="userSpaceOnUse"><stop stop-color="#34436A"/><stop offset="1" stop-color="#4D5B7D" stop-opacity=".8"/></linearGradient><linearGradient id="h" x1="132.688" x2="132.688" y1="25.048" y2="185.66" gradientUnits="userSpaceOnUse"><stop stop-color="#fff"/><stop offset="1" stop-color="#999"/></linearGradient><linearGradient id="j" x1="132.688" x2="132.688" y1="43.248" y2="166.628" gradientUnits="userSpaceOnUse"><stop stop-color="#34436A"/><stop offset="1" stop-color="#4D5B7D" stop-opacity=".8"/></linearGradient><linearGradient id="l" x1="132.688" x2="132.688" y1="25.049" y2="185.66" gradientUnits="userSpaceOnUse"><stop stop-color="#fff"/><stop offset="1" stop-color="#999"/></linearGradient><linearGradient id="n" x1="132.6" x2="132.6" y1="24.349" y2="184.285" gradientUnits="userSpaceOnUse"><stop stop-color="#34436A"/><stop offset="1" stop-color="#4D5B7D" stop-opacity=".8"/></linearGradient><linearGradient id="p" x1="132.6" x2="132.6" y1=".756" y2="208.957" gradientUnits="userSpaceOnUse"><stop stop-color="#fff"/><stop offset="1" stop-color="#999"/></linearGradient><linearGradient id="q" x1="132.6" x2="132.6" y1="24.349" y2="184.285" gradientUnits="userSpaceOnUse"><stop stop-color="#34436A"/><stop offset="1" stop-color="#4D5B7D" stop-opacity=".8"/></linearGradient><linearGradient id="s" x1="132.6" x2="132.6" y1=".756" y2="208.957" gradientUnits="userSpaceOnUse"><stop stop-color="#fff"/><stop offset="1" stop-color="#999"/></linearGradient><linearGradient id="t" x1="132.6" x2="132.6" y1="24.349" y2="184.285" gradientUnits="userSpaceOnUse"><stop stop-color="#34436A"/><stop offset="1" stop-color="#4D5B7D" stop-opacity=".8"/></linearGradient><linearGradient id="v" x1="132.6" x2="132.6" y1=".756" y2="208.957" gradientUnits="userSpaceOnUse"><stop stop-color="#fff"/><stop offset="1" stop-color="#999"/></linearGradient><linearGradient id="x" x1="132.6" x2="132.6" y1="24.349" y2="184.285" gradientUnits="userSpaceOnUse"><stop stop-color="#34436A"/><stop offset="1" stop-color="#4D5B7D" stop-opacity=".8"/></linearGradient><linearGradient id="z" x1="132.6" x2="132.6" y1=".756" y2="208.957" gradientUnits="userSpaceOnUse"><stop stop-color="#fff"/><stop offset="1" stop-color="#999"/></linearGradient><linearGradient id="A" x1="134.232" x2="134.232" y1="89.364" y2="123.568" gradientUnits="userSpaceOnUse"><stop stop-opacity="0"/><stop offset="1" stop-opacity=".16"/></linearGradient><linearGradient id="C" x1="134.232" x2="134.232" y1="72.261" y2="123.568" gradientUnits="userSpaceOnUse"><stop stop-color="#fff"/><stop offset="1" stop-color="#fff" stop-opacity="0"/></linearGradient><linearGradient id="F" x1="134.233" x2="134.233" y1="80.441" y2="114.645" gradientUnits="userSpaceOnUse"><stop stop-opacity="0"/><stop offset="1" stop-opacity=".16"/></linearGradient><linearGradient id="G" x1="134.233" x2="134.233" y1="80.441" y2="114.645" gradientUnits="userSpaceOnUse"><stop stop-color="#fff"/><stop offset="1" stop-color="#fff" stop-opacity="0"/></linearGradient><radialGradient id="d" cx="0" cy="0" r="1" gradientTransform="matrix(0 81.3778 -52.9074 0 132.688 78.687)" gradientUnits="userSpaceOnUse"><stop stop-color="#011445"/><stop offset="1" stop-color="#1A2C58"/></radialGradient><radialGradient id="g" cx="0" cy="0" r="1" gradientTransform="matrix(0 81.3778 -52.9074 0 132.688 78.687)" gradientUnits="userSpaceOnUse"><stop stop-color="#011445"/><stop offset="1" stop-color="#1A2C58"/></radialGradient><radialGradient id="k" cx="0" cy="0" r="1" gradientTransform="matrix(0 81.3778 -52.9074 0 132.688 78.687)" gradientUnits="userSpaceOnUse"><stop stop-color="#011445"/><stop offset="1" stop-color="#1A2C58"/></radialGradient><radialGradient id="o" cx="0" cy="0" r="1" gradientTransform="matrix(0 105.49 -80.0372 0 132.6 70.288)" gradientUnits="userSpaceOnUse"><stop stop-color="#011445"/><stop offset="1" stop-color="#1A2C58"/></radialGradient><radialGradient id="r" cx="0" cy="0" r="1" gradientTransform="matrix(0 105.49 -80.0372 0 132.6 70.288)" gradientUnits="userSpaceOnUse"><stop stop-color="#011445"/><stop offset="1" stop-color="#1A2C58"/></radialGradient><radialGradient id="u" cx="0" cy="0" r="1" gradientTransform="matrix(0 105.49 -80.0372 0 132.6 70.288)" gradientUnits="userSpaceOnUse"><stop stop-color="#011445"/><stop offset="1" stop-color="#1A2C58"/></radialGradient><radialGradient id="y" cx="0" cy="0" r="1" gradientTransform="matrix(0 105.49 -80.0372 0 132.6 70.288)" gradientUnits="userSpaceOnUse"><stop stop-color="#011445"/><stop offset="1" stop-color="#1A2C58"/></radialGradient><radialGradient id="D" cx="0" cy="0" r="1" gradientTransform="matrix(0 34.2041 -143.673 0 134.232 89.364)" gradientUnits="userSpaceOnUse"><stop stop-color="#fff"/><stop offset="1" stop-color="#fff" stop-opacity="0"/></radialGradient><filter id="a" width="268.2" height="268" x=".34" y="-25.244" color-interpolation-filters="sRGB" filterUnits="userSpaceOnUse"><feFlood flood-opacity="0" result="BackgroundImageFix"/><feColorMatrix in="SourceAlpha" result="hardAlpha" values="0 0 0 0 0 0 0 0 0 0 0 0 0 0 0 0 0 0 127 0"/><feOffset dy="4"/><feGaussianBlur stdDeviation="15"/><feComposite in2="hardAlpha" operator="out"/><feColorMatrix values="0 0 0 0 0.190698 0 0 0 0 0.334496 0 0 0 0 0.565824 0 0 0 0.08 0"/><feBlend in2="BackgroundImageFix" result="effect1_dropShadow_26092_9366"/><feBlend in="SourceGraphic" in2="effect1_dropShadow_26092_9366" result="shape"/></filter><filter id="b" width="153.998" height="171.513" x="55.689" y="23.654" color-interpolation-filters="sRGB" filterUnits="userSpaceOnUse"><feFlood flood-opacity="0" result="BackgroundImageFix"/><feColorMatrix in="SourceAlpha" result="hardAlpha" values="0 0 0 0 0 0 0 0 0 0 0 0 0 0 0 0 0 0 127 0"/><feOffset dy="3.718"/><feGaussianBlur stdDeviation="4.09"/><feColorMatrix values="0 0 0 0 0.0117647 0 0 0 0 0.0627451 0 0 0 0 0.192157 0 0 0 0.3 0"/><feBlend in2="BackgroundImageFix" result="effect1_dropShadow_26092_9366"/><feBlend in="SourceGraphic" in2="effect1_dropShadow_26092_9366" result="shape"/></filter><filter id="w" width="226.046" height="226.046" x="19.577" y="-6.679" color-interpolation-filters="sRGB" filterUnits="userSpaceOnUse"><feFlood flood-opacity="0" result="BackgroundImageFix"/><feColorMatrix in="SourceAlpha" result="hardAlpha" values="0 0 0 0 0 0 0 0 0 0 0 0 0 0 0 0 0 0 127 0"/><feOffset dy="1.487"/><feGaussianBlur stdDeviation="2.974"/><feColorMatrix values="0 0 0 0 0 0 0 0 0 0 0 0 0 0 0 0 0 0 0.16 0"/><feBlend in2="BackgroundImageFix" mode="color-burn" result="effect1_dropShadow_26092_9366"/><feBlend in="SourceGraphic" in2="effect1_dropShadow_26092_9366" result="shape"/></filter><filter id="E" width="148.714" height="52.05" x="59.876" y="74.492" color-interpolation-filters="sRGB" filterUnits="userSpaceOnUse"><feFlood flood-opacity="0" result="BackgroundImageFix"/><feColorMatrix in="SourceAlpha" result="hardAlpha" values="0 0 0 0 0 0 0 0 0 0 0 0 0 0 0 0 0 0 127 0"/><feOffset dy="2.974"/><feGaussianBlur stdDeviation="4.461"/><feColorMatrix values="0 0 0 0 0 0 0 0 0 0 0 0 0 0 0 0 0 0 0.16 0"/><feBlend in2="BackgroundImageFix" result="effect1_dropShadow_26092_9366"/><feBlend in="SourceGraphic" in2="effect1_dropShadow_26092_9366" result="shape"/></filter></defs></svg>