<svg width="18" height="19" viewBox="0 0 18 19" fill="none" xmlns="http://www.w3.org/2000/svg">
<path d="M9 5.16602C11.4609 5.16602 13.4922 7.19727 13.4922 9.6582C13.4922 12.1582 11.4609 14.1504 9 14.1504C6.5 14.1504 4.50781 12.1582 4.50781 9.6582C4.50781 7.19727 6.5 5.16602 9 5.16602ZM9 12.5879C10.6016 12.5879 11.8906 11.2988 11.8906 9.6582C11.8906 8.05664 10.6016 6.76758 9 6.76758C7.35938 6.76758 6.07031 8.05664 6.07031 9.6582C6.07031 11.2988 7.39844 12.5879 9 12.5879ZM14.7031 5.00977C14.7031 4.42383 14.2344 3.95508 13.6484 3.95508C13.0625 3.95508 12.5938 4.42383 12.5938 5.00977C12.5938 5.5957 13.0625 6.06445 13.6484 6.06445C14.2344 6.06445 14.7031 5.5957 14.7031 5.00977ZM17.6719 6.06445C17.75 7.50977 17.75 11.8457 17.6719 13.291C17.5938 14.6973 17.2812 15.9082 16.2656 16.9629C15.25 17.9785 14 18.291 12.5938 18.3691C11.1484 18.4473 6.8125 18.4473 5.36719 18.3691C3.96094 18.291 2.75 17.9785 1.69531 16.9629C0.679688 15.9082 0.367188 14.6973 0.289062 13.291C0.210938 11.8457 0.210938 7.50977 0.289062 6.06445C0.367188 4.6582 0.679688 3.4082 1.69531 2.39258C2.75 1.37695 3.96094 1.06445 5.36719 0.986328C6.8125 0.908203 11.1484 0.908203 12.5938 0.986328C14 1.06445 15.25 1.37695 16.2656 2.39258C17.2812 3.4082 17.5938 4.6582 17.6719 6.06445ZM15.7969 14.8145C16.2656 13.6816 16.1484 10.9473 16.1484 9.6582C16.1484 8.4082 16.2656 5.67383 15.7969 4.50195C15.4844 3.75977 14.8984 3.13477 14.1562 2.86133C12.9844 2.39258 10.25 2.50977 9 2.50977C7.71094 2.50977 4.97656 2.39258 3.84375 2.86133C3.0625 3.17383 2.47656 3.75977 2.16406 4.50195C1.69531 5.67383 1.8125 8.4082 1.8125 9.6582C1.8125 10.9473 1.69531 13.6816 2.16406 14.8145C2.47656 15.5957 3.0625 16.1816 3.84375 16.4941C4.97656 16.9629 7.71094 16.8457 9 16.8457C10.25 16.8457 12.9844 16.9629 14.1562 16.4941C14.8984 16.1816 15.5234 15.5957 15.7969 14.8145Z" fill="white"/>
</svg>
