<svg xmlns="http://www.w3.org/2000/svg" width="269" height="218" fill="none"><g filter="url(#a)"><g filter="url(#b)"><path fill="url(#c)" fill-opacity=".6" d="M63.987 73.888c-.184-5.07-.277-7.605.692-10.305.832-2.315 2.36-4.556 4.214-6.175 2.16-1.887 5.298-2.986 11.573-5.183 13.352-4.676 26.233-10.946 38.377-18.232 5.52-3.312 8.28-4.967 10.656-5.489 2.358-.518 4.02-.518 6.379 0 2.375.522 5.135 2.177 10.655 5.49 12.145 7.285 25.026 13.555 38.378 18.23 6.275 2.198 9.412 3.297 11.573 5.184 1.853 1.619 3.382 3.86 4.213 6.175.97 2.7.877 5.235.692 10.305-.525 14.428-3.13 35.871-12.648 55.225-12.552 25.522-33.515 42.263-45.938 50.509-2.727 1.811-4.091 2.716-6.66 3.329-1.782.426-5.128.426-6.909 0-2.57-.613-3.933-1.518-6.66-3.329-12.423-8.246-33.387-24.987-45.939-50.509-9.518-19.354-12.122-40.797-12.648-55.225Z"/><path fill="url(#d)" fill-opacity=".6" d="M63.987 73.888c-.184-5.07-.277-7.605.692-10.305.832-2.315 2.36-4.556 4.214-6.175 2.16-1.887 5.298-2.986 11.573-5.183 13.352-4.676 26.233-10.946 38.377-18.232 5.52-3.312 8.28-4.967 10.656-5.489 2.358-.518 4.02-.518 6.379 0 2.375.522 5.135 2.177 10.655 5.49 12.145 7.285 25.026 13.555 38.378 18.23 6.275 2.198 9.412 3.297 11.573 5.184 1.853 1.619 3.382 3.86 4.213 6.175.97 2.7.877 5.235.692 10.305-.525 14.428-3.13 35.871-12.648 55.225-12.552 25.522-33.515 42.263-45.938 50.509-2.727 1.811-4.091 2.716-6.66 3.329-1.782.426-5.128.426-6.909 0-2.57-.613-3.933-1.518-6.66-3.329-12.423-8.246-33.387-24.987-45.939-50.509-9.518-19.354-12.122-40.797-12.648-55.225Z" style="mix-blend-mode:overlay"/><path stroke="url(#e)" stroke-linecap="round" stroke-width="5.949" d="M130.137 31.409c1.938-.426 3.165-.426 5.103 0 .792.174 1.795.57 3.388 1.419 1.595.849 3.589 2.044 6.375 3.716 12.292 7.374 25.356 13.736 38.924 18.488 3.175 1.112 5.419 1.9 7.145 2.637 1.7.726 2.707 1.326 3.455 1.98 1.471 1.284 2.711 3.1 3.371 4.94.736 2.049.711 3.946.519 9.19-.518 14.239-3.091 35.205-12.345 54.021-12.22 24.848-32.694 41.232-44.914 49.344-2.742 1.82-3.709 2.437-5.706 2.914-.57.136-1.592.238-2.764.238-1.172 0-2.193-.102-2.763-.238-1.997-.477-2.965-1.093-5.707-2.914-12.22-8.112-32.694-24.496-44.914-49.344-9.254-18.816-11.826-39.782-12.344-54.02-.192-5.245-.217-7.142.519-9.192.66-1.838 1.9-3.655 3.371-4.94.748-.653 1.755-1.253 3.455-1.98 1.726-.736 3.969-1.524 7.144-2.636 13.569-4.752 26.633-11.114 38.925-18.488 2.786-1.672 4.78-2.867 6.375-3.716 1.593-.849 2.596-1.245 3.388-1.42Z"/></g><mask id="i" width="139" height="156" x="63" y="28" maskUnits="userSpaceOnUse" style="mask-type:alpha"><path fill="url(#f)" fill-opacity=".6" d="M130.137 31.409c1.938-.426 3.165-.426 5.103 0 .792.174 1.795.57 3.388 1.419 1.595.849 3.589 2.044 6.375 3.716 12.292 7.374 25.356 13.736 38.924 18.488 3.175 1.112 5.419 1.9 7.145 2.637 1.7.726 2.707 1.326 3.455 1.98 1.471 1.284 2.711 3.1 3.371 4.94.736 2.049.711 3.946.519 9.19-.518 14.239-3.091 35.205-12.345 54.021-12.22 24.848-32.694 41.232-44.914 49.344-2.742 1.82-3.709 2.437-5.706 2.914-.57.136-1.592.238-2.764.238-1.172 0-2.193-.102-2.763-.238-1.997-.477-2.965-1.093-5.707-2.914-12.22-8.112-32.694-24.496-44.914-49.344-9.254-18.816-11.826-39.782-12.344-54.02-.192-5.245-.217-7.142.519-9.192.66-1.838 1.9-3.655 3.371-4.94.748-.653 1.755-1.253 3.455-1.98 1.726-.736 3.969-1.524 7.144-2.636 13.569-4.752 26.633-11.114 38.925-18.488 2.786-1.672 4.78-2.867 6.375-3.716 1.593-.849 2.596-1.245 3.388-1.42Z"/><path fill="url(#g)" fill-opacity=".6" d="M130.137 31.409c1.938-.426 3.165-.426 5.103 0 .792.174 1.795.57 3.388 1.419 1.595.849 3.589 2.044 6.375 3.716 12.292 7.374 25.356 13.736 38.924 18.488 3.175 1.112 5.419 1.9 7.145 2.637 1.7.726 2.707 1.326 3.455 1.98 1.471 1.284 2.711 3.1 3.371 4.94.736 2.049.711 3.946.519 9.19-.518 14.239-3.091 35.205-12.345 54.021-12.22 24.848-32.694 41.232-44.914 49.344-2.742 1.82-3.709 2.437-5.706 2.914-.57.136-1.592.238-2.764.238-1.172 0-2.193-.102-2.763-.238-1.997-.477-2.965-1.093-5.707-2.914-12.22-8.112-32.694-24.496-44.914-49.344-9.254-18.816-11.826-39.782-12.344-54.02-.192-5.245-.217-7.142.519-9.192.66-1.838 1.9-3.655 3.371-4.94.748-.653 1.755-1.253 3.455-1.98 1.726-.736 3.969-1.524 7.144-2.636 13.569-4.752 26.633-11.114 38.925-18.488 2.786-1.672 4.78-2.867 6.375-3.716 1.593-.849 2.596-1.245 3.388-1.42Z"/><path stroke="url(#h)" stroke-linecap="round" stroke-width="5.949" d="M130.137 31.409c1.938-.426 3.165-.426 5.103 0 .792.174 1.795.57 3.388 1.419 1.595.849 3.589 2.044 6.375 3.716 12.292 7.374 25.356 13.736 38.924 18.488 3.175 1.112 5.419 1.9 7.145 2.637 1.7.726 2.707 1.326 3.455 1.98 1.471 1.284 2.711 3.1 3.371 4.94.736 2.049.711 3.946.519 9.19-.518 14.239-3.091 35.205-12.345 54.021-12.22 24.848-32.694 41.232-44.914 49.344-2.742 1.82-3.709 2.437-5.706 2.914-.57.136-1.592.238-2.764.238-1.172 0-2.193-.102-2.763-.238-1.997-.477-2.965-1.093-5.707-2.914-12.22-8.112-32.694-24.496-44.914-49.344-9.254-18.816-11.826-39.782-12.344-54.02-.192-5.245-.217-7.142.519-9.192.66-1.838 1.9-3.655 3.371-4.94.748-.653 1.755-1.253 3.455-1.98 1.726-.736 3.969-1.524 7.144-2.636 13.569-4.752 26.633-11.114 38.925-18.488 2.786-1.672 4.78-2.867 6.375-3.716 1.593-.849 2.596-1.245 3.388-1.42Z"/></mask><g mask="url(#i)"><mask id="m" width="139" height="156" x="63" y="28" maskUnits="userSpaceOnUse" style="mask-type:alpha"><path fill="url(#j)" fill-opacity=".6" d="M130.137 31.409c1.938-.426 3.164-.426 5.103 0 .792.174 1.795.57 3.388 1.419 1.594.849 3.588 2.044 6.375 3.716 12.292 7.374 25.355 13.736 38.924 18.488 3.175 1.112 5.418 1.9 7.145 2.637 1.7.726 2.707 1.326 3.455 1.98 1.471 1.284 2.71 3.1 3.371 4.94.735 2.049.71 3.946.519 9.19-.519 14.239-3.091 35.205-12.345 54.021-12.221 24.848-32.694 41.232-44.915 49.344-2.742 1.82-3.708 2.437-5.706 2.914-.569.136-1.591.239-2.763.239-1.172-.001-2.193-.103-2.763-.239-1.997-.477-2.965-1.093-5.707-2.914-12.22-8.112-32.694-24.496-44.914-49.344-9.254-18.816-11.826-39.782-12.345-54.02-.19-5.245-.216-7.142.52-9.192.66-1.838 1.9-3.655 3.37-4.94.749-.653 1.755-1.253 3.456-1.98 1.726-.736 3.969-1.524 7.143-2.636 13.57-4.752 26.633-11.114 38.925-18.488 2.787-1.672 4.781-2.867 6.375-3.716 1.594-.849 2.596-1.245 3.389-1.42Z"/><path fill="url(#k)" fill-opacity=".6" d="M130.137 31.409c1.938-.426 3.164-.426 5.103 0 .792.174 1.795.57 3.388 1.419 1.594.849 3.588 2.044 6.375 3.716 12.292 7.374 25.355 13.736 38.924 18.488 3.175 1.112 5.418 1.9 7.145 2.637 1.7.726 2.707 1.326 3.455 1.98 1.471 1.284 2.71 3.1 3.371 4.94.735 2.049.71 3.946.519 9.19-.519 14.239-3.091 35.205-12.345 54.021-12.221 24.848-32.694 41.232-44.915 49.344-2.742 1.82-3.708 2.437-5.706 2.914-.569.136-1.591.239-2.763.239-1.172-.001-2.193-.103-2.763-.239-1.997-.477-2.965-1.093-5.707-2.914-12.22-8.112-32.694-24.496-44.914-49.344-9.254-18.816-11.826-39.782-12.345-54.02-.19-5.245-.216-7.142.52-9.192.66-1.838 1.9-3.655 3.37-4.94.749-.653 1.755-1.253 3.456-1.98 1.726-.736 3.969-1.524 7.143-2.636 13.57-4.752 26.633-11.114 38.925-18.488 2.787-1.672 4.781-2.867 6.375-3.716 1.594-.849 2.596-1.245 3.389-1.42Z"/><path stroke="url(#l)" stroke-linecap="round" stroke-width="5.949" d="M130.137 31.409c1.938-.426 3.164-.426 5.103 0 .792.174 1.795.57 3.388 1.419 1.594.849 3.588 2.044 6.375 3.716 12.292 7.374 25.355 13.736 38.924 18.488 3.175 1.112 5.418 1.9 7.145 2.637 1.7.726 2.707 1.326 3.455 1.98 1.471 1.284 2.71 3.1 3.371 4.94.735 2.049.71 3.946.519 9.19-.519 14.239-3.091 35.205-12.345 54.021-12.221 24.848-32.694 41.232-44.915 49.344-2.742 1.82-3.708 2.437-5.706 2.914-.569.136-1.591.239-2.763.239-1.172-.001-2.193-.103-2.763-.239-1.997-.477-2.965-1.093-5.707-2.914-12.22-8.112-32.694-24.496-44.914-49.344-9.254-18.816-11.826-39.782-12.345-54.02-.19-5.245-.216-7.142.52-9.192.66-1.838 1.9-3.655 3.37-4.94.749-.653 1.755-1.253 3.456-1.98 1.726-.736 3.969-1.524 7.143-2.636 13.57-4.752 26.633-11.114 38.925-18.488 2.787-1.672 4.781-2.867 6.375-3.716 1.594-.849 2.596-1.245 3.389-1.42Z"/></mask><g mask="url(#m)"><path fill="url(#n)" fill-opacity=".6" d="M28.5.756h208.2v208.2H28.5z"/><path fill="url(#o)" fill-opacity=".6" d="M28.5.756h208.2v208.2H28.5z" style="mix-blend-mode:overlay"/><path stroke="url(#p)" stroke-linecap="round" stroke-width="5.949" d="M28.5.756h208.2v208.2H28.5z"/><path fill="url(#q)" fill-opacity=".6" d="M28.685.942h207.828V208.77H28.685z"/><path fill="url(#r)" fill-opacity=".6" d="M28.685.942h207.828V208.77H28.685z" style="mix-blend-mode:overlay"/><path stroke="url(#s)" stroke-linecap="round" stroke-width=".372" d="M28.685.942h207.828V208.77H28.685z"/><path fill="url(#t)" fill-opacity=".6" d="M31.474 3.731h202.252v202.252H31.474z"/><path fill="url(#u)" fill-opacity=".6" d="M31.474 3.731h202.252v202.252H31.474z" style="mix-blend-mode:overlay"/><path stroke="url(#v)" stroke-linecap="round" stroke-width="5.949" d="M31.474 3.731h202.252v202.252H31.474z"/></g><g filter="url(#w)"><path fill="url(#x)" fill-opacity=".6" d="M28.5.756h208.2v208.2H28.5z"/><path fill="url(#y)" fill-opacity=".6" d="M28.5.756h208.2v208.2H28.5z" style="mix-blend-mode:overlay"/><path stroke="url(#z)" stroke-linecap="round" stroke-width="5.949" d="M28.5.756h208.2v208.2H28.5z"/></g></g><path fill="#EFF0FA" d="M117.047 143.169c-.792 0-1.466-.172-2.024-.517a3.403 3.403 0 0 1-1.281-1.452c-.293-.62-.44-1.338-.44-2.156 0-.818.147-1.536.44-2.156a3.364 3.364 0 0 1 1.281-1.446c.558-.349 1.232-.523 2.024-.523.913 0 1.669.231 2.266.693.602.462 1.02 1.084 1.254 1.865l-1.166.313c-.154-.554-.429-.988-.825-1.303-.392-.316-.902-.473-1.529-.473-.561 0-1.028.126-1.402.379a2.336 2.336 0 0 0-.847 1.062c-.187.454-.281.984-.281 1.589-.003.605.088 1.135.275 1.59.191.454.473.808.847 1.061.378.253.847.38 1.408.38.627 0 1.137-.158 1.529-.473.396-.319.671-.754.825-1.304l1.166.314c-.234.781-.652 1.402-1.254 1.864-.597.462-1.353.693-2.266.693Zm6.408 0c-.44 0-.809-.081-1.106-.242a1.72 1.72 0 0 1-.676-.649 1.8 1.8 0 0 1-.226-.891c0-.301.053-.565.16-.792a1.52 1.52 0 0 1 .473-.577c.209-.162.465-.292.77-.391a8.26 8.26 0 0 1 .896-.203c.334-.059.684-.114 1.051-.165l1.1-.154-.418.231c.007-.466-.092-.811-.297-1.034-.202-.228-.55-.341-1.045-.341-.312 0-.598.073-.858.22-.261.143-.442.381-.545.715l-1.072-.33c.146-.51.425-.915.836-1.216.414-.301.964-.451 1.65-.451.531 0 .993.092 1.386.275.396.18.685.466.869.858.095.194.154.4.176.616.022.216.033.449.033.699v3.657h-1.018v-1.358l.198.176c-.246.454-.559.793-.94 1.017-.378.22-.844.33-1.397.33Zm.203-.94c.326 0 .607-.057.842-.171.234-.117.423-.266.566-.445a1.4 1.4 0 0 0 .281-.561 1.97 1.97 0 0 0 .104-.594c.011-.22.017-.396.017-.528l.374.137-.99.149c-.297.044-.567.088-.809.132-.238.04-.451.089-.638.148a2.121 2.121 0 0 0-.423.198.97.97 0 0 0-.292.281.73.73 0 0 0-.104.401c0 .154.038.297.115.429a.81.81 0 0 0 .352.308c.158.077.359.116.605.116Zm4.382.775v-5.94h1.023v1.441l-.143-.187c.073-.191.168-.365.286-.522.117-.162.253-.294.407-.396.15-.11.317-.195.5-.253.187-.063.378-.099.572-.11.195-.015.382-.006.561.027v1.078a1.87 1.87 0 0 0-.649-.044 1.416 1.416 0 0 0-.649.226 1.45 1.45 0 0 0-.445.44 1.828 1.828 0 0 0-.231.577 2.969 2.969 0 0 0-.072.666v2.997h-1.16Zm4.906 2.64 1.15-3.129.016.924-2.59-6.375h1.199l1.936 4.923h-.352l1.848-4.923h1.166l-3.278 8.58h-1.095Zm5.234-2.64v-7.92h3.201c.077 0 .173.004.286.011.114.004.222.015.325.033.44.07.807.22 1.1.451.297.231.519.523.665.875.147.352.22.74.22 1.166 0 .63-.161 1.175-.484 1.633-.322.455-.806.739-1.452.853l-.467.055h-2.244v2.843h-1.15Zm4.631 0-1.562-3.223 1.161-.297 1.716 3.52h-1.315Zm-3.481-3.932h2.007c.074 0 .154-.004.242-.011.092-.008.178-.021.259-.039.235-.055.423-.156.566-.302.143-.151.246-.323.308-.517a1.831 1.831 0 0 0 0-1.161 1.278 1.278 0 0 0-.308-.511 1.101 1.101 0 0 0-.566-.308 1.386 1.386 0 0 0-.259-.044 2.655 2.655 0 0 0-.242-.011h-2.007v2.904Zm5.345 3.932 2.7-4.009-2.629-3.911h1.408l1.931 2.937 1.919-2.937h1.414l-2.629 3.911 2.695 4.009h-1.408l-1.991-3.03-1.997 3.03h-1.413ZM104.395 70.6c-.936 0-1.738-.205-2.405-.612a4.088 4.088 0 0 1-1.541-1.716c-.355-.732-.533-1.582-.533-2.548s.178-1.816.533-2.548a4.045 4.045 0 0 1 1.541-1.71c.667-.411 1.469-.617 2.405-.617 1.079 0 1.978.27 2.697.813.72.537 1.225 1.263 1.515 2.177l-1.58.436c-.182-.611-.491-1.088-.929-1.43-.438-.347-1.005-.52-1.703-.52-.628 0-1.153.14-1.573.422-.416.282-.73.678-.943 1.19-.208.507-.314 1.102-.318 1.787 0 .685.104 1.283.312 1.794.212.507.529.901.949 1.183.42.282.945.423 1.573.423.698 0 1.265-.174 1.703-.52.438-.347.747-.824.929-1.43l1.58.435c-.29.914-.795 1.642-1.515 2.184-.719.537-1.618.806-2.697.806Zm6.159-.196v-9.36h6.045v1.47h-4.478v2.307h3.698v1.469h-3.698v2.645h4.478v1.47h-6.045Zm8.125 0v-9.36h3.867a6 6 0 0 1 .351.013c.143.004.275.017.397.04.541.081.988.261 1.339.539.355.277.617.628.786 1.053.173.42.26.888.26 1.404 0 .762-.193 1.419-.578 1.97-.386.545-.978.883-1.775 1.013l-.669.059h-2.412v3.27h-1.566Zm5.375 0-1.846-3.809 1.593-.35 2.028 4.16h-1.775Zm-3.809-4.732h2.236c.087 0 .184-.004.293-.013a1.54 1.54 0 0 0 .299-.052c.26-.065.463-.18.611-.344.151-.165.257-.351.318-.56.065-.207.098-.411.098-.61 0-.2-.033-.403-.098-.611a1.396 1.396 0 0 0-.318-.566 1.18 1.18 0 0 0-.611-.344 1.273 1.273 0 0 0-.299-.046 3.705 3.705 0 0 0-.293-.013h-2.236v3.16Zm9.785 4.732v-7.89h-3.029v-1.47h7.624v1.47h-3.029v7.89h-1.566Zm6.284 0v-9.36h1.567v9.36h-1.567Zm4.034 0v-9.36h5.635v1.567h-4.069v2.333h3.289v1.56h-3.289v3.9h-1.566Zm7.455 0v-9.36h1.566v9.36h-1.566Zm4.033 0v-9.36h6.045v1.47h-4.478v2.307h3.698v1.469h-3.698v2.645h4.478v1.47h-6.045Zm8.125 0v-9.36h2.983c.078 0 .232.002.462.007.234.004.459.02.676.045.741.095 1.367.36 1.878.793.516.43.906.977 1.17 1.645.265.667.397 1.397.397 2.19 0 .793-.132 1.523-.397 2.19a4.067 4.067 0 0 1-1.17 1.652c-.511.429-1.137.69-1.878.786a6.545 6.545 0 0 1-.67.046l-.468.006h-2.983Zm1.592-1.475h1.391c.13 0 .295-.005.494-.013.204-.01.384-.029.54-.059.442-.082.801-.28 1.079-.591.277-.312.481-.692.611-1.138.134-.446.201-.914.201-1.404 0-.507-.067-.984-.201-1.43a2.831 2.831 0 0 0-.624-1.124 1.878 1.878 0 0 0-1.066-.579 2.775 2.775 0 0 0-.54-.058 11.7 11.7 0 0 0-.494-.013h-1.391v6.409Z"/><mask id="B" fill="#fff"><path d="M75.13 89.364c3.332 0 4.998 0 6.27.648a5.95 5.95 0 0 1 2.6 2.6c.648 1.272.648 2.938.648 6.27v15.168c0 3.331 0 4.997-.648 6.27a5.948 5.948 0 0 1-2.6 2.599c-1.273.649-2.938.649-6.27.649H62.696c-2.429 0-3.643-.001-4.399-.512a2.974 2.974 0 0 1-1.257-1.924c-.166-.897.322-2.009 1.296-4.233l4.574-10.433-4.574-10.433c-.974-2.225-1.462-3.337-1.296-4.234a2.973 2.973 0 0 1 1.257-1.924c.756-.511 1.97-.511 4.399-.511H75.13Zm130.639 0c2.429 0 3.643 0 4.398.511a2.97 2.97 0 0 1 1.258 1.924c.165.897-.323 2.01-1.298 4.233l-4.572 10.434 4.572 10.433c.975 2.224 1.463 3.336 1.298 4.233a2.97 2.97 0 0 1-1.258 1.924c-.755.511-1.969.512-4.398.512h-12.435c-3.331 0-4.997 0-6.269-.649a5.953 5.953 0 0 1-2.6-2.599c-.648-1.273-.648-2.939-.648-6.27V98.881c0-3.331 0-4.997.648-6.27a5.954 5.954 0 0 1 2.6-2.599c1.272-.648 2.938-.648 6.269-.648h12.435Z"/></mask><path fill="#BCCAD4" d="M75.13 89.364c3.332 0 4.998 0 6.27.648a5.95 5.95 0 0 1 2.6 2.6c.648 1.272.648 2.938.648 6.27v15.168c0 3.331 0 4.997-.648 6.27a5.948 5.948 0 0 1-2.6 2.599c-1.273.649-2.938.649-6.27.649H62.696c-2.429 0-3.643-.001-4.399-.512a2.974 2.974 0 0 1-1.257-1.924c-.166-.897.322-2.009 1.296-4.233l4.574-10.433-4.574-10.433c-.974-2.225-1.462-3.337-1.296-4.234a2.973 2.973 0 0 1 1.257-1.924c.756-.511 1.97-.511 4.399-.511H75.13Zm130.639 0c2.429 0 3.643 0 4.398.511a2.97 2.97 0 0 1 1.258 1.924c.165.897-.323 2.01-1.298 4.233l-4.572 10.434 4.572 10.433c.975 2.224 1.463 3.336 1.298 4.233a2.97 2.97 0 0 1-1.258 1.924c-.755.511-1.969.512-4.398.512h-12.435c-3.331 0-4.997 0-6.269-.649a5.953 5.953 0 0 1-2.6-2.599c-.648-1.273-.648-2.939-.648-6.27V98.881c0-3.331 0-4.997.648-6.27a5.954 5.954 0 0 1 2.6-2.599c1.272-.648 2.938-.648 6.269-.648h12.435Z"/><path fill="url(#A)" d="M75.13 89.364v-.372.371Zm6.27.648.169-.331-.17.331Zm2.6 2.6.33-.17-.33.17Zm.648 6.27h.372-.372Zm0 15.168h.372-.372ZM84 120.32l.33.168-.33-.168Zm-2.6 2.599.169.331-.17-.331Zm-6.27.649v.371-.371Zm-16.833-.512-.208.308.208-.308Zm-1.257-1.924-.366.067.366-.067Zm1.296-4.233-.34-.15.34.15Zm4.574-10.433.34.149.066-.149-.066-.149-.34.149Zm-4.574-10.433-.34.149.34-.15Zm-1.296-4.234-.366-.067.366.067Zm1.257-1.924-.208-.308.208.308Zm151.87 0 .209-.308-.209.308Zm1.258 1.924.366-.067-.366.067Zm-1.298 4.233-.34-.149.34.15Zm-4.572 10.434-.34-.149-.066.149.066.149.34-.149Zm4.572 10.433-.34.149.34-.149Zm1.298 4.233.366.067-.366-.067Zm-1.258 1.924.209.308-.209-.308Zm-16.833.512v.371-.371Zm-6.269-.649-.169.331.169-.331Zm-2.6-2.599-.331.168.331-.168Zm-.648-6.27h-.372.372Zm0-15.169h-.372.372Zm.648-6.27-.331-.168.331.169Zm2.6-2.599-.169-.331.169.331Zm6.269-.648v-.372.371Zm-118.204 0v.371c1.672 0 2.904 0 3.877.08.969.08 1.649.235 2.224.528l.169-.331.169-.331c-.698-.356-1.487-.524-2.502-.607-1.01-.082-2.277-.082-3.937-.082v.371Zm6.27.648-.169.331a5.578 5.578 0 0 1 2.437 2.437l.331-.168.332-.17a6.321 6.321 0 0 0-2.762-2.761l-.17.331Zm2.6 2.6-.332.168c.293.575.45 1.256.528 2.225.08.973.08 2.204.08 3.876h.744c0-1.66 0-2.926-.083-3.937-.083-1.015-.25-1.804-.606-2.501l-.332.169Zm.648 6.27h-.372v15.168h.744V98.881h-.372Zm0 15.168h-.372c0 1.672 0 2.903-.08 3.877-.079.969-.235 1.649-.528 2.224l.331.169.332.168c.355-.697.523-1.486.606-2.501.083-1.01.083-2.277.083-3.937h-.372ZM84 120.32l-.332-.169a5.58 5.58 0 0 1-2.437 2.437l.169.331.169.331a6.312 6.312 0 0 0 2.762-2.762l-.332-.168Zm-2.6 2.599-.169-.331c-.575.293-1.255.449-2.224.528-.973.08-2.205.08-3.877.08v.743c1.66 0 2.927.001 3.938-.082 1.014-.083 1.803-.251 2.5-.607l-.168-.331Zm-6.27.649v-.372H62.696v.743H75.13v-.371Zm-12.434 0v-.372c-1.222 0-2.112-.001-2.793-.063-.68-.062-1.097-.182-1.397-.385l-.209.308-.208.308c.456.308 1.023.444 1.746.51.723.066 1.654.065 2.86.065v-.371Zm-4.399-.512.209-.308a2.6 2.6 0 0 1-1.1-1.683l-.366.067-.366.067a3.346 3.346 0 0 0 1.415 2.165l.208-.308Zm-1.257-1.924.365-.067c-.065-.356-.008-.786.208-1.434.217-.649.574-1.464 1.064-2.583l-.34-.149-.341-.15c-.485 1.106-.858 1.958-1.088 2.646-.23.689-.334 1.263-.234 1.804l.366-.067Zm1.296-4.233.34.149 4.574-10.433-.34-.149-.34-.149-4.574 10.432.34.15Zm4.574-10.433.34-.149-4.573-10.434-.34.15-.341.149 4.573 10.433.34-.149Zm-4.574-10.433.34-.15c-.49-1.118-.846-1.934-1.063-2.582-.216-.648-.273-1.079-.208-1.435l-.365-.067-.366-.067c-.1.54.004 1.115.234 1.804.23.688.603 1.54 1.088 2.646l.34-.15Zm-1.296-4.234.365.067a2.602 2.602 0 0 1 1.1-1.683l-.208-.308-.208-.308a3.346 3.346 0 0 0-1.415 2.165l.366.067Zm1.257-1.924.209.308c.3-.203.717-.323 1.397-.385s1.571-.063 2.793-.063v-.743c-1.207 0-2.138 0-2.86.065-.724.066-1.291.202-1.747.51l.208.308Zm4.399-.511v.371H75.13v-.743H62.696v.371Zm143.073 0v.371c1.221 0 2.112 0 2.793.063.68.062 1.097.182 1.397.385l.208-.308.209-.308c-.456-.308-1.024-.444-1.747-.51-.722-.066-1.653-.065-2.86-.065v.371Zm4.398.511-.208.308c.578.391.974.998 1.101 1.683l.365-.067.366-.067a3.346 3.346 0 0 0-1.415-2.165l-.209.308Zm1.258 1.924-.365.067c.065.356.008.786-.209 1.434-.216.649-.574 1.465-1.064 2.583l.34.15.341.149c.484-1.106.859-1.958 1.089-2.646.23-.689.334-1.263.234-1.804l-.366.067Zm-1.298 4.233-.34-.149-4.572 10.434.34.149.341.149 4.572-10.433-.341-.15Zm-4.572 10.434-.34.149 4.572 10.433.34-.149.341-.15-4.572-10.432-.341.149Zm4.572 10.433-.34.149c.49 1.119.848 1.935 1.064 2.583.217.648.274 1.078.209 1.434l.365.067.366.067c.1-.541-.004-1.115-.234-1.804-.23-.688-.605-1.54-1.089-2.646l-.341.15Zm1.298 4.233-.365-.067a2.603 2.603 0 0 1-1.101 1.683l.208.308.209.308a3.346 3.346 0 0 0 1.415-2.165l-.366-.067Zm-1.258 1.924-.208-.308c-.3.203-.717.323-1.397.385-.681.062-1.572.063-2.793.063v.743c1.207 0 2.138.001 2.86-.065.723-.066 1.291-.202 1.747-.51l-.209-.308Zm-4.398.512v-.372h-12.435v.743h12.435v-.371Zm-12.435 0v-.372c-1.671 0-2.903 0-3.876-.08-.969-.079-1.649-.235-2.224-.528l-.169.331-.169.331c.698.356 1.486.524 2.501.607 1.011.083 2.278.082 3.937.082v-.371Zm-6.269-.649.169-.331a5.573 5.573 0 0 1-2.437-2.437l-.332.169-.331.168a6.313 6.313 0 0 0 2.762 2.762l.169-.331Zm-2.6-2.599.332-.169c-.293-.575-.449-1.255-.528-2.224-.08-.974-.08-2.205-.08-3.877h-.744c0 1.66 0 2.927.082 3.937.083 1.015.252 1.804.607 2.501l.331-.168Zm-.648-6.27h.372V98.881h-.744v15.169h.372Zm0-15.169h.372c0-1.672 0-2.903.08-3.876.079-.97.235-1.65.528-2.225l-.332-.168-.331-.17c-.355.698-.524 1.487-.607 2.502-.082 1.01-.082 2.278-.082 3.937h.372Zm.648-6.27.332.17a5.57 5.57 0 0 1 2.437-2.438l-.169-.331-.169-.331a6.322 6.322 0 0 0-2.762 2.762l.331.169Zm2.6-2.599.169.331c.575-.293 1.255-.449 2.224-.528.973-.08 2.205-.08 3.876-.08v-.743c-1.659 0-2.926 0-3.937.082-1.015.083-1.803.251-2.501.607l.169.331Zm6.269-.648v.371h12.435v-.743h-12.435v.371Z" mask="url(#B)" style="mix-blend-mode:darken"/><path fill="url(#C)" fill-opacity=".3" d="M75.13 89.364c3.332 0 4.998 0 6.27.648a5.95 5.95 0 0 1 2.6 2.6c.648 1.272.648 2.938.648 6.27v15.168c0 3.331 0 4.997-.648 6.27a5.948 5.948 0 0 1-2.6 2.599c-1.273.649-2.938.649-6.27.649H62.696c-2.429 0-3.643-.001-4.399-.512a2.974 2.974 0 0 1-1.257-1.924c-.166-.897.322-2.009 1.296-4.233l4.574-10.433-4.574-10.433c-.974-2.225-1.462-3.337-1.296-4.234a2.973 2.973 0 0 1 1.257-1.924c.756-.511 1.97-.511 4.399-.511H75.13Zm130.639 0c2.429 0 3.643 0 4.398.511a2.97 2.97 0 0 1 1.258 1.924c.165.897-.323 2.01-1.298 4.233l-4.572 10.434 4.572 10.433c.975 2.224 1.463 3.336 1.298 4.233a2.97 2.97 0 0 1-1.258 1.924c-.755.511-1.969.512-4.398.512h-12.435c-3.331 0-4.997 0-6.269-.649a5.953 5.953 0 0 1-2.6-2.599c-.648-1.273-.648-2.939-.648-6.27V98.881c0-3.331 0-4.997.648-6.27a5.954 5.954 0 0 1 2.6-2.599c1.272-.648 2.938-.648 6.269-.648h12.435Z" style="mix-blend-mode:overlay"/><path fill="url(#D)" fill-opacity=".6" d="M75.13 89.364c3.332 0 4.998 0 6.27.648a5.95 5.95 0 0 1 2.6 2.6c.648 1.272.648 2.938.648 6.27v15.168c0 3.331 0 4.997-.648 6.27a5.948 5.948 0 0 1-2.6 2.599c-1.273.649-2.938.649-6.27.649H62.696c-2.429 0-3.643-.001-4.399-.512a2.974 2.974 0 0 1-1.257-1.924c-.166-.897.322-2.009 1.296-4.233l4.574-10.433-4.574-10.433c-.974-2.225-1.462-3.337-1.296-4.234a2.973 2.973 0 0 1 1.257-1.924c.756-.511 1.97-.511 4.399-.511H75.13Zm130.639 0c2.429 0 3.643 0 4.398.511a2.97 2.97 0 0 1 1.258 1.924c.165.897-.323 2.01-1.298 4.233l-4.572 10.434 4.572 10.433c.975 2.224 1.463 3.336 1.298 4.233a2.97 2.97 0 0 1-1.258 1.924c-.755.511-1.969.512-4.398.512h-12.435c-3.331 0-4.997 0-6.269-.649a5.953 5.953 0 0 1-2.6-2.599c-.648-1.273-.648-2.939-.648-6.27V98.881c0-3.331 0-4.997.648-6.27a5.954 5.954 0 0 1 2.6-2.599c1.272-.648 2.938-.648 6.269-.648h12.435Z" style="mix-blend-mode:overlay"/><path fill="#011445" fill-opacity=".31" d="M75.13 89.364c3.332 0 4.998 0 6.27.648a5.95 5.95 0 0 1 2.6 2.6c.648 1.272.648 2.938.648 6.27v15.168c0 3.331 0 4.997-.648 6.27a5.948 5.948 0 0 1-2.6 2.599c-1.273.649-2.938.649-6.27.649H62.696c-2.429 0-3.643-.001-4.399-.512a2.974 2.974 0 0 1-1.257-1.924c-.166-.897.322-2.009 1.296-4.233l4.574-10.433-4.574-10.433c-.974-2.225-1.462-3.337-1.296-4.234a2.973 2.973 0 0 1 1.257-1.924c.756-.511 1.97-.511 4.399-.511H75.13Zm130.639 0c2.429 0 3.643 0 4.398.511a2.97 2.97 0 0 1 1.258 1.924c.165.897-.323 2.01-1.298 4.233l-4.572 10.434 4.572 10.433c.975 2.224 1.463 3.336 1.298 4.233a2.97 2.97 0 0 1-1.258 1.924c-.755.511-1.969.512-4.398.512h-12.435c-3.331 0-4.997 0-6.269-.649a5.953 5.953 0 0 1-2.6-2.599c-.648-1.273-.648-2.939-.648-6.27V98.881c0-3.331 0-4.997.648-6.27a5.954 5.954 0 0 1 2.6-2.599c1.272-.648 2.938-.648 6.269-.648h12.435Z" style="mix-blend-mode:darken"/><g filter="url(#E)"><rect width="130.869" height="34.204" x="68.799" y="80.441" fill="#D8E2F0" rx="2"/><rect width="130.497" height="33.833" x="68.984" y="80.626" stroke="url(#F)" stroke-linecap="round" stroke-width=".372" rx="1.814" style="mix-blend-mode:darken"/></g><rect width="130.869" height="34.204" x="68.799" y="80.441" fill="url(#G)" fill-opacity=".2" rx="2" style="mix-blend-mode:overlay"/><circle cx="76.978" cy="97.543" r="2.231" fill="#EAFFF8" style="mix-blend-mode:darken"/><circle cx="191.488" cy="97.543" r="2.231" fill="#EAFFF8" style="mix-blend-mode:darken"/><path fill="#CDEAFA" fill-rule="evenodd" d="M109.39 92.102a1.696 1.696 0 0 1-1.652 0l-2.229-1.29a1.698 1.698 0 0 1-.777-1.33v-2.628a1.704 1.704 0 0 1 .777-1.343l2.208-1.28a1.69 1.69 0 0 1 1.694 0l2.208 1.28c.46.296.75.797.776 1.343v2.629a1.7 1.7 0 0 1-.776 1.343l-2.229 1.276Z" clip-rule="evenodd"/><path fill="#9CD7F6" fill-rule="evenodd" d="M100.755 92.102a1.696 1.696 0 0 1-1.652 0l-2.23-1.274a1.697 1.697 0 0 1-.776-1.343v-2.63a1.702 1.702 0 0 1 .777-1.344l2.208-1.28a1.692 1.692 0 0 1 1.69 0l2.208 1.28c.464.294.754.795.776 1.343v2.629a1.666 1.666 0 0 1-.776 1.343l-2.225 1.276Z" clip-rule="evenodd"/><path fill="#21BCEF" fill-rule="evenodd" d="M96.436 99.597a1.696 1.696 0 0 1-1.652 0l-2.229-1.29c-.462-.298-.75-.802-.776-1.35v-2.622c.028-.549.316-1.05.776-1.35l2.208-1.273a1.692 1.692 0 0 1 1.69 0l2.209 1.273c.463.296.753.8.776 1.35v2.622a1.682 1.682 0 0 1-.776 1.344l-2.226 1.296Z" clip-rule="evenodd"/><path fill="#283B4A" fill-rule="evenodd" d="M100.755 107.071a1.668 1.668 0 0 1-1.652 0l-2.23-1.285a1.703 1.703 0 0 1-.776-1.343v-2.628a1.705 1.705 0 0 1 .777-1.349l2.208-1.274a1.693 1.693 0 0 1 1.69 0l2.208 1.274c.466.295.756.798.776 1.349v2.634a1.679 1.679 0 0 1-.776 1.343l-2.225 1.279ZM110.696 95.955a.313.313 0 0 0-.307-.307h-1.517a.312.312 0 0 0-.307.307v11.052c0 .155.126.281.28.281h5.112a.291.291 0 0 0 .292-.281v-1.279a.29.29 0 0 0-.292-.275h-3.239v-9.498M119.93 102.107h-3.239v-.064c0-1.21.691-1.885 1.618-1.885.929 0 1.619.692 1.619 1.885v.064h.002Zm2.04 1.079v-.885c0-2.284-1.29-3.891-3.647-3.891-2.359 0-3.682 1.5-3.682 3.891v1.134c0 3.016 2.159 3.842 3.714 3.842a13.67 13.67 0 0 0 2.967-.258c.275-.044.324-.151.324-.4v-1.025c0-.156-.124-.232-.275-.232h-.049c-.642.065-1.699.157-2.817.157-1.473 0-1.841-1.08-1.841-1.948v-.044h4.997c.211 0 .307-.139.307-.382M128.614 107.866c0 .539-.258.875-1.731.875-1.474 0-1.824-.383-1.824-1.01v-.14a1.513 1.513 0 0 1 .382-1.079l1.366.324c1.619.382 1.809.582 1.809.917v.113h-.002Zm-.168-6.374c0 .767-.373 1.21-1.618 1.21-1.424 0-1.656-.642-1.656-1.21v-.124c0-.718.35-1.3 1.656-1.3s1.618.539 1.618 1.3v.124Zm2.359-1.916v-.642a.412.412 0 0 0-.405-.417h-3.595c-2.654 0-3.647 1.291-3.647 2.823v.102a2.376 2.376 0 0 0 .625 1.797c-.392.29-.62.754-.61 1.242 0 .552.254 1.072.691 1.409a2.299 2.299 0 0 0-.782 1.7v.162c0 1.618 1.317 2.541 3.778 2.541 2.608 0 3.778-.842 3.778-2.408v-.135c0-1.619-1.349-1.96-3.433-2.45l-1.813-.426c-.35-.081-.539-.199-.539-.506a.487.487 0 0 1 .281-.394 4.6 4.6 0 0 0 1.673.258c2.316 0 3.633-.874 3.633-2.79v-.102a1.993 1.993 0 0 0-.383-1.231l.507-.2c.177-.075.241-.101.241-.333ZM133.925 97.31v-1.355a.311.311 0 0 0-.307-.307h-1.484a.324.324 0 0 0-.324.307v1.355c.009.173.15.307.324.307h1.484a.314.314 0 0 0 .307-.307Zm-.049 9.53v-8.016a.307.307 0 0 0-.307-.307h-1.409a.312.312 0 0 0-.307.307v8.016c0 .173.136.314.307.324h1.409a.323.323 0 0 0 .307-.324ZM139.472 106.9v-.961c0-.156-.118-.232-.318-.232h-.816c-.539 0-.599-.092-.599-.857v-4.814h1.381a.307.307 0 0 0 .307-.307v-.9a.312.312 0 0 0-.307-.308h-1.381V96.66a.254.254 0 0 0-.309-.259l-1.398.238a.4.4 0 0 0-.319.362v7.849c0 2.05.701 2.434 2.435 2.434a6.417 6.417 0 0 0 1.042-.101c.199-.032.292-.125.292-.281" clip-rule="evenodd"/><path fill="#21BCEF" fill-rule="evenodd" d="M148.33 104.083c0-1.21-.443-2.191-2.128-3.124l-1.84-1.03c-.999-.54-1.257-.858-1.257-1.36 0-.692.475-1.08 1.618-1.08.999 0 2.009.06 3.017.156h.032a.267.267 0 0 0 .266-.264V96.23a.32.32 0 0 0-.281-.292c-.97-.177-1.954-.27-2.941-.275-2.849 0-3.833 1.225-3.833 2.915 0 1.08.383 1.959 1.809 2.801l2.024 1.214c1.015.593 1.3.9 1.3 1.5 0 .891-.411 1.375-1.775 1.375-.567 0-2.099-.075-2.698-.151-.16 0-.292.13-.292.292v1.106c.007.16.132.289.292.302.885.198 1.792.29 2.698.275 3.065 0 4.032-1.653 4.032-3.201M155.081 106.672v-.982c0-.15-.119-.231-.275-.231h-.049c-.66.098-1.325.143-1.992.135-.718 0-1.468-.411-1.468-2.008v-1.453c0-1.618.75-2.008 1.468-2.008.659-.014 1.321.022 1.975.107h.049c.156 0 .275-.075.275-.226v-.999c0-.249-.061-.339-.324-.4a8.395 8.395 0 0 0-1.975-.199c-1.992 0-3.491 1.225-3.491 3.723v1.425c0 2.498 1.499 3.723 3.491 3.723a8.1 8.1 0 0 0 1.975-.2c.263-.06.324-.151.324-.394M160.791 99.82v-1.08a.311.311 0 0 0-.307-.307 3.57 3.57 0 0 0-2.191.738v-.324a.307.307 0 0 0-.307-.307h-1.334a.308.308 0 0 0-.302.307v7.993a.32.32 0 0 0 .302.324h1.413a.319.319 0 0 0 .301-.324v-6.158a4.317 4.317 0 0 1 2.116-.539c.17 0 .307-.137.307-.307M170.333 103.435c0 1.257-.319 2.191-1.619 2.191a13.177 13.177 0 0 1-1.473-.107v-5.321a8.36 8.36 0 0 1 1.473-.107c1.317 0 1.619.934 1.619 2.191v1.153Zm2.023 0v-1.176c0-2.39-1.192-3.847-3.659-3.847-1.04.011-2.074.145-3.082.4-.356.092-.417.182-.417.416v10.687c0 .169.138.307.308.307h1.409a.312.312 0 0 0 .307-.307v-2.699c.488.066.98.1 1.473.102 2.467 0 3.659-1.452 3.659-3.842M163.787 97.31v-1.355a.306.306 0 0 0-.301-.307h-1.491a.318.318 0 0 0-.318.307v1.355a.318.318 0 0 0 .318.307h1.491a.308.308 0 0 0 .301-.307Zm-.043 9.53v-8.016a.313.313 0 0 0-.307-.307h-1.41a.313.313 0 0 0-.307.307v8.016c0 .173.136.314.307.324h1.41a.324.324 0 0 0 .307-.324ZM177.052 106.9v-.961c0-.156-.125-.232-.324-.232h-.811c-.538 0-.599-.092-.599-.857v-4.814h1.381a.301.301 0 0 0 .302-.302v-.905a.306.306 0 0 0-.302-.308h-1.381V96.66a.252.252 0 0 0-.309-.259l-1.409.238a.404.404 0 0 0-.324.362v7.849c0 2.05.706 2.434 2.44 2.434a6.649 6.649 0 0 0 1.042-.101c.203-.034.294-.127.294-.283Z" clip-rule="evenodd"/></g><defs><linearGradient id="c" x1="132.688" x2="132.688" y1="43.248" y2="166.628" gradientUnits="userSpaceOnUse"><stop stop-color="#34436A"/><stop offset="1" stop-color="#4D5B7D" stop-opacity=".8"/></linearGradient><linearGradient id="e" x1="132.688" x2="132.688" y1="25.048" y2="185.66" gradientUnits="userSpaceOnUse"><stop stop-color="#fff"/><stop offset="1" stop-color="#999"/></linearGradient><linearGradient id="f" x1="132.688" x2="132.688" y1="43.248" y2="166.628" gradientUnits="userSpaceOnUse"><stop stop-color="#34436A"/><stop offset="1" stop-color="#4D5B7D" stop-opacity=".8"/></linearGradient><linearGradient id="h" x1="132.688" x2="132.688" y1="25.048" y2="185.66" gradientUnits="userSpaceOnUse"><stop stop-color="#fff"/><stop offset="1" stop-color="#999"/></linearGradient><linearGradient id="j" x1="132.688" x2="132.688" y1="43.248" y2="166.628" gradientUnits="userSpaceOnUse"><stop stop-color="#34436A"/><stop offset="1" stop-color="#4D5B7D" stop-opacity=".8"/></linearGradient><linearGradient id="l" x1="132.688" x2="132.688" y1="25.049" y2="185.66" gradientUnits="userSpaceOnUse"><stop stop-color="#fff"/><stop offset="1" stop-color="#999"/></linearGradient><linearGradient id="n" x1="132.6" x2="132.6" y1="24.349" y2="184.285" gradientUnits="userSpaceOnUse"><stop stop-color="#34436A"/><stop offset="1" stop-color="#4D5B7D" stop-opacity=".8"/></linearGradient><linearGradient id="p" x1="132.6" x2="132.6" y1=".756" y2="208.957" gradientUnits="userSpaceOnUse"><stop stop-color="#fff"/><stop offset="1" stop-color="#999"/></linearGradient><linearGradient id="q" x1="132.6" x2="132.6" y1="24.349" y2="184.285" gradientUnits="userSpaceOnUse"><stop stop-color="#34436A"/><stop offset="1" stop-color="#4D5B7D" stop-opacity=".8"/></linearGradient><linearGradient id="s" x1="132.6" x2="132.6" y1=".756" y2="208.957" gradientUnits="userSpaceOnUse"><stop stop-color="#fff"/><stop offset="1" stop-color="#999"/></linearGradient><linearGradient id="t" x1="132.6" x2="132.6" y1="24.349" y2="184.285" gradientUnits="userSpaceOnUse"><stop stop-color="#34436A"/><stop offset="1" stop-color="#4D5B7D" stop-opacity=".8"/></linearGradient><linearGradient id="v" x1="132.6" x2="132.6" y1=".756" y2="208.957" gradientUnits="userSpaceOnUse"><stop stop-color="#fff"/><stop offset="1" stop-color="#999"/></linearGradient><linearGradient id="x" x1="132.6" x2="132.6" y1="24.349" y2="184.285" gradientUnits="userSpaceOnUse"><stop stop-color="#34436A"/><stop offset="1" stop-color="#4D5B7D" stop-opacity=".8"/></linearGradient><linearGradient id="z" x1="132.6" x2="132.6" y1=".756" y2="208.957" gradientUnits="userSpaceOnUse"><stop stop-color="#fff"/><stop offset="1" stop-color="#999"/></linearGradient><linearGradient id="A" x1="134.232" x2="134.232" y1="89.364" y2="123.568" gradientUnits="userSpaceOnUse"><stop stop-opacity="0"/><stop offset="1" stop-opacity=".16"/></linearGradient><linearGradient id="C" x1="134.232" x2="134.232" y1="72.261" y2="123.568" gradientUnits="userSpaceOnUse"><stop stop-color="#fff"/><stop offset="1" stop-color="#fff" stop-opacity="0"/></linearGradient><linearGradient id="F" x1="134.233" x2="134.233" y1="80.441" y2="114.645" gradientUnits="userSpaceOnUse"><stop stop-opacity="0"/><stop offset="1" stop-opacity=".16"/></linearGradient><linearGradient id="G" x1="134.233" x2="134.233" y1="80.441" y2="114.645" gradientUnits="userSpaceOnUse"><stop stop-color="#fff"/><stop offset="1" stop-color="#fff" stop-opacity="0"/></linearGradient><radialGradient id="d" cx="0" cy="0" r="1" gradientTransform="matrix(0 81.3778 -52.9074 0 132.688 78.687)" gradientUnits="userSpaceOnUse"><stop stop-color="#011445"/><stop offset="1" stop-color="#1A2C58"/></radialGradient><radialGradient id="g" cx="0" cy="0" r="1" gradientTransform="matrix(0 81.3778 -52.9074 0 132.688 78.687)" gradientUnits="userSpaceOnUse"><stop stop-color="#011445"/><stop offset="1" stop-color="#1A2C58"/></radialGradient><radialGradient id="k" cx="0" cy="0" r="1" gradientTransform="matrix(0 81.3778 -52.9074 0 132.688 78.687)" gradientUnits="userSpaceOnUse"><stop stop-color="#011445"/><stop offset="1" stop-color="#1A2C58"/></radialGradient><radialGradient id="o" cx="0" cy="0" r="1" gradientTransform="matrix(0 105.49 -80.0372 0 132.6 70.288)" gradientUnits="userSpaceOnUse"><stop stop-color="#011445"/><stop offset="1" stop-color="#1A2C58"/></radialGradient><radialGradient id="r" cx="0" cy="0" r="1" gradientTransform="matrix(0 105.49 -80.0372 0 132.6 70.288)" gradientUnits="userSpaceOnUse"><stop stop-color="#011445"/><stop offset="1" stop-color="#1A2C58"/></radialGradient><radialGradient id="u" cx="0" cy="0" r="1" gradientTransform="matrix(0 105.49 -80.0372 0 132.6 70.288)" gradientUnits="userSpaceOnUse"><stop stop-color="#011445"/><stop offset="1" stop-color="#1A2C58"/></radialGradient><radialGradient id="y" cx="0" cy="0" r="1" gradientTransform="matrix(0 105.49 -80.0372 0 132.6 70.288)" gradientUnits="userSpaceOnUse"><stop stop-color="#011445"/><stop offset="1" stop-color="#1A2C58"/></radialGradient><radialGradient id="D" cx="0" cy="0" r="1" gradientTransform="matrix(0 34.2041 -143.673 0 134.232 89.364)" gradientUnits="userSpaceOnUse"><stop stop-color="#fff"/><stop offset="1" stop-color="#fff" stop-opacity="0"/></radialGradient><filter id="a" width="268.2" height="268" x=".34" y="-25.244" color-interpolation-filters="sRGB" filterUnits="userSpaceOnUse"><feFlood flood-opacity="0" result="BackgroundImageFix"/><feColorMatrix in="SourceAlpha" result="hardAlpha" values="0 0 0 0 0 0 0 0 0 0 0 0 0 0 0 0 0 0 127 0"/><feOffset dy="4"/><feGaussianBlur stdDeviation="15"/><feComposite in2="hardAlpha" operator="out"/><feColorMatrix values="0 0 0 0 0.190698 0 0 0 0 0.334496 0 0 0 0 0.565824 0 0 0 0.08 0"/><feBlend in2="BackgroundImageFix" result="effect1_dropShadow_26092_9230"/><feBlend in="SourceGraphic" in2="effect1_dropShadow_26092_9230" result="shape"/></filter><filter id="b" width="153.998" height="171.513" x="55.689" y="23.654" color-interpolation-filters="sRGB" filterUnits="userSpaceOnUse"><feFlood flood-opacity="0" result="BackgroundImageFix"/><feColorMatrix in="SourceAlpha" result="hardAlpha" values="0 0 0 0 0 0 0 0 0 0 0 0 0 0 0 0 0 0 127 0"/><feOffset dy="3.718"/><feGaussianBlur stdDeviation="4.09"/><feColorMatrix values="0 0 0 0 0.0117647 0 0 0 0 0.0627451 0 0 0 0 0.192157 0 0 0 0.3 0"/><feBlend in2="BackgroundImageFix" result="effect1_dropShadow_26092_9230"/><feBlend in="SourceGraphic" in2="effect1_dropShadow_26092_9230" result="shape"/></filter><filter id="w" width="226.046" height="226.046" x="19.577" y="-6.679" color-interpolation-filters="sRGB" filterUnits="userSpaceOnUse"><feFlood flood-opacity="0" result="BackgroundImageFix"/><feColorMatrix in="SourceAlpha" result="hardAlpha" values="0 0 0 0 0 0 0 0 0 0 0 0 0 0 0 0 0 0 127 0"/><feOffset dy="1.487"/><feGaussianBlur stdDeviation="2.974"/><feColorMatrix values="0 0 0 0 0 0 0 0 0 0 0 0 0 0 0 0 0 0 0.16 0"/><feBlend in2="BackgroundImageFix" mode="color-burn" result="effect1_dropShadow_26092_9230"/><feBlend in="SourceGraphic" in2="effect1_dropShadow_26092_9230" result="shape"/></filter><filter id="E" width="148.714" height="52.05" x="59.876" y="74.492" color-interpolation-filters="sRGB" filterUnits="userSpaceOnUse"><feFlood flood-opacity="0" result="BackgroundImageFix"/><feColorMatrix in="SourceAlpha" result="hardAlpha" values="0 0 0 0 0 0 0 0 0 0 0 0 0 0 0 0 0 0 127 0"/><feOffset dy="2.974"/><feGaussianBlur stdDeviation="4.461"/><feColorMatrix values="0 0 0 0 0 0 0 0 0 0 0 0 0 0 0 0 0 0 0.16 0"/><feBlend in2="BackgroundImageFix" result="effect1_dropShadow_26092_9230"/><feBlend in="SourceGraphic" in2="effect1_dropShadow_26092_9230" result="shape"/></filter></defs></svg>