<svg width="15" height="17" viewBox="0 0 15 17" fill="none" xmlns="http://www.w3.org/2000/svg">
<path d="M12.5 15.4581C12.75 15.4581 13 15.2394 13 14.9581V5.95813H10.5C9.9375 5.95813 9.5 5.52063 9.5 4.95813V2.45813H4.5C4.21875 2.45813 4 2.70813 4 2.95813V8.45813H2.5V2.95813C2.5 1.86438 3.375 0.95813 4.5 0.95813H9.65625C10.1875 0.95813 10.6875 1.17688 11.0625 1.55188L13.9062 4.39563C14.2812 4.77063 14.5 5.27063 14.5 5.80188V14.9581C14.5 16.0831 13.5938 16.9581 12.5 16.9581H4.5C3.375 16.9581 2.5 16.0831 2.5 14.9581V11.9581H4V14.9581C4 15.2394 4.21875 15.4581 4.5 15.4581H12.5ZM9.125 8.11438L9.90625 9.45813H10.75C11.1562 9.45813 11.5 9.80188 11.5 10.2081C11.5 10.6456 11.1562 10.9581 10.75 10.9581H9.5C9.21875 10.9581 8.96875 10.8331 8.84375 10.5831L8.53125 10.0519L7.15625 12.8019C7.03125 13.0519 6.8125 13.2081 6.53125 13.2081C6.25 13.2394 6 13.1144 5.875 12.8956L4.59375 10.9581H1.25C0.8125 10.9581 0.5 10.6456 0.5 10.2081C0.5 9.80188 0.8125 9.45813 1.25 9.45813H5C5.25 9.45813 5.46875 9.58313 5.625 9.80188L6.40625 10.9894L7.8125 8.14563C7.9375 7.89563 8.1875 7.73938 8.46875 7.70813C8.75 7.70813 9 7.86438 9.125 8.11438Z" fill="#031031"/>
</svg>
