<svg width="18" height="20" viewBox="0 0 18 20" fill="none" xmlns="http://www.w3.org/2000/svg">
<path d="M16.5 1.75C17.1641 1.75 17.75 2.33594 17.75 3.03906V18C17.75 18.7031 17.1641 19.25 16.5 19.25H1.46094C0.796875 19.25 0.25 18.7031 0.25 18V3.03906C0.25 2.33594 0.796875 1.75 1.46094 1.75H16.5ZM5.52344 16.75V8.42969H2.94531V16.75H5.52344ZM4.23438 7.25781C5.05469 7.25781 5.71875 6.59375 5.71875 5.77344C5.71875 4.95312 5.05469 4.25 4.23438 4.25C3.375 4.25 2.71094 4.95312 2.71094 5.77344C2.71094 6.59375 3.375 7.25781 4.23438 7.25781ZM15.25 16.75V12.1797C15.25 9.95312 14.7422 8.19531 12.125 8.19531C10.875 8.19531 10.0156 8.89844 9.66406 9.5625H9.625V8.42969H7.16406V16.75H9.74219V12.6484C9.74219 11.5547 9.9375 10.5 11.3047 10.5C12.6328 10.5 12.6328 11.75 12.6328 12.6875V16.75H15.25Z" fill="#1A2C58"/>
</svg>
