<svg width="18" height="19" viewBox="0 0 18 19" fill="none" xmlns="http://www.w3.org/2000/svg">
<path d="M16.5 0.908203C17.1641 0.908203 17.75 1.49414 17.75 2.19727V17.1582C17.75 17.8613 17.1641 18.4082 16.5 18.4082H1.46094C0.796875 18.4082 0.25 17.8613 0.25 17.1582V2.19727C0.25 1.49414 0.796875 0.908203 1.46094 0.908203H16.5ZM5.52344 15.9082V7.58789H2.94531V15.9082H5.52344ZM4.23438 6.41602C5.05469 6.41602 5.71875 5.75195 5.71875 4.93164C5.71875 4.11133 5.05469 3.4082 4.23438 3.4082C3.375 3.4082 2.71094 4.11133 2.71094 4.93164C2.71094 5.75195 3.375 6.41602 4.23438 6.41602ZM15.25 15.9082V11.3379C15.25 9.11133 14.7422 7.35352 12.125 7.35352C10.875 7.35352 10.0156 8.05664 9.66406 8.7207H9.625V7.58789H7.16406V15.9082H9.74219V11.8066C9.74219 10.7129 9.9375 9.6582 11.3047 9.6582C12.6328 9.6582 12.6328 10.9082 12.6328 11.8457V15.9082H15.25Z" fill="white"/>
</svg>
