<svg width="60" height="60" viewBox="0 0 60 60" fill="none" xmlns="http://www.w3.org/2000/svg">
<path d="M35.1817 46.0742C30.4089 44.3015 25.4998 44.0288 20.9998 45.2561C17.8635 46.0742 14.8635 47.7106 12.1362 49.756L10.2271 51.3924L9.68164 51.9379L10.9089 53.0288C11.0453 53.0288 11.0453 53.1651 11.1816 53.3015C11.4544 53.5742 11.7271 53.7106 12.1362 53.9833L12.9544 54.5288L13.7725 53.8469C13.9089 53.7106 14.1816 53.4379 14.4544 53.3015C16.9089 51.256 19.6362 49.8924 22.4998 49.2106C26.1816 48.256 30.1362 48.3924 34.0907 49.8924C37.3635 51.1197 44.0453 52.6197 52.0907 49.2106L52.3635 49.0742L52.7726 48.6651C52.7726 48.5288 52.9089 48.5288 53.0453 48.3924C53.7271 47.5742 54.4089 46.756 54.9544 45.8015L57.6817 41.5742L53.318 44.0287C46.9089 47.5742 41.0453 48.256 35.1817 46.0742Z" fill="#155EEF"/>
<path d="M16.4998 31.3466C20.1816 30.3921 24.1362 30.5284 28.0907 32.0284C32.4544 33.6648 43.6362 35.983 56.1817 24.6648L58.2271 22.6193L58.3635 22.483L58.9089 21.9375L58.6362 21.2557C58.4998 20.7103 58.2271 20.0284 57.9544 19.3466L57.2725 17.4375L55.9089 18.8011C55.7725 19.0739 55.4998 19.2102 55.2271 19.483C49.2271 25.6193 39.9544 31.8921 29.318 28.0739C24.5453 26.3012 19.6362 26.0284 15.1362 27.2557C10.7726 28.483 6.95437 30.8012 3.40891 34.0739V33.9375L1.36346 36.1193C1.36346 36.2557 1.22712 36.2557 1.09076 36.3921L0.681641 36.8012L0.818013 37.3466C0.954376 38.0284 1.2271 38.7102 1.36346 39.3921L2.18165 41.5739L3.54528 39.8012C3.68165 39.5284 3.95437 39.3921 4.09073 39.1194C6.95437 36.5284 10.9089 32.8466 16.4998 31.3466Z" fill="#155EEF"/>
<path d="M3.27276 28.8919C6.40912 25.6192 9.95455 23.5737 13.7727 22.4828C17.4546 21.5282 21.4091 21.6646 25.3636 23.1646C37.6364 27.6646 48.2728 20.301 52.9091 16.3464L54.6818 14.5737L55.3636 14.0282L54.8182 13.2101C54.4091 12.801 54.1364 12.2555 53.7273 11.7101L52.9091 10.6191L51.9546 11.5737C51.8182 11.7101 51.5455 11.9828 51.4091 12.1191C45.6818 17.5737 36.8182 23.1646 26.7273 19.3464C21.9546 17.5737 17.0455 17.301 12.5455 18.5283C9.68184 19.3464 6.95455 20.7101 4.22728 22.4828L1.36364 24.801C1.09091 25.0737 0.954545 25.2101 0.681818 25.4828L0.409116 25.7555V26.1646C0.272752 27.1192 0.272736 28.0737 0.136372 28.8919L0 32.301L2.3182 29.8464C2.59093 29.5737 2.86367 29.1646 3.27276 28.8919Z" fill="#155EEF"/>
<path d="M39.1374 55.3466L38.8647 56.1648L39.1374 55.3466C38.7283 55.2102 38.4556 55.0738 38.0465 54.9375C33.2738 53.1647 28.3647 52.892 23.8647 54.1193C22.9101 54.392 21.9556 54.6648 21.0011 55.0738L17.7283 56.5739L16.9102 56.9829L19.6374 57.9375C20.4556 58.2102 21.2738 58.483 22.092 58.7557L22.501 58.892L22.9101 58.7557C23.3192 58.6193 23.7283 58.3466 24.1374 58.3466C24.4101 58.3466 24.6829 58.2102 24.9556 58.0739C28.2283 57.2557 31.7738 57.2557 35.5919 58.4829C36.001 58.6193 36.2738 58.7557 36.6829 58.892L37.3647 59.1648L37.7738 59.0284C38.7283 58.7557 39.8192 58.483 40.6374 58.0739L44.4556 56.7102L40.501 55.7557C40.092 55.6193 39.5465 55.483 39.1374 55.3466Z" fill="#155EEF"/>
<path d="M60 27.1191L57.9545 29.1646C57.6818 29.4373 57.4091 29.7101 57.1364 29.9828C51.5455 35.301 42.5455 41.0282 32.4545 37.21C27.6818 35.4373 22.7727 35.1646 18.2727 36.3919C14.0455 37.6192 10.2272 39.801 6.81816 43.0737L5.04545 44.9828L4.5 45.6646L5.04545 46.4828C5.45454 47.0282 5.72728 47.4373 6.00001 47.9828L6.81816 49.2101L7.77272 47.9828C7.90908 47.8464 8.1818 47.5737 8.31816 47.4373C11.5909 43.8919 15.1363 41.71 19.2273 40.6191C22.9091 39.6646 26.8636 39.801 30.8182 41.301C34.2273 42.5282 37.7727 42.9373 41.3182 42.5283C47.5909 41.8464 53.8636 38.301 58.5 34.3464C58.7727 34.0737 59.0454 33.9373 59.3182 33.6646L59.7273 33.2555V32.8464C59.7273 32.0282 59.8636 31.0737 59.8636 30.2555L60 27.1191Z" fill="#155EEF"/>
<path d="M8.18198 14.5744L7.7729 13.7562L8.18198 14.5744C9.00016 14.1653 9.95474 13.8926 10.7729 13.6198C14.4547 12.6653 18.4093 12.8017 22.3638 14.3017C24.9547 15.2562 27.5456 15.6653 30.4093 15.6653C36.1366 15.6653 41.8638 13.6199 47.182 9.66531L49.2274 8.02893L49.9093 7.48348L48.682 6.52892C48.2729 6.11983 47.7274 5.71075 47.182 5.43802L46.3638 4.89258L45.682 5.43802C45.4093 5.57439 45.2729 5.84711 45.0002 5.98347C37.7729 11.438 30.5456 12.938 23.7275 10.3471C18.8184 8.5744 13.9093 8.16531 9.00017 9.66531C8.59108 9.80167 8.18199 9.93802 7.63653 10.0744L7.36383 10.2108L6.95471 10.6198C6.95471 10.7562 6.81838 10.7562 6.68201 10.8926C6.13656 11.7108 5.45471 12.3926 4.90926 13.2108L2.31836 17.1653L6.54564 14.9835C7.22746 14.9835 7.77289 14.7108 8.18198 14.5744Z" fill="#155EEF"/>
<path d="M19.3637 5.30111L19.7727 5.43748C21.5455 6.1193 24.2728 6.80112 27.6818 6.80112C31.2273 6.80112 34.6364 5.98293 38.0455 4.61929L42.2727 2.57384L39.4091 1.61932C38.5909 1.34659 37.7727 1.07386 36.8182 0.9375H36.4091L36 1.07383C35.5909 1.21019 35.1818 1.48295 34.7727 1.61932C30.6818 3.11932 26.5909 3.39205 22.6364 2.30114C22.2273 2.16477 21.8182 2.02838 21.4091 1.89202L21 1.75565L20.5909 1.89202C19.7727 2.16475 18.9546 2.43749 18.1364 2.84658L15 4.21022L18.2728 5.16474C18.5455 5.02838 18.9546 5.16475 19.3637 5.30111Z" fill="#155EEF"/>
</svg>
