<svg width="60" height="60" viewBox="0 0 60 60" fill="none" xmlns="http://www.w3.org/2000/svg">
<path opacity="0.8" fill-rule="evenodd" clip-rule="evenodd" d="M6.43579 36.9033C7.79648 38.2562 7.79646 40.4496 6.43574 41.8025L6.36605 41.8717C5.00533 43.2246 2.79918 43.2246 1.43848 41.8717C0.0777804 40.5188 0.0778013 38.3254 1.43853 36.9726L1.50821 36.9033C2.86894 35.5504 5.07509 35.5505 6.43579 36.9033Z" fill="white"/>
<path opacity="0.9" fill-rule="evenodd" clip-rule="evenodd" d="M22.817 37.9468C24.1753 39.3021 24.1713 41.4955 22.8081 42.8459L13.1565 52.4071C11.7934 53.7575 9.58722 53.7536 8.22897 52.3983C6.87072 51.043 6.87471 48.8496 8.23788 47.4992L17.8895 37.938C19.2526 36.5875 21.4588 36.5915 22.817 37.9468Z" fill="white"/>
<path opacity="0.8" fill-rule="evenodd" clip-rule="evenodd" d="M35.9176 54.4063C36.985 52.8144 39.1483 52.3842 40.7495 53.4455L40.9585 53.584C42.5597 54.6453 42.9923 56.7961 41.9249 58.388C40.8575 59.9799 38.6942 60.4101 37.093 59.3488L36.884 59.2102C35.2828 58.149 34.8502 55.9982 35.9176 54.4063Z" fill="white"/>
<path opacity="0.9" fill-rule="evenodd" clip-rule="evenodd" d="M58.9094 36.6963C60.2702 38.0491 60.2702 40.2425 58.9094 41.5954L54.1708 46.3067C52.81 47.6596 50.6039 47.6596 49.2432 46.3067C47.8825 44.9539 47.8825 42.7605 49.2432 41.4076L53.9819 36.6963C55.3426 35.3434 57.5487 35.3434 58.9094 36.6963Z" fill="white"/>
<path fill-rule="evenodd" clip-rule="evenodd" d="M58.9792 19.2715C60.3399 20.6243 60.3399 22.8177 58.9792 24.1706L23.9618 58.9858C22.6011 60.3387 20.3949 60.3387 19.0342 58.9858C17.6735 57.633 17.6735 55.4396 19.0342 54.0867L54.0516 19.2715C55.4123 17.9186 57.6185 17.9186 58.9792 19.2715Z" fill="white"/>
<path fill-rule="evenodd" clip-rule="evenodd" d="M52.359 8.5664C53.7197 9.91926 53.7197 12.1127 52.359 13.4655L32.2196 33.4886C30.8589 34.8415 28.6527 34.8415 27.292 33.4886C25.9313 32.1358 25.9313 29.9423 27.292 28.5895L47.4314 8.5664C48.7921 7.21354 50.9983 7.21354 52.359 8.5664Z" fill="white"/>
<path fill-rule="evenodd" clip-rule="evenodd" d="M41.7295 1.77471C43.0911 3.12666 43.0926 5.32007 41.7328 6.67384L15.8443 32.4475C14.4845 33.8013 12.2783 33.8027 10.9167 32.4508C9.5551 31.0989 9.55361 28.9054 10.9134 27.5517L36.8019 1.77801C38.1617 0.424243 40.3679 0.422768 41.7295 1.77471Z" fill="white"/>
<path opacity="0.9" fill-rule="evenodd" clip-rule="evenodd" d="M16.0917 10.0257C17.4501 11.3809 17.4463 13.5743 16.0832 14.9248L5.94386 24.971C4.58081 26.3215 2.37466 26.3178 1.0163 24.9626C-0.342071 23.6074 -0.338274 21.414 1.02478 20.0635L11.1641 10.0173C12.5272 8.66674 14.7333 8.67051 16.0917 10.0257Z" fill="white"/>
<path opacity="0.8" fill-rule="evenodd" clip-rule="evenodd" d="M22.3007 0C24.2251 0 25.7851 1.55098 25.7851 3.4642V3.81062C25.7851 5.72385 24.2251 7.27483 22.3007 7.27483C20.3764 7.27483 18.8164 5.72385 18.8164 3.81062V3.4642C18.8164 1.55098 20.3764 0 22.3007 0Z" fill="white"/>
</svg>
