<svg width="60" height="60" viewBox="0 0 60 60" fill="none" xmlns="http://www.w3.org/2000/svg">
<path fill-rule="evenodd" clip-rule="evenodd" d="M30 46.9999C39.3888 46.9999 47 39.3888 47 30C47 20.6111 39.3888 13 30 13C20.6112 13 13 20.6111 13 30C13 39.3888 20.6112 46.9999 30 46.9999ZM30 59.9999C46.5685 59.9999 60 46.5685 60 30C60 13.4314 46.5685 0 30 0C13.4315 0 0 13.4314 0 30C0 46.5685 13.4315 59.9999 30 59.9999Z" fill="#6938EF"/>
<path d="M30.3431 30.6568C33.4673 27.5327 38.5327 27.5327 41.6569 30.6568L57.2132 46.2132C60.3374 49.3374 60.3374 54.4027 57.2132 57.5269C54.089 60.6511 49.0237 60.6511 45.8995 57.5269L30.3432 41.9705C27.219 38.8464 27.219 33.781 30.3431 30.6568Z" fill="#F670C7"/>
<path d="M34.7109 46.3387L44.5909 56.2186C49.3298 53.5757 53.2779 49.6852 55.9911 44.9914L46.1921 35.1924C44.4709 40.5643 40.1506 44.773 34.7109 46.3387Z" fill="#6519BA"/>
</svg>
