<svg width="60" height="60" viewBox="0 0 60 60" fill="none" xmlns="http://www.w3.org/2000/svg">
<path fill-rule="evenodd" clip-rule="evenodd" d="M31.0428 1.97439C30.3541 1.83275 29.6438 1.83275 28.9551 1.9744C28.159 2.13813 27.4475 2.53666 26.8818 2.8535L26.7276 2.93964L7.55557 13.5908C7.50256 13.6202 7.44794 13.6503 7.39198 13.6811C6.79316 14.0109 6.04023 14.4257 5.46203 15.0531C4.96213 15.5956 4.58382 16.2385 4.35239 16.9389C4.08472 17.7491 4.08785 18.6087 4.09034 19.2923C4.09057 19.3562 4.0908 19.4186 4.0908 19.4792V40.5091C4.0908 40.5697 4.09057 40.6321 4.09034 40.696C4.08785 41.3796 4.08472 42.2392 4.35239 43.0494C4.58382 43.7498 4.96213 44.3927 5.46203 44.9352C6.04024 45.5626 6.79317 45.9773 7.39198 46.3072C7.44795 46.338 7.50257 46.3681 7.55557 46.3975L26.7276 57.0486L26.8818 57.1348C27.4475 57.4516 28.159 57.8502 28.9551 58.0139C29.6438 58.1555 30.3541 58.1555 31.0428 58.0139C31.8389 57.8502 32.5504 57.4516 33.1161 57.1348L33.2703 57.0486L52.4423 46.3975C52.4657 46.3845 52.4895 46.3714 52.5135 46.3581C52.5439 46.3413 52.5746 46.3244 52.6059 46.3072C53.2047 45.9774 53.9576 45.5626 54.5358 44.9352C55.0357 44.3927 55.4141 43.7498 55.6455 43.0494C55.9132 42.2392 55.91 41.3796 55.9075 40.696C55.9073 40.6321 55.9071 40.5697 55.9071 40.5091V19.4792C55.9071 19.4186 55.9073 19.3562 55.9075 19.2923C55.91 18.6087 55.9132 17.7491 55.6455 16.9389C55.4141 16.2385 55.0357 15.5956 54.5358 15.0531C53.9576 14.4256 53.2047 14.0109 52.6059 13.6811L52.6038 13.6799C52.5485 13.6495 52.4946 13.6198 52.4423 13.5908L33.2703 2.93964L33.1161 2.8535C32.5504 2.53666 31.8389 2.13812 31.0428 1.97439ZM29.244 7.4692C29.6366 7.25107 29.837 7.14086 29.9866 7.06875L29.9989 7.06282L30.0113 7.06875C30.1608 7.14086 30.3612 7.25107 30.7539 7.46919L47.9813 17.04L29.9989 27.0303L12.0165 17.0401L29.244 7.4692ZM9.27243 21.4432L27.408 31.5185L27.4081 51.4991L10.072 41.868C9.65758 41.6377 9.446 41.519 9.29756 41.4244L9.28502 41.4163L9.28409 41.4015C9.2735 41.2258 9.27243 40.9832 9.27243 40.5091V21.4432Z" fill="white"/>
</svg>
