<svg width="60" height="60" viewBox="0 0 60 60" fill="none" xmlns="http://www.w3.org/2000/svg">
<path d="M29.4259 2.72656C24.4622 2.72656 20.4531 6.68692 20.4531 11.5902C20.4531 16.4558 24.4622 20.4161 29.3876 20.4538C28.1658 20.4161 27.2113 19.4355 27.2113 18.2285C27.2113 17.0215 28.2041 16.0032 29.4641 16.0032C34.8095 16.0032 46.6841 16.0032 51.915 16.0032C55.6186 16.0032 58.6349 13.0235 58.6349 9.36491C58.6349 5.70625 55.6186 2.72656 51.915 2.72656L29.4259 2.72656Z" fill="#5720B7"/>
<path d="M18.5196 20.4551C13.556 20.4551 9.54687 24.4154 9.54688 29.3187C9.54688 34.1843 13.556 38.1446 18.4814 38.1824C17.2596 38.1446 16.3051 37.164 16.3051 35.957C16.3051 34.75 17.2978 33.7317 18.5578 33.7317C23.9032 33.7317 35.7778 33.7317 41.0087 33.7317C44.7123 33.7317 47.7287 30.752 47.7287 27.0934C47.7287 23.4348 44.7123 20.4551 41.0087 20.4551L18.5196 20.4551Z" fill="#6927DA"/>
<path d="M10.9769 38.1816C5.65873 38.1816 1.36328 42.4466 1.36328 47.7271C1.36328 52.967 5.65873 57.2319 10.936 57.2726C9.62691 57.2319 8.60419 56.1759 8.60419 54.876C8.60419 53.5762 9.66785 52.4795 11.0179 52.4795C16.7451 52.4795 29.4679 52.4795 35.0724 52.4795C39.0406 52.4795 42.2724 49.2706 42.2724 45.3306C42.2724 41.3905 39.0406 38.1816 35.0724 38.1816L10.9769 38.1816Z" fill="#7839EE"/>
</svg>
