<svg width="60" height="61" viewBox="0 0 60 61" fill="none" xmlns="http://www.w3.org/2000/svg">
<circle cx="30" cy="30.3408" r="27.9545" stroke="white" stroke-width="4.09091"/>
<path d="M41.0883 41.4298C35.4437 47.0744 29.0489 50.7592 23.3538 52.2237C17.6074 53.7013 12.9756 52.8507 10.2328 50.1079C7.48993 47.3651 6.63931 42.7333 8.11698 36.9868C9.58142 31.2918 13.2663 24.897 18.9109 19.2523C24.5555 13.6077 30.9503 9.92286 36.6454 8.45842C42.3919 6.98075 47.0236 7.83137 49.7665 10.5742C52.5093 13.317 53.3599 17.9488 51.8822 23.6953C50.4178 29.3903 46.733 35.7851 41.0883 41.4298Z" stroke="white" stroke-width="4.09091"/>
<path d="M41.087 19.2515C46.7316 24.8962 50.4165 31.291 51.8809 36.986C53.3586 42.7325 52.508 47.3643 49.7651 50.1071C47.0223 52.8499 42.3905 53.7005 36.644 52.2229C30.949 50.7584 24.5542 47.0736 18.9096 41.429C13.2649 35.7843 9.58009 29.3895 8.11565 23.6945C6.63798 17.948 7.4886 13.3162 10.2314 10.5734C12.9743 7.83056 17.606 6.97994 23.3525 8.45761C29.0476 9.92205 35.4424 13.6069 41.087 19.2515Z" stroke="white" stroke-width="4.09091"/>
</svg>
