<svg width="60" height="60" viewBox="0 0 60 60" fill="none" xmlns="http://www.w3.org/2000/svg">
<path d="M37.1856 2.8938L31.43 1.35156L26.5797 19.4534L22.2007 3.11094L16.4449 4.65317L21.1761 22.31L9.39179 10.5257L5.17834 14.7391L18.1043 27.6652L2.00707 23.3519L0.464844 29.1075L18.0531 33.8203C17.8517 32.9518 17.7452 32.0468 17.7452 31.1169C17.7452 24.5351 23.0808 19.1995 29.6626 19.1995C36.2445 19.1995 41.5801 24.5351 41.5801 31.1169C41.5801 32.0408 41.4749 32.9402 41.276 33.8036L57.2604 38.0866L58.8026 32.331L41.1444 27.5995L57.2427 23.2859L55.7004 17.5303L38.043 22.2615L49.8273 10.4773L45.6138 6.26385L32.8672 19.0105L37.1856 2.8938Z" fill="white"/>
<path d="M41.2592 33.8706C40.7657 35.9569 39.7239 37.8311 38.2944 39.3327L49.8744 50.9128L54.0879 46.6994L41.2592 33.8706Z" fill="white"/>
<path d="M38.1775 39.4538C36.7308 40.9314 34.9026 42.034 32.8523 42.6023L37.0661 58.3281L42.8217 56.7859L38.1775 39.4538Z" fill="white"/>
<path d="M32.6373 42.6598C31.6861 42.9044 30.6891 43.0343 29.6616 43.0343C28.5608 43.0343 27.4949 42.885 26.4829 42.6057L22.2654 58.3459L28.021 59.888L32.6373 42.6598Z" fill="white"/>
<path d="M26.2794 42.5477C24.2605 41.9512 22.4648 40.8344 21.0476 39.3526L9.43907 50.9611L13.6525 55.1746L26.2794 42.5477Z" fill="white"/>
<path d="M20.9519 39.25C19.559 37.7587 18.5445 35.9096 18.0615 33.8555L2.0249 38.1526L3.56712 43.9082L20.9519 39.25Z" fill="white"/>
</svg>
