<svg width="46" height="52" viewBox="0 0 46 52" fill="none" xmlns="http://www.w3.org/2000/svg">
<path d="M39.7721 26C35.6522 30.6031 29.665 33.5 23.0013 33.5C16.3375 33.5 10.3504 30.6031 6.23047 26C10.3504 21.3969 16.3375 18.5 23.0013 18.5C29.665 18.5 35.6522 21.3969 39.7721 26Z" fill="white"/>
<path fill-rule="evenodd" clip-rule="evenodd" d="M0.5 41C0.5 28.5736 10.5736 18.5 23 18.5C16.3363 18.5 10.3492 21.3969 6.22925 26C10.3492 30.6031 16.3363 33.5 23 33.5C29.6638 33.5 35.6509 30.6031 39.7708 26C43.3336 29.9807 45.5 35.2374 45.5 41V49.5C45.5 50.6046 44.6046 51.5 43.5 51.5H2.5C1.39543 51.5 0.5 50.6046 0.5 49.5V41Z" fill="#7CD4FD"/>
<path fill-rule="evenodd" clip-rule="evenodd" d="M14.5605 31.8637C11.3478 30.5628 8.50393 28.5415 6.22925 26C10.3491 21.3969 16.3363 18.5 23 18.5C29.6638 18.5 35.6509 21.3969 39.7708 26C39.7708 26 39.7708 26 39.7708 26C43.3336 22.0193 45.5 16.7626 45.5 11V2.5C45.5 1.39544 44.6046 0.500004 43.5 0.500004L2.5 0.5C1.39543 0.5 0.500001 1.39543 0.500001 2.5L0.5 11C0.499999 20.4419 6.31579 28.5254 14.5605 31.8637Z" fill="#0BA5EC"/>
</svg>
