<svg width="60" height="60" viewBox="0 0 60 60" fill="none" xmlns="http://www.w3.org/2000/svg">
<path d="M44.3126 3.62695C48.3496 11.5421 50.6261 20.505 50.6261 29.9996C50.6261 39.4943 48.3495 48.4573 44.3125 56.3725C53.6579 51.2905 60.0011 41.3858 60.0011 29.9997C60.0011 18.6136 53.6579 8.70905 44.3126 3.62695Z" fill="#0BA5EC"/>
<path d="M30.8215 2.99862C29.4646 1.07637 27.153 0.0411225 24.8347 0.443439C10.7275 2.8916 0 15.1932 0 30.0004C0 44.8076 10.7275 57.1092 24.8346 59.5574C27.1528 59.9597 29.4644 58.9245 30.8214 57.0022C36.2097 49.369 39.375 40.0543 39.375 30.0004C39.375 19.9465 36.2098 10.6318 30.8215 2.99862Z" fill="#0086C9"/>
</svg>
