<svg width="21" height="22" viewBox="0 0 21 22" fill="none" xmlns="http://www.w3.org/2000/svg">
<path d="M14.875 9.125C14.875 6.89844 13.6641 4.86719 11.75 3.73438C9.79688 2.60156 7.41406 2.60156 5.5 3.73438C3.54688 4.86719 2.375 6.89844 2.375 9.125C2.375 11.3906 3.54688 13.4219 5.5 14.5547C7.41406 15.6875 9.79688 15.6875 11.75 14.5547C13.6641 13.4219 14.875 11.3906 14.875 9.125ZM13.6641 15.5312C12.2578 16.625 10.5 17.25 8.625 17.25C4.13281 17.25 0.5 13.6172 0.5 9.125C0.5 4.67188 4.13281 1 8.625 1C13.0781 1 16.75 4.67188 16.75 9.125C16.75 11.0391 16.0859 12.7969 14.9922 14.2031L20.2266 19.3984C20.5781 19.7891 20.5781 20.375 20.2266 20.7266C19.8359 21.1172 19.25 21.1172 18.8984 20.7266L13.6641 15.5312Z" fill="#481DBF"/>
</svg>
