<svg width="16" height="17" viewBox="0 0 16 17" fill="none" xmlns="http://www.w3.org/2000/svg">
<path d="M11.4142 7.0413C11.4142 5.34547 10.4919 3.7984 9.03408 2.93561C7.54651 2.07282 5.73167 2.07282 4.27385 2.93561C2.78628 3.7984 1.89374 5.34547 1.89374 7.0413C1.89374 8.76688 2.78628 10.314 4.27385 11.1767C5.73167 12.0395 7.54651 12.0395 9.03408 11.1767C10.4919 10.314 11.4142 8.76688 11.4142 7.0413ZM10.4919 11.9205C9.42084 12.7536 8.08203 13.2296 6.65396 13.2296C3.23255 13.2296 0.46567 10.4627 0.46567 7.0413C0.46567 3.64964 3.23255 0.853009 6.65396 0.853009C10.0456 0.853009 12.8423 3.64964 12.8423 7.0413C12.8423 8.49912 12.3365 9.83793 11.5034 10.909L15.4901 14.8659C15.7579 15.1634 15.7579 15.6097 15.4901 15.8775C15.1926 16.175 14.7463 16.175 14.4786 15.8775L10.4919 11.9205Z" fill="white"/>
</svg>
