<svg width="18" height="15" viewBox="0 0 18 15" fill="none" xmlns="http://www.w3.org/2000/svg">
<path d="M17.6562 0.65625C17.875 0.78125 18 1.03125 18 1.25V11.75C18 12.0625 17.7812 12.3438 17.5 12.4688L12.25 14.4688C12.0938 14.5312 11.9062 14.5312 11.75 14.4688L6 12.5625L1 14.4688C0.78125 14.5625 0.5 14.5312 0.3125 14.375C0.09375 14.25 0 14 0 13.75V3.25C0 2.9375 0.1875 2.6875 0.46875 2.5625L5.71875 0.5625C5.875 0.5 6.0625 0.5 6.21875 0.5625L11.9688 2.46875L16.9688 0.5625C17.1875 0.46875 17.4688 0.5 17.6562 0.65625ZM1.5 3.78125V12.6875L5.25 11.25V2.34375L1.5 3.78125ZM11.25 12.7188V3.8125L6.75 2.3125V11.2188L11.25 12.7188ZM12.75 12.6875L16.5 11.25V2.34375L12.75 3.78125V12.6875Z" fill="#EFEBFC"/>
</svg>
