<svg width="23" height="21" viewBox="0 0 23 21" fill="none" xmlns="http://www.w3.org/2000/svg">
<path d="M0 1.4872C0 0.823135 0.546875 0.237198 1.25 0.237198H13.75C14.4141 0.237198 15 0.823135 15 1.4872V2.7372C15 3.44032 14.4141 3.9872 13.75 3.9872H1.25C0.546875 3.9872 0 3.44032 0 2.7372V1.4872ZM1.25 5.2372H13.75V8.51845C11.5234 9.65126 10 11.9559 10 14.6122C10 16.7606 10.9375 18.6747 12.4609 19.9247C12.1094 20.12 11.6797 20.2372 11.25 20.2372H3.75C2.34375 20.2372 1.25 19.1434 1.25 17.7372V16.4872H5.625C5.9375 16.4872 6.25 16.2138 6.25 15.8622C6.25 15.5497 5.9375 15.2372 5.625 15.2372H1.25V12.7372H5.625C5.9375 12.7372 6.25 12.4638 6.25 12.1122C6.25 11.7997 5.9375 11.4872 5.625 11.4872H1.25V8.9872H5.625C5.9375 8.9872 6.25 8.71376 6.25 8.3622C6.25 8.0497 5.9375 7.7372 5.625 7.7372H1.25V5.2372ZM11.875 11.995C12.1484 11.4872 12.8125 11.4481 13.2031 11.8778L19.6094 18.2841C20.0391 18.6747 20 19.3388 19.4922 19.6122C18.7109 20.0028 17.8125 20.2372 16.875 20.2372C13.75 20.2372 11.25 17.7372 11.25 14.6122C11.25 13.6747 11.4844 12.7763 11.875 11.995ZM21.8359 17.2684C21.5625 17.7763 20.8984 17.7763 20.5078 17.3856L14.1016 10.9794C13.7109 10.5888 13.7109 9.9247 14.2188 9.65126C15 9.26064 15.8984 8.9872 16.875 8.9872C19.9609 8.9872 22.5 11.5263 22.5 14.6122C22.5 15.5888 22.2266 16.4872 21.8359 17.2684Z" fill="#AA25ED"/>
</svg>
