<svg width="23" height="20" viewBox="0 0 23 20" fill="none" xmlns="http://www.w3.org/2000/svg">
<path d="M2.125 1.875V3.125H13.375V1.875H2.125ZM1.8125 0H13.6875C14.5469 0 15.25 0.703125 15.25 1.5625V3.4375C15.25 4.33594 14.5469 5 13.6875 5H1.8125C0.914062 5 0.25 4.33594 0.25 3.4375V1.5625C0.25 0.703125 0.914062 0 1.8125 0ZM1.5 6.25H3.375V6.875H5.5625C6.07031 6.875 6.5 7.30469 6.5 7.8125C6.5 8.35938 6.07031 8.75 5.5625 8.75H3.375V10.625H5.5625C6.07031 10.625 6.5 11.0547 6.5 11.5625C6.5 12.1094 6.07031 12.5 5.5625 12.5H3.375V14.375H5.5625C6.07031 14.375 6.5 14.8047 6.5 15.3125C6.5 15.8594 6.07031 16.25 5.5625 16.25H3.375V17.5C3.375 17.8516 3.64844 18.125 4 18.125H11.3438C11.7344 18.7109 12.2031 19.2578 12.7109 19.6875C12.3594 19.8828 11.9297 20 11.5 20H4C2.59375 20 1.5 18.9062 1.5 17.5V6.25ZM14 6.25V8.28125C13.2969 8.63281 12.6328 9.10156 12.125 9.6875V6.25H14ZM17.125 10.625C15.7578 10.625 14.5469 11.3672 13.8438 12.5C13.1797 13.6719 13.1797 15.1172 13.8438 16.25C14.5469 17.4219 15.7578 18.125 17.125 18.125C18.4531 18.125 19.6641 17.4219 20.3672 16.25C21.0312 15.1172 21.0312 13.6719 20.3672 12.5C19.6641 11.3672 18.4531 10.625 17.125 10.625ZM17.125 20C15.0938 20 13.2578 18.9453 12.2422 17.1875C11.2266 15.4688 11.2266 13.3203 12.2422 11.5625C13.2578 9.84375 15.0938 8.75 17.125 8.75C19.1172 8.75 20.9531 9.84375 21.9688 11.5625C22.9844 13.3203 22.9844 15.4688 21.9688 17.1875C20.9531 18.9453 19.1172 20 17.125 20ZM15.2109 12.4609C15.5625 12.1094 16.1484 12.1094 16.5 12.4609L19 14.9609C19.3906 15.3516 19.3906 15.9375 19 16.2891C18.6484 16.6797 18.0625 16.6797 17.7109 16.2891L15.2109 13.7891C14.8203 13.4375 14.8203 12.8516 15.2109 12.4609Z" fill="#135A62"/>
</svg>
