<svg width="16" height="16" viewBox="0 0 16 16" fill="none" xmlns="http://www.w3.org/2000/svg">
<path d="M5.75 1.95813C5.59375 1.95813 5.5 2.08313 5.5 2.20813V3.45813H10.5V2.20813C10.5 2.08313 10.375 1.95813 10.25 1.95813H5.75ZM4 2.20813C4 1.27063 4.78125 0.45813 5.75 0.45813H10.25C11.1875 0.45813 12 1.27063 12 2.20813V3.45813H14C15.0938 3.45813 16 4.36438 16 5.45813V13.4581C16 14.5831 15.0938 15.4581 14 15.4581H2C0.875 15.4581 0 14.5831 0 13.4581V5.45813C0 4.36438 0.875 3.45813 2 3.45813H4V2.20813ZM11.5 4.95813H11.25H4.75H4.5V13.9581H11.5V4.95813ZM3 4.95813H2C1.71875 4.95813 1.5 5.20813 1.5 5.45813V13.4581C1.5 13.7394 1.71875 13.9581 2 13.9581H3V4.95813ZM13 13.9581H14C14.25 13.9581 14.5 13.7394 14.5 13.4581V5.45813C14.5 5.20813 14.25 4.95813 14 4.95813H13V13.9581ZM7.15625 7.45813C7.15625 7.20813 7.375 6.95813 7.65625 6.95813H8.3125C8.59375 6.95813 8.8125 7.20813 8.8125 7.45813V8.64563H10C10.25 8.64563 10.5 8.86438 10.5 9.14563V9.80188C10.5 10.0831 10.25 10.3019 10 10.3019H8.8125V11.4581C8.8125 11.7394 8.59375 11.9581 8.3125 11.9581H7.65625C7.375 11.9581 7.15625 11.7394 7.15625 11.4581V10.3019H6C5.71875 10.3019 5.5 10.0831 5.5 9.80188V9.14563C5.5 8.86438 5.71875 8.64563 6 8.64563H7.15625V7.45813Z" fill="#031031"/>
</svg>
