<svg width="21" height="15" viewBox="0 0 21 15" fill="none" xmlns="http://www.w3.org/2000/svg">
<path d="M4.5 2.45813C4.21875 2.45813 4 2.70813 4 2.95813V9.95813H2.5V2.95813C2.5 1.86438 3.375 0.95813 4.5 0.95813H16.5C17.5938 0.95813 18.5 1.86438 18.5 2.95813V9.95813H17V2.95813C17 2.70813 16.75 2.45813 16.5 2.45813H4.5ZM2.0625 12.4581C2.28125 13.0519 2.84375 13.4581 3.5 13.4581H17.5C18.125 13.4581 18.6875 13.0519 18.9062 12.4581H2.0625ZM1.5 10.9581H19.5C20.0312 10.9581 20.5 11.4269 20.5 11.9581C20.5 13.6144 19.1562 14.9581 17.5 14.9581H3.5C1.84375 14.9581 0.5 13.6144 0.5 11.9581C0.5 11.4269 0.9375 10.9581 1.5 10.9581ZM9.5 4.45813C9.5 4.20813 9.71875 3.95813 10 3.95813H11C11.25 3.95813 11.5 4.20813 11.5 4.45813V5.95813H13C13.25 5.95813 13.5 6.20813 13.5 6.45813V7.45813C13.5 7.73938 13.25 7.95813 13 7.95813H11.5V9.45813C11.5 9.73938 11.25 9.95813 11 9.95813H10C9.71875 9.95813 9.5 9.73938 9.5 9.45813V7.95813H8C7.71875 7.95813 7.5 7.73938 7.5 7.45813V6.45813C7.5 6.20813 7.71875 5.95813 8 5.95813H9.5V4.45813Z" fill="#031031"/>
</svg>
