<svg width="27" height="22" viewBox="0 0 27 22" fill="none" xmlns="http://www.w3.org/2000/svg">
<path d="M6.75 19.25H20.25V2.75H6.75V19.25ZM4.5 19.25V2.75H3C2.57812 2.75 2.25 3.125 2.25 3.5V18.5C2.25 18.9219 2.57812 19.25 3 19.25H4.5ZM3 0.5H4.5H5.625H6.75H20.25H21.375H22.5H24C25.6406 0.5 27 1.85938 27 3.5V18.5C27 20.1875 25.6406 21.5 24 21.5H22.5H21.375H20.25H6.75H5.625H4.5H3C1.3125 21.5 0 20.1875 0 18.5V3.5C0 1.85938 1.3125 0.5 3 0.5ZM22.5 19.25H24C24.375 19.25 24.75 18.9219 24.75 18.5V3.5C24.75 3.125 24.375 2.75 24 2.75H22.5V19.25ZM12 7.25C12 6.875 12.3281 6.5 12.75 6.5H14.25C14.625 6.5 15 6.875 15 7.25V9.5H17.25C17.625 9.5 18 9.875 18 10.25V11.75C18 12.1719 17.625 12.5 17.25 12.5H15V14.75C15 15.1719 14.625 15.5 14.25 15.5H12.75C12.3281 15.5 12 15.1719 12 14.75V12.5H9.75C9.32812 12.5 9 12.1719 9 11.75V10.25C9 9.875 9.32812 9.5 9.75 9.5H12V7.25Z" fill="#32C28F"/>
</svg>
