<svg width="25" height="33" viewBox="0 0 25 33" fill="none" xmlns="http://www.w3.org/2000/svg">
<path d="M3.5 3.38672V5.38672H21.5V3.38672H3.5ZM2.5 0.386719H22.5C23.5625 0.386719 24.5 1.32422 24.5 2.38672V6.38672C24.5 7.51172 23.5625 8.38672 22.5 8.38672H2.5C1.375 8.38672 0.5 7.51172 0.5 6.38672V2.38672C0.5 1.32422 1.375 0.386719 2.5 0.386719ZM2.5 10.3867H5.5V28.3867C5.5 28.9492 5.9375 29.3867 6.5 29.3867H18.5C19 29.3867 19.5 28.9492 19.5 28.3867V10.3867H22.5V28.3867C22.5 30.6367 20.6875 32.3867 18.5 32.3867H6.5C4.25 32.3867 2.5 30.6367 2.5 28.3867V10.3867ZM10.8125 15.3867C10.8125 14.8867 11.25 14.3867 11.8125 14.3867H13.125C13.6875 14.3867 14.125 14.8867 14.125 15.3867V17.7617H16.5C17 17.7617 17.5 18.1992 17.5 18.7617V20.0742C17.5 20.6367 17 21.0742 16.5 21.0742H14.125V23.3867C14.125 23.9492 13.6875 24.3867 13.125 24.3867H11.8125C11.25 24.3867 10.8125 23.9492 10.8125 23.3867V21.0742H8.5C7.9375 21.0742 7.5 20.6367 7.5 20.0742V18.7617C7.5 18.1992 7.9375 17.7617 8.5 17.7617H10.8125V15.3867Z" fill="#481DBF"/>
</svg>
