<svg width="22" height="20" viewBox="0 0 22 20" fill="none" xmlns="http://www.w3.org/2000/svg">
<path d="M11 20C7.40625 20 4.125 18.125 2.32812 15C0.53125 11.9141 0.53125 8.125 2.32812 5C4.125 1.91406 7.40625 0 11 0C14.5547 0 17.8359 1.91406 19.6328 5C21.4297 8.125 21.4297 11.9141 19.6328 15C17.8359 18.125 14.5547 20 11 20ZM8.1875 9.0625C7.64062 9.0625 7.25 9.49219 7.25 10C7.25 10.5469 7.64062 10.9375 8.1875 10.9375H13.8125C14.3203 10.9375 14.75 10.5469 14.75 10C14.75 9.49219 14.3203 9.0625 13.8125 9.0625H8.1875Z" fill="#5DA5AC"/>
</svg>
