<svg width="22" height="23" viewBox="0 0 22 23" fill="none" xmlns="http://www.w3.org/2000/svg">
<path d="M19.6365 14.3379C19.615 14.3334 19.6 14.3149 19.6 14.293V8.46629C19.6 8.4443 19.615 8.42587 19.6365 8.42131C20.4729 8.24482 21.1017 7.50173 21.1017 6.6133C21.1017 5.59502 20.2721 4.76587 19.2543 4.76587C18.7091 4.76587 18.2192 5.00323 17.8823 5.38027C17.8677 5.39669 17.8441 5.40048 17.825 5.38944L12.7767 2.47522C12.7577 2.46422 12.7492 2.442 12.756 2.42112C13.1408 1.24286 12.2668 0 10.9991 0C9.74989 0 8.85292 1.22222 9.24488 2.42107C9.2517 2.44195 9.24325 2.46418 9.2242 2.47517L4.17584 5.38958C4.15684 5.40058 4.13336 5.39683 4.11868 5.38051C3.77922 5.00338 3.28924 4.76592 2.74386 4.76592C1.72612 4.76592 0.896484 5.59502 0.896484 6.61334C0.896484 7.50178 1.52797 8.24482 2.36447 8.42136C2.38597 8.42587 2.40095 8.44435 2.40095 8.46634V14.293C2.40095 14.315 2.38597 14.3334 2.36447 14.338C1.52797 14.5143 0.896484 15.2576 0.896484 16.1455C0.896484 17.1643 1.72616 17.9931 2.74386 17.9931C3.28919 17.9931 3.77917 17.7554 4.11868 17.3788C4.13336 17.3625 4.15679 17.3588 4.1758 17.3698L9.22424 20.2842C9.24325 20.2952 9.25175 20.3173 9.24493 20.3383C8.85296 21.5388 9.75095 22.7591 10.9991 22.7591C12.2659 22.7591 13.1409 21.5182 12.7561 20.3382C12.7493 20.3174 12.7578 20.2951 12.7768 20.2842L17.8251 17.3699C17.8441 17.3589 17.8677 17.3626 17.8823 17.379C18.2192 17.7555 18.7091 17.9932 19.2543 17.9932C20.2721 17.9932 21.1017 17.1644 21.1017 16.1455C21.1017 15.2575 20.4729 14.5142 19.6365 14.3379ZM18.9086 14.293C18.9086 14.3149 18.8937 14.3334 18.8721 14.3379C18.4823 14.42 18.1377 14.6257 17.8823 14.9121C17.8677 14.9285 17.8441 14.9323 17.825 14.9213L16.1741 13.9685C16.1512 13.9553 16.1222 13.9639 16.1102 13.9874C16.0199 14.164 15.9207 14.3353 15.8132 14.5008C15.7988 14.523 15.8058 14.5524 15.8288 14.5656L17.4767 15.5179C17.4957 15.5288 17.5042 15.551 17.4974 15.5719C17.3767 15.9432 17.3768 16.348 17.4974 16.7191C17.5042 16.74 17.4957 16.7622 17.4767 16.7731L12.4311 19.6872C12.4121 19.6982 12.3886 19.6944 12.374 19.6781C12.116 19.3917 11.7713 19.1861 11.3814 19.104C11.3599 19.0995 11.3449 19.081 11.3449 19.059V17.1544C11.3449 17.1282 11.3234 17.1075 11.2973 17.1085C11.2967 17.1085 11.2962 17.1085 11.2956 17.1085L10.7056 17.1086C10.705 17.1086 10.7045 17.1086 10.7039 17.1086C10.6778 17.1077 10.6563 17.1284 10.6563 17.1546V19.059C10.6563 19.081 10.6413 19.0994 10.6197 19.104C10.2273 19.186 9.88261 19.3915 9.62711 19.6778C9.61247 19.6943 9.5889 19.698 9.56985 19.6871L4.52164 16.7731C4.50263 16.7621 4.49408 16.7399 4.5009 16.7191C4.62157 16.3479 4.62162 15.9431 4.5009 15.5718C4.49413 15.5509 4.50263 15.5288 4.52164 15.5178L6.17024 14.5667C6.19319 14.5534 6.20024 14.524 6.1858 14.5018C6.07832 14.3364 5.97906 14.1651 5.88872 13.9885C5.87668 13.965 5.84773 13.9564 5.82484 13.9697L4.17584 14.9213C4.15684 14.9322 4.13336 14.9285 4.11872 14.9122C3.86077 14.6257 3.51608 14.42 3.12613 14.3378C3.10463 14.3333 3.08965 14.3148 3.08965 14.2928V8.46629C3.08965 8.4443 3.10458 8.42587 3.12608 8.42131C3.51608 8.33875 3.86082 8.13317 4.11872 7.8467C4.13341 7.83038 4.15684 7.82669 4.17584 7.83763L5.8246 8.78966C5.84754 8.80291 5.87644 8.79432 5.88848 8.7708C5.97882 8.59426 6.07799 8.42294 6.18551 8.25758C6.19996 8.23536 6.1929 8.20594 6.16996 8.19274L4.52159 7.24147C4.50258 7.23048 4.49408 7.2083 4.50085 7.18742C4.62152 6.81634 4.62157 6.41122 4.50085 6.03989C4.49408 6.01901 4.50258 5.99683 4.52159 5.98589L9.56985 3.07243C9.5889 3.06144 9.61242 3.06523 9.62711 3.08165C9.88261 3.36778 10.2273 3.57322 10.6197 3.6553C10.6413 3.65981 10.6563 3.67829 10.6563 3.70027V5.60438C10.6563 5.63064 10.6778 5.65123 10.7039 5.65032H10.7056L11.2956 5.65046H11.2973C11.3234 5.65142 11.3449 5.63074 11.3449 5.60453V3.70018C11.3449 3.67819 11.3599 3.65971 11.3814 3.6552C11.7714 3.57307 12.1161 3.36754 12.374 3.08136C12.3886 3.06509 12.4121 3.06139 12.4311 3.07234L17.4767 5.98589C17.4957 5.99683 17.5042 6.01906 17.4975 6.03989C17.3768 6.41122 17.3768 6.81634 17.4975 7.18742C17.5042 7.2083 17.4957 7.23048 17.4768 7.24147L15.829 8.19384C15.8061 8.20709 15.7991 8.23646 15.8135 8.25869C15.9209 8.4241 16.0201 8.59546 16.1104 8.77205C16.1224 8.79562 16.1514 8.80416 16.1743 8.79091L17.825 7.83778C17.8441 7.82678 17.8677 7.83053 17.8823 7.84699C18.1378 8.13331 18.4824 8.3388 18.8722 8.42136C18.8937 8.42592 18.9087 8.44435 18.9087 8.46634L18.9086 14.293ZM10.9991 6.23726C8.15912 6.23726 5.85685 8.53954 5.85685 11.3795C5.85685 14.2195 8.15912 16.5217 10.9991 16.5217C13.8391 16.5217 16.1413 14.2195 16.1413 11.3795C16.1413 8.53954 13.8391 6.23726 10.9991 6.23726ZM13.2365 10.5803L10.0845 15.0256C10.0586 15.0621 10.001 15.0437 10.001 14.999V11.7167C10.001 11.6914 9.98034 11.6707 9.955 11.6707H8.79925C8.76186 11.6707 8.74012 11.6286 8.76172 11.5981L11.5021 7.73333C11.528 7.69685 11.5856 7.71523 11.5856 7.75992V10.4617C11.5856 10.487 11.6062 10.5077 11.6316 10.5077H13.1989C13.2363 10.5078 13.2581 10.5498 13.2365 10.5803Z" fill="#011445"/>
</svg>
