<svg width="41" height="42" viewBox="0 0 41 42" fill="none" xmlns="http://www.w3.org/2000/svg">
<path d="M36.917 21C36.917 15.2188 33.792 9.90625 28.792 6.9375C23.7139 4.04688 17.542 4.04688 12.542 6.9375C7.46387 9.90625 4.41699 15.2188 4.41699 21C4.41699 26.8594 7.46387 32.1719 12.542 35.1406C17.542 38.0312 23.7139 38.0312 28.792 35.1406C33.792 32.1719 36.917 26.8594 36.917 21ZM0.666992 21C0.666992 13.8906 4.41699 7.32812 10.667 3.73438C16.8389 0.140625 24.417 0.140625 30.667 3.73438C36.8389 7.32812 40.667 13.8906 40.667 21C40.667 28.1875 36.8389 34.75 30.667 38.3438C24.417 41.9375 16.8389 41.9375 10.667 38.3438C4.41699 34.75 0.666992 28.1875 0.666992 21ZM22.2295 11.4688V12.5625C23.0107 12.6406 23.792 12.875 24.4951 13.1094C24.6514 13.1094 24.8076 13.1875 24.9639 13.1875C25.8232 13.5 26.3701 14.4375 26.1357 15.2969C25.9014 16.2344 24.9639 16.7031 24.0264 16.4688C23.9482 16.4688 23.792 16.3906 23.7139 16.3906C23.167 16.2344 22.6201 16.0781 22.0732 16C20.9795 15.7656 19.8076 15.8438 18.8701 16.3125C18.0107 16.625 17.3076 17.5625 18.2451 18.1875C19.0264 18.6562 19.9639 18.8906 20.8232 19.2031C21.0576 19.2031 21.2139 19.2812 21.3701 19.2812C22.6201 19.6719 24.1826 20.1406 25.3545 20.9219C26.8389 21.9375 27.542 23.6562 27.2295 25.4531C26.917 27.1719 25.667 28.3438 24.2607 28.9688C23.6357 29.2031 22.9326 29.3594 22.2295 29.4375V30.6094C22.2295 31.5469 21.5264 32.3281 20.5889 32.3281C19.6514 32.3281 18.8701 31.5469 18.8701 30.6094V29.2812C17.7764 28.9688 16.6826 28.6562 15.5107 28.2656C14.6514 27.9531 14.1826 27.0156 14.4951 26.1562C14.8076 25.2188 15.7451 24.75 16.6045 25.0625C16.8389 25.1406 16.9951 25.2188 17.2295 25.2969C18.0889 25.5312 18.9482 25.8438 19.8857 26C21.2139 26.2344 22.3076 26.0781 23.0107 25.8438C23.9482 25.4531 24.3389 24.2812 23.4014 23.6562C22.6201 23.1875 21.6826 22.875 20.7451 22.6406C20.5889 22.5625 20.3545 22.5625 20.1982 22.4844C19.0264 22.1719 17.542 21.7031 16.4482 21C14.8857 20.0625 14.1826 18.4219 14.4951 16.625C14.8076 14.9062 16.1357 13.8125 17.542 13.1875C17.9326 12.9531 18.4014 12.875 18.8701 12.7188V11.4688C18.8701 10.5312 19.6514 9.75 20.5889 9.75C21.5264 9.75 22.2295 10.5312 22.2295 11.4688Z" fill="white"/>
</svg>
