<svg width="40" height="42" viewBox="0 0 40 42" fill="none" xmlns="http://www.w3.org/2000/svg">
<path d="M36.25 21C36.25 15.2188 33.125 9.90625 28.125 6.9375C23.0469 4.04688 16.875 4.04688 11.875 6.9375C6.79688 9.90625 3.75 15.2188 3.75 21C3.75 26.8594 6.79688 32.1719 11.875 35.1406C16.875 38.0312 23.0469 38.0312 28.125 35.1406C33.125 32.1719 36.25 26.8594 36.25 21ZM0 21C0 13.8906 3.75 7.32812 10 3.73438C16.1719 0.140625 23.75 0.140625 30 3.73438C36.1719 7.32812 40 13.8906 40 21C40 28.1875 36.1719 34.75 30 38.3438C23.75 41.9375 16.1719 41.9375 10 38.3438C3.75 34.75 0 28.1875 0 21ZM21.5625 11.4688V12.5625C22.3438 12.6406 23.125 12.875 23.8281 13.1094C23.9844 13.1094 24.1406 13.1875 24.2969 13.1875C25.1562 13.5 25.7031 14.4375 25.4688 15.2969C25.2344 16.2344 24.2969 16.7031 23.3594 16.4688C23.2812 16.4688 23.125 16.3906 23.0469 16.3906C22.5 16.2344 21.9531 16.0781 21.4062 16C20.3125 15.7656 19.1406 15.8438 18.2031 16.3125C17.3438 16.625 16.6406 17.5625 17.5781 18.1875C18.3594 18.6562 19.2969 18.8906 20.1562 19.2031C20.3906 19.2031 20.5469 19.2812 20.7031 19.2812C21.9531 19.6719 23.5156 20.1406 24.6875 20.9219C26.1719 21.9375 26.875 23.6562 26.5625 25.4531C26.25 27.1719 25 28.3438 23.5938 28.9688C22.9688 29.2031 22.2656 29.3594 21.5625 29.4375V30.6094C21.5625 31.5469 20.8594 32.3281 19.9219 32.3281C18.9844 32.3281 18.2031 31.5469 18.2031 30.6094V29.2812C17.1094 28.9688 16.0156 28.6562 14.8438 28.2656C13.9844 27.9531 13.5156 27.0156 13.8281 26.1562C14.1406 25.2188 15.0781 24.75 15.9375 25.0625C16.1719 25.1406 16.3281 25.2188 16.5625 25.2969C17.4219 25.5312 18.2812 25.8438 19.2188 26C20.5469 26.2344 21.6406 26.0781 22.3438 25.8438C23.2812 25.4531 23.6719 24.2812 22.7344 23.6562C21.9531 23.1875 21.0156 22.875 20.0781 22.6406C19.9219 22.5625 19.6875 22.5625 19.5312 22.4844C18.3594 22.1719 16.875 21.7031 15.7812 21C14.2188 20.0625 13.5156 18.4219 13.8281 16.625C14.1406 14.9062 15.4688 13.8125 16.875 13.1875C17.2656 12.9531 17.7344 12.875 18.2031 12.7188V11.4688C18.2031 10.5312 18.9844 9.75 19.9219 9.75C20.8594 9.75 21.5625 10.5312 21.5625 11.4688Z" fill="#186491"/>
</svg>
