<svg width="15" height="22" viewBox="0 0 15 22" fill="none" xmlns="http://www.w3.org/2000/svg">
<path d="M2.5 1.46533H8.75V6.46533C8.75 7.16846 9.29688 7.71533 10 7.71533H15V18.9653C15 20.3716 13.8672 21.4653 12.5 21.4653H2.5C1.09375 21.4653 0 20.3716 0 18.9653V3.96533C0 2.59814 1.09375 1.46533 2.5 1.46533ZM10 1.46533L15 6.46533H10V1.46533ZM2.5 4.59033C2.5 4.94189 2.77344 5.21533 3.125 5.21533H5.625C5.9375 5.21533 6.25 4.94189 6.25 4.59033C6.25 4.27783 5.9375 3.96533 5.625 3.96533H3.125C2.77344 3.96533 2.5 4.27783 2.5 4.59033ZM2.5 7.09033C2.5 7.44189 2.77344 7.71533 3.125 7.71533H5.625C5.9375 7.71533 6.25 7.44189 6.25 7.09033C6.25 6.77783 5.9375 6.46533 5.625 6.46533H3.125C2.77344 6.46533 2.5 6.77783 2.5 7.09033ZM7.5 9.90283C7.14844 9.90283 6.875 10.2153 6.875 10.5278V11.231C6.52344 11.27 6.21094 11.3872 5.89844 11.5435C5.39062 11.856 5 12.3638 5 13.145C5 13.8481 5.39062 14.3169 5.85938 14.5903C6.28906 14.8638 6.79688 15.02 7.22656 15.1372H7.30469C7.77344 15.2935 8.16406 15.4106 8.4375 15.606C8.67188 15.7231 8.71094 15.8794 8.71094 16.0356C8.75 16.3091 8.63281 16.4653 8.4375 16.5825C8.20312 16.7388 7.85156 16.8169 7.5 16.7778C7.03125 16.7778 6.60156 16.6216 6.09375 16.4653C5.97656 16.4263 5.89844 16.3872 5.82031 16.3481C5.46875 16.27 5.11719 16.4263 5 16.7388C4.92188 17.0903 5.07812 17.4419 5.39062 17.5591C5.46875 17.5591 5.58594 17.5981 5.66406 17.6372C6.01562 17.7544 6.40625 17.9106 6.875 17.9888V18.6528C6.875 19.0044 7.14844 19.2778 7.5 19.2778C7.8125 19.2778 8.125 19.0044 8.125 18.6528V17.9888C8.4375 17.9497 8.78906 17.8325 9.10156 17.6372C9.60938 17.3247 10 16.7778 10 16.0356C9.96094 15.2935 9.57031 14.8247 9.10156 14.5122C8.67188 14.2388 8.125 14.0825 7.69531 13.9653H7.65625C7.14844 13.8091 6.79688 13.6919 6.52344 13.5356C6.28906 13.3794 6.25 13.2622 6.25 13.145C6.25 12.9106 6.32812 12.7544 6.5625 12.6372C6.79688 12.481 7.14844 12.4028 7.46094 12.4028C7.85156 12.4419 8.28125 12.52 8.71094 12.6372C9.0625 12.7153 9.41406 12.52 9.49219 12.1685C9.57031 11.856 9.375 11.5044 9.0625 11.4263C8.75 11.3481 8.4375 11.27 8.125 11.231V10.5278C8.125 10.2153 7.8125 9.90283 7.5 9.90283Z" fill="#4D5B7D"/>
</svg>
