<svg width="41" height="42" viewBox="0 0 41 42" fill="none" xmlns="http://www.w3.org/2000/svg">
<path d="M36.9167 21C36.9167 15.2188 33.7917 9.90625 28.7917 6.9375C23.7136 4.04688 17.5417 4.04688 12.5417 6.9375C7.46362 9.90625 4.41675 15.2188 4.41675 21C4.41675 26.8594 7.46362 32.1719 12.5417 35.1406C17.5417 38.0312 23.7136 38.0312 28.7917 35.1406C33.7917 32.1719 36.9167 26.8594 36.9167 21ZM0.666748 21C0.666748 13.8906 4.41675 7.32812 10.6667 3.73438C16.8386 0.140625 24.4167 0.140625 30.6667 3.73438C36.8386 7.32812 40.6667 13.8906 40.6667 21C40.6667 28.1875 36.8386 34.75 30.6667 38.3438C24.4167 41.9375 16.8386 41.9375 10.6667 38.3438C4.41675 34.75 0.666748 28.1875 0.666748 21ZM22.2292 11.4688V12.5625C23.0105 12.6406 23.7917 12.875 24.4949 13.1094C24.6511 13.1094 24.8074 13.1875 24.9636 13.1875C25.823 13.5 26.3699 14.4375 26.1355 15.2969C25.9011 16.2344 24.9636 16.7031 24.0261 16.4688C23.948 16.4688 23.7917 16.3906 23.7136 16.3906C23.1667 16.2344 22.6199 16.0781 22.073 16C20.9792 15.7656 19.8074 15.8438 18.8699 16.3125C18.0105 16.625 17.3074 17.5625 18.2449 18.1875C19.0261 18.6562 19.9636 18.8906 20.823 19.2031C21.0574 19.2031 21.2136 19.2812 21.3699 19.2812C22.6199 19.6719 24.1824 20.1406 25.3542 20.9219C26.8386 21.9375 27.5417 23.6562 27.2292 25.4531C26.9167 27.1719 25.6667 28.3438 24.2605 28.9688C23.6355 29.2031 22.9324 29.3594 22.2292 29.4375V30.6094C22.2292 31.5469 21.5261 32.3281 20.5886 32.3281C19.6511 32.3281 18.8699 31.5469 18.8699 30.6094V29.2812C17.7761 28.9688 16.6824 28.6562 15.5105 28.2656C14.6511 27.9531 14.1824 27.0156 14.4949 26.1562C14.8074 25.2188 15.7449 24.75 16.6042 25.0625C16.8386 25.1406 16.9949 25.2188 17.2292 25.2969C18.0886 25.5312 18.948 25.8438 19.8855 26C21.2136 26.2344 22.3074 26.0781 23.0105 25.8438C23.948 25.4531 24.3386 24.2812 23.4011 23.6562C22.6199 23.1875 21.6824 22.875 20.7449 22.6406C20.5886 22.5625 20.3542 22.5625 20.198 22.4844C19.0261 22.1719 17.5417 21.7031 16.448 21C14.8855 20.0625 14.1824 18.4219 14.4949 16.625C14.8074 14.9062 16.1355 13.8125 17.5417 13.1875C17.9324 12.9531 18.4011 12.875 18.8699 12.7188V11.4688C18.8699 10.5312 19.6511 9.75 20.5886 9.75C21.5261 9.75 22.2292 10.5312 22.2292 11.4688Z" fill="#AA25ED"/>
</svg>
