<svg width="31" height="25" viewBox="0 0 31 25" fill="none" xmlns="http://www.w3.org/2000/svg">
<path d="M16.295 1.125V1.64062C16.5763 1.6875 16.8575 1.78125 17.1388 1.82812C17.7482 2.01562 18.0763 2.625 17.9357 3.23438C17.795 3.79688 17.1388 4.17188 16.5763 4.03125C16.0607 3.89062 15.545 3.79688 15.1232 3.79688C14.795 3.75 14.4669 3.84375 14.2325 3.98438C14.1388 4.03125 14.0919 4.07812 14.045 4.125C14.045 4.125 14.045 4.17188 14.045 4.26562C14.045 4.3125 14.0919 4.3125 14.1857 4.40625C14.4669 4.54688 14.8888 4.6875 15.4513 4.875H15.4982C16.0138 5.0625 16.7169 5.25 17.2794 5.625C17.9357 6 18.4982 6.70312 18.545 7.73438C18.545 8.76562 17.9825 9.5625 17.2794 9.98438C16.9513 10.1719 16.6232 10.3125 16.295 10.4062V10.875C16.295 11.5312 15.7794 12 15.17 12C14.5138 12 14.045 11.5312 14.045 10.875V10.3594C13.5763 10.2656 13.1544 10.125 12.8263 9.98438C12.7325 9.9375 12.6388 9.9375 12.545 9.89062C11.9357 9.70312 11.6544 9.04688 11.8419 8.48438C12.0294 7.875 12.6857 7.54688 13.2482 7.73438C13.3888 7.78125 13.4825 7.82812 13.6232 7.875C14.2325 8.10938 14.7013 8.25 15.17 8.25C15.545 8.29688 15.92 8.20312 16.1075 8.0625C16.2013 8.01562 16.2013 7.96875 16.2482 7.92188C16.2482 7.92188 16.295 7.82812 16.295 7.73438C16.295 7.6875 16.295 7.64062 16.1075 7.5C15.8263 7.35938 15.4044 7.21875 14.8419 7.03125L14.7482 6.98438C14.2325 6.84375 13.5763 6.65625 13.0138 6.32812C12.4044 5.95312 11.795 5.29688 11.795 4.26562C11.7482 3.1875 12.3575 2.4375 13.0607 2.0625C13.3888 1.875 13.7169 1.73438 14.045 1.64062V1.125C14.045 0.515625 14.5138 0 15.17 0C15.7794 0 16.295 0.515625 16.295 1.125ZM6.92004 6.375H6.87317V12.4219C7.43567 11.9531 8.18567 11.625 9.02942 11.625C9.87317 11.625 10.7169 12 11.3263 12.6094L14.1857 15.4688C14.5607 15.8438 14.8888 16.2188 15.1232 16.6406C15.4044 16.2188 15.7325 15.8438 16.1075 15.4688L18.9669 12.6094C19.5763 12 20.42 11.625 21.2638 11.625C22.0607 11.625 22.8107 11.9531 23.3732 12.4219V6.375C23.3732 4.54688 24.92 3 26.7482 3C28.6232 3 30.1232 4.54688 30.1232 6.375V16.5469C30.1232 18 29.5607 19.4531 28.4825 20.4844L25.295 23.6719C24.8732 24.1406 24.17 24.1406 23.7482 23.6719C23.2794 23.25 23.2794 22.5469 23.7482 22.0781L26.8888 18.9375C27.545 18.2812 27.8732 17.4375 27.8732 16.5469V6.375C27.8732 5.76562 27.4044 5.25 26.7482 5.25C26.1388 5.25 25.6232 5.76562 25.6232 6.375V13.2188C25.6232 14.4375 25.1544 15.6094 24.3107 16.4531L23.5607 17.2031L22.295 18.4219L21.545 19.1719C21.1232 19.6406 20.42 19.6406 19.9982 19.1719C19.5294 18.75 19.5294 18.0469 19.9982 17.5781L20.7482 16.8281L21.9669 15.6094C22.1544 15.4219 22.295 15.1406 22.295 14.9062C22.295 14.3438 21.8263 13.875 21.2638 13.875C21.0294 13.875 20.7482 14.0156 20.5607 14.2031L17.7013 17.0625C16.7638 17.9531 16.295 19.2188 16.295 20.4844V22.875C16.295 23.5312 15.7794 24 15.17 24C14.5138 24 14.045 23.5312 14.045 22.875V20.4844C14.045 19.2188 13.5294 17.9531 12.5919 17.0625L9.73254 14.2031C9.54504 14.0156 9.26379 13.9219 9.02942 13.9219C8.46692 13.9219 8.04504 14.3438 8.04504 14.9062C8.04504 15.1406 8.13879 15.4219 8.32629 15.6094L9.54504 16.875L10.295 17.625C10.7638 18.0469 10.7638 18.75 10.295 19.1719C9.87317 19.6406 9.17004 19.6406 8.74817 19.1719L7.99817 18.4219L6.73254 17.2031L5.98254 16.4531C5.13879 15.6094 4.67004 14.4375 4.67004 13.2188V6.375C4.67004 5.76562 4.15442 5.25 3.54504 5.25C2.88879 5.25 2.42004 5.76562 2.42004 6.375V16.5469C2.42004 17.4375 2.74817 18.2812 3.40442 18.9375L6.54504 22.125C7.01379 22.5469 7.01379 23.25 6.54504 23.6719C6.12317 24.1406 5.42004 24.1406 4.99817 23.6719L1.81067 20.5312C0.732544 19.4531 0.170044 18 0.170044 16.5469V6.375C0.170044 4.54688 1.67004 3 3.54504 3C5.37317 3 6.92004 4.54688 6.92004 6.375Z" fill="#186491"/>
</svg>
