<svg width="45" height="49" viewBox="0 0 45 49" fill="none" xmlns="http://www.w3.org/2000/svg">
<rect width="45" height="49" rx="4" fill="#1A2C58"/>
<path d="M12 16.625C12 16.0156 12.4688 15.5 13.125 15.5H31.875C32.4844 15.5 33 16.0156 33 16.625C33 17.2812 32.4844 17.75 31.875 17.75H13.125C12.4688 17.75 12 17.2812 12 16.625ZM12 24.125C12 23.5156 12.4688 23 13.125 23H31.875C32.4844 23 33 23.5156 33 24.125C33 24.7812 32.4844 25.25 31.875 25.25H13.125C12.4688 25.25 12 24.7812 12 24.125ZM33 31.625C33 32.2812 32.4844 32.75 31.875 32.75H13.125C12.4688 32.75 12 32.2812 12 31.625C12 31.0156 12.4688 30.5 13.125 30.5H31.875C32.4844 30.5 33 31.0156 33 31.625Z" fill="white"/>
</svg>
