<svg width="21" height="21" viewBox="0 0 21 21" fill="none" xmlns="http://www.w3.org/2000/svg">
<path d="M4.5 4.70232C4.5 3.33513 5.59375 2.20232 7 2.20232H18.25C19.6172 2.20232 20.75 3.33513 20.75 4.70232V17.2023C20.75 18.6086 19.6172 19.7023 18.25 19.7023H3.875C2.11719 19.7023 0.75 18.3351 0.75 16.5773V5.95232C0.75 5.28825 1.29688 4.70232 2 4.70232C2.66406 4.70232 3.25 5.28825 3.25 5.95232V16.5773C3.25 16.9289 3.52344 17.2023 3.875 17.2023C4.1875 17.2023 4.5 16.9289 4.5 16.5773V4.70232ZM7 5.63982V8.76482C7 9.31169 7.39062 9.70232 7.9375 9.70232H12.3125C12.8203 9.70232 13.25 9.31169 13.25 8.76482V5.63982C13.25 5.132 12.8203 4.70232 12.3125 4.70232H7.9375C7.39062 4.70232 7 5.132 7 5.63982ZM15.125 5.32732C15.125 5.67888 15.3984 5.95232 15.75 5.95232H17.625C17.9375 5.95232 18.25 5.67888 18.25 5.32732C18.25 5.01482 17.9375 4.70232 17.625 4.70232H15.75C15.3984 4.70232 15.125 5.01482 15.125 5.32732ZM15.125 9.07732C15.125 9.42888 15.3984 9.70232 15.75 9.70232H17.625C17.9375 9.70232 18.25 9.42888 18.25 9.07732C18.25 8.76482 17.9375 8.45232 17.625 8.45232H15.75C15.3984 8.45232 15.125 8.76482 15.125 9.07732ZM7 12.8273C7 13.1789 7.27344 13.4523 7.625 13.4523H17.625C17.9375 13.4523 18.25 13.1789 18.25 12.8273C18.25 12.5148 17.9375 12.2023 17.625 12.2023H7.625C7.27344 12.2023 7 12.5148 7 12.8273ZM7 16.5773C7 16.9289 7.27344 17.2023 7.625 17.2023H17.625C17.9375 17.2023 18.25 16.9289 18.25 16.5773C18.25 16.2648 17.9375 15.9523 17.625 15.9523H7.625C7.27344 15.9523 7 16.2648 7 16.5773Z" fill="#AA25ED"/>
</svg>
