<svg width="16" height="15" viewBox="0 0 16 15" fill="none" xmlns="http://www.w3.org/2000/svg">
<path d="M5.25 1.95789C4.8125 1.95789 4.5 2.30164 4.5 2.70789V12.2079C4.5 12.4891 4.4375 12.7391 4.34375 12.9579H13.75C14.1562 12.9579 14.5 12.6454 14.5 12.2079V2.70789C14.5 2.30164 14.1562 1.95789 13.75 1.95789H5.25ZM2.25 14.4579C1 14.4579 0 13.4579 0 12.2079V2.95789C0 2.55164 0.3125 2.20789 0.75 2.20789C1.15625 2.20789 1.5 2.55164 1.5 2.95789V12.2079C1.5 12.6454 1.8125 12.9579 2.25 12.9579C2.65625 12.9579 3 12.6454 3 12.2079V2.70789C3 1.48914 4 0.457886 5.25 0.457886H13.75C14.9688 0.457886 16 1.48914 16 2.70789V12.2079C16 13.4579 14.9688 14.4579 13.75 14.4579H2.25ZM5.5 3.70789C5.5 3.30164 5.8125 2.95789 6.25 2.95789H9.25C9.65625 2.95789 10 3.30164 10 3.70789V6.20789C10 6.64539 9.65625 6.95789 9.25 6.95789H6.25C5.8125 6.95789 5.5 6.64539 5.5 6.20789V3.70789ZM11.75 2.95789H12.75C13.1562 2.95789 13.5 3.30164 13.5 3.70789C13.5 4.14539 13.1562 4.45789 12.75 4.45789H11.75C11.3125 4.45789 11 4.14539 11 3.70789C11 3.30164 11.3125 2.95789 11.75 2.95789ZM11.75 5.45789H12.75C13.1562 5.45789 13.5 5.80164 13.5 6.20789C13.5 6.64539 13.1562 6.95789 12.75 6.95789H11.75C11.3125 6.95789 11 6.64539 11 6.20789C11 5.80164 11.3125 5.45789 11.75 5.45789ZM6.25 7.95789H12.75C13.1562 7.95789 13.5 8.30164 13.5 8.70789C13.5 9.14539 13.1562 9.45789 12.75 9.45789H6.25C5.8125 9.45789 5.5 9.14539 5.5 8.70789C5.5 8.30164 5.8125 7.95789 6.25 7.95789ZM6.25 10.4579H12.75C13.1562 10.4579 13.5 10.8016 13.5 11.2079C13.5 11.6454 13.1562 11.9579 12.75 11.9579H6.25C5.8125 11.9579 5.5 11.6454 5.5 11.2079C5.5 10.8016 5.8125 10.4579 6.25 10.4579Z" fill="#011445"/>
</svg>
