<svg width="28" height="22" viewBox="0 0 28 22" fill="none" xmlns="http://www.w3.org/2000/svg">
<path d="M5.25 2.75C3.5625 2.75 2.25 4.10938 2.25 5.75V11H8.25V5.75C8.25 4.10938 6.89062 2.75 5.25 2.75ZM0 5.75C0 2.89062 2.34375 0.5 5.25 0.5C8.10938 0.5 10.5 2.89062 10.5 5.75V16.25C10.5 19.1562 8.10938 21.5 5.25 21.5C2.34375 21.5 0 19.1562 0 16.25V5.75ZM19.5 19.25C20.5312 19.25 21.5156 18.9688 22.3125 18.4531L15.0469 11.1875C14.5312 11.9844 14.25 12.9688 14.25 14C14.25 16.9062 16.5938 19.25 19.5 19.25ZM16.6406 9.59375L23.9062 16.8594C24.4219 16.0156 24.75 15.0781 24.75 14C24.75 11.1406 22.3594 8.75 19.5 8.75C18.4219 8.75 17.4844 9.07812 16.6406 9.59375ZM19.5 21.5C16.7812 21.5 14.3438 20.0938 12.9844 17.75C11.625 15.4531 11.625 12.5938 12.9844 10.25C14.3438 7.95312 16.7812 6.5 19.5 6.5C22.1719 6.5 24.6094 7.95312 25.9688 10.25C27.3281 12.5938 27.3281 15.4531 25.9688 17.75C24.6094 20.0938 22.1719 21.5 19.5 21.5Z" fill="#6337E1"/>
</svg>
