<svg width="222" height="35" viewBox="0 0 222 35" fill="none" xmlns="http://www.w3.org/2000/svg">
<path d="M0.0131836 7.21031C0.0131836 5.01958 1.78912 3.24364 3.97985 3.24364H30.0465C32.2372 3.24364 34.0132 5.01958 34.0132 7.21031C34.0132 9.40104 32.2372 11.177 30.0465 11.177H3.97985C1.78912 11.177 0.0131836 9.40104 0.0131836 7.21031Z" fill="white"/>
<path d="M6.62429 17.7881C6.62429 15.5974 8.40023 13.8214 10.591 13.8214H23.4354C25.6261 13.8214 27.4021 15.5974 27.4021 17.7881C27.4021 19.9788 25.6261 21.7548 23.4354 21.7548H10.591C8.40023 21.7548 6.62429 19.9788 6.62429 17.7881Z" fill="white"/>
<path d="M11.3465 28.3659C11.3465 26.1751 13.1225 24.3992 15.3132 24.3992H18.7132C20.9039 24.3992 22.6798 26.1751 22.6798 28.3659C22.6798 30.5566 20.9039 32.3325 18.7132 32.3325H15.3132C13.1225 32.3325 11.3465 30.5566 11.3465 28.3659Z" fill="white"/>
<path d="M55.8881 34.7881C53.6517 34.7881 51.5814 34.3801 49.6774 33.5641C47.8037 32.7481 46.1565 31.6148 44.7361 30.1641C43.3459 28.6832 42.2579 26.9605 41.4721 24.9961C40.7165 23.0014 40.3388 20.8254 40.3388 18.4681C40.3388 16.1108 40.7165 13.9499 41.4721 11.9854C42.2579 9.99075 43.3459 8.26809 44.7361 6.81742C46.1565 5.33653 47.8037 4.18809 49.6774 3.37208C51.5814 2.55608 53.6517 2.14808 55.8881 2.14808C58.1245 2.14808 60.1796 2.55608 62.0534 3.37208C63.9574 4.18809 65.6045 5.33653 66.9948 6.81742C68.4152 8.29831 69.5032 10.0361 70.2588 12.0308C71.0445 13.9952 71.4374 16.141 71.4374 18.4681C71.4374 20.7952 71.0445 22.9561 70.2588 24.9508C69.5032 26.9152 68.4152 28.6379 66.9948 30.1188C65.6045 31.5996 63.9574 32.7481 62.0534 33.5641C60.1796 34.3801 58.1245 34.7881 55.8881 34.7881ZM55.8881 30.0281C57.4294 30.0281 58.8348 29.741 60.1041 29.1668C61.4037 28.5925 62.5219 27.7916 63.4588 26.7641C64.3957 25.7063 65.121 24.4823 65.6348 23.0921C66.1788 21.6716 66.4508 20.1303 66.4508 18.4681C66.4508 16.8059 66.1788 15.2796 65.6348 13.8894C65.121 12.469 64.3957 11.245 63.4588 10.2174C62.5219 9.15964 61.4037 8.34364 60.1041 7.76942C58.8348 7.1952 57.4294 6.90809 55.8881 6.90809C54.3468 6.90809 52.9263 7.1952 51.6268 7.76942C50.3574 8.34364 49.2392 9.14453 48.2721 10.1721C47.3352 11.1996 46.6099 12.4236 46.0961 13.8441C45.5823 15.2343 45.3254 16.7756 45.3254 18.4681C45.3254 20.1303 45.5823 21.6716 46.0961 23.0921C46.6099 24.5125 47.3352 25.7365 48.2721 26.7641C49.2392 27.7916 50.3574 28.5925 51.6268 29.1668C52.9263 29.741 54.3468 30.0281 55.8881 30.0281Z" fill="white"/>
<path d="M76.5553 34.3348C75.9043 34.3348 75.3766 33.807 75.3766 33.1561V12.0459C75.3766 11.2113 76.0531 10.5348 76.8877 10.5348H78.5348C79.3694 10.5348 80.0459 11.2113 80.0459 12.0459V15.2695C80.0459 15.3703 79.9956 15.4643 79.9118 15.5202C79.6786 15.6756 79.3951 15.4611 79.5078 15.2045C79.8421 14.4428 80.3388 13.7325 80.9979 13.0734C81.8744 12.1668 82.917 11.4414 84.1259 10.8974C85.3348 10.3232 86.5739 10.0361 87.8433 10.0361C89.6566 10.0361 91.1677 10.3988 92.3766 11.1241C93.5855 11.8192 94.4921 12.8921 95.0966 14.3428C95.701 15.7934 96.0033 17.6219 96.0033 19.8281V32.8236C96.0033 33.6582 95.3267 34.3348 94.4921 34.3348H92.845C92.0105 34.3348 91.3339 33.6582 91.3339 32.8236V20.1454C91.3339 18.7854 91.1526 17.6672 90.7899 16.7908C90.4273 15.8841 89.8681 15.2343 89.1126 14.8414C88.357 14.4183 87.4201 14.237 86.3019 14.2974C85.3953 14.2974 84.5641 14.4485 83.8086 14.7508C83.053 15.0228 82.3881 15.4156 81.8139 15.9294C81.2699 16.4432 80.8317 17.0476 80.4993 17.7428C80.197 18.4076 80.0459 19.133 80.0459 19.9188V32.8236C80.0459 33.6582 79.3694 34.3348 78.5348 34.3348H77.7339C77.341 34.3348 76.9482 34.3348 76.5553 34.3348Z" fill="white"/>
<path d="M111.933 34.7881C109.485 34.7881 107.309 34.2743 105.405 33.2468C103.531 32.189 102.05 30.7534 100.962 28.9401C99.9046 27.1268 99.3757 25.0414 99.3757 22.6841C99.3757 20.8103 99.678 19.1028 100.282 17.5614C100.887 16.0201 101.718 14.6903 102.776 13.5721C103.864 12.4236 105.148 11.5472 106.629 10.9428C108.14 10.3081 109.772 9.99075 111.525 9.99075C113.066 9.99075 114.502 10.293 115.832 10.8974C117.162 11.4716 118.31 12.2725 119.277 13.3001C120.274 14.3276 121.03 15.5516 121.544 16.9721C122.088 18.3623 122.345 19.8885 122.314 21.5508L122.303 22.0686C122.284 22.8896 121.613 23.5454 120.792 23.5454H103.967C103.289 23.5454 102.695 23.0946 102.512 22.4424L102.317 21.7473C102.046 20.7836 102.771 19.8281 103.772 19.8281H117.766C117.948 19.8281 118.045 20.0429 117.924 20.1794C117.796 20.3255 117.554 20.2343 117.554 20.0395V19.5107C117.464 18.5134 117.131 17.6219 116.557 16.8361C115.983 16.0503 115.258 15.4308 114.381 14.9774C113.505 14.5241 112.553 14.2974 111.525 14.2974C109.893 14.2974 108.518 14.6148 107.4 15.2494C106.282 15.8539 105.435 16.7605 104.861 17.9694C104.287 19.1481 104 20.6139 104 22.3668C104 24.029 104.347 25.4796 105.042 26.7188C105.738 27.9276 106.72 28.8645 107.989 29.5294C109.258 30.1943 110.724 30.5268 112.386 30.5268C113.565 30.5268 114.653 30.3303 115.65 29.9374C116.288 29.6935 116.955 29.3273 117.651 28.8388C118.382 28.3259 119.409 28.4372 119.927 29.1645L120.575 30.0748C121.004 30.6759 120.941 31.5081 120.353 31.9538C119.841 32.3412 119.271 32.6967 118.642 33.0201C117.615 33.5641 116.512 34.0023 115.333 34.3348C114.185 34.637 113.051 34.7881 111.933 34.7881Z" fill="white"/>
<path d="M127.699 34.3348C126.864 34.3348 126.188 33.6582 126.188 32.8236V4.11253C126.188 3.27797 126.864 2.60142 127.699 2.60142H137.748C139.803 2.60142 141.722 2.99431 143.505 3.78009C145.288 4.56586 146.844 5.66898 148.174 7.08942C149.534 8.47964 150.592 10.1419 151.348 12.0761C152.133 14.0103 152.526 16.141 152.526 18.4681C152.526 20.765 152.133 22.8956 151.348 24.8601C150.592 26.7943 149.534 28.4716 148.174 29.8921C146.844 31.2823 145.288 32.3703 143.505 33.1561C141.722 33.9419 139.803 34.3348 137.748 34.3348H127.699ZM128.454 32.2716C128.454 32.4625 128.215 32.5483 128.094 32.4009C127.984 32.2682 128.079 32.0681 128.251 32.0681H137.521C139.244 32.0681 140.86 31.7356 142.372 31.0708C143.913 30.4059 145.258 29.469 146.406 28.2601C147.555 27.021 148.461 25.5854 149.126 23.9534C149.791 22.2912 150.124 20.4628 150.124 18.4681C150.124 16.4734 149.791 14.6601 149.126 13.0281C148.461 11.3659 147.555 9.93031 146.406 8.72142C145.258 7.48231 143.913 6.53031 142.372 5.86542C140.86 5.20053 139.244 4.86808 137.521 4.86808H128.243C128.048 4.86808 127.957 4.62698 128.103 4.49809C128.239 4.37762 128.454 4.47456 128.454 4.65664V32.2716Z" fill="white"/>
<path d="M166.365 34.7881C164.219 34.7881 162.3 34.2592 160.607 33.2014C158.915 32.1436 157.57 30.693 156.573 28.8494C155.605 27.0059 155.122 24.9054 155.122 22.5481C155.122 20.1605 155.621 18.045 156.618 16.2014C157.645 14.3579 159.005 12.9072 160.698 11.8494C162.39 10.7916 164.279 10.2628 166.365 10.2628C167.573 10.2628 168.722 10.4441 169.81 10.8067C170.898 11.1694 171.88 11.6832 172.757 12.3481C173.633 12.9828 174.389 13.7383 175.023 14.6148C175.48 15.246 175.843 15.9164 176.112 16.626C176.223 16.9187 175.902 17.1576 175.639 16.9871C175.538 16.9215 175.479 16.8078 175.484 16.6877L175.664 11.8285C175.686 11.2329 176.175 10.7614 176.771 10.7614C177.383 10.7614 177.879 11.2576 177.879 11.8696V33.2014C177.879 33.8273 177.372 34.3348 176.746 34.3348C176.12 34.3348 175.613 33.8273 175.613 33.2014V28.537C175.613 28.4755 175.635 28.416 175.676 28.3702C175.852 28.1733 176.142 28.3385 176.04 28.5825C175.78 29.2114 175.441 29.8142 175.023 30.3908C174.389 31.2672 173.633 32.0379 172.757 32.7027C171.88 33.3676 170.898 33.8814 169.81 34.2441C168.722 34.6068 167.573 34.7881 166.365 34.7881ZM166.682 32.5214C168.405 32.5214 169.946 32.0983 171.306 31.2521C172.696 30.3756 173.784 29.197 174.57 27.7161C175.386 26.205 175.794 24.4672 175.794 22.5028C175.794 20.5685 175.401 18.861 174.615 17.3801C173.829 15.869 172.741 14.6903 171.351 13.8441C169.991 12.9676 168.435 12.5294 166.682 12.5294C164.899 12.5294 163.312 12.9676 161.922 13.8441C160.562 14.6903 159.489 15.869 158.703 17.3801C157.917 18.861 157.525 20.5685 157.525 22.5028C157.525 24.4068 157.902 26.1143 158.658 27.6254C159.444 29.1365 160.517 30.3303 161.877 31.2068C163.267 32.0832 164.869 32.5214 166.682 32.5214Z" fill="white"/>
<path d="M190.667 34.7881C188.612 34.7881 186.784 34.3952 185.182 33.6094C183.968 32.9908 182.971 32.2767 182.19 31.4671C181.777 31.0382 181.856 30.3619 182.306 29.9714C182.807 29.5366 183.567 29.6251 184.041 30.0888C184.712 30.7452 185.5 31.2841 186.406 31.7054C187.706 32.2796 189.171 32.5668 190.803 32.5668C191.71 32.5668 192.541 32.4761 193.297 32.2948C194.052 32.0832 194.687 31.7961 195.201 31.4334C195.745 31.0708 196.168 30.6325 196.47 30.1188C196.772 29.5748 196.923 28.9703 196.923 28.3054C196.923 27.1268 196.364 26.1294 195.246 25.3134C194.732 24.9508 194.082 24.6183 193.297 24.3161C192.511 24.0139 191.589 23.7116 190.531 23.4094C188.93 22.9259 187.569 22.4725 186.451 22.0494C185.333 21.6263 184.441 21.0974 183.777 20.4628C183.293 19.949 182.93 19.405 182.689 18.8308C182.447 18.2263 182.326 17.5765 182.326 16.8814C182.326 15.9143 182.522 15.0379 182.915 14.2521C183.308 13.4361 183.867 12.7259 184.593 12.1214C185.318 11.517 186.164 11.0636 187.131 10.7614C188.098 10.429 189.171 10.2628 190.35 10.2628C191.468 10.2628 192.571 10.429 193.659 10.7614C194.747 11.0636 195.76 11.5019 196.697 12.0761C197.319 12.4576 197.888 12.8792 198.404 13.3408C198.842 13.733 198.839 14.4037 198.441 14.8367C197.991 15.3262 197.221 15.32 196.727 14.8749C196.372 14.5547 195.999 14.2565 195.609 13.9801C194.914 13.4663 194.143 13.0734 193.297 12.8014C192.45 12.4992 191.513 12.3481 190.486 12.3481C189.67 12.3481 188.899 12.4539 188.174 12.6654C187.479 12.877 186.874 13.1943 186.361 13.6174C185.847 14.0103 185.439 14.4788 185.137 15.0227C184.865 15.5365 184.729 16.1108 184.729 16.7454C184.729 17.229 184.819 17.6672 185.001 18.0601C185.182 18.4228 185.469 18.7703 185.862 19.1028C186.376 19.5259 187.056 19.8885 187.902 20.1908C188.778 20.493 189.851 20.8254 191.121 21.1881C192.269 21.4903 193.281 21.7925 194.158 22.0948C195.034 22.397 195.79 22.7596 196.425 23.1828C197.392 23.7872 198.102 24.4974 198.555 25.3134C199.039 26.1294 199.281 27.0663 199.281 28.1241C199.281 29.4236 198.918 30.5721 198.193 31.5694C197.467 32.5668 196.455 33.3525 195.155 33.9268C193.856 34.501 192.36 34.7881 190.667 34.7881Z" fill="white"/>
<path d="M203.626 34.3348C203.175 34.3348 202.81 33.9694 202.81 33.5187V1.92142C202.81 1.2955 203.317 0.788086 203.943 0.788086C204.569 0.788086 205.076 1.2955 205.076 1.92142V16.1541C205.076 16.185 205.068 16.2153 205.051 16.2414C204.953 16.3973 204.743 16.3044 204.805 16.1307C205.168 15.1059 205.712 14.2077 206.436 13.4361C207.373 12.4085 208.461 11.6228 209.7 11.0788C210.97 10.5348 212.239 10.2628 213.508 10.2628C215.322 10.2628 216.818 10.6103 217.996 11.3054C219.205 12.0005 220.097 13.0734 220.671 14.5241C221.245 15.9748 221.532 17.8183 221.532 20.0548V33.2014C221.532 33.8273 221.025 34.3348 220.399 34.3348C219.773 34.3348 219.266 33.8273 219.266 33.2014V20.1454C219.266 18.3925 219.039 16.957 218.586 15.8388C218.132 14.6903 217.437 13.8441 216.5 13.3001C215.594 12.7259 214.43 12.4388 213.01 12.4388C211.892 12.4388 210.849 12.6503 209.882 13.0734C208.915 13.4663 208.068 14.0103 207.343 14.7054C206.648 15.4005 206.089 16.2014 205.666 17.1081C205.273 17.9845 205.076 18.9214 205.076 19.9188V33.2014C205.076 33.8273 204.569 34.3348 203.943 34.3348C203.913 34.3348 203.807 34.3348 203.626 34.3348Z" fill="white"/>
</svg>
