<svg width="192" height="29" viewBox="0 0 192 29" fill="none" xmlns="http://www.w3.org/2000/svg">
<path d="M51.5303 28.3075C49.6751 28.3075 47.9545 27.974 46.3716 27.3057C44.7887 26.6373 43.403 25.7105 42.2147 24.5222C41.0523 23.3093 40.1484 21.887 39.5061 20.2536C38.8622 18.6202 38.541 16.8384 38.541 14.9098C38.541 12.9812 38.8622 11.1979 39.5061 9.56604C40.15 7.93263 41.0523 6.52251 42.2147 5.33569C43.403 4.12286 44.7871 3.1838 46.3716 2.51545C47.9545 1.8471 49.6751 1.51369 51.5303 1.51369C53.3855 1.51369 55.1428 1.8471 56.7257 2.51545C58.3087 3.1838 59.6821 4.12439 60.846 5.33569C62.0083 6.54851 62.9122 7.97087 63.5545 9.60428C64.1984 11.2132 64.5196 12.9812 64.5196 14.9113C64.5196 16.8414 64.1984 18.585 63.5545 20.2184C62.9107 21.8518 62.0083 23.2742 60.846 24.487C59.6836 25.6998 58.3102 26.6389 56.7257 27.3072C55.1428 27.9756 53.41 28.309 51.5303 28.309V28.3075ZM51.5303 23.7054C52.7171 23.7054 53.7938 23.4959 54.7589 23.0738C55.7484 22.6288 56.6018 22.0093 57.3191 21.2186C58.0364 20.4019 58.5931 19.4613 58.9893 18.3984C59.4098 17.3339 59.6209 16.1716 59.6209 14.9098C59.6209 13.648 59.4098 12.4857 58.9893 11.4212C58.5931 10.3568 58.0364 9.42993 57.3191 8.63769C56.6018 7.82098 55.7484 7.2031 54.7589 6.78251C53.7938 6.33745 52.7171 6.11416 51.5303 6.11416C50.3435 6.11416 49.2913 6.33745 48.3017 6.78251C47.3122 7.2031 46.4588 7.80875 45.7415 8.60099C45.0242 9.39322 44.4675 10.32 44.0714 11.3845C43.6753 12.449 43.478 13.6236 43.478 14.9098C43.478 16.196 43.6753 17.3477 44.0714 18.4351C44.4675 19.4996 45.0242 20.4264 45.7415 21.2186C46.4588 22.0109 47.3122 22.6288 48.3017 23.0738C49.2913 23.4944 50.368 23.7054 51.5303 23.7054Z" fill="white"/>
<path d="M68.8724 27.9357C68.2989 27.9357 67.8324 27.4707 67.8324 26.8972V9.6378C67.8324 8.94192 68.3967 8.37757 69.0926 8.37757H71.0472C71.7339 8.37757 72.2952 8.92816 72.3074 9.61487L72.3549 12.1812C72.3579 12.3066 72.2891 12.4213 72.1774 12.4795C71.922 12.6125 71.6437 12.38 71.7614 12.117C72.0352 11.5052 72.4313 10.9393 72.9529 10.4178C73.6702 9.67604 74.5236 9.0811 75.5131 8.63604C76.5026 8.19098 77.5166 7.96769 78.5566 7.96769C80.0417 7.96769 81.279 8.26439 82.2685 8.8578C83.2825 9.45122 84.038 10.3429 84.532 11.5297C85.052 12.7165 85.312 14.2016 85.312 15.9833V26.6724C85.312 27.3683 84.7477 27.9326 84.0518 27.9326H82.0085C81.3126 27.9326 80.7483 27.3683 80.7483 26.6724V16.3167C80.7483 15.3272 80.6121 14.5105 80.3399 13.8666C80.0677 13.1983 79.6471 12.7165 79.0781 12.4198C78.5092 12.0986 77.8164 11.9503 76.9997 11.9747C76.3313 11.9747 75.7134 12.0864 75.1445 12.3082C74.6 12.5055 74.1183 12.8037 73.6977 13.1983C73.3016 13.5699 72.9804 14.0027 72.7326 14.4967C72.5093 14.9907 72.3992 15.5352 72.3992 16.1302V26.6709C72.3992 27.3667 71.8349 27.9311 71.139 27.9311H68.8739L68.8724 27.9357Z" fill="white"/>
<path d="M98.9849 28.3072C96.9309 28.3072 95.1125 27.8744 93.5295 27.0088C91.9711 26.1431 90.746 24.967 89.8559 23.4835C88.9902 21.9739 88.5574 20.2549 88.5574 18.3248C88.5574 16.7908 88.8052 15.3929 89.2992 14.1311C89.7947 12.8693 90.4738 11.7804 91.3409 10.8658C92.2311 9.92523 93.2833 9.20794 94.4961 8.71394C95.7334 8.19394 97.0823 7.93393 98.5414 7.93393C99.8276 7.93393 101.028 8.1817 102.142 8.6757C103.255 9.17123 104.22 9.85029 105.037 10.7175C105.854 11.5586 106.471 12.5726 106.892 13.761C107.337 14.9233 107.548 16.1973 107.524 17.583L107.516 17.947C107.501 18.6322 106.941 19.1782 106.256 19.1782H92.6027C92.0353 19.1782 91.5367 18.7989 91.3868 18.2498L91.2232 17.6534C91.0029 16.8504 91.6071 16.0597 92.4391 16.0597H103.25C103.408 16.0597 103.489 16.2478 103.38 16.361C103.269 16.4788 103.072 16.4008 103.072 16.2386V15.8746C102.997 15.1069 102.75 14.4401 102.33 13.8711C101.909 13.2777 101.365 12.8189 100.696 12.4977C100.052 12.1521 99.3352 11.9777 98.5445 11.9777C97.3316 11.9777 96.3054 12.2132 95.4642 12.6828C94.6475 13.1523 94.0296 13.8329 93.6091 14.7245C93.1885 15.5902 92.9774 16.6791 92.9774 17.9898C92.9774 19.3005 93.2374 20.3528 93.7574 21.2933C94.3019 22.2339 95.0559 22.9635 96.0209 23.4835C97.0105 23.979 98.1606 24.2252 99.4728 24.2252C100.389 24.2252 101.23 24.0769 101.996 23.7802C102.441 23.6074 102.906 23.3565 103.393 23.0262C104.004 22.6102 104.853 22.7019 105.286 23.303L106.098 24.4348C106.468 24.9517 106.401 25.6705 105.889 26.0468C105.444 26.374 104.962 26.6692 104.446 26.9354C103.605 27.3559 102.715 27.6894 101.775 27.9371C100.834 28.1849 99.9072 28.3088 98.9911 28.3088L98.9849 28.3072Z" fill="white"/>
<path d="M112.271 27.9359C111.575 27.9359 111.011 27.3715 111.011 26.6756V3.21751C111.011 2.52163 111.575 1.95728 112.271 1.95728H120.475C122.157 1.95728 123.728 2.27845 125.188 2.92234C126.649 3.56622 127.923 4.46857 129.01 5.63245C130.124 6.77033 130.989 8.13151 131.609 9.71445C132.253 11.2974 132.574 13.0425 132.574 14.9481C132.574 16.8537 132.253 18.5728 131.609 20.1817C130.991 21.7647 130.124 23.1381 129.01 24.302C127.921 25.4399 126.647 26.3315 125.188 26.9739C123.729 27.6177 122.157 27.9389 120.475 27.9389H112.271V27.9359ZM112.864 26.2474C112.864 26.4034 112.669 26.4737 112.569 26.3529C112.479 26.2443 112.557 26.0807 112.698 26.0807H120.287C121.697 26.0807 123.021 25.8084 124.258 25.264C125.52 24.7195 126.621 23.9533 127.562 22.9622C128.503 21.9482 129.244 20.7721 129.789 19.4369C130.333 18.0757 130.605 16.58 130.605 14.9466C130.605 13.3132 130.333 11.8296 129.789 10.4929C129.244 9.13175 128.503 7.95715 127.562 6.96762C126.621 5.95362 125.52 5.17363 124.258 4.62915C123.021 4.08468 121.698 3.81245 120.287 3.81245H112.691C112.532 3.81245 112.457 3.61515 112.577 3.50962C112.688 3.41021 112.864 3.48975 112.864 3.63963V26.2474Z" fill="white"/>
<path d="M144.514 28.3075C142.757 28.3075 141.186 27.8747 139.8 27.009C138.415 26.1434 137.313 24.955 136.497 23.4455C135.705 21.936 135.308 20.2169 135.308 18.2868C135.308 16.3567 135.717 14.6009 136.533 13.0914C137.375 11.5818 138.488 10.395 139.874 9.52784C141.259 8.66219 142.806 8.22936 144.512 8.22936C145.502 8.22936 146.441 8.37772 147.334 8.67442C148.224 8.97113 149.029 9.39172 149.746 9.93619C150.463 10.4562 151.083 11.0741 151.603 11.7914C151.976 12.3083 152.274 12.8574 152.493 13.4385C152.585 13.6787 152.322 13.8744 152.107 13.7337C152.023 13.6802 151.976 13.5869 151.981 13.489L152.127 9.51101C152.146 9.02312 152.546 8.63772 153.036 8.63772C153.536 8.63772 153.943 9.04454 153.943 9.54466V27.009C153.943 27.5214 153.528 27.9374 153.014 27.9374C152.502 27.9374 152.088 27.5214 152.088 27.009V23.1901C152.088 23.1396 152.106 23.0907 152.14 23.054C152.283 22.8934 152.52 23.0279 152.438 23.2283C152.225 23.7437 151.948 24.2362 151.606 24.7088C151.086 25.4261 150.466 26.0577 149.749 26.6022C149.032 27.1467 148.229 27.5672 147.337 27.8639C146.446 28.1607 145.505 28.309 144.515 28.309L144.514 28.3075ZM144.774 26.4523C146.184 26.4523 147.446 26.1051 148.561 25.4123C149.699 24.695 150.589 23.73 151.233 22.5171C151.901 21.2798 152.234 19.8575 152.234 18.2485C152.234 16.6396 151.913 15.2677 151.269 14.0549C150.627 12.8176 149.734 11.8525 148.596 11.1597C147.483 10.4424 146.209 10.083 144.774 10.083C143.339 10.083 142.015 10.4424 140.877 11.1597C139.764 11.8525 138.886 12.8176 138.242 14.0549C137.598 15.2677 137.277 16.6656 137.277 18.2485C137.277 19.8315 137.586 21.2049 138.205 22.4422C138.849 23.6795 139.727 24.6568 140.84 25.3741C141.978 26.0914 143.29 26.4508 144.774 26.4508V26.4523Z" fill="white"/>
<path d="M165.332 28.3075C163.649 28.3075 162.153 27.9863 160.842 27.3425C159.848 26.8362 159.031 26.252 158.393 25.5882C158.054 25.2364 158.12 24.6828 158.488 24.3632C158.898 24.0068 159.519 24.0802 159.908 24.4595C160.457 24.9963 161.102 25.4383 161.842 25.7824C162.907 26.252 164.107 26.4875 165.444 26.4875C166.186 26.4875 166.866 26.4126 167.484 26.2642C168.102 26.0914 168.622 25.8559 169.043 25.5592C169.488 25.2625 169.833 24.903 170.081 24.4824C170.329 24.0374 170.453 23.5419 170.453 22.9974C170.453 22.0323 169.994 21.2156 169.078 20.5473C168.657 20.2506 168.127 19.9783 167.483 19.7306C166.84 19.4828 166.085 19.235 165.218 18.9888C163.907 18.5927 162.794 18.2226 161.877 17.8754C160.961 17.5282 160.232 17.0954 159.689 16.5769C159.291 16.1563 158.996 15.7113 158.797 15.2402C158.6 14.7462 158.501 14.214 158.501 13.645C158.501 12.8528 158.661 12.1355 158.982 11.4932C159.303 10.8248 159.762 10.2436 160.356 9.74962C160.949 9.25409 161.643 8.88398 162.434 8.63622C163.225 8.36398 164.104 8.22787 165.069 8.22787C166.034 8.22787 166.888 8.36398 167.778 8.63622C168.668 8.88398 169.497 9.24186 170.265 9.71292C170.774 10.0249 171.241 10.3706 171.663 10.7483C172.021 11.0695 172.019 11.6186 171.693 11.9734C171.325 12.3741 170.695 12.3695 170.291 12.004C169.999 11.7425 169.693 11.4977 169.375 11.2714C168.806 10.8508 168.174 10.5296 167.481 10.3063C166.788 10.0586 166.021 9.93468 165.179 9.93468C164.511 9.93468 163.881 10.0219 163.286 10.1947C162.717 10.3675 162.222 10.6275 161.801 10.9747C161.38 11.2959 161.045 11.6797 160.799 12.1248C160.577 12.5454 160.466 13.0149 160.466 13.5349C160.466 13.931 160.539 14.2889 160.688 14.6116C160.837 14.9083 161.071 15.1928 161.394 15.465C161.815 15.8122 162.371 16.1089 163.063 16.3552C163.782 16.6029 164.659 16.8752 165.698 17.1719C166.639 17.4196 167.467 17.6659 168.185 17.9136C168.902 18.1614 169.521 18.4581 170.041 18.8037C170.832 19.2993 171.415 19.8805 171.785 20.5488C172.183 21.2172 172.378 21.9834 172.378 22.8506C172.378 23.915 172.082 24.8541 171.488 25.6708C170.895 26.4875 170.064 27.1299 169.001 27.6009C167.937 28.0705 166.713 28.306 165.328 28.306L165.332 28.3075Z" fill="white"/>
<path d="M176.541 27.9358C176.173 27.9358 175.875 27.6375 175.875 27.2674V1.39894C175.875 0.886582 176.289 0.470581 176.801 0.470581C177.314 0.470581 177.73 0.886582 177.73 1.39894V13.0515C177.73 13.0775 177.722 13.102 177.71 13.1234C177.629 13.2503 177.458 13.1754 177.508 13.0332C177.805 12.1935 178.25 11.4594 178.843 10.8278C179.611 9.98659 180.501 9.3427 181.517 8.89765C182.555 8.45259 183.595 8.22928 184.634 8.22928C186.119 8.22928 187.342 8.51376 188.307 9.0827C189.297 9.65164 190.026 10.5295 190.497 11.7179C190.967 12.9062 191.202 14.4142 191.202 16.2465V27.0089C191.202 27.5213 190.788 27.9373 190.274 27.9373C189.762 27.9373 189.347 27.5213 189.347 27.0089V16.3199C189.347 14.8853 189.161 13.7092 188.789 12.7946C188.419 11.854 187.85 11.1612 187.082 10.7161C186.34 10.2466 185.388 10.0111 184.225 10.0111C183.309 10.0111 182.456 10.1839 181.663 10.5311C180.873 10.8522 180.178 11.2973 179.585 11.8678C179.016 12.4367 178.559 13.0928 178.212 13.8346C177.89 14.5519 177.73 15.3196 177.73 16.1363V27.0105C177.73 27.5228 177.314 27.9388 176.801 27.9388H176.541V27.9358Z" fill="white"/>
<path d="M0 5.7516C0 3.73584 1.72518 2.10242 3.85412 2.10242H29.1812C31.3101 2.10242 33.0353 3.73584 33.0353 5.7516C33.0353 7.76737 31.3101 9.40078 29.1812 9.40078H3.85412C1.72518 9.40078 0 7.76737 0 5.7516Z" fill="white"/>
<path d="M6.42353 14.8731C6.42353 12.8573 8.1487 11.2239 10.2776 11.2239H22.7576C24.8866 11.2239 26.6118 12.8573 26.6118 14.8731C26.6118 16.8889 24.8866 18.5223 22.7576 18.5223H10.2776C8.1487 18.5223 6.42353 16.8889 6.42353 14.8731Z" fill="white"/>
<path d="M11.0118 23.9943C11.0118 21.9785 12.7369 20.3451 14.8659 20.3451H18.1694C20.2984 20.3451 22.0235 21.9785 22.0235 23.9943C22.0235 26.0101 20.2984 27.6435 18.1694 27.6435H14.8659C12.7369 27.6435 11.0118 26.0101 11.0118 23.9943Z" fill="white"/>
</svg>
