<svg width="374" height="233" viewBox="0 0 374 233" fill="none" xmlns="http://www.w3.org/2000/svg">
<g filter="url(#filter0_bd_21303_6247)">
<rect width="273.246" height="166.695" transform="translate(65 33.0496)" fill="#FAFBFD"/>
<g style="mix-blend-mode:multiply">
<path d="M79.1279 173.764L79.1279 61.261" stroke="#E8EAF5" stroke-width="1.18602" stroke-linecap="round"/>
</g>
<g style="mix-blend-mode:multiply">
<path d="M154.439 173.764L154.439 61.261" stroke="#E8EAF5" stroke-width="1.18602" stroke-linecap="round"/>
</g>
<g style="mix-blend-mode:multiply">
<path d="M229.725 173.764L229.725 61.261" stroke="#E8EAF5" stroke-width="1.18602" stroke-linecap="round"/>
</g>
<g style="mix-blend-mode:multiply">
<path d="M305.036 173.764L305.036 61.261" stroke="#E8EAF5" stroke-width="1.18602" stroke-linecap="round"/>
</g>
<g style="mix-blend-mode:multiply">
<path d="M117.233 173.764L117.233 61.261" stroke="#E8EAF5" stroke-width="1.18602" stroke-linecap="round"/>
</g>
<g style="mix-blend-mode:multiply">
<path d="M192.545 173.764L192.545 61.261" stroke="#E8EAF5" stroke-width="1.18602" stroke-linecap="round"/>
</g>
<g style="mix-blend-mode:multiply">
<path d="M267.831 173.764L267.831 61.261" stroke="#E8EAF5" stroke-width="1.18602" stroke-linecap="round"/>
</g>
<g style="mix-blend-mode:multiply">
<path d="M98.169 173.764L98.1689 61.261" stroke="#E8EAF5" stroke-width="1.18602" stroke-linecap="round"/>
</g>
<g style="mix-blend-mode:multiply">
<path d="M173.48 173.764L173.48 61.261" stroke="#E8EAF5" stroke-width="1.18602" stroke-linecap="round"/>
</g>
<g style="mix-blend-mode:multiply">
<path d="M248.79 173.764L248.79 61.261" stroke="#E8EAF5" stroke-width="1.18602" stroke-linecap="round"/>
</g>
<g style="mix-blend-mode:multiply">
<path d="M324.101 173.764L324.101 61.261" stroke="#E8EAF5" stroke-width="1.18602" stroke-linecap="round"/>
</g>
<g style="mix-blend-mode:multiply">
<path d="M135.373 173.764L135.373 61.261" stroke="#E8EAF5" stroke-width="1.18602" stroke-linecap="round"/>
</g>
<g style="mix-blend-mode:multiply">
<path d="M210.684 173.764L210.684 61.261" stroke="#E8EAF5" stroke-width="1.18602" stroke-linecap="round"/>
</g>
<g style="mix-blend-mode:multiply">
<path d="M285.995 173.764L285.995 61.261" stroke="#E8EAF5" stroke-width="1.18602" stroke-linecap="round"/>
</g>
<path d="M79.1284 172.861L96.3869 107.968C97.391 104.192 100.809 101.564 104.717 101.564H111.194C114.742 101.564 117.927 103.737 119.22 107.041L128.093 129.704C130.847 136.739 140.677 137.078 143.91 130.249L166.274 82.9984C169.327 76.5497 178.445 76.3897 181.721 82.7273L190.915 100.509C192.395 103.372 195.348 105.17 198.571 105.17H205.601C208.844 105.17 211.813 103.348 213.284 100.457L227.767 71.9719C229.238 69.0804 232.207 67.2593 235.45 67.2593H264.472C266.902 67.2593 269.219 68.2851 270.853 70.084L297.708 99.6562C301.193 103.494 307.252 103.409 310.629 99.4758L325.046 82.6804" stroke="#1C79AE" stroke-width="1.18602"/>
<circle cx="135.367" cy="182.329" r="4.23782" fill="#B3B9C7"/>
<circle cx="183.93" cy="182.329" r="4.23782" fill="#B3B9C7"/>
<rect x="240.302" y="178.091" width="16.9469" height="8.47347" rx="4.23674" fill="#1C79AE"/>
<circle cx="324.093" cy="182.329" r="4.23782" fill="#B3B9C7"/>
<circle cx="79.1211" cy="182.329" r="4.23782" fill="#B3B9C7"/>
<path d="M248.79 73.2581L248.79 167.077" stroke="#1C79AE" stroke-width="2.36154" stroke-linecap="round" stroke-dasharray="0.19 14.17"/>
<path opacity="0.25" d="M96.3869 107.968L79.1284 172.861H325.046V82.6804L310.629 99.4758C307.252 103.409 301.193 103.494 297.708 99.6562L270.853 70.084C269.219 68.2851 266.902 67.2593 264.472 67.2593H235.45C232.207 67.2593 229.238 69.0804 227.767 71.9719L213.284 100.457C211.813 103.348 208.844 105.17 205.601 105.17H198.571C195.348 105.17 192.395 103.372 190.915 100.509L181.721 82.7273C178.445 76.3897 169.327 76.5497 166.274 82.9984L143.91 130.249C140.677 137.078 130.847 136.739 128.093 129.704L119.22 107.041C117.927 103.737 114.742 101.564 111.194 101.564H104.717C100.809 101.564 97.391 104.192 96.3869 107.968Z" fill="url(#paint0_linear_21303_6247)"/>
<path d="M254.418 67.1445C254.418 70.2534 251.898 72.7736 248.789 72.7736C245.68 72.7736 243.16 70.2534 243.16 67.1445C243.16 64.0357 245.68 61.5154 248.789 61.5154C251.898 61.5154 254.418 64.0357 254.418 67.1445Z" fill="#1C79AE" stroke="white" stroke-width="2.81455"/>
</g>
<g filter="url(#filter1_dd_21303_6247)">
<g filter="url(#filter2_b_21303_6247)">
<path fill-rule="evenodd" clip-rule="evenodd" d="M216.452 13C208.471 13 202 19.4706 202 27.4525C202 35.4344 208.471 41.905 216.452 41.905H242.886L248.208 49.5074C248.427 49.819 248.888 49.819 249.106 49.5074L254.429 41.905H348.548C356.529 41.905 363 35.4344 363 27.4525C363 19.4706 356.529 13 348.548 13H216.452Z" fill="white"/>
</g>
<g filter="url(#filter3_d_21303_6247)">
<ellipse cx="221.988" cy="28.0444" rx="7.98824" ry="7.98824" fill="#1C79AE"/>
</g>
<rect opacity="0.7" x="223.556" y="23.9163" width="3.64569" height="7.25699" rx="1.82284" transform="rotate(44.5823 223.556 23.9163)" fill="#011445"/>
<path d="M224.869 27.7717C225.576 27.0547 225.568 25.9005 224.851 25.1939C224.134 24.4872 222.979 24.4956 222.273 25.2127L221.005 26.4987L222.304 27.7782L223.602 29.0578L224.869 27.7717Z" fill="#E8EAF5"/>
<path d="M233.417 30.0444V25.5152H234.011L235.653 28.9216L237.286 25.5152H237.886V30.0413H237.264V26.9432L235.801 30.0444H235.502L234.037 26.9432V30.0444H233.417ZM239.397 30.0444V25.5152H242.29V26.1349H240.054V27.4055H241.913V28.0252H240.054V29.4248H242.29V30.0444H239.397ZM243.675 30.0444V25.5152H245.093C245.135 25.5152 245.213 25.5163 245.326 25.5184C245.441 25.5205 245.551 25.5289 245.656 25.5435C246.011 25.5876 246.308 25.7144 246.549 25.9241C246.793 26.1338 246.976 26.4001 247.1 26.723C247.224 27.0438 247.285 27.3961 247.285 27.7798C247.285 28.1657 247.224 28.52 247.1 28.8429C246.976 29.1638 246.793 29.429 246.549 29.6387C246.308 29.8463 246.011 29.9721 245.656 30.0161C245.551 30.0308 245.441 30.0392 245.326 30.0413C245.213 30.0434 245.135 30.0444 245.093 30.0444H243.675ZM244.348 29.4185H245.093C245.165 29.4185 245.249 29.4164 245.348 29.4122C245.447 29.408 245.534 29.3997 245.609 29.3871C245.84 29.343 246.026 29.2434 246.169 29.0883C246.314 28.931 246.419 28.7381 246.487 28.5095C246.554 28.281 246.587 28.0377 246.587 27.7798C246.587 27.5135 246.553 27.2672 246.483 27.0407C246.414 26.8121 246.307 26.6213 246.163 26.4683C246.02 26.3131 245.835 26.2145 245.609 26.1726C245.534 26.1579 245.445 26.1495 245.345 26.1474C245.246 26.1432 245.162 26.1411 245.093 26.1411H244.348V29.4185ZM248.71 30.0444V25.5152H249.367V30.0444H248.71ZM252.831 30.1388C252.378 30.1388 251.992 30.0402 251.674 29.8431C251.355 29.6439 251.111 29.3672 250.941 29.0128C250.773 28.6584 250.689 28.2474 250.689 27.7798C250.689 27.3122 250.773 26.9013 250.941 26.5469C251.111 26.1925 251.355 25.9168 251.674 25.7197C251.992 25.5205 252.378 25.4209 252.831 25.4209C253.353 25.4209 253.785 25.553 254.127 25.8172C254.471 26.0814 254.71 26.4368 254.844 26.8834L254.177 27.0627C254.089 26.7461 253.932 26.4976 253.705 26.3173C253.481 26.1369 253.19 26.0468 252.831 26.0468C252.51 26.0468 252.243 26.1191 252.029 26.2638C251.815 26.4085 251.654 26.6108 251.545 26.8708C251.438 27.1309 251.384 27.4339 251.384 27.7798C251.382 28.1258 251.435 28.4288 251.542 28.6888C251.651 28.9488 251.812 29.1512 252.026 29.2959C252.242 29.4405 252.51 29.5129 252.831 29.5129C253.19 29.5129 253.481 29.4227 253.705 29.2424C253.932 29.06 254.089 28.8115 254.177 28.497L254.844 28.6762C254.71 29.1229 254.471 29.4783 254.127 29.7425C253.785 30.0067 253.353 30.1388 252.831 30.1388ZM255.727 30.0444L257.199 25.5152H258.146L259.618 30.0444H258.936L257.58 25.9115H257.75L256.41 30.0444H255.727ZM256.492 29.0222V28.4057H258.857V29.0222H256.492ZM261.566 30.0444V26.1349H260.059V25.5152H263.73V26.1349H262.223V30.0444H261.566ZM264.925 30.0444V25.5152H265.583V30.0444H264.925ZM269.046 30.1388C268.594 30.1388 268.208 30.0402 267.889 29.8431C267.57 29.6439 267.326 29.3672 267.156 29.0128C266.988 28.6584 266.905 28.2474 266.905 27.7798C266.905 27.3122 266.988 26.9013 267.156 26.5469C267.326 26.1925 267.57 25.9168 267.889 25.7197C268.208 25.5205 268.594 25.4209 269.046 25.4209C269.497 25.4209 269.882 25.5205 270.201 25.7197C270.522 25.9168 270.766 26.1925 270.934 26.5469C271.101 26.9013 271.185 27.3122 271.185 27.7798C271.185 28.2474 271.101 28.6584 270.934 29.0128C270.766 29.3672 270.522 29.6439 270.201 29.8431C269.882 30.0402 269.497 30.1388 269.046 30.1388ZM269.046 29.5129C269.367 29.5171 269.634 29.4468 269.845 29.3021C270.059 29.1554 270.22 28.952 270.327 28.692C270.434 28.4299 270.487 28.1258 270.487 27.7798C270.487 27.4339 270.434 27.1319 270.327 26.874C270.22 26.614 270.059 26.4116 269.845 26.267C269.634 26.1223 269.367 26.0489 269.046 26.0468C268.726 26.0426 268.458 26.1128 268.244 26.2575C268.033 26.4022 267.873 26.6056 267.766 26.8677C267.659 27.1298 267.605 27.4339 267.603 27.7798C267.601 28.1258 267.653 28.4288 267.76 28.6888C267.867 28.9467 268.027 29.148 268.241 29.2927C268.457 29.4374 268.726 29.5108 269.046 29.5129ZM272.442 30.0444V25.5152H273.109L275.339 28.8807V25.5152H276.005V30.0444H275.339L273.109 26.6758V30.0444H272.442ZM279.086 30.0444L280.558 25.5152H281.505L282.977 30.0444H282.294L280.939 25.9115H281.109L279.769 30.0444H279.086ZM279.85 29.0222V28.4057H282.216V29.0222H279.85ZM284.17 30.0444V25.5152H285.589C285.631 25.5152 285.708 25.5163 285.821 25.5184C285.937 25.5205 286.047 25.5289 286.152 25.5435C286.506 25.5876 286.804 25.7144 287.045 25.9241C287.288 26.1338 287.472 26.4001 287.595 26.723C287.719 27.0438 287.781 27.3961 287.781 27.7798C287.781 28.1657 287.719 28.52 287.595 28.8429C287.472 29.1638 287.288 29.429 287.045 29.6387C286.804 29.8463 286.506 29.9721 286.152 30.0161C286.047 30.0308 285.937 30.0392 285.821 30.0413C285.708 30.0434 285.631 30.0444 285.589 30.0444H284.17ZM284.843 29.4185H285.589C285.66 29.4185 285.745 29.4164 285.843 29.4122C285.942 29.408 286.029 29.3997 286.105 29.3871C286.335 29.343 286.522 29.2434 286.664 29.0883C286.809 28.931 286.915 28.7381 286.982 28.5095C287.049 28.281 287.083 28.0377 287.083 27.7798C287.083 27.5135 287.048 27.2672 286.979 27.0407C286.91 26.8121 286.803 26.6213 286.658 26.4683C286.515 26.3131 286.331 26.2145 286.105 26.1726C286.029 26.1579 285.941 26.1495 285.84 26.1474C285.742 26.1432 285.658 26.1411 285.589 26.1411H284.843V29.4185ZM289.142 30.0444V25.5152H289.8V27.4684H292.064V25.5152H292.725V30.0444H292.064V28.0881H289.8V30.0444H289.142ZM294.238 30.0444V25.5152H297.131V26.1349H294.895V27.4055H296.754V28.0252H294.895V29.4248H297.131V30.0444H294.238ZM298.516 30.0444V25.5152H300.346C300.39 25.5152 300.445 25.5173 300.51 25.5215C300.575 25.5236 300.637 25.5299 300.695 25.5404C300.947 25.5802 301.157 25.6662 301.324 25.7983C301.494 25.9304 301.621 26.0971 301.705 26.2984C301.789 26.4997 301.831 26.722 301.831 26.9652C301.831 27.3259 301.738 27.6372 301.554 27.8994C301.369 28.1594 301.093 28.3219 300.724 28.3869L300.456 28.4183H299.173V30.0444H298.516ZM301.164 30.0444L300.271 28.2013L300.934 28.0315L301.916 30.0444H301.164ZM299.173 27.7956H300.321C300.363 27.7956 300.409 27.7935 300.459 27.7893C300.512 27.7851 300.561 27.7777 300.607 27.7673C300.741 27.7358 300.849 27.6781 300.931 27.5943C301.013 27.5083 301.072 27.4097 301.107 27.2986C301.143 27.1875 301.161 27.0763 301.161 26.9652C301.161 26.8541 301.143 26.744 301.107 26.635C301.072 26.5238 301.013 26.4263 300.931 26.3424C300.849 26.2565 300.741 26.1978 300.607 26.1663C300.561 26.1537 300.512 26.1453 300.459 26.1411C300.409 26.1369 300.363 26.1349 300.321 26.1349H299.173V27.7956ZM303.236 30.0444V25.5152H306.13V26.1349H303.893V27.4055H305.752V28.0252H303.893V29.4248H306.13V30.0444H303.236ZM307.514 30.0444V25.5152H308.181L310.411 28.8807V25.5152H311.078V30.0444H310.411L308.181 26.6758V30.0444H307.514ZM314.475 30.1388C314.022 30.1388 313.636 30.0402 313.317 29.8431C312.999 29.6439 312.754 29.3672 312.585 29.0128C312.417 28.6584 312.333 28.2474 312.333 27.7798C312.333 27.3122 312.417 26.9013 312.585 26.5469C312.754 26.1925 312.999 25.9168 313.317 25.7197C313.636 25.5205 314.022 25.4209 314.475 25.4209C314.997 25.4209 315.429 25.553 315.771 25.8172C316.115 26.0814 316.354 26.4368 316.488 26.8834L315.821 27.0627C315.733 26.7461 315.576 26.4976 315.349 26.3173C315.125 26.1369 314.833 26.0468 314.475 26.0468C314.154 26.0468 313.887 26.1191 313.673 26.2638C313.459 26.4085 313.297 26.6108 313.188 26.8708C313.082 27.1309 313.028 27.4339 313.028 27.7798C313.026 28.1258 313.078 28.4288 313.185 28.6888C313.294 28.9488 313.456 29.1512 313.67 29.2959C313.886 29.4405 314.154 29.5129 314.475 29.5129C314.833 29.5129 315.125 29.4227 315.349 29.2424C315.576 29.06 315.733 28.8115 315.821 28.497L316.488 28.6762C316.354 29.1229 316.115 29.4783 315.771 29.7425C315.429 30.0067 314.997 30.1388 314.475 30.1388ZM317.809 30.0444V25.5152H320.702V26.1349H318.466V27.4055H320.325V28.0252H318.466V29.4248H320.702V30.0444H317.809ZM325.104 30.0444V26.1349H323.598V25.5152H327.268V26.1349H325.762V30.0444H325.104ZM328.401 30.0444V25.5152H330.231C330.275 25.5152 330.33 25.5173 330.395 25.5215C330.46 25.5236 330.522 25.5299 330.58 25.5404C330.832 25.5802 331.042 25.6662 331.209 25.7983C331.379 25.9304 331.506 26.0971 331.59 26.2984C331.674 26.4997 331.716 26.722 331.716 26.9652C331.716 27.3259 331.623 27.6372 331.439 27.8994C331.254 28.1594 330.978 28.3219 330.609 28.3869L330.341 28.4183H329.058V30.0444H328.401ZM331.049 30.0444L330.156 28.2013L330.819 28.0315L331.801 30.0444H331.049ZM329.058 27.7956H330.206C330.248 27.7956 330.294 27.7935 330.344 27.7893C330.397 27.7851 330.446 27.7777 330.492 27.7673C330.626 27.7358 330.734 27.6781 330.816 27.5943C330.898 27.5083 330.957 27.4097 330.992 27.2986C331.028 27.1875 331.046 27.0763 331.046 26.9652C331.046 26.8541 331.028 26.744 330.992 26.635C330.957 26.5238 330.898 26.4263 330.816 26.3424C330.734 26.2565 330.626 26.1978 330.492 26.1663C330.446 26.1537 330.397 26.1453 330.344 26.1411C330.294 26.1369 330.248 26.1349 330.206 26.1349H329.058V27.7956ZM333.121 30.0444V25.5152H336.015V26.1349H333.778V27.4055H335.637V28.0252H333.778V29.4248H336.015V30.0444H333.121ZM337.399 30.0444V25.5152H338.066L340.296 28.8807V25.5152H340.963V30.0444H340.296L338.066 26.6758V30.0444H337.399ZM342.47 30.0444V25.5152H343.888C343.93 25.5152 344.008 25.5163 344.121 25.5184C344.236 25.5205 344.346 25.5289 344.451 25.5435C344.806 25.5876 345.103 25.7144 345.344 25.9241C345.588 26.1338 345.771 26.4001 345.895 26.723C346.019 27.0438 346.08 27.3961 346.08 27.7798C346.08 28.1657 346.019 28.52 345.895 28.8429C345.771 29.1638 345.588 29.429 345.344 29.6387C345.103 29.8463 344.806 29.9721 344.451 30.0161C344.346 30.0308 344.236 30.0392 344.121 30.0413C344.008 30.0434 343.93 30.0444 343.888 30.0444H342.47ZM343.143 29.4185H343.888C343.959 29.4185 344.044 29.4164 344.143 29.4122C344.241 29.408 344.328 29.3997 344.404 29.3871C344.635 29.343 344.821 29.2434 344.964 29.0883C345.109 28.931 345.214 28.7381 345.282 28.5095C345.349 28.281 345.382 28.0377 345.382 27.7798C345.382 27.5135 345.348 27.2672 345.278 27.0407C345.209 26.8121 345.102 26.6213 344.958 26.4683C344.815 26.3131 344.63 26.2145 344.404 26.1726C344.328 26.1579 344.24 26.1495 344.14 26.1474C344.041 26.1432 343.957 26.1411 343.888 26.1411H343.143V29.4185ZM349.084 30.1388C348.759 30.1388 348.465 30.0832 348.203 29.9721C347.943 29.8589 347.728 29.6985 347.558 29.4909C347.39 29.2812 347.281 29.0327 347.231 28.7454L347.917 28.6416C347.986 28.9184 348.131 29.1344 348.351 29.2896C348.571 29.4426 348.828 29.5192 349.121 29.5192C349.304 29.5192 349.472 29.4909 349.625 29.4342C349.778 29.3755 349.9 29.2927 349.993 29.1858C350.087 29.0767 350.134 28.9467 350.134 28.7958C350.134 28.714 350.12 28.6416 350.09 28.5787C350.063 28.5158 350.024 28.4613 349.974 28.4152C349.926 28.367 349.866 28.3261 349.795 28.2925C349.725 28.2569 349.649 28.2265 349.565 28.2013L348.404 27.8585C348.291 27.8249 348.176 27.7819 348.058 27.7295C347.941 27.675 347.833 27.6047 347.734 27.5188C347.638 27.4307 347.559 27.3227 347.498 27.1948C347.438 27.0648 347.407 26.9075 347.407 26.723C347.407 26.4441 347.479 26.2082 347.621 26.0153C347.766 25.8203 347.961 25.6735 348.206 25.575C348.451 25.4743 348.726 25.424 349.03 25.424C349.336 25.4282 349.61 25.4827 349.851 25.5876C350.094 25.6924 350.296 25.8434 350.455 26.0405C350.616 26.2355 350.728 26.4724 350.788 26.7513L350.084 26.8708C350.052 26.701 349.985 26.5553 349.883 26.4337C349.78 26.3099 349.654 26.2156 349.505 26.1506C349.356 26.0835 349.195 26.0489 349.021 26.0468C348.853 26.0426 348.699 26.0678 348.558 26.1223C348.42 26.1768 348.309 26.2533 348.225 26.3519C348.143 26.4504 348.102 26.5637 348.102 26.6916C348.102 26.8174 348.139 26.9191 348.212 26.9967C348.286 27.0742 348.376 27.1361 348.483 27.1822C348.592 27.2263 348.7 27.263 348.807 27.2923L349.644 27.5282C349.748 27.5576 349.867 27.5974 349.999 27.6477C350.133 27.696 350.262 27.7641 350.386 27.8522C350.512 27.9402 350.615 28.0577 350.697 28.2044C350.779 28.3491 350.82 28.5316 350.82 28.7517C350.82 28.9803 350.774 29.1816 350.682 29.3556C350.589 29.5276 350.462 29.6722 350.301 29.7897C350.142 29.905 349.957 29.992 349.747 30.0507C349.538 30.1094 349.316 30.1388 349.084 30.1388Z" fill="#011445"/>
</g>
<rect width="51.6538" height="15.3396" transform="translate(2 142)" fill="#00AEFF"/>
<path d="M6.60529 151.67L8.27139 146.385H9.56683L11.2329 151.67H10.3228L8.81085 146.929H9.00902L7.5154 151.67H6.60529ZM7.53375 150.525V149.699H10.3081V150.525H7.53375ZM11.7496 151.67V146.385H12.546L14.3735 150.129L16.2011 146.385H16.9975V151.67H16.1718V148.283L14.5497 151.67H14.1974L12.579 148.283V151.67H11.7496ZM17.8817 151.67V146.385H20.0652C20.1166 146.385 20.1826 146.388 20.2634 146.393C20.3441 146.395 20.4187 146.403 20.4872 146.415C20.7931 146.461 21.045 146.563 21.2432 146.719C21.4438 146.876 21.5918 147.074 21.6873 147.314C21.7851 147.551 21.8341 147.815 21.8341 148.107C21.8341 148.537 21.7252 148.908 21.5074 149.218C21.2897 149.527 20.9557 149.718 20.5056 149.791L20.1276 149.824H18.7661V151.67H17.8817ZM20.9166 151.67L19.8744 149.519L20.7735 149.321L21.9185 151.67H20.9166ZM18.7661 148.998H20.0285C20.0774 148.998 20.1325 148.996 20.1936 148.991C20.2548 148.986 20.3111 148.976 20.3625 148.962C20.5093 148.925 20.6242 148.86 20.7074 148.767C20.7931 148.674 20.853 148.569 20.8872 148.451C20.9239 148.334 20.9423 148.219 20.9423 148.107C20.9423 147.994 20.9239 147.879 20.8872 147.762C20.853 147.642 20.7931 147.535 20.7074 147.442C20.6242 147.349 20.5093 147.284 20.3625 147.248C20.3111 147.233 20.2548 147.225 20.1936 147.222C20.1325 147.217 20.0774 147.215 20.0285 147.215H18.7661V148.998ZM25.8037 151.78C25.4294 151.78 25.0991 151.701 24.8129 151.541C24.5266 151.38 24.3028 151.156 24.1413 150.87C23.9823 150.584 23.9027 150.253 23.9027 149.879V148.176C23.9027 147.802 23.9823 147.472 24.1413 147.185C24.3028 146.899 24.5266 146.677 24.8129 146.517C25.0991 146.356 25.4294 146.275 25.8037 146.275C26.178 146.275 26.5071 146.356 26.7909 146.517C27.0771 146.677 27.301 146.899 27.4625 147.185C27.6239 147.472 27.7047 147.802 27.7047 148.176V149.879C27.7047 150.253 27.6239 150.584 27.4625 150.87C27.301 151.156 27.0771 151.38 26.7909 151.541C26.5071 151.701 26.178 151.78 25.8037 151.78ZM25.8037 150.94C25.9896 150.94 26.1585 150.896 26.3101 150.808C26.4618 150.717 26.5817 150.597 26.6698 150.448C26.7579 150.296 26.8019 150.127 26.8019 149.941V148.11C26.8019 147.922 26.7579 147.753 26.6698 147.604C26.5817 147.452 26.4618 147.332 26.3101 147.244C26.1585 147.154 25.9896 147.108 25.8037 147.108C25.6178 147.108 25.449 147.154 25.2973 147.244C25.1456 147.332 25.0257 147.452 24.9376 147.604C24.8496 147.753 24.8055 147.922 24.8055 148.11V149.941C24.8055 150.127 24.8496 150.296 24.9376 150.448C25.0257 150.597 25.1456 150.717 25.2973 150.808C25.449 150.896 25.6178 150.94 25.8037 150.94ZM28.7337 151.67V150.763H29.6402V151.67H28.7337ZM32.3977 151.78C32.0479 151.78 31.7372 151.709 31.4656 151.567C31.194 151.425 30.9812 151.228 30.8271 150.976C30.6729 150.724 30.5959 150.436 30.5959 150.11C30.5959 149.819 30.6631 149.549 30.7977 149.299C30.9323 149.05 31.1292 148.85 31.3885 148.701L31.3702 148.984C31.1671 148.829 31.0093 148.652 30.8968 148.451C30.7867 148.248 30.7316 148.021 30.7316 147.769C30.7316 147.466 30.8026 147.203 30.9445 146.98C31.0888 146.757 31.2858 146.585 31.5353 146.462C31.7849 146.338 32.0724 146.275 32.3977 146.275C32.7231 146.275 33.0106 146.338 33.2602 146.462C33.5121 146.585 33.7091 146.757 33.851 146.98C33.9953 147.203 34.0675 147.466 34.0675 147.769C34.0675 148.021 34.0137 148.247 33.906 148.448C33.8008 148.648 33.6406 148.829 33.4253 148.991L33.4216 148.705C33.6761 148.849 33.8706 149.047 34.0051 149.299C34.1421 149.549 34.2106 149.819 34.2106 150.11C34.2106 150.436 34.1323 150.724 33.9758 150.976C33.8216 151.228 33.6076 151.425 33.3335 151.567C33.062 151.709 32.75 151.78 32.3977 151.78ZM32.3977 150.947C32.6571 150.947 32.8675 150.876 33.029 150.734C33.1929 150.592 33.2748 150.384 33.2748 150.11C33.2748 149.836 33.1941 149.628 33.0326 149.486C32.8712 149.342 32.6595 149.27 32.3977 149.27C32.1384 149.27 31.9292 149.342 31.7702 149.486C31.6112 149.628 31.5317 149.836 31.5317 150.11C31.5317 150.384 31.6112 150.592 31.7702 150.734C31.9292 150.876 32.1384 150.947 32.3977 150.947ZM32.3977 148.429C32.6155 148.429 32.7916 148.376 32.9262 148.268C33.0632 148.158 33.1317 147.992 33.1317 147.769C33.1317 147.546 33.0632 147.381 32.9262 147.273C32.7916 147.163 32.6155 147.108 32.3977 147.108C32.1824 147.108 32.0063 147.163 31.8693 147.273C31.7347 147.381 31.6675 147.546 31.6675 147.769C31.6675 147.992 31.7347 148.158 31.8693 148.268C32.0063 148.376 32.1824 148.429 32.3977 148.429ZM36.5285 151.769C36.2643 151.769 36.0147 151.718 35.7799 151.615C35.545 151.512 35.3407 151.367 35.167 151.178C34.9958 150.99 34.8722 150.767 34.7964 150.51L35.6514 150.279C35.7126 150.489 35.8239 150.652 35.9854 150.767C36.1493 150.88 36.3291 150.935 36.5249 150.932C36.6986 150.932 36.8539 150.892 36.9909 150.811C37.1279 150.73 37.2356 150.622 37.3139 150.485C37.3922 150.345 37.4313 150.19 37.4313 150.019C37.4313 149.757 37.3469 149.538 37.1781 149.362C37.0093 149.185 36.7915 149.097 36.5249 149.097C36.4441 149.097 36.3646 149.108 36.2863 149.13C36.2105 149.152 36.1371 149.183 36.0661 149.222L35.6624 148.525L37.4386 147.006L37.5157 147.218H35.0019V146.385H38.2423V147.222L36.8148 148.595L36.8074 148.334C37.1279 148.356 37.4007 148.445 37.6258 148.602C37.8533 148.759 38.027 148.96 38.1469 149.207C38.2692 149.455 38.3304 149.725 38.3304 150.019C38.3304 150.351 38.2484 150.65 38.0845 150.914C37.9231 151.178 37.7053 151.387 37.4313 151.541C37.1597 151.693 36.8588 151.769 36.5285 151.769Z" fill="white"/>
<path d="M42.5713 149.67H49.195" stroke="white" stroke-width="1.41936" stroke-linecap="square"/>
<g opacity="0.7" filter="url(#filter4_f_21303_6247)">
<rect width="51.6538" height="15.3396" transform="translate(2 163.578)" fill="#E8EAF5"/>
<path d="M9.92828 173.358C9.54173 173.358 9.1931 173.291 8.88239 173.157C8.57412 173.022 8.31968 172.83 8.11906 172.58C7.92089 172.328 7.7949 172.03 7.74107 171.685L8.65853 171.545C8.73682 171.859 8.89706 172.101 9.13927 172.272C9.38393 172.443 9.66528 172.529 9.98333 172.529C10.1717 172.529 10.3491 172.5 10.5155 172.441C10.6818 172.382 10.8164 172.297 10.9191 172.184C11.0243 172.072 11.0769 171.933 11.0769 171.769C11.0769 171.696 11.0647 171.629 11.0402 171.568C11.0158 171.504 10.9791 171.448 10.9301 171.399C10.8837 171.35 10.8225 171.306 10.7467 171.267C10.6733 171.225 10.5876 171.19 10.4898 171.16L9.12459 170.756C9.00716 170.722 8.87994 170.677 8.74293 170.621C8.60837 170.562 8.47993 170.482 8.3576 170.382C8.23772 170.279 8.13864 170.15 8.06035 169.993C7.9845 169.834 7.94658 169.638 7.94658 169.406C7.94658 169.066 8.03221 168.781 8.20347 168.551C8.37717 168.319 8.6096 168.145 8.90073 168.03C9.19432 167.915 9.51971 167.859 9.87691 167.861C10.239 167.863 10.5619 167.926 10.8457 168.048C11.1295 168.168 11.3669 168.343 11.5577 168.573C11.7485 168.803 11.8831 169.081 11.9614 169.406L11.0109 169.571C10.9717 169.385 10.8959 169.227 10.7834 169.098C10.6733 168.966 10.5375 168.865 10.376 168.797C10.217 168.728 10.0469 168.692 9.8659 168.687C9.68975 168.684 9.52583 168.711 9.37414 168.767C9.2249 168.821 9.1038 168.9 9.01083 169.002C8.92031 169.105 8.87505 169.225 8.87505 169.362C8.87505 169.492 8.91419 169.598 8.99248 169.681C9.07077 169.762 9.16741 169.827 9.2824 169.876C9.39983 169.922 9.51849 169.961 9.63837 169.993L10.5852 170.257C10.7148 170.292 10.8604 170.338 11.0219 170.397C11.1834 170.456 11.3387 170.538 11.488 170.643C11.6372 170.748 11.7595 170.886 11.8549 171.057C11.9528 171.229 12.0017 171.446 12.0017 171.711C12.0017 171.985 11.9442 172.226 11.8292 172.434C11.7167 172.639 11.5638 172.81 11.3705 172.947C11.1772 173.084 10.9558 173.187 10.7063 173.256C10.4592 173.324 10.1999 173.358 9.92828 173.358ZM12.6493 173.248V167.964H14.8328C14.8842 167.964 14.9503 167.966 15.031 167.971C15.1117 167.974 15.1863 167.981 15.2549 167.993C15.5607 168.04 15.8127 168.141 16.0108 168.298C16.2115 168.454 16.3595 168.652 16.4549 168.892C16.5527 169.13 16.6017 169.394 16.6017 169.685C16.6017 169.974 16.5527 170.238 16.4549 170.478C16.357 170.715 16.2078 170.912 16.0072 171.068C15.809 171.225 15.5582 171.327 15.2549 171.373C15.1863 171.383 15.1105 171.39 15.0273 171.395C14.9466 171.4 14.8818 171.402 14.8328 171.402H13.5337V173.248H12.6493ZM13.5337 170.577H14.7961C14.8451 170.577 14.9001 170.574 14.9613 170.569C15.0224 170.564 15.0787 170.555 15.1301 170.54C15.2769 170.503 15.3919 170.438 15.475 170.345C15.5607 170.252 15.6206 170.147 15.6549 170.03C15.6916 169.912 15.7099 169.797 15.7099 169.685C15.7099 169.572 15.6916 169.457 15.6549 169.34C15.6206 169.22 15.5607 169.114 15.475 169.021C15.3919 168.928 15.2769 168.863 15.1301 168.826C15.0787 168.811 15.0224 168.803 14.9613 168.8C14.9001 168.796 14.8451 168.793 14.7961 168.793H13.5337V170.577ZM17.1901 173.248V167.964H18.8746C18.9186 167.964 19.0054 167.965 19.1351 167.967C19.2672 167.97 19.3944 167.978 19.5168 167.993C19.9351 168.047 20.2887 168.196 20.5774 168.441C20.8685 168.683 21.0887 168.993 21.2379 169.369C21.3872 169.746 21.4618 170.158 21.4618 170.606C21.4618 171.054 21.3872 171.466 21.2379 171.843C21.0887 172.22 20.8685 172.53 20.5774 172.775C20.2887 173.017 19.9351 173.165 19.5168 173.219C19.3969 173.234 19.2709 173.242 19.1388 173.245C19.0067 173.247 18.9186 173.248 18.8746 173.248H17.1901ZM18.0892 172.415H18.8746C18.948 172.415 19.0409 172.413 19.1535 172.408C19.2684 172.403 19.37 172.392 19.4581 172.375C19.7076 172.328 19.9107 172.217 20.0672 172.041C20.2238 171.865 20.3388 171.651 20.4122 171.399C20.4881 171.147 20.526 170.882 20.526 170.606C20.526 170.32 20.4881 170.051 20.4122 169.799C20.3364 169.547 20.2189 169.335 20.0599 169.164C19.9033 168.993 19.7027 168.884 19.4581 168.837C19.37 168.818 19.2684 168.807 19.1535 168.804C19.0409 168.799 18.948 168.797 18.8746 168.797H18.0892V172.415ZM23.773 173.248L25.5932 168.8H23.2849V167.964H26.54V168.8L24.7271 173.248H23.773ZM29.0994 173.358C28.7544 173.358 28.4437 173.278 28.1672 173.116C27.8932 172.952 27.6755 172.726 27.514 172.437C27.3525 172.149 27.2718 171.817 27.2718 171.443V169.835C27.2718 169.434 27.3513 169.085 27.5103 168.789C27.6718 168.493 27.8969 168.265 28.1856 168.103C28.4767 167.942 28.8143 167.861 29.1984 167.861C29.4651 167.861 29.7183 167.906 29.9581 167.997C30.1979 168.085 30.4107 168.227 30.5966 168.422L29.9581 169.043C29.8651 168.933 29.7514 168.846 29.6168 168.782C29.4847 168.719 29.3452 168.687 29.1984 168.687C28.9929 168.687 28.8131 168.736 28.659 168.833C28.5048 168.929 28.385 169.055 28.2993 169.211C28.2162 169.368 28.1746 169.536 28.1746 169.714V170.591L28.0131 170.415C28.1648 170.239 28.347 170.102 28.5599 170.004C28.7727 169.904 28.9954 169.854 29.2278 169.854C29.5605 169.854 29.8541 169.93 30.1086 170.081C30.363 170.23 30.5636 170.436 30.7104 170.698C30.8572 170.957 30.9306 171.253 30.9306 171.586C30.9306 171.916 30.8462 172.216 30.6774 172.485C30.511 172.752 30.2896 172.964 30.0131 173.124C29.7367 173.28 29.4321 173.358 29.0994 173.358ZM29.0994 172.511C29.2706 172.511 29.4272 172.47 29.5691 172.39C29.711 172.306 29.8235 172.195 29.9067 172.056C29.9923 171.914 30.0352 171.757 30.0352 171.586C30.0352 171.415 29.9936 171.258 29.9104 171.116C29.8272 170.974 29.7147 170.862 29.5728 170.779C29.4333 170.693 29.278 170.65 29.1067 170.65C28.9354 170.65 28.7789 170.693 28.637 170.779C28.4951 170.862 28.3825 170.974 28.2993 171.116C28.2162 171.258 28.1746 171.415 28.1746 171.586C28.1746 171.752 28.2149 171.906 28.2957 172.048C28.3788 172.188 28.4902 172.3 28.6296 172.386C28.7715 172.469 28.9281 172.511 29.0994 172.511ZM31.8304 173.248V172.342H32.7368V173.248H31.8304ZM35.6669 173.358C35.2926 173.358 34.9623 173.279 34.676 173.12C34.3898 172.958 34.1659 172.735 34.0045 172.448C33.8454 172.162 33.7659 171.832 33.7659 171.457V169.755C33.7659 169.38 33.8454 169.05 34.0045 168.764C34.1659 168.478 34.3898 168.255 34.676 168.096C34.9623 167.934 35.2926 167.854 35.6669 167.854C36.0412 167.854 36.3703 167.934 36.6541 168.096C36.9403 168.255 37.1642 168.478 37.3257 168.764C37.4871 169.05 37.5679 169.38 37.5679 169.755V171.457C37.5679 171.832 37.4871 172.162 37.3257 172.448C37.1642 172.735 36.9403 172.958 36.6541 173.12C36.3703 173.279 36.0412 173.358 35.6669 173.358ZM35.6669 172.518C35.8528 172.518 36.0216 172.474 36.1733 172.386C36.325 172.295 36.4449 172.175 36.533 172.026C36.621 171.875 36.6651 171.706 36.6651 171.52V169.689C36.6651 169.5 36.621 169.331 36.533 169.182C36.4449 169.03 36.325 168.911 36.1733 168.822C36.0216 168.732 35.8528 168.687 35.6669 168.687C35.481 168.687 35.3121 168.732 35.1605 168.822C35.0088 168.911 34.8889 169.03 34.8008 169.182C34.7127 169.331 34.6687 169.5 34.6687 169.689V171.52C34.6687 171.706 34.7127 171.875 34.8008 172.026C34.8889 172.175 35.0088 172.295 35.1605 172.386C35.3121 172.474 35.481 172.518 35.6669 172.518Z" fill="#1A2C58"/>
<path d="M41.5713 171.248H48.195" stroke="#1A2C58" stroke-width="1.41936" stroke-linecap="square"/>
</g>
<g opacity="0.7" filter="url(#filter5_f_21303_6247)">
<rect width="51.6538" height="15.3396" transform="translate(2 185.157)" fill="#E8EAF5"/>
<path d="M9.42828 194.937C9.04173 194.937 8.6931 194.869 8.38239 194.735C8.07412 194.6 7.81968 194.408 7.61906 194.159C7.42089 193.907 7.2949 193.608 7.24107 193.263L8.15853 193.124C8.23682 193.437 8.39706 193.679 8.63927 193.85C8.88393 194.022 9.16528 194.107 9.48333 194.107C9.67171 194.107 9.84909 194.078 10.0155 194.019C10.1818 193.961 10.3164 193.875 10.4191 193.762C10.5243 193.65 10.5769 193.512 10.5769 193.348C10.5769 193.274 10.5647 193.207 10.5402 193.146C10.5158 193.082 10.4791 193.026 10.4301 192.977C10.3837 192.928 10.3225 192.884 10.2467 192.845C10.1733 192.803 10.0876 192.768 9.98977 192.739L8.62459 192.335C8.50716 192.301 8.37994 192.255 8.24293 192.199C8.10837 192.14 7.97993 192.061 7.8576 191.961C7.73772 191.858 7.63864 191.728 7.56035 191.572C7.4845 191.413 7.44658 191.217 7.44658 190.984C7.44658 190.644 7.53221 190.359 7.70347 190.129C7.87717 189.897 8.1096 189.723 8.40073 189.608C8.69432 189.493 9.01971 189.437 9.37691 189.439C9.73899 189.442 10.0619 189.504 10.3457 189.627C10.6295 189.746 10.8669 189.921 11.0577 190.151C11.2485 190.381 11.3831 190.659 11.4614 190.984L10.5109 191.15C10.4717 190.964 10.3959 190.806 10.2834 190.676C10.1733 190.544 10.0375 190.444 9.876 190.375C9.71698 190.307 9.54694 190.27 9.3659 190.265C9.18975 190.263 9.02583 190.29 8.87414 190.346C8.7249 190.4 8.6038 190.478 8.51083 190.581C8.42031 190.683 8.37505 190.803 8.37505 190.94C8.37505 191.07 8.41419 191.176 8.49248 191.26C8.57077 191.34 8.66741 191.405 8.7824 191.454C8.89983 191.501 9.01849 191.54 9.13837 191.572L10.0852 191.836C10.2148 191.87 10.3604 191.916 10.5219 191.975C10.6834 192.034 10.8387 192.116 10.988 192.221C11.1372 192.326 11.2595 192.465 11.3549 192.636C11.4528 192.807 11.5017 193.025 11.5017 193.289C11.5017 193.563 11.4442 193.804 11.3292 194.012C11.2167 194.217 11.0638 194.389 10.8705 194.526C10.6772 194.663 10.4558 194.765 10.2063 194.834C9.95918 194.903 9.69985 194.937 9.42828 194.937ZM12.1493 194.827V189.542H14.3328C14.3842 189.542 14.4503 189.545 14.531 189.549C14.6117 189.552 14.6863 189.559 14.7549 189.571C15.0607 189.618 15.3127 189.719 15.5108 189.876C15.7115 190.033 15.8595 190.231 15.9549 190.471C16.0527 190.708 16.1017 190.972 16.1017 191.263C16.1017 191.552 16.0527 191.816 15.9549 192.056C15.857 192.293 15.7078 192.49 15.5072 192.647C15.309 192.803 15.0582 192.905 14.7549 192.951C14.6863 192.961 14.6105 192.969 14.5273 192.973C14.4466 192.978 14.3818 192.981 14.3328 192.981H13.0337V194.827H12.1493ZM13.0337 192.155H14.2961C14.3451 192.155 14.4001 192.153 14.4613 192.148C14.5224 192.143 14.5787 192.133 14.6301 192.118C14.7769 192.082 14.8919 192.017 14.975 191.924C15.0607 191.831 15.1206 191.726 15.1549 191.608C15.1916 191.491 15.2099 191.376 15.2099 191.263C15.2099 191.151 15.1916 191.036 15.1549 190.918C15.1206 190.798 15.0607 190.692 14.975 190.599C14.8919 190.506 14.7769 190.441 14.6301 190.405C14.5787 190.39 14.5224 190.381 14.4613 190.379C14.4001 190.374 14.3451 190.372 14.2961 190.372H13.0337V192.155ZM18.925 194.937C18.3966 194.937 17.944 194.822 17.5672 194.592C17.1904 194.359 16.9005 194.036 16.6974 193.623C16.4968 193.209 16.3965 192.73 16.3965 192.184C16.3965 191.639 16.4968 191.159 16.6974 190.746C16.9005 190.332 17.1904 190.011 17.5672 189.781C17.944 189.548 18.3966 189.432 18.925 189.432C19.5342 189.432 20.0419 189.585 20.448 189.891C20.8541 190.194 21.1392 190.604 21.3031 191.12L20.4113 191.366C20.3085 191.021 20.1336 190.752 19.8865 190.559C19.6394 190.363 19.3189 190.265 18.925 190.265C18.5703 190.265 18.2742 190.345 18.0369 190.504C17.8021 190.663 17.6247 190.886 17.5048 191.175C17.3874 191.461 17.3274 191.798 17.325 192.184C17.325 192.571 17.3837 192.909 17.5011 193.197C17.621 193.484 17.7996 193.706 18.0369 193.865C18.2742 194.024 18.5703 194.104 18.925 194.104C19.3189 194.104 19.6394 194.006 19.8865 193.81C20.1336 193.614 20.3085 193.345 20.4113 193.003L21.3031 193.249C21.1392 193.765 20.8541 194.176 20.448 194.482C20.0419 194.785 19.5342 194.937 18.925 194.937ZM25.0131 194.937C24.6632 194.937 24.3525 194.866 24.0809 194.724C23.8094 194.582 23.5965 194.385 23.4424 194.133C23.2883 193.881 23.2112 193.592 23.2112 193.267C23.2112 192.976 23.2785 192.706 23.413 192.456C23.5476 192.206 23.7445 192.007 24.0039 191.858L23.9855 192.14C23.7825 191.986 23.6247 191.809 23.5121 191.608C23.402 191.405 23.347 191.178 23.347 190.926C23.347 190.622 23.4179 190.359 23.5598 190.137C23.7042 189.914 23.9011 189.742 24.1507 189.619C24.4002 189.494 24.6877 189.432 25.0131 189.432C25.3385 189.432 25.6259 189.494 25.8755 189.619C26.1275 189.742 26.3244 189.914 26.4663 190.137C26.6107 190.359 26.6829 190.622 26.6829 190.926C26.6829 191.178 26.629 191.404 26.5214 191.605C26.4162 191.805 26.2559 191.986 26.0406 192.148L26.037 191.861C26.2914 192.006 26.4859 192.204 26.6205 192.456C26.7575 192.706 26.826 192.976 26.826 193.267C26.826 193.592 26.7477 193.881 26.5911 194.133C26.437 194.385 26.2229 194.582 25.9489 194.724C25.6773 194.866 25.3654 194.937 25.0131 194.937ZM25.0131 194.104C25.2724 194.104 25.4828 194.033 25.6443 193.891C25.8082 193.749 25.8902 193.541 25.8902 193.267C25.8902 192.993 25.8094 192.785 25.648 192.643C25.4865 192.499 25.2749 192.427 25.0131 192.427C24.7537 192.427 24.5446 192.499 24.3855 192.643C24.2265 192.785 24.147 192.993 24.147 193.267C24.147 193.541 24.2265 193.749 24.3855 193.891C24.5446 194.033 24.7537 194.104 25.0131 194.104ZM25.0131 191.586C25.2308 191.586 25.407 191.532 25.5415 191.425C25.6785 191.315 25.747 191.148 25.747 190.926C25.747 190.703 25.6785 190.538 25.5415 190.43C25.407 190.32 25.2308 190.265 25.0131 190.265C24.7978 190.265 24.6216 190.32 24.4846 190.43C24.3501 190.538 24.2828 190.703 24.2828 190.926C24.2828 191.148 24.3501 191.315 24.4846 191.425C24.6216 191.532 24.7978 191.586 25.0131 191.586ZM29.3384 189.439C29.6833 189.439 29.994 189.521 30.2705 189.685C30.547 189.847 30.7647 190.072 30.9237 190.36C31.0852 190.647 31.1659 190.977 31.1659 191.351V192.962C31.1659 193.361 31.0852 193.71 30.9237 194.008C30.7647 194.304 30.5408 194.533 30.2521 194.695C29.9635 194.856 29.6258 194.937 29.2393 194.937C28.9726 194.937 28.7206 194.891 28.4833 194.801C28.246 194.708 28.0331 194.566 27.8447 194.375L28.4796 193.755C28.575 193.865 28.6888 193.952 28.8209 194.016C28.9555 194.077 29.0949 194.107 29.2393 194.107C29.4448 194.107 29.6246 194.06 29.7787 193.964C29.9329 193.866 30.0528 193.74 30.1384 193.586C30.224 193.43 30.2668 193.262 30.2668 193.083V192.206L30.4246 192.383C30.2754 192.559 30.0943 192.697 29.8815 192.797C29.6686 192.895 29.4448 192.944 29.2099 192.944C28.8796 192.944 28.5861 192.868 28.3292 192.717C28.0747 192.565 27.8741 192.359 27.7273 192.1C27.583 191.838 27.5108 191.542 27.5108 191.212C27.5108 190.882 27.594 190.583 27.7603 190.316C27.9267 190.047 28.1481 189.834 28.4246 189.678C28.7035 189.519 29.0081 189.439 29.3384 189.439ZM29.3384 190.283C29.1671 190.283 29.0105 190.325 28.8686 190.408C28.7267 190.491 28.6142 190.604 28.531 190.746C28.4478 190.885 28.4062 191.041 28.4062 191.212C28.4062 191.383 28.4466 191.54 28.5273 191.682C28.6105 191.824 28.7218 191.936 28.8613 192.019C29.0032 192.102 29.1598 192.144 29.331 192.144C29.5023 192.144 29.6589 192.102 29.8008 192.019C29.9427 191.936 30.0552 191.824 30.1384 191.682C30.224 191.54 30.2668 191.383 30.2668 191.212C30.2668 191.046 30.2252 190.893 30.1421 190.753C30.0589 190.611 29.9463 190.497 29.8044 190.412C29.665 190.326 29.5096 190.283 29.3384 190.283ZM32.1547 194.827V193.92H33.0611V194.827H32.1547ZM35.9912 194.937C35.6169 194.937 35.2866 194.857 35.0003 194.698C34.7141 194.537 34.4902 194.313 34.3287 194.027C34.1697 193.74 34.0902 193.41 34.0902 193.036V191.333C34.0902 190.959 34.1697 190.628 34.3287 190.342C34.4902 190.056 34.7141 189.833 35.0003 189.674C35.2866 189.513 35.6169 189.432 35.9912 189.432C36.3655 189.432 36.6946 189.513 36.9784 189.674C37.2646 189.833 37.4885 190.056 37.6499 190.342C37.8114 190.628 37.8921 190.959 37.8921 191.333V193.036C37.8921 193.41 37.8114 193.74 37.6499 194.027C37.4885 194.313 37.2646 194.537 36.9784 194.698C36.6946 194.857 36.3655 194.937 35.9912 194.937ZM35.9912 194.096C36.1771 194.096 36.3459 194.052 36.4976 193.964C36.6493 193.874 36.7692 193.754 36.8572 193.605C36.9453 193.453 36.9894 193.284 36.9894 193.098V191.267C36.9894 191.079 36.9453 190.91 36.8572 190.761C36.7692 190.609 36.6493 190.489 36.4976 190.401C36.3459 190.31 36.1771 190.265 35.9912 190.265C35.8052 190.265 35.6364 190.31 35.4847 190.401C35.3331 190.489 35.2132 190.609 35.1251 190.761C35.037 190.91 34.993 191.079 34.993 191.267V193.098C34.993 193.284 35.037 193.453 35.1251 193.605C35.2132 193.754 35.3331 193.874 35.4847 193.964C35.6364 194.052 35.8052 194.096 35.9912 194.096Z" fill="#1A2C58"/>
<path d="M42.0713 192.827H48.695" stroke="#1A2C58" stroke-width="1.41936" stroke-linecap="square"/>
</g>
<defs>
<filter id="filter0_bd_21303_6247" x="32.0549" y="0.104485" width="339.136" height="232.585" filterUnits="userSpaceOnUse" color-interpolation-filters="sRGB">
<feFlood flood-opacity="0" result="BackgroundImageFix"/>
<feGaussianBlur in="BackgroundImageFix" stdDeviation="7.90682"/>
<feComposite in2="SourceAlpha" operator="in" result="effect1_backgroundBlur_21303_6247"/>
<feColorMatrix in="SourceAlpha" type="matrix" values="0 0 0 0 0 0 0 0 0 0 0 0 0 0 0 0 0 0 127 0" result="hardAlpha"/>
<feOffset/>
<feGaussianBlur stdDeviation="16.4725"/>
<feComposite in2="hardAlpha" operator="out"/>
<feColorMatrix type="matrix" values="0 0 0 0 0.00392157 0 0 0 0 0.0784314 0 0 0 0 0.270588 0 0 0 0.15 0"/>
<feBlend mode="normal" in2="effect1_backgroundBlur_21303_6247" result="effect2_dropShadow_21303_6247"/>
<feBlend mode="normal" in="SourceGraphic" in2="effect2_dropShadow_21303_6247" result="shape"/>
</filter>
<filter id="filter1_dd_21303_6247" x="191.697" y="13" width="181.606" height="57.3472" filterUnits="userSpaceOnUse" color-interpolation-filters="sRGB">
<feFlood flood-opacity="0" result="BackgroundImageFix"/>
<feColorMatrix in="SourceAlpha" type="matrix" values="0 0 0 0 0 0 0 0 0 0 0 0 0 0 0 0 0 0 127 0" result="hardAlpha"/>
<feMorphology radius="2.0606" operator="erode" in="SourceAlpha" result="effect1_dropShadow_21303_6247"/>
<feOffset dy="4.1212"/>
<feGaussianBlur stdDeviation="2.0606"/>
<feColorMatrix type="matrix" values="0 0 0 0 0.00392157 0 0 0 0 0.0784314 0 0 0 0 0.270588 0 0 0 0.03 0"/>
<feBlend mode="normal" in2="BackgroundImageFix" result="effect1_dropShadow_21303_6247"/>
<feColorMatrix in="SourceAlpha" type="matrix" values="0 0 0 0 0 0 0 0 0 0 0 0 0 0 0 0 0 0 127 0" result="hardAlpha"/>
<feMorphology radius="2.0606" operator="erode" in="SourceAlpha" result="effect2_dropShadow_21303_6247"/>
<feOffset dy="10.303"/>
<feGaussianBlur stdDeviation="6.1818"/>
<feColorMatrix type="matrix" values="0 0 0 0 0.00392157 0 0 0 0 0.0784314 0 0 0 0 0.270588 0 0 0 0.08 0"/>
<feBlend mode="normal" in2="effect1_dropShadow_21303_6247" result="effect2_dropShadow_21303_6247"/>
<feBlend mode="normal" in="SourceGraphic" in2="effect2_dropShadow_21303_6247" result="shape"/>
</filter>
<filter id="filter2_b_21303_6247" x="189.208" y="0.208035" width="186.584" height="62.3251" filterUnits="userSpaceOnUse" color-interpolation-filters="sRGB">
<feFlood flood-opacity="0" result="BackgroundImageFix"/>
<feGaussianBlur in="BackgroundImageFix" stdDeviation="6.39598"/>
<feComposite in2="SourceAlpha" operator="in" result="effect1_backgroundBlur_21303_6247"/>
<feBlend mode="normal" in="SourceGraphic" in2="effect1_backgroundBlur_21303_6247" result="shape"/>
</filter>
<filter id="filter3_d_21303_6247" x="211.579" y="19.6526" width="24.0469" height="24.0469" filterUnits="userSpaceOnUse" color-interpolation-filters="sRGB">
<feFlood flood-opacity="0" result="BackgroundImageFix"/>
<feColorMatrix in="SourceAlpha" type="matrix" values="0 0 0 0 0 0 0 0 0 0 0 0 0 0 0 0 0 0 127 0" result="hardAlpha"/>
<feOffset dx="1.61406" dy="3.63164"/>
<feGaussianBlur stdDeviation="2.01758"/>
<feComposite in2="hardAlpha" operator="out"/>
<feColorMatrix type="matrix" values="0 0 0 0 0.6875 0 0 0 0 0.678906 0 0 0 0 0.678906 0 0 0 0.1 0"/>
<feBlend mode="normal" in2="BackgroundImageFix" result="effect1_dropShadow_21303_6247"/>
<feBlend mode="normal" in="SourceGraphic" in2="effect1_dropShadow_21303_6247" result="shape"/>
</filter>
<filter id="filter4_f_21303_6247" x="0.638129" y="162.216" width="54.3776" height="18.0633" filterUnits="userSpaceOnUse" color-interpolation-filters="sRGB">
<feFlood flood-opacity="0" result="BackgroundImageFix"/>
<feBlend mode="normal" in="SourceGraphic" in2="BackgroundImageFix" result="shape"/>
<feGaussianBlur stdDeviation="0.680935" result="effect1_foregroundBlur_21303_6247"/>
</filter>
<filter id="filter5_f_21303_6247" x="0.638129" y="183.795" width="54.3776" height="18.0633" filterUnits="userSpaceOnUse" color-interpolation-filters="sRGB">
<feFlood flood-opacity="0" result="BackgroundImageFix"/>
<feBlend mode="normal" in="SourceGraphic" in2="BackgroundImageFix" result="shape"/>
<feGaussianBlur stdDeviation="0.680935" result="effect1_foregroundBlur_21303_6247"/>
</filter>
<linearGradient id="paint0_linear_21303_6247" x1="202.087" y1="67.2593" x2="202.087" y2="172.861" gradientUnits="userSpaceOnUse">
<stop stop-color="#1C79AE"/>
<stop offset="1" stop-color="#1C79AE" stop-opacity="0"/>
</linearGradient>
</defs>
</svg>
