<svg width="20" height="18" viewBox="0 0 20 18" fill="none" xmlns="http://www.w3.org/2000/svg">
<path d="M0.941406 3.14408C0.941406 1.93122 1.92462 0.947998 3.13748 0.947998H17.5689C18.7817 0.947998 19.7649 1.93122 19.7649 3.14408C19.7649 4.35694 18.7817 5.34015 17.5689 5.34015H3.13748C1.92462 5.34015 0.941406 4.35694 0.941406 3.14408Z" fill="#011445"/>
<path d="M4.60154 9.00029C4.60154 7.78743 5.58475 6.80421 6.79761 6.80421H13.9087C15.1216 6.80421 16.1048 7.78743 16.1048 9.00029C16.1048 10.2131 15.1216 11.1964 13.9087 11.1964H6.79762C5.58476 11.1964 4.60154 10.2131 4.60154 9.00029Z" fill="#011445"/>
<path d="M7.21592 14.8565C7.21592 13.6436 8.19913 12.6604 9.41199 12.6604H11.2944C12.5072 12.6604 13.4904 13.6436 13.4904 14.8565C13.4904 16.0694 12.5072 17.0526 11.2943 17.0526H9.41199C8.19913 17.0526 7.21592 16.0694 7.21592 14.8565Z" fill="#011445"/>
</svg>
