<svg xmlns="http://www.w3.org/2000/svg" width="222" height="35" fill="none"><path fill="#fff" d="M.013 7.21A3.967 3.967 0 0 1 3.98 3.244h26.067a3.967 3.967 0 0 1 0 7.933H3.98A3.967 3.967 0 0 1 .013 7.21ZM6.624 17.788a3.967 3.967 0 0 1 3.967-3.967h12.844a3.967 3.967 0 0 1 0 7.934H10.591a3.967 3.967 0 0 1-3.967-3.967ZM11.347 28.366a3.967 3.967 0 0 1 3.966-3.967h3.4a3.967 3.967 0 0 1 0 7.934h-3.4a3.967 3.967 0 0 1-3.966-3.967ZM55.888 34.788c-2.236 0-4.307-.408-6.21-1.224a15.524 15.524 0 0 1-4.942-3.4c-1.39-1.48-2.478-3.204-3.264-5.168-.755-1.995-1.133-4.17-1.133-6.528 0-2.357.378-4.518 1.133-6.483.786-1.994 1.874-3.717 3.264-5.168a15.183 15.183 0 0 1 4.941-3.445c1.904-.816 3.975-1.224 6.211-1.224s4.292.408 6.165 1.224a14.57 14.57 0 0 1 4.942 3.445c1.42 1.481 2.508 3.22 3.264 5.214.785 1.964 1.178 4.11 1.178 6.437s-.392 4.488-1.178 6.483a15.336 15.336 0 0 1-3.264 5.168 14.572 14.572 0 0 1-4.942 3.445c-1.873.816-3.928 1.224-6.165 1.224Zm0-4.76c1.541 0 2.947-.287 4.216-.861a9.9 9.9 0 0 0 3.355-2.403 11.482 11.482 0 0 0 2.176-3.672c.544-1.42.816-2.962.816-4.624 0-1.662-.272-3.188-.816-4.579-.514-1.42-1.24-2.644-2.176-3.672a9.625 9.625 0 0 0-3.355-2.448c-1.27-.574-2.675-.86-4.216-.86-1.541 0-2.962.286-4.261.86a10.524 10.524 0 0 0-3.355 2.403c-.937 1.028-1.662 2.252-2.176 3.672-.514 1.39-.77 2.932-.77 4.624 0 1.662.256 3.204.77 4.624.514 1.42 1.24 2.645 2.176 3.672a10.526 10.526 0 0 0 3.355 2.403c1.3.574 2.72.861 4.261.861ZM76.555 34.335a1.179 1.179 0 0 1-1.178-1.179v-21.11c0-.835.676-1.511 1.51-1.511h1.648c.834 0 1.51.676 1.51 1.51v3.225c0 .1-.05.194-.133.25-.233.156-.517-.059-.404-.316.334-.761.83-1.472 1.49-2.13a10.018 10.018 0 0 1 3.128-2.177c1.209-.574 2.448-.86 3.717-.86 1.814 0 3.325.362 4.534 1.087 1.209.695 2.115 1.768 2.72 3.219.604 1.45.906 3.279.906 5.485v12.996c0 .834-.676 1.51-1.51 1.51h-1.648a1.511 1.511 0 0 1-1.511-1.51V20.145c0-1.36-.181-2.478-.544-3.354-.363-.907-.922-1.557-1.677-1.95-.756-.423-1.693-.604-2.811-.544-.907 0-1.738.151-2.493.454a6.011 6.011 0 0 0-1.995 1.178 6.071 6.071 0 0 0-1.315 1.814 5.195 5.195 0 0 0-.453 2.176v12.905c0 .834-.677 1.51-1.511 1.51h-1.98ZM111.933 34.788c-2.448 0-4.624-.514-6.528-1.541-1.874-1.058-3.355-2.494-4.443-4.307-1.057-1.813-1.586-3.899-1.586-6.256 0-1.874.302-3.581.906-5.123.605-1.54 1.436-2.87 2.494-3.989a10.936 10.936 0 0 1 3.853-2.63c1.511-.634 3.143-.951 4.896-.951 1.541 0 2.977.302 4.307.906a10.255 10.255 0 0 1 3.445 2.403c.997 1.028 1.753 2.252 2.267 3.672.544 1.39.801 2.916.77 4.579l-.011.518a1.512 1.512 0 0 1-1.511 1.476h-16.825a1.51 1.51 0 0 1-1.455-1.103l-.195-.695a1.51 1.51 0 0 1 1.455-1.919h13.994a.212.212 0 1 1-.212.211v-.528a5.248 5.248 0 0 0-.997-2.675 6.157 6.157 0 0 0-2.176-1.859 6.122 6.122 0 0 0-2.856-.68c-1.632 0-3.007.318-4.125.952-1.118.605-1.965 1.511-2.539 2.72-.574 1.18-.861 2.645-.861 4.398 0 1.662.347 3.113 1.042 4.352.696 1.209 1.678 2.145 2.947 2.81 1.269.665 2.735.998 4.397.998 1.179 0 2.267-.197 3.264-.59.638-.244 1.305-.61 2.001-1.098.731-.513 1.758-.402 2.276.326l.648.91c.429.6.366 1.433-.222 1.879-.512.387-1.082.743-1.711 1.066a16.77 16.77 0 0 1-3.309 1.315 13.32 13.32 0 0 1-3.4.453ZM127.699 34.335a1.51 1.51 0 0 1-1.511-1.511V4.113a1.51 1.51 0 0 1 1.511-1.512h10.049c2.055 0 3.974.393 5.757 1.18a14.147 14.147 0 0 1 4.669 3.308c1.36 1.39 2.418 3.053 3.174 4.987.785 1.934 1.178 4.065 1.178 6.392 0 2.297-.393 4.428-1.178 6.392-.756 1.934-1.814 3.612-3.174 5.032a14.471 14.471 0 0 1-4.669 3.264c-1.783.786-3.702 1.179-5.757 1.179h-10.049Zm.755-2.063a.203.203 0 1 1-.203-.203h9.27c1.723 0 3.339-.333 4.851-.998a12.134 12.134 0 0 0 4.034-2.81 14.086 14.086 0 0 0 2.72-4.308c.665-1.662.998-3.49.998-5.485s-.333-3.808-.998-5.44c-.665-1.662-1.571-3.098-2.72-4.307a11.835 11.835 0 0 0-4.034-2.856c-1.512-.664-3.128-.997-4.851-.997h-9.278a.211.211 0 1 1 .211-.211v27.615ZM166.365 34.788c-2.146 0-4.065-.529-5.758-1.587-1.692-1.057-3.037-2.508-4.034-4.352-.968-1.843-1.451-3.944-1.451-6.3 0-2.389.499-4.504 1.496-6.348 1.027-1.843 2.387-3.294 4.08-4.352 1.692-1.057 3.581-1.586 5.667-1.586 1.208 0 2.357.181 3.445.544 1.088.362 2.07.876 2.947 1.541.876.635 1.632 1.39 2.266 2.267.457.631.82 1.301 1.089 2.011.111.293-.21.532-.473.361a.34.34 0 0 1-.155-.3l.18-4.859a1.108 1.108 0 0 1 2.215.042V33.2a1.133 1.133 0 1 1-2.266 0v-4.664a.25.25 0 0 1 .063-.167c.176-.197.466-.032.364.212a8.813 8.813 0 0 1-1.017 1.809 10.944 10.944 0 0 1-2.266 2.312 10.153 10.153 0 0 1-2.947 1.541 10.824 10.824 0 0 1-3.445.544Zm.317-2.267c1.723 0 3.264-.423 4.624-1.269a9.2 9.2 0 0 0 3.264-3.536c.816-1.511 1.224-3.249 1.224-5.213 0-1.934-.393-3.642-1.179-5.123-.786-1.511-1.874-2.69-3.264-3.536-1.36-.876-2.916-1.315-4.669-1.315-1.783 0-3.37.439-4.76 1.315-1.36.846-2.433 2.025-3.219 3.536-.786 1.481-1.178 3.189-1.178 5.123 0 1.904.377 3.611 1.133 5.122.786 1.512 1.859 2.705 3.219 3.582 1.39.876 2.992 1.314 4.805 1.314ZM190.667 34.788c-2.055 0-3.883-.393-5.485-1.179-1.214-.618-2.211-1.332-2.992-2.142-.413-.429-.334-1.105.116-1.496.501-.434 1.261-.346 1.735.118a8.432 8.432 0 0 0 2.365 1.616c1.3.575 2.765.862 4.397.862.907 0 1.738-.09 2.494-.272.755-.212 1.39-.499 1.904-.862.544-.362.967-.8 1.269-1.314a3.673 3.673 0 0 0 .453-1.814c0-1.178-.559-2.176-1.677-2.992-.514-.362-1.164-.695-1.949-.997a33.202 33.202 0 0 0-2.766-.907 64.171 64.171 0 0 1-4.08-1.36c-1.118-.423-2.01-.952-2.674-1.586a5.48 5.48 0 0 1-1.088-1.632 5.196 5.196 0 0 1-.363-1.95c0-.967.196-1.843.589-2.629a6.32 6.32 0 0 1 1.678-2.13 7.329 7.329 0 0 1 2.538-1.36c.967-.333 2.04-.5 3.219-.5 1.118 0 2.221.167 3.309.5a11.855 11.855 0 0 1 4.745 2.579c.438.392.435 1.063.037 1.496-.45.49-1.22.483-1.714.038-.355-.32-.728-.618-1.118-.895a7.957 7.957 0 0 0-2.312-1.179c-.847-.302-1.784-.453-2.811-.453-.816 0-1.587.106-2.312.317a5.19 5.19 0 0 0-1.813.952 4.517 4.517 0 0 0-1.224 1.406 3.624 3.624 0 0 0-.408 1.722c0 .484.09.922.272 1.315.181.363.468.71.861 1.043.514.423 1.194.785 2.04 1.088.876.302 1.949.634 3.219.997a42.99 42.99 0 0 1 3.037.907c.876.302 1.632.665 2.267 1.088.967.604 1.677 1.314 2.13 2.13.484.816.726 1.753.726 2.811 0 1.3-.363 2.448-1.088 3.445-.726.998-1.738 1.784-3.038 2.358-1.299.574-2.795.861-4.488.861ZM203.626 34.335a.816.816 0 0 1-.816-.816V1.92a1.133 1.133 0 1 1 2.266 0v14.233c0 .031-.008.061-.025.087-.098.156-.308.063-.246-.11a7.599 7.599 0 0 1 1.631-2.695 9.605 9.605 0 0 1 3.264-2.357c1.27-.544 2.539-.816 3.808-.816 1.814 0 3.31.347 4.488 1.042 1.209.696 2.101 1.768 2.675 3.22.574 1.45.861 3.293.861 5.53V33.2a1.133 1.133 0 1 1-2.266 0V20.145c0-1.753-.227-3.188-.68-4.306-.454-1.149-1.149-1.995-2.086-2.539-.906-.574-2.07-.861-3.49-.861a7.718 7.718 0 0 0-3.128.634 7.957 7.957 0 0 0-2.539 1.632 8.38 8.38 0 0 0-1.677 2.403 6.79 6.79 0 0 0-.59 2.81v13.283c0 .626-.507 1.134-1.133 1.134h-.317Z"/></svg>