<svg xmlns="http://www.w3.org/2000/svg" xmlns:xlink="http://www.w3.org/1999/xlink" width="150" height="23" fill="none"><mask id="a" width="23" height="21" x="0" y="1" maskUnits="userSpaceOnUse" style="mask-type:alpha"><path fill="#fff" d="M.009 4.284c0-1.48 1.2-2.68 2.68-2.68h17.612a2.68 2.68 0 0 1 0 5.36H2.689a2.68 2.68 0 0 1-2.68-2.68Zm4.467 7.147c0-1.48 1.2-2.68 2.68-2.68h8.678a2.68 2.68 0 1 1 0 5.36H7.156a2.68 2.68 0 0 1-2.68-2.68Zm3.19 7.147c0-1.48 1.2-2.68 2.68-2.68h2.298a2.68 2.68 0 0 1 0 5.36h-2.298a2.68 2.68 0 0 1-2.68-2.68Z"/></mask><g mask="url(#a)"><path fill="#186491" d="M-1.14-4.266h25.524v30.884H-1.14z"/><path fill="url(#b)" fill-opacity=".7" d="M-1.14-4.266h25.524v30.884H-1.14z" style="mix-blend-mode:soft-light"/></g><mask id="c" width="123" height="24" x="27" y="-1" maskUnits="userSpaceOnUse" style="mask-type:alpha"><path fill="#fff" d="M37.76 22.917c-1.51 0-2.91-.275-4.196-.827a10.486 10.486 0 0 1-3.338-2.297c-.94-1-1.675-2.164-2.206-3.492-.51-1.347-.765-2.818-.765-4.41 0-1.593.255-3.053.765-4.38.531-1.348 1.266-2.512 2.206-3.492.96-1 2.072-1.776 3.338-2.328 1.287-.551 2.685-.827 4.197-.827 1.51 0 2.899.276 4.165.827a9.843 9.843 0 0 1 3.339 2.328c.96 1 1.694 2.175 2.205 3.522.53 1.328.796 2.777.796 4.35 0 1.572-.265 3.032-.796 4.38a10.36 10.36 0 0 1-2.205 3.491 9.842 9.842 0 0 1-3.339 2.328c-1.266.552-2.654.827-4.166.827Zm0-3.216c1.042 0 1.991-.194 2.849-.582a6.689 6.689 0 0 0 2.267-1.623 7.757 7.757 0 0 0 1.47-2.481c.367-.96.551-2.001.551-3.124 0-1.123-.184-2.155-.551-3.094-.347-.96-.837-1.787-1.47-2.48a6.503 6.503 0 0 0-2.267-1.655c-.858-.388-1.807-.582-2.849-.582-1.04 0-2 .194-2.879.582a7.11 7.11 0 0 0-2.266 1.624c-.633.694-1.123 1.52-1.47 2.48-.348.94-.521 1.981-.521 3.125 0 1.123.173 2.164.52 3.124.348.96.838 1.787 1.47 2.48a7.112 7.112 0 0 0 2.267 1.624c.878.388 1.838.582 2.88.582Zm13.964 2.909a.796.796 0 0 1-.796-.795V7.552a1.02 1.02 0 0 1 1.02-1.021h1.114c.564 0 1.02.457 1.02 1.02V9.73a.203.203 0 0 1-.09.169c-.158.105-.35-.04-.273-.213a4.725 4.725 0 0 1 1.007-1.44 6.766 6.766 0 0 1 2.113-1.47 5.794 5.794 0 0 1 2.512-.582c1.225 0 2.246.245 3.063.735.816.47 1.43 1.194 1.837 2.174.409.98.613 2.216.613 3.707v8.78a1.02 1.02 0 0 1-1.02 1.02H62.73a1.021 1.021 0 0 1-1.02-1.02v-8.566c0-.919-.123-1.674-.368-2.267-.245-.612-.623-1.051-1.134-1.317-.51-.285-1.143-.408-1.899-.367-.612 0-1.174.102-1.684.306-.51.184-.96.45-1.348.796a4.102 4.102 0 0 0-.888 1.226 3.51 3.51 0 0 0-.306 1.47v8.719a1.02 1.02 0 0 1-1.021 1.02h-1.338Zm23.903.307c-1.654 0-3.124-.347-4.41-1.041a8.053 8.053 0 0 1-3.002-2.91c-.715-1.225-1.072-2.634-1.072-4.227 0-1.266.204-2.42.612-3.46a8.264 8.264 0 0 1 1.685-2.696 7.392 7.392 0 0 1 2.603-1.777c1.021-.429 2.124-.643 3.308-.643 1.042 0 2.012.204 2.91.613a6.937 6.937 0 0 1 2.328 1.623 6.865 6.865 0 0 1 1.531 2.48c.368.94.541 1.971.521 3.095l-.008.35a1.021 1.021 0 0 1-1.02.997H70.244c-.458 0-.86-.304-.984-.745l-.131-.47a1.021 1.021 0 0 1 .983-1.296h9.455a.143.143 0 1 1-.143.143v-.358a3.549 3.549 0 0 0-.674-1.807 4.162 4.162 0 0 0-1.47-1.256 4.138 4.138 0 0 0-1.93-.46c-1.102 0-2.031.215-2.787.644-.755.408-1.327 1.021-1.715 1.838-.388.796-.582 1.787-.582 2.97 0 1.124.235 2.104.704 2.941a4.827 4.827 0 0 0 1.991 1.9c.858.449 1.848.673 2.971.673.797 0 1.532-.133 2.205-.398a6.299 6.299 0 0 0 1.352-.742c.494-.347 1.188-.272 1.538.22l.438.615c.29.406.247.968-.15 1.27a7.996 7.996 0 0 1-1.156.72c-.694.367-1.44.663-2.236.888a9 9 0 0 1-2.297.306Zm10.652-.307a1.021 1.021 0 0 1-1.021-1.02V2.191c0-.563.457-1.02 1.02-1.02h6.79c1.389 0 2.686.265 3.89.796a9.557 9.557 0 0 1 3.155 2.236c.919.94 1.634 2.062 2.144 3.369.531 1.307.796 2.746.796 4.319 0 1.552-.265 2.991-.796 4.318a10.237 10.237 0 0 1-2.144 3.4 9.775 9.775 0 0 1-3.155 2.206c-1.204.53-2.501.796-3.89.796h-6.79Zm.51-1.393a.137.137 0 1 1-.138-.137h6.264a8.045 8.045 0 0 0 3.277-.674 8.2 8.2 0 0 0 2.727-1.9 9.516 9.516 0 0 0 1.837-2.91c.45-1.122.674-2.358.674-3.705 0-1.348-.224-2.573-.674-3.676-.449-1.123-1.061-2.093-1.838-2.91a7.998 7.998 0 0 0-2.726-1.93 8.047 8.047 0 0 0-3.277-.673h-6.269a.143.143 0 1 1 .143-.143v18.658Zm25.614 1.7c-1.449 0-2.746-.357-3.89-1.072-1.143-.714-2.052-1.695-2.726-2.94-.653-1.246-.98-2.665-.98-4.258 0-1.613.337-3.042 1.011-4.288.694-1.245 1.613-2.225 2.757-2.94 1.143-.715 2.419-1.072 3.828-1.072.817 0 1.593.122 2.328.367a6.853 6.853 0 0 1 1.991 1.042c.592.429 1.103.94 1.531 1.531.309.427.555.88.736 1.36.075.197-.142.358-.319.243a.23.23 0 0 1-.105-.202l.121-3.283a.749.749 0 0 1 1.497.028v14.412a.765.765 0 1 1-1.531 0v-3.151c0-.042.015-.082.043-.113.119-.133.314-.021.246.143a5.947 5.947 0 0 1-.688 1.222 7.382 7.382 0 0 1-1.531 1.562 6.855 6.855 0 0 1-1.991 1.042 7.313 7.313 0 0 1-2.328.367Zm.215-1.531c1.164 0 2.205-.286 3.124-.858a6.216 6.216 0 0 0 2.205-2.389c.552-1.02.827-2.195.827-3.522 0-1.307-.265-2.46-.796-3.461-.531-1.021-1.266-1.818-2.205-2.39-.919-.592-1.971-.888-3.155-.888-1.205 0-2.277.296-3.216.889-.919.571-1.644 1.368-2.175 2.389-.531 1-.796 2.154-.796 3.46 0 1.287.255 2.44.765 3.462.531 1.02 1.256 1.827 2.175 2.42.939.592 2.022.888 3.247.888Zm16.205 1.531c-1.388 0-2.624-.265-3.706-.796-.82-.418-1.494-.9-2.021-1.448-.279-.29-.226-.746.078-1.01.338-.294.852-.234 1.172.08.453.443.986.807 1.598 1.091.878.388 1.869.582 2.971.582.613 0 1.174-.06 1.685-.183.51-.143.939-.337 1.286-.582.368-.245.654-.541.858-.889a2.48 2.48 0 0 0 .306-1.225c0-.796-.378-1.47-1.133-2.021-.347-.245-.786-.47-1.317-.674a22.411 22.411 0 0 0-1.869-.613 43.175 43.175 0 0 1-2.756-.919c-.756-.286-1.358-.643-1.807-1.072a3.704 3.704 0 0 1-.735-1.102 3.5 3.5 0 0 1-.246-1.317c0-.654.133-1.246.399-1.777a4.267 4.267 0 0 1 1.133-1.44 4.957 4.957 0 0 1 1.715-.918c.654-.225 1.379-.337 2.175-.337.755 0 1.501.112 2.236.337a8.006 8.006 0 0 1 3.206 1.743c.296.264.293.718.024 1.01-.304.33-.824.327-1.158.026a8.336 8.336 0 0 0-.755-.605 5.377 5.377 0 0 0-1.562-.796 5.615 5.615 0 0 0-1.899-.306c-.552 0-1.072.071-1.562.214a3.52 3.52 0 0 0-1.226.643 3.051 3.051 0 0 0-.826.95 2.446 2.446 0 0 0-.276 1.164c0 .326.061.623.184.888.122.245.316.48.582.704.347.286.806.531 1.378.736.592.204 1.317.428 2.175.674.776.204 1.46.408 2.052.612.592.204 1.102.45 1.531.735.654.409 1.133.888 1.44 1.44.326.551.49 1.184.49 1.899 0 .878-.245 1.654-.735 2.328-.49.673-1.174 1.204-2.052 1.592-.878.388-1.889.582-3.033.582Zm8.756-.307a.552.552 0 0 1-.552-.55V.71a.766.766 0 0 1 1.532 0v9.616a.116.116 0 0 1-.017.06c-.067.105-.208.042-.167-.075a5.12 5.12 0 0 1 1.103-1.821 6.49 6.49 0 0 1 2.205-1.593 6.487 6.487 0 0 1 2.573-.551c1.225 0 2.236.235 3.032.704.817.47 1.419 1.195 1.807 2.175.388.98.582 2.226.582 3.737v8.882a.766.766 0 1 1-1.531 0v-8.821c0-1.184-.153-2.154-.46-2.91-.306-.776-.776-1.347-1.409-1.715-.612-.388-1.398-.582-2.358-.582-.756 0-1.46.143-2.114.429a5.38 5.38 0 0 0-1.715 1.102 5.677 5.677 0 0 0-1.133 1.624 4.58 4.58 0 0 0-.398 1.899v8.974a.766.766 0 0 1-.766.766h-.214Z"/></mask><g mask="url(#c)"><path fill="#186491" d="M20.365-13.848h140.764v52.135H20.365z"/><path fill="url(#d)" fill-opacity=".7" d="M20.365-13.848h140.764v52.135H20.365z" style="mix-blend-mode:soft-light"/></g><defs><pattern id="b" width="1" height="1" patternContentUnits="objectBoundingBox"><use xlink:href="#e" transform="matrix(.00108 0 0 .0009 -.105 0)"/></pattern><pattern id="d" width="1" height="1" patternContentUnits="objectBoundingBox"><use xlink:href="#e" transform="matrix(.0009 0 0 .00241 0 -.85)"/></pattern></defs></svg>