<svg width="1168" height="181" viewBox="0 0 1168 181" fill="none" xmlns="http://www.w3.org/2000/svg">
<path d="M229.849 155.03C230.389 153.43 230.809 151.77 231.089 150.04C231.109 149.93 231.129 149.8 231.149 149.69C231.149 149.64 231.159 149.59 231.169 149.54C231.439 147.77 231.549 145.99 231.519 144.21C231.519 144.12 231.519 144.04 231.519 143.95C231.519 143.76 231.519 143.58 231.499 143.4C231.159 133.86 226.749 125.77 220.219 120.32C218.639 118.64 217.079 116.93 215.719 115.08C213.869 112.6 212.349 109.88 211.189 107C205.659 93.39 208.939 77.6201 219.249 67.1901C219.519 66.9001 219.799 66.6101 220.069 66.3101C225.379 61.9401 229.329 55.85 230.839 48.62C231.769 44.39 231.789 40.12 231.019 36.03C230.009 30.38 227.529 25.37 224.049 21.28C218.809 15.01 211.139 10.6801 201.999 10.0801C201.439 10.0401 200.879 10.01 200.309 10H200.239C199.939 10 199.639 10 199.339 10C189.549 10.07 181.209 14.36 175.549 20.86C172.689 23.47 169.819 26.0901 166.389 27.9601C155.209 34.5401 140.009 34.42 128.949 27.65C121.569 23.37 116.549 15.71 108.479 12.51C90.8594 4.97001 69.6293 15.26 65.1693 34.05C60.9493 50.4501 70.5694 67.85 86.9794 72.54C97.7494 75.69 109.839 73.08 117.789 65.23L117.819 65.2001C120.489 62.7801 127.359 56.09 135.309 53.8C163.249 45.75 180.109 61.09 187.449 74.6C195.119 88.72 193.349 112.28 176.429 125.62C162.259 137.4 142.779 137.59 129.209 129.74C121.819 125.46 116.549 118.83 108.479 115.63C90.8594 108.09 69.6293 118.38 65.1693 137.17C60.9493 153.58 70.5694 170.97 86.9794 175.67C97.7494 178.82 109.839 176.2 117.789 168.35L117.819 168.33C120.489 165.9 123.039 163.29 125.959 161.15C128.459 159.3 131.189 157.77 134.089 156.62C147.779 151.08 163.639 154.38 174.139 164.67C174.439 164.95 174.729 165.23 175.029 165.51C179.149 170.53 184.809 174.34 191.599 175.98C192.929 176.32 194.259 176.58 195.589 176.74C195.609 176.74 195.619 176.74 195.639 176.74C195.879 176.77 196.119 176.8 196.369 176.83C196.399 176.83 196.429 176.83 196.459 176.83C197.109 176.9 197.749 176.93 198.399 176.96C198.549 176.96 198.699 176.96 198.839 176.96C198.969 176.96 199.089 176.96 199.219 176.96H199.689C212.999 176.77 225.469 168.43 230.029 155.55C230.029 155.53 230.029 155.52 230.049 155.5C230.109 155.31 230.179 155.14 230.239 154.95H229.869L229.849 155.03Z" fill="#481DBF"/>
<path d="M229.849 155.03C230.389 153.43 230.809 151.77 231.089 150.04C231.109 149.93 231.129 149.8 231.149 149.69C231.149 149.64 231.159 149.59 231.169 149.54C231.439 147.77 231.549 145.99 231.519 144.21C231.519 144.12 231.519 144.04 231.519 143.95C231.519 143.76 231.519 143.58 231.499 143.4C231.159 133.86 226.749 125.77 220.219 120.32C218.639 118.64 217.079 116.93 215.719 115.08C213.869 112.6 212.349 109.88 211.189 107C205.659 93.39 208.939 77.6201 219.249 67.1901C219.519 66.9001 219.799 66.6101 220.069 66.3101C225.379 61.9401 229.329 55.85 230.839 48.62C231.769 44.39 231.789 40.12 231.019 36.03C230.009 30.38 227.529 25.37 224.049 21.28C218.809 15.01 211.139 10.6801 201.999 10.0801C201.439 10.0401 200.879 10.01 200.309 10H200.239C199.939 10 199.639 10 199.339 10C189.549 10.07 181.209 14.36 175.549 20.86C172.689 23.47 169.819 26.0901 166.389 27.9601C155.209 34.5401 140.009 34.42 128.949 27.65C121.569 23.37 116.549 15.71 108.479 12.51C90.8594 4.97001 69.6293 15.26 65.1693 34.05C60.9493 50.4501 70.5694 67.85 86.9794 72.54C97.7494 75.69 109.839 73.08 117.789 65.23L117.819 65.2001C120.489 62.7801 127.359 56.09 135.309 53.8C163.249 45.75 180.109 61.09 187.449 74.6C195.119 88.72 193.349 112.28 176.429 125.62C162.259 137.4 142.779 137.59 129.209 129.74C121.819 125.46 116.549 118.83 108.479 115.63C90.8594 108.09 69.6293 118.38 65.1693 137.17C60.9493 153.58 70.5694 170.97 86.9794 175.67C97.7494 178.82 109.839 176.2 117.789 168.35L117.819 168.33C120.489 165.9 123.039 163.29 125.959 161.15C128.459 159.3 131.189 157.77 134.089 156.62C147.779 151.08 163.639 154.38 174.139 164.67C174.439 164.95 174.729 165.23 175.029 165.51C179.149 170.53 184.809 174.34 191.599 175.98C192.929 176.32 194.259 176.58 195.589 176.74C195.609 176.74 195.619 176.74 195.639 176.74C195.879 176.77 196.119 176.8 196.369 176.83C196.399 176.83 196.429 176.83 196.459 176.83C197.109 176.9 197.749 176.93 198.399 176.96C198.549 176.96 198.699 176.96 198.839 176.96C198.969 176.96 199.089 176.96 199.219 176.96H199.689C212.999 176.77 225.469 168.43 230.029 155.55C230.029 155.53 230.029 155.52 230.049 155.5C230.109 155.31 230.179 155.14 230.239 154.95H229.869L229.849 155.03Z" fill="url(#paint0_linear_875_1544)"/>
<path d="M229.849 155.03C230.389 153.43 230.809 151.77 231.089 150.04C231.109 149.93 231.129 149.8 231.149 149.69C231.149 149.64 231.159 149.59 231.169 149.54C231.439 147.77 231.549 145.99 231.519 144.21C231.519 144.12 231.519 144.04 231.519 143.95C231.519 143.76 231.519 143.58 231.499 143.4C231.159 133.86 226.749 125.77 220.219 120.32C218.639 118.64 217.079 116.93 215.719 115.08C213.869 112.6 212.349 109.88 211.189 107C205.659 93.39 208.939 77.6201 219.249 67.1901C219.519 66.9001 219.799 66.6101 220.069 66.3101C225.379 61.9401 229.329 55.85 230.839 48.62C231.769 44.39 231.789 40.12 231.019 36.03C230.009 30.38 227.529 25.37 224.049 21.28C218.809 15.01 211.139 10.6801 201.999 10.0801C201.439 10.0401 200.879 10.01 200.309 10H200.239C199.939 10 199.639 10 199.339 10C189.549 10.07 181.209 14.36 175.549 20.86C172.689 23.47 169.819 26.0901 166.389 27.9601C155.209 34.5401 140.009 34.42 128.949 27.65C121.569 23.37 116.549 15.71 108.479 12.51C90.8594 4.97001 69.6293 15.26 65.1693 34.05C60.9493 50.4501 70.5694 67.85 86.9794 72.54C97.7494 75.69 109.839 73.08 117.789 65.23L117.819 65.2001C120.489 62.7801 127.359 56.09 135.309 53.8C163.249 45.75 180.109 61.09 187.449 74.6C195.119 88.72 193.349 112.28 176.429 125.62C162.259 137.4 142.779 137.59 129.209 129.74C121.819 125.46 116.549 118.83 108.479 115.63C90.8594 108.09 69.6293 118.38 65.1693 137.17C60.9493 153.58 70.5694 170.97 86.9794 175.67C97.7494 178.82 109.839 176.2 117.789 168.35L117.819 168.33C120.489 165.9 123.039 163.29 125.959 161.15C128.459 159.3 131.189 157.77 134.089 156.62C147.779 151.08 163.639 154.38 174.139 164.67C174.439 164.95 174.729 165.23 175.029 165.51C179.149 170.53 184.809 174.34 191.599 175.98C192.929 176.32 194.259 176.58 195.589 176.74C195.609 176.74 195.619 176.74 195.639 176.74C195.879 176.77 196.119 176.8 196.369 176.83C196.399 176.83 196.429 176.83 196.459 176.83C197.109 176.9 197.749 176.93 198.399 176.96C198.549 176.96 198.699 176.96 198.839 176.96C198.969 176.96 199.089 176.96 199.219 176.96H199.689C212.999 176.77 225.469 168.43 230.029 155.55C230.029 155.53 230.029 155.52 230.049 155.5C230.109 155.31 230.179 155.14 230.239 154.95H229.869L229.849 155.03Z" fill="url(#paint1_radial_875_1544)" fill-opacity="0.2"/>
<path d="M229.849 155.03C230.389 153.43 230.809 151.77 231.089 150.04C231.109 149.93 231.129 149.8 231.149 149.69C231.149 149.64 231.159 149.59 231.169 149.54C231.439 147.77 231.549 145.99 231.519 144.21C231.519 144.12 231.519 144.04 231.519 143.95C231.519 143.76 231.519 143.58 231.499 143.4C231.159 133.86 226.749 125.77 220.219 120.32C218.639 118.64 217.079 116.93 215.719 115.08C213.869 112.6 212.349 109.88 211.189 107C205.659 93.39 208.939 77.6201 219.249 67.1901C219.519 66.9001 219.799 66.6101 220.069 66.3101C225.379 61.9401 229.329 55.85 230.839 48.62C231.769 44.39 231.789 40.12 231.019 36.03C230.009 30.38 227.529 25.37 224.049 21.28C218.809 15.01 211.139 10.6801 201.999 10.0801C201.439 10.0401 200.879 10.01 200.309 10H200.239C199.939 10 199.639 10 199.339 10C189.549 10.07 181.209 14.36 175.549 20.86C172.689 23.47 169.819 26.0901 166.389 27.9601C155.209 34.5401 140.009 34.42 128.949 27.65C121.569 23.37 116.549 15.71 108.479 12.51C90.8594 4.97001 69.6293 15.26 65.1693 34.05C60.9493 50.4501 70.5694 67.85 86.9794 72.54C97.7494 75.69 109.839 73.08 117.789 65.23L117.819 65.2001C120.489 62.7801 127.359 56.09 135.309 53.8C163.249 45.75 180.109 61.09 187.449 74.6C195.119 88.72 193.349 112.28 176.429 125.62C162.259 137.4 142.779 137.59 129.209 129.74C121.819 125.46 116.549 118.83 108.479 115.63C90.8594 108.09 69.6293 118.38 65.1693 137.17C60.9493 153.58 70.5694 170.97 86.9794 175.67C97.7494 178.82 109.839 176.2 117.789 168.35L117.819 168.33C120.489 165.9 123.039 163.29 125.959 161.15C128.459 159.3 131.189 157.77 134.089 156.62C147.779 151.08 163.639 154.38 174.139 164.67C174.439 164.95 174.729 165.23 175.029 165.51C179.149 170.53 184.809 174.34 191.599 175.98C192.929 176.32 194.259 176.58 195.589 176.74C195.609 176.74 195.619 176.74 195.639 176.74C195.879 176.77 196.119 176.8 196.369 176.83C196.399 176.83 196.429 176.83 196.459 176.83C197.109 176.9 197.749 176.93 198.399 176.96C198.549 176.96 198.699 176.96 198.839 176.96C198.969 176.96 199.089 176.96 199.219 176.96H199.689C212.999 176.77 225.469 168.43 230.029 155.55C230.029 155.53 230.029 155.52 230.049 155.5C230.109 155.31 230.179 155.14 230.239 154.95H229.869L229.849 155.03Z" fill="url(#paint2_radial_875_1544)" fill-opacity="0.2"/>
<path d="M147.92 118.189C161.73 118.189 172.92 106.999 172.92 93.1895C172.92 79.3795 161.73 68.1895 147.92 68.1895C134.11 68.1895 122.92 79.3795 122.92 93.1895C122.92 106.999 134.11 118.189 147.92 118.189Z" fill="#481DBF"/>
<path d="M147.92 118.189C161.73 118.189 172.92 106.999 172.92 93.1895C172.92 79.3795 161.73 68.1895 147.92 68.1895C134.11 68.1895 122.92 79.3795 122.92 93.1895C122.92 106.999 134.11 118.189 147.92 118.189Z" fill="url(#paint3_linear_875_1544)"/>
<path d="M147.92 118.189C161.73 118.189 172.92 106.999 172.92 93.1895C172.92 79.3795 161.73 68.1895 147.92 68.1895C134.11 68.1895 122.92 79.3795 122.92 93.1895C122.92 106.999 134.11 118.189 147.92 118.189Z" fill="url(#paint4_radial_875_1544)" fill-opacity="0.2"/>
<path d="M147.92 118.189C161.73 118.189 172.92 106.999 172.92 93.1895C172.92 79.3795 161.73 68.1895 147.92 68.1895C134.11 68.1895 122.92 79.3795 122.92 93.1895C122.92 106.999 134.11 118.189 147.92 118.189Z" fill="url(#paint5_radial_875_1544)" fill-opacity="0.2"/>
<path d="M32.5 125.689C50.45 125.689 65 111.139 65 93.1895C65 75.2395 50.45 60.6895 32.5 60.6895C14.55 60.6895 0 75.2395 0 93.1895C0 111.139 14.55 125.689 32.5 125.689Z" fill="#481DBF"/>
<path d="M32.5 125.689C50.45 125.689 65 111.139 65 93.1895C65 75.2395 50.45 60.6895 32.5 60.6895C14.55 60.6895 0 75.2395 0 93.1895C0 111.139 14.55 125.689 32.5 125.689Z" fill="url(#paint6_linear_875_1544)"/>
<path d="M32.5 125.689C50.45 125.689 65 111.139 65 93.1895C65 75.2395 50.45 60.6895 32.5 60.6895C14.55 60.6895 0 75.2395 0 93.1895C0 111.139 14.55 125.689 32.5 125.689Z" fill="url(#paint7_radial_875_1544)" fill-opacity="0.2"/>
<path d="M32.5 125.689C50.45 125.689 65 111.139 65 93.1895C65 75.2395 50.45 60.6895 32.5 60.6895C14.55 60.6895 0 75.2395 0 93.1895C0 111.139 14.55 125.689 32.5 125.689Z" fill="url(#paint8_radial_875_1544)" fill-opacity="0.2"/>
<path d="M349.716 180.5C337.695 180.5 326.556 178.334 316.298 174.002C306.04 169.67 297.065 163.653 289.371 155.952C281.838 148.09 275.988 138.865 271.821 128.275C267.654 117.686 265.57 106.134 265.57 93.6193C265.57 81.1047 267.654 69.5527 271.821 58.9633C275.988 48.374 281.838 39.2287 289.371 31.5273C297.065 23.6655 306.04 17.5687 316.298 13.2367C326.556 8.90466 337.695 6.73867 349.716 6.73867C361.897 6.73867 373.116 8.90466 383.374 13.2367C393.632 17.5687 402.527 23.6655 410.06 31.5273C417.593 39.3891 423.443 48.6147 427.611 59.204C431.778 69.6329 433.862 81.1047 433.862 93.6193C433.862 105.974 431.778 117.445 427.611 128.035C423.443 138.624 417.593 147.85 410.06 155.711C402.527 163.573 393.632 169.67 383.374 174.002C373.116 178.334 361.897 180.5 349.716 180.5ZM349.716 150.657C357.409 150.657 364.381 149.294 370.632 146.566C377.043 143.678 382.573 139.667 387.221 134.533C391.869 129.238 395.475 123.141 398.04 116.242C400.764 109.343 402.127 101.802 402.127 93.6193C402.127 85.4367 400.764 77.8958 398.04 70.9967C395.475 64.0976 391.869 58.0809 387.221 52.9467C382.573 47.652 377.043 43.6409 370.632 40.9133C364.381 38.0253 357.409 36.5813 349.716 36.5813C342.183 36.5813 335.211 38.0253 328.8 40.9133C322.389 43.6409 316.859 47.5718 312.211 52.706C307.563 57.8402 303.957 63.8569 301.392 70.756C298.828 77.6551 297.546 85.2762 297.546 93.6193C297.546 101.802 298.828 109.423 301.392 116.483C303.957 123.382 307.563 129.398 312.211 134.533C316.859 139.667 322.389 143.678 328.8 146.566C335.211 149.294 342.183 150.657 349.716 150.657Z" fill="#481DBF"/>
<path d="M349.716 180.5C337.695 180.5 326.556 178.334 316.298 174.002C306.04 169.67 297.065 163.653 289.371 155.952C281.838 148.09 275.988 138.865 271.821 128.275C267.654 117.686 265.57 106.134 265.57 93.6193C265.57 81.1047 267.654 69.5527 271.821 58.9633C275.988 48.374 281.838 39.2287 289.371 31.5273C297.065 23.6655 306.04 17.5687 316.298 13.2367C326.556 8.90466 337.695 6.73867 349.716 6.73867C361.897 6.73867 373.116 8.90466 383.374 13.2367C393.632 17.5687 402.527 23.6655 410.06 31.5273C417.593 39.3891 423.443 48.6147 427.611 59.204C431.778 69.6329 433.862 81.1047 433.862 93.6193C433.862 105.974 431.778 117.445 427.611 128.035C423.443 138.624 417.593 147.85 410.06 155.711C402.527 163.573 393.632 169.67 383.374 174.002C373.116 178.334 361.897 180.5 349.716 180.5ZM349.716 150.657C357.409 150.657 364.381 149.294 370.632 146.566C377.043 143.678 382.573 139.667 387.221 134.533C391.869 129.238 395.475 123.141 398.04 116.242C400.764 109.343 402.127 101.802 402.127 93.6193C402.127 85.4367 400.764 77.8958 398.04 70.9967C395.475 64.0976 391.869 58.0809 387.221 52.9467C382.573 47.652 377.043 43.6409 370.632 40.9133C364.381 38.0253 357.409 36.5813 349.716 36.5813C342.183 36.5813 335.211 38.0253 328.8 40.9133C322.389 43.6409 316.859 47.5718 312.211 52.706C307.563 57.8402 303.957 63.8569 301.392 70.756C298.828 77.6551 297.546 85.2762 297.546 93.6193C297.546 101.802 298.828 109.423 301.392 116.483C303.957 123.382 307.563 129.398 312.211 134.533C316.859 139.667 322.389 143.678 328.8 146.566C335.211 149.294 342.183 150.657 349.716 150.657Z" fill="url(#paint9_linear_875_1544)"/>
<path d="M349.716 180.5C337.695 180.5 326.556 178.334 316.298 174.002C306.04 169.67 297.065 163.653 289.371 155.952C281.838 148.09 275.988 138.865 271.821 128.275C267.654 117.686 265.57 106.134 265.57 93.6193C265.57 81.1047 267.654 69.5527 271.821 58.9633C275.988 48.374 281.838 39.2287 289.371 31.5273C297.065 23.6655 306.04 17.5687 316.298 13.2367C326.556 8.90466 337.695 6.73867 349.716 6.73867C361.897 6.73867 373.116 8.90466 383.374 13.2367C393.632 17.5687 402.527 23.6655 410.06 31.5273C417.593 39.3891 423.443 48.6147 427.611 59.204C431.778 69.6329 433.862 81.1047 433.862 93.6193C433.862 105.974 431.778 117.445 427.611 128.035C423.443 138.624 417.593 147.85 410.06 155.711C402.527 163.573 393.632 169.67 383.374 174.002C373.116 178.334 361.897 180.5 349.716 180.5ZM349.716 150.657C357.409 150.657 364.381 149.294 370.632 146.566C377.043 143.678 382.573 139.667 387.221 134.533C391.869 129.238 395.475 123.141 398.04 116.242C400.764 109.343 402.127 101.802 402.127 93.6193C402.127 85.4367 400.764 77.8958 398.04 70.9967C395.475 64.0976 391.869 58.0809 387.221 52.9467C382.573 47.652 377.043 43.6409 370.632 40.9133C364.381 38.0253 357.409 36.5813 349.716 36.5813C342.183 36.5813 335.211 38.0253 328.8 40.9133C322.389 43.6409 316.859 47.5718 312.211 52.706C307.563 57.8402 303.957 63.8569 301.392 70.756C298.828 77.6551 297.546 85.2762 297.546 93.6193C297.546 101.802 298.828 109.423 301.392 116.483C303.957 123.382 307.563 129.398 312.211 134.533C316.859 139.667 322.389 143.678 328.8 146.566C335.211 149.294 342.183 150.657 349.716 150.657Z" fill="url(#paint10_radial_875_1544)" fill-opacity="0.2"/>
<path d="M349.716 180.5C337.695 180.5 326.556 178.334 316.298 174.002C306.04 169.67 297.065 163.653 289.371 155.952C281.838 148.09 275.988 138.865 271.821 128.275C267.654 117.686 265.57 106.134 265.57 93.6193C265.57 81.1047 267.654 69.5527 271.821 58.9633C275.988 48.374 281.838 39.2287 289.371 31.5273C297.065 23.6655 306.04 17.5687 316.298 13.2367C326.556 8.90466 337.695 6.73867 349.716 6.73867C361.897 6.73867 373.116 8.90466 383.374 13.2367C393.632 17.5687 402.527 23.6655 410.06 31.5273C417.593 39.3891 423.443 48.6147 427.611 59.204C431.778 69.6329 433.862 81.1047 433.862 93.6193C433.862 105.974 431.778 117.445 427.611 128.035C423.443 138.624 417.593 147.85 410.06 155.711C402.527 163.573 393.632 169.67 383.374 174.002C373.116 178.334 361.897 180.5 349.716 180.5ZM349.716 150.657C357.409 150.657 364.381 149.294 370.632 146.566C377.043 143.678 382.573 139.667 387.221 134.533C391.869 129.238 395.475 123.141 398.04 116.242C400.764 109.343 402.127 101.802 402.127 93.6193C402.127 85.4367 400.764 77.8958 398.04 70.9967C395.475 64.0976 391.869 58.0809 387.221 52.9467C382.573 47.652 377.043 43.6409 370.632 40.9133C364.381 38.0253 357.409 36.5813 349.716 36.5813C342.183 36.5813 335.211 38.0253 328.8 40.9133C322.389 43.6409 316.859 47.5718 312.211 52.706C307.563 57.8402 303.957 63.8569 301.392 70.756C298.828 77.6551 297.546 85.2762 297.546 93.6193C297.546 101.802 298.828 109.423 301.392 116.483C303.957 123.382 307.563 129.398 312.211 134.533C316.859 139.667 322.389 143.678 328.8 146.566C335.211 149.294 342.183 150.657 349.716 150.657Z" fill="url(#paint11_radial_875_1544)" fill-opacity="0.2"/>
<path d="M457.965 178.093C454.247 178.093 451.233 175.079 451.233 171.362V59.262C451.233 54.8437 454.815 51.262 459.233 51.262H472.23C476.59 51.262 480.148 54.7542 480.228 59.114L480.539 75.9341C480.554 76.7429 480.111 77.4907 479.394 77.8652C477.739 78.7295 475.936 77.2232 476.696 75.5179C478.465 71.549 481.037 67.8759 484.411 64.4987C489.059 59.6853 494.588 55.8347 500.999 52.9467C507.41 50.0587 513.982 48.6147 520.713 48.6147C530.33 48.6147 538.344 50.54 544.755 54.3907C551.326 58.2413 556.215 64.0173 559.42 71.7187C562.786 79.42 564.469 89.0467 564.469 100.599V170.093C564.469 174.512 560.887 178.093 556.469 178.093H542.898C538.48 178.093 534.898 174.512 534.898 170.093V102.765C534.898 96.3469 534.016 91.0522 532.253 86.8807C530.49 82.5487 527.766 79.42 524.079 77.4947C520.393 75.4089 515.905 74.4462 510.616 74.6067C506.288 74.6067 502.281 75.3287 498.595 76.7727C495.069 78.0562 491.944 79.9816 489.219 82.5487C486.654 84.9553 484.571 87.7631 482.968 90.972C481.526 94.1809 480.804 97.7107 480.804 101.561V170.093C480.804 174.512 477.223 178.093 472.804 178.093H466.139C463.254 178.093 460.529 178.093 457.965 178.093Z" fill="#481DBF"/>
<path d="M457.965 178.093C454.247 178.093 451.233 175.079 451.233 171.362V59.262C451.233 54.8437 454.815 51.262 459.233 51.262H472.23C476.59 51.262 480.148 54.7542 480.228 59.114L480.539 75.9341C480.554 76.7429 480.111 77.4907 479.394 77.8652C477.739 78.7295 475.936 77.2232 476.696 75.5179C478.465 71.549 481.037 67.8759 484.411 64.4987C489.059 59.6853 494.588 55.8347 500.999 52.9467C507.41 50.0587 513.982 48.6147 520.713 48.6147C530.33 48.6147 538.344 50.54 544.755 54.3907C551.326 58.2413 556.215 64.0173 559.42 71.7187C562.786 79.42 564.469 89.0467 564.469 100.599V170.093C564.469 174.512 560.887 178.093 556.469 178.093H542.898C538.48 178.093 534.898 174.512 534.898 170.093V102.765C534.898 96.3469 534.016 91.0522 532.253 86.8807C530.49 82.5487 527.766 79.42 524.079 77.4947C520.393 75.4089 515.905 74.4462 510.616 74.6067C506.288 74.6067 502.281 75.3287 498.595 76.7727C495.069 78.0562 491.944 79.9816 489.219 82.5487C486.654 84.9553 484.571 87.7631 482.968 90.972C481.526 94.1809 480.804 97.7107 480.804 101.561V170.093C480.804 174.512 477.223 178.093 472.804 178.093H466.139C463.254 178.093 460.529 178.093 457.965 178.093Z" fill="url(#paint12_linear_875_1544)"/>
<path d="M457.965 178.093C454.247 178.093 451.233 175.079 451.233 171.362V59.262C451.233 54.8437 454.815 51.262 459.233 51.262H472.23C476.59 51.262 480.148 54.7542 480.228 59.114L480.539 75.9341C480.554 76.7429 480.111 77.4907 479.394 77.8652C477.739 78.7295 475.936 77.2232 476.696 75.5179C478.465 71.549 481.037 67.8759 484.411 64.4987C489.059 59.6853 494.588 55.8347 500.999 52.9467C507.41 50.0587 513.982 48.6147 520.713 48.6147C530.33 48.6147 538.344 50.54 544.755 54.3907C551.326 58.2413 556.215 64.0173 559.42 71.7187C562.786 79.42 564.469 89.0467 564.469 100.599V170.093C564.469 174.512 560.887 178.093 556.469 178.093H542.898C538.48 178.093 534.898 174.512 534.898 170.093V102.765C534.898 96.3469 534.016 91.0522 532.253 86.8807C530.49 82.5487 527.766 79.42 524.079 77.4947C520.393 75.4089 515.905 74.4462 510.616 74.6067C506.288 74.6067 502.281 75.3287 498.595 76.7727C495.069 78.0562 491.944 79.9816 489.219 82.5487C486.654 84.9553 484.571 87.7631 482.968 90.972C481.526 94.1809 480.804 97.7107 480.804 101.561V170.093C480.804 174.512 477.223 178.093 472.804 178.093H466.139C463.254 178.093 460.529 178.093 457.965 178.093Z" fill="url(#paint13_radial_875_1544)" fill-opacity="0.2"/>
<path d="M457.965 178.093C454.247 178.093 451.233 175.079 451.233 171.362V59.262C451.233 54.8437 454.815 51.262 459.233 51.262H472.23C476.59 51.262 480.148 54.7542 480.228 59.114L480.539 75.9341C480.554 76.7429 480.111 77.4907 479.394 77.8652C477.739 78.7295 475.936 77.2232 476.696 75.5179C478.465 71.549 481.037 67.8759 484.411 64.4987C489.059 59.6853 494.588 55.8347 500.999 52.9467C507.41 50.0587 513.982 48.6147 520.713 48.6147C530.33 48.6147 538.344 50.54 544.755 54.3907C551.326 58.2413 556.215 64.0173 559.42 71.7187C562.786 79.42 564.469 89.0467 564.469 100.599V170.093C564.469 174.512 560.887 178.093 556.469 178.093H542.898C538.48 178.093 534.898 174.512 534.898 170.093V102.765C534.898 96.3469 534.016 91.0522 532.253 86.8807C530.49 82.5487 527.766 79.42 524.079 77.4947C520.393 75.4089 515.905 74.4462 510.616 74.6067C506.288 74.6067 502.281 75.3287 498.595 76.7727C495.069 78.0562 491.944 79.9816 489.219 82.5487C486.654 84.9553 484.571 87.7631 482.968 90.972C481.526 94.1809 480.804 97.7107 480.804 101.561V170.093C480.804 174.512 477.223 178.093 472.804 178.093H466.139C463.254 178.093 460.529 178.093 457.965 178.093Z" fill="url(#paint14_radial_875_1544)" fill-opacity="0.2"/>
<path d="M597.036 178.093C592.617 178.093 589.036 174.512 589.036 170.093V15.6371C589.036 12.3176 591.727 9.62666 595.046 9.62666C598.366 9.62666 601.056 12.3176 601.056 15.6371V158.06C601.056 162.478 604.638 166.06 609.056 166.06H677.502C680.825 166.06 683.519 168.754 683.519 172.077C683.519 175.4 680.825 178.093 677.502 178.093H597.036Z" fill="#481DBF"/>
<path d="M597.036 178.093C592.617 178.093 589.036 174.512 589.036 170.093V15.6371C589.036 12.3176 591.727 9.62666 595.046 9.62666C598.366 9.62666 601.056 12.3176 601.056 15.6371V158.06C601.056 162.478 604.638 166.06 609.056 166.06H677.502C680.825 166.06 683.519 168.754 683.519 172.077C683.519 175.4 680.825 178.093 677.502 178.093H597.036Z" fill="url(#paint15_linear_875_1544)"/>
<path d="M597.036 178.093C592.617 178.093 589.036 174.512 589.036 170.093V15.6371C589.036 12.3176 591.727 9.62666 595.046 9.62666C598.366 9.62666 601.056 12.3176 601.056 15.6371V158.06C601.056 162.478 604.638 166.06 609.056 166.06H677.502C680.825 166.06 683.519 168.754 683.519 172.077C683.519 175.4 680.825 178.093 677.502 178.093H597.036Z" fill="url(#paint16_radial_875_1544)" fill-opacity="0.2"/>
<path d="M597.036 178.093C592.617 178.093 589.036 174.512 589.036 170.093V15.6371C589.036 12.3176 591.727 9.62666 595.046 9.62666C598.366 9.62666 601.056 12.3176 601.056 15.6371V158.06C601.056 162.478 604.638 166.06 609.056 166.06H677.502C680.825 166.06 683.519 168.754 683.519 172.077C683.519 175.4 680.825 178.093 677.502 178.093H597.036Z" fill="url(#paint17_radial_875_1544)" fill-opacity="0.2"/>
<path d="M754.586 180.5C743.207 180.5 733.029 177.692 724.054 172.077C715.078 166.461 707.946 158.76 702.657 148.973C697.528 139.186 694.963 128.035 694.963 115.52C694.963 102.845 697.608 91.6138 702.897 81.8267C708.346 72.0396 715.559 64.3382 724.534 58.7227C733.51 53.1071 743.527 50.2993 754.586 50.2993C760.998 50.2993 767.088 51.262 772.858 53.1873C778.628 55.1127 783.837 57.8402 788.485 61.37C793.133 64.7393 797.14 68.7504 800.506 73.4033C802.93 76.755 804.856 80.3149 806.283 84.0829C806.87 85.6355 805.163 86.9026 803.771 85.9972C803.237 85.6495 802.924 85.0467 802.948 84.4096L803.903 58.6061C804.02 55.4472 806.614 52.9467 809.775 52.9467C813.021 52.9467 815.652 55.5777 815.652 58.8233V172.083C815.652 175.402 812.961 178.093 809.642 178.093C806.322 178.093 803.631 175.402 803.631 172.083V147.313C803.631 146.987 803.752 146.672 803.969 146.429C804.903 145.384 806.436 146.26 805.901 147.555C804.519 150.894 802.72 154.094 800.506 157.155C797.14 161.808 793.133 165.9 788.485 169.429C783.837 172.959 778.628 175.687 772.858 177.612C767.088 179.537 760.998 180.5 754.586 180.5ZM756.269 168.467C765.405 168.467 773.579 166.22 780.792 161.728C788.165 157.075 793.935 150.818 798.102 142.956C802.429 134.934 804.593 125.708 804.593 115.279C804.593 105.011 802.509 95.9458 798.342 88.084C794.175 80.0618 788.405 73.8044 781.032 69.312C773.82 64.6591 765.565 62.3327 756.269 62.3327C746.813 62.3327 738.398 64.6591 731.026 69.312C723.813 73.8044 718.123 80.0618 713.956 88.084C709.789 95.9458 707.705 105.011 707.705 115.279C707.705 125.387 709.709 134.452 713.716 142.475C717.883 150.497 723.573 156.834 730.785 161.487C738.158 166.14 746.653 168.467 756.269 168.467Z" fill="#481DBF"/>
<path d="M754.586 180.5C743.207 180.5 733.029 177.692 724.054 172.077C715.078 166.461 707.946 158.76 702.657 148.973C697.528 139.186 694.963 128.035 694.963 115.52C694.963 102.845 697.608 91.6138 702.897 81.8267C708.346 72.0396 715.559 64.3382 724.534 58.7227C733.51 53.1071 743.527 50.2993 754.586 50.2993C760.998 50.2993 767.088 51.262 772.858 53.1873C778.628 55.1127 783.837 57.8402 788.485 61.37C793.133 64.7393 797.14 68.7504 800.506 73.4033C802.93 76.755 804.856 80.3149 806.283 84.0829C806.87 85.6355 805.163 86.9026 803.771 85.9972C803.237 85.6495 802.924 85.0467 802.948 84.4096L803.903 58.6061C804.02 55.4472 806.614 52.9467 809.775 52.9467C813.021 52.9467 815.652 55.5777 815.652 58.8233V172.083C815.652 175.402 812.961 178.093 809.642 178.093C806.322 178.093 803.631 175.402 803.631 172.083V147.313C803.631 146.987 803.752 146.672 803.969 146.429C804.903 145.384 806.436 146.26 805.901 147.555C804.519 150.894 802.72 154.094 800.506 157.155C797.14 161.808 793.133 165.9 788.485 169.429C783.837 172.959 778.628 175.687 772.858 177.612C767.088 179.537 760.998 180.5 754.586 180.5ZM756.269 168.467C765.405 168.467 773.579 166.22 780.792 161.728C788.165 157.075 793.935 150.818 798.102 142.956C802.429 134.934 804.593 125.708 804.593 115.279C804.593 105.011 802.509 95.9458 798.342 88.084C794.175 80.0618 788.405 73.8044 781.032 69.312C773.82 64.6591 765.565 62.3327 756.269 62.3327C746.813 62.3327 738.398 64.6591 731.026 69.312C723.813 73.8044 718.123 80.0618 713.956 88.084C709.789 95.9458 707.705 105.011 707.705 115.279C707.705 125.387 709.709 134.452 713.716 142.475C717.883 150.497 723.573 156.834 730.785 161.487C738.158 166.14 746.653 168.467 756.269 168.467Z" fill="url(#paint18_linear_875_1544)"/>
<path d="M754.586 180.5C743.207 180.5 733.029 177.692 724.054 172.077C715.078 166.461 707.946 158.76 702.657 148.973C697.528 139.186 694.963 128.035 694.963 115.52C694.963 102.845 697.608 91.6138 702.897 81.8267C708.346 72.0396 715.559 64.3382 724.534 58.7227C733.51 53.1071 743.527 50.2993 754.586 50.2993C760.998 50.2993 767.088 51.262 772.858 53.1873C778.628 55.1127 783.837 57.8402 788.485 61.37C793.133 64.7393 797.14 68.7504 800.506 73.4033C802.93 76.755 804.856 80.3149 806.283 84.0829C806.87 85.6355 805.163 86.9026 803.771 85.9972C803.237 85.6495 802.924 85.0467 802.948 84.4096L803.903 58.6061C804.02 55.4472 806.614 52.9467 809.775 52.9467C813.021 52.9467 815.652 55.5777 815.652 58.8233V172.083C815.652 175.402 812.961 178.093 809.642 178.093C806.322 178.093 803.631 175.402 803.631 172.083V147.313C803.631 146.987 803.752 146.672 803.969 146.429C804.903 145.384 806.436 146.26 805.901 147.555C804.519 150.894 802.72 154.094 800.506 157.155C797.14 161.808 793.133 165.9 788.485 169.429C783.837 172.959 778.628 175.687 772.858 177.612C767.088 179.537 760.998 180.5 754.586 180.5ZM756.269 168.467C765.405 168.467 773.579 166.22 780.792 161.728C788.165 157.075 793.935 150.818 798.102 142.956C802.429 134.934 804.593 125.708 804.593 115.279C804.593 105.011 802.509 95.9458 798.342 88.084C794.175 80.0618 788.405 73.8044 781.032 69.312C773.82 64.6591 765.565 62.3327 756.269 62.3327C746.813 62.3327 738.398 64.6591 731.026 69.312C723.813 73.8044 718.123 80.0618 713.956 88.084C709.789 95.9458 707.705 105.011 707.705 115.279C707.705 125.387 709.709 134.452 713.716 142.475C717.883 150.497 723.573 156.834 730.785 161.487C738.158 166.14 746.653 168.467 756.269 168.467Z" fill="url(#paint19_radial_875_1544)" fill-opacity="0.2"/>
<path d="M754.586 180.5C743.207 180.5 733.029 177.692 724.054 172.077C715.078 166.461 707.946 158.76 702.657 148.973C697.528 139.186 694.963 128.035 694.963 115.52C694.963 102.845 697.608 91.6138 702.897 81.8267C708.346 72.0396 715.559 64.3382 724.534 58.7227C733.51 53.1071 743.527 50.2993 754.586 50.2993C760.998 50.2993 767.088 51.262 772.858 53.1873C778.628 55.1127 783.837 57.8402 788.485 61.37C793.133 64.7393 797.14 68.7504 800.506 73.4033C802.93 76.755 804.856 80.3149 806.283 84.0829C806.87 85.6355 805.163 86.9026 803.771 85.9972C803.237 85.6495 802.924 85.0467 802.948 84.4096L803.903 58.6061C804.02 55.4472 806.614 52.9467 809.775 52.9467C813.021 52.9467 815.652 55.5777 815.652 58.8233V172.083C815.652 175.402 812.961 178.093 809.642 178.093C806.322 178.093 803.631 175.402 803.631 172.083V147.313C803.631 146.987 803.752 146.672 803.969 146.429C804.903 145.384 806.436 146.26 805.901 147.555C804.519 150.894 802.72 154.094 800.506 157.155C797.14 161.808 793.133 165.9 788.485 169.429C783.837 172.959 778.628 175.687 772.858 177.612C767.088 179.537 760.998 180.5 754.586 180.5ZM756.269 168.467C765.405 168.467 773.579 166.22 780.792 161.728C788.165 157.075 793.935 150.818 798.102 142.956C802.429 134.934 804.593 125.708 804.593 115.279C804.593 105.011 802.509 95.9458 798.342 88.084C794.175 80.0618 788.405 73.8044 781.032 69.312C773.82 64.6591 765.565 62.3327 756.269 62.3327C746.813 62.3327 738.398 64.6591 731.026 69.312C723.813 73.8044 718.123 80.0618 713.956 88.084C709.789 95.9458 707.705 105.011 707.705 115.279C707.705 125.387 709.709 134.452 713.716 142.475C717.883 150.497 723.573 156.834 730.785 161.487C738.158 166.14 746.653 168.467 756.269 168.467Z" fill="url(#paint20_radial_875_1544)" fill-opacity="0.2"/>
<path d="M900.93 180.5C894.519 180.5 888.428 179.537 882.658 177.612C877.049 175.687 871.84 173.039 867.031 169.67C862.383 166.14 858.376 162.049 855.01 157.396C852.797 154.183 851.003 150.816 849.63 147.297C849.085 145.898 850.712 144.854 851.834 145.852C852.171 146.152 852.356 146.586 852.339 147.037L851.378 172.437C851.258 175.595 848.663 178.093 845.503 178.093C842.256 178.093 839.624 175.461 839.624 172.214V6.01043C839.624 2.69097 842.315 0 845.634 0C848.954 0 851.645 2.69096 851.645 6.01042V83.7933C851.645 84.0769 851.541 84.3507 851.354 84.5634C850.538 85.4888 849.16 84.7145 849.606 83.5647C850.982 80.0227 852.784 76.6356 855.01 73.4033C858.376 68.7504 862.383 64.7393 867.031 61.37C871.84 57.8402 877.049 55.1127 882.658 53.1873C888.428 51.262 894.519 50.2993 900.93 50.2993C911.989 50.2993 922.006 53.1071 930.982 58.7227C939.958 64.3382 947.09 72.0396 952.379 81.8267C957.828 91.6138 960.553 102.845 960.553 115.52C960.553 128.035 957.909 139.186 952.619 148.973C947.491 158.76 940.438 166.461 931.463 172.077C922.487 177.692 912.31 180.5 900.93 180.5ZM899.247 168.467C908.864 168.467 917.278 166.14 924.491 161.487C931.863 156.834 937.553 150.497 941.56 142.475C945.728 134.452 947.811 125.387 947.811 115.279C947.811 105.011 945.728 95.9458 941.56 88.084C937.393 80.0618 931.623 73.8044 924.25 69.312C917.038 64.6591 908.703 62.3327 899.247 62.3327C889.791 62.3327 881.376 64.6591 874.003 69.312C866.791 73.8044 861.101 80.0618 856.934 88.084C852.767 95.9458 850.683 105.011 850.683 115.279C850.683 125.708 852.767 134.934 856.934 142.956C861.261 150.818 867.031 157.075 874.244 161.728C881.617 166.22 889.951 168.467 899.247 168.467Z" fill="#481DBF"/>
<path d="M900.93 180.5C894.519 180.5 888.428 179.537 882.658 177.612C877.049 175.687 871.84 173.039 867.031 169.67C862.383 166.14 858.376 162.049 855.01 157.396C852.797 154.183 851.003 150.816 849.63 147.297C849.085 145.898 850.712 144.854 851.834 145.852C852.171 146.152 852.356 146.586 852.339 147.037L851.378 172.437C851.258 175.595 848.663 178.093 845.503 178.093C842.256 178.093 839.624 175.461 839.624 172.214V6.01043C839.624 2.69097 842.315 0 845.634 0C848.954 0 851.645 2.69096 851.645 6.01042V83.7933C851.645 84.0769 851.541 84.3507 851.354 84.5634C850.538 85.4888 849.16 84.7145 849.606 83.5647C850.982 80.0227 852.784 76.6356 855.01 73.4033C858.376 68.7504 862.383 64.7393 867.031 61.37C871.84 57.8402 877.049 55.1127 882.658 53.1873C888.428 51.262 894.519 50.2993 900.93 50.2993C911.989 50.2993 922.006 53.1071 930.982 58.7227C939.958 64.3382 947.09 72.0396 952.379 81.8267C957.828 91.6138 960.553 102.845 960.553 115.52C960.553 128.035 957.909 139.186 952.619 148.973C947.491 158.76 940.438 166.461 931.463 172.077C922.487 177.692 912.31 180.5 900.93 180.5ZM899.247 168.467C908.864 168.467 917.278 166.14 924.491 161.487C931.863 156.834 937.553 150.497 941.56 142.475C945.728 134.452 947.811 125.387 947.811 115.279C947.811 105.011 945.728 95.9458 941.56 88.084C937.393 80.0618 931.623 73.8044 924.25 69.312C917.038 64.6591 908.703 62.3327 899.247 62.3327C889.791 62.3327 881.376 64.6591 874.003 69.312C866.791 73.8044 861.101 80.0618 856.934 88.084C852.767 95.9458 850.683 105.011 850.683 115.279C850.683 125.708 852.767 134.934 856.934 142.956C861.261 150.818 867.031 157.075 874.244 161.728C881.617 166.22 889.951 168.467 899.247 168.467Z" fill="url(#paint21_linear_875_1544)"/>
<path d="M900.93 180.5C894.519 180.5 888.428 179.537 882.658 177.612C877.049 175.687 871.84 173.039 867.031 169.67C862.383 166.14 858.376 162.049 855.01 157.396C852.797 154.183 851.003 150.816 849.63 147.297C849.085 145.898 850.712 144.854 851.834 145.852C852.171 146.152 852.356 146.586 852.339 147.037L851.378 172.437C851.258 175.595 848.663 178.093 845.503 178.093C842.256 178.093 839.624 175.461 839.624 172.214V6.01043C839.624 2.69097 842.315 0 845.634 0C848.954 0 851.645 2.69096 851.645 6.01042V83.7933C851.645 84.0769 851.541 84.3507 851.354 84.5634C850.538 85.4888 849.16 84.7145 849.606 83.5647C850.982 80.0227 852.784 76.6356 855.01 73.4033C858.376 68.7504 862.383 64.7393 867.031 61.37C871.84 57.8402 877.049 55.1127 882.658 53.1873C888.428 51.262 894.519 50.2993 900.93 50.2993C911.989 50.2993 922.006 53.1071 930.982 58.7227C939.958 64.3382 947.09 72.0396 952.379 81.8267C957.828 91.6138 960.553 102.845 960.553 115.52C960.553 128.035 957.909 139.186 952.619 148.973C947.491 158.76 940.438 166.461 931.463 172.077C922.487 177.692 912.31 180.5 900.93 180.5ZM899.247 168.467C908.864 168.467 917.278 166.14 924.491 161.487C931.863 156.834 937.553 150.497 941.56 142.475C945.728 134.452 947.811 125.387 947.811 115.279C947.811 105.011 945.728 95.9458 941.56 88.084C937.393 80.0618 931.623 73.8044 924.25 69.312C917.038 64.6591 908.703 62.3327 899.247 62.3327C889.791 62.3327 881.376 64.6591 874.003 69.312C866.791 73.8044 861.101 80.0618 856.934 88.084C852.767 95.9458 850.683 105.011 850.683 115.279C850.683 125.708 852.767 134.934 856.934 142.956C861.261 150.818 867.031 157.075 874.244 161.728C881.617 166.22 889.951 168.467 899.247 168.467Z" fill="url(#paint22_radial_875_1544)" fill-opacity="0.2"/>
<path d="M900.93 180.5C894.519 180.5 888.428 179.537 882.658 177.612C877.049 175.687 871.84 173.039 867.031 169.67C862.383 166.14 858.376 162.049 855.01 157.396C852.797 154.183 851.003 150.816 849.63 147.297C849.085 145.898 850.712 144.854 851.834 145.852C852.171 146.152 852.356 146.586 852.339 147.037L851.378 172.437C851.258 175.595 848.663 178.093 845.503 178.093C842.256 178.093 839.624 175.461 839.624 172.214V6.01043C839.624 2.69097 842.315 0 845.634 0C848.954 0 851.645 2.69096 851.645 6.01042V83.7933C851.645 84.0769 851.541 84.3507 851.354 84.5634C850.538 85.4888 849.16 84.7145 849.606 83.5647C850.982 80.0227 852.784 76.6356 855.01 73.4033C858.376 68.7504 862.383 64.7393 867.031 61.37C871.84 57.8402 877.049 55.1127 882.658 53.1873C888.428 51.262 894.519 50.2993 900.93 50.2993C911.989 50.2993 922.006 53.1071 930.982 58.7227C939.958 64.3382 947.09 72.0396 952.379 81.8267C957.828 91.6138 960.553 102.845 960.553 115.52C960.553 128.035 957.909 139.186 952.619 148.973C947.491 158.76 940.438 166.461 931.463 172.077C922.487 177.692 912.31 180.5 900.93 180.5ZM899.247 168.467C908.864 168.467 917.278 166.14 924.491 161.487C931.863 156.834 937.553 150.497 941.56 142.475C945.728 134.452 947.811 125.387 947.811 115.279C947.811 105.011 945.728 95.9458 941.56 88.084C937.393 80.0618 931.623 73.8044 924.25 69.312C917.038 64.6591 908.703 62.3327 899.247 62.3327C889.791 62.3327 881.376 64.6591 874.003 69.312C866.791 73.8044 861.101 80.0618 856.934 88.084C852.767 95.9458 850.683 105.011 850.683 115.279C850.683 125.708 852.767 134.934 856.934 142.956C861.261 150.818 867.031 157.075 874.244 161.728C881.617 166.22 889.951 168.467 899.247 168.467Z" fill="url(#paint23_radial_875_1544)" fill-opacity="0.2"/>
<path d="M1040.1 180.5C1028.08 180.5 1017.35 177.772 1007.89 172.317C998.593 166.862 991.3 159.241 986.011 149.454C980.722 139.667 978.077 128.275 978.077 115.279C978.077 105.813 979.52 97.1491 982.405 89.2873C985.45 81.4256 989.617 74.6067 994.907 68.8307C1000.2 62.8942 1006.53 58.3216 1013.9 55.1127C1021.43 51.9038 1029.61 50.2993 1038.42 50.2993C1047.08 50.2993 1054.85 51.7433 1061.74 54.6313C1068.79 57.5193 1074.72 61.6909 1079.53 67.146C1084.34 72.4407 1087.95 78.7782 1090.35 86.1587C1092.76 93.3787 1093.8 101.401 1093.48 110.225C1093.34 113.852 1090.36 116.723 1086.73 116.723H992.508C989.451 116.723 986.973 114.245 986.973 111.188C986.973 108.131 989.451 105.653 992.508 105.653H1082.85C1084.16 105.653 1084.74 107.293 1083.73 108.122C1082.82 108.866 1081.46 108.22 1081.46 107.045V104.209C1081.46 97.7909 1079.85 91.3731 1076.65 84.9553C1073.6 78.5376 1068.87 73.1627 1062.46 68.8307C1056.05 64.4987 1047.96 62.3327 1038.18 62.3327C1029.05 62.3327 1020.87 64.3382 1013.66 68.3493C1006.61 72.3604 1001 78.2167 996.83 85.918C992.823 93.6193 990.819 103.166 990.819 114.557C990.819 125.468 992.823 135.014 996.83 143.197C1000.84 151.219 1006.61 157.476 1014.14 161.969C1021.83 166.301 1031.21 168.467 1042.27 168.467C1048.2 168.467 1054.29 167.504 1060.54 165.579C1065.49 164.053 1070.95 161.115 1076.91 156.767C1079.55 154.842 1083.29 155.341 1085.17 158.014C1086.77 160.288 1086.48 163.407 1084.32 165.163C1081.66 167.337 1078.7 169.401 1075.45 171.355C1070.64 174.082 1065.27 176.328 1059.34 178.093C1053.41 179.698 1047 180.5 1040.1 180.5Z" fill="#481DBF"/>
<path d="M1040.1 180.5C1028.08 180.5 1017.35 177.772 1007.89 172.317C998.593 166.862 991.3 159.241 986.011 149.454C980.722 139.667 978.077 128.275 978.077 115.279C978.077 105.813 979.52 97.1491 982.405 89.2873C985.45 81.4256 989.617 74.6067 994.907 68.8307C1000.2 62.8942 1006.53 58.3216 1013.9 55.1127C1021.43 51.9038 1029.61 50.2993 1038.42 50.2993C1047.08 50.2993 1054.85 51.7433 1061.74 54.6313C1068.79 57.5193 1074.72 61.6909 1079.53 67.146C1084.34 72.4407 1087.95 78.7782 1090.35 86.1587C1092.76 93.3787 1093.8 101.401 1093.48 110.225C1093.34 113.852 1090.36 116.723 1086.73 116.723H992.508C989.451 116.723 986.973 114.245 986.973 111.188C986.973 108.131 989.451 105.653 992.508 105.653H1082.85C1084.16 105.653 1084.74 107.293 1083.73 108.122C1082.82 108.866 1081.46 108.22 1081.46 107.045V104.209C1081.46 97.7909 1079.85 91.3731 1076.65 84.9553C1073.6 78.5376 1068.87 73.1627 1062.46 68.8307C1056.05 64.4987 1047.96 62.3327 1038.18 62.3327C1029.05 62.3327 1020.87 64.3382 1013.66 68.3493C1006.61 72.3604 1001 78.2167 996.83 85.918C992.823 93.6193 990.819 103.166 990.819 114.557C990.819 125.468 992.823 135.014 996.83 143.197C1000.84 151.219 1006.61 157.476 1014.14 161.969C1021.83 166.301 1031.21 168.467 1042.27 168.467C1048.2 168.467 1054.29 167.504 1060.54 165.579C1065.49 164.053 1070.95 161.115 1076.91 156.767C1079.55 154.842 1083.29 155.341 1085.17 158.014C1086.77 160.288 1086.48 163.407 1084.32 165.163C1081.66 167.337 1078.7 169.401 1075.45 171.355C1070.64 174.082 1065.27 176.328 1059.34 178.093C1053.41 179.698 1047 180.5 1040.1 180.5Z" fill="url(#paint24_linear_875_1544)"/>
<path d="M1040.1 180.5C1028.08 180.5 1017.35 177.772 1007.89 172.317C998.593 166.862 991.3 159.241 986.011 149.454C980.722 139.667 978.077 128.275 978.077 115.279C978.077 105.813 979.52 97.1491 982.405 89.2873C985.45 81.4256 989.617 74.6067 994.907 68.8307C1000.2 62.8942 1006.53 58.3216 1013.9 55.1127C1021.43 51.9038 1029.61 50.2993 1038.42 50.2993C1047.08 50.2993 1054.85 51.7433 1061.74 54.6313C1068.79 57.5193 1074.72 61.6909 1079.53 67.146C1084.34 72.4407 1087.95 78.7782 1090.35 86.1587C1092.76 93.3787 1093.8 101.401 1093.48 110.225C1093.34 113.852 1090.36 116.723 1086.73 116.723H992.508C989.451 116.723 986.973 114.245 986.973 111.188C986.973 108.131 989.451 105.653 992.508 105.653H1082.85C1084.16 105.653 1084.74 107.293 1083.73 108.122C1082.82 108.866 1081.46 108.22 1081.46 107.045V104.209C1081.46 97.7909 1079.85 91.3731 1076.65 84.9553C1073.6 78.5376 1068.87 73.1627 1062.46 68.8307C1056.05 64.4987 1047.96 62.3327 1038.18 62.3327C1029.05 62.3327 1020.87 64.3382 1013.66 68.3493C1006.61 72.3604 1001 78.2167 996.83 85.918C992.823 93.6193 990.819 103.166 990.819 114.557C990.819 125.468 992.823 135.014 996.83 143.197C1000.84 151.219 1006.61 157.476 1014.14 161.969C1021.83 166.301 1031.21 168.467 1042.27 168.467C1048.2 168.467 1054.29 167.504 1060.54 165.579C1065.49 164.053 1070.95 161.115 1076.91 156.767C1079.55 154.842 1083.29 155.341 1085.17 158.014C1086.77 160.288 1086.48 163.407 1084.32 165.163C1081.66 167.337 1078.7 169.401 1075.45 171.355C1070.64 174.082 1065.27 176.328 1059.34 178.093C1053.41 179.698 1047 180.5 1040.1 180.5Z" fill="url(#paint25_radial_875_1544)" fill-opacity="0.2"/>
<path d="M1040.1 180.5C1028.08 180.5 1017.35 177.772 1007.89 172.317C998.593 166.862 991.3 159.241 986.011 149.454C980.722 139.667 978.077 128.275 978.077 115.279C978.077 105.813 979.52 97.1491 982.405 89.2873C985.45 81.4256 989.617 74.6067 994.907 68.8307C1000.2 62.8942 1006.53 58.3216 1013.9 55.1127C1021.43 51.9038 1029.61 50.2993 1038.42 50.2993C1047.08 50.2993 1054.85 51.7433 1061.74 54.6313C1068.79 57.5193 1074.72 61.6909 1079.53 67.146C1084.34 72.4407 1087.95 78.7782 1090.35 86.1587C1092.76 93.3787 1093.8 101.401 1093.48 110.225C1093.34 113.852 1090.36 116.723 1086.73 116.723H992.508C989.451 116.723 986.973 114.245 986.973 111.188C986.973 108.131 989.451 105.653 992.508 105.653H1082.85C1084.16 105.653 1084.74 107.293 1083.73 108.122C1082.82 108.866 1081.46 108.22 1081.46 107.045V104.209C1081.46 97.7909 1079.85 91.3731 1076.65 84.9553C1073.6 78.5376 1068.87 73.1627 1062.46 68.8307C1056.05 64.4987 1047.96 62.3327 1038.18 62.3327C1029.05 62.3327 1020.87 64.3382 1013.66 68.3493C1006.61 72.3604 1001 78.2167 996.83 85.918C992.823 93.6193 990.819 103.166 990.819 114.557C990.819 125.468 992.823 135.014 996.83 143.197C1000.84 151.219 1006.61 157.476 1014.14 161.969C1021.83 166.301 1031.21 168.467 1042.27 168.467C1048.2 168.467 1054.29 167.504 1060.54 165.579C1065.49 164.053 1070.95 161.115 1076.91 156.767C1079.55 154.842 1083.29 155.341 1085.17 158.014C1086.77 160.288 1086.48 163.407 1084.32 165.163C1081.66 167.337 1078.7 169.401 1075.45 171.355C1070.64 174.082 1065.27 176.328 1059.34 178.093C1053.41 179.698 1047 180.5 1040.1 180.5Z" fill="url(#paint26_radial_875_1544)" fill-opacity="0.2"/>
<path d="M1120.18 178.093C1116.86 178.093 1114.17 175.402 1114.17 172.083V6.0104C1114.17 2.69095 1116.86 0 1120.18 0C1123.5 0 1126.19 2.69094 1126.19 6.01039V172.083C1126.19 175.402 1123.5 178.093 1120.18 178.093Z" fill="#481DBF"/>
<path d="M1120.18 178.093C1116.86 178.093 1114.17 175.402 1114.17 172.083V6.0104C1114.17 2.69095 1116.86 0 1120.18 0C1123.5 0 1126.19 2.69094 1126.19 6.01039V172.083C1126.19 175.402 1123.5 178.093 1120.18 178.093Z" fill="url(#paint27_linear_875_1544)"/>
<path d="M1120.18 178.093C1116.86 178.093 1114.17 175.402 1114.17 172.083V6.0104C1114.17 2.69095 1116.86 0 1120.18 0C1123.5 0 1126.19 2.69094 1126.19 6.01039V172.083C1126.19 175.402 1123.5 178.093 1120.18 178.093Z" fill="url(#paint28_radial_875_1544)" fill-opacity="0.2"/>
<path d="M1120.18 178.093C1116.86 178.093 1114.17 175.402 1114.17 172.083V6.0104C1114.17 2.69095 1116.86 0 1120.18 0C1123.5 0 1126.19 2.69094 1126.19 6.01039V172.083C1126.19 175.402 1123.5 178.093 1120.18 178.093Z" fill="url(#paint29_radial_875_1544)" fill-opacity="0.2"/>
<defs>
<linearGradient id="paint0_linear_875_1544" x1="0" y1="10" x2="158.422" y2="229.713" gradientUnits="userSpaceOnUse">
<stop offset="0.215" stop-color="#481DBF"/>
<stop offset="0.9" stop-color="#825FE7"/>
</linearGradient>
<radialGradient id="paint1_radial_875_1544" cx="0" cy="0" r="1" gradientUnits="userSpaceOnUse" gradientTransform="translate(-67.9795 -103.211) rotate(-28.1453) scale(77.0958 316.393)">
<stop offset="0.85" stop-color="#481DBF"/>
<stop offset="0.99" stop-color="#734BE4"/>
<stop offset="1" stop-color="#A287ED" stop-opacity="0"/>
</radialGradient>
<radialGradient id="paint2_radial_875_1544" cx="0" cy="0" r="1" gradientUnits="userSpaceOnUse" gradientTransform="translate(-41.4456 142.976) rotate(11.5734) scale(169.447 551.47)">
<stop stop-color="#481DBF"/>
<stop offset="0.99" stop-color="#6337E1"/>
<stop offset="1" stop-color="white" stop-opacity="0"/>
</radialGradient>
<linearGradient id="paint3_linear_875_1544" x1="0" y1="10" x2="158.422" y2="229.713" gradientUnits="userSpaceOnUse">
<stop offset="0.215" stop-color="#481DBF"/>
<stop offset="0.9" stop-color="#825FE7"/>
</linearGradient>
<radialGradient id="paint4_radial_875_1544" cx="0" cy="0" r="1" gradientUnits="userSpaceOnUse" gradientTransform="translate(-67.9795 -103.211) rotate(-28.1453) scale(77.0958 316.393)">
<stop offset="0.85" stop-color="#481DBF"/>
<stop offset="0.99" stop-color="#734BE4"/>
<stop offset="1" stop-color="#A287ED" stop-opacity="0"/>
</radialGradient>
<radialGradient id="paint5_radial_875_1544" cx="0" cy="0" r="1" gradientUnits="userSpaceOnUse" gradientTransform="translate(-41.4456 142.976) rotate(11.5734) scale(169.447 551.47)">
<stop stop-color="#481DBF"/>
<stop offset="0.99" stop-color="#6337E1"/>
<stop offset="1" stop-color="white" stop-opacity="0"/>
</radialGradient>
<linearGradient id="paint6_linear_875_1544" x1="0" y1="10" x2="158.422" y2="229.713" gradientUnits="userSpaceOnUse">
<stop offset="0.215" stop-color="#481DBF"/>
<stop offset="0.9" stop-color="#825FE7"/>
</linearGradient>
<radialGradient id="paint7_radial_875_1544" cx="0" cy="0" r="1" gradientUnits="userSpaceOnUse" gradientTransform="translate(-67.9795 -103.211) rotate(-28.1453) scale(77.0958 316.393)">
<stop offset="0.85" stop-color="#481DBF"/>
<stop offset="0.99" stop-color="#734BE4"/>
<stop offset="1" stop-color="#A287ED" stop-opacity="0"/>
</radialGradient>
<radialGradient id="paint8_radial_875_1544" cx="0" cy="0" r="1" gradientUnits="userSpaceOnUse" gradientTransform="translate(-41.4456 142.976) rotate(11.5734) scale(169.447 551.47)">
<stop stop-color="#481DBF"/>
<stop offset="0.99" stop-color="#6337E1"/>
<stop offset="1" stop-color="white" stop-opacity="0"/>
</radialGradient>
<linearGradient id="paint9_linear_875_1544" x1="265.57" y1="0" x2="338.094" y2="345.789" gradientUnits="userSpaceOnUse">
<stop offset="0.215" stop-color="#481DBF"/>
<stop offset="0.9" stop-color="#825FE7"/>
</linearGradient>
<radialGradient id="paint10_radial_875_1544" cx="0" cy="0" r="1" gradientUnits="userSpaceOnUse" gradientTransform="translate(12.9274 -122.384) rotate(-8.84479) scale(255.683 383.283)">
<stop offset="0.85" stop-color="#481DBF"/>
<stop offset="0.99" stop-color="#734BE4"/>
<stop offset="1" stop-color="#A287ED" stop-opacity="0"/>
</radialGradient>
<radialGradient id="paint11_radial_875_1544" cx="0" cy="0" r="1" gradientUnits="userSpaceOnUse" gradientTransform="translate(111.54 143.75) rotate(3.40894) scale(618.031 607.449)">
<stop stop-color="#481DBF"/>
<stop offset="0.99" stop-color="#6337E1"/>
<stop offset="1" stop-color="white" stop-opacity="0"/>
</radialGradient>
<linearGradient id="paint12_linear_875_1544" x1="265.57" y1="0" x2="338.094" y2="345.789" gradientUnits="userSpaceOnUse">
<stop offset="0.215" stop-color="#481DBF"/>
<stop offset="0.9" stop-color="#825FE7"/>
</linearGradient>
<radialGradient id="paint13_radial_875_1544" cx="0" cy="0" r="1" gradientUnits="userSpaceOnUse" gradientTransform="translate(12.9274 -122.384) rotate(-8.84479) scale(255.683 383.283)">
<stop offset="0.85" stop-color="#481DBF"/>
<stop offset="0.99" stop-color="#734BE4"/>
<stop offset="1" stop-color="#A287ED" stop-opacity="0"/>
</radialGradient>
<radialGradient id="paint14_radial_875_1544" cx="0" cy="0" r="1" gradientUnits="userSpaceOnUse" gradientTransform="translate(111.54 143.75) rotate(3.40894) scale(618.031 607.449)">
<stop stop-color="#481DBF"/>
<stop offset="0.99" stop-color="#6337E1"/>
<stop offset="1" stop-color="white" stop-opacity="0"/>
</radialGradient>
<linearGradient id="paint15_linear_875_1544" x1="265.57" y1="0" x2="338.094" y2="345.789" gradientUnits="userSpaceOnUse">
<stop offset="0.215" stop-color="#481DBF"/>
<stop offset="0.9" stop-color="#825FE7"/>
</linearGradient>
<radialGradient id="paint16_radial_875_1544" cx="0" cy="0" r="1" gradientUnits="userSpaceOnUse" gradientTransform="translate(12.9274 -122.384) rotate(-8.84479) scale(255.683 383.283)">
<stop offset="0.85" stop-color="#481DBF"/>
<stop offset="0.99" stop-color="#734BE4"/>
<stop offset="1" stop-color="#A287ED" stop-opacity="0"/>
</radialGradient>
<radialGradient id="paint17_radial_875_1544" cx="0" cy="0" r="1" gradientUnits="userSpaceOnUse" gradientTransform="translate(111.54 143.75) rotate(3.40894) scale(618.031 607.449)">
<stop stop-color="#481DBF"/>
<stop offset="0.99" stop-color="#6337E1"/>
<stop offset="1" stop-color="white" stop-opacity="0"/>
</radialGradient>
<linearGradient id="paint18_linear_875_1544" x1="265.57" y1="0" x2="338.094" y2="345.789" gradientUnits="userSpaceOnUse">
<stop offset="0.215" stop-color="#481DBF"/>
<stop offset="0.9" stop-color="#825FE7"/>
</linearGradient>
<radialGradient id="paint19_radial_875_1544" cx="0" cy="0" r="1" gradientUnits="userSpaceOnUse" gradientTransform="translate(12.9274 -122.384) rotate(-8.84479) scale(255.683 383.283)">
<stop offset="0.85" stop-color="#481DBF"/>
<stop offset="0.99" stop-color="#734BE4"/>
<stop offset="1" stop-color="#A287ED" stop-opacity="0"/>
</radialGradient>
<radialGradient id="paint20_radial_875_1544" cx="0" cy="0" r="1" gradientUnits="userSpaceOnUse" gradientTransform="translate(111.54 143.75) rotate(3.40894) scale(618.031 607.449)">
<stop stop-color="#481DBF"/>
<stop offset="0.99" stop-color="#6337E1"/>
<stop offset="1" stop-color="white" stop-opacity="0"/>
</radialGradient>
<linearGradient id="paint21_linear_875_1544" x1="265.57" y1="0" x2="338.094" y2="345.789" gradientUnits="userSpaceOnUse">
<stop offset="0.215" stop-color="#481DBF"/>
<stop offset="0.9" stop-color="#825FE7"/>
</linearGradient>
<radialGradient id="paint22_radial_875_1544" cx="0" cy="0" r="1" gradientUnits="userSpaceOnUse" gradientTransform="translate(12.9274 -122.384) rotate(-8.84479) scale(255.683 383.283)">
<stop offset="0.85" stop-color="#481DBF"/>
<stop offset="0.99" stop-color="#734BE4"/>
<stop offset="1" stop-color="#A287ED" stop-opacity="0"/>
</radialGradient>
<radialGradient id="paint23_radial_875_1544" cx="0" cy="0" r="1" gradientUnits="userSpaceOnUse" gradientTransform="translate(111.54 143.75) rotate(3.40894) scale(618.031 607.449)">
<stop stop-color="#481DBF"/>
<stop offset="0.99" stop-color="#6337E1"/>
<stop offset="1" stop-color="white" stop-opacity="0"/>
</radialGradient>
<linearGradient id="paint24_linear_875_1544" x1="265.57" y1="0" x2="338.094" y2="345.789" gradientUnits="userSpaceOnUse">
<stop offset="0.215" stop-color="#481DBF"/>
<stop offset="0.9" stop-color="#825FE7"/>
</linearGradient>
<radialGradient id="paint25_radial_875_1544" cx="0" cy="0" r="1" gradientUnits="userSpaceOnUse" gradientTransform="translate(12.9274 -122.384) rotate(-8.84479) scale(255.683 383.283)">
<stop offset="0.85" stop-color="#481DBF"/>
<stop offset="0.99" stop-color="#734BE4"/>
<stop offset="1" stop-color="#A287ED" stop-opacity="0"/>
</radialGradient>
<radialGradient id="paint26_radial_875_1544" cx="0" cy="0" r="1" gradientUnits="userSpaceOnUse" gradientTransform="translate(111.54 143.75) rotate(3.40894) scale(618.031 607.449)">
<stop stop-color="#481DBF"/>
<stop offset="0.99" stop-color="#6337E1"/>
<stop offset="1" stop-color="white" stop-opacity="0"/>
</radialGradient>
<linearGradient id="paint27_linear_875_1544" x1="265.57" y1="0" x2="338.094" y2="345.789" gradientUnits="userSpaceOnUse">
<stop offset="0.215" stop-color="#481DBF"/>
<stop offset="0.9" stop-color="#825FE7"/>
</linearGradient>
<radialGradient id="paint28_radial_875_1544" cx="0" cy="0" r="1" gradientUnits="userSpaceOnUse" gradientTransform="translate(12.9274 -122.384) rotate(-8.84479) scale(255.683 383.283)">
<stop offset="0.85" stop-color="#481DBF"/>
<stop offset="0.99" stop-color="#734BE4"/>
<stop offset="1" stop-color="#A287ED" stop-opacity="0"/>
</radialGradient>
<radialGradient id="paint29_radial_875_1544" cx="0" cy="0" r="1" gradientUnits="userSpaceOnUse" gradientTransform="translate(111.54 143.75) rotate(3.40894) scale(618.031 607.449)">
<stop stop-color="#481DBF"/>
<stop offset="0.99" stop-color="#6337E1"/>
<stop offset="1" stop-color="white" stop-opacity="0"/>
</radialGradient>
</defs>
</svg>
