<svg width="1366" height="508" viewBox="0 0 1366 508" fill="none" xmlns="http://www.w3.org/2000/svg">
<g filter="url(#filter0_d_634_334)">
<rect x="86" y="70" width="596.659" height="386.827" rx="38.6827" fill="#F3F4FA"/>
<g filter="url(#filter1_b_634_334)">
<rect x="140.156" y="108.683" width="488.347" height="64.4711" rx="32.2356" fill="#28A080"/>
<path d="M283.884 154.421C281.471 154.421 279.403 153.896 277.682 152.845C275.961 151.784 274.637 150.309 273.71 148.42C272.793 146.532 272.335 144.341 272.335 141.849C272.335 139.357 272.793 137.167 273.71 135.278C274.637 133.39 275.961 131.92 277.682 130.87C279.403 129.808 281.471 129.277 283.884 129.277C286.298 129.277 288.366 129.808 290.087 130.87C291.819 131.92 293.143 133.39 294.059 135.278C294.987 137.167 295.451 139.357 295.451 141.849C295.451 144.341 294.987 146.532 294.059 148.42C293.143 150.309 291.819 151.784 290.087 152.845C288.366 153.896 286.298 154.421 283.884 154.421ZM283.884 150.616C285.505 150.627 286.851 150.27 287.924 149.543C289.008 148.817 289.818 147.794 290.355 146.476C290.902 145.157 291.176 143.615 291.176 141.849C291.176 140.084 290.902 138.553 290.355 137.256C289.818 135.949 289.008 134.932 287.924 134.206C286.851 133.479 285.505 133.105 283.884 133.082C282.264 133.071 280.917 133.429 279.845 134.155C278.772 134.882 277.962 135.904 277.414 137.223C276.878 138.541 276.61 140.084 276.61 141.849C276.61 143.615 276.878 145.151 277.414 146.459C277.951 147.755 278.755 148.767 279.828 149.493C280.912 150.219 282.264 150.594 283.884 150.616ZM308.845 153.918V129.78H312.935L324.132 146.794V129.78H328.222V153.918H324.132L312.935 136.904V153.918H308.845ZM360.07 153.918V129.78H364.109V150.13H374.77V153.918H360.07ZM385.991 153.918L393.602 129.78H399.519L407.129 153.918H402.972L396.066 132.261H396.971L390.148 153.918H385.991ZM390.232 148.688V144.917H402.905V148.688H390.232ZM420.217 153.918V129.78H429.788C431.42 129.78 432.755 130.11 433.795 130.769C434.845 131.417 435.622 132.25 436.125 133.267C436.639 134.284 436.896 135.334 436.896 136.418C436.896 137.748 436.577 138.877 435.94 139.804C435.314 140.732 434.46 141.358 433.376 141.682V140.843C434.895 141.19 436.046 141.911 436.829 143.006C437.622 144.101 438.019 145.347 438.019 146.744C438.019 148.174 437.745 149.426 437.197 150.499C436.65 151.571 435.834 152.41 434.75 153.013C433.677 153.616 432.347 153.918 430.761 153.918H420.217ZM424.307 150.113H430.258C430.962 150.113 431.593 149.973 432.152 149.694C432.711 149.404 433.146 149.001 433.459 148.487C433.783 147.962 433.945 147.342 433.945 146.627C433.945 145.978 433.806 145.397 433.526 144.883C433.247 144.369 432.839 143.961 432.303 143.66C431.766 143.347 431.124 143.19 430.375 143.19H424.307V150.113ZM424.307 139.419H429.738C430.319 139.419 430.839 139.307 431.297 139.083C431.755 138.86 432.118 138.53 432.387 138.094C432.655 137.659 432.789 137.122 432.789 136.485C432.789 135.647 432.521 134.949 431.984 134.39C431.448 133.831 430.699 133.552 429.738 133.552H424.307V139.419ZM451.424 153.918V129.78H467.013V133.569H455.464V139.519H465.002V143.308H455.464V150.13H467.013V153.918H451.424ZM481.428 153.918V129.78H485.467V150.13H496.128V153.918H481.428Z" fill="white"/>
</g>
<path d="M353.588 331.662C351.662 331.662 349.929 331.209 348.389 330.301C346.848 329.379 345.624 328.121 344.716 326.525C343.822 324.93 343.375 323.114 343.375 321.079V311.609C343.375 309.45 343.822 307.552 344.716 305.915C345.624 304.278 346.876 303.006 348.471 302.098C350.08 301.191 351.93 300.737 354.021 300.737C355.589 300.737 357.06 301.033 358.436 301.624C359.811 302.215 361.001 303.096 362.005 304.265L358.848 307.215C358.285 306.486 357.576 305.908 356.723 305.482C355.884 305.042 354.984 304.822 354.021 304.822C352.783 304.822 351.696 305.117 350.761 305.709C349.826 306.287 349.09 307.05 348.554 307.999C348.031 308.948 347.77 309.966 347.77 311.052V316.499L346.924 315.55C347.777 314.436 348.836 313.555 350.101 312.909C351.366 312.263 352.721 311.939 354.165 311.939C356.008 311.939 357.652 312.373 359.096 313.239C360.554 314.092 361.695 315.254 362.521 316.726C363.36 318.197 363.779 319.855 363.779 321.698C363.779 323.554 363.312 325.239 362.376 326.752C361.455 328.251 360.217 329.448 358.663 330.342C357.122 331.222 355.431 331.662 353.588 331.662ZM353.588 327.516C354.66 327.516 355.637 327.254 356.517 326.732C357.397 326.209 358.099 325.508 358.622 324.627C359.144 323.747 359.405 322.771 359.405 321.698C359.405 320.625 359.144 319.648 358.622 318.768C358.113 317.888 357.418 317.186 356.538 316.664C355.658 316.141 354.681 315.88 353.608 315.88C352.535 315.88 351.552 316.141 350.658 316.664C349.778 317.186 349.076 317.888 348.554 318.768C348.031 319.648 347.77 320.625 347.77 321.698C347.77 322.757 348.031 323.726 348.554 324.607C349.076 325.487 349.778 326.195 350.658 326.732C351.538 327.254 352.515 327.516 353.588 327.516ZM378.513 331.662C376.574 331.662 374.855 331.277 373.356 330.507C371.87 329.723 370.701 328.637 369.849 327.247C369.01 325.858 368.59 324.249 368.59 322.42C368.59 320.714 368.989 319.153 369.787 317.737C370.584 316.32 371.774 315.206 373.356 314.394L373.273 315.88C372.008 315.096 371.031 314.119 370.344 312.95C369.67 311.767 369.333 310.447 369.333 308.989C369.333 307.297 369.725 305.833 370.509 304.595C371.293 303.357 372.372 302.401 373.748 301.727C375.137 301.053 376.725 300.716 378.513 300.716C380.301 300.716 381.883 301.053 383.259 301.727C384.634 302.401 385.714 303.357 386.498 304.595C387.282 305.833 387.673 307.297 387.673 308.989C387.673 310.447 387.35 311.761 386.704 312.93C386.057 314.099 385.067 315.082 383.733 315.88L383.671 314.436C385.239 315.206 386.429 316.306 387.24 317.737C388.052 319.153 388.457 320.714 388.457 322.42C388.457 324.249 388.031 325.858 387.178 327.247C386.326 328.637 385.15 329.723 383.65 330.507C382.151 331.277 380.439 331.662 378.513 331.662ZM378.513 327.557C380.109 327.557 381.402 327.124 382.392 326.257C383.382 325.377 383.877 324.098 383.877 322.42C383.877 320.742 383.382 319.463 382.392 318.582C381.415 317.688 380.123 317.241 378.513 317.241C376.904 317.241 375.604 317.688 374.614 318.582C373.638 319.463 373.149 320.742 373.149 322.42C373.149 324.098 373.645 325.377 374.635 326.257C375.625 327.124 376.918 327.557 378.513 327.557ZM378.513 313.115C379.875 313.115 380.975 312.778 381.814 312.104C382.667 311.417 383.093 310.378 383.093 308.989C383.093 307.6 382.667 306.562 381.814 305.874C380.975 305.172 379.875 304.822 378.513 304.822C377.152 304.822 376.045 305.172 375.192 305.874C374.339 306.562 373.913 307.6 373.913 308.989C373.913 310.378 374.339 311.417 375.192 312.104C376.045 312.778 377.152 313.115 378.513 313.115ZM397.538 331.043L394.649 328.155L421.49 301.335L424.378 304.244L397.538 331.043ZM418.189 331.662C416.827 331.662 415.583 331.332 414.455 330.672C413.341 329.998 412.447 329.104 411.773 327.99C411.099 326.862 410.762 325.611 410.762 324.235C410.762 322.887 411.106 321.65 411.793 320.522C412.481 319.394 413.389 318.493 414.517 317.819C415.645 317.145 416.869 316.808 418.189 316.808C419.551 316.808 420.795 317.145 421.923 317.819C423.051 318.479 423.945 319.373 424.605 320.501C425.279 321.615 425.616 322.86 425.616 324.235C425.616 325.611 425.279 326.862 424.605 327.99C423.945 329.104 423.051 329.998 421.923 330.672C420.795 331.332 419.551 331.662 418.189 331.662ZM418.189 327.928C418.863 327.928 419.475 327.763 420.025 327.433C420.589 327.089 421.036 326.635 421.366 326.071C421.71 325.508 421.882 324.895 421.882 324.235C421.882 323.575 421.71 322.963 421.366 322.399C421.036 321.835 420.589 321.388 420.025 321.058C419.475 320.714 418.863 320.542 418.189 320.542C417.529 320.542 416.917 320.714 416.353 321.058C415.803 321.388 415.356 321.835 415.012 322.399C414.682 322.963 414.517 323.575 414.517 324.235C414.517 324.895 414.682 325.508 415.012 326.071C415.356 326.635 415.803 327.089 416.353 327.433C416.917 327.763 417.529 327.928 418.189 327.928ZM400.838 315.57C399.477 315.57 398.232 315.24 397.104 314.58C395.977 313.906 395.076 313.012 394.402 311.898C393.742 310.77 393.411 309.519 393.411 308.143C393.411 306.795 393.755 305.558 394.443 304.43C395.131 303.302 396.038 302.401 397.166 301.727C398.294 301.053 399.518 300.716 400.838 300.716C402.2 300.716 403.438 301.053 404.552 301.727C405.68 302.387 406.581 303.281 407.255 304.409C407.929 305.523 408.266 306.768 408.266 308.143C408.266 309.519 407.929 310.77 407.255 311.898C406.581 313.012 405.68 313.906 404.552 314.58C403.438 315.24 402.2 315.57 400.838 315.57ZM400.838 311.836C401.499 311.836 402.111 311.671 402.675 311.341C403.239 310.997 403.686 310.543 404.016 309.979C404.359 309.416 404.531 308.803 404.531 308.143C404.531 307.483 404.359 306.871 404.016 306.307C403.686 305.743 403.239 305.296 402.675 304.966C402.111 304.622 401.499 304.45 400.838 304.45C400.178 304.45 399.566 304.622 399.002 304.966C398.452 305.296 398.005 305.743 397.661 306.307C397.318 306.871 397.146 307.483 397.146 308.143C397.146 308.803 397.318 309.416 397.661 309.979C398.005 310.543 398.452 310.997 399.002 311.341C399.553 311.671 400.165 311.836 400.838 311.836Z" fill="#011445"/>
<path fill-rule="evenodd" clip-rule="evenodd" d="M384.326 418.144C441.297 418.144 487.48 371.961 487.48 314.99C487.48 258.02 441.297 211.836 384.326 211.836C327.356 211.836 281.173 258.02 281.173 314.99C281.173 371.961 327.356 418.144 384.326 418.144ZM384.326 392.356C427.054 392.356 461.691 357.719 461.691 314.991C461.691 272.263 427.054 237.625 384.326 237.625C341.598 237.625 306.961 272.263 306.961 314.991C306.961 357.719 341.598 392.356 384.326 392.356Z" fill="#D0C3F6"/>
<path fill-rule="evenodd" clip-rule="evenodd" d="M331.817 226.201C347.718 216.798 365.853 211.836 384.326 211.836V237.625C384.326 237.625 384.326 237.625 384.326 237.625C341.598 237.625 306.961 272.263 306.961 314.991C306.961 357.719 341.598 392.356 384.326 392.356C415.27 392.356 441.971 374.189 454.345 347.939L477.663 358.911C469.797 375.627 457.587 389.923 442.307 400.307C427.028 410.691 409.241 416.781 390.804 417.941C372.366 419.1 353.956 415.288 337.496 406.901C321.035 398.514 307.129 385.861 297.231 370.263C287.332 354.665 281.804 336.695 281.224 318.23C280.643 299.766 285.032 281.484 293.932 265.296C302.832 249.107 315.916 235.605 331.817 226.201Z" fill="#9273EA"/>
</g>
<g filter="url(#filter2_d_634_334)">
<rect x="721.341" y="70" width="596.659" height="386.827" rx="38.6827" fill="#F3F4FA"/>
<g filter="url(#filter3_b_634_334)">
<rect x="832.313" y="108.683" width="374.714" height="64.4711" rx="32.2356" fill="#D8771F"/>
<path d="M908.726 154.421C906.312 154.421 904.245 153.896 902.524 152.845C900.803 151.784 899.478 150.309 898.551 148.42C897.635 146.532 897.176 144.341 897.176 141.849C897.176 139.357 897.635 137.167 898.551 135.278C899.478 133.39 900.803 131.92 902.524 130.87C904.245 129.808 906.312 129.277 908.726 129.277C911.14 129.277 913.207 129.808 914.928 130.87C916.66 131.92 917.984 133.39 918.901 135.278C919.828 137.167 920.292 139.357 920.292 141.849C920.292 144.341 919.828 146.532 918.901 148.42C917.984 150.309 916.66 151.784 914.928 152.845C913.207 153.896 911.14 154.421 908.726 154.421ZM908.726 150.616C910.346 150.627 911.693 150.27 912.766 149.543C913.849 148.817 914.66 147.794 915.196 146.476C915.744 145.157 916.017 143.615 916.017 141.849C916.017 140.084 915.744 138.553 915.196 137.256C914.66 135.949 913.849 134.932 912.766 134.206C911.693 133.479 910.346 133.105 908.726 133.082C907.105 133.071 905.759 133.429 904.686 134.155C903.613 134.882 902.803 135.904 902.255 137.223C901.719 138.541 901.451 140.084 901.451 141.849C901.451 143.615 901.719 145.151 902.255 146.459C902.792 147.755 903.596 148.767 904.669 149.493C905.753 150.219 907.105 150.594 908.726 150.616ZM933.686 153.918V129.78H948.219V133.82H937.726V139.838H946.207V143.861H937.726V153.918H933.686ZM961.292 153.918V129.78H975.825V133.82H965.331V139.838H973.813V143.861H965.331V153.918H961.292ZM1006 153.918V129.78H1010.04V150.13H1020.7V153.918H1006ZM1031.92 153.918L1039.53 129.78H1045.45L1053.06 153.918H1048.9L1042 132.261H1042.9L1036.08 153.918H1031.92ZM1036.16 148.688V144.917H1048.84V148.688H1036.16ZM1066.15 153.918V129.78H1075.72C1077.35 129.78 1078.69 130.11 1079.73 130.769C1080.78 131.417 1081.55 132.25 1082.06 133.267C1082.57 134.284 1082.83 135.334 1082.83 136.418C1082.83 137.748 1082.51 138.877 1081.87 139.804C1081.25 140.732 1080.39 141.358 1079.31 141.682V140.843C1080.83 141.19 1081.98 141.911 1082.76 143.006C1083.55 144.101 1083.95 145.347 1083.95 146.744C1083.95 148.174 1083.68 149.426 1083.13 150.499C1082.58 151.571 1081.77 152.41 1080.68 153.013C1079.61 153.616 1078.28 153.918 1076.69 153.918H1066.15ZM1070.24 150.113H1076.19C1076.89 150.113 1077.53 149.973 1078.08 149.694C1078.64 149.404 1079.08 149.001 1079.39 148.487C1079.72 147.962 1079.88 147.342 1079.88 146.627C1079.88 145.978 1079.74 145.397 1079.46 144.883C1079.18 144.369 1078.77 143.961 1078.23 143.66C1077.7 143.347 1077.06 143.19 1076.31 143.19H1070.24V150.113ZM1070.24 139.419H1075.67C1076.25 139.419 1076.77 139.307 1077.23 139.083C1077.69 138.86 1078.05 138.53 1078.32 138.094C1078.59 137.659 1078.72 137.122 1078.72 136.485C1078.72 135.647 1078.45 134.949 1077.92 134.39C1077.38 133.831 1076.63 133.552 1075.67 133.552H1070.24V139.419ZM1097.36 153.918V129.78H1112.95V133.569H1101.4V139.519H1110.93V143.308H1101.4V150.13H1112.95V153.918H1097.36ZM1127.36 153.918V129.78H1131.4V150.13H1142.06V153.918H1127.36Z" fill="white"/>
</g>
<path d="M987.032 331.6C985.56 331.6 984.178 331.325 982.885 330.775C981.592 330.211 980.471 329.414 979.522 328.382C978.587 327.351 977.906 326.133 977.48 324.73L981.647 323.575C982.046 324.854 982.741 325.838 983.731 326.525C984.721 327.199 985.822 327.529 987.032 327.516C988.118 327.502 989.074 327.247 989.9 326.752C990.725 326.257 991.371 325.59 991.839 324.751C992.306 323.898 992.54 322.922 992.54 321.822C992.54 320.171 992.024 318.809 990.993 317.737C989.975 316.664 988.641 316.127 986.991 316.127C986.523 316.127 986.042 316.196 985.546 316.334C985.065 316.471 984.611 316.65 984.185 316.87L982.163 313.466L992.643 304.203L993.097 305.441H978.656V301.335H996.522V305.441L987.816 313.817L987.775 312.414C989.645 312.414 991.268 312.833 992.643 313.672C994.019 314.498 995.078 315.625 995.821 317.056C996.577 318.472 996.955 320.061 996.955 321.822C996.955 323.72 996.508 325.404 995.614 326.876C994.734 328.348 993.544 329.503 992.045 330.342C990.56 331.181 988.889 331.6 987.032 331.6ZM1001.5 331.023L1001.53 327.186L1014.46 315.591C1015.51 314.67 1016.21 313.789 1016.59 312.95C1016.97 312.111 1017.16 311.272 1017.16 310.433C1017.16 309.374 1016.93 308.425 1016.46 307.586C1015.99 306.734 1015.35 306.06 1014.52 305.564C1013.7 305.069 1012.75 304.822 1011.68 304.822C1010.58 304.822 1009.59 305.083 1008.73 305.606C1007.87 306.115 1007.21 306.795 1006.72 307.648C1006.24 308.501 1006.01 309.422 1006.02 310.413H1001.61C1001.61 308.487 1002.04 306.802 1002.91 305.358C1003.79 303.9 1004.99 302.766 1006.52 301.954C1008.04 301.129 1009.79 300.716 1011.76 300.716C1013.63 300.716 1015.31 301.143 1016.79 301.995C1018.28 302.834 1019.45 303.99 1020.3 305.461C1021.17 306.933 1021.6 308.611 1021.6 310.495C1021.6 311.857 1021.42 313.012 1021.06 313.961C1020.71 314.91 1020.17 315.79 1019.45 316.602C1018.74 317.413 1017.84 318.294 1016.77 319.243L1006.79 328.155L1006.31 326.917H1021.6V331.023H1001.5ZM1030.26 331.043L1027.37 328.155L1054.21 301.335L1057.1 304.244L1030.26 331.043ZM1050.91 331.662C1049.55 331.662 1048.31 331.332 1047.18 330.672C1046.06 329.998 1045.17 329.104 1044.5 327.99C1043.82 326.862 1043.49 325.611 1043.49 324.235C1043.49 322.887 1043.83 321.65 1044.52 320.522C1045.2 319.394 1046.11 318.493 1047.24 317.819C1048.37 317.145 1049.59 316.808 1050.91 316.808C1052.27 316.808 1053.52 317.145 1054.65 317.819C1055.77 318.479 1056.67 319.373 1057.33 320.501C1058 321.615 1058.34 322.86 1058.34 324.235C1058.34 325.611 1058 326.862 1057.33 327.99C1056.67 329.104 1055.77 329.998 1054.65 330.672C1053.52 331.332 1052.27 331.662 1050.91 331.662ZM1050.91 327.928C1051.59 327.928 1052.2 327.763 1052.75 327.433C1053.31 327.089 1053.76 326.635 1054.09 326.071C1054.43 325.508 1054.61 324.895 1054.61 324.235C1054.61 323.575 1054.43 322.963 1054.09 322.399C1053.76 321.835 1053.31 321.388 1052.75 321.058C1052.2 320.714 1051.59 320.542 1050.91 320.542C1050.25 320.542 1049.64 320.714 1049.08 321.058C1048.53 321.388 1048.08 321.835 1047.73 322.399C1047.4 322.963 1047.24 323.575 1047.24 324.235C1047.24 324.895 1047.4 325.508 1047.73 326.071C1048.08 326.635 1048.53 327.089 1049.08 327.433C1049.64 327.763 1050.25 327.928 1050.91 327.928ZM1033.56 315.57C1032.2 315.57 1030.96 315.24 1029.83 314.58C1028.7 313.906 1027.8 313.012 1027.12 311.898C1026.46 310.77 1026.13 309.519 1026.13 308.143C1026.13 306.795 1026.48 305.558 1027.17 304.43C1027.85 303.302 1028.76 302.401 1029.89 301.727C1031.02 301.053 1032.24 300.716 1033.56 300.716C1034.92 300.716 1036.16 301.053 1037.28 301.727C1038.4 302.387 1039.3 303.281 1039.98 304.409C1040.65 305.523 1040.99 306.768 1040.99 308.143C1040.99 309.519 1040.65 310.77 1039.98 311.898C1039.3 313.012 1038.4 313.906 1037.28 314.58C1036.16 315.24 1034.92 315.57 1033.56 315.57ZM1033.56 311.836C1034.22 311.836 1034.83 311.671 1035.4 311.341C1035.96 310.997 1036.41 310.543 1036.74 309.979C1037.08 309.416 1037.25 308.803 1037.25 308.143C1037.25 307.483 1037.08 306.871 1036.74 306.307C1036.41 305.743 1035.96 305.296 1035.4 304.966C1034.83 304.622 1034.22 304.45 1033.56 304.45C1032.9 304.45 1032.29 304.622 1031.73 304.966C1031.18 305.296 1030.73 305.743 1030.38 306.307C1030.04 306.871 1029.87 307.483 1029.87 308.143C1029.87 308.803 1030.04 309.416 1030.38 309.979C1030.73 310.543 1031.18 310.997 1031.73 311.341C1032.28 311.671 1032.89 311.836 1033.56 311.836Z" fill="#011445"/>
<path fill-rule="evenodd" clip-rule="evenodd" d="M1019.67 418.144C1076.64 418.144 1122.82 371.961 1122.82 314.99C1122.82 258.02 1076.64 211.836 1019.67 211.836C962.7 211.836 916.517 258.02 916.517 314.99C916.517 371.961 962.7 418.144 1019.67 418.144ZM1019.67 392.356C1062.4 392.356 1097.04 357.719 1097.04 314.991C1097.04 272.263 1062.4 237.625 1019.67 237.625C976.943 237.625 942.305 272.263 942.305 314.991C942.305 357.719 976.943 392.356 1019.67 392.356Z" fill="#D0C3F6"/>
<path fill-rule="evenodd" clip-rule="evenodd" d="M969.976 224.596C985.202 216.225 1002.3 211.836 1019.67 211.836V237.625C1019.67 237.625 1019.67 237.625 1019.67 237.625C976.943 237.625 942.305 272.263 942.305 314.991C942.305 326.774 944.939 337.943 949.651 347.939L926.334 358.911C918.936 343.19 915.629 325.854 916.72 308.513C917.811 291.172 923.265 274.388 932.575 259.718C941.885 245.047 954.75 232.966 969.976 224.596Z" fill="#9273EA"/>
</g>
<g filter="url(#filter4_d_634_334)">
<rect width="172.464" height="172.464" rx="85.3484" fill="white"/>
<g filter="url(#filter5_d_634_334)">
<rect x="28.6885" y="28.6885" width="115.087" height="115.087" rx="57.5435" fill="#7B55E6"/>
<mask id="mask0_634_334" style="mask-type:alpha" maskUnits="userSpaceOnUse" x="51" y="51" width="70" height="70">
<rect x="51.6392" y="51.6392" width="69.1853" height="69.1853" fill="#D9D9D9"/>
</mask>
<g mask="url(#mask0_634_334)">
<path d="M79.1749 103.535L62.7434 87.1038L66.8513 82.9959L79.1749 95.3196L105.624 68.8706L109.732 72.9785L79.1749 103.535Z" fill="#E8EAF5"/>
</g>
</g>
</g>
<defs>
<filter id="filter0_d_634_334" x="65.5968" y="52.6173" width="664.719" height="454.887" filterUnits="userSpaceOnUse" color-interpolation-filters="sRGB">
<feFlood flood-opacity="0" result="BackgroundImageFix"/>
<feColorMatrix in="SourceAlpha" type="matrix" values="0 0 0 0 0 0 0 0 0 0 0 0 0 0 0 0 0 0 127 0" result="hardAlpha"/>
<feMorphology radius="165.97" operator="erode" in="SourceAlpha" result="effect1_dropShadow_634_334"/>
<feOffset dx="13.6271" dy="16.6476"/>
<feGaussianBlur stdDeviation="100"/>
<feColorMatrix type="matrix" values="0 0 0 0 0.486968 0 0 0 0 0.346175 0 0 0 0 0.716683 0 0 0 0.2 0"/>
<feBlend mode="normal" in2="BackgroundImageFix" result="effect1_dropShadow_634_334"/>
<feBlend mode="normal" in="SourceGraphic" in2="effect1_dropShadow_634_334" result="shape"/>
</filter>
<filter id="filter1_b_634_334" x="127.384" y="95.9112" width="513.89" height="90.014" filterUnits="userSpaceOnUse" color-interpolation-filters="sRGB">
<feFlood flood-opacity="0" result="BackgroundImageFix"/>
<feGaussianBlur in="BackgroundImageFix" stdDeviation="6.38571"/>
<feComposite in2="SourceAlpha" operator="in" result="effect1_backgroundBlur_634_334"/>
<feBlend mode="normal" in="SourceGraphic" in2="effect1_backgroundBlur_634_334" result="shape"/>
</filter>
<filter id="filter2_d_634_334" x="700.938" y="52.6173" width="664.719" height="454.887" filterUnits="userSpaceOnUse" color-interpolation-filters="sRGB">
<feFlood flood-opacity="0" result="BackgroundImageFix"/>
<feColorMatrix in="SourceAlpha" type="matrix" values="0 0 0 0 0 0 0 0 0 0 0 0 0 0 0 0 0 0 127 0" result="hardAlpha"/>
<feMorphology radius="165.97" operator="erode" in="SourceAlpha" result="effect1_dropShadow_634_334"/>
<feOffset dx="13.6271" dy="16.6476"/>
<feGaussianBlur stdDeviation="100"/>
<feColorMatrix type="matrix" values="0 0 0 0 0.486968 0 0 0 0 0.346175 0 0 0 0 0.716683 0 0 0 0.2 0"/>
<feBlend mode="normal" in2="BackgroundImageFix" result="effect1_dropShadow_634_334"/>
<feBlend mode="normal" in="SourceGraphic" in2="effect1_dropShadow_634_334" result="shape"/>
</filter>
<filter id="filter3_b_634_334" x="819.542" y="95.9112" width="400.257" height="90.014" filterUnits="userSpaceOnUse" color-interpolation-filters="sRGB">
<feFlood flood-opacity="0" result="BackgroundImageFix"/>
<feGaussianBlur in="BackgroundImageFix" stdDeviation="6.38571"/>
<feComposite in2="SourceAlpha" operator="in" result="effect1_backgroundBlur_634_334"/>
<feBlend mode="normal" in="SourceGraphic" in2="effect1_backgroundBlur_634_334" result="shape"/>
</filter>
<filter id="filter4_d_634_334" x="0" y="0" width="172.464" height="172.464" filterUnits="userSpaceOnUse" color-interpolation-filters="sRGB">
<feFlood flood-opacity="0" result="BackgroundImageFix"/>
<feColorMatrix in="SourceAlpha" type="matrix" values="0 0 0 0 0 0 0 0 0 0 0 0 0 0 0 0 0 0 127 0" result="hardAlpha"/>
<feMorphology radius="165.97" operator="erode" in="SourceAlpha" result="effect1_dropShadow_634_334"/>
<feOffset dx="13.6271" dy="16.6476"/>
<feGaussianBlur stdDeviation="52.65"/>
<feColorMatrix type="matrix" values="0 0 0 0 0.478324 0 0 0 0 0.238671 0 0 0 0 0.869336 0 0 0 0.3 0"/>
<feBlend mode="multiply" in2="BackgroundImageFix" result="effect1_dropShadow_634_334"/>
<feBlend mode="normal" in="SourceGraphic" in2="effect1_dropShadow_634_334" result="shape"/>
</filter>
<filter id="filter5_d_634_334" x="28.6885" y="28.6885" width="115.087" height="115.087" filterUnits="userSpaceOnUse" color-interpolation-filters="sRGB">
<feFlood flood-opacity="0" result="BackgroundImageFix"/>
<feColorMatrix in="SourceAlpha" type="matrix" values="0 0 0 0 0 0 0 0 0 0 0 0 0 0 0 0 0 0 127 0" result="hardAlpha"/>
<feMorphology radius="165.97" operator="erode" in="SourceAlpha" result="effect1_dropShadow_634_334"/>
<feOffset dx="13.6271" dy="16.6476"/>
<feGaussianBlur stdDeviation="23.417"/>
<feColorMatrix type="matrix" values="0 0 0 0 0.486968 0 0 0 0 0.346175 0 0 0 0 0.716683 0 0 0 0.6 0"/>
<feBlend mode="normal" in2="BackgroundImageFix" result="effect1_dropShadow_634_334"/>
<feBlend mode="normal" in="SourceGraphic" in2="effect1_dropShadow_634_334" result="shape"/>
</filter>
</defs>
</svg>
