<svg width="21" height="16" viewBox="0 0 21 16" fill="none" xmlns="http://www.w3.org/2000/svg">
<path d="M19.6126 13.5154C19.6606 13.3729 19.6979 13.2243 19.7229 13.0702C19.7246 13.0599 19.7264 13.0496 19.7279 13.0393C19.7286 13.0348 19.7292 13.0302 19.7299 13.0257C19.7535 12.8678 19.7638 12.7087 19.7611 12.5499C19.7611 12.542 19.7608 12.5344 19.7606 12.5267C19.7603 12.5101 19.7597 12.4937 19.7591 12.4772C19.729 11.6254 19.3358 10.9037 18.7539 10.4166C18.6131 10.2665 18.4743 10.1142 18.3525 9.94884C18.1878 9.72702 18.0521 9.48424 17.9488 9.22748C17.456 8.01219 17.7487 6.60424 18.6668 5.67277C18.6911 5.64674 18.7156 5.62072 18.74 5.59469C19.2136 5.20485 19.565 4.6613 19.6996 4.01523C19.7828 3.63761 19.7846 3.2565 19.716 2.89215C19.626 2.38703 19.4049 1.93955 19.0951 1.57555C18.6283 1.01541 17.9441 0.629237 17.1296 0.575441C17.0796 0.571773 17.0295 0.569328 16.9789 0.56828C16.9765 0.56828 16.974 0.56828 16.9718 0.56828C16.9452 0.567756 16.9186 0.567581 16.8921 0.567931C16.0222 0.573695 15.2815 0.956029 14.7782 1.53468C14.5236 1.76716 14.2689 1.99963 13.9646 2.16609C12.9713 2.75208 11.6211 2.74125 10.638 2.13796C9.98189 1.75703 9.53645 1.0755 8.81918 0.790799C7.25405 0.119749 5.36707 1.03567 4.97129 2.70806C4.59595 4.16788 5.45098 5.71713 6.90931 6.13423C7.8659 6.41473 8.94033 6.18243 9.64659 5.48344L9.64921 5.48116C9.88626 5.26511 10.4969 4.66986 11.2033 4.46603C13.6857 3.74992 15.1841 5.11507 15.836 6.31745C16.5178 7.57501 16.3604 9.67095 14.857 10.8587C13.5983 11.9066 11.8676 11.9241 10.6614 11.2254C10.005 10.8452 9.53663 10.2547 8.81936 9.96997C7.25422 9.29892 5.36725 10.2148 4.97146 11.8872C4.59613 13.3471 5.45116 14.8963 6.90948 15.3134C7.86608 15.5939 8.9405 15.3616 9.64676 14.6626L9.64939 14.6603C9.88644 14.4443 10.1134 14.212 10.3726 14.0216C10.5946 13.8569 10.8376 13.7215 11.0946 13.6183C12.311 13.1259 13.7202 13.4183 14.6525 14.3356C14.6789 14.3603 14.7053 14.3851 14.7317 14.4099C15.0974 14.857 15.601 15.196 16.2036 15.3415C16.3214 15.3723 16.4398 15.3951 16.558 15.4102C16.5594 15.4103 16.5609 15.4105 16.5623 15.4107C16.5838 15.4135 16.6054 15.4159 16.6269 15.418C16.6297 15.4184 16.6324 15.4185 16.6352 15.4189C16.6926 15.4247 16.7499 15.4285 16.8073 15.4306C16.8204 15.4311 16.8337 15.4316 16.8468 15.432C16.858 15.4322 16.8692 15.4323 16.8803 15.4325C16.8987 15.4327 16.9169 15.4329 16.9352 15.4325C16.942 15.4325 16.949 15.4325 16.9559 15.4325C18.1138 15.4161 19.1984 14.6893 19.5952 13.567C19.5958 13.5657 19.5961 13.5645 19.5966 13.5631C19.6022 13.5472 19.6077 13.5313 19.6129 13.5153L19.6126 13.5154Z" fill="#011445"/>
<path d="M12.3307 10.2795C13.5907 10.2795 14.6121 9.25898 14.6121 8.00014C14.6121 6.74129 13.5907 5.7208 12.3307 5.7208C11.0708 5.7208 10.0494 6.74129 10.0494 8.00014C10.0494 9.25898 11.0708 10.2795 12.3307 10.2795Z" fill="#011445"/>
<path d="M3.22277 10.2795C4.48273 10.2795 5.50413 9.25898 5.50413 8.00014C5.50413 6.74129 4.48273 5.7208 3.22277 5.7208C1.96281 5.7208 0.941406 6.74129 0.941406 8.00014C0.941406 9.25898 1.96281 10.2795 3.22277 10.2795Z" fill="#011445"/>
</svg>
