<svg width="99" height="23" viewBox="0 0 99 23" fill="none" xmlns="http://www.w3.org/2000/svg">
<path d="M0.819824 11.2954C0.819824 5.36117 5.63046 0.550537 11.5647 0.550537H87.9302C93.8644 0.550537 98.6751 5.36117 98.6751 11.2954V11.2954C98.6751 17.2296 93.8644 22.0402 87.9302 22.0402H11.5647C5.63046 22.0402 0.819824 17.2296 0.819824 11.2954V11.2954Z" fill="white"/>
<g clip-path="url(#clip0_20870_19809)">
<path d="M14.2801 13.6798H19.494V12.4119H14.2801V13.6798ZM11.9101 9.25986H13.3321V7.99193H11.9101V9.25986ZM11.9101 11.4758H13.3321V10.2078H11.9101V11.4758ZM11.9101 13.6798H13.3321V12.4119H11.9101V13.6798ZM14.2801 11.4758H19.494V10.2078H14.2801V11.4758ZM14.2801 9.25986H19.494V7.99193H14.2801V9.25986ZM11.9101 14.6278C11.6494 14.6278 11.4263 14.535 11.2406 14.3493C11.055 14.1637 10.9622 13.9405 10.9622 13.6798V7.99193C10.9622 7.73123 11.055 7.50806 11.2406 7.32242C11.4263 7.13677 11.6494 7.04395 11.9101 7.04395H19.494C19.7547 7.04395 19.9779 7.13677 20.1635 7.32242C20.3492 7.50806 20.442 7.73123 20.442 7.99193V13.6798C20.442 13.9405 20.3492 14.1637 20.1635 14.3493C19.9779 14.535 19.7547 14.6278 19.494 14.6278H11.9101Z" fill="#683DE2"/>
</g>
<path d="M26.9947 13.3357L25.22 7.8753H26.0429L27.5559 12.5356L29.0878 7.8753H29.9107L28.136 13.3357H26.9947ZM30.4103 8.56923V7.79946H31.2028V8.56923H30.4103ZM30.4103 13.3357V9.2404H31.2028V13.3357H30.4103ZM34.1578 13.4495C33.7508 13.4495 33.3931 13.361 33.0847 13.184C32.7788 13.0045 32.5399 12.7555 32.368 12.437C32.1987 12.116 32.114 11.7443 32.114 11.3222C32.114 10.8747 32.1974 10.4867 32.3642 10.158C32.5336 9.82942 32.7687 9.57536 33.0695 9.39587C33.3704 9.21639 33.7205 9.12664 34.1199 9.12664C34.537 9.12664 34.8922 9.22397 35.1854 9.41862C35.4787 9.61075 35.6973 9.88503 35.8414 10.2415C35.9881 10.5979 36.0462 11.0213 36.0159 11.5118H35.2234V11.2236C35.2183 10.7483 35.1273 10.3969 34.9503 10.1694C34.7759 9.94191 34.5092 9.82815 34.1502 9.82815C33.7533 9.82815 33.4551 9.95329 33.2553 10.2036C33.0556 10.4538 32.9558 10.8153 32.9558 11.288C32.9558 11.738 33.0556 12.0869 33.2553 12.3346C33.4551 12.5798 33.7432 12.7024 34.1199 12.7024C34.3676 12.7024 34.5813 12.6468 34.7607 12.5356C34.9428 12.4218 35.0843 12.26 35.1854 12.0502L35.9628 12.2967C35.8035 12.6633 35.5621 12.9477 35.2385 13.1499C34.9149 13.3496 34.5547 13.4495 34.1578 13.4495ZM32.6979 11.5118V10.8937H35.6215V11.5118H32.6979ZM37.5907 13.3357L36.3393 9.23661L37.1242 9.2404L37.9812 12.0502L38.8458 9.2404H39.5283L40.3929 12.0502L41.2499 9.2404H42.031L40.7797 13.3357H40.1426L39.1871 10.3704L38.2277 13.3357H37.5907ZM45.3849 13.4495C45.0815 13.4495 44.8274 13.3938 44.6227 13.2826C44.4179 13.1688 44.2624 13.0197 44.1563 12.8352C44.0526 12.6481 44.0008 12.4433 44.0008 12.2209C44.0008 12.0136 44.0375 11.8316 44.1108 11.6748C44.1841 11.5181 44.2928 11.3854 44.4369 11.2767C44.581 11.1654 44.7579 11.0757 44.9677 11.0074C45.1498 10.9544 45.3558 10.9076 45.5858 10.8671C45.8159 10.8267 46.0573 10.7888 46.3101 10.7534C46.5654 10.718 46.8182 10.6826 47.0685 10.6472L46.7803 10.8065C46.7853 10.4854 46.7171 10.2478 46.5755 10.0936C46.4365 9.93685 46.1963 9.85849 45.8551 9.85849C45.6402 9.85849 45.443 9.90905 45.2635 10.0102C45.084 10.1088 44.9589 10.2731 44.8881 10.5031L44.1487 10.2756C44.2498 9.92421 44.4419 9.64487 44.7251 9.43758C45.0107 9.23029 45.3899 9.12664 45.8626 9.12664C46.2292 9.12664 46.5477 9.18984 46.8182 9.31624C47.0912 9.44011 47.2909 9.63729 47.4173 9.90778C47.4831 10.0418 47.5235 10.1833 47.5387 10.3325C47.5538 10.4816 47.5614 10.6422 47.5614 10.8141V13.3357H46.8599V12.3991L46.9964 12.5204C46.8271 12.8339 46.6109 13.0677 46.348 13.2219C46.0876 13.3736 45.7666 13.4495 45.3849 13.4495ZM45.5252 12.801C45.7502 12.801 45.9435 12.7618 46.1053 12.6835C46.2671 12.6026 46.3973 12.5002 46.4959 12.3763C46.5945 12.2525 46.659 12.1235 46.6893 11.9896C46.7323 11.8682 46.7563 11.7317 46.7613 11.58C46.7689 11.4283 46.7727 11.307 46.7727 11.216L47.0306 11.3108C46.7803 11.3487 46.5528 11.3828 46.348 11.4132C46.1432 11.4435 45.9574 11.4739 45.7906 11.5042C45.6263 11.532 45.4797 11.5661 45.3507 11.6066C45.242 11.6445 45.1447 11.69 45.0588 11.7431C44.9753 11.7962 44.9083 11.8606 44.8578 11.9365C44.8098 12.0123 44.7857 12.1046 44.7857 12.2133C44.7857 12.3195 44.8123 12.418 44.8654 12.5091C44.9185 12.5975 44.9993 12.6683 45.108 12.7214C45.2168 12.7745 45.3558 12.801 45.5252 12.801ZM48.6219 13.3357V7.76155H49.4144V13.3357H48.6219ZM50.629 13.3357V7.76155H51.4215V13.3357H50.629ZM55.6445 13.4457C55.1465 13.4457 54.7408 13.3357 54.4273 13.1158C54.1139 12.8958 53.9217 12.5862 53.851 12.1867L54.6624 12.0616C54.713 12.274 54.8293 12.4421 55.0113 12.5659C55.1958 12.6873 55.4246 12.7479 55.6976 12.7479C55.9454 12.7479 56.1388 12.6974 56.2778 12.5963C56.4194 12.4951 56.4901 12.3561 56.4901 12.1792C56.4901 12.0755 56.4649 11.9921 56.4143 11.9289C56.3663 11.8632 56.2639 11.8012 56.1072 11.7431C55.9504 11.6849 55.7115 11.6129 55.3905 11.5269C55.0391 11.4359 54.7598 11.3386 54.5525 11.235C54.3477 11.1288 54.2011 11.0062 54.1126 10.8671C54.0266 10.7256 53.9837 10.5549 53.9837 10.3552C53.9837 10.1075 54.0494 9.89135 54.1809 9.70681C54.3123 9.52227 54.4968 9.37944 54.7345 9.27832C54.9746 9.1772 55.2552 9.12664 55.5763 9.12664C55.8898 9.12664 56.1691 9.17594 56.4143 9.27453C56.6595 9.37312 56.858 9.51342 57.0096 9.69543C57.1613 9.87492 57.2523 10.086 57.2827 10.3287L56.4712 10.4766C56.4434 10.2794 56.3511 10.1239 56.1944 10.0102C56.0376 9.89641 55.8341 9.83447 55.5839 9.82436C55.3437 9.81425 55.1491 9.85469 54.9999 9.9457C54.8508 10.0342 54.7762 10.1568 54.7762 10.3135C54.7762 10.4045 54.804 10.4816 54.8596 10.5448C54.9178 10.608 55.029 10.6687 55.1933 10.7268C55.3576 10.785 55.6003 10.8545 55.9214 10.9354C56.2652 11.0239 56.5382 11.1225 56.7404 11.2312C56.9426 11.3373 57.0867 11.465 57.1727 11.6142C57.2612 11.7608 57.3054 11.939 57.3054 12.1488C57.3054 12.5533 57.1575 12.8705 56.8618 13.1006C56.5685 13.3306 56.1628 13.4457 55.6445 13.4457ZM59.9608 13.4495C59.5538 13.4495 59.1961 13.361 58.8877 13.184C58.5818 13.0045 58.3429 12.7555 58.171 12.437C58.0016 12.116 57.9169 11.7443 57.9169 11.3222C57.9169 10.8747 58.0003 10.4867 58.1672 10.158C58.3366 9.82942 58.5717 9.57536 58.8725 9.39587C59.1733 9.21639 59.5234 9.12664 59.9229 9.12664C60.34 9.12664 60.6951 9.22397 60.9884 9.41862C61.2816 9.61075 61.5003 9.88503 61.6444 10.2415C61.791 10.5979 61.8492 11.0213 61.8188 11.5118H61.0263V11.2236C61.0213 10.7483 60.9302 10.3969 60.7533 10.1694C60.5789 9.94191 60.3122 9.82815 59.9532 9.82815C59.5563 9.82815 59.258 9.95329 59.0583 10.2036C58.8586 10.4538 58.7587 10.8153 58.7587 11.288C58.7587 11.738 58.8586 12.0869 59.0583 12.3346C59.258 12.5798 59.5462 12.7024 59.9229 12.7024C60.1706 12.7024 60.3842 12.6468 60.5637 12.5356C60.7457 12.4218 60.8873 12.26 60.9884 12.0502L61.7657 12.2967C61.6065 12.6633 61.3651 12.9477 61.0415 13.1499C60.7179 13.3496 60.3577 13.4495 59.9608 13.4495ZM58.5009 11.5118V10.8937H61.4245V11.5118H58.5009ZM63.7521 13.4495C63.4487 13.4495 63.1946 13.3938 62.9899 13.2826C62.7851 13.1688 62.6296 13.0197 62.5235 12.8352C62.4198 12.6481 62.368 12.4433 62.368 12.2209C62.368 12.0136 62.4047 11.8316 62.478 11.6748C62.5513 11.5181 62.66 11.3854 62.8041 11.2767C62.9482 11.1654 63.1251 11.0757 63.3349 11.0074C63.517 10.9544 63.723 10.9076 63.953 10.8671C64.1831 10.8267 64.4245 10.7888 64.6773 10.7534C64.9326 10.718 65.1854 10.6826 65.4357 10.6472L65.1475 10.8065C65.1525 10.4854 65.0843 10.2478 64.9427 10.0936C64.8037 9.93685 64.5635 9.85849 64.2223 9.85849C64.0074 9.85849 63.8102 9.90905 63.6307 10.0102C63.4512 10.1088 63.3261 10.2731 63.2553 10.5031L62.5159 10.2756C62.617 9.92421 62.8091 9.64487 63.0923 9.43758C63.3779 9.23029 63.7571 9.12664 64.2298 9.12664C64.5964 9.12664 64.9149 9.18984 65.1854 9.31624C65.4584 9.44011 65.6581 9.63729 65.7845 9.90778C65.8503 10.0418 65.8907 10.1833 65.9059 10.3325C65.921 10.4816 65.9286 10.6422 65.9286 10.8141V13.3357H65.2271V12.3991L65.3636 12.5204C65.1943 12.8339 64.9781 13.0677 64.7152 13.2219C64.4548 13.3736 64.1338 13.4495 63.7521 13.4495ZM63.8924 12.801C64.1173 12.801 64.3107 12.7618 64.4725 12.6835C64.6343 12.6026 64.7645 12.5002 64.8631 12.3763C64.9617 12.2525 65.0261 12.1235 65.0565 11.9896C65.0995 11.8682 65.1235 11.7317 65.1285 11.58C65.1361 11.4283 65.1399 11.307 65.1399 11.216L65.3978 11.3108C65.1475 11.3487 64.92 11.3828 64.7152 11.4132C64.5104 11.4435 64.3246 11.4739 64.1578 11.5042C63.9935 11.532 63.8469 11.5661 63.7179 11.6066C63.6092 11.6445 63.5119 11.69 63.4259 11.7431C63.3425 11.7962 63.2755 11.8606 63.225 11.9365C63.1769 12.0123 63.1529 12.1046 63.1529 12.2133C63.1529 12.3195 63.1795 12.418 63.2326 12.5091C63.2856 12.5975 63.3665 12.6683 63.4752 12.7214C63.5839 12.7745 63.723 12.801 63.8924 12.801ZM66.9133 13.3357V9.2404H67.6186V10.2339L67.52 10.105C67.5706 9.97351 67.6363 9.85343 67.7172 9.74473C67.7981 9.6335 67.8916 9.54249 67.9978 9.47171C68.1014 9.39587 68.2164 9.33773 68.3428 9.29728C68.4718 9.2543 68.6032 9.22903 68.7372 9.22144C68.8712 9.21133 69.0001 9.21765 69.124 9.2404V9.98362C68.99 9.94823 68.8409 9.93812 68.6765 9.95329C68.5147 9.96845 68.3656 10.0203 68.2291 10.1088C68.1002 10.1922 67.9978 10.2933 67.9219 10.4121C67.8486 10.5309 67.7955 10.6636 67.7627 10.8103C67.7298 10.9544 67.7134 11.1073 67.7134 11.2691V13.3357H66.9133ZM71.5239 13.4495C71.1043 13.4495 70.7478 13.3559 70.4546 13.1688C70.1614 12.9818 69.9364 12.7252 69.7796 12.3991C69.6254 12.073 69.5471 11.7026 69.5445 11.288C69.5471 10.8659 69.628 10.493 69.7872 10.1694C69.9465 9.84332 70.174 9.588 70.4698 9.40345C70.7655 9.21891 71.1207 9.12664 71.5353 9.12664C71.9828 9.12664 72.3645 9.23787 72.6805 9.46033C72.999 9.68279 73.2088 9.98741 73.3099 10.3742L72.5212 10.6017C72.4428 10.3717 72.3139 10.1934 72.1344 10.067C71.9575 9.93812 71.754 9.87365 71.5239 9.87365C71.2635 9.87365 71.0499 9.93559 70.8831 10.0595C70.7162 10.1808 70.5924 10.3476 70.5115 10.56C70.4306 10.7723 70.3889 11.015 70.3863 11.288C70.3889 11.7102 70.4849 12.0515 70.6745 12.3119C70.8667 12.5722 71.1498 12.7024 71.5239 12.7024C71.7793 12.7024 71.9853 12.6443 72.142 12.528C72.3013 12.4092 72.4226 12.2398 72.506 12.0199L73.3099 12.2095C73.1759 12.6089 72.9548 12.9161 72.6463 13.1309C72.3379 13.3433 71.9638 13.4495 71.5239 13.4495ZM76.9567 13.3357V11.3222C76.9567 11.1629 76.9428 10.9999 76.915 10.833C76.8897 10.6636 76.8392 10.5069 76.7633 10.3628C76.69 10.2187 76.5851 10.1024 76.4486 10.014C76.3146 9.92548 76.1389 9.88124 75.9215 9.88124C75.7799 9.88124 75.646 9.90525 75.5196 9.95329C75.3932 9.99879 75.2819 10.0734 75.1859 10.177C75.0923 10.2807 75.0178 10.4172 74.9621 10.5865C74.9091 10.7559 74.8825 10.9619 74.8825 11.2046L74.3896 11.0188C74.3896 10.6472 74.4591 10.3198 74.5981 10.0367C74.7372 9.75105 74.9369 9.52859 75.1972 9.36933C75.4576 9.21007 75.7724 9.13043 76.1414 9.13043C76.4246 9.13043 76.6622 9.17594 76.8543 9.26694C77.0465 9.35795 77.2019 9.47803 77.3207 9.62718C77.4421 9.7738 77.5343 9.93433 77.5975 10.1088C77.6607 10.2832 77.7037 10.4538 77.7265 10.6207C77.7492 10.7875 77.7606 10.9341 77.7606 11.0605V13.3357H76.9567ZM74.0786 13.3357V7.8753H74.7877V10.8216H74.8825V13.3357H74.0786ZM80.5646 13.4495C80.1576 13.4495 79.7999 13.361 79.4915 13.184C79.1856 13.0045 78.9467 12.7555 78.7748 12.437C78.6054 12.116 78.5208 11.7443 78.5208 11.3222C78.5208 10.8747 78.6042 10.4867 78.771 10.158C78.9404 9.82942 79.1755 9.57536 79.4763 9.39587C79.7772 9.21639 80.1273 9.12664 80.5267 9.12664C80.9438 9.12664 81.299 9.22397 81.5922 9.41862C81.8855 9.61075 82.1041 9.88503 82.2482 10.2415C82.3949 10.5979 82.453 11.0213 82.4227 11.5118H81.6302V11.2236C81.6251 10.7483 81.5341 10.3969 81.3571 10.1694C81.1827 9.94191 80.916 9.82815 80.557 9.82815C80.1601 9.82815 79.8618 9.95329 79.6621 10.2036C79.4624 10.4538 79.3626 10.8153 79.3626 11.288C79.3626 11.738 79.4624 12.0869 79.6621 12.3346C79.8618 12.5798 80.15 12.7024 80.5267 12.7024C80.7744 12.7024 80.988 12.6468 81.1675 12.5356C81.3495 12.4218 81.4911 12.26 81.5922 12.0502L82.3696 12.2967C82.2103 12.6633 81.9689 12.9477 81.6453 13.1499C81.3217 13.3496 80.9615 13.4495 80.5646 13.4495ZM79.1047 11.5118V10.8937H82.0283V11.5118H79.1047ZM84.8395 13.4457C84.3415 13.4457 83.9358 13.3357 83.6223 13.1158C83.3088 12.8958 83.1167 12.5862 83.0459 12.1867L83.8574 12.0616C83.9079 12.274 84.0242 12.4421 84.2062 12.5659C84.3908 12.6873 84.6196 12.7479 84.8926 12.7479C85.1403 12.7479 85.3337 12.6974 85.4727 12.5963C85.6143 12.4951 85.6851 12.3561 85.6851 12.1792C85.6851 12.0755 85.6598 11.9921 85.6093 11.9289C85.5612 11.8632 85.4588 11.8012 85.3021 11.7431C85.1454 11.6849 84.9065 11.6129 84.5854 11.5269C84.234 11.4359 83.9547 11.3386 83.7474 11.235C83.5427 11.1288 83.396 11.0062 83.3076 10.8671C83.2216 10.7256 83.1786 10.5549 83.1786 10.3552C83.1786 10.1075 83.2444 9.89135 83.3758 9.70681C83.5073 9.52227 83.6918 9.37944 83.9294 9.27832C84.1696 9.1772 84.4502 9.12664 84.7712 9.12664C85.0847 9.12664 85.364 9.17594 85.6093 9.27453C85.8545 9.37312 86.0529 9.51342 86.2046 9.69543C86.3563 9.87492 86.4473 10.086 86.4776 10.3287L85.6661 10.4766C85.6383 10.2794 85.5461 10.1239 85.3893 10.0102C85.2326 9.89641 85.0291 9.83447 84.7788 9.82436C84.5387 9.81425 84.344 9.85469 84.1949 9.9457C84.0457 10.0342 83.9711 10.1568 83.9711 10.3135C83.9711 10.4045 83.9989 10.4816 84.0546 10.5448C84.1127 10.608 84.2239 10.6687 84.3883 10.7268C84.5526 10.785 84.7953 10.8545 85.1163 10.9354C85.4601 11.0239 85.7331 11.1225 85.9354 11.2312C86.1376 11.3373 86.2817 11.465 86.3676 11.6142C86.4561 11.7608 86.5004 11.939 86.5004 12.1488C86.5004 12.5533 86.3525 12.8705 86.0567 13.1006C85.7635 13.3306 85.3577 13.4457 84.8395 13.4457Z" fill="#683DE2"/>
<defs>
<clipPath id="clip0_20870_19809">
<rect width="11.3758" height="11.3758" fill="white" transform="translate(10.0144 5.14771)"/>
</clipPath>
</defs>
</svg>
