<svg width="93" height="22" viewBox="0 0 93 22" fill="none" xmlns="http://www.w3.org/2000/svg">
<rect x="0.145508" y="0.550537" width="92.5597" height="21.1139" rx="10.5569" fill="#DDD1FF"/>
<mask id="mask0_20870_19762" style="mask-type:alpha" maskUnits="userSpaceOnUse" x="9" y="6" width="10" height="10">
<rect x="9.33984" y="6.05054" width="9.19445" height="9.19445" fill="#D9D9D9"/>
</mask>
<g mask="url(#mask0_20870_19762)">
<path d="M11.5716 14.4786L12.1941 11.7874L10.1062 9.9772L12.8645 9.73776L13.9372 7.19971L15.0099 9.73776L17.7682 9.9772L15.6803 11.7874L16.3029 14.4786L13.9372 13.0516L11.5716 14.4786Z" fill="#673CE2"/>
</g>
<path d="M22.727 13.1477V7.8517H24.8675C24.919 7.8517 24.9828 7.85415 25.0588 7.85906C25.1348 7.86151 25.2071 7.86887 25.2757 7.88113C25.57 7.92771 25.8152 8.02824 26.0113 8.1827C26.2099 8.33717 26.3582 8.53209 26.4563 8.76747C26.5544 9.00285 26.6034 9.26274 26.6034 9.54716C26.6034 9.96888 26.4955 10.333 26.2798 10.6395C26.064 10.9435 25.7404 11.1335 25.3088 11.2095L24.9962 11.2463H23.4957V13.1477H22.727ZM25.8237 13.1477L24.7792 10.9925L25.5553 10.7939L26.7027 13.1477H25.8237ZM23.4957 10.5181H24.8381C24.8871 10.5181 24.9411 10.5156 24.9999 10.5107C25.0612 10.5058 25.1188 10.4973 25.1728 10.485C25.3297 10.4482 25.456 10.3808 25.5516 10.2827C25.6472 10.1822 25.7159 10.067 25.7575 9.937C25.7992 9.80706 25.8201 9.67711 25.8201 9.54716C25.8201 9.41721 25.7992 9.28849 25.7575 9.16099C25.7159 9.03104 25.6472 8.91703 25.5516 8.81896C25.456 8.71843 25.3297 8.64978 25.1728 8.613C25.1188 8.59829 25.0612 8.58848 24.9999 8.58358C24.9411 8.57868 24.8871 8.57623 24.8381 8.57623H23.4957V10.5181ZM28.6328 13.258C28.3385 13.258 28.0921 13.2041 27.8935 13.0962C27.6949 12.9859 27.5441 12.8412 27.4412 12.6622C27.3406 12.4808 27.2904 12.2822 27.2904 12.0664C27.2904 11.8654 27.3259 11.6889 27.397 11.5368C27.4681 11.3848 27.5736 11.2561 27.7133 11.1507C27.8531 11.0428 28.0247 10.9557 28.2282 10.8895C28.4047 10.8381 28.6046 10.7927 28.8277 10.7535C29.0508 10.7142 29.2849 10.6775 29.5301 10.6431C29.7778 10.6088 30.023 10.5745 30.2657 10.5402L29.9862 10.6946C29.9911 10.3832 29.9249 10.1528 29.7876 10.0032C29.6527 9.85119 29.4198 9.77518 29.0888 9.77518C28.8804 9.77518 28.6891 9.82422 28.5151 9.92229C28.341 10.0179 28.2196 10.1773 28.151 10.4004L27.4338 10.1797C27.5319 9.83893 27.7182 9.568 27.9928 9.36695C28.2699 9.1659 28.6377 9.06537 29.0962 9.06537C29.4517 9.06537 29.7606 9.12667 30.023 9.24926C30.2878 9.3694 30.4815 9.56064 30.604 9.82299C30.6678 9.95294 30.707 10.0902 30.7217 10.2349C30.7364 10.3796 30.7438 10.5353 30.7438 10.702V13.1477H30.0634V12.2393L30.1958 12.357C30.0315 12.661 29.8219 12.8878 29.5669 13.0374C29.3144 13.1845 29.003 13.258 28.6328 13.258ZM28.7688 12.6291C28.987 12.6291 29.1746 12.5911 29.3315 12.5151C29.4885 12.4367 29.6147 12.3374 29.7103 12.2172C29.806 12.0971 29.8685 11.972 29.8979 11.8421C29.9396 11.7244 29.9629 11.592 29.9678 11.4449C29.9751 11.2978 29.9788 11.1801 29.9788 11.0918L30.2289 11.1838C29.9862 11.2205 29.7655 11.2536 29.5669 11.2831C29.3683 11.3125 29.1881 11.3419 29.0263 11.3713C28.8669 11.3983 28.7247 11.4314 28.5997 11.4706C28.4942 11.5074 28.3998 11.5515 28.3165 11.603C28.2356 11.6545 28.1706 11.717 28.1215 11.7906C28.075 11.8642 28.0517 11.9537 28.0517 12.0591C28.0517 12.1621 28.0774 12.2577 28.1289 12.3459C28.1804 12.4318 28.2588 12.5004 28.3643 12.5519C28.4697 12.6034 28.6046 12.6291 28.7688 12.6291ZM33.9717 13.1477C33.7216 13.1967 33.4764 13.2176 33.2361 13.2102C32.9958 13.2029 32.7813 13.1563 32.5925 13.0705C32.4037 12.9847 32.2615 12.8498 32.1659 12.6659C32.0801 12.5016 32.0335 12.3349 32.0261 12.1657C32.0212 11.9941 32.0188 11.8004 32.0188 11.5846V8.07237H32.7911V11.5479C32.7911 11.7072 32.7923 11.8458 32.7948 11.9635C32.7997 12.0811 32.8254 12.1804 32.872 12.2614C32.9603 12.4134 33.1001 12.5004 33.2913 12.5225C33.485 12.5421 33.7118 12.5335 33.9717 12.4967V13.1477ZM31.2575 9.79357V9.1757H33.9717V9.79357H31.2575ZM36.3912 13.258C35.9965 13.258 35.6495 13.1722 35.3504 13.0006C35.0537 12.8265 34.822 12.585 34.6553 12.2761C34.491 11.9647 34.4089 11.6043 34.4089 11.1948C34.4089 10.7608 34.4898 10.3845 34.6516 10.0657C34.8159 9.74699 35.0439 9.50057 35.3357 9.32649C35.6275 9.15241 35.967 9.06537 36.3544 9.06537C36.759 9.06537 37.1035 9.15977 37.3879 9.34856C37.6723 9.5349 37.8844 9.80093 38.0241 10.1466C38.1663 10.4923 38.2227 10.903 38.1933 11.3787H37.4247V11.0992C37.4198 10.6382 37.3315 10.2974 37.1599 10.0768C36.9907 9.85609 36.732 9.74576 36.3838 9.74576C35.9989 9.74576 35.7096 9.86713 35.5159 10.1099C35.3222 10.3526 35.2253 10.7032 35.2253 11.1617C35.2253 11.5981 35.3222 11.9365 35.5159 12.1768C35.7096 12.4146 35.9891 12.5335 36.3544 12.5335C36.5947 12.5335 36.8019 12.4796 36.976 12.3717C37.1525 12.2614 37.2898 12.1044 37.3879 11.9009L38.1418 12.14C37.9874 12.4955 37.7532 12.7713 37.4394 12.9675C37.1255 13.1612 36.7761 13.258 36.3912 13.258ZM34.9753 11.3787V10.7792H37.8108V11.3787H34.9753ZM42.7639 13.1477C42.5138 13.1967 42.2686 13.2176 42.0283 13.2102C41.788 13.2029 41.5735 13.1563 41.3847 13.0705C41.1959 12.9847 41.0537 12.8498 40.9581 12.6659C40.8723 12.5016 40.8257 12.3349 40.8183 12.1657C40.8134 11.9941 40.811 11.8004 40.811 11.5846V8.07237H41.5833V11.5479C41.5833 11.7072 41.5845 11.8458 41.587 11.9635C41.5919 12.0811 41.6176 12.1804 41.6642 12.2614C41.7525 12.4134 41.8922 12.5004 42.0835 12.5225C42.2772 12.5421 42.504 12.5335 42.7639 12.4967V13.1477ZM40.0497 9.79357V9.1757H42.7639V9.79357H40.0497ZM46.3891 13.1477V11.1948C46.3891 11.0403 46.3756 10.8822 46.3486 10.7204C46.3241 10.5561 46.2751 10.4041 46.2015 10.2643C46.1304 10.1246 46.0287 10.0118 45.8963 9.92597C45.7663 9.84016 45.5959 9.79725 45.385 9.79725C45.2477 9.79725 45.1178 9.82054 44.9952 9.86713C44.8726 9.91126 44.7647 9.98359 44.6716 10.0841C44.5808 10.1846 44.5085 10.317 44.4546 10.4813C44.4031 10.6456 44.3773 10.8454 44.3773 11.0808L43.8992 10.9006C43.8992 10.5402 43.9666 10.2226 44.1015 9.94804C44.2363 9.67098 44.43 9.45521 44.6826 9.30075C44.9351 9.14628 45.2404 9.06905 45.5984 9.06905C45.873 9.06905 46.1034 9.11318 46.2898 9.20145C46.4761 9.28971 46.6269 9.40618 46.7421 9.55084C46.8598 9.69304 46.9493 9.84874 47.0106 10.0179C47.0719 10.1871 47.1136 10.3526 47.1357 10.5144C47.1577 10.6762 47.1688 10.8184 47.1688 10.941V13.1477H46.3891ZM43.5976 13.1477V7.8517H44.2854V10.7093H44.3773V13.1477H43.5976ZM48.2003 8.52474V7.77815H48.9689V8.52474H48.2003ZM48.2003 13.1477V9.1757H48.9689V13.1477H48.2003ZM51.5923 13.2544C51.1093 13.2544 50.7157 13.1477 50.4117 12.9344C50.1077 12.7211 49.9213 12.4207 49.8527 12.0333L50.6397 11.912C50.6888 12.1179 50.8015 12.281 50.9781 12.4011C51.1571 12.5188 51.379 12.5776 51.6438 12.5776C51.884 12.5776 52.0716 12.5286 52.2065 12.4305C52.3438 12.3325 52.4124 12.1976 52.4124 12.026C52.4124 11.9255 52.3879 11.8445 52.3389 11.7832C52.2923 11.7195 52.193 11.6594 52.041 11.603C51.8889 11.5466 51.6572 11.4768 51.3459 11.3934C51.005 11.3051 50.7341 11.2107 50.5331 11.1102C50.3345 11.0072 50.1923 10.8883 50.1064 10.7535C50.0231 10.6162 49.9814 10.4507 49.9814 10.257C49.9814 10.0167 50.0451 9.80706 50.1726 9.62807C50.3001 9.44909 50.4791 9.31056 50.7096 9.21248C50.9425 9.11441 51.2147 9.06537 51.5261 9.06537C51.8301 9.06537 52.101 9.11318 52.3389 9.2088C52.5767 9.30443 52.7692 9.4405 52.9163 9.61704C53.0634 9.79112 53.1516 9.99585 53.1811 10.2312L52.394 10.3747C52.3671 10.1834 52.2776 10.0326 52.1255 9.92229C51.9735 9.81196 51.7762 9.75189 51.5334 9.74208C51.3005 9.73227 51.1117 9.7715 50.967 9.85977C50.8224 9.94559 50.7501 10.0645 50.7501 10.2165C50.7501 10.3048 50.777 10.3796 50.831 10.4409C50.8874 10.5022 50.9952 10.561 51.1546 10.6174C51.314 10.6738 51.5494 10.7412 51.8607 10.8197C52.1942 10.9055 52.459 11.0011 52.6551 11.1065C52.8513 11.2095 52.9911 11.3333 53.0744 11.478C53.1602 11.6202 53.2031 11.7931 53.2031 11.9966C53.2031 12.3889 53.0597 12.6966 52.7728 12.9197C52.4884 13.1428 52.0949 13.2544 51.5923 13.2544ZM56.6112 13.258C56.3169 13.258 56.0705 13.2041 55.8719 13.0962C55.6733 12.9859 55.5225 12.8412 55.4196 12.6622C55.319 12.4808 55.2688 12.2822 55.2688 12.0664C55.2688 11.8654 55.3043 11.6889 55.3754 11.5368C55.4465 11.3848 55.552 11.2561 55.6917 11.1507C55.8315 11.0428 56.0031 10.9557 56.2066 10.8895C56.3831 10.8381 56.583 10.7927 56.8061 10.7535C57.0292 10.7142 57.2634 10.6775 57.5085 10.6431C57.7562 10.6088 58.0014 10.5745 58.2441 10.5402L57.9646 10.6946C57.9695 10.3832 57.9033 10.1528 57.766 10.0032C57.6311 9.85119 57.3982 9.77518 57.0672 9.77518C56.8588 9.77518 56.6676 9.82422 56.4935 9.92229C56.3194 10.0179 56.198 10.1773 56.1294 10.4004L55.4122 10.1797C55.5103 9.83893 55.6966 9.568 55.9712 9.36695C56.2483 9.1659 56.6161 9.06537 57.0746 9.06537C57.4301 9.06537 57.739 9.12667 58.0014 9.24926C58.2662 9.3694 58.4599 9.56064 58.5825 9.82299C58.6462 9.95294 58.6854 10.0902 58.7001 10.2349C58.7149 10.3796 58.7222 10.5353 58.7222 10.702V13.1477H58.0418V12.2393L58.1742 12.357C58.01 12.661 57.8003 12.8878 57.5453 13.0374C57.2928 13.1845 56.9814 13.258 56.6112 13.258ZM56.7472 12.6291C56.9655 12.6291 57.153 12.5911 57.3099 12.5151C57.4669 12.4367 57.5931 12.3374 57.6888 12.2172C57.7844 12.0971 57.8469 11.972 57.8763 11.8421C57.918 11.7244 57.9413 11.592 57.9462 11.4449C57.9536 11.2978 57.9572 11.1801 57.9572 11.0918L58.2073 11.1838C57.9646 11.2205 57.7439 11.2536 57.5453 11.2831C57.3467 11.3125 57.1665 11.3419 57.0047 11.3713C56.8453 11.3983 56.7031 11.4314 56.5781 11.4706C56.4726 11.5074 56.3782 11.5515 56.2949 11.603C56.214 11.6545 56.149 11.717 56.1 11.7906C56.0534 11.8642 56.0301 11.9537 56.0301 12.0591C56.0301 12.1621 56.0558 12.2577 56.1073 12.3459C56.1588 12.4318 56.2373 12.5004 56.3427 12.5519C56.4481 12.6034 56.583 12.6291 56.7472 12.6291ZM62.465 13.1477V11.1948C62.465 11.0403 62.4515 10.8822 62.4245 10.7204C62.4 10.5561 62.351 10.4041 62.2774 10.2643C62.2063 10.1246 62.1046 10.0118 61.9722 9.92597C61.8422 9.84016 61.6718 9.79725 61.461 9.79725C61.3237 9.79725 61.1937 9.82054 61.0711 9.86713C60.9485 9.91126 60.8406 9.98359 60.7475 10.0841C60.6567 10.1846 60.5844 10.317 60.5305 10.4813C60.479 10.6456 60.4532 10.8454 60.4532 11.0808L59.9751 10.9006C59.9751 10.5402 60.0426 10.2226 60.1774 9.94804C60.3123 9.67098 60.506 9.45521 60.7585 9.30075C61.011 9.14628 61.3163 9.06905 61.6743 9.06905C61.9489 9.06905 62.1793 9.11318 62.3657 9.20145C62.552 9.28971 62.7028 9.40618 62.8181 9.55084C62.9357 9.69304 63.0252 9.84874 63.0865 10.0179C63.1478 10.1871 63.1895 10.3526 63.2116 10.5144C63.2336 10.6762 63.2447 10.8184 63.2447 10.941V13.1477H62.465ZM59.6736 13.1477V9.1757H60.3613V10.3232H60.4532V13.1477H59.6736ZM65.7215 13.2544C65.2385 13.2544 64.845 13.1477 64.541 12.9344C64.237 12.7211 64.0506 12.4207 63.982 12.0333L64.769 11.912C64.818 12.1179 64.9308 12.281 65.1074 12.4011C65.2863 12.5188 65.5082 12.5776 65.773 12.5776C66.0133 12.5776 66.2009 12.5286 66.3357 12.4305C66.473 12.3325 66.5417 12.1976 66.5417 12.026C66.5417 11.9255 66.5172 11.8445 66.4681 11.7832C66.4216 11.7195 66.3223 11.6594 66.1702 11.603C66.0182 11.5466 65.7865 11.4768 65.4751 11.3934C65.1343 11.3051 64.8634 11.2107 64.6623 11.1102C64.4637 11.0072 64.3215 10.8883 64.2357 10.7535C64.1524 10.6162 64.1107 10.4507 64.1107 10.257C64.1107 10.0167 64.1744 9.80706 64.3019 9.62807C64.4294 9.44909 64.6084 9.31056 64.8389 9.21248C65.0718 9.11441 65.344 9.06537 65.6553 9.06537C65.9594 9.06537 66.2303 9.11318 66.4681 9.2088C66.706 9.30443 66.8984 9.4405 67.0455 9.61704C67.1927 9.79112 67.2809 9.99585 67.3103 10.2312L66.5233 10.3747C66.4963 10.1834 66.4068 10.0326 66.2548 9.92229C66.1028 9.81196 65.9054 9.75189 65.6627 9.74208C65.4298 9.73227 65.241 9.7715 65.0963 9.85977C64.9517 9.94559 64.8793 10.0645 64.8793 10.2165C64.8793 10.3048 64.9063 10.3796 64.9602 10.4409C65.0166 10.5022 65.1245 10.561 65.2839 10.6174C65.4433 10.6738 65.6786 10.7412 65.99 10.8197C66.3235 10.9055 66.5883 11.0011 66.7844 11.1065C66.9806 11.2095 67.1203 11.3333 67.2037 11.478C67.2895 11.6202 67.3324 11.7931 67.3324 11.9966C67.3324 12.3889 67.189 12.6966 66.9021 12.9197C66.6177 13.1428 66.2242 13.2544 65.7215 13.2544ZM68.8484 13.1477L67.6347 9.17203L68.396 9.1757L69.2272 11.9009L70.0658 9.1757H70.7278L71.5663 11.9009L72.3975 9.1757H73.1551L71.9414 13.1477H71.3236L70.3968 10.2717L69.4663 13.1477H68.8484ZM75.4317 13.258C75.0369 13.258 74.69 13.1722 74.3909 13.0006C74.0942 12.8265 73.8625 12.585 73.6958 12.2761C73.5315 11.9647 73.4494 11.6043 73.4494 11.1948C73.4494 10.7608 73.5303 10.3845 73.6921 10.0657C73.8564 9.74699 74.0844 9.50057 74.3762 9.32649C74.6679 9.15241 75.0075 9.06537 75.3949 9.06537C75.7995 9.06537 76.144 9.15977 76.4284 9.34856C76.7128 9.5349 76.9249 9.80093 77.0646 10.1466C77.2068 10.4923 77.2632 10.903 77.2338 11.3787H76.4651V11.0992C76.4602 10.6382 76.372 10.2974 76.2003 10.0768C76.0312 9.85609 75.7725 9.74576 75.4243 9.74576C75.0394 9.74576 74.7501 9.86713 74.5564 10.1099C74.3627 10.3526 74.2658 10.7032 74.2658 11.1617C74.2658 11.5981 74.3627 11.9365 74.5564 12.1768C74.7501 12.4146 75.0296 12.5335 75.3949 12.5335C75.6352 12.5335 75.8424 12.4796 76.0165 12.3717C76.193 12.2614 76.3303 12.1044 76.4284 11.9009L77.1823 12.14C77.0278 12.4955 76.7937 12.7713 76.4799 12.9675C76.166 13.1612 75.8166 13.258 75.4317 13.258ZM74.0157 11.3787V10.7792H76.8513V11.3787H74.0157ZM78.0589 13.1477V9.1757H78.743V10.1393L78.6474 10.0142C78.6964 9.88674 78.7602 9.77028 78.8386 9.66485C78.9171 9.55697 79.0078 9.4687 79.1108 9.40005C79.2113 9.32649 79.3229 9.2701 79.4455 9.23087C79.5705 9.18919 79.698 9.16467 79.828 9.15731C79.9579 9.14751 80.0829 9.15364 80.2031 9.1757V9.89655C80.0731 9.86222 79.9285 9.85241 79.7691 9.86713C79.6122 9.88184 79.4675 9.9321 79.3351 10.0179C79.2101 10.0988 79.1108 10.1969 79.0372 10.3121C78.9661 10.4274 78.9146 10.5561 78.8828 10.6983C78.8509 10.8381 78.835 10.9864 78.835 11.1433V13.1477H78.0589Z" fill="#673CE2"/>
</svg>
