<svg xmlns="http://www.w3.org/2000/svg" width="1168" height="181" fill="none"><path fill="#481DBF" d="M229.849 155.03c.54-1.6.96-3.26 1.24-4.99.02-.11.04-.24.06-.35 0-.05.01-.1.02-.15.27-1.77.38-3.55.35-5.33v-.26c0-.19 0-.37-.02-.55-.34-9.54-4.75-17.63-11.28-23.08-1.58-1.68-3.14-3.39-4.5-5.24-1.85-2.48-3.37-5.2-4.53-8.08-5.53-13.61-2.25-29.38 8.06-39.81.27-.29.55-.58.82-.88 5.31-4.37 9.26-10.46 10.77-17.69.93-4.23.95-8.5.18-12.59a31.13 31.13 0 0 0-6.97-14.75c-5.24-6.27-12.91-10.6-22.05-11.2-.56-.04-1.12-.07-1.69-.08h-.97c-9.79.07-18.13 4.36-23.79 10.86-2.86 2.61-5.73 5.23-9.16 7.1-11.18 6.58-26.38 6.46-37.44-.31-7.38-4.28-12.4-11.94-20.47-15.14-17.62-7.54-38.85 2.75-43.31 21.54-4.22 16.4 5.4 33.8 21.81 38.49 10.77 3.15 22.86.54 30.81-7.31l.03-.03c2.67-2.42 9.54-9.11 17.49-11.4 27.94-8.05 44.8 7.29 52.14 20.8 7.67 14.12 5.9 37.68-11.02 51.02-14.17 11.78-33.65 11.97-47.22 4.12-7.39-4.28-12.66-10.91-20.73-14.11-17.62-7.54-38.85 2.75-43.31 21.54-4.22 16.41 5.4 33.8 21.81 38.5 10.77 3.15 22.86.53 30.81-7.32l.03-.02c2.67-2.43 5.22-5.04 8.14-7.18 2.5-1.85 5.23-3.38 8.13-4.53 13.69-5.54 29.55-2.24 40.05 8.05.3.28.59.56.89.84 4.12 5.02 9.78 8.83 16.57 10.47 1.33.34 2.66.6 3.99.76h.05l.73.09h.09c.65.07 1.29.1 1.94.13h1.29c13.31-.19 25.78-8.53 30.34-21.41 0-.02 0-.03.02-.05.06-.19.13-.36.19-.55h-.37l-.02.08Z"/><path fill="url(#a)" d="M229.849 155.03c.54-1.6.96-3.26 1.24-4.99.02-.11.04-.24.06-.35 0-.05.01-.1.02-.15.27-1.77.38-3.55.35-5.33v-.26c0-.19 0-.37-.02-.55-.34-9.54-4.75-17.63-11.28-23.08-1.58-1.68-3.14-3.39-4.5-5.24-1.85-2.48-3.37-5.2-4.53-8.08-5.53-13.61-2.25-29.38 8.06-39.81.27-.29.55-.58.82-.88 5.31-4.37 9.26-10.46 10.77-17.69.93-4.23.95-8.5.18-12.59a31.13 31.13 0 0 0-6.97-14.75c-5.24-6.27-12.91-10.6-22.05-11.2-.56-.04-1.12-.07-1.69-.08h-.97c-9.79.07-18.13 4.36-23.79 10.86-2.86 2.61-5.73 5.23-9.16 7.1-11.18 6.58-26.38 6.46-37.44-.31-7.38-4.28-12.4-11.94-20.47-15.14-17.62-7.54-38.85 2.75-43.31 21.54-4.22 16.4 5.4 33.8 21.81 38.49 10.77 3.15 22.86.54 30.81-7.31l.03-.03c2.67-2.42 9.54-9.11 17.49-11.4 27.94-8.05 44.8 7.29 52.14 20.8 7.67 14.12 5.9 37.68-11.02 51.02-14.17 11.78-33.65 11.97-47.22 4.12-7.39-4.28-12.66-10.91-20.73-14.11-17.62-7.54-38.85 2.75-43.31 21.54-4.22 16.41 5.4 33.8 21.81 38.5 10.77 3.15 22.86.53 30.81-7.32l.03-.02c2.67-2.43 5.22-5.04 8.14-7.18 2.5-1.85 5.23-3.38 8.13-4.53 13.69-5.54 29.55-2.24 40.05 8.05.3.28.59.56.89.84 4.12 5.02 9.78 8.83 16.57 10.47 1.33.34 2.66.6 3.99.76h.05l.73.09h.09c.65.07 1.29.1 1.94.13h1.29c13.31-.19 25.78-8.53 30.34-21.41 0-.02 0-.03.02-.05.06-.19.13-.36.19-.55h-.37l-.02.08Z"/><path fill="url(#b)" fill-opacity=".2" d="M229.849 155.03c.54-1.6.96-3.26 1.24-4.99.02-.11.04-.24.06-.35 0-.05.01-.1.02-.15.27-1.77.38-3.55.35-5.33v-.26c0-.19 0-.37-.02-.55-.34-9.54-4.75-17.63-11.28-23.08-1.58-1.68-3.14-3.39-4.5-5.24-1.85-2.48-3.37-5.2-4.53-8.08-5.53-13.61-2.25-29.38 8.06-39.81.27-.29.55-.58.82-.88 5.31-4.37 9.26-10.46 10.77-17.69.93-4.23.95-8.5.18-12.59a31.13 31.13 0 0 0-6.97-14.75c-5.24-6.27-12.91-10.6-22.05-11.2-.56-.04-1.12-.07-1.69-.08h-.97c-9.79.07-18.13 4.36-23.79 10.86-2.86 2.61-5.73 5.23-9.16 7.1-11.18 6.58-26.38 6.46-37.44-.31-7.38-4.28-12.4-11.94-20.47-15.14-17.62-7.54-38.85 2.75-43.31 21.54-4.22 16.4 5.4 33.8 21.81 38.49 10.77 3.15 22.86.54 30.81-7.31l.03-.03c2.67-2.42 9.54-9.11 17.49-11.4 27.94-8.05 44.8 7.29 52.14 20.8 7.67 14.12 5.9 37.68-11.02 51.02-14.17 11.78-33.65 11.97-47.22 4.12-7.39-4.28-12.66-10.91-20.73-14.11-17.62-7.54-38.85 2.75-43.31 21.54-4.22 16.41 5.4 33.8 21.81 38.5 10.77 3.15 22.86.53 30.81-7.32l.03-.02c2.67-2.43 5.22-5.04 8.14-7.18 2.5-1.85 5.23-3.38 8.13-4.53 13.69-5.54 29.55-2.24 40.05 8.05.3.28.59.56.89.84 4.12 5.02 9.78 8.83 16.57 10.47 1.33.34 2.66.6 3.99.76h.05l.73.09h.09c.65.07 1.29.1 1.94.13h1.29c13.31-.19 25.78-8.53 30.34-21.41 0-.02 0-.03.02-.05.06-.19.13-.36.19-.55h-.37l-.02.08Z"/><path fill="url(#c)" fill-opacity=".2" d="M229.849 155.03c.54-1.6.96-3.26 1.24-4.99.02-.11.04-.24.06-.35 0-.05.01-.1.02-.15.27-1.77.38-3.55.35-5.33v-.26c0-.19 0-.37-.02-.55-.34-9.54-4.75-17.63-11.28-23.08-1.58-1.68-3.14-3.39-4.5-5.24-1.85-2.48-3.37-5.2-4.53-8.08-5.53-13.61-2.25-29.38 8.06-39.81.27-.29.55-.58.82-.88 5.31-4.37 9.26-10.46 10.77-17.69.93-4.23.95-8.5.18-12.59a31.13 31.13 0 0 0-6.97-14.75c-5.24-6.27-12.91-10.6-22.05-11.2-.56-.04-1.12-.07-1.69-.08h-.97c-9.79.07-18.13 4.36-23.79 10.86-2.86 2.61-5.73 5.23-9.16 7.1-11.18 6.58-26.38 6.46-37.44-.31-7.38-4.28-12.4-11.94-20.47-15.14-17.62-7.54-38.85 2.75-43.31 21.54-4.22 16.4 5.4 33.8 21.81 38.49 10.77 3.15 22.86.54 30.81-7.31l.03-.03c2.67-2.42 9.54-9.11 17.49-11.4 27.94-8.05 44.8 7.29 52.14 20.8 7.67 14.12 5.9 37.68-11.02 51.02-14.17 11.78-33.65 11.97-47.22 4.12-7.39-4.28-12.66-10.91-20.73-14.11-17.62-7.54-38.85 2.75-43.31 21.54-4.22 16.41 5.4 33.8 21.81 38.5 10.77 3.15 22.86.53 30.81-7.32l.03-.02c2.67-2.43 5.22-5.04 8.14-7.18 2.5-1.85 5.23-3.38 8.13-4.53 13.69-5.54 29.55-2.24 40.05 8.05.3.28.59.56.89.84 4.12 5.02 9.78 8.83 16.57 10.47 1.33.34 2.66.6 3.99.76h.05l.73.09h.09c.65.07 1.29.1 1.94.13h1.29c13.31-.19 25.78-8.53 30.34-21.41 0-.02 0-.03.02-.05.06-.19.13-.36.19-.55h-.37l-.02.08Z"/><path fill="#481DBF" d="M147.92 118.189c13.81 0 25-11.19 25-25s-11.19-25-25-25-25 11.19-25 25 11.19 25 25 25Z"/><path fill="url(#d)" d="M147.92 118.189c13.81 0 25-11.19 25-25s-11.19-25-25-25-25 11.19-25 25 11.19 25 25 25Z"/><path fill="url(#e)" fill-opacity=".2" d="M147.92 118.189c13.81 0 25-11.19 25-25s-11.19-25-25-25-25 11.19-25 25 11.19 25 25 25Z"/><path fill="url(#f)" fill-opacity=".2" d="M147.92 118.189c13.81 0 25-11.19 25-25s-11.19-25-25-25-25 11.19-25 25 11.19 25 25 25Z"/><path fill="#481DBF" d="M32.5 125.689c17.95 0 32.5-14.55 32.5-32.5s-14.55-32.5-32.5-32.5S0 75.24 0 93.19s14.55 32.5 32.5 32.5Z"/><path fill="url(#g)" d="M32.5 125.689c17.95 0 32.5-14.55 32.5-32.5s-14.55-32.5-32.5-32.5S0 75.24 0 93.19s14.55 32.5 32.5 32.5Z"/><path fill="url(#h)" fill-opacity=".2" d="M32.5 125.689c17.95 0 32.5-14.55 32.5-32.5s-14.55-32.5-32.5-32.5S0 75.24 0 93.19s14.55 32.5 32.5 32.5Z"/><path fill="url(#i)" fill-opacity=".2" d="M32.5 125.689c17.95 0 32.5-14.55 32.5-32.5s-14.55-32.5-32.5-32.5S0 75.24 0 93.19s14.55 32.5 32.5 32.5Z"/><path fill="#481DBF" d="M349.716 180.5c-12.021 0-23.16-2.166-33.418-6.498-10.258-4.332-19.233-10.349-26.927-18.05-7.533-7.862-13.383-17.087-17.55-27.677-4.167-10.589-6.251-22.141-6.251-34.656 0-12.514 2.084-24.066 6.251-34.656 4.167-10.589 10.017-19.734 17.55-27.436 7.694-7.861 16.669-13.958 26.927-18.29 10.258-4.332 21.397-6.498 33.418-6.498 12.181 0 23.4 2.166 33.658 6.498 10.258 4.332 19.153 10.429 26.686 18.29 7.533 7.862 13.383 17.088 17.551 27.677 4.167 10.429 6.251 21.9 6.251 34.415 0 12.355-2.084 23.826-6.251 34.416-4.168 10.589-10.018 19.815-17.551 27.676-7.533 7.862-16.428 13.959-26.686 18.291-10.258 4.332-21.477 6.498-33.658 6.498Zm0-29.843c7.693 0 14.665-1.363 20.916-4.091 6.411-2.888 11.941-6.899 16.589-12.033 4.648-5.295 8.254-11.392 10.819-18.291 2.724-6.899 4.087-14.44 4.087-22.623 0-8.182-1.363-15.723-4.087-22.622-2.565-6.9-6.171-12.916-10.819-18.05-4.648-5.295-10.178-9.306-16.589-12.034-6.251-2.888-13.223-4.332-20.916-4.332-7.533 0-14.505 1.444-20.916 4.332-6.411 2.728-11.941 6.659-16.589 11.793-4.648 5.134-8.254 11.15-10.819 18.05-2.564 6.9-3.846 14.52-3.846 22.863 0 8.183 1.282 15.804 3.846 22.864 2.565 6.899 6.171 12.915 10.819 18.05 4.648 5.134 10.178 9.145 16.589 12.033 6.411 2.728 13.383 4.091 20.916 4.091Z"/><path fill="url(#j)" d="M349.716 180.5c-12.021 0-23.16-2.166-33.418-6.498-10.258-4.332-19.233-10.349-26.927-18.05-7.533-7.862-13.383-17.087-17.55-27.677-4.167-10.589-6.251-22.141-6.251-34.656 0-12.514 2.084-24.066 6.251-34.656 4.167-10.589 10.017-19.734 17.55-27.436 7.694-7.861 16.669-13.958 26.927-18.29 10.258-4.332 21.397-6.498 33.418-6.498 12.181 0 23.4 2.166 33.658 6.498 10.258 4.332 19.153 10.429 26.686 18.29 7.533 7.862 13.383 17.088 17.551 27.677 4.167 10.429 6.251 21.9 6.251 34.415 0 12.355-2.084 23.826-6.251 34.416-4.168 10.589-10.018 19.815-17.551 27.676-7.533 7.862-16.428 13.959-26.686 18.291-10.258 4.332-21.477 6.498-33.658 6.498Zm0-29.843c7.693 0 14.665-1.363 20.916-4.091 6.411-2.888 11.941-6.899 16.589-12.033 4.648-5.295 8.254-11.392 10.819-18.291 2.724-6.899 4.087-14.44 4.087-22.623 0-8.182-1.363-15.723-4.087-22.622-2.565-6.9-6.171-12.916-10.819-18.05-4.648-5.295-10.178-9.306-16.589-12.034-6.251-2.888-13.223-4.332-20.916-4.332-7.533 0-14.505 1.444-20.916 4.332-6.411 2.728-11.941 6.659-16.589 11.793-4.648 5.134-8.254 11.15-10.819 18.05-2.564 6.9-3.846 14.52-3.846 22.863 0 8.183 1.282 15.804 3.846 22.864 2.565 6.899 6.171 12.915 10.819 18.05 4.648 5.134 10.178 9.145 16.589 12.033 6.411 2.728 13.383 4.091 20.916 4.091Z"/><path fill="url(#k)" fill-opacity=".2" d="M349.716 180.5c-12.021 0-23.16-2.166-33.418-6.498-10.258-4.332-19.233-10.349-26.927-18.05-7.533-7.862-13.383-17.087-17.55-27.677-4.167-10.589-6.251-22.141-6.251-34.656 0-12.514 2.084-24.066 6.251-34.656 4.167-10.589 10.017-19.734 17.55-27.436 7.694-7.861 16.669-13.958 26.927-18.29 10.258-4.332 21.397-6.498 33.418-6.498 12.181 0 23.4 2.166 33.658 6.498 10.258 4.332 19.153 10.429 26.686 18.29 7.533 7.862 13.383 17.088 17.551 27.677 4.167 10.429 6.251 21.9 6.251 34.415 0 12.355-2.084 23.826-6.251 34.416-4.168 10.589-10.018 19.815-17.551 27.676-7.533 7.862-16.428 13.959-26.686 18.291-10.258 4.332-21.477 6.498-33.658 6.498Zm0-29.843c7.693 0 14.665-1.363 20.916-4.091 6.411-2.888 11.941-6.899 16.589-12.033 4.648-5.295 8.254-11.392 10.819-18.291 2.724-6.899 4.087-14.44 4.087-22.623 0-8.182-1.363-15.723-4.087-22.622-2.565-6.9-6.171-12.916-10.819-18.05-4.648-5.295-10.178-9.306-16.589-12.034-6.251-2.888-13.223-4.332-20.916-4.332-7.533 0-14.505 1.444-20.916 4.332-6.411 2.728-11.941 6.659-16.589 11.793-4.648 5.134-8.254 11.15-10.819 18.05-2.564 6.9-3.846 14.52-3.846 22.863 0 8.183 1.282 15.804 3.846 22.864 2.565 6.899 6.171 12.915 10.819 18.05 4.648 5.134 10.178 9.145 16.589 12.033 6.411 2.728 13.383 4.091 20.916 4.091Z"/><path fill="url(#l)" fill-opacity=".2" d="M349.716 180.5c-12.021 0-23.16-2.166-33.418-6.498-10.258-4.332-19.233-10.349-26.927-18.05-7.533-7.862-13.383-17.087-17.55-27.677-4.167-10.589-6.251-22.141-6.251-34.656 0-12.514 2.084-24.066 6.251-34.656 4.167-10.589 10.017-19.734 17.55-27.436 7.694-7.861 16.669-13.958 26.927-18.29 10.258-4.332 21.397-6.498 33.418-6.498 12.181 0 23.4 2.166 33.658 6.498 10.258 4.332 19.153 10.429 26.686 18.29 7.533 7.862 13.383 17.088 17.551 27.677 4.167 10.429 6.251 21.9 6.251 34.415 0 12.355-2.084 23.826-6.251 34.416-4.168 10.589-10.018 19.815-17.551 27.676-7.533 7.862-16.428 13.959-26.686 18.291-10.258 4.332-21.477 6.498-33.658 6.498Zm0-29.843c7.693 0 14.665-1.363 20.916-4.091 6.411-2.888 11.941-6.899 16.589-12.033 4.648-5.295 8.254-11.392 10.819-18.291 2.724-6.899 4.087-14.44 4.087-22.623 0-8.182-1.363-15.723-4.087-22.622-2.565-6.9-6.171-12.916-10.819-18.05-4.648-5.295-10.178-9.306-16.589-12.034-6.251-2.888-13.223-4.332-20.916-4.332-7.533 0-14.505 1.444-20.916 4.332-6.411 2.728-11.941 6.659-16.589 11.793-4.648 5.134-8.254 11.15-10.819 18.05-2.564 6.9-3.846 14.52-3.846 22.863 0 8.183 1.282 15.804 3.846 22.864 2.565 6.899 6.171 12.915 10.819 18.05 4.648 5.134 10.178 9.145 16.589 12.033 6.411 2.728 13.383 4.091 20.916 4.091Z"/><path fill="#481DBF" d="M457.965 178.093a6.732 6.732 0 0 1-6.732-6.731v-112.1a8 8 0 0 1 8-8h12.997a8 8 0 0 1 7.998 7.852l.311 16.82a2.133 2.133 0 0 1-1.145 1.931c-1.655.865-3.458-.642-2.698-2.347 1.769-3.969 4.341-7.642 7.715-11.02 4.648-4.813 10.177-8.663 16.588-11.551 6.411-2.888 12.983-4.332 19.714-4.332 9.617 0 17.631 1.925 24.042 5.776 6.571 3.85 11.46 9.626 14.665 17.328 3.366 7.701 5.049 17.328 5.049 28.88v69.494a8 8 0 0 1-8 8h-13.571a8 8 0 0 1-8-8v-67.328c0-6.418-.882-11.713-2.645-15.884-1.763-4.332-4.487-7.461-8.174-9.386-3.686-2.086-8.174-3.049-13.463-2.888-4.328 0-8.335.722-12.021 2.166a27.001 27.001 0 0 0-9.376 5.776c-2.565 2.406-4.648 5.214-6.251 8.423-1.442 3.209-2.164 6.739-2.164 10.589v68.532a8 8 0 0 1-8 8H457.965Z"/><path fill="url(#m)" d="M457.965 178.093a6.732 6.732 0 0 1-6.732-6.731v-112.1a8 8 0 0 1 8-8h12.997a8 8 0 0 1 7.998 7.852l.311 16.82a2.133 2.133 0 0 1-1.145 1.931c-1.655.865-3.458-.642-2.698-2.347 1.769-3.969 4.341-7.642 7.715-11.02 4.648-4.813 10.177-8.663 16.588-11.551 6.411-2.888 12.983-4.332 19.714-4.332 9.617 0 17.631 1.925 24.042 5.776 6.571 3.85 11.46 9.626 14.665 17.328 3.366 7.701 5.049 17.328 5.049 28.88v69.494a8 8 0 0 1-8 8h-13.571a8 8 0 0 1-8-8v-67.328c0-6.418-.882-11.713-2.645-15.884-1.763-4.332-4.487-7.461-8.174-9.386-3.686-2.086-8.174-3.049-13.463-2.888-4.328 0-8.335.722-12.021 2.166a27.001 27.001 0 0 0-9.376 5.776c-2.565 2.406-4.648 5.214-6.251 8.423-1.442 3.209-2.164 6.739-2.164 10.589v68.532a8 8 0 0 1-8 8H457.965Z"/><path fill="url(#n)" fill-opacity=".2" d="M457.965 178.093a6.732 6.732 0 0 1-6.732-6.731v-112.1a8 8 0 0 1 8-8h12.997a8 8 0 0 1 7.998 7.852l.311 16.82a2.133 2.133 0 0 1-1.145 1.931c-1.655.865-3.458-.642-2.698-2.347 1.769-3.969 4.341-7.642 7.715-11.02 4.648-4.813 10.177-8.663 16.588-11.551 6.411-2.888 12.983-4.332 19.714-4.332 9.617 0 17.631 1.925 24.042 5.776 6.571 3.85 11.46 9.626 14.665 17.328 3.366 7.701 5.049 17.328 5.049 28.88v69.494a8 8 0 0 1-8 8h-13.571a8 8 0 0 1-8-8v-67.328c0-6.418-.882-11.713-2.645-15.884-1.763-4.332-4.487-7.461-8.174-9.386-3.686-2.086-8.174-3.049-13.463-2.888-4.328 0-8.335.722-12.021 2.166a27.001 27.001 0 0 0-9.376 5.776c-2.565 2.406-4.648 5.214-6.251 8.423-1.442 3.209-2.164 6.739-2.164 10.589v68.532a8 8 0 0 1-8 8H457.965Z"/><path fill="url(#o)" fill-opacity=".2" d="M457.965 178.093a6.732 6.732 0 0 1-6.732-6.731v-112.1a8 8 0 0 1 8-8h12.997a8 8 0 0 1 7.998 7.852l.311 16.82a2.133 2.133 0 0 1-1.145 1.931c-1.655.865-3.458-.642-2.698-2.347 1.769-3.969 4.341-7.642 7.715-11.02 4.648-4.813 10.177-8.663 16.588-11.551 6.411-2.888 12.983-4.332 19.714-4.332 9.617 0 17.631 1.925 24.042 5.776 6.571 3.85 11.46 9.626 14.665 17.328 3.366 7.701 5.049 17.328 5.049 28.88v69.494a8 8 0 0 1-8 8h-13.571a8 8 0 0 1-8-8v-67.328c0-6.418-.882-11.713-2.645-15.884-1.763-4.332-4.487-7.461-8.174-9.386-3.686-2.086-8.174-3.049-13.463-2.888-4.328 0-8.335.722-12.021 2.166a27.001 27.001 0 0 0-9.376 5.776c-2.565 2.406-4.648 5.214-6.251 8.423-1.442 3.209-2.164 6.739-2.164 10.589v68.532a8 8 0 0 1-8 8H457.965Z"/><path fill="#481DBF" d="M597.036 178.093a8 8 0 0 1-8-8V15.637a6.01 6.01 0 1 1 12.02 0V158.06a8 8 0 0 0 8 8h68.446a6.017 6.017 0 0 1 0 12.033h-80.466Z"/><path fill="url(#p)" d="M597.036 178.093a8 8 0 0 1-8-8V15.637a6.01 6.01 0 1 1 12.02 0V158.06a8 8 0 0 0 8 8h68.446a6.017 6.017 0 0 1 0 12.033h-80.466Z"/><path fill="url(#q)" fill-opacity=".2" d="M597.036 178.093a8 8 0 0 1-8-8V15.637a6.01 6.01 0 1 1 12.02 0V158.06a8 8 0 0 0 8 8h68.446a6.017 6.017 0 0 1 0 12.033h-80.466Z"/><path fill="url(#r)" fill-opacity=".2" d="M597.036 178.093a8 8 0 0 1-8-8V15.637a6.01 6.01 0 1 1 12.02 0V158.06a8 8 0 0 0 8 8h68.446a6.017 6.017 0 0 1 0 12.033h-80.466Z"/><path fill="#481DBF" d="M754.586 180.5c-11.379 0-21.557-2.808-30.532-8.423-8.976-5.616-16.108-13.317-21.397-23.104-5.129-9.787-7.694-20.938-7.694-33.453 0-12.675 2.645-23.906 7.934-33.693 5.449-9.787 12.662-17.489 21.637-23.104 8.976-5.616 18.993-8.424 30.052-8.424 6.412 0 12.502.963 18.272 2.888 5.77 1.926 10.979 4.653 15.627 8.183a53.497 53.497 0 0 1 12.021 12.033 45.914 45.914 0 0 1 5.777 10.68c.587 1.552-1.12 2.82-2.512 1.914a1.814 1.814 0 0 1-.823-1.587l.955-25.804a5.876 5.876 0 0 1 11.749.217v113.26a6.01 6.01 0 0 1-12.021 0v-24.77c0-.326.121-.641.338-.884.934-1.045 2.467-.169 1.932 1.126-1.382 3.339-3.181 6.539-5.395 9.6-3.366 4.653-7.373 8.745-12.021 12.274-4.648 3.53-9.857 6.258-15.627 8.183-5.77 1.925-11.86 2.888-18.272 2.888Zm1.683-12.033c9.136 0 17.31-2.247 24.523-6.739 7.373-4.653 13.143-10.91 17.31-18.772 4.327-8.022 6.491-17.248 6.491-27.677 0-10.268-2.084-19.333-6.251-27.195-4.167-8.022-9.937-14.28-17.31-18.772-7.212-4.653-15.467-6.98-24.763-6.98-9.456 0-17.871 2.327-25.243 6.98-7.213 4.492-12.903 10.75-17.07 18.772-4.167 7.862-6.251 16.927-6.251 27.195 0 10.108 2.004 19.173 6.011 27.196 4.167 8.022 9.857 14.359 17.069 19.012 7.373 4.653 15.868 6.98 25.484 6.98Z"/><path fill="url(#s)" d="M754.586 180.5c-11.379 0-21.557-2.808-30.532-8.423-8.976-5.616-16.108-13.317-21.397-23.104-5.129-9.787-7.694-20.938-7.694-33.453 0-12.675 2.645-23.906 7.934-33.693 5.449-9.787 12.662-17.489 21.637-23.104 8.976-5.616 18.993-8.424 30.052-8.424 6.412 0 12.502.963 18.272 2.888 5.77 1.926 10.979 4.653 15.627 8.183a53.497 53.497 0 0 1 12.021 12.033 45.914 45.914 0 0 1 5.777 10.68c.587 1.552-1.12 2.82-2.512 1.914a1.814 1.814 0 0 1-.823-1.587l.955-25.804a5.876 5.876 0 0 1 11.749.217v113.26a6.01 6.01 0 0 1-12.021 0v-24.77c0-.326.121-.641.338-.884.934-1.045 2.467-.169 1.932 1.126-1.382 3.339-3.181 6.539-5.395 9.6-3.366 4.653-7.373 8.745-12.021 12.274-4.648 3.53-9.857 6.258-15.627 8.183-5.77 1.925-11.86 2.888-18.272 2.888Zm1.683-12.033c9.136 0 17.31-2.247 24.523-6.739 7.373-4.653 13.143-10.91 17.31-18.772 4.327-8.022 6.491-17.248 6.491-27.677 0-10.268-2.084-19.333-6.251-27.195-4.167-8.022-9.937-14.28-17.31-18.772-7.212-4.653-15.467-6.98-24.763-6.98-9.456 0-17.871 2.327-25.243 6.98-7.213 4.492-12.903 10.75-17.07 18.772-4.167 7.862-6.251 16.927-6.251 27.195 0 10.108 2.004 19.173 6.011 27.196 4.167 8.022 9.857 14.359 17.069 19.012 7.373 4.653 15.868 6.98 25.484 6.98Z"/><path fill="url(#t)" fill-opacity=".2" d="M754.586 180.5c-11.379 0-21.557-2.808-30.532-8.423-8.976-5.616-16.108-13.317-21.397-23.104-5.129-9.787-7.694-20.938-7.694-33.453 0-12.675 2.645-23.906 7.934-33.693 5.449-9.787 12.662-17.489 21.637-23.104 8.976-5.616 18.993-8.424 30.052-8.424 6.412 0 12.502.963 18.272 2.888 5.77 1.926 10.979 4.653 15.627 8.183a53.497 53.497 0 0 1 12.021 12.033 45.914 45.914 0 0 1 5.777 10.68c.587 1.552-1.12 2.82-2.512 1.914a1.814 1.814 0 0 1-.823-1.587l.955-25.804a5.876 5.876 0 0 1 11.749.217v113.26a6.01 6.01 0 0 1-12.021 0v-24.77c0-.326.121-.641.338-.884.934-1.045 2.467-.169 1.932 1.126-1.382 3.339-3.181 6.539-5.395 9.6-3.366 4.653-7.373 8.745-12.021 12.274-4.648 3.53-9.857 6.258-15.627 8.183-5.77 1.925-11.86 2.888-18.272 2.888Zm1.683-12.033c9.136 0 17.31-2.247 24.523-6.739 7.373-4.653 13.143-10.91 17.31-18.772 4.327-8.022 6.491-17.248 6.491-27.677 0-10.268-2.084-19.333-6.251-27.195-4.167-8.022-9.937-14.28-17.31-18.772-7.212-4.653-15.467-6.98-24.763-6.98-9.456 0-17.871 2.327-25.243 6.98-7.213 4.492-12.903 10.75-17.07 18.772-4.167 7.862-6.251 16.927-6.251 27.195 0 10.108 2.004 19.173 6.011 27.196 4.167 8.022 9.857 14.359 17.069 19.012 7.373 4.653 15.868 6.98 25.484 6.98Z"/><path fill="url(#u)" fill-opacity=".2" d="M754.586 180.5c-11.379 0-21.557-2.808-30.532-8.423-8.976-5.616-16.108-13.317-21.397-23.104-5.129-9.787-7.694-20.938-7.694-33.453 0-12.675 2.645-23.906 7.934-33.693 5.449-9.787 12.662-17.489 21.637-23.104 8.976-5.616 18.993-8.424 30.052-8.424 6.412 0 12.502.963 18.272 2.888 5.77 1.926 10.979 4.653 15.627 8.183a53.497 53.497 0 0 1 12.021 12.033 45.914 45.914 0 0 1 5.777 10.68c.587 1.552-1.12 2.82-2.512 1.914a1.814 1.814 0 0 1-.823-1.587l.955-25.804a5.876 5.876 0 0 1 11.749.217v113.26a6.01 6.01 0 0 1-12.021 0v-24.77c0-.326.121-.641.338-.884.934-1.045 2.467-.169 1.932 1.126-1.382 3.339-3.181 6.539-5.395 9.6-3.366 4.653-7.373 8.745-12.021 12.274-4.648 3.53-9.857 6.258-15.627 8.183-5.77 1.925-11.86 2.888-18.272 2.888Zm1.683-12.033c9.136 0 17.31-2.247 24.523-6.739 7.373-4.653 13.143-10.91 17.31-18.772 4.327-8.022 6.491-17.248 6.491-27.677 0-10.268-2.084-19.333-6.251-27.195-4.167-8.022-9.937-14.28-17.31-18.772-7.212-4.653-15.467-6.98-24.763-6.98-9.456 0-17.871 2.327-25.243 6.98-7.213 4.492-12.903 10.75-17.07 18.772-4.167 7.862-6.251 16.927-6.251 27.195 0 10.108 2.004 19.173 6.011 27.196 4.167 8.022 9.857 14.359 17.069 19.012 7.373 4.653 15.868 6.98 25.484 6.98Z"/><path fill="#481DBF" d="M900.93 180.5c-6.411 0-12.502-.963-18.272-2.888a62.395 62.395 0 0 1-15.627-7.942c-4.648-3.53-8.655-7.621-12.021-12.274a49.466 49.466 0 0 1-5.38-10.099c-.545-1.399 1.082-2.443 2.204-1.445.337.3.522.734.505 1.185l-.961 25.4a5.88 5.88 0 0 1-11.754-.223V6.01a6.01 6.01 0 1 1 12.021 0v77.783c0 .284-.104.558-.291.77-.816.926-2.194.151-1.748-.998a49.448 49.448 0 0 1 5.404-10.162 53.497 53.497 0 0 1 12.021-12.033 58.201 58.201 0 0 1 15.627-8.183c5.77-1.925 11.861-2.888 18.272-2.888 11.059 0 21.076 2.808 30.052 8.424 8.976 5.615 16.108 13.317 21.397 23.104 5.449 9.787 8.174 21.018 8.174 33.693 0 12.515-2.644 23.666-7.934 33.453-5.128 9.787-12.181 17.488-21.156 23.104-8.976 5.615-19.153 8.423-30.533 8.423Zm-1.683-12.033c9.617 0 18.031-2.327 25.244-6.98 7.372-4.653 13.062-10.99 17.069-19.012 4.168-8.023 6.251-17.088 6.251-27.196 0-10.268-2.083-19.333-6.251-27.195-4.167-8.022-9.937-14.28-17.31-18.772-7.212-4.653-15.547-6.98-25.003-6.98s-17.871 2.327-25.244 6.98c-7.212 4.492-12.902 10.75-17.069 18.772-4.167 7.862-6.251 16.927-6.251 27.195 0 10.429 2.084 19.655 6.251 27.677 4.327 7.862 10.097 14.119 17.31 18.772 7.373 4.492 15.707 6.739 25.003 6.739Z"/><path fill="url(#v)" d="M900.93 180.5c-6.411 0-12.502-.963-18.272-2.888a62.395 62.395 0 0 1-15.627-7.942c-4.648-3.53-8.655-7.621-12.021-12.274a49.466 49.466 0 0 1-5.38-10.099c-.545-1.399 1.082-2.443 2.204-1.445.337.3.522.734.505 1.185l-.961 25.4a5.88 5.88 0 0 1-11.754-.223V6.01a6.01 6.01 0 1 1 12.021 0v77.783c0 .284-.104.558-.291.77-.816.926-2.194.151-1.748-.998a49.448 49.448 0 0 1 5.404-10.162 53.497 53.497 0 0 1 12.021-12.033 58.201 58.201 0 0 1 15.627-8.183c5.77-1.925 11.861-2.888 18.272-2.888 11.059 0 21.076 2.808 30.052 8.424 8.976 5.615 16.108 13.317 21.397 23.104 5.449 9.787 8.174 21.018 8.174 33.693 0 12.515-2.644 23.666-7.934 33.453-5.128 9.787-12.181 17.488-21.156 23.104-8.976 5.615-19.153 8.423-30.533 8.423Zm-1.683-12.033c9.617 0 18.031-2.327 25.244-6.98 7.372-4.653 13.062-10.99 17.069-19.012 4.168-8.023 6.251-17.088 6.251-27.196 0-10.268-2.083-19.333-6.251-27.195-4.167-8.022-9.937-14.28-17.31-18.772-7.212-4.653-15.547-6.98-25.003-6.98s-17.871 2.327-25.244 6.98c-7.212 4.492-12.902 10.75-17.069 18.772-4.167 7.862-6.251 16.927-6.251 27.195 0 10.429 2.084 19.655 6.251 27.677 4.327 7.862 10.097 14.119 17.31 18.772 7.373 4.492 15.707 6.739 25.003 6.739Z"/><path fill="url(#w)" fill-opacity=".2" d="M900.93 180.5c-6.411 0-12.502-.963-18.272-2.888a62.395 62.395 0 0 1-15.627-7.942c-4.648-3.53-8.655-7.621-12.021-12.274a49.466 49.466 0 0 1-5.38-10.099c-.545-1.399 1.082-2.443 2.204-1.445.337.3.522.734.505 1.185l-.961 25.4a5.88 5.88 0 0 1-11.754-.223V6.01a6.01 6.01 0 1 1 12.021 0v77.783c0 .284-.104.558-.291.77-.816.926-2.194.151-1.748-.998a49.448 49.448 0 0 1 5.404-10.162 53.497 53.497 0 0 1 12.021-12.033 58.201 58.201 0 0 1 15.627-8.183c5.77-1.925 11.861-2.888 18.272-2.888 11.059 0 21.076 2.808 30.052 8.424 8.976 5.615 16.108 13.317 21.397 23.104 5.449 9.787 8.174 21.018 8.174 33.693 0 12.515-2.644 23.666-7.934 33.453-5.128 9.787-12.181 17.488-21.156 23.104-8.976 5.615-19.153 8.423-30.533 8.423Zm-1.683-12.033c9.617 0 18.031-2.327 25.244-6.98 7.372-4.653 13.062-10.99 17.069-19.012 4.168-8.023 6.251-17.088 6.251-27.196 0-10.268-2.083-19.333-6.251-27.195-4.167-8.022-9.937-14.28-17.31-18.772-7.212-4.653-15.547-6.98-25.003-6.98s-17.871 2.327-25.244 6.98c-7.212 4.492-12.902 10.75-17.069 18.772-4.167 7.862-6.251 16.927-6.251 27.195 0 10.429 2.084 19.655 6.251 27.677 4.327 7.862 10.097 14.119 17.31 18.772 7.373 4.492 15.707 6.739 25.003 6.739Z"/><path fill="url(#x)" fill-opacity=".2" d="M900.93 180.5c-6.411 0-12.502-.963-18.272-2.888a62.395 62.395 0 0 1-15.627-7.942c-4.648-3.53-8.655-7.621-12.021-12.274a49.466 49.466 0 0 1-5.38-10.099c-.545-1.399 1.082-2.443 2.204-1.445.337.3.522.734.505 1.185l-.961 25.4a5.88 5.88 0 0 1-11.754-.223V6.01a6.01 6.01 0 1 1 12.021 0v77.783c0 .284-.104.558-.291.77-.816.926-2.194.151-1.748-.998a49.448 49.448 0 0 1 5.404-10.162 53.497 53.497 0 0 1 12.021-12.033 58.201 58.201 0 0 1 15.627-8.183c5.77-1.925 11.861-2.888 18.272-2.888 11.059 0 21.076 2.808 30.052 8.424 8.976 5.615 16.108 13.317 21.397 23.104 5.449 9.787 8.174 21.018 8.174 33.693 0 12.515-2.644 23.666-7.934 33.453-5.128 9.787-12.181 17.488-21.156 23.104-8.976 5.615-19.153 8.423-30.533 8.423Zm-1.683-12.033c9.617 0 18.031-2.327 25.244-6.98 7.372-4.653 13.062-10.99 17.069-19.012 4.168-8.023 6.251-17.088 6.251-27.196 0-10.268-2.083-19.333-6.251-27.195-4.167-8.022-9.937-14.28-17.31-18.772-7.212-4.653-15.547-6.98-25.003-6.98s-17.871 2.327-25.244 6.98c-7.212 4.492-12.902 10.75-17.069 18.772-4.167 7.862-6.251 16.927-6.251 27.195 0 10.429 2.084 19.655 6.251 27.677 4.327 7.862 10.097 14.119 17.31 18.772 7.373 4.492 15.707 6.739 25.003 6.739Z"/><path fill="#481DBF" d="M1040.1 180.5c-12.02 0-22.75-2.728-32.21-8.183-9.297-5.455-16.59-13.076-21.879-22.863-5.289-9.787-7.934-21.179-7.934-34.175 0-9.466 1.443-18.13 4.328-25.992 3.045-7.861 7.212-14.68 12.502-20.456 5.293-5.937 11.623-10.51 18.993-13.718 7.53-3.21 15.71-4.814 24.52-4.814 8.66 0 16.43 1.444 23.32 4.332 7.05 2.888 12.98 7.06 17.79 12.515 4.81 5.295 8.42 11.632 10.82 19.013 2.41 7.22 3.45 15.242 3.13 24.066a6.757 6.757 0 0 1-6.75 6.498h-94.222a5.535 5.535 0 1 1 0-11.07h90.342c1.31 0 1.89 1.64.88 2.469-.91.744-2.27.098-2.27-1.077v-2.836c0-6.418-1.61-12.836-4.81-19.254-3.05-6.417-7.78-11.792-14.19-16.124-6.41-4.332-14.5-6.498-24.28-6.498-9.13 0-17.31 2.005-24.52 6.016-7.05 4.011-12.66 9.868-16.83 17.569-4.007 7.701-6.011 17.248-6.011 28.639 0 10.911 2.004 20.457 6.011 28.64 4.01 8.022 9.78 14.279 17.31 18.772 7.69 4.332 17.07 6.498 28.13 6.498 5.93 0 12.02-.963 18.27-2.888 4.95-1.526 10.41-4.464 16.37-8.812 2.64-1.925 6.38-1.426 8.26 1.247 1.6 2.274 1.31 5.393-.85 7.149-2.66 2.174-5.62 4.238-8.87 6.192-4.81 2.727-10.18 4.973-16.11 6.738-5.93 1.605-12.34 2.407-19.24 2.407Z"/><path fill="url(#y)" d="M1040.1 180.5c-12.02 0-22.75-2.728-32.21-8.183-9.297-5.455-16.59-13.076-21.879-22.863-5.289-9.787-7.934-21.179-7.934-34.175 0-9.466 1.443-18.13 4.328-25.992 3.045-7.861 7.212-14.68 12.502-20.456 5.293-5.937 11.623-10.51 18.993-13.718 7.53-3.21 15.71-4.814 24.52-4.814 8.66 0 16.43 1.444 23.32 4.332 7.05 2.888 12.98 7.06 17.79 12.515 4.81 5.295 8.42 11.632 10.82 19.013 2.41 7.22 3.45 15.242 3.13 24.066a6.757 6.757 0 0 1-6.75 6.498h-94.222a5.535 5.535 0 1 1 0-11.07h90.342c1.31 0 1.89 1.64.88 2.469-.91.744-2.27.098-2.27-1.077v-2.836c0-6.418-1.61-12.836-4.81-19.254-3.05-6.417-7.78-11.792-14.19-16.124-6.41-4.332-14.5-6.498-24.28-6.498-9.13 0-17.31 2.005-24.52 6.016-7.05 4.011-12.66 9.868-16.83 17.569-4.007 7.701-6.011 17.248-6.011 28.639 0 10.911 2.004 20.457 6.011 28.64 4.01 8.022 9.78 14.279 17.31 18.772 7.69 4.332 17.07 6.498 28.13 6.498 5.93 0 12.02-.963 18.27-2.888 4.95-1.526 10.41-4.464 16.37-8.812 2.64-1.925 6.38-1.426 8.26 1.247 1.6 2.274 1.31 5.393-.85 7.149-2.66 2.174-5.62 4.238-8.87 6.192-4.81 2.727-10.18 4.973-16.11 6.738-5.93 1.605-12.34 2.407-19.24 2.407Z"/><path fill="url(#z)" fill-opacity=".2" d="M1040.1 180.5c-12.02 0-22.75-2.728-32.21-8.183-9.297-5.455-16.59-13.076-21.879-22.863-5.289-9.787-7.934-21.179-7.934-34.175 0-9.466 1.443-18.13 4.328-25.992 3.045-7.861 7.212-14.68 12.502-20.456 5.293-5.937 11.623-10.51 18.993-13.718 7.53-3.21 15.71-4.814 24.52-4.814 8.66 0 16.43 1.444 23.32 4.332 7.05 2.888 12.98 7.06 17.79 12.515 4.81 5.295 8.42 11.632 10.82 19.013 2.41 7.22 3.45 15.242 3.13 24.066a6.757 6.757 0 0 1-6.75 6.498h-94.222a5.535 5.535 0 1 1 0-11.07h90.342c1.31 0 1.89 1.64.88 2.469-.91.744-2.27.098-2.27-1.077v-2.836c0-6.418-1.61-12.836-4.81-19.254-3.05-6.417-7.78-11.792-14.19-16.124-6.41-4.332-14.5-6.498-24.28-6.498-9.13 0-17.31 2.005-24.52 6.016-7.05 4.011-12.66 9.868-16.83 17.569-4.007 7.701-6.011 17.248-6.011 28.639 0 10.911 2.004 20.457 6.011 28.64 4.01 8.022 9.78 14.279 17.31 18.772 7.69 4.332 17.07 6.498 28.13 6.498 5.93 0 12.02-.963 18.27-2.888 4.95-1.526 10.41-4.464 16.37-8.812 2.64-1.925 6.38-1.426 8.26 1.247 1.6 2.274 1.31 5.393-.85 7.149-2.66 2.174-5.62 4.238-8.87 6.192-4.81 2.727-10.18 4.973-16.11 6.738-5.93 1.605-12.34 2.407-19.24 2.407Z"/><path fill="url(#A)" fill-opacity=".2" d="M1040.1 180.5c-12.02 0-22.75-2.728-32.21-8.183-9.297-5.455-16.59-13.076-21.879-22.863-5.289-9.787-7.934-21.179-7.934-34.175 0-9.466 1.443-18.13 4.328-25.992 3.045-7.861 7.212-14.68 12.502-20.456 5.293-5.937 11.623-10.51 18.993-13.718 7.53-3.21 15.71-4.814 24.52-4.814 8.66 0 16.43 1.444 23.32 4.332 7.05 2.888 12.98 7.06 17.79 12.515 4.81 5.295 8.42 11.632 10.82 19.013 2.41 7.22 3.45 15.242 3.13 24.066a6.757 6.757 0 0 1-6.75 6.498h-94.222a5.535 5.535 0 1 1 0-11.07h90.342c1.31 0 1.89 1.64.88 2.469-.91.744-2.27.098-2.27-1.077v-2.836c0-6.418-1.61-12.836-4.81-19.254-3.05-6.417-7.78-11.792-14.19-16.124-6.41-4.332-14.5-6.498-24.28-6.498-9.13 0-17.31 2.005-24.52 6.016-7.05 4.011-12.66 9.868-16.83 17.569-4.007 7.701-6.011 17.248-6.011 28.639 0 10.911 2.004 20.457 6.011 28.64 4.01 8.022 9.78 14.279 17.31 18.772 7.69 4.332 17.07 6.498 28.13 6.498 5.93 0 12.02-.963 18.27-2.888 4.95-1.526 10.41-4.464 16.37-8.812 2.64-1.925 6.38-1.426 8.26 1.247 1.6 2.274 1.31 5.393-.85 7.149-2.66 2.174-5.62 4.238-8.87 6.192-4.81 2.727-10.18 4.973-16.11 6.738-5.93 1.605-12.34 2.407-19.24 2.407Z"/><path fill="#481DBF" d="M1120.18 178.093a6.01 6.01 0 0 1-6.01-6.01V6.01a6.01 6.01 0 1 1 12.02 0v166.073a6.01 6.01 0 0 1-6.01 6.01Z"/><path fill="url(#B)" d="M1120.18 178.093a6.01 6.01 0 0 1-6.01-6.01V6.01a6.01 6.01 0 1 1 12.02 0v166.073a6.01 6.01 0 0 1-6.01 6.01Z"/><path fill="url(#C)" fill-opacity=".2" d="M1120.18 178.093a6.01 6.01 0 0 1-6.01-6.01V6.01a6.01 6.01 0 1 1 12.02 0v166.073a6.01 6.01 0 0 1-6.01 6.01Z"/><path fill="url(#D)" fill-opacity=".2" d="M1120.18 178.093a6.01 6.01 0 0 1-6.01-6.01V6.01a6.01 6.01 0 1 1 12.02 0v166.073a6.01 6.01 0 0 1-6.01 6.01Z"/><defs><radialGradient id="b" cx="0" cy="0" r="1" gradientTransform="rotate(-28.145 -239.856 83.987) scale(77.0958 316.393)" gradientUnits="userSpaceOnUse"><stop offset=".85" stop-color="#481DBF"/><stop offset=".99" stop-color="#734BE4"/><stop offset="1" stop-color="#A287ED" stop-opacity="0"/></radialGradient><radialGradient id="c" cx="0" cy="0" r="1" gradientTransform="rotate(11.573 -726.138 -132.996) scale(169.447 551.47)" gradientUnits="userSpaceOnUse"><stop stop-color="#481DBF"/><stop offset=".99" stop-color="#6337E1"/><stop offset="1" stop-color="#fff" stop-opacity="0"/></radialGradient><radialGradient id="e" cx="0" cy="0" r="1" gradientTransform="rotate(-28.145 -239.856 83.987) scale(77.0958 316.393)" gradientUnits="userSpaceOnUse"><stop offset=".85" stop-color="#481DBF"/><stop offset=".99" stop-color="#734BE4"/><stop offset="1" stop-color="#A287ED" stop-opacity="0"/></radialGradient><radialGradient id="f" cx="0" cy="0" r="1" gradientTransform="rotate(11.573 -726.138 -132.996) scale(169.447 551.47)" gradientUnits="userSpaceOnUse"><stop stop-color="#481DBF"/><stop offset=".99" stop-color="#6337E1"/><stop offset="1" stop-color="#fff" stop-opacity="0"/></radialGradient><radialGradient id="h" cx="0" cy="0" r="1" gradientTransform="rotate(-28.145 -239.856 83.987) scale(77.0958 316.393)" gradientUnits="userSpaceOnUse"><stop offset=".85" stop-color="#481DBF"/><stop offset=".99" stop-color="#734BE4"/><stop offset="1" stop-color="#A287ED" stop-opacity="0"/></radialGradient><radialGradient id="i" cx="0" cy="0" r="1" gradientTransform="rotate(11.573 -726.138 -132.996) scale(169.447 551.47)" gradientUnits="userSpaceOnUse"><stop stop-color="#481DBF"/><stop offset=".99" stop-color="#6337E1"/><stop offset="1" stop-color="#fff" stop-opacity="0"/></radialGradient><radialGradient id="k" cx="0" cy="0" r="1" gradientTransform="rotate(-8.845 -784.754 -144.768) scale(255.683 383.283)" gradientUnits="userSpaceOnUse"><stop offset=".85" stop-color="#481DBF"/><stop offset=".99" stop-color="#734BE4"/><stop offset="1" stop-color="#A287ED" stop-opacity="0"/></radialGradient><radialGradient id="l" cx="0" cy="0" r="1" gradientTransform="rotate(3.409 -2359.596 1946.031) scale(618.031 607.449)" gradientUnits="userSpaceOnUse"><stop stop-color="#481DBF"/><stop offset=".99" stop-color="#6337E1"/><stop offset="1" stop-color="#fff" stop-opacity="0"/></radialGradient><radialGradient id="n" cx="0" cy="0" r="1" gradientTransform="rotate(-8.845 -784.754 -144.768) scale(255.683 383.283)" gradientUnits="userSpaceOnUse"><stop offset=".85" stop-color="#481DBF"/><stop offset=".99" stop-color="#734BE4"/><stop offset="1" stop-color="#A287ED" stop-opacity="0"/></radialGradient><radialGradient id="o" cx="0" cy="0" r="1" gradientTransform="rotate(3.409 -2359.596 1946.031) scale(618.031 607.449)" gradientUnits="userSpaceOnUse"><stop stop-color="#481DBF"/><stop offset=".99" stop-color="#6337E1"/><stop offset="1" stop-color="#fff" stop-opacity="0"/></radialGradient><radialGradient id="q" cx="0" cy="0" r="1" gradientTransform="rotate(-8.845 -784.754 -144.768) scale(255.683 383.283)" gradientUnits="userSpaceOnUse"><stop offset=".85" stop-color="#481DBF"/><stop offset=".99" stop-color="#734BE4"/><stop offset="1" stop-color="#A287ED" stop-opacity="0"/></radialGradient><radialGradient id="r" cx="0" cy="0" r="1" gradientTransform="rotate(3.409 -2359.596 1946.031) scale(618.031 607.449)" gradientUnits="userSpaceOnUse"><stop stop-color="#481DBF"/><stop offset=".99" stop-color="#6337E1"/><stop offset="1" stop-color="#fff" stop-opacity="0"/></radialGradient><radialGradient id="t" cx="0" cy="0" r="1" gradientTransform="rotate(-8.845 -784.754 -144.768) scale(255.683 383.283)" gradientUnits="userSpaceOnUse"><stop offset=".85" stop-color="#481DBF"/><stop offset=".99" stop-color="#734BE4"/><stop offset="1" stop-color="#A287ED" stop-opacity="0"/></radialGradient><radialGradient id="u" cx="0" cy="0" r="1" gradientTransform="rotate(3.409 -2359.596 1946.031) scale(618.031 607.449)" gradientUnits="userSpaceOnUse"><stop stop-color="#481DBF"/><stop offset=".99" stop-color="#6337E1"/><stop offset="1" stop-color="#fff" stop-opacity="0"/></radialGradient><radialGradient id="w" cx="0" cy="0" r="1" gradientTransform="rotate(-8.845 -784.754 -144.768) scale(255.683 383.283)" gradientUnits="userSpaceOnUse"><stop offset=".85" stop-color="#481DBF"/><stop offset=".99" stop-color="#734BE4"/><stop offset="1" stop-color="#A287ED" stop-opacity="0"/></radialGradient><radialGradient id="x" cx="0" cy="0" r="1" gradientTransform="rotate(3.409 -2359.596 1946.031) scale(618.031 607.449)" gradientUnits="userSpaceOnUse"><stop stop-color="#481DBF"/><stop offset=".99" stop-color="#6337E1"/><stop offset="1" stop-color="#fff" stop-opacity="0"/></radialGradient><radialGradient id="z" cx="0" cy="0" r="1" gradientTransform="rotate(-8.845 -784.754 -144.768) scale(255.683 383.283)" gradientUnits="userSpaceOnUse"><stop offset=".85" stop-color="#481DBF"/><stop offset=".99" stop-color="#734BE4"/><stop offset="1" stop-color="#A287ED" stop-opacity="0"/></radialGradient><radialGradient id="A" cx="0" cy="0" r="1" gradientTransform="rotate(3.409 -2359.596 1946.031) scale(618.031 607.449)" gradientUnits="userSpaceOnUse"><stop stop-color="#481DBF"/><stop offset=".99" stop-color="#6337E1"/><stop offset="1" stop-color="#fff" stop-opacity="0"/></radialGradient><radialGradient id="C" cx="0" cy="0" r="1" gradientTransform="rotate(-8.845 -784.754 -144.768) scale(255.683 383.283)" gradientUnits="userSpaceOnUse"><stop offset=".85" stop-color="#481DBF"/><stop offset=".99" stop-color="#734BE4"/><stop offset="1" stop-color="#A287ED" stop-opacity="0"/></radialGradient><radialGradient id="D" cx="0" cy="0" r="1" gradientTransform="rotate(3.409 -2359.596 1946.031) scale(618.031 607.449)" gradientUnits="userSpaceOnUse"><stop stop-color="#481DBF"/><stop offset=".99" stop-color="#6337E1"/><stop offset="1" stop-color="#fff" stop-opacity="0"/></radialGradient><linearGradient id="a" x1="0" x2="158.422" y1="10" y2="229.713" gradientUnits="userSpaceOnUse"><stop offset=".215" stop-color="#481DBF"/><stop offset=".9" stop-color="#825FE7"/></linearGradient><linearGradient id="d" x1="0" x2="158.422" y1="10" y2="229.713" gradientUnits="userSpaceOnUse"><stop offset=".215" stop-color="#481DBF"/><stop offset=".9" stop-color="#825FE7"/></linearGradient><linearGradient id="g" x1="0" x2="158.422" y1="10" y2="229.713" gradientUnits="userSpaceOnUse"><stop offset=".215" stop-color="#481DBF"/><stop offset=".9" stop-color="#825FE7"/></linearGradient><linearGradient id="j" x1="265.57" x2="338.094" y1="0" y2="345.789" gradientUnits="userSpaceOnUse"><stop offset=".215" stop-color="#481DBF"/><stop offset=".9" stop-color="#825FE7"/></linearGradient><linearGradient id="m" x1="265.57" x2="338.094" y1="0" y2="345.789" gradientUnits="userSpaceOnUse"><stop offset=".215" stop-color="#481DBF"/><stop offset=".9" stop-color="#825FE7"/></linearGradient><linearGradient id="p" x1="265.57" x2="338.094" y1="0" y2="345.789" gradientUnits="userSpaceOnUse"><stop offset=".215" stop-color="#481DBF"/><stop offset=".9" stop-color="#825FE7"/></linearGradient><linearGradient id="s" x1="265.57" x2="338.094" y1="0" y2="345.789" gradientUnits="userSpaceOnUse"><stop offset=".215" stop-color="#481DBF"/><stop offset=".9" stop-color="#825FE7"/></linearGradient><linearGradient id="v" x1="265.57" x2="338.094" y1="0" y2="345.789" gradientUnits="userSpaceOnUse"><stop offset=".215" stop-color="#481DBF"/><stop offset=".9" stop-color="#825FE7"/></linearGradient><linearGradient id="y" x1="265.57" x2="338.094" y1="0" y2="345.789" gradientUnits="userSpaceOnUse"><stop offset=".215" stop-color="#481DBF"/><stop offset=".9" stop-color="#825FE7"/></linearGradient><linearGradient id="B" x1="265.57" x2="338.094" y1="0" y2="345.789" gradientUnits="userSpaceOnUse"><stop offset=".215" stop-color="#481DBF"/><stop offset=".9" stop-color="#825FE7"/></linearGradient></defs></svg>