<svg width="214" height="35" viewBox="0 0 214 35" fill="none" xmlns="http://www.w3.org/2000/svg">
<path d="M40.5703 29.2844C40.6748 28.9676 40.7557 28.6371 40.81 28.2947C40.8138 28.2718 40.8176 28.2488 40.821 28.2259C40.8225 28.2158 40.8237 28.2058 40.8252 28.1957C40.8765 27.8446 40.8989 27.4909 40.8932 27.1379C40.8932 27.1205 40.8924 27.1034 40.892 27.0863C40.8913 27.0494 40.8901 27.0129 40.8886 26.9764C40.8233 25.0827 39.969 23.4782 38.7044 22.3953C38.3987 22.0617 38.097 21.7231 37.8323 21.3554C37.4745 20.8623 37.1797 20.3225 36.9552 19.7517C35.8844 17.0499 36.5203 13.9199 38.5153 11.8491C38.5681 11.7912 38.6212 11.7334 38.6744 11.6755C39.7035 10.8088 40.467 9.60044 40.7595 8.16412C40.9403 7.32462 40.9441 6.47736 40.7952 5.66737C40.5995 4.54441 40.119 3.54959 39.4459 2.74037C38.4317 1.4951 36.9449 0.636575 35.1752 0.516979C35.0665 0.508825 34.9575 0.503388 34.8477 0.501059C34.8424 0.501059 34.8371 0.501059 34.8322 0.501059C34.7744 0.499894 34.7167 0.499505 34.659 0.500282C32.7688 0.513096 31.1593 1.36308 30.0657 2.64951C29.5126 3.16634 28.9592 3.68316 28.2979 4.05321C26.1395 5.35595 23.2059 5.33188 21.0696 3.99069C19.6439 3.14382 18.6761 1.62868 17.1175 0.995751C13.7167 -0.496091 9.61647 1.54014 8.75647 5.2581C7.94092 8.5035 9.7988 11.9477 12.9676 12.875C15.0462 13.4986 17.3808 12.9821 18.9154 11.4282L18.9211 11.4231C19.4362 10.9428 20.763 9.61947 22.298 9.16632C27.692 7.5743 30.9477 10.6092 32.3642 13.2823C33.8457 16.078 33.5038 20.7376 30.237 23.378C27.5021 25.7078 23.7415 25.7467 21.1205 24.1935C19.6941 23.3481 18.6765 22.0353 17.1179 21.4024C13.717 19.9105 9.61685 21.9468 8.75685 25.6647C7.9413 28.9101 9.79918 32.3543 12.968 33.2816C15.0465 33.9052 17.3811 33.3888 18.9158 31.8348L18.9215 31.8297C19.4365 31.3494 19.9296 30.833 20.4929 30.4097C20.9753 30.0436 21.5033 29.7426 22.0617 29.5131C24.7048 28.4185 27.7668 29.0685 29.7926 31.1079C29.85 31.1626 29.9073 31.2178 29.9647 31.2729C30.7593 32.267 31.8537 33.0206 33.1631 33.3441C33.4191 33.4124 33.6763 33.4633 33.933 33.4967C33.9361 33.4971 33.9395 33.4975 33.9425 33.4979C33.9893 33.5041 34.036 33.5095 34.0827 33.5142C34.0888 33.5149 34.0949 33.5153 34.1009 33.5161C34.2255 33.5289 34.3501 33.5375 34.4747 33.5421C34.5032 33.5433 34.5321 33.5445 34.5606 33.5452C34.5849 33.5456 34.6092 33.546 34.6335 33.5464C34.6734 33.5468 34.7129 33.5472 34.7528 33.5464C34.7676 33.5464 34.7828 33.5464 34.7976 33.5464C37.3138 33.5099 39.6704 31.8942 40.5327 29.399C40.5338 29.3963 40.5346 29.3936 40.5357 29.3904C40.5479 29.3551 40.5597 29.3198 40.5711 29.2841L40.5703 29.2844Z" fill="white"/>
<path d="M24.7477 22.0904C27.4855 22.0904 29.7049 19.8217 29.7049 17.0231C29.7049 14.2246 27.4855 11.9559 24.7477 11.9559C22.01 11.9559 19.7906 14.2246 19.7906 17.0231C19.7906 19.8217 22.01 22.0904 24.7477 22.0904Z" fill="white"/>
<path d="M4.95714 22.0904C7.69489 22.0904 9.91428 19.8217 9.91428 17.0231C9.91428 14.2246 7.69489 11.9559 4.95714 11.9559C2.21939 11.9559 0 14.2246 0 17.0231C0 19.8217 2.21939 22.0904 4.95714 22.0904Z" fill="white"/>
<path fill-rule="evenodd" clip-rule="evenodd" d="M130.378 32.2622C131.946 33.3311 133.672 33.8656 135.559 33.8656C136.661 33.8656 137.706 33.6874 138.693 33.3311C139.708 32.9748 140.623 32.4998 141.435 31.9059C142.277 31.3121 142.959 30.644 143.481 29.9018C143.488 29.8914 143.496 29.8811 143.503 29.8708L143.481 31.9358C143.481 32.9048 144.924 33.3915 145.791 33.3915C146.811 33.3915 148.052 32.9048 148.052 31.9059V11.5422C148.052 10.6362 146.923 10.1495 145.91 10.1495C145.038 10.1495 143.612 10.6362 143.612 11.5422C143.612 11.9311 143.596 12.8249 143.577 13.7185C143.117 12.9124 142.519 12.2053 141.783 11.597C141.058 10.9438 140.202 10.439 139.215 10.0827C138.228 9.72644 137.14 9.54829 135.95 9.54829C133.948 9.54829 132.134 10.0679 130.509 11.1071C128.913 12.1463 127.636 13.5863 126.678 15.4272C125.75 17.2384 125.285 19.3168 125.285 21.6624C125.285 23.9783 125.75 26.0567 126.678 27.8976C127.607 29.7385 128.84 31.1933 130.378 32.2622ZM136.436 29.1516C140.066 29.1516 143.009 25.8181 143.009 21.706C143.009 17.5939 140.066 14.2603 136.436 14.2603C132.806 14.2603 129.863 17.5939 129.863 21.706C129.863 25.8181 132.806 29.1516 136.436 29.1516Z" fill="white"/>
<path d="M206.386 33.9277C207.296 34.3092 208.438 34.5 209.81 34.5C210.15 34.5 210.52 34.4706 210.921 34.4119C211.322 34.3679 211.649 34.3166 211.904 34.2579C212.171 34.2139 212.445 34.1552 212.724 34.0818C212.923 34.0317 212.967 34.0092 213.03 33.9775C213.059 33.9628 213.093 33.9461 213.147 33.9236C214.407 33.405 214.183 30.6669 213.052 29.8557C212.539 29.488 211.963 29.7086 211.456 29.9028C211.192 30.0039 210.947 30.0979 210.739 30.0979C209.512 30.0979 208.687 29.7164 208.262 28.9533C207.837 28.1756 207.624 26.7009 207.624 24.5292V3.03613C207.624 1.94773 206.894 1.06543 205.993 1.06552L204.483 1.06567C203.582 1.06576 202.852 1.94801 202.852 3.03628V24.6392C202.852 26.3854 202.956 27.8454 203.162 29.0193C203.368 30.1932 203.733 31.2057 204.255 32.0568C204.777 32.9079 205.487 33.5315 206.386 33.9277Z" fill="white"/>
<path d="M190.009 33.7928C187.609 33.7928 185.483 33.2749 183.632 32.2391C181.809 31.2033 180.378 29.7977 179.336 28.022C178.324 26.2168 177.818 24.1601 177.818 21.8518C177.818 20.017 178.107 18.3449 178.685 16.8357C179.264 15.3264 180.059 14.0243 181.072 12.9293C182.113 11.8047 183.342 10.9465 184.76 10.3547C186.206 9.7332 187.782 9.42246 189.489 9.42246C190.993 9.42246 192.396 9.7184 193.697 10.3103C194.999 10.9021 196.127 11.716 197.081 12.7517C198.036 13.7579 198.759 14.9713 199.251 16.3918C199.771 17.7827 200.017 19.3067 199.988 20.964L199.987 21.0315C199.964 22.0553 199.146 22.8727 198.145 22.8727H182.809C181.988 22.8727 181.268 22.3109 181.052 21.5007C180.734 20.3143 181.607 19.144 182.809 19.144H194.991C195.175 19.144 195.27 19.3684 195.144 19.5051C195.014 19.6464 194.782 19.5523 194.782 19.3582V18.922C194.695 18.0046 194.406 17.2056 193.914 16.5249C193.423 15.8147 192.786 15.2672 192.005 14.8825C191.253 14.4682 190.414 14.261 189.489 14.261C188.071 14.261 186.871 14.5422 185.888 15.1044C184.933 15.6667 184.21 16.4805 183.718 17.5459C183.227 18.5817 182.981 19.8838 182.981 21.4523C182.981 22.9615 183.284 24.2784 183.892 25.403C184.528 26.5276 185.41 27.4006 186.538 28.022C187.695 28.6139 189.04 28.9098 190.573 28.9098C191.644 28.9098 192.627 28.7323 193.524 28.3772C193.94 28.2122 194.372 27.9867 194.82 27.7004C195.737 27.1139 196.974 27.2425 197.604 28.1417L198.129 28.8898C198.671 29.662 198.573 30.7398 197.809 31.2808C197.364 31.5961 196.89 31.886 196.387 32.1503C195.404 32.6534 194.363 33.0529 193.263 33.3489C192.164 33.6448 191.08 33.7928 190.009 33.7928Z" fill="white"/>
<path d="M164.535 33.7928C163.522 33.7928 162.524 33.6448 161.541 33.3489C160.586 33.0233 159.719 32.5942 158.938 32.0616C158.157 31.5289 157.506 30.937 156.985 30.2859C156.584 29.7611 156.285 29.2362 156.09 28.7113C155.992 28.4464 156.129 28.1591 156.382 28.0431C156.762 27.8686 157.191 28.1599 157.181 28.5864L157.115 31.4199C157.091 32.4432 156.273 33.2601 155.273 33.2601H153.751C152.734 33.2601 151.909 32.4161 151.909 31.375V2.38506C151.909 1.34397 152.734 0.5 153.751 0.5H155.403C156.421 0.5 157.246 1.34397 157.246 2.38506V14.6628C157.246 14.9943 156.911 15.215 156.616 15.0778C156.426 14.9896 156.319 14.7777 156.378 14.5734C156.547 13.9946 156.836 13.4466 157.246 12.9293C157.766 12.2782 158.402 11.7012 159.155 11.1981C159.907 10.6654 160.731 10.2511 161.628 9.95515C162.524 9.62962 163.435 9.46686 164.361 9.46686C166.415 9.46686 168.222 9.98474 169.784 11.0205C171.375 12.0563 172.619 13.4916 173.516 15.3264C174.441 17.1612 174.904 19.2475 174.904 21.5854C174.904 23.9529 174.456 26.0541 173.559 27.8889C172.662 29.7237 171.419 31.1738 169.828 32.2391C168.266 33.2749 166.501 33.7928 164.535 33.7928ZM163.406 28.9986C164.621 28.9986 165.706 28.6879 166.66 28.0664C167.615 27.4154 168.367 26.5424 168.917 25.4474C169.466 24.3228 169.741 23.0355 169.741 21.5854C169.741 20.1649 169.466 18.9072 168.917 17.8122C168.396 16.7173 167.658 15.8591 166.704 15.2376C165.749 14.6161 164.65 14.3054 163.406 14.3054C162.163 14.3054 161.064 14.6161 160.109 15.2376C159.155 15.8591 158.402 16.7173 157.853 17.8122C157.303 18.9072 157.029 20.1649 157.029 21.5854C157.029 23.0355 157.303 24.3228 157.853 25.4474C158.402 26.5424 159.155 27.4154 160.109 28.0664C161.064 28.6879 162.163 28.9986 163.406 28.9986Z" fill="white"/>
<path d="M108.888 33.3C107.87 33.3 107.045 32.4561 107.045 31.415V4.08161C107.045 3.04052 107.87 2.19655 108.888 2.19655H110.12C111.138 2.19655 111.962 3.04052 111.962 4.08161V26.083C111.962 27.1241 112.787 27.968 113.805 27.968H122.337C123.355 27.968 124.18 28.812 124.18 29.8531V31.415C124.18 32.4561 123.355 33.3 122.337 33.3H108.888Z" fill="white"/>
<path d="M83.5445 33.3489C82.8736 33.3489 82.3297 32.7924 82.3297 32.1059V11.8402C82.3297 10.7991 83.1546 9.95513 84.1721 9.95513H85.7275C86.7317 9.95513 87.551 10.778 87.5696 11.8053L87.6185 14.5055C87.6212 14.6549 87.5411 14.793 87.4116 14.8621C87.1129 15.0215 86.7878 14.7433 86.9251 14.4286C87.2444 13.6967 87.7084 13.0194 88.3171 12.3966C89.1559 11.5088 90.1538 10.7985 91.3108 10.2659C92.4678 9.73317 93.6537 9.46683 94.8685 9.46683C96.604 9.46683 98.0502 9.82195 99.2072 10.5322C100.393 11.2424 101.275 12.3078 101.854 13.7283C102.461 15.1488 102.765 16.9244 102.765 19.0552V31.4638C102.765 32.5049 101.94 33.3489 100.922 33.3489H99.2708C98.2532 33.3489 97.4283 32.5049 97.4283 31.4638V19.4547C97.4283 18.2709 97.2692 17.2943 96.9511 16.5249C96.6329 15.7259 96.1412 15.1488 95.4759 14.7937C94.8107 14.409 94.0008 14.2314 93.0463 14.261C92.2653 14.261 91.5422 14.3942 90.8769 14.6605C90.2406 14.8973 89.6765 15.2524 89.1848 15.7259C88.722 16.1698 88.346 16.6877 88.0568 17.2795C87.7964 17.8714 87.6663 18.5225 87.6663 19.2327V31.4638C87.6663 32.5049 86.8414 33.3489 85.8238 33.3489H85.0197C84.499 33.3489 84.0073 33.3489 83.5445 33.3489Z" fill="white"/>
<path d="M63.4566 33.7928C61.2872 33.7928 59.277 33.3933 57.4258 32.5942C55.5746 31.7952 53.9549 30.6854 52.5665 29.265C51.207 27.8149 50.1513 26.1132 49.3992 24.1601C48.6472 22.2069 48.2712 20.0761 48.2712 17.7678C48.2712 15.4595 48.6472 13.3288 49.3992 11.3756C50.1513 9.42245 51.207 7.73562 52.5665 6.31512C53.9549 4.86504 55.5746 3.74048 57.4258 2.94145C59.277 2.14243 61.2872 1.74292 63.4566 1.74292C65.6549 1.74292 67.6796 2.14243 69.5307 2.94145C71.3819 3.74048 72.9872 4.86504 74.3467 6.31512C75.7061 7.76521 76.7619 9.46684 77.5139 11.42C78.266 13.3436 78.642 15.4595 78.642 17.7678C78.642 20.0465 78.266 22.1625 77.5139 24.1157C76.7619 26.0688 75.7061 27.7705 74.3467 29.2206C72.9872 30.6706 71.3819 31.7952 69.5307 32.5942C67.6796 33.3933 65.6549 33.7928 63.4566 33.7928ZM63.4566 28.2884C64.845 28.2884 66.1032 28.0368 67.2312 27.5337C68.3882 27.001 69.3861 26.2612 70.2249 25.3142C71.0637 24.3376 71.7146 23.2131 72.1773 21.9405C72.6691 20.668 72.9149 19.2771 72.9149 17.7678C72.9149 16.2586 72.6691 14.8677 72.1773 13.5951C71.7146 12.3226 71.0637 11.2129 70.2249 10.2659C69.3861 9.28928 68.3882 8.54944 67.2312 8.04635C66.1032 7.51367 64.845 7.24732 63.4566 7.24732C62.0971 7.24732 60.8389 7.51367 59.6819 8.04635C58.5249 8.54944 57.527 9.27448 56.6882 10.2215C55.8494 11.1685 55.1986 12.2782 54.7358 13.5508C54.273 14.8233 54.0416 16.229 54.0416 17.7678C54.0416 19.2771 54.273 20.6828 54.7358 21.9849C55.1986 23.2575 55.8494 24.3672 56.6882 25.3142C57.527 26.2612 58.5249 27.001 59.6819 27.5337C60.8389 28.0368 62.0971 28.2884 63.4566 28.2884Z" fill="white"/>
</svg>
