<svg width="22" height="21" viewBox="0 0 22 21" fill="none" xmlns="http://www.w3.org/2000/svg">
<path d="M11 20.5C7.40625 20.5 4.125 18.625 2.32812 15.5C0.53125 12.4141 0.53125 8.625 2.32812 5.5C4.125 2.41406 7.40625 0.5 11 0.5C14.5547 0.5 17.8359 2.41406 19.6328 5.5C21.4297 8.625 21.4297 12.4141 19.6328 15.5C17.8359 18.625 14.5547 20.5 11 20.5ZM10.0625 13.9375C10.0625 14.4844 10.4531 14.875 11 14.875C11.5078 14.875 11.9375 14.4844 11.9375 13.9375V11.4375H14.4375C14.9453 11.4375 15.375 11.0469 15.375 10.5C15.375 9.99219 14.9453 9.5625 14.4375 9.5625H11.9375V7.0625C11.9375 6.55469 11.5078 6.125 11 6.125C10.4531 6.125 10.0625 6.55469 10.0625 7.0625V9.5625H7.5625C7.01562 9.5625 6.625 9.99219 6.625 10.5C6.625 11.0469 7.01562 11.4375 7.5625 11.4375H10.0625V13.9375Z" fill="#AA25ED"/>
</svg>
