<svg width="22" height="21" viewBox="0 0 22 21" fill="none" xmlns="http://www.w3.org/2000/svg">
<path d="M11 20.8855C7.40625 20.8855 4.125 19.0105 2.32812 15.8855C0.53125 12.7996 0.53125 9.0105 2.32812 5.8855C4.125 2.79956 7.40625 0.885498 11 0.885498C14.5547 0.885498 17.8359 2.79956 19.6328 5.8855C21.4297 9.0105 21.4297 12.7996 19.6328 15.8855C17.8359 19.0105 14.5547 20.8855 11 20.8855ZM10.0625 14.323C10.0625 14.8699 10.4531 15.2605 11 15.2605C11.5078 15.2605 11.9375 14.8699 11.9375 14.323V11.823H14.4375C14.9453 11.823 15.375 11.4324 15.375 10.8855C15.375 10.3777 14.9453 9.948 14.4375 9.948H11.9375V7.448C11.9375 6.94019 11.5078 6.5105 11 6.5105C10.4531 6.5105 10.0625 6.94019 10.0625 7.448V9.948H7.5625C7.01562 9.948 6.625 10.3777 6.625 10.8855C6.625 11.4324 7.01562 11.823 7.5625 11.823H10.0625V14.323Z" fill="#481DBF"/>
</svg>
