<svg width="23" height="21" viewBox="0 0 23 21" fill="none" xmlns="http://www.w3.org/2000/svg">
<path d="M2.75 18.125H10.4844L10.2891 18.9453C10.2109 19.2969 10.2109 19.6875 10.3281 20H2.75C1.34375 20 0.25 18.9062 0.25 17.5V2.5C0.25 1.13281 1.34375 0 2.75 0H9.19531C9.85938 0 10.4844 0.273438 10.9531 0.742188L14.5078 4.29688C14.9766 4.76562 15.25 5.39062 15.25 6.05469V11.7188L13.375 13.5938V6.25H10.25C9.54688 6.25 9 5.70312 9 5V1.875H2.75C2.39844 1.875 2.125 2.1875 2.125 2.5V17.5C2.125 17.8516 2.39844 18.125 2.75 18.125ZM21.6953 9.21875L22.2812 9.80469C22.8672 10.3906 22.8672 11.3672 22.2812 11.9922L21.1094 13.1641L18.3359 10.3906L19.5078 9.21875C20.0938 8.63281 21.1094 8.63281 21.6953 9.21875ZM12.3984 16.2891L17.4766 11.25L20.25 14.0234L15.1719 19.0625C15.0156 19.2188 14.8203 19.3359 14.625 19.4141L12.2422 20C12.0469 20.0391 11.8125 20 11.6562 19.8438C11.5 19.6875 11.4609 19.4531 11.5 19.2188L12.0859 16.875C12.125 16.6797 12.2422 16.4453 12.3984 16.2891Z" fill="#AA25ED"/>
</svg>
