<svg width="15" height="20" viewBox="0 0 15 20" fill="none" xmlns="http://www.w3.org/2000/svg">
<path d="M2.5 18.125H12.5C12.8125 18.125 13.125 17.8516 13.125 17.5V6.25H10C9.29688 6.25 8.75 5.70312 8.75 5V1.875H2.5C2.14844 1.875 1.875 2.1875 1.875 2.5V17.5C1.875 17.8516 2.14844 18.125 2.5 18.125ZM0 2.5C0 1.13281 1.09375 0 2.5 0H8.94531C9.60938 0 10.2344 0.273438 10.7031 0.742188L14.2578 4.29688C14.7266 4.76562 15 5.39062 15 6.05469V17.5C15 18.9062 13.8672 20 12.5 20H2.5C1.09375 20 0 18.9062 0 17.5V2.5ZM3.125 4.375C3.125 4.0625 3.39844 3.75 3.75 3.75H6.875C7.1875 3.75 7.5 4.0625 7.5 4.375C7.5 4.72656 7.1875 5 6.875 5H3.75C3.39844 5 3.125 4.72656 3.125 4.375ZM3.125 6.875C3.125 6.5625 3.39844 6.25 3.75 6.25H6.875C7.1875 6.25 7.5 6.5625 7.5 6.875C7.5 7.22656 7.1875 7.5 6.875 7.5H3.75C3.39844 7.5 3.125 7.22656 3.125 6.875ZM7.5 15.625C7.5 15.3125 7.77344 15 8.125 15H11.25C11.5625 15 11.875 15.3125 11.875 15.625C11.875 15.9766 11.5625 16.25 11.25 16.25H8.125C7.77344 16.25 7.5 15.9766 7.5 15.625ZM4.375 8.75H10.625C11.2891 8.75 11.875 9.33594 11.875 10V12.5C11.875 13.2031 11.2891 13.75 10.625 13.75H4.375C3.67188 13.75 3.125 13.2031 3.125 12.5V10C3.125 9.33594 3.67188 8.75 4.375 8.75Z" fill="#481DBF"/>
</svg>
