<svg width="12" height="17" viewBox="0 0 12 17" fill="none" xmlns="http://www.w3.org/2000/svg">
<path d="M10 2.45825C11.0938 2.45825 12 3.3645 12 4.45825V14.4583C12 15.5833 11.0938 16.4583 10 16.4583H2C0.875 16.4583 0 15.5833 0 14.4583V4.45825C0 3.3645 0.875 2.45825 2 2.45825H3.25H3.53125C3.78125 1.33325 4.78125 0.458252 6 0.458252C7.1875 0.458252 8.21875 1.33325 8.4375 2.45825H8.75H10ZM2.5 3.95825H2C1.71875 3.95825 1.5 4.20825 1.5 4.45825V14.4583C1.5 14.7395 1.71875 14.9583 2 14.9583H10C10.25 14.9583 10.5 14.7395 10.5 14.4583V4.45825C10.5 4.20825 10.25 3.95825 10 3.95825H9.5V4.70825C9.5 5.14575 9.15625 5.45825 8.75 5.45825H6H3.25C2.8125 5.45825 2.5 5.14575 2.5 4.70825V3.95825ZM5.25 2.95825C5.25 3.39575 5.5625 3.70825 6 3.70825C6.40625 3.70825 6.75 3.39575 6.75 2.95825C6.75 2.552 6.40625 2.20825 6 2.20825C5.5625 2.20825 5.25 2.552 5.25 2.95825ZM5 7.95825C5 7.70825 5.21875 7.45825 5.5 7.45825H6.5C6.75 7.45825 7 7.70825 7 7.95825V9.45825H8.5C8.75 9.45825 9 9.70825 9 9.95825V10.9583C9 11.2395 8.75 11.4583 8.5 11.4583H7V12.9583C7 13.2395 6.75 13.4583 6.5 13.4583H5.5C5.21875 13.4583 5 13.2395 5 12.9583V11.4583H3.5C3.21875 11.4583 3 11.2395 3 10.9583V9.95825C3 9.70825 3.21875 9.45825 3.5 9.45825H5V7.95825Z" fill="#011445"/>
</svg>
