<svg width="15" height="21" viewBox="0 0 15 21" fill="none" xmlns="http://www.w3.org/2000/svg">
<path d="M2.5 0.871582H8.75V5.87158C8.75 6.57471 9.29688 7.12158 10 7.12158H15V18.3716C15 19.7778 13.8672 20.8716 12.5 20.8716H2.5C1.09375 20.8716 0 19.7778 0 18.3716V3.37158C0 2.00439 1.09375 0.871582 2.5 0.871582ZM10 0.871582L15 5.87158H10V0.871582ZM11.9141 11.8481H11.875C12.2656 11.4966 12.2656 10.9106 11.875 10.52C11.5234 10.1685 10.9375 10.1685 10.5859 10.52L6.21094 14.895L4.375 13.0591C4.02344 12.6685 3.4375 12.6685 3.08594 13.0591C2.69531 13.4106 2.69531 13.9966 3.08594 14.3481L5.58594 16.8481C5.9375 17.2388 6.52344 17.2388 6.91406 16.8481L11.9141 11.8481Z" fill="#4D5B7D"/>
</svg>
