<svg width="25" height="21" viewBox="0 0 25 21" fill="none" xmlns="http://www.w3.org/2000/svg">
<path d="M3.75 0.871582H21.25C23.3203 0.871582 25 2.55127 25 4.62158V17.1216C25 19.1919 23.3203 20.8716 21.25 20.8716H3.75C1.67969 20.8716 0 19.1919 0 17.1216V4.62158C0 2.55127 1.67969 0.871582 3.75 0.871582ZM2.5 4.62158V17.1216C2.5 17.8247 3.04688 18.3716 3.75 18.3716H21.25C21.9141 18.3716 22.5 17.8247 22.5 17.1216V4.62158C22.5 3.95752 21.9141 3.37158 21.25 3.37158H3.75C3.04688 3.37158 2.5 3.95752 2.5 4.62158ZM8.71094 7.74658C8.71094 8.44971 8.35938 9.03564 7.77344 9.38721C7.1875 9.73877 6.48438 9.73877 5.89844 9.38721C5.3125 9.03564 4.96094 8.44971 4.96094 7.74658C4.96094 7.08252 5.3125 6.49658 5.89844 6.14502C6.48438 5.79346 7.1875 5.79346 7.77344 6.14502C8.35938 6.49658 8.71094 7.08252 8.71094 7.74658ZM3.75 12.981C3.75 11.8091 4.64844 10.8716 5.82031 10.8716H8.51562C8.86719 10.8716 9.21875 10.9888 9.53125 11.145C8.24219 11.6138 7.26562 12.6685 6.95312 13.9966H4.76562C4.17969 13.9966 3.75 13.5278 3.75 12.981ZM18.0078 13.9966C17.6953 12.6685 16.7188 11.6138 15.4688 11.145C15.7422 10.9888 16.0938 10.8716 16.4453 10.8716H19.1406C20.3125 10.8716 21.25 11.8091 21.25 12.981C21.25 13.5669 20.7812 13.9966 20.1953 13.9966H18.0078ZM14.5312 12.1606C15.5469 12.356 16.3672 13.0591 16.6797 13.9966C16.7969 14.3091 16.875 14.6216 16.875 14.9341C16.875 15.481 16.4453 15.8716 15.9375 15.8716H9.0625C8.51562 15.8716 8.125 15.481 8.125 14.9341C8.125 14.6216 8.16406 14.3091 8.28125 13.9966C8.59375 13.0591 9.45312 12.356 10.4688 12.1606C10.5859 12.1606 10.7422 12.1216 10.9375 12.1216H14.0625C14.2188 12.1216 14.375 12.1606 14.5312 12.1606ZM20 7.74658C20 8.44971 19.6094 9.03564 19.0625 9.38721C18.4766 9.73877 17.7344 9.73877 17.1875 9.38721C16.6016 9.03564 16.25 8.44971 16.25 7.74658C16.25 7.08252 16.6016 6.49658 17.1875 6.14502C17.7344 5.79346 18.4766 5.79346 19.0625 6.14502C19.6094 6.49658 20 7.08252 20 7.74658ZM12.5 10.8716C11.6016 10.8716 10.7812 10.4028 10.3125 9.62158C9.88281 8.87939 9.88281 7.90283 10.3125 7.12158C10.7812 6.37939 11.6016 5.87158 12.5 5.87158C13.3594 5.87158 14.1797 6.37939 14.6484 7.12158C15.0781 7.90283 15.0781 8.87939 14.6484 9.62158C14.1797 10.4028 13.3594 10.8716 12.5 10.8716Z" fill="#AA25ED"/>
</svg>
