<svg width="15" height="21" viewBox="0 0 15 21" fill="none" xmlns="http://www.w3.org/2000/svg">
<path d="M2.7915 0.5H11.5415C12.9087 0.5 14.0415 1.63281 14.0415 3V18C14.0415 19.4062 12.9087 20.5 11.5415 20.5H2.7915C1.38525 20.5 0.291504 19.4062 0.291504 18V3C0.291504 1.63281 1.38525 0.5 2.7915 0.5ZM5.9165 17.375C5.56494 17.375 5.2915 17.6875 5.2915 18C5.2915 18.3516 5.56494 18.625 5.9165 18.625H8.4165C8.729 18.625 9.0415 18.3516 9.0415 18C9.0415 17.6875 8.729 17.375 8.4165 17.375H5.9165Z" fill="white"/>
</svg>
