<svg width="23" height="21" viewBox="0 0 23 21" fill="none" xmlns="http://www.w3.org/2000/svg">
<path d="M11.5234 8.02002L16.7969 2.74658H15C14.4531 2.74658 14.0625 2.35596 14.0625 1.80908C14.0625 1.30127 14.4531 0.871582 15 0.871582H19.0625C19.5703 0.871582 20 1.30127 20 1.80908V5.87158C20 6.41846 19.5703 6.80908 19.0625 6.80908C18.5156 6.80908 18.125 6.41846 18.125 5.87158V4.07471L12.8516 9.34814C12.4609 9.73877 11.875 9.73877 11.5234 9.34814C11.1328 8.99658 11.1328 8.41064 11.5234 8.05908V8.02002ZM4.57031 0.949707C5.3125 0.754395 6.13281 1.10596 6.40625 1.84814L7.96875 5.59814C8.24219 6.22314 8.08594 6.96533 7.53906 7.39502L5.625 8.99658C6.91406 11.731 9.14062 13.9575 11.875 15.2466L13.4766 13.3325C13.9062 12.7856 14.6484 12.6294 15.2734 12.9028L19.0234 14.4653C19.7266 14.7388 20.1172 15.5591 19.9219 16.3013L18.9844 19.7388C18.7891 20.4028 18.2031 20.8716 17.5 20.8716C7.8125 20.8716 0 13.0591 0 3.37158C0 2.66846 0.46875 2.08252 1.13281 1.88721L4.57031 0.949707Z" fill="#4D5B7D"/>
</svg>
