<svg width="13" height="19" viewBox="0 0 13 19" fill="none" xmlns="http://www.w3.org/2000/svg">
<path d="M2.5625 1.9375C2.24609 1.9375 2 2.21875 2 2.5V16C2 16.3164 2.24609 16.5625 2.5625 16.5625H10.4375C10.7188 16.5625 11 16.3164 11 16V2.5C11 2.21875 10.7188 1.9375 10.4375 1.9375H2.5625ZM0.3125 2.5C0.3125 1.26953 1.29688 0.25 2.5625 0.25H10.4375C11.668 0.25 12.6875 1.26953 12.6875 2.5V16C12.6875 17.2656 11.668 18.25 10.4375 18.25H2.5625C1.29688 18.25 0.3125 17.2656 0.3125 16V2.5ZM5.375 14.3125H7.625C7.90625 14.3125 8.1875 14.5938 8.1875 14.875C8.1875 15.1914 7.90625 15.4375 7.625 15.4375H5.375C5.05859 15.4375 4.8125 15.1914 4.8125 14.875C4.8125 14.5938 5.05859 14.3125 5.375 14.3125Z" fill="#011445"/>
</svg>
