<svg width="24" height="18" viewBox="0 0 24 18" fill="none" xmlns="http://www.w3.org/2000/svg">
<path d="M4.625 2.28467C3.21875 2.28467 2.125 3.41748 2.125 4.78467V9.15967H7.125V4.78467C7.125 3.41748 5.99219 2.28467 4.625 2.28467ZM0.25 4.78467C0.25 2.40186 2.20312 0.409668 4.625 0.409668C7.00781 0.409668 9 2.40186 9 4.78467V13.5347C9 15.9565 7.00781 17.9097 4.625 17.9097C2.20312 17.9097 0.25 15.9565 0.25 13.5347V4.78467ZM16.5 16.0347C17.3594 16.0347 18.1797 15.8003 18.8438 15.3706L12.7891 9.31592C12.3594 9.97998 12.125 10.8003 12.125 11.6597C12.125 14.0815 14.0781 16.0347 16.5 16.0347ZM14.1172 7.98779L20.1719 14.0425C20.6016 13.3394 20.875 12.5581 20.875 11.6597C20.875 9.27686 18.8828 7.28467 16.5 7.28467C15.6016 7.28467 14.8203 7.55811 14.1172 7.98779ZM16.5 17.9097C14.2344 17.9097 12.2031 16.7378 11.0703 14.7847C9.9375 12.8706 9.9375 10.4878 11.0703 8.53467C12.2031 6.62061 14.2344 5.40967 16.5 5.40967C18.7266 5.40967 20.7578 6.62061 21.8906 8.53467C23.0234 10.4878 23.0234 12.8706 21.8906 14.7847C20.7578 16.7378 18.7266 17.9097 16.5 17.9097Z" fill="#011445"/>
</svg>
