<svg width="24" height="18" viewBox="0 0 24 18" fill="none" xmlns="http://www.w3.org/2000/svg">
<path d="M4.625 2.125C3.21875 2.125 2.125 3.25781 2.125 4.625V9H7.125V4.625C7.125 3.25781 5.99219 2.125 4.625 2.125ZM0.25 4.625C0.25 2.24219 2.20312 0.25 4.625 0.25C7.00781 0.25 9 2.24219 9 4.625V13.375C9 15.7969 7.00781 17.75 4.625 17.75C2.20312 17.75 0.25 15.7969 0.25 13.375V4.625ZM16.5 15.875C17.3594 15.875 18.1797 15.6406 18.8438 15.2109L12.7891 9.15625C12.3594 9.82031 12.125 10.6406 12.125 11.5C12.125 13.9219 14.0781 15.875 16.5 15.875ZM14.1172 7.82812L20.1719 13.8828C20.6016 13.1797 20.875 12.3984 20.875 11.5C20.875 9.11719 18.8828 7.125 16.5 7.125C15.6016 7.125 14.8203 7.39844 14.1172 7.82812ZM16.5 17.75C14.2344 17.75 12.2031 16.5781 11.0703 14.625C9.9375 12.7109 9.9375 10.3281 11.0703 8.375C12.2031 6.46094 14.2344 5.25 16.5 5.25C18.7266 5.25 20.7578 6.46094 21.8906 8.375C23.0234 10.3281 23.0234 12.7109 21.8906 14.625C20.7578 16.5781 18.7266 17.75 16.5 17.75Z" fill="#481DBF"/>
</svg>
