<svg width="23" height="21" viewBox="0 0 23 21" fill="none" xmlns="http://www.w3.org/2000/svg">
<path d="M4.625 5.125C3.57031 5.125 2.75 5.98438 2.75 7V11.375H6.5V7C6.5 5.98438 5.64062 5.125 4.625 5.125ZM0.25 7C0.25 4.61719 2.20312 2.625 4.625 2.625C7.00781 2.625 9 4.61719 9 7V15.75C9 18.1719 7.00781 20.125 4.625 20.125C2.20312 20.125 0.25 18.1719 0.25 15.75V7ZM21.8906 17C21.6172 17.4688 20.9922 17.5078 20.6016 17.1172L13.2578 9.77344C12.8672 9.38281 12.9062 8.75781 13.375 8.48438C14.3125 7.9375 15.3672 7.625 16.5 7.625C19.9375 7.625 22.75 10.4375 22.75 13.875C22.75 15.0078 22.4375 16.0625 21.8906 17ZM19.5859 19.3047C18.6875 19.8516 17.5938 20.125 16.5 20.125C13.0234 20.125 10.25 17.3516 10.25 13.875C10.25 12.7812 10.5234 11.6875 11.0703 10.7891C11.3438 10.3203 11.9688 10.2812 12.3594 10.6719L19.7031 18.0156C20.0938 18.4062 20.0547 19.0312 19.5859 19.3047Z" fill="#1A2C58"/>
</svg>
