<svg width="23" height="18" viewBox="0 0 23 18" fill="none" xmlns="http://www.w3.org/2000/svg">
<path d="M4.875 2.70232C3.82031 2.70232 3 3.56169 3 4.57732V8.95232H6.75V4.57732C6.75 3.56169 5.89062 2.70232 4.875 2.70232ZM0.5 4.57732C0.5 2.1945 2.45312 0.202316 4.875 0.202316C7.25781 0.202316 9.25 2.1945 9.25 4.57732V13.3273C9.25 15.7492 7.25781 17.7023 4.875 17.7023C2.45312 17.7023 0.5 15.7492 0.5 13.3273V4.57732ZM22.1406 14.5773C21.8672 15.0461 21.2422 15.0851 20.8516 14.6945L13.5078 7.35075C13.1172 6.96013 13.1562 6.33513 13.625 6.06169C14.5625 5.51482 15.6172 5.20232 16.75 5.20232C20.1875 5.20232 23 8.01482 23 11.4523C23 12.5851 22.6875 13.6398 22.1406 14.5773ZM19.8359 16.882C18.9375 17.4289 17.8438 17.7023 16.75 17.7023C13.2734 17.7023 10.5 14.9289 10.5 11.4523C10.5 10.3586 10.7734 9.26482 11.3203 8.36638C11.5938 7.89763 12.2188 7.85857 12.6094 8.24919L19.9531 15.5929C20.3438 15.9836 20.3047 16.6086 19.8359 16.882Z" fill="#AA25ED"/>
</svg>
