<svg width="23" height="24" viewBox="0 0 23 24" fill="none" xmlns="http://www.w3.org/2000/svg">
<path d="M3.84375 4.40625C3.75 4.5 3.65625 4.5 3.5625 4.5H2.15625C1.73438 4.5 1.40625 4.17188 1.5 3.79688C1.92188 2.10938 3.75 0 7.40625 0C10.125 0 11.8594 1.21875 12.7031 2.53125C13.6406 1.92188 14.9062 1.5 16.5 1.5C20.1094 1.5 21.9375 3.60938 22.3594 5.29688C22.5 5.67188 22.125 6 21.75 6H19.6406C19.5469 6 19.4531 6 19.3594 5.90625L18.2344 4.78125C18.0938 4.64062 17.8594 4.64062 17.7188 4.78125L16.5938 5.90625C16.5 6 16.4062 6 16.3125 6H13.4531C13.5938 6.75 13.7812 7.6875 13.875 8.8125C14.1094 10.9688 14.0625 13.7344 13.2656 16.6406C15.9375 17.25 18 19.6406 18 22.5C18 23.3438 17.2969 24 16.5 24H1.5C0.65625 24 0 23.3438 0 22.5C0 19.2188 2.67188 16.5 6 16.5H7.125C8.34375 13.875 8.90625 11.3438 9.1875 9.42188C9.23438 8.95312 9.28125 8.53125 9.32812 8.15625L5.95312 11.5312C5.67188 11.8125 5.15625 11.8125 4.96875 11.4844C4.07812 9.98438 3.89062 7.21875 6.46875 4.64062C6.51562 4.54688 6.60938 4.5 6.65625 4.45312L6.60938 4.40625L5.48438 3.28125C5.34375 3.14062 5.10938 3.14062 4.96875 3.28125L3.84375 4.40625ZM9.60938 16.5H10.9219C11.8125 13.7344 11.8594 11.1094 11.6719 9.04688C11.625 8.76562 11.5781 8.48438 11.5781 8.20312C11.5312 8.67188 11.4844 9.1875 11.3906 9.75C11.1562 11.5781 10.6406 13.9688 9.60938 16.5469V16.5ZM12 18.75H6C4.17188 18.75 2.67188 20.0625 2.29688 21.75H15.6562C15.3281 20.0625 13.7812 18.75 12 18.75Z" fill="#32C28F"/>
</svg>
