<svg width="12" height="17" viewBox="0 0 12 17" fill="none" xmlns="http://www.w3.org/2000/svg">
<path d="M6.71875 16.125C6.34375 16.5938 5.625 16.5938 5.25 16.125C3.65625 14.0938 0 9.25 0 6.5C0 3.1875 2.6875 0.5 6 0.5C9.3125 0.5 12 3.1875 12 6.5C12 9.25 8.34375 14.0938 6.71875 16.125ZM6 4.5C5.28125 4.5 4.625 4.90625 4.25 5.5C3.90625 6.125 3.90625 6.90625 4.25 7.5C4.625 8.125 5.28125 8.5 6 8.5C6.6875 8.5 7.34375 8.125 7.71875 7.5C8.0625 6.90625 8.0625 6.125 7.71875 5.5C7.34375 4.90625 6.6875 4.5 6 4.5Z" fill="#734BE4"/>
</svg>
