<svg width="19" height="25" viewBox="0 0 19 25" fill="none" xmlns="http://www.w3.org/2000/svg">
<path d="M10.5781 23.4375C10.0156 24.1406 8.9375 24.1406 8.375 23.4375C5.98438 20.3906 0.5 13.125 0.5 9C0.5 4.03125 4.53125 0 9.5 0C14.4688 0 18.5 4.03125 18.5 9C18.5 13.125 13.0156 20.3906 10.5781 23.4375ZM9.5 6C8.42188 6 7.4375 6.60938 6.875 7.5C6.35938 8.4375 6.35938 9.60938 6.875 10.5C7.4375 11.4375 8.42188 12 9.5 12C10.5312 12 11.5156 11.4375 12.0781 10.5C12.5938 9.60938 12.5938 8.4375 12.0781 7.5C11.5156 6.60938 10.5312 6 9.5 6Z" fill="#A287ED"/>
</svg>
