<svg width="186" height="24" viewBox="0 0 186 24" fill="none" xmlns="http://www.w3.org/2000/svg">
<path d="M77.3109 17.8611C76.1043 17.8611 75.0247 17.5753 74.0721 17.0038C73.1195 16.4322 72.3654 15.6543 71.8097 14.6699C71.2699 13.6697 71 12.5584 71 11.3359C71 10.0816 71.2699 8.96235 71.8097 7.97801C72.3654 6.9778 73.1195 6.19192 74.0721 5.62037C75.0247 5.04882 76.1043 4.76304 77.3109 4.76304C78.4381 4.76304 79.4621 4.97737 80.383 5.40604C81.3197 5.81882 82.05 6.39037 82.5739 7.12069L80.7402 9.35926C80.5179 9.05761 80.2401 8.77977 79.9067 8.52575C79.5733 8.27173 79.2081 8.07327 78.8112 7.93039C78.4302 7.7875 78.0332 7.71605 77.6205 7.71605C76.9695 7.71605 76.39 7.87482 75.882 8.19235C75.3739 8.494 74.977 8.92266 74.6913 9.47833C74.4055 10.0181 74.2626 10.6294 74.2626 11.3121C74.2626 11.9789 74.4134 12.5822 74.7151 13.122C75.0167 13.6618 75.4216 14.0904 75.9296 14.408C76.4377 14.7255 77.0013 14.8843 77.6205 14.8843C78.0332 14.8843 78.4222 14.8287 78.7874 14.7175C79.1684 14.5905 79.5177 14.408 79.8352 14.1698C80.1527 13.9317 80.4544 13.6538 80.7402 13.3363L82.5739 15.5749C82.05 16.2576 81.3038 16.8132 80.3353 17.2419C79.3827 17.6547 78.3746 17.8611 77.3109 17.8611Z" fill="#4D5B7D"/>
<path d="M91.7185 17.6229L91.7185 9.74029C91.7185 9.07349 91.5121 8.56544 91.0993 8.21616C90.7024 7.851 90.1626 7.66842 89.4799 7.66842C88.829 7.66842 88.2495 7.79544 87.7415 8.04946C87.2334 8.30348 86.7571 8.70039 86.3126 9.24019L84.2407 7.23976C85.0028 6.44594 85.8522 5.8347 86.7889 5.40604C87.7415 4.97737 88.7734 4.76304 89.8848 4.76304C90.9009 4.76304 91.782 4.92181 92.5282 5.23933C93.2903 5.55686 93.8777 6.03315 94.2905 6.66821C94.7033 7.30327 94.9097 8.10502 94.9097 9.07348L94.9097 17.6229L91.7185 17.6229ZM88.2654 17.8611C87.4716 17.8611 86.7492 17.7023 86.0983 17.3848C85.4632 17.0673 84.9552 16.6307 84.5741 16.075C84.209 15.5034 84.0264 14.8366 84.0264 14.0746C84.0264 13.4236 84.1455 12.8521 84.3836 12.3599C84.6218 11.8519 84.971 11.4391 85.4315 11.1215C85.9078 10.7881 86.4952 10.5341 87.1937 10.3595C87.9082 10.1848 88.7338 10.0975 89.6705 10.0975L93.3855 10.0975L93.1712 12.3599L89.6228 12.3599C89.2418 12.3599 88.9005 12.3917 88.5988 12.4552C88.313 12.5187 88.0669 12.6219 87.8606 12.7647C87.67 12.9076 87.5192 13.0743 87.4081 13.2649C87.3128 13.4554 87.2652 13.6776 87.2652 13.9317C87.2652 14.2016 87.3366 14.4397 87.4795 14.6461C87.6224 14.8525 87.8129 15.0113 88.0511 15.1224C88.3051 15.2335 88.5909 15.2891 88.9084 15.2891C89.3688 15.2891 89.8054 15.2097 90.2182 15.051C90.6469 14.8922 91.0279 14.6699 91.3613 14.3841C91.6947 14.0984 91.9567 13.7729 92.1472 13.4077L92.7902 15.0986C92.4568 15.6384 92.0519 16.1147 91.5756 16.5275C91.0993 16.9402 90.5834 17.2657 90.0277 17.5039C89.472 17.742 88.8846 17.8611 88.2654 17.8611Z" fill="#4D5B7D"/>
<path d="M97.8295 4.96319L100.767 4.96319L100.994 6.58363C101.349 6.14476 101.746 5.79029 102.184 5.52022C102.64 5.23326 103.138 5.03915 103.678 4.93787C104.218 4.81971 104.784 4.82815 105.375 4.96319L105.375 8.00153C104.919 7.84961 104.438 7.80741 103.931 7.87493C103.442 7.94245 102.978 8.11968 102.539 8.40664C102.117 8.69359 101.762 9.10714 101.475 9.64729C101.205 10.1706 101.07 10.8373 101.07 11.6475L101.07 17.6229L97.8295 17.6229L97.8295 4.96319Z" fill="#4D5B7D"/>
<path d="M109.355 23.1003L112.118 16.6465L112.165 18.6231L105.997 5.025L109.831 5.025L112.927 12.3361C113.038 12.5901 113.157 12.8997 113.284 13.2649C113.411 13.63 113.507 13.9793 113.57 14.3127L112.999 14.5508C113.11 14.2809 113.221 13.9714 113.332 13.6221C113.459 13.2728 113.586 12.8997 113.713 12.5028L116.357 5.025L120.238 5.025L114.951 17.6229L112.784 23.1003L109.355 23.1003Z" fill="#4D5B7D"/>
<path d="M122.034 17.6229L122.034 0.000119231L123.248 0.000119163L123.248 7.88275L122.963 8.02564C123.153 7.46997 123.479 6.96192 123.939 6.50151C124.415 6.04109 124.979 5.66799 125.63 5.38222C126.297 5.09644 126.987 4.95356 127.702 4.95356C128.638 4.95356 129.432 5.1282 130.083 5.47748C130.734 5.82676 131.226 6.36656 131.56 7.09687C131.909 7.82719 132.084 8.75596 132.084 9.88318L132.084 17.6229L130.869 17.6229L130.869 9.93081C130.869 9.02585 130.734 8.2876 130.464 7.71605C130.21 7.1445 129.821 6.73171 129.297 6.47769C128.789 6.20779 128.162 6.08078 127.416 6.09666C126.813 6.09666 126.257 6.19985 125.749 6.40625C125.241 6.59676 124.796 6.85079 124.415 7.16832C124.05 7.48584 123.764 7.81925 123.558 8.16853C123.352 8.51781 123.248 8.84328 123.248 9.14493L123.248 17.6229L122.653 17.6229C122.574 17.6229 122.478 17.6229 122.367 17.6229C122.256 17.6229 122.145 17.6229 122.034 17.6229Z" fill="#4D5B7D"/>
<path d="M140.909 17.8611C139.686 17.8611 138.599 17.5832 137.646 17.0276C136.709 16.4719 135.971 15.7098 135.431 14.7414C134.907 13.7729 134.645 12.6616 134.645 11.4073C134.645 10.4547 134.788 9.58947 135.074 8.81152C135.376 8.0177 135.788 7.33502 136.312 6.76347C136.852 6.17604 137.495 5.7315 138.241 5.42985C138.988 5.11232 139.805 4.95356 140.694 4.95356C141.488 4.95356 142.218 5.09644 142.885 5.38222C143.568 5.65212 144.155 6.04109 144.648 6.54913C145.156 7.05718 145.537 7.66842 145.791 8.38286C146.061 9.0973 146.18 9.89112 146.148 10.7643L146.124 11.5502L135.479 11.5502L135.288 10.5024L145.195 10.5024L144.909 10.9072L144.909 10.3118C144.909 9.48627 144.711 8.75595 144.314 8.1209C143.933 7.48584 143.425 6.99367 142.79 6.64439C142.171 6.27924 141.472 6.09666 140.694 6.09666C139.71 6.09666 138.853 6.31893 138.122 6.76347C137.392 7.19213 136.828 7.80337 136.431 8.59719C136.05 9.37513 135.86 10.296 135.86 11.3597C135.86 12.4234 136.074 13.3601 136.503 14.1698C136.947 14.9636 137.551 15.5907 138.313 16.0512C139.091 16.4957 139.996 16.718 141.028 16.718C141.774 16.718 142.465 16.591 143.1 16.3369C143.751 16.0829 144.362 15.686 144.933 15.1462L145.552 16.0273C145.171 16.3925 144.735 16.718 144.243 17.0037C143.751 17.2736 143.219 17.48 142.647 17.6229C142.091 17.7817 141.512 17.8611 140.909 17.8611Z" fill="#4D5B7D"/>
<path d="M157.069 17.6229L157.069 9.0973C157.069 8.17647 156.743 7.44615 156.092 6.90635C155.457 6.36655 154.584 6.09666 153.473 6.09666C152.647 6.09666 151.885 6.2713 151.186 6.62058C150.488 6.96986 149.877 7.4779 149.353 8.14471L148.543 7.33502C149.194 6.5412 149.94 5.94583 150.781 5.54892C151.639 5.15201 152.568 4.95356 153.568 4.95356C154.52 4.95356 155.338 5.11232 156.021 5.42985C156.719 5.7315 157.251 6.18398 157.616 6.78728C157.981 7.39058 158.164 8.11296 158.164 8.95441L158.164 17.6229L157.069 17.6229ZM152.282 17.8611C151.472 17.8611 150.75 17.7023 150.115 17.3848C149.48 17.0673 148.972 16.6307 148.591 16.075C148.225 15.5034 148.043 14.8366 148.043 14.0746C148.043 13.503 148.146 12.995 148.352 12.5504C148.575 12.1059 148.9 11.7328 149.329 11.4311C149.757 11.1295 150.297 10.8993 150.948 10.7405C151.599 10.5817 152.353 10.5024 153.211 10.5024L157.592 10.5024L157.497 11.5502L152.996 11.5502C152.377 11.5502 151.829 11.6058 151.353 11.7169C150.893 11.828 150.496 11.9947 150.162 12.217C149.845 12.4234 149.599 12.6854 149.424 13.0029C149.265 13.3045 149.186 13.6618 149.186 14.0746C149.186 14.6143 149.321 15.0906 149.591 15.5034C149.877 15.9003 150.258 16.2099 150.734 16.4322C151.21 16.6545 151.734 16.7656 152.306 16.7656C153.036 16.7656 153.711 16.6386 154.33 16.3846C154.965 16.1305 155.529 15.7813 156.021 15.3367C156.529 14.8763 156.934 14.3444 157.235 13.7411L157.64 14.4794C157.275 15.1303 156.822 15.7098 156.283 16.2179C155.743 16.7259 155.132 17.1308 154.449 17.4324C153.766 17.7182 153.044 17.8611 152.282 17.8611Z" fill="#4D5B7D"/>
<path d="M161.835 17.6229L161.835 0.000117017L163.025 0.00011695L163.025 17.6229L161.835 17.6229Z" fill="#4D5B7D"/>
<path d="M168.64 17.6229L168.64 1.9291L169.855 1.9291L169.855 17.6229L168.64 17.6229ZM165.52 6.28717L165.52 5.12026L173.189 5.12026L173.189 6.28717L165.52 6.28717Z" fill="#4D5B7D"/>
<path d="M175.268 17.6229L175.268 0.000116269L176.482 0.000116202L176.482 7.88275L176.197 8.02564C176.387 7.46996 176.713 6.96192 177.173 6.5015C177.649 6.04109 178.213 5.66799 178.864 5.38222C179.531 5.09644 180.221 4.95355 180.936 4.95355C181.872 4.95355 182.666 5.12819 183.317 5.47747C183.968 5.82676 184.46 6.36655 184.794 7.09687C185.143 7.82718 185.318 8.75595 185.318 9.88318L185.318 17.6229L184.103 17.6229L184.103 9.93081C184.103 9.02585 183.968 8.2876 183.698 7.71605C183.444 7.1445 183.055 6.73171 182.531 6.47769C182.023 6.20779 181.396 6.08078 180.65 6.09665C180.047 6.09666 179.491 6.19985 178.983 6.40624C178.475 6.59676 178.03 6.85078 177.649 7.16831C177.284 7.48584 176.998 7.81924 176.792 8.16853C176.586 8.51781 176.482 8.84327 176.482 9.14492L176.482 17.6229L175.887 17.6229C175.808 17.6229 175.712 17.6229 175.601 17.6229C175.49 17.6229 175.379 17.6229 175.268 17.6229Z" fill="#4D5B7D"/>
<path d="M0.840001 16.5502L0.84 7.91017L4.254 7.91017C4.338 7.91017 4.438 7.91417 4.554 7.92217C4.67 7.92617 4.782 7.93817 4.89 7.95817C5.358 8.03017 5.75 8.19017 6.066 8.43817C6.386 8.68617 6.626 9.00017 6.786 9.38017C6.946 9.75617 7.026 10.1742 7.026 10.6342C7.026 11.0902 6.944 11.5082 6.78 11.8882C6.62 12.2642 6.38 12.5782 6.06 12.8302C5.744 13.0782 5.354 13.2382 4.89 13.3102C4.782 13.3262 4.67 13.3382 4.554 13.3462C4.438 13.3542 4.338 13.3582 4.254 13.3582L1.908 13.3582L1.908 16.5502L0.840001 16.5502ZM1.908 12.3442L4.218 12.3442C4.294 12.3442 4.38 12.3402 4.476 12.3322C4.576 12.3242 4.67 12.3102 4.758 12.2902C5.034 12.2262 5.258 12.1102 5.43 11.9422C5.606 11.7702 5.734 11.5702 5.814 11.3422C5.894 11.1102 5.934 10.8742 5.934 10.6342C5.934 10.3942 5.894 10.1602 5.814 9.93217C5.734 9.70017 5.606 9.49817 5.43 9.32617C5.258 9.15417 5.034 9.03817 4.758 8.97817C4.67 8.95417 4.576 8.94017 4.476 8.93617C4.38 8.92817 4.294 8.92417 4.218 8.92417L1.908 8.92417L1.908 12.3442ZM10.9242 16.7302C10.2802 16.7302 9.72422 16.5842 9.25622 16.2922C8.79222 16.0002 8.43422 15.5962 8.18222 15.0802C7.93022 14.5642 7.80422 13.9722 7.80422 13.3042C7.80422 12.6242 7.93222 12.0282 8.18822 11.5162C8.44422 11.0042 8.80622 10.6062 9.27422 10.3222C9.74222 10.0342 10.2922 9.89017 10.9242 9.89017C11.5722 9.89017 12.1302 10.0362 12.5982 10.3282C13.0662 10.6162 13.4242 11.0182 13.6722 11.5342C13.9242 12.0462 14.0502 12.6362 14.0502 13.3042C14.0502 13.9802 13.9242 14.5762 13.6722 15.0922C13.4202 15.6042 13.0602 16.0062 12.5922 16.2982C12.1242 16.5862 11.5682 16.7302 10.9242 16.7302ZM10.9242 15.7162C11.5962 15.7162 12.0962 15.4922 12.4242 15.0442C12.7522 14.5962 12.9162 14.0162 12.9162 13.3042C12.9162 12.5722 12.7502 11.9902 12.4182 11.5582C12.0862 11.1222 11.5882 10.9042 10.9242 10.9042C10.4722 10.9042 10.1002 11.0062 9.80822 11.2102C9.51622 11.4142 9.29822 11.6962 9.15422 12.0562C9.01022 12.4162 8.93822 12.8322 8.93822 13.3042C8.93822 14.0322 9.10622 14.6162 9.44222 15.0562C9.77822 15.4962 10.2722 15.7162 10.9242 15.7162ZM16.5169 16.5502L14.5369 10.0642L15.5989 10.0702L17.0449 14.8102L18.5029 10.0702L19.4449 10.0702L20.8969 14.8102L22.3489 10.0702L23.4049 10.0702L21.4249 16.5502L20.5369 16.5502L18.9709 11.6242L17.4049 16.5502L16.5169 16.5502ZM27.0621 16.7302C26.4261 16.7302 25.8701 16.5902 25.3941 16.3102C24.9221 16.0262 24.5541 15.6322 24.2901 15.1282C24.0261 14.6202 23.8941 14.0282 23.8941 13.3522C23.8941 12.6442 24.0241 12.0322 24.2841 11.5162C24.5441 10.9962 24.9061 10.5962 25.3701 10.3162C25.8381 10.0322 26.3861 9.89017 27.0141 9.89017C27.6661 9.89017 28.2201 10.0402 28.6761 10.3402C29.1361 10.6402 29.4801 11.0682 29.7081 11.6242C29.9401 12.1802 30.0401 12.8422 30.0081 13.6102L28.9281 13.6102L28.9281 13.2262C28.9161 12.4302 28.7541 11.8362 28.4421 11.4442C28.1301 11.0482 27.6661 10.8502 27.0501 10.8502C26.3901 10.8502 25.8881 11.0622 25.5441 11.4862C25.2001 11.9102 25.0281 12.5182 25.0281 13.3102C25.0281 14.0742 25.2001 14.6662 25.5441 15.0862C25.8881 15.5062 26.3781 15.7162 27.0141 15.7162C27.4421 15.7162 27.8141 15.6182 28.1301 15.4222C28.4461 15.2262 28.6941 14.9442 28.8741 14.5762L29.9001 14.9302C29.6481 15.5022 29.2681 15.9462 28.7601 16.2622C28.2561 16.5742 27.6901 16.7302 27.0621 16.7302ZM24.6681 13.6102L24.6681 12.7522L29.4561 12.7522L29.4561 13.6102L24.6681 13.6102ZM31.3439 16.5502L31.3439 10.0702L32.2979 10.0702L32.2979 11.6362L32.1419 11.4322C32.2179 11.2322 32.3159 11.0482 32.4359 10.8802C32.5599 10.7122 32.6979 10.5742 32.8499 10.4662C33.0179 10.3302 33.2079 10.2262 33.4199 10.1542C33.6319 10.0822 33.8479 10.0402 34.0679 10.0282C34.2879 10.0122 34.4939 10.0262 34.6859 10.0702L34.6859 11.0722C34.4619 11.0122 34.2159 10.9962 33.9479 11.0242C33.6799 11.0522 33.4319 11.1502 33.2039 11.3182C32.9959 11.4662 32.8339 11.6462 32.7179 11.8582C32.6059 12.0702 32.5279 12.3002 32.4839 12.5482C32.4399 12.7922 32.4179 13.0422 32.4179 13.2982L32.4179 16.5502L31.3439 16.5502ZM38.5113 16.7302C37.8753 16.7302 37.3193 16.5902 36.8433 16.3102C36.3713 16.0262 36.0033 15.6322 35.7393 15.1282C35.4753 14.6202 35.3433 14.0282 35.3433 13.3522C35.3433 12.6442 35.4733 12.0322 35.7333 11.5162C35.9933 10.9962 36.3553 10.5962 36.8193 10.3162C37.2873 10.0322 37.8353 9.89017 38.4633 9.89017C39.1153 9.89017 39.6693 10.0402 40.1253 10.3402C40.5853 10.6402 40.9293 11.0682 41.1573 11.6242C41.3893 12.1802 41.4893 12.8422 41.4573 13.6102L40.3773 13.6102L40.3773 13.2262C40.3653 12.4302 40.2033 11.8362 39.8913 11.4442C39.5793 11.0482 39.1153 10.8502 38.4993 10.8502C37.8393 10.8502 37.3373 11.0622 36.9933 11.4862C36.6493 11.9102 36.4773 12.5182 36.4773 13.3102C36.4773 14.0742 36.6493 14.6662 36.9933 15.0862C37.3373 15.5062 37.8273 15.7162 38.4633 15.7162C38.8913 15.7162 39.2633 15.6182 39.5793 15.4222C39.8953 15.2262 40.1433 14.9442 40.3233 14.5762L41.3493 14.9302C41.0973 15.5022 40.7173 15.9462 40.2093 16.2622C39.7053 16.5742 39.1393 16.7302 38.5113 16.7302ZM36.1173 13.6102L36.1173 12.7522L40.9053 12.7522L40.9053 13.6102L36.1173 13.6102ZM45.3371 16.7302C44.7331 16.7302 44.2151 16.5802 43.7831 16.2802C43.3511 15.9762 43.0171 15.5662 42.7811 15.0502C42.5491 14.5342 42.4331 13.9522 42.4331 13.3042C42.4331 12.6562 42.5491 12.0742 42.7811 11.5582C43.0171 11.0422 43.3511 10.6362 43.7831 10.3402C44.2151 10.0402 44.7311 9.89017 45.3311 9.89017C45.9431 9.89017 46.4571 10.0382 46.8731 10.3342C47.2891 10.6302 47.6031 11.0362 47.8151 11.5522C48.0311 12.0682 48.1391 12.6522 48.1391 13.3042C48.1391 13.9482 48.0311 14.5302 47.8151 15.0502C47.6031 15.5662 47.2891 15.9762 46.8731 16.2802C46.4571 16.5802 45.9451 16.7302 45.3371 16.7302ZM45.4691 15.7522C45.9051 15.7522 46.2631 15.6482 46.5431 15.4402C46.8231 15.2282 47.0291 14.9382 47.1611 14.5702C47.2971 14.1982 47.3651 13.7762 47.3651 13.3042C47.3651 12.8242 47.2971 12.4022 47.1611 12.0382C47.0291 11.6702 46.8251 11.3842 46.5491 11.1802C46.2731 10.9722 45.9231 10.8682 45.4991 10.8682C45.0591 10.8682 44.6951 10.9762 44.4071 11.1922C44.1231 11.4082 43.9111 11.7002 43.7711 12.0682C43.6351 12.4362 43.5671 12.8482 43.5671 13.3042C43.5671 13.7642 43.6371 14.1802 43.7771 14.5522C43.9171 14.9202 44.1271 15.2122 44.4071 15.4282C44.6911 15.6442 45.0451 15.7522 45.4691 15.7522ZM47.3651 16.5502L47.3651 11.7802L47.2451 11.7802L47.2451 7.91017L48.3191 7.91017L48.3191 16.5502L47.3651 16.5502ZM55.3785 16.7302C54.7705 16.7302 54.2585 16.5802 53.8425 16.2802C53.4265 15.9762 53.1105 15.5662 52.8945 15.0502C52.6825 14.5302 52.5765 13.9482 52.5765 13.3042C52.5765 12.6522 52.6825 12.0682 52.8945 11.5522C53.1105 11.0362 53.4265 10.6302 53.8425 10.3342C54.2625 10.0382 54.7765 9.89017 55.3845 9.89017C55.9845 9.89017 56.5005 10.0402 56.9325 10.3402C57.3685 10.6362 57.7025 11.0422 57.9345 11.5582C58.1665 12.0742 58.2825 12.6562 58.2825 13.3042C58.2825 13.9522 58.1665 14.5342 57.9345 15.0502C57.7025 15.5662 57.3685 15.9762 56.9325 16.2802C56.5005 16.5802 55.9825 16.7302 55.3785 16.7302ZM52.3965 16.5502L52.3965 7.91017L53.4705 7.91017L53.4705 11.7802L53.3505 11.7802L53.3505 16.5502L52.3965 16.5502ZM55.2465 15.7522C55.6745 15.7522 56.0285 15.6442 56.3085 15.4282C56.5885 15.2122 56.7985 14.9202 56.9385 14.5522C57.0785 14.1802 57.1485 13.7642 57.1485 13.3042C57.1485 12.8482 57.0785 12.4362 56.9385 12.0682C56.8025 11.7002 56.5905 11.4082 56.3025 11.1922C56.0185 10.9762 55.6565 10.8682 55.2165 10.8682C54.7965 10.8682 54.4485 10.9722 54.1725 11.1802C53.8965 11.3842 53.6905 11.6702 53.5545 12.0382C53.4185 12.4022 53.3505 12.8242 53.3505 13.3042C53.3505 13.7762 53.4165 14.1982 53.5485 14.5702C53.6845 14.9382 53.8925 15.2282 54.1725 15.4402C54.4525 15.6482 54.8105 15.7522 55.2465 15.7522ZM60.1463 19.4302L61.4003 16.0222L61.4183 17.0302L58.5863 10.0702L59.7083 10.0702L61.9283 15.6682L61.5443 15.6682L63.6263 10.0702L64.7123 10.0702L61.1843 19.4302L60.1463 19.4302Z" fill="#4D5B7D"/>
</svg>
