<svg width="106" height="12" viewBox="0 0 106 12" fill="none" xmlns="http://www.w3.org/2000/svg">
<path d="M53.6561 8.89936V6.49447L51.7089 3.118H52.54L54.0174 5.67545L55.4909 3.118H56.322L54.3788 6.49447V8.89936H53.6561Z" fill="white"/>
<path d="M46.7396 8.89936V3.118H48.9919C49.3372 3.118 49.6316 3.18893 49.8752 3.33079C50.1215 3.47265 50.3088 3.66 50.4373 3.89287C50.5684 4.12305 50.634 4.37197 50.634 4.63962C50.634 4.95278 50.5537 5.22713 50.3931 5.46266C50.2325 5.6982 50.0157 5.86013 49.7427 5.94846L49.7347 5.75173C50.1067 5.85076 50.3958 6.03277 50.6019 6.29775C50.808 6.56273 50.911 6.87856 50.911 7.24525C50.911 7.58249 50.8414 7.87424 50.7023 8.12048C50.5658 8.36672 50.3677 8.5581 50.1081 8.6946C49.8511 8.83111 49.546 8.89936 49.1927 8.89936H46.7396ZM47.4623 8.21684H49.0562C49.2703 8.21684 49.4617 8.17803 49.6303 8.10041C49.7989 8.02011 49.9314 7.90769 50.0278 7.76316C50.1268 7.61863 50.1763 7.44465 50.1763 7.24123C50.1763 7.04584 50.1322 6.87053 50.0438 6.71529C49.9582 6.56005 49.8364 6.43693 49.6785 6.34593C49.5232 6.25225 49.3426 6.20541 49.1365 6.20541H47.4623V8.21684ZM47.4623 5.53092H48.9839C49.1552 5.53092 49.3091 5.49478 49.4456 5.42252C49.5848 5.34757 49.6945 5.24319 49.7748 5.10936C49.8578 4.97553 49.8993 4.81895 49.8993 4.63962C49.8993 4.3907 49.815 4.18729 49.6464 4.02937C49.4777 3.87145 49.2569 3.79249 48.9839 3.79249H47.4623V5.53092Z" fill="white"/>
<path d="M38.0607 8.89936V3.118H39.8433C39.9022 3.118 40.0052 3.11934 40.1524 3.12202C40.2996 3.12469 40.4402 3.1354 40.574 3.15414C41.021 3.21302 41.3943 3.37629 41.6941 3.64395C41.9966 3.90892 42.2241 4.24617 42.3766 4.65568C42.5292 5.0652 42.6055 5.51619 42.6055 6.00868C42.6055 6.50117 42.5292 6.95216 42.3766 7.36168C42.2241 7.77119 41.9966 8.10977 41.6941 8.37743C41.3943 8.64241 41.021 8.80434 40.574 8.86322C40.4402 8.87928 40.2983 8.88999 40.1484 8.89534C40.0012 8.89802 39.8995 8.89936 39.8433 8.89936H38.0607ZM38.7954 8.21684H39.8433C39.945 8.21684 40.0587 8.21416 40.1845 8.20881C40.3103 8.20078 40.4201 8.18873 40.5138 8.17267C40.8296 8.11379 41.0852 7.9813 41.2806 7.77521C41.476 7.56911 41.6192 7.31216 41.7102 7.00436C41.8012 6.69655 41.8467 6.36466 41.8467 6.00868C41.8467 5.64467 41.7998 5.30876 41.7062 5.00096C41.6152 4.69315 41.472 4.43754 41.2766 4.23413C41.0812 4.03071 40.8269 3.9009 40.5138 3.84469C40.4201 3.82595 40.309 3.81391 40.1805 3.80855C40.0521 3.8032 39.9396 3.80052 39.8433 3.80052H38.7954V8.21684Z" fill="white"/>
<path d="M32.6391 8.89936V3.118H36.2926V3.79651H33.3537V5.6072H35.8108V6.2857H33.3537V8.22085H36.2926V8.89936H32.6391Z" fill="white"/>
<path d="M26.6921 8.89936V3.118H28.9766C29.0328 3.118 29.0997 3.12068 29.1773 3.12603C29.2549 3.12871 29.3299 3.13674 29.4022 3.15012C29.7153 3.1983 29.9776 3.30536 30.1891 3.47131C30.4032 3.63725 30.5638 3.84736 30.6708 4.10164C30.7779 4.35323 30.8314 4.63293 30.8314 4.94074C30.8314 5.38772 30.715 5.77582 30.4821 6.10504C30.2493 6.43158 29.908 6.63633 29.4584 6.7193L29.1854 6.76347H27.4068V8.89936H26.6921ZM30.1329 8.89936L28.9926 6.54667L29.6992 6.32987L30.9519 8.89936H30.1329ZM27.4068 6.08496H28.9525C29.0033 6.08496 29.0609 6.08229 29.1251 6.07693C29.192 6.07158 29.2549 6.06221 29.3138 6.04883C29.4985 6.006 29.6484 5.92838 29.7635 5.81597C29.8813 5.70088 29.9669 5.56705 30.0204 5.41449C30.074 5.25925 30.1007 5.10133 30.1007 4.94074C30.1007 4.78014 30.074 4.62356 30.0204 4.471C29.9669 4.31576 29.8813 4.18059 29.7635 4.0655C29.6484 3.95041 29.4985 3.87279 29.3138 3.83264C29.2549 3.81658 29.192 3.80722 29.1251 3.80454C29.0609 3.79919 29.0033 3.79651 28.9525 3.79651H27.4068V6.08496Z" fill="white"/>
<path d="M21.2706 8.89936V3.118H24.9241V3.79651H21.9852V5.6072H24.4423V6.2857H21.9852V8.22085H24.9241V8.89936H21.2706Z" fill="white"/>
<path d="M14.0782 8.89936L12.4041 3.118H13.1508L14.4356 7.69089L15.7163 3.12202L16.4671 3.118L17.7518 7.69089L19.0325 3.118H19.7833L18.1091 8.89936H17.3945L16.0937 4.36662L14.7929 8.89936H14.0782Z" fill="white"/>
<path d="M8.78149 9.0198C8.20603 9.0198 7.71756 8.89267 7.31608 8.63839C6.91459 8.38412 6.60813 8.03082 6.39668 7.57848C6.18791 7.12614 6.08352 6.60288 6.08352 6.00868C6.08352 5.41449 6.18791 4.89122 6.39668 4.43888C6.60813 3.98654 6.91459 3.63324 7.31608 3.37897C7.71756 3.12469 8.20603 2.99756 8.78149 2.99756C9.35962 2.99756 9.84943 3.12469 10.2509 3.37897C10.6524 3.63324 10.9575 3.98654 11.1663 4.43888C11.3751 4.89122 11.4795 5.41449 11.4795 6.00868C11.4795 6.60288 11.3751 7.12614 11.1663 7.57848C10.9575 8.03082 10.6524 8.38412 10.2509 8.63839C9.84943 8.89267 9.35962 9.0198 8.78149 9.0198ZM8.78149 8.33728C9.21241 8.33996 9.57107 8.2436 9.85746 8.04821C10.1465 7.85015 10.362 7.5758 10.5038 7.22517C10.6484 6.87455 10.7207 6.46905 10.7207 6.00868C10.7207 5.54564 10.6484 5.14014 10.5038 4.79219C10.362 4.44424 10.1465 4.17257 9.85746 3.97718C9.57107 3.78179 9.21241 3.68276 8.78149 3.68008C8.35056 3.6774 7.9919 3.77376 7.70551 3.96915C7.4218 4.16454 7.20768 4.43754 7.06314 4.78817C6.91861 5.1388 6.845 5.54564 6.84233 6.00868C6.83965 6.46905 6.91058 6.87321 7.05511 7.22116C7.19964 7.56911 7.41511 7.84212 7.7015 8.04018C7.99057 8.23557 8.35056 8.3346 8.78149 8.33728Z" fill="white"/>
<path d="M0.661621 8.89936V3.118H2.94606C3.00227 3.118 3.06918 3.12068 3.1468 3.12603C3.22442 3.12871 3.29936 3.13674 3.37163 3.15012C3.68479 3.1983 3.94709 3.30536 4.15854 3.47131C4.37266 3.63725 4.53326 3.84736 4.64032 4.10164C4.74738 4.35323 4.80091 4.63293 4.80091 4.94074C4.80091 5.24586 4.74604 5.52556 4.6363 5.77983C4.52924 6.03143 4.36865 6.24154 4.15452 6.41016C3.94307 6.57611 3.68211 6.68317 3.37163 6.73135C3.29936 6.74206 3.22442 6.75009 3.1468 6.75544C3.06918 6.76079 3.00227 6.76347 2.94606 6.76347H1.37626V8.89936H0.661621ZM1.37626 6.08496H2.92197C2.97282 6.08496 3.03037 6.08229 3.09461 6.07693C3.16152 6.07158 3.22442 6.06221 3.2833 6.04883C3.46799 6.006 3.61787 5.92838 3.73297 5.81597C3.85073 5.70088 3.93638 5.56705 3.98991 5.41449C4.04345 5.25925 4.07021 5.10133 4.07021 4.94074C4.07021 4.78014 4.04345 4.62356 3.98991 4.471C3.93638 4.31576 3.85073 4.18059 3.73297 4.0655C3.61787 3.95041 3.46799 3.87279 3.2833 3.83264C3.22442 3.81658 3.16152 3.80722 3.09461 3.80454C3.03037 3.79919 2.97282 3.79651 2.92197 3.79651H1.37626V6.08496Z" fill="white"/>
<path d="M65.1345 8.28031L65.1518 8.26437C65.7507 7.69512 65.751 6.78557 65.153 6.21547L65.1345 6.19838C64.2722 5.40246 64.2722 4.10733 65.1345 3.31113L65.1518 3.29546C65.7568 2.72023 65.751 1.79816 65.1345 1.22948C64.8334 0.951545 64.4329 0.79834 64.0068 0.79834C63.5808 0.79834 63.1803 0.951545 62.8789 1.22976C62.5777 1.5077 62.4117 1.87732 62.4117 2.27059C62.4117 2.66385 62.5706 3.01782 62.86 3.29375L62.8792 3.31141C63.7415 4.10762 63.7415 5.40274 62.8792 6.19866L62.8625 6.21404C62.2633 6.78358 62.2627 7.69312 62.8603 8.26294L62.8795 8.2806C63.1806 8.55882 63.5811 8.71174 64.0072 8.71174C64.4332 8.71174 64.8337 8.55853 65.1348 8.2806L65.1345 8.28031Z" fill="white"/>
<path d="M71.5439 8.26437L71.5266 8.28031L71.5269 8.2806C71.2258 8.55853 70.8253 8.71174 70.3992 8.71174C69.9731 8.71174 69.5727 8.55882 69.2715 8.2806L69.2524 8.26294C68.6548 7.69312 68.6554 6.78358 69.2546 6.21404L69.2712 6.19866C70.1336 5.40274 70.1336 4.10762 69.2712 3.31141L69.2521 3.29375C68.9627 3.01782 68.8038 2.66385 68.8038 2.27059C68.8038 1.87732 68.9698 1.5077 69.2709 1.22976C69.5724 0.951545 69.9728 0.79834 70.3989 0.79834C70.825 0.79834 71.2255 0.951545 71.5266 1.22948C72.1431 1.79816 72.1489 2.72023 71.5439 3.29546L71.5266 3.31113C70.6643 4.10733 70.6643 5.40246 71.5266 6.19838L71.5451 6.21547C72.1431 6.78557 72.1427 7.69512 71.5439 8.26437Z" fill="white"/>
<path d="M68.3648 10.7495L68.3475 10.7654L68.3478 10.7657C68.0467 11.0436 67.6462 11.1968 67.2201 11.1968C66.794 11.1968 66.3936 11.0439 66.0924 10.7657L66.0733 10.748C65.4757 10.1782 65.4763 9.26868 66.0755 8.69915L66.0921 8.68377C66.9545 7.88785 66.9545 6.59272 66.0921 5.79652L66.073 5.77886C65.7836 5.50292 65.6247 5.14895 65.6247 4.75569C65.6247 4.36243 65.7907 3.9928 66.0918 3.71487C66.3933 3.43665 66.7937 3.28344 67.2198 3.28344C67.6459 3.28344 68.0464 3.43665 68.3475 3.71458C68.964 4.28326 68.9698 5.20534 68.3648 5.78057L68.3475 5.79623C67.4852 6.59244 67.4852 7.88756 68.3475 8.68349L68.366 8.70057C68.964 9.27068 68.9636 10.1802 68.3648 10.7495Z" fill="white"/>
<path d="M60.8509 5.36382C61.0255 5.525 61.2578 5.61385 61.5052 5.61385L61.5049 5.61413C61.7521 5.61413 61.9844 5.52528 62.1593 5.36382C62.52 5.03064 62.52 4.48873 62.1593 4.15584L62.1485 4.14587C61.9748 3.99096 61.7462 3.90553 61.5046 3.90553C61.2631 3.90553 61.0354 3.99067 60.862 4.1453L60.8505 4.15584C60.6756 4.3173 60.5793 4.53202 60.5793 4.75983C60.5793 4.98764 60.6759 5.20236 60.8509 5.36382Z" fill="white"/>
<path d="M72.9258 5.61385C72.6783 5.61385 72.446 5.525 72.2714 5.36382C72.0964 5.20236 71.9999 4.98764 71.9999 4.75983C71.9999 4.53202 72.0961 4.3173 72.271 4.15584L72.2825 4.1453C72.4559 3.99067 72.6836 3.90553 72.9251 3.90553C73.1667 3.90553 73.3953 3.99096 73.569 4.14587L73.5798 4.15584C73.9405 4.48873 73.9405 5.03064 73.5798 5.36382C73.4049 5.52528 73.1726 5.61413 72.9254 5.61413L72.9258 5.61385Z" fill="white"/>
<path d="M99.9317 1.07117C100.302 1.43432 100.302 2.02498 99.9317 2.38782C99.7523 2.56381 99.5137 2.66034 99.2595 2.66034C99.0054 2.66034 98.7667 2.5635 98.5874 2.38782C98.4074 2.21183 98.3085 1.97811 98.3085 1.72949C98.3085 1.48088 98.4074 1.24716 98.587 1.07117L98.5988 1.05968C98.7769 0.891145 99.0104 0.79834 99.2592 0.79834C99.508 0.79834 99.7422 0.891145 99.9206 1.0603L99.9317 1.07117Z" fill="white"/>
<path fill-rule="evenodd" clip-rule="evenodd" d="M91.3438 10.6192C91.8448 10.9464 92.3968 11.1099 92.9998 11.1099C93.3523 11.1099 93.6863 11.0554 94.0017 10.9464C94.3265 10.8373 94.6187 10.6919 94.8785 10.5102C95.1475 10.3285 95.3655 10.124 95.5325 9.89686C95.5349 9.8937 95.5372 9.89054 95.5395 9.88738L95.5325 10.5194C95.5325 10.8159 95.9938 10.9648 96.2711 10.9648C96.5972 10.9648 96.9937 10.8159 96.9937 10.5102V4.27825C96.9937 4.00098 96.6327 3.85202 96.3091 3.85202C96.0302 3.85202 95.5742 4.00098 95.5742 4.27825C95.5742 4.39725 95.5691 4.67077 95.5633 4.94425C95.4162 4.69757 95.2251 4.48116 94.9898 4.29501C94.7578 4.0951 94.4842 3.94063 94.1687 3.83159C93.8533 3.72256 93.5054 3.66804 93.125 3.66804C92.4849 3.66804 91.9051 3.82705 91.3855 4.14508C90.8753 4.46311 90.4671 4.90381 90.1609 5.46717C89.8641 6.02145 89.7156 6.65751 89.7156 7.37535C89.7156 8.0841 89.8641 8.72016 90.1609 9.28352C90.4578 9.84689 90.8521 10.2921 91.3438 10.6192ZM93.2803 9.6673C94.4409 9.6673 95.3817 8.64713 95.3817 7.38869C95.3817 6.13024 94.4409 5.11007 93.2803 5.11007C92.1198 5.11007 91.179 6.13024 91.179 7.38869C91.179 8.64713 92.1198 9.6673 93.2803 9.6673Z" fill="white"/>
<path d="M99.0687 11.1374C98.7673 11.1374 98.523 10.8711 98.523 10.5428V4.43295C98.523 4.10456 98.7673 3.83834 99.0687 3.83834H99.5742C99.8756 3.83834 100.12 4.10456 100.12 4.43295V10.5428C100.12 10.8711 99.8756 11.1374 99.5742 11.1374H99.0687Z" fill="white"/>
<path d="M102.189 11.1622C101.887 11.1622 101.641 10.8949 101.641 10.5652V4.4303C101.641 4.10055 101.887 3.83324 102.189 3.83324H102.54C102.801 3.83324 103.025 4.03342 103.077 4.31186V4.80418C103.518 4.03504 104.276 3.79989 105.112 3.79989C105.163 3.79989 105.207 3.79668 105.248 3.7937C105.349 3.78641 105.429 3.78054 105.541 3.82657C106.03 4.02917 106.017 5.11991 105.516 5.28703C105.406 5.32388 105.319 5.30183 105.227 5.27838C105.161 5.26141 105.092 5.24371 105.008 5.24702C104.458 5.26886 103.974 5.63077 103.68 5.9731C103.39 6.31543 103.245 6.79114 103.245 7.40022V10.5652C103.245 10.8949 103 11.1622 102.697 11.1622H102.189Z" fill="white"/>
<path d="M80.923 11.1823C80.2409 11.1823 79.6147 11.0566 79.0447 10.8052C78.4747 10.5538 77.9794 10.1961 77.5588 9.73199C77.1383 9.25823 76.8113 8.7023 76.5776 8.06418C76.3534 7.42606 76.2412 6.7251 76.2412 5.96129C76.2412 5.23616 76.3627 4.5642 76.6057 3.94542C76.858 3.31697 77.2037 2.76587 77.643 2.29211C78.0822 1.81836 78.5915 1.45096 79.1709 1.18991C79.7502 0.928864 80.3764 0.79834 81.0492 0.79834C81.5258 0.79834 81.9884 0.875687 82.4369 1.03038C82.8948 1.17541 83.306 1.38328 83.6704 1.654C83.858 1.78496 84.0279 1.92566 84.1801 2.0761C84.4369 2.3298 84.4034 2.74516 84.1575 3.01015L84.094 3.07859C83.8077 3.38724 83.3364 3.38496 83.0046 3.12948C82.9186 3.06326 82.8322 3.00167 82.7453 2.94474C82.4743 2.75137 82.1939 2.60634 81.9043 2.50966C81.6239 2.41297 81.3389 2.36463 81.0492 2.36463C80.5913 2.36463 80.1614 2.45648 79.7596 2.64018C79.3671 2.81421 79.0213 3.06076 78.7223 3.37982C78.4326 3.69887 78.2037 4.08078 78.0354 4.52553C77.8672 4.96061 77.7831 5.43919 77.7831 5.96129C77.7831 6.51239 77.8626 7.01515 78.0214 7.46957C78.1896 7.91432 78.4233 8.29622 78.7223 8.61528C79.0213 8.93434 79.3764 9.18088 79.7876 9.35491C80.2081 9.51928 80.6707 9.60146 81.1753 9.60146C81.4837 9.60146 81.7874 9.55795 82.0865 9.47094C82.3855 9.38392 82.6659 9.25823 82.9275 9.09387C83.3245 8.84451 83.879 8.91272 84.1219 9.32222C84.2863 9.59933 84.2651 9.96418 84.017 10.1638C83.8699 10.2821 83.703 10.3944 83.5163 10.5006C83.1518 10.7133 82.7406 10.8825 82.2827 11.0082C81.8342 11.1242 81.3809 11.1823 80.923 11.1823Z" fill="white"/>
<path d="M86.5996 11.0191C86.895 11.1376 87.2653 11.1968 87.7104 11.1968C87.8207 11.1968 87.9409 11.1877 88.0709 11.1695C88.2009 11.1558 88.3072 11.1399 88.39 11.1216C88.4766 11.108 88.5653 11.0897 88.6559 11.067C88.7204 11.0514 88.7348 11.0444 88.7552 11.0346C88.7647 11.03 88.7755 11.0248 88.7932 11.0178C89.2019 10.8568 89.1291 10.0064 88.7622 9.75445C88.5959 9.64023 88.4089 9.70876 88.2444 9.76908C88.1588 9.80048 88.0792 9.82965 88.0118 9.82965C87.6139 9.82965 87.3461 9.71116 87.2082 9.47418C87.0703 9.23264 87.0014 8.77464 87.0014 8.10015V1.42495C87.0014 1.08692 86.7645 0.812901 86.4723 0.812929L85.9822 0.812977C85.6901 0.813005 85.4532 1.08701 85.4532 1.425V8.13433C85.4532 8.67665 85.4867 9.1301 85.5537 9.49469C85.6206 9.85927 85.7388 10.1737 85.9082 10.4381C86.0776 10.7024 86.308 10.8961 86.5996 11.0191Z" fill="white"/>
</svg>
