<svg width="21" height="21" viewBox="0 0 21 21" fill="none" xmlns="http://www.w3.org/2000/svg">
<path d="M7.57031 2.2417C8.19531 1.26514 9.32812 0.640137 10.5 0.640137C11.6719 0.640137 12.7656 1.26514 13.3906 2.2417L15.8125 6.06982L16.0859 4.85889C16.2031 4.35107 16.6719 3.99951 17.1797 4.1167C17.6875 4.23389 18.0391 4.70264 17.9219 5.21045L17.1797 8.92139C17.1016 9.15576 16.9453 9.39014 16.7109 9.54639C16.4766 9.66357 16.2031 9.70264 15.9297 9.62451L12.375 8.41357C11.8672 8.25732 11.6328 7.71045 11.7891 7.2417C11.9453 6.73389 12.4922 6.46045 12.9609 6.65576L14.2109 7.04639L11.8281 3.25732C11.5156 2.82764 11.0078 2.51514 10.5 2.51514C9.95312 2.51514 9.44531 2.82764 9.17188 3.25732L8.3125 4.58545C8.03906 5.01514 7.49219 5.13232 7.02344 4.89795C6.59375 4.62451 6.4375 4.03857 6.75 3.56982L7.57031 2.2417ZM17.6484 10.6401C18.0781 10.3667 18.625 10.5229 18.8984 10.9526L19.9531 12.5933C20.3047 13.1401 20.4609 13.7651 20.5 14.3901C20.5 16.3042 18.9766 17.8276 17.0625 17.8276H11.7109L12.6875 18.687C13.0391 19.0386 13.0781 19.6245 12.7656 20.0151C12.4141 20.4058 11.8281 20.4448 11.4375 20.0933L8.625 17.5933C8.42969 17.437 8.3125 17.1636 8.3125 16.8901C8.3125 16.6558 8.39062 16.3823 8.625 16.2261L11.4375 13.7261C11.8281 13.3745 12.4141 13.4136 12.7656 13.8042C13.0781 14.1558 13.0391 14.7808 12.6875 15.0933L11.7109 15.9526H17.0625C17.9219 15.9526 18.625 15.2886 18.625 14.4292C18.625 14.1167 18.5078 13.8433 18.3516 13.6089L17.3359 11.9292C17.0234 11.4995 17.1797 10.9136 17.6094 10.6401H17.6484ZM5.46094 10.7964L5.1875 9.50732L2.60938 13.6089C2.45312 13.8433 2.375 14.1167 2.375 14.4292C2.33594 15.2886 3.03906 15.9526 3.89844 15.9526H5.8125C6.32031 15.9526 6.75 16.3823 6.75 16.8901C6.75 17.437 6.32031 17.8276 5.8125 17.8276H3.89844C2.02344 17.8276 0.460938 16.3042 0.5 14.3901C0.5 13.7651 0.65625 13.1401 1.00781 12.5933L3.54688 8.56982L2.33594 8.99951C1.86719 9.15576 1.32031 8.88232 1.16406 8.37451C1.00781 7.90576 1.24219 7.35889 1.75 7.20264L5.30469 6.03076C5.57812 5.91357 5.85156 5.95264 6.08594 6.10889C6.32031 6.22607 6.47656 6.46045 6.55469 6.73389L7.29688 10.4058C7.41406 10.9136 7.0625 11.4214 6.55469 11.4995C6.04688 11.6167 5.57812 11.3042 5.46094 10.7964Z" fill="#00AEFF"/>
</svg>
