<svg width="24" height="19" viewBox="0 0 24 19" fill="none" xmlns="http://www.w3.org/2000/svg">
<path d="M11.4375 1.9375H5.8125V7.5625H11.4375V1.9375ZM5.8125 0.25H11.4375C12.3516 0.25 13.125 1.02344 13.125 1.9375V7.5625C13.125 8.51172 12.3516 9.25 11.4375 9.25H5.8125C4.86328 9.25 4.125 8.51172 4.125 7.5625V1.9375C4.125 1.02344 4.86328 0.25 5.8125 0.25ZM19.3125 4.1875H15.9375V7.5625H19.3125V4.1875ZM15.9375 2.5H19.3125C20.2266 2.5 21 3.27344 21 4.1875V7.5625C21 8.51172 20.2266 9.25 19.3125 9.25H15.9375C14.9883 9.25 14.25 8.51172 14.25 7.5625V4.1875C14.25 3.27344 14.9883 2.5 15.9375 2.5ZM19.3125 12.0625H4.6875C3.42188 12.0625 2.4375 13.082 2.4375 14.3125C2.4375 15.5781 3.42188 16.5625 4.6875 16.5625H19.3125C20.543 16.5625 21.5625 15.5781 21.5625 14.3125C21.5625 13.082 20.543 12.0625 19.3125 12.0625ZM4.6875 10.375H19.3125C21.457 10.375 23.25 12.168 23.25 14.3125C23.25 16.4922 21.457 18.25 19.3125 18.25H4.6875C2.50781 18.25 0.75 16.4922 0.75 14.3125C0.75 12.168 2.50781 10.375 4.6875 10.375ZM6.375 14.3125C6.375 14.9453 5.84766 15.4375 5.25 15.4375C4.61719 15.4375 4.125 14.9453 4.125 14.3125C4.125 13.7148 4.61719 13.1875 5.25 13.1875C5.84766 13.1875 6.375 13.7148 6.375 14.3125ZM12 15.4375C11.3672 15.4375 10.875 14.9453 10.875 14.3125C10.875 13.7148 11.3672 13.1875 12 13.1875C12.5977 13.1875 13.125 13.7148 13.125 14.3125C13.125 14.9453 12.5977 15.4375 12 15.4375ZM19.875 14.3125C19.875 14.9453 19.3477 15.4375 18.75 15.4375C18.1172 15.4375 17.625 14.9453 17.625 14.3125C17.625 13.7148 18.1172 13.1875 18.75 13.1875C19.3477 13.1875 19.875 13.7148 19.875 14.3125Z" fill="#011445"/>
</svg>
