<svg width="21" height="21" viewBox="0 0 21 21" fill="none" xmlns="http://www.w3.org/2000/svg">
<path d="M14.875 10.9917C18.4688 8.56982 18.8594 5.09326 18.5078 2.63232C16.0469 2.28076 12.5703 2.67139 10.1094 6.26514C8.9375 7.98389 7.45312 11.2651 6.63281 13.062L8 14.4292C9.83594 13.687 13.1172 12.2026 14.875 10.9917ZM5.10938 11.8901H1.4375C1.08594 11.8901 0.773438 11.7339 0.617188 11.4214C0.421875 11.1479 0.460938 10.7964 0.617188 10.4839L2.64844 7.04639C3.15625 6.18701 4.09375 5.64014 5.07031 5.64014H8.27344C8.39062 5.48389 8.46875 5.3667 8.58594 5.21045C11.7891 0.483887 16.5547 0.327637 19.3672 0.874512C19.8359 0.952637 20.1875 1.3042 20.2656 1.77295C20.8125 4.58545 20.6562 9.35107 15.9297 12.5542C15.7734 12.6714 15.6562 12.7495 15.5 12.8667V16.0698C15.5 17.0464 14.9531 17.9839 14.0938 18.4917L10.6562 20.5229C10.3438 20.7183 9.99219 20.7183 9.71875 20.5229C9.40625 20.3667 9.25 20.0542 9.25 19.7417V15.9526C8.89844 16.1089 8.58594 16.2261 8.35156 16.3433C7.88281 16.5386 7.33594 16.4214 6.98438 16.0698L4.99219 14.1167C4.64062 13.7261 4.52344 13.2183 4.75781 12.7495C4.83594 12.5151 4.95312 12.2026 5.10938 11.8901ZM16.4375 6.26514C16.4375 6.85107 16.125 7.35889 15.6562 7.63232C15.1484 7.90576 14.5625 7.90576 14.0938 7.63232C13.5859 7.35889 13.3125 6.85107 13.3125 6.26514C13.3125 5.71826 13.5859 5.21045 14.0938 4.93701C14.5625 4.66357 15.1484 4.66357 15.6562 4.93701C16.125 5.21045 16.4375 5.71826 16.4375 6.26514Z" fill="#186491"/>
</svg>
