<svg width="18" height="17" viewBox="0 0 18 17" fill="none" xmlns="http://www.w3.org/2000/svg">
<path d="M9 15C11.3125 15 13.4375 13.7812 14.625 11.75C15.7812 9.75 15.7812 7.28125 14.625 5.25C13.4375 3.25 11.3125 2 9 2C6.65625 2 4.53125 3.25 3.34375 5.25C2.1875 7.28125 2.1875 9.75 3.34375 11.75C4.53125 13.7812 6.65625 15 9 15ZM9 0.5C11.8438 0.5 14.4688 2.03125 15.9062 4.5C17.3438 7 17.3438 10.0312 15.9062 12.5C14.4688 15 11.8438 16.5 9 16.5C6.125 16.5 3.5 15 2.0625 12.5C0.625 10.0312 0.625 7 2.0625 4.5C3.5 2.03125 6.125 0.5 9 0.5ZM7 5H11.75C12.1562 5 12.5 5.34375 12.5 5.75V10.75C12.5 11.1875 12.1562 11.5 11.75 11.5C11.3125 11.5 11 11.1875 11 10.75V7.5625L6.78125 11.7812C6.46875 12.0938 6 12.0938 5.71875 11.7812C5.40625 11.5 5.40625 11.0312 5.71875 10.75L9.9375 6.53125H7C6.5625 6.53125 6.25 6.1875 6.25 5.78125C6.25 5.34375 6.5625 5.03125 7 5.03125V5Z" fill="#AA25ED"/>
</svg>
