<svg width="41" height="40" viewBox="0 0 41 40" fill="none" xmlns="http://www.w3.org/2000/svg">
<path d="M5.58838 29.6875L10.979 35.0781C11.4478 35.5469 12.3071 35.5469 12.7759 35.0781L35.6665 12.1875C36.1353 11.7188 36.1353 10.8594 35.6665 10.3906L30.2759 5C29.8071 4.53125 28.9478 4.53125 28.479 5L25.4321 8.04688L27.7759 10.3906C28.2446 10.8594 28.2446 11.7188 27.7759 12.1875C27.3071 12.6562 26.4478 12.6562 25.979 12.1875L23.6353 9.84375L20.4321 13.0469L22.7759 15.3906C23.2446 15.8594 23.2446 16.7188 22.7759 17.1875C22.3071 17.6562 21.4478 17.6562 20.979 17.1875L18.6353 14.8438L15.4321 18.0469L17.7759 20.3906C18.2446 20.8594 18.2446 21.7188 17.7759 22.1875C17.3071 22.6562 16.4478 22.6562 15.979 22.1875L13.6353 19.8438L10.4321 23.0469L12.7759 25.3906C13.2446 25.8594 13.2446 26.7188 12.7759 27.1875C12.3071 27.6562 11.4478 27.6562 10.979 27.1875L8.63525 24.8438L5.58838 27.8906C5.11963 28.3594 5.11963 29.2188 5.58838 29.6875ZM8.32275 37.7344L2.93213 32.3438C0.979004 30.3906 0.979004 27.1875 2.93213 25.2344L25.8228 2.34375C27.7759 0.390625 30.979 0.390625 32.9321 2.34375L38.3228 7.73438C40.2759 9.6875 40.2759 12.8906 38.3228 14.8438L15.4321 37.7344C13.479 39.6875 10.2759 39.6875 8.32275 37.7344Z" fill="#186491"/>
</svg>
