<svg width="18" height="21" viewBox="0 0 18 21" fill="none" xmlns="http://www.w3.org/2000/svg">
<path d="M1.1875 0H7.125C9.50781 0 11.5 1.99219 11.5 4.375C11.5 6.60156 9.85938 8.39844 7.75 8.71094L11.5 12.4609L16.1484 7.8125C16.5 7.42188 17.0859 7.42188 17.4766 7.8125C17.8281 8.16406 17.8281 8.75 17.4766 9.10156L12.7891 13.7891L17.4375 18.4375C17.8281 18.7891 17.8281 19.375 17.4375 19.7266C17.0859 20.1172 16.5 20.1172 16.1484 19.7266L11.4609 15.0781L6.8125 19.7266C6.46094 20.1172 5.875 20.1172 5.52344 19.7266C5.13281 19.375 5.13281 18.7891 5.52344 18.3984L10.1719 13.75L5.17188 8.75H2.125V11.5625C2.125 12.1094 1.69531 12.5 1.1875 12.5C0.640625 12.5 0.25 12.1094 0.25 11.5625V7.8125V0.9375C0.25 0.429688 0.640625 0 1.1875 0ZM7.125 6.875C8.49219 6.875 9.625 5.78125 9.625 4.375C9.625 3.00781 8.49219 1.875 7.125 1.875H2.125V6.875H7.125Z" fill="#27B8C8"/>
</svg>
