<svg width="15" height="21" viewBox="0 0 15 21" fill="none" xmlns="http://www.w3.org/2000/svg">
<path d="M2.5 0.200012H8.75V5.20001C8.75 5.90314 9.29688 6.45001 10 6.45001H15V17.7C15 19.1063 13.8672 20.2 12.5 20.2H2.5C1.09375 20.2 0 19.1063 0 17.7V2.70001C0 1.33282 1.09375 0.200012 2.5 0.200012ZM10 0.200012L15 5.20001H10V0.200012ZM4.0625 7.85626C3.63281 7.85626 3.28125 8.20782 3.28125 8.63751V11.7625V14.2625C3.28125 14.6922 3.63281 15.0438 4.0625 15.0438C4.49219 15.0438 4.84375 14.6922 4.84375 14.2625V12.5438H5.58594C5.625 12.5828 5.66406 12.6219 5.70312 12.6609L8.24219 15.0438L6.95312 16.2156C6.64062 16.4891 6.60156 16.9969 6.91406 17.3094C7.1875 17.6219 7.69531 17.6609 8.00781 17.3484L9.375 16.0984L10.7031 17.3484C11.0156 17.6609 11.5234 17.6219 11.7969 17.3094C12.1094 16.9969 12.0703 16.4891 11.7578 16.2156L10.5469 15.0438L11.7578 13.9109C12.0703 13.6375 12.1094 13.1297 11.7969 12.8172C11.5234 12.5047 11.0156 12.4656 10.7031 12.7781L9.375 13.9891L7.69531 12.3875C8.59375 12.075 9.21875 11.2156 9.21875 10.2C9.21875 8.91095 8.16406 7.85626 6.875 7.85626H4.0625ZM6.875 10.9813H4.84375V9.41876H6.875C7.30469 9.41876 7.65625 9.77032 7.65625 10.2C7.65625 10.6297 7.30469 10.9813 6.875 10.9813Z" fill="#AA25ED"/>
</svg>
