<svg width="21" height="20" viewBox="0 0 21 20" fill="none" xmlns="http://www.w3.org/2000/svg">
<path d="M0.5 16.45C0.5 15.7859 1.04688 15.2 1.75 15.2H3.85938C4.36719 14.1062 5.46094 13.325 6.75 13.325C8 13.325 9.13281 14.1062 9.60156 15.2H19.25C19.9141 15.2 20.5 15.7859 20.5 16.45C20.5 17.1531 19.9141 17.7 19.25 17.7H9.60156C9.13281 18.8328 8 19.575 6.75 19.575C5.46094 19.575 4.36719 18.8328 3.85938 17.7H1.75C1.04688 17.7 0.5 17.1531 0.5 16.45ZM5.5 16.45C5.5 17.1531 6.04688 17.7 6.75 17.7C7.41406 17.7 8 17.1531 8 16.45C8 15.7859 7.41406 15.2 6.75 15.2C6.04688 15.2 5.5 15.7859 5.5 16.45ZM13 10.2C13 10.9031 13.5469 11.45 14.25 11.45C14.9141 11.45 15.5 10.9031 15.5 10.2C15.5 9.53589 14.9141 8.94995 14.25 8.94995C13.5469 8.94995 13 9.53589 13 10.2ZM14.25 7.07495C15.5 7.07495 16.6328 7.8562 17.1016 8.94995H19.25C19.9141 8.94995 20.5 9.53589 20.5 10.2C20.5 10.9031 19.9141 11.45 19.25 11.45H17.1016C16.6328 12.5828 15.5 13.325 14.25 13.325C12.9609 13.325 11.8672 12.5828 11.3594 11.45H1.75C1.04688 11.45 0.5 10.9031 0.5 10.2C0.5 9.53589 1.04688 8.94995 1.75 8.94995H11.3594C11.8672 7.8562 12.9609 7.07495 14.25 7.07495ZM8 5.19995C8.66406 5.19995 9.25 4.65308 9.25 3.94995C9.25 3.28589 8.66406 2.69995 8 2.69995C7.29688 2.69995 6.75 3.28589 6.75 3.94995C6.75 4.65308 7.29688 5.19995 8 5.19995ZM10.8516 2.69995H19.25C19.9141 2.69995 20.5 3.28589 20.5 3.94995C20.5 4.65308 19.9141 5.19995 19.25 5.19995H10.8516C10.3828 6.33276 9.25 7.07495 8 7.07495C6.71094 7.07495 5.61719 6.33276 5.10938 5.19995H1.75C1.04688 5.19995 0.5 4.65308 0.5 3.94995C0.5 3.28589 1.04688 2.69995 1.75 2.69995H5.10938C5.61719 1.6062 6.71094 0.824951 8 0.824951C9.25 0.824951 10.3828 1.6062 10.8516 2.69995Z" fill="#00AEFF"/>
</svg>
