<svg width="21" height="18" viewBox="0 0 21 18" fill="none" xmlns="http://www.w3.org/2000/svg">
<path d="M7.5625 14.0391C8.57812 14.4297 9.75 14.625 11 14.625C15.8438 14.625 19.125 11.5 19.125 8.375C19.125 5.28906 15.8438 2.125 11 2.125C6.11719 2.125 2.875 5.28906 2.875 8.375C2.875 9.625 3.34375 10.8359 4.24219 11.8906C4.59375 12.2422 4.75 12.75 4.71094 13.2578C4.67188 13.9609 4.47656 14.625 4.28125 15.1719C4.94531 14.8984 5.49219 14.5469 5.80469 14.3125C6.3125 13.9219 6.97656 13.8438 7.5625 14.0391ZM2.01562 15.5625C2.40625 14.9375 2.75781 14.0781 2.83594 13.1016C1.66406 11.7734 1 10.1719 1 8.375C1 3.92188 5.45312 0.25 11 0.25C16.5078 0.25 21 3.92188 21 8.375C21 12.8672 16.5078 16.5 11 16.5C9.55469 16.5 8.1875 16.2656 6.9375 15.8359C6.46875 16.1484 5.6875 16.6172 4.78906 17.0078C4.20312 17.2812 3.53906 17.5156 2.83594 17.6328C2.83594 17.6328 2.79688 17.6719 2.75781 17.6719C2.60156 17.7109 2.40625 17.7109 2.25 17.75H2.21094C2.01562 17.75 1.82031 17.7891 1.625 17.7891C1.35156 17.7891 1.11719 17.6328 1.03906 17.3984C0.921875 17.1641 1 16.8906 1.15625 16.6953C1.3125 16.5391 1.46875 16.3438 1.625 16.1875C1.66406 16.0703 1.74219 15.9922 1.78125 15.9141L1.82031 15.875C1.89844 15.7969 1.9375 15.6797 2.01562 15.5625ZM8.5 7.125C7.79688 7.125 7.25 6.57812 7.25 5.875C7.25 5.21094 7.79688 4.625 8.5 4.625C9.16406 4.625 9.75 5.21094 9.75 5.875C9.75 6.57812 9.16406 7.125 8.5 7.125ZM13.5 7.125C12.7969 7.125 12.25 6.57812 12.25 5.875C12.25 5.21094 12.7969 4.625 13.5 4.625C14.1641 4.625 14.75 5.21094 14.75 5.875C14.75 6.57812 14.1641 7.125 13.5 7.125ZM6.85938 9.58594C7.25 9.23438 7.83594 9.27344 8.1875 9.625C8.85156 10.4062 9.86719 10.875 10.9609 10.875C12.0938 10.875 13.0703 10.4062 13.7734 9.625C14.125 9.27344 14.7109 9.23438 15.1016 9.58594C15.4922 9.89844 15.5312 10.5234 15.1797 10.875C14.125 12.0469 12.6406 12.75 10.9609 12.75C9.32031 12.75 7.79688 12.0469 6.78125 10.875C6.42969 10.5234 6.46875 9.89844 6.85938 9.58594Z" fill="#0A1C73"/>
</svg>
