<svg width="42" height="40" viewBox="0 0 42 40" fill="none" xmlns="http://www.w3.org/2000/svg">
<path d="M21 3.75C15.1406 3.75 9.82812 6.875 6.85938 11.875C3.96875 16.9531 3.96875 23.125 6.85938 28.125C9.82812 33.2031 15.1406 36.25 21 36.25C26.7812 36.25 32.0938 33.2031 35.0625 28.125C37.9531 23.125 37.9531 16.9531 35.0625 11.875C32.0938 6.875 26.7812 3.75 21 3.75ZM21 40C13.8125 40 7.25 36.25 3.65625 30C0.0625 23.8281 0.0625 16.25 3.65625 10C7.25 3.82812 13.8125 0 21 0C28.1094 0 34.6719 3.82812 38.2656 10C41.8594 16.25 41.8594 23.8281 38.2656 30C34.6719 36.25 28.1094 40 21 40ZM25.375 27.5C25.375 29.9219 23.3438 31.875 21 31.875C18.5781 31.875 16.625 29.9219 16.625 27.5C16.625 25.7812 17.6406 24.2969 19.125 23.5938V9.375C19.125 8.35938 19.9062 7.5 21 7.5C22.0156 7.5 22.875 8.35938 22.875 9.375V23.5938C24.2812 24.2969 25.375 25.7812 25.375 27.5ZM13.5 15C12.0938 15 11 13.9062 11 12.5C11 11.1719 12.0938 10 13.5 10C14.8281 10 16 11.1719 16 12.5C16 13.9062 14.8281 15 13.5 15ZM12.25 20C12.25 21.4062 11.0781 22.5 9.75 22.5C8.34375 22.5 7.25 21.4062 7.25 20C7.25 18.6719 8.34375 17.5 9.75 17.5C11.0781 17.5 12.25 18.6719 12.25 20ZM32.25 22.5C30.8438 22.5 29.75 21.4062 29.75 20C29.75 18.6719 30.8438 17.5 32.25 17.5C33.5781 17.5 34.75 18.6719 34.75 20C34.75 21.4062 33.5781 22.5 32.25 22.5ZM31 12.5C31 13.9062 29.8281 15 28.5 15C27.0938 15 26 13.9062 26 12.5C26 11.1719 27.0938 10 28.5 10C29.8281 10 31 11.1719 31 12.5Z" fill="#27B8C8"/>
</svg>
