<svg width="19" height="21" viewBox="0 0 19 21" fill="none" xmlns="http://www.w3.org/2000/svg">
<path d="M16.375 4H16.3359C16.1406 3.80469 15.7109 3.57031 15.0469 3.33594C13.7188 2.86719 11.7266 2.51562 9.5 2.51562C7.23438 2.51562 5.24219 2.86719 3.91406 3.33594C3.25 3.57031 2.82031 3.80469 2.625 4V7.47656C3.13281 7.75 3.83594 8.02344 4.73438 8.25781C6.0625 8.57031 7.70312 8.76562 9.5 8.76562C11.2578 8.76562 12.8984 8.57031 14.2266 8.25781C15.125 8.02344 15.8281 7.75 16.375 7.47656V4ZM16.375 9.54688C15.8281 9.74219 15.2812 9.9375 14.6562 10.0938C13.1719 10.4453 11.375 10.6406 9.5 10.6406C7.58594 10.6406 5.78906 10.4453 4.30469 10.0938C3.67969 9.9375 3.13281 9.74219 2.625 9.54688V12.4766C3.13281 12.75 3.83594 13.0234 4.73438 13.2578C6.0625 13.5703 7.70312 13.7656 9.5 13.7656C11.2578 13.7656 12.8984 13.5703 14.2266 13.2578C15.125 13.0234 15.8281 12.75 16.375 12.4766V9.54688ZM2.625 17.2812V17.3203C2.85938 17.4766 3.25 17.75 3.91406 17.9844C5.24219 18.4531 7.23438 18.7656 9.5 18.7656C11.7266 18.7656 13.7188 18.4531 15.0469 17.9844C15.7109 17.75 16.1406 17.4766 16.3359 17.3203L16.375 17.2812V14.5469C15.8281 14.7422 15.2812 14.9375 14.6562 15.0938C13.1719 15.4453 11.375 15.6406 9.5 15.6406C7.58594 15.6406 5.78906 15.4453 4.30469 15.0938C3.67969 14.9375 3.13281 14.7422 2.625 14.5469V17.2812ZM16.4531 17.2031L16.4141 17.2422C16.4531 17.2031 16.4531 17.2031 16.4531 17.2031ZM2.54688 17.2031C2.50781 17.2031 2.54688 17.2031 2.54688 17.2031V17.2422C2.54688 17.2422 2.54688 17.2422 2.54688 17.2031ZM2.54688 4.11719C2.50781 4.07812 2.54688 4.07812 2.54688 4.07812C2.54688 4.11719 2.54688 4.11719 2.54688 4.11719C2.54688 4.11719 2.54688 4.11719 2.50781 4.11719C2.50781 4.11719 2.50781 4.11719 2.54688 4.11719ZM16.4531 4.07812V4.11719C16.4531 4.11719 16.4531 4.11719 16.4141 4.11719C16.4141 4.07812 16.4141 4.07812 16.4531 4.07812ZM18.25 17.5156C18.25 19.2734 14.3047 20.6406 9.5 20.6406C4.65625 20.6406 0.75 19.2734 0.75 17.5156V3.76562C0.75 2.04688 4.65625 0.640625 9.5 0.640625C14.3047 0.640625 18.25 2.04688 18.25 3.76562V17.5156Z" fill="#186491"/>
</svg>
