<svg width="29" height="26" viewBox="0 0 29 26" fill="none" xmlns="http://www.w3.org/2000/svg">
<path d="M25.827 4.35911V6.73901C25.827 8.97016 20.8193 10.7055 14.7208 10.7055C8.57272 10.7055 3.6146 8.97016 3.6146 6.73901V4.35911C3.6146 2.17754 8.57272 0.392616 14.7208 0.392616C20.8193 0.392616 25.827 2.17754 25.827 4.35911ZM23.1 11.0526C24.1412 10.7055 25.0832 10.2097 25.827 9.6643V14.672C25.827 16.9031 20.8193 18.6385 14.7208 18.6385C8.57272 18.6385 3.6146 16.9031 3.6146 14.672V9.6643C4.30874 10.2097 5.30036 10.7055 6.29198 11.0526C8.52314 11.8459 11.498 12.2921 14.7208 12.2921C17.894 12.2921 20.8688 11.8459 23.1 11.0526ZM3.6146 17.5973C4.30874 18.1427 5.30036 18.6385 6.29198 18.9856C8.52314 19.7789 11.498 20.2251 14.7208 20.2251C17.894 20.2251 20.8688 19.7789 23.1 18.9856C24.1412 18.6385 25.0832 18.1427 25.827 17.5973V21.8117C25.827 24.0428 20.8193 25.7782 14.7208 25.7782C8.57272 25.7782 3.6146 24.0428 3.6146 21.8117V17.5973Z" fill="#011445"/>
</svg>
