<svg width="41" height="40" viewBox="0 0 41 40" fill="none" xmlns="http://www.w3.org/2000/svg">
<path d="M25.8801 6.71875L30.3333 5L31.9739 0.625C32.052 0.234375 32.4426 0 32.8333 0C33.1458 0 33.5364 0.234375 33.6145 0.625L35.3333 5L39.7083 6.71875C40.0989 6.79688 40.3333 7.1875 40.3333 7.5C40.3333 7.89062 40.0989 8.28125 39.7083 8.35938L35.3333 10L33.6145 14.4531C33.5364 14.7656 33.1458 15 32.8333 15C32.4426 15 32.052 14.7656 31.9739 14.4531L30.3333 10L25.8801 8.35938C25.5676 8.28125 25.3333 7.89062 25.3333 7.5C25.3333 7.1875 25.5676 6.79688 25.8801 6.71875ZM1.03638 18.75L2.3645 18.2031L2.9895 17.8906H3.06763L9.94263 14.6875L13.1458 7.73438L13.4583 7.10938L14.0833 5.78125C14.2395 5.3125 14.7083 5 15.177 5C15.6458 5 16.1145 5.3125 16.3489 5.78125L16.9739 7.10938L17.2083 7.73438L17.2864 7.8125L20.4114 14.6875L27.3645 17.8906L27.9895 18.2031L29.3176 18.8281C29.7864 18.9844 30.0989 19.4531 30.0989 19.9219C30.0989 20.3906 29.7864 20.8594 29.3176 21.0938L27.9895 21.6406L27.3645 21.9531L20.4114 25.1562L17.2083 32.0312V32.1094L16.8958 32.7344L16.3489 34.0625C16.1145 34.5312 15.6458 34.8438 15.177 34.8438C14.7083 34.8438 14.2395 34.5312 14.0833 34.0625L13.4583 32.7344L13.1458 32.1094V32.0312L9.94263 25.1562L3.06763 21.9531H2.9895L2.3645 21.6406L1.03638 21.0938C0.567627 20.8594 0.333252 20.3906 0.333252 19.9219C0.333252 19.4531 0.567627 18.9844 1.03638 18.75ZM7.52075 19.9219L11.5051 21.7969C12.2864 22.1094 12.9895 22.8125 13.3801 23.5938L15.177 27.5781L17.052 23.5938C17.4426 22.8125 18.0676 22.1094 18.8489 21.7969L22.8333 19.9219L18.8489 18.0469C18.0676 17.7344 17.4426 17.0312 17.052 16.25L15.177 12.2656L13.3801 16.25C12.9895 17.0312 12.2864 17.7344 11.5051 18.0469L7.52075 19.9219ZM30.3333 30L31.9739 25.625C32.052 25.2344 32.4426 25 32.8333 25C33.1458 25 33.5364 25.2344 33.6145 25.625L35.3333 30L39.7083 31.7188C40.0989 31.7969 40.3333 32.1875 40.3333 32.5C40.3333 32.8906 40.0989 33.2812 39.7083 33.3594L35.3333 35L33.6145 39.4531C33.5364 39.7656 33.1458 40 32.8333 40C32.4426 40 32.052 39.7656 31.9739 39.4531L30.3333 35L25.8801 33.3594C25.5676 33.2812 25.3333 32.8906 25.3333 32.5C25.3333 32.1875 25.5676 31.7969 25.8801 31.7188L30.3333 30Z" fill="#AA25ED"/>
</svg>
