<svg width="41" height="40" viewBox="0 0 41 40" fill="none" xmlns="http://www.w3.org/2000/svg">
<path d="M25.8799 6.71875L30.333 5L31.9736 0.625C32.0518 0.234375 32.4424 0 32.833 0C33.1455 0 33.5361 0.234375 33.6143 0.625L35.333 5L39.708 6.71875C40.0986 6.79688 40.333 7.1875 40.333 7.5C40.333 7.89062 40.0986 8.28125 39.708 8.35938L35.333 10L33.6143 14.4531C33.5361 14.7656 33.1455 15 32.833 15C32.4424 15 32.0518 14.7656 31.9736 14.4531L30.333 10L25.8799 8.35938C25.5674 8.28125 25.333 7.89062 25.333 7.5C25.333 7.1875 25.5674 6.79688 25.8799 6.71875ZM1.03613 18.75L2.36426 18.2031L2.98926 17.8906H3.06738L9.94238 14.6875L13.1455 7.73438L13.458 7.10938L14.083 5.78125C14.2393 5.3125 14.708 5 15.1768 5C15.6455 5 16.1143 5.3125 16.3486 5.78125L16.9736 7.10938L17.208 7.73438L17.2861 7.8125L20.4111 14.6875L27.3643 17.8906L27.9893 18.2031L29.3174 18.8281C29.7861 18.9844 30.0986 19.4531 30.0986 19.9219C30.0986 20.3906 29.7861 20.8594 29.3174 21.0938L27.9893 21.6406L27.3643 21.9531L20.4111 25.1562L17.208 32.0312V32.1094L16.8955 32.7344L16.3486 34.0625C16.1143 34.5312 15.6455 34.8438 15.1768 34.8438C14.708 34.8438 14.2393 34.5312 14.083 34.0625L13.458 32.7344L13.1455 32.1094V32.0312L9.94238 25.1562L3.06738 21.9531H2.98926L2.36426 21.6406L1.03613 21.0938C0.567383 20.8594 0.333008 20.3906 0.333008 19.9219C0.333008 19.4531 0.567383 18.9844 1.03613 18.75ZM7.52051 19.9219L11.5049 21.7969C12.2861 22.1094 12.9893 22.8125 13.3799 23.5938L15.1768 27.5781L17.0518 23.5938C17.4424 22.8125 18.0674 22.1094 18.8486 21.7969L22.833 19.9219L18.8486 18.0469C18.0674 17.7344 17.4424 17.0312 17.0518 16.25L15.1768 12.2656L13.3799 16.25C12.9893 17.0312 12.2861 17.7344 11.5049 18.0469L7.52051 19.9219ZM30.333 30L31.9736 25.625C32.0518 25.2344 32.4424 25 32.833 25C33.1455 25 33.5361 25.2344 33.6143 25.625L35.333 30L39.708 31.7188C40.0986 31.7969 40.333 32.1875 40.333 32.5C40.333 32.8906 40.0986 33.2812 39.708 33.3594L35.333 35L33.6143 39.4531C33.5361 39.7656 33.1455 40 32.833 40C32.4424 40 32.0518 39.7656 31.9736 39.4531L30.333 35L25.8799 33.3594C25.5674 33.2812 25.333 32.8906 25.333 32.5C25.333 32.1875 25.5674 31.7969 25.8799 31.7188L30.333 30Z" fill="#186491"/>
</svg>
