<svg width="22" height="21" viewBox="0 0 22 21" fill="none" xmlns="http://www.w3.org/2000/svg">
<path d="M11.9272 1.20312L14.4663 6.39844L20.0522 7.21875C20.521 7.29688 20.9116 7.60938 21.0679 8.07812C21.2241 8.50781 21.1069 9.01562 20.7554 9.32812L16.6929 13.3516L17.6694 19.0547C17.7476 19.5234 17.5522 19.9922 17.1616 20.2656C16.771 20.5781 16.2632 20.5781 15.8335 20.3828L10.8335 17.6875L5.79443 20.3828C5.40381 20.5781 4.896 20.5781 4.50537 20.2656C4.11475 19.9922 3.91943 19.5234 3.99756 19.0547L4.93506 13.3516L0.872559 9.32812C0.560059 9.01562 0.442871 8.50781 0.560059 8.07812C0.716309 7.60938 1.10693 7.29688 1.57568 7.21875L7.20068 6.39844L9.70068 1.20312C9.896 0.773438 10.3257 0.5 10.8335 0.5C11.3022 0.5 11.7319 0.773438 11.9272 1.20312Z" fill="white"/>
</svg>
