<svg width="43" height="41" viewBox="0 0 43 41" fill="none" xmlns="http://www.w3.org/2000/svg">
<path d="M21.2549 0C22.0361 0 22.6611 0.46875 22.9736 1.09375L28.3643 12.1094L40.3174 13.9062C41.0205 13.9844 41.5674 14.4531 41.8018 15.1562C42.0361 15.8594 41.8799 16.5625 41.333 17.1094L32.6611 25.7031L34.6924 37.8125C34.8486 38.5156 34.5361 39.2969 33.9893 39.6875C33.3643 40.0781 32.583 40.1562 31.958 39.8438L21.2549 34.0625L10.6299 39.8438C9.92676 40.1562 9.22363 40.0781 8.59863 39.6875C8.05176 39.2188 7.73926 38.5156 7.89551 37.8125L9.92676 25.7031L1.25488 17.1094C0.708008 16.5625 0.551758 15.8594 0.786133 15.1562C1.02051 14.5312 1.56738 13.9844 2.27051 13.9062L14.2236 12.1094L19.6143 1.09375C19.9268 0.46875 20.5518 0 21.2549 0ZM21.2549 6.17188L17.1924 14.6875C16.8799 15.2344 16.4111 15.625 15.7861 15.7031L6.56738 17.0312L13.208 23.6719C13.6768 24.1406 13.9111 24.7656 13.7549 25.3125L12.1924 34.6875L20.3955 30.3125C20.9424 30 21.6455 30 22.1924 30.3125L30.3955 34.6875L28.833 25.3906C28.6768 24.7656 28.9111 24.1406 29.3799 23.75L36.0205 17.0312L26.8018 15.7031C26.1768 15.625 25.708 15.2344 25.3955 14.6875L21.2549 6.17188Z" fill="#4564FD"/>
</svg>
