<svg width="23" height="22" viewBox="0 0 23 22" fill="none" xmlns="http://www.w3.org/2000/svg">
<path d="M5.79688 2.32471C6.03125 2.98877 5.64062 3.69189 5.01562 3.92627L4 4.27783V8.96533C4 11.0356 5.67969 12.7153 7.75 12.7153C9.82031 12.7153 11.5 11.0356 11.5 8.96533V4.27783L10.4453 3.92627C9.82031 3.69189 9.46875 2.98877 9.66406 2.32471C9.89844 1.69971 10.6016 1.34814 11.2656 1.54346L12.2812 1.89502C13.2969 2.24658 14 3.18408 14 4.27783V8.96533C14 12.0122 11.8516 14.5122 9 15.0981C9.27344 17.2856 11.1094 18.9653 13.375 18.9653C15.7578 18.9653 17.75 17.0122 17.75 14.5903V11.856C16.6172 11.3481 15.875 10.2544 15.875 8.96533C15.875 7.24658 17.2422 5.84033 19 5.84033C20.7188 5.84033 22.125 7.24658 22.125 8.96533C22.125 10.2544 21.3438 11.3481 20.25 11.856V14.5903C20.25 18.4185 17.1641 21.4653 13.375 21.4653C9.74219 21.4653 6.77344 18.6919 6.5 15.0981C3.64844 14.5513 1.5 12.0122 1.5 8.96533V4.27783C1.5 3.18408 2.16406 2.24658 3.17969 1.89502L4.19531 1.54346C4.85938 1.34814 5.5625 1.69971 5.79688 2.32471ZM19 10.2153C19.6641 10.2153 20.25 9.66846 20.25 8.96533C20.25 8.30127 19.6641 7.71533 19 7.71533C18.2969 7.71533 17.75 8.30127 17.75 8.96533C17.75 9.66846 18.2969 10.2153 19 10.2153Z" fill="#4D5B7D"/>
</svg>
