<svg width="22" height="21" viewBox="0 0 22 21" fill="none" xmlns="http://www.w3.org/2000/svg">
<path d="M4.79688 1.625C4.99219 2.09375 4.71875 2.64062 4.25 2.83594L2.57031 3.46094C2.45312 3.5 2.375 3.61719 2.375 3.77344V8.8125C2.375 11.0781 4.17188 12.875 6.4375 12.875H6.75H7.0625C9.28906 12.875 11.125 11.0781 11.125 8.8125V3.77344C11.125 3.61719 11.0078 3.5 10.8906 3.46094L9.21094 2.83594C8.74219 2.64062 8.46875 2.09375 8.66406 1.625C8.85938 1.15625 9.40625 0.882812 9.875 1.07812L11.5547 1.70312C12.4141 2.01562 13 2.83594 13 3.77344V8.8125C13 11.8984 10.6562 14.4375 7.6875 14.75C7.80469 17.2109 9.875 19.125 12.375 19.125C14.9531 19.125 17.0625 17.0547 17.0625 14.4375V11.5078C15.7734 11.1172 14.875 9.90625 14.875 8.5C14.875 6.78125 16.2422 5.375 18 5.375C19.7188 5.375 21.125 6.78125 21.125 8.5C21.125 9.90625 20.1875 11.1172 18.9375 11.5078V14.4375C18.9375 18.0703 15.9688 21 12.375 21C8.82031 21 5.92969 18.2266 5.8125 14.75C2.80469 14.4375 0.5 11.8984 0.5 8.8125V3.77344C0.5 2.83594 1.04688 2.01562 1.90625 1.70312L3.58594 1.07812C4.09375 0.882812 4.60156 1.15625 4.79688 1.625ZM18 7.25C17.2969 7.25 16.75 7.83594 16.75 8.5C16.75 9.20312 17.2969 9.75 18 9.75C18.6641 9.75 19.25 9.20312 19.25 8.5C19.25 7.83594 18.6641 7.25 18 7.25Z" fill="#AA25ED"/>
</svg>
