<svg width="21" height="21" viewBox="0 0 21 21" fill="none" xmlns="http://www.w3.org/2000/svg">
<path d="M4.29688 1.16992C4.53125 1.83398 4.14062 2.53711 3.51562 2.77148L2.5 3.12305V7.81055C2.5 9.88086 4.17969 11.5605 6.25 11.5605C8.32031 11.5605 10 9.88086 10 7.81055V3.12305L8.94531 2.77148C8.32031 2.53711 7.96875 1.83398 8.16406 1.16992C8.39844 0.544922 9.10156 0.193359 9.76562 0.388672L10.7812 0.740234C11.7969 1.0918 12.5 2.0293 12.5 3.12305V7.81055C12.5 10.8574 10.3516 13.3574 7.5 13.9434C7.77344 16.1309 9.60938 17.8105 11.875 17.8105C14.2578 17.8105 16.25 15.8574 16.25 13.4355V10.7012C15.1172 10.1934 14.375 9.09961 14.375 7.81055C14.375 6.0918 15.7422 4.68555 17.5 4.68555C19.2188 4.68555 20.625 6.0918 20.625 7.81055C20.625 9.09961 19.8438 10.1934 18.75 10.7012V13.4355C18.75 17.2637 15.6641 20.3105 11.875 20.3105C8.24219 20.3105 5.27344 17.5371 5 13.9434C2.14844 13.3965 0 10.8574 0 7.81055V3.12305C0 2.0293 0.664062 1.0918 1.67969 0.740234L2.69531 0.388672C3.35938 0.193359 4.0625 0.544922 4.29688 1.16992ZM17.5 9.06055C18.1641 9.06055 18.75 8.51367 18.75 7.81055C18.75 7.14648 18.1641 6.56055 17.5 6.56055C16.7969 6.56055 16.25 7.14648 16.25 7.81055C16.25 8.51367 16.7969 9.06055 17.5 9.06055Z" fill="#186491"/>
</svg>
