<svg width="21" height="21" viewBox="0 0 21 21" fill="none" xmlns="http://www.w3.org/2000/svg">
<path d="M1.75 2.45001C2.41406 2.45001 3 3.03595 3 3.70001V16.825C3 17.1766 3.27344 17.45 3.625 17.45H19.25C19.9141 17.45 20.5 18.0359 20.5 18.7C20.5 19.4031 19.9141 19.95 19.25 19.95H3.625C1.86719 19.95 0.5 18.5828 0.5 16.825V3.70001C0.5 3.03595 1.04688 2.45001 1.75 2.45001ZM6.75 9.95001C7.41406 9.95001 8 10.5359 8 11.2V13.7C8 14.4031 7.41406 14.95 6.75 14.95C6.04688 14.95 5.5 14.4031 5.5 13.7V11.2C5.5 10.5359 6.04688 9.95001 6.75 9.95001ZM11.75 7.45001V9.95001C11.75 10.6531 11.1641 11.2 10.5 11.2C9.79688 11.2 9.25 10.6531 9.25 9.95001V7.45001C9.25 6.78595 9.79688 6.20001 10.5 6.20001C11.1641 6.20001 11.75 6.78595 11.75 7.45001ZM14.25 3.70001C14.9141 3.70001 15.5 4.28595 15.5 4.95001V7.45001C15.5 8.15314 14.9141 8.70001 14.25 8.70001C13.5469 8.70001 13 8.15314 13 7.45001V4.95001C13 4.28595 13.5469 3.70001 14.25 3.70001ZM19.25 4.95001V13.7C19.25 14.4031 18.6641 14.95 18 14.95C17.2969 14.95 16.75 14.4031 16.75 13.7V4.95001C16.75 4.28595 17.2969 3.70001 18 3.70001C18.6641 3.70001 19.25 4.28595 19.25 4.95001Z" fill="#00AEFF"/>
</svg>
