<svg width="41" height="36" viewBox="0 0 41 36" fill="none" xmlns="http://www.w3.org/2000/svg">
<path d="M39.9634 3.85938L26.8384 15.1094C26.1353 15.6562 25.1196 15.6562 24.4165 15.1094L15.5103 7.29688L3.55713 15.1875C2.69775 15.8125 1.52588 15.5781 0.979004 14.7188C0.354004 13.8594 0.588379 12.6875 1.44775 12.0625L14.5728 3.3125C15.2759 2.84375 16.2134 2.92188 16.8384 3.46875L25.6665 11.2031L37.5415 0.96875C38.3228 0.34375 39.4946 0.421875 40.1978 1.20312C40.8228 1.98438 40.7446 3.15625 39.9634 3.85938ZM16.2915 31.75V19.25C16.2915 18.9375 15.979 18.625 15.6665 18.625C15.2759 18.625 15.0415 18.9375 15.0415 19.25V31.75C15.0415 32.1406 15.2759 32.375 15.6665 32.375C15.979 32.375 16.2915 32.1406 16.2915 31.75ZM15.6665 15.5C17.6978 15.5 19.4165 17.2188 19.4165 19.25V31.75C19.4165 33.8594 17.6978 35.5 15.6665 35.5C13.5571 35.5 11.9165 33.8594 11.9165 31.75V19.25C11.9165 17.2188 13.5571 15.5 15.6665 15.5ZM6.2915 31.75V26.75C6.2915 26.4375 5.979 26.125 5.6665 26.125C5.27588 26.125 5.0415 26.4375 5.0415 26.75V31.75C5.0415 32.1406 5.27588 32.375 5.6665 32.375C5.979 32.375 6.2915 32.1406 6.2915 31.75ZM5.6665 23C7.69775 23 9.4165 24.7188 9.4165 26.75V31.75C9.4165 33.8594 7.69775 35.5 5.6665 35.5C3.55713 35.5 1.9165 33.8594 1.9165 31.75V26.75C1.9165 24.7188 3.55713 23 5.6665 23ZM26.2915 24.25C26.2915 23.9375 25.979 23.625 25.6665 23.625C25.2759 23.625 25.0415 23.9375 25.0415 24.25V31.75C25.0415 32.1406 25.2759 32.375 25.6665 32.375C25.979 32.375 26.2915 32.1406 26.2915 31.75V24.25ZM21.9165 24.25C21.9165 22.2188 23.5571 20.5 25.6665 20.5C27.6978 20.5 29.4165 22.2188 29.4165 24.25V31.75C29.4165 33.8594 27.6978 35.5 25.6665 35.5C23.5571 35.5 21.9165 33.8594 21.9165 31.75V24.25ZM36.2915 31.75V19.25C36.2915 18.9375 35.979 18.625 35.6665 18.625C35.2759 18.625 35.0415 18.9375 35.0415 19.25V31.75C35.0415 32.1406 35.2759 32.375 35.6665 32.375C35.979 32.375 36.2915 32.1406 36.2915 31.75ZM35.6665 15.5C37.6978 15.5 39.4165 17.2188 39.4165 19.25V31.75C39.4165 33.8594 37.6978 35.5 35.6665 35.5C33.5571 35.5 31.9165 33.8594 31.9165 31.75V19.25C31.9165 17.2188 33.5571 15.5 35.6665 15.5Z" fill="#4564FD"/>
</svg>
