<svg width="20" height="18" viewBox="0 0 20 18" fill="none" xmlns="http://www.w3.org/2000/svg">
<path d="M2.5 1.5V14.625C2.5 14.9766 2.77344 15.25 3.125 15.25H18.75C19.4141 15.25 20 15.8359 20 16.5C20 17.2031 19.4141 17.75 18.75 17.75H3.125C1.36719 17.75 0 16.3828 0 14.625V1.5C0 0.835938 0.546875 0.25 1.25 0.25C1.91406 0.25 2.5 0.835938 2.5 1.5ZM17.1484 9.89844L15.8594 8.64844L12.7344 11.7734C12.2656 12.2812 11.4453 12.2812 10.9766 11.7734L8.125 8.92188L5.85938 11.1484C5.39062 11.6562 4.57031 11.6562 4.10156 11.1484C3.59375 10.6797 3.59375 9.85938 4.10156 9.39062L7.22656 6.26562C7.69531 5.75781 8.51562 5.75781 8.98438 6.26562L11.875 9.11719L14.1016 6.89062L12.8125 5.60156C12.2266 5.01562 12.6562 4 13.4766 4H17.8125C18.3203 4 18.75 4.42969 18.75 4.9375V9.23438C18.75 10.0938 17.7344 10.5234 17.1484 9.89844Z" fill="#011445"/>
</svg>
