<svg width="20" height="20" viewBox="0 0 20 20" fill="none" xmlns="http://www.w3.org/2000/svg">
<path d="M12.5 0.9375C12.5 0.429688 12.8906 0 13.4375 0H17.8125C18.3203 0 18.75 0.429688 18.75 0.9375V5.3125C18.75 5.85938 18.3203 6.25 17.8125 6.25C17.2656 6.25 16.875 5.85938 16.875 5.3125V3.20312L11.9141 8.16406C11.5625 8.51562 11.0156 8.55469 10.625 8.24219L6.875 5L2.77344 8.55469C2.38281 8.86719 1.79688 8.82812 1.44531 8.4375C1.13281 8.04688 1.17188 7.46094 1.5625 7.10938L6.25 3.04688C6.60156 2.77344 7.10938 2.77344 7.46094 3.04688L11.1719 6.25L15.5469 1.875H13.4375C12.8906 1.875 12.5 1.48438 12.5 0.9375ZM4.02344 11.875C3.86719 13.0078 2.96875 13.9062 1.875 14.0625V15.9766C2.96875 16.1328 3.86719 16.9922 4.02344 18.125H15.9375C16.0938 17.0312 16.9922 16.1328 18.125 15.9766V14.0625C16.9922 13.9062 16.0938 13.0078 15.9375 11.875H4.02344ZM1.875 10H18.125C19.1406 10 20 10.8594 20 11.875V18.125C20 19.1797 19.1406 20 18.125 20H1.875C0.820312 20 0 19.1797 0 18.125V11.875C0 10.8594 0.820312 10 1.875 10ZM10 17.5C9.10156 17.5 8.28125 17.0312 7.8125 16.25C7.38281 15.5078 7.38281 14.5312 7.8125 13.75C8.28125 13.0078 9.10156 12.5 10 12.5C10.8594 12.5 11.6797 13.0078 12.1484 13.75C12.5781 14.5312 12.5781 15.5078 12.1484 16.25C11.6797 17.0312 10.8594 17.5 10 17.5Z" fill="#135A62"/>
</svg>
