<svg width="19" height="18" viewBox="0 0 19 18" fill="none" xmlns="http://www.w3.org/2000/svg">
<path d="M2 0.121582H5.75C6.41406 0.121582 7 0.70752 7 1.37158C7 2.07471 6.41406 2.62158 5.75 2.62158H3.25V5.12158C3.25 5.82471 2.66406 6.37158 2 6.37158C1.29688 6.37158 0.75 5.82471 0.75 5.12158V1.37158C0.75 0.70752 1.29688 0.121582 2 0.121582ZM3.25 12.6216V15.1216H5.75C6.41406 15.1216 7 15.7075 7 16.3716C7 17.0747 6.41406 17.6216 5.75 17.6216H2C1.29688 17.6216 0.75 17.0747 0.75 16.3716V12.6216C0.75 11.9575 1.29688 11.3716 2 11.3716C2.66406 11.3716 3.25 11.9575 3.25 12.6216ZM13.25 0.121582H17C17.6641 0.121582 18.25 0.70752 18.25 1.37158V5.12158C18.25 5.82471 17.6641 6.37158 17 6.37158C16.2969 6.37158 15.75 5.82471 15.75 5.12158V2.62158H13.25C12.5469 2.62158 12 2.07471 12 1.37158C12 0.70752 12.5469 0.121582 13.25 0.121582ZM18.25 12.6216V16.3716C18.25 17.0747 17.6641 17.6216 17 17.6216H13.25C12.5469 17.6216 12 17.0747 12 16.3716C12 15.7075 12.5469 15.1216 13.25 15.1216H15.75V12.6216C15.75 11.9575 16.2969 11.3716 17 11.3716C17.6641 11.3716 18.25 11.9575 18.25 12.6216Z" fill="#AA25ED"/>
</svg>
