<svg width="17" height="17" viewBox="0 0 17 17" fill="none" xmlns="http://www.w3.org/2000/svg">
<path d="M5.125 1.28125L6.375 4.28125C6.59375 4.78125 6.46875 5.375 6.03125 5.71875L4.5 7C5.53125 9.1875 7.3125 10.9688 9.5 12L10.7812 10.4688C11.125 10.0312 11.7188 9.90625 12.2188 10.125L15.2188 11.375C15.8125 11.5938 16.0938 12.25 15.9375 12.8438L15.1875 15.5938C15.0312 16.125 14.5625 16.5 14 16.5C6.25 16.5 0 10.25 0 2.5C0 1.9375 0.375 1.46875 0.90625 1.3125L3.65625 0.5625C4.25 0.40625 4.90625 0.6875 5.125 1.28125Z" fill="#193CE5"/>
</svg>
