<svg width="20" height="21" viewBox="0 0 20 21" fill="none" xmlns="http://www.w3.org/2000/svg">
<path d="M7.8125 4.01367C7.57812 4.4043 7.14844 4.59961 6.71875 4.48242C5.85938 4.20898 4.92188 4.4043 4.21875 5.06836C3.55469 5.73242 3.35938 6.70898 3.63281 7.5293C3.75 7.95898 3.55469 8.42773 3.16406 8.66211C2.38281 9.05273 1.875 9.87305 1.875 10.8105C1.875 11.7871 2.38281 12.6074 3.16406 12.998C3.55469 13.2324 3.75 13.6621 3.63281 14.0918C3.35938 14.9512 3.59375 15.8887 4.25781 16.5527C4.92188 17.2168 5.85938 17.4512 6.71875 17.1777C7.14844 17.0605 7.61719 17.2559 7.8125 17.6465C8.24219 18.4277 9.0625 18.9355 10 18.9355C10.9375 18.9355 11.7578 18.4277 12.1484 17.6465C12.3828 17.2559 12.8516 17.0605 13.2812 17.1777C14.1016 17.4512 15.0781 17.2168 15.7422 16.5527C16.4062 15.8887 16.6016 14.9512 16.3281 14.0918C16.2109 13.6621 16.4062 13.1934 16.7969 12.998C17.5781 12.5684 18.125 11.748 18.125 10.8105C18.125 9.87305 17.5781 9.05273 16.7969 8.66211C16.4062 8.42773 16.2109 7.95898 16.3281 7.5293C16.6016 6.70898 16.4062 5.73242 15.7422 5.06836C15.0781 4.4043 14.1016 4.20898 13.2812 4.48242C12.8516 4.59961 12.3828 4.4043 12.1484 4.01367C11.7578 3.23242 10.9375 2.68555 10 2.68555C9.02344 2.68555 8.20312 3.23242 7.8125 4.01367ZM10 0.810547C11.3672 0.810547 12.6172 1.47461 13.4375 2.5293C14.7266 2.33398 16.0547 2.76367 17.0703 3.74023C18.0469 4.75586 18.4375 6.08398 18.2812 7.37305C19.3359 8.19336 20 9.44336 20 10.8105C20 12.2168 19.3359 13.4668 18.2812 14.248C18.4766 15.5371 18.0469 16.9043 17.0703 17.8809C16.0547 18.8965 14.7266 19.2871 13.4375 19.1309C12.6172 20.1465 11.3672 20.8105 10 20.8105C8.59375 20.8105 7.34375 20.1465 6.5625 19.1309C5.27344 19.2871 3.90625 18.8965 2.92969 17.9199C1.91406 16.9043 1.52344 15.5762 1.67969 14.2871C0.664062 13.4668 0 12.2168 0 10.8105C0 9.44336 0.664062 8.19336 1.67969 7.37305C1.52344 6.08398 1.91406 4.75586 2.89062 3.74023C3.90625 2.76367 5.23438 2.37305 6.52344 2.5293C7.34375 1.47461 8.59375 0.810547 10 0.810547ZM14.4141 8.97461L9.41406 13.9746C9.02344 14.3652 8.4375 14.3652 8.08594 13.9746L5.58594 11.4746C5.19531 11.123 5.19531 10.5371 5.58594 10.1855C5.9375 9.79492 6.52344 9.79492 6.91406 10.1855L8.75 12.0215L13.0859 7.68555C13.4375 7.29492 14.0234 7.29492 14.4141 7.68555C14.7656 8.03711 14.7656 8.62305 14.4141 8.97461Z" fill="#186491"/>
</svg>
