<svg width="22" height="20" viewBox="0 0 22 20" fill="none" xmlns="http://www.w3.org/2000/svg">
<path d="M11 20C7.40625 20 4.125 18.125 2.32812 15C0.53125 11.9141 0.53125 8.125 2.32812 5C4.125 1.91406 7.40625 0 11 0C14.5547 0 17.8359 1.91406 19.6328 5C21.4297 8.125 21.4297 11.9141 19.6328 15C17.8359 18.125 14.5547 20 11 20ZM15.4141 8.16406H15.375C15.7656 7.8125 15.7656 7.22656 15.375 6.83594C15.0234 6.48438 14.4375 6.48438 14.0859 6.83594L9.75 11.2109L7.91406 9.375C7.52344 8.98438 6.9375 8.98438 6.58594 9.375C6.19531 9.72656 6.19531 10.3125 6.58594 10.6641L9.08594 13.1641C9.4375 13.5547 10.0234 13.5547 10.4141 13.1641L15.4141 8.16406Z" fill="#F3B02B"/>
</svg>
