<svg width="19" height="21" viewBox="0 0 19 21" fill="none" xmlns="http://www.w3.org/2000/svg">
<path d="M10.0078 0.98877L17.3516 4.11377C18.2109 4.50439 18.875 5.32471 18.875 6.34033C18.8359 10.2466 17.2344 17.3169 10.5156 20.5591C9.85156 20.8716 9.10938 20.8716 8.44531 20.5591C1.72656 17.3169 0.125 10.2466 0.125 6.34033C0.0859375 5.32471 0.75 4.50439 1.60938 4.11377L8.95312 0.98877C9.10938 0.910645 9.30469 0.871582 9.5 0.871582C9.65625 0.871582 9.85156 0.910645 10.0078 0.98877ZM13.9141 9.03564H13.875C14.2656 8.68408 14.2656 8.09814 13.875 7.70752C13.5234 7.35596 12.9375 7.35596 12.5859 7.70752L8.25 12.0825L6.41406 10.2466C6.02344 9.85596 5.4375 9.85596 5.08594 10.2466C4.69531 10.5981 4.69531 11.1841 5.08594 11.5356L7.58594 14.0356C7.9375 14.4263 8.52344 14.4263 8.91406 14.0356L13.9141 9.03564Z" fill="#AA25ED"/>
</svg>
