<svg width="18" height="17" viewBox="0 0 18 17" fill="none" xmlns="http://www.w3.org/2000/svg">
<path d="M9 14.9009C11.3125 14.9009 13.4375 13.6821 14.625 11.6509C15.7812 9.65088 15.7812 7.18213 14.625 5.15088C13.4375 3.15088 11.3125 1.90088 9 1.90088C6.65625 1.90088 4.53125 3.15088 3.34375 5.15088C2.1875 7.18213 2.1875 9.65088 3.34375 11.6509C4.53125 13.6821 6.65625 14.9009 9 14.9009ZM9 0.400879C11.8438 0.400879 14.4688 1.93213 15.9062 4.40088C17.3438 6.90088 17.3438 9.93213 15.9062 12.4009C14.4688 14.9009 11.8438 16.4009 9 16.4009C6.125 16.4009 3.5 14.9009 2.0625 12.4009C0.625 9.93213 0.625 6.90088 2.0625 4.40088C3.5 1.93213 6.125 0.400879 9 0.400879ZM7 4.90088H11.75C12.1562 4.90088 12.5 5.24463 12.5 5.65088V10.6509C12.5 11.0884 12.1562 11.4009 11.75 11.4009C11.3125 11.4009 11 11.0884 11 10.6509V7.46338L6.78125 11.6821C6.46875 11.9946 6 11.9946 5.71875 11.6821C5.40625 11.4009 5.40625 10.9321 5.71875 10.6509L9.9375 6.43213H7C6.5625 6.43213 6.25 6.08838 6.25 5.68213C6.25 5.24463 6.5625 4.93213 7 4.93213V4.90088Z" fill="#E8F2F7"/>
</svg>
