<svg width="25" height="22" viewBox="0 0 25 22" fill="none" xmlns="http://www.w3.org/2000/svg">
<path d="M4.375 1.375H14.375C15.3906 1.375 16.25 2.23438 16.25 3.25V5.125H18.2031C18.8672 5.125 19.5312 5.39844 20 5.86719L23.0078 8.875C23.4766 9.34375 23.75 10.0078 23.75 10.6719V11.375V12.625V15.125C24.4141 15.125 25 15.7109 25 16.375C25 17.0781 24.4141 17.625 23.75 17.625H22.5C22.5 19.6953 20.8203 21.375 18.75 21.375C16.6797 21.375 15 19.6953 15 17.625H10C10 19.6953 8.32031 21.375 6.25 21.375C4.17969 21.375 2.5 19.6953 2.5 17.625V12.625H8.125C8.4375 12.625 8.75 12.3516 8.75 12C8.75 11.6875 8.4375 11.375 8.125 11.375H2.5H0.625C0.273438 11.375 0 11.1016 0 10.75C0 10.4375 0.273438 10.125 0.625 10.125H2.5H9.375C9.6875 10.125 10 9.85156 10 9.5C10 9.1875 9.6875 8.875 9.375 8.875H2.5H1.875C1.52344 8.875 1.25 8.60156 1.25 8.25C1.25 7.9375 1.52344 7.625 1.875 7.625H2.5H10.625C10.9375 7.625 11.25 7.35156 11.25 7C11.25 6.6875 10.9375 6.375 10.625 6.375H2.5H0.625C0.273438 6.375 0 6.10156 0 5.75C0 5.4375 0.273438 5.125 0.625 5.125H2.5V3.25C2.5 2.23438 3.32031 1.375 4.375 1.375ZM21.25 10.6719L18.2031 7.625H16.25V11.375H21.25V10.6719ZM6.25 15.75C5.54688 15.75 4.96094 16.1406 4.60938 16.6875C4.25781 17.2734 4.25781 18.0156 4.60938 18.5625C4.96094 19.1484 5.54688 19.5 6.25 19.5C6.91406 19.5 7.5 19.1484 7.85156 18.5625C8.20312 18.0156 8.20312 17.2734 7.85156 16.6875C7.5 16.1406 6.91406 15.75 6.25 15.75ZM16.875 17.625C16.875 18.3281 17.2266 18.9141 17.8125 19.2656C18.3594 19.6172 19.1016 19.6172 19.6875 19.2656C20.2344 18.9141 20.625 18.3281 20.625 17.625C20.625 16.9609 20.2344 16.375 19.6875 16.0234C19.1016 15.6719 18.3594 15.6719 17.8125 16.0234C17.2266 16.375 16.875 16.9609 16.875 17.625Z" fill="#1A2C58"/>
</svg>
