<svg width="26" height="21" viewBox="0 0 26 21" fill="none" xmlns="http://www.w3.org/2000/svg">
<path d="M8.625 13.8105C7.10156 13.8105 5.73438 13.498 4.52344 12.9121C4.21094 13.0684 3.89844 13.1855 3.54688 13.3418C2.80469 13.6152 1.94531 13.8105 1.125 13.8105C0.851562 13.8105 0.617188 13.6543 0.5 13.3809C0.421875 13.1465 0.539062 12.873 0.734375 12.7168V12.6777H0.773438C0.8125 12.6387 0.890625 12.5605 0.96875 12.5215C1.08594 12.4043 1.28125 12.209 1.47656 11.9746C1.67188 11.7012 1.90625 11.3496 2.02344 10.998C1.04688 9.86523 0.5 8.45898 0.5 6.93555C0.5 3.14648 4.13281 0.0605469 8.625 0.0605469C13.0781 0.0605469 16.75 3.14648 16.75 6.93555C16.75 10.7637 13.0781 13.8105 8.625 13.8105ZM18 6.93555H17.9609C17.9609 6.74023 17.9609 6.54492 17.9609 6.34961C22.1797 6.58398 25.4609 9.5918 25.4609 13.1855C25.4609 14.709 24.9141 16.1152 23.9375 17.248C24.0547 17.5996 24.2891 17.9121 24.4844 18.1855C24.6797 18.459 24.875 18.6152 24.9922 18.7715C25.0703 18.8105 25.1484 18.8887 25.1875 18.8887C25.1875 18.9277 25.2266 18.9277 25.2266 18.9277C25.4609 19.123 25.5391 19.3965 25.4609 19.6309C25.3828 19.9043 25.1094 20.0605 24.875 20.0605C24.0156 20.0605 23.1562 19.8652 22.4141 19.5918C22.0625 19.4355 21.75 19.3184 21.4375 19.1621C20.2266 19.748 18.8594 20.0605 17.375 20.0605C13.625 20.0605 10.4609 17.9512 9.52344 15.0215C14.0938 14.6309 18 11.3496 18 6.93555Z" fill="#186491"/>
</svg>
