<svg width="25" height="21" viewBox="0 0 25 21" fill="none" xmlns="http://www.w3.org/2000/svg">
<path d="M11.875 5.64062C11.875 4.54688 11.25 3.53125 10.3125 2.94531C9.33594 2.39844 8.125 2.39844 7.1875 2.94531C6.21094 3.53125 5.625 4.54688 5.625 5.64062C5.625 6.77344 6.21094 7.78906 7.1875 8.375C8.125 8.92188 9.33594 8.92188 10.3125 8.375C11.25 7.78906 11.875 6.77344 11.875 5.64062ZM3.75 5.64062C3.75 3.88281 4.6875 2.24219 6.25 1.34375C7.77344 0.445312 9.6875 0.445312 11.25 1.34375C12.7734 2.24219 13.75 3.88281 13.75 5.64062C13.75 7.4375 12.7734 9.07812 11.25 9.97656C9.6875 10.875 7.77344 10.875 6.25 9.97656C4.6875 9.07812 3.75 7.4375 3.75 5.64062ZM1.91406 18.7656H13.125C13.2422 18.9609 13.3984 19.1172 13.5156 19.2344C14.1406 19.8984 15.0781 19.9766 15.7812 19.5859V19.625C15.7812 19.9766 15.8594 20.3672 16.0938 20.6406H1.13281C0.507812 20.6406 0 20.1328 0 19.5078C0 15.6406 3.08594 12.5156 6.95312 12.5156H10.5078C10.9766 12.5156 11.4453 12.5938 11.875 12.6719C11.7969 13.375 12.1484 14.0391 12.7344 14.4297C12.5781 14.5078 12.4609 14.625 12.3438 14.7422C11.7578 14.5078 11.1719 14.3906 10.5078 14.3906H6.95312C4.375 14.3906 2.26562 16.3047 1.91406 18.7656ZM17.0312 9.19531C17.0312 8.92188 17.1875 8.64844 17.4609 8.60938C17.8516 8.49219 18.2812 8.45312 18.75 8.45312C19.1797 8.45312 19.6094 8.49219 20 8.60938C20.2734 8.64844 20.4688 8.92188 20.4688 9.19531V9.85938C20.4688 10.1719 20.625 10.4453 20.8984 10.6016C21.1719 10.7578 21.4844 10.7969 21.7578 10.6406L22.3047 10.3281C22.5391 10.1719 22.8125 10.2109 23.0078 10.4062C23.3203 10.7188 23.5938 11.0703 23.7891 11.4609C24.0234 11.8516 24.2188 12.2812 24.3359 12.6719C24.4141 12.9453 24.2969 13.2188 24.0625 13.375L23.4766 13.6875C23.2422 13.8438 23.0859 14.1172 23.0859 14.3906C23.0859 14.7031 23.2422 14.9766 23.4766 15.1328L24.0625 15.4453C24.2969 15.5625 24.4141 15.8359 24.3359 16.1094C24.2188 16.5391 24.0234 16.9297 23.7891 17.3203C23.5938 17.7109 23.3203 18.0625 23.0078 18.375C22.8125 18.5703 22.5391 18.6094 22.3047 18.4922L21.7578 18.1797C21.4844 18.0234 21.1719 18.0625 20.8984 18.1797C20.625 18.3359 20.4688 18.6094 20.4688 18.9219V19.625C20.4688 19.8984 20.2734 20.1328 20 20.2109C19.6094 20.2891 19.1797 20.3281 18.75 20.3281C18.2812 20.3281 17.8516 20.2891 17.4609 20.2109C17.1875 20.1328 17.0312 19.8984 17.0312 19.625V18.9219C17.0312 18.6094 16.8359 18.3359 16.5625 18.1797C16.2891 18.0234 15.9766 18.0234 15.7031 18.1797L15.1562 18.4922C14.9219 18.6094 14.6484 18.5703 14.4531 18.375C14.1406 18.0625 13.9062 17.7109 13.6719 17.3203C13.4375 16.9297 13.2422 16.5391 13.125 16.1094C13.0469 15.8359 13.1641 15.5625 13.3984 15.4453L13.9453 15.1328C14.2188 14.9766 14.375 14.7031 14.375 14.3906C14.375 14.1172 14.2188 13.8047 13.9453 13.6484L13.3984 13.3359C13.1641 13.2188 13.0469 12.9453 13.125 12.6719C13.2812 12.2812 13.4375 11.8516 13.6719 11.4609C13.9062 11.0703 14.1406 10.7188 14.4531 10.4062C14.6484 10.2109 14.9219 10.1719 15.1562 10.3281L15.7031 10.6016C15.9766 10.7578 16.2891 10.7578 16.5625 10.6016C16.8359 10.4453 17.0312 10.1719 17.0312 9.85938V9.19531ZM20.625 14.3906C20.625 13.7266 20.2734 13.0625 19.6875 12.7109C19.1016 12.3594 18.3594 12.3594 17.7734 12.7109C17.1875 13.0625 16.8359 13.7266 16.875 14.3906C16.8359 15.0938 17.1875 15.7578 17.7734 16.1094C18.3594 16.4609 19.1016 16.4609 19.6875 16.1094C20.2734 15.7578 20.625 15.0938 20.625 14.3906Z" fill="#00AEFF"/>
</svg>
