<svg width="24" height="25" viewBox="0 0 24 25" fill="none" xmlns="http://www.w3.org/2000/svg">
<path d="M20.6365 15.3379C20.615 15.3334 20.6 15.3149 20.6 15.293V9.46629C20.6 9.4443 20.615 9.42587 20.6365 9.42131C21.4729 9.24482 22.1017 8.50173 22.1017 7.6133C22.1017 6.59502 21.2721 5.76587 20.2543 5.76587C19.7091 5.76587 19.2192 6.00323 18.8823 6.38027C18.8677 6.39669 18.8441 6.40048 18.825 6.38944L13.7767 3.47522C13.7577 3.46422 13.7492 3.442 13.756 3.42112C14.1408 2.24286 13.2668 1 11.9991 1C10.7499 1 9.85292 2.22222 10.2449 3.42107C10.2517 3.44195 10.2433 3.46418 10.2242 3.47517L5.17584 6.38958C5.15684 6.40058 5.13336 6.39683 5.11868 6.38051C4.77922 6.00338 4.28924 5.76592 3.74386 5.76592C2.72612 5.76592 1.89648 6.59502 1.89648 7.61334C1.89648 8.50178 2.52797 9.24482 3.36447 9.42136C3.38597 9.42587 3.40095 9.44435 3.40095 9.46634V15.293C3.40095 15.315 3.38597 15.3334 3.36447 15.338C2.52797 15.5143 1.89648 16.2576 1.89648 17.1455C1.89648 18.1643 2.72616 18.9931 3.74386 18.9931C4.28919 18.9931 4.77917 18.7554 5.11868 18.3788C5.13336 18.3625 5.15679 18.3588 5.1758 18.3698L10.2242 21.2842C10.2433 21.2952 10.2517 21.3173 10.2449 21.3383C9.85296 22.5388 10.7509 23.7591 11.9991 23.7591C13.2659 23.7591 14.1409 22.5182 13.7561 21.3382C13.7493 21.3174 13.7578 21.2951 13.7768 21.2842L18.8251 18.3699C18.8441 18.3589 18.8677 18.3626 18.8823 18.379C19.2192 18.7555 19.7091 18.9932 20.2543 18.9932C21.2721 18.9932 22.1017 18.1644 22.1017 17.1455C22.1017 16.2575 21.4729 15.5142 20.6365 15.3379ZM19.9086 15.293C19.9086 15.3149 19.8937 15.3334 19.8721 15.3379C19.4823 15.42 19.1377 15.6257 18.8823 15.9121C18.8677 15.9285 18.8441 15.9323 18.825 15.9213L17.1741 14.9685C17.1512 14.9553 17.1222 14.9639 17.1102 14.9874C17.0199 15.164 16.9207 15.3353 16.8132 15.5008C16.7988 15.523 16.8058 15.5524 16.8288 15.5656L18.4767 16.5179C18.4957 16.5288 18.5042 16.551 18.4974 16.5719C18.3767 16.9432 18.3768 17.348 18.4974 17.7191C18.5042 17.74 18.4957 17.7622 18.4767 17.7731L13.4311 20.6872C13.4121 20.6982 13.3886 20.6944 13.374 20.6781C13.116 20.3917 12.7713 20.1861 12.3814 20.104C12.3599 20.0995 12.3449 20.081 12.3449 20.059V18.1544C12.3449 18.1282 12.3234 18.1075 12.2973 18.1085C12.2967 18.1085 12.2962 18.1085 12.2956 18.1085L11.7056 18.1086C11.705 18.1086 11.7045 18.1086 11.7039 18.1086C11.6778 18.1077 11.6563 18.1284 11.6563 18.1546V20.059C11.6563 20.081 11.6413 20.0994 11.6197 20.104C11.2273 20.186 10.8826 20.3915 10.6271 20.6778C10.6125 20.6943 10.5889 20.698 10.5698 20.6871L5.52164 17.7731C5.50263 17.7621 5.49408 17.7399 5.5009 17.7191C5.62157 17.3479 5.62162 16.9431 5.5009 16.5718C5.49413 16.5509 5.50263 16.5288 5.52164 16.5178L7.17024 15.5667C7.19319 15.5534 7.20024 15.524 7.1858 15.5018C7.07832 15.3364 6.97906 15.1651 6.88872 14.9885C6.87668 14.965 6.84773 14.9564 6.82484 14.9697L5.17584 15.9213C5.15684 15.9322 5.13336 15.9285 5.11872 15.9122C4.86077 15.6257 4.51608 15.42 4.12613 15.3378C4.10463 15.3333 4.08965 15.3148 4.08965 15.2928V9.46629C4.08965 9.4443 4.10458 9.42587 4.12608 9.42131C4.51608 9.33875 4.86082 9.13317 5.11872 8.8467C5.13341 8.83038 5.15684 8.82669 5.17584 8.83763L6.8246 9.78966C6.84754 9.80291 6.87644 9.79432 6.88848 9.7708C6.97882 9.59426 7.07799 9.42294 7.18551 9.25758C7.19996 9.23536 7.1929 9.20594 7.16996 9.19274L5.52159 8.24147C5.50258 8.23048 5.49408 8.2083 5.50085 8.18742C5.62152 7.81634 5.62157 7.41122 5.50085 7.03989C5.49408 7.01901 5.50258 6.99683 5.52159 6.98589L10.5698 4.07243C10.5889 4.06144 10.6124 4.06523 10.6271 4.08165C10.8826 4.36778 11.2273 4.57322 11.6197 4.6553C11.6413 4.65981 11.6563 4.67829 11.6563 4.70027V6.60438C11.6563 6.63064 11.6778 6.65123 11.7039 6.65032H11.7056L12.2956 6.65046H12.2973C12.3234 6.65142 12.3449 6.63074 12.3449 6.60453V4.70018C12.3449 4.67819 12.3599 4.65971 12.3814 4.6552C12.7714 4.57307 13.1161 4.36754 13.374 4.08136C13.3886 4.06509 13.4121 4.06139 13.4311 4.07234L18.4767 6.98589C18.4957 6.99683 18.5042 7.01906 18.4975 7.03989C18.3768 7.41122 18.3768 7.81634 18.4975 8.18742C18.5042 8.2083 18.4957 8.23048 18.4768 8.24147L16.829 9.19384C16.8061 9.20709 16.7991 9.23646 16.8135 9.25869C16.9209 9.4241 17.0201 9.59546 17.1104 9.77205C17.1224 9.79562 17.1514 9.80416 17.1743 9.79091L18.825 8.83778C18.8441 8.82678 18.8677 8.83053 18.8823 8.84699C19.1378 9.13331 19.4824 9.3388 19.8722 9.42136C19.8937 9.42592 19.9087 9.44435 19.9087 9.46634L19.9086 15.293ZM11.9991 7.23726C9.15912 7.23726 6.85685 9.53954 6.85685 12.3795C6.85685 15.2195 9.15912 17.5217 11.9991 17.5217C14.8391 17.5217 17.1413 15.2195 17.1413 12.3795C17.1413 9.53954 14.8391 7.23726 11.9991 7.23726ZM14.2365 11.5803L11.0845 16.0256C11.0586 16.0621 11.001 16.0437 11.001 15.999V12.7167C11.001 12.6914 10.9803 12.6707 10.955 12.6707H9.79925C9.76186 12.6707 9.74012 12.6286 9.76172 12.5981L12.5021 8.73333C12.528 8.69685 12.5856 8.71523 12.5856 8.75992V11.4617C12.5856 11.487 12.6062 11.5077 12.6316 11.5077H14.1989C14.2363 11.5078 14.2581 11.5498 14.2365 11.5803Z" fill="#F1F2F9"/>
</svg>
